<svg width="104" height="68" viewBox="0 0 104 68" fill="none" xmlns="http://www.w3.org/2000/svg">
<path d="M85.5723 54.3829C85.6384 54.4734 85.774 54.3621 85.7392 54.376C85.7288 54.3134 85.6001 54.3829 85.5723 54.3829Z" fill="#00B14F"/>
<path d="M86.358 56.752C86.3158 56.6571 86.3052 56.8435 86.358 56.752Z" fill="#00B14F"/>
<path d="M86.7266 58.0214C86.7787 58.011 86.8448 57.9309 86.904 57.8996L86.8135 57.8266C86.7961 57.8857 86.7961 57.9901 86.7266 58.0214Z" fill="#00B14F"/>
<path d="M86.906 57.8996L87.0416 58.0109C87.0068 57.8822 86.9582 57.8718 86.906 57.8996Z" fill="#00B14F"/>
<path d="M86.9102 58.5641L86.7676 58.5258L86.9937 58.6058L86.9102 58.5641Z" fill="#00B14F"/>
<path d="M87.0565 58.9155C86.9382 58.8911 86.9243 59.0545 86.8408 59.0128C86.893 59.1032 87.0043 59.1589 87.1052 59.2076C87.0356 59.1415 87.0182 59.0546 87.0565 58.9155Z" fill="#00B14F"/>
<path d="M87.2592 59.2945C87.221 59.2632 87.1653 59.2353 87.1062 59.2075C87.1445 59.2423 87.1897 59.2736 87.2592 59.2945Z" fill="#00B14F"/>
<path d="M86.9971 58.4248L87.1188 58.3205C87.1188 58.3205 87.1084 58.2822 87.1014 58.2648C87.0736 58.2857 87.004 58.3344 86.9971 58.4248Z" fill="#00B14F"/>
<path d="M87.1229 58.3136H87.1194C87.1368 58.3797 87.1472 58.4214 87.1542 58.4388C87.1507 58.4214 87.1403 58.3832 87.1229 58.3136Z" fill="#00B14F"/>
<path d="M87.0986 58.2474V58.2617C87.0986 58.2617 87.1201 58.2474 87.0986 58.2474Z" fill="#00B14F"/>
<path d="M87.0918 57.9901L87.2449 58.1153L87.224 57.9553C87.1892 57.9727 87.144 58.0179 87.0918 57.9901Z" fill="#00B14F"/>
<path d="M87.3194 58.1752L87.249 58.1154L87.2561 58.1787L87.3194 58.1752Z" fill="#00B14F"/>
<path d="M87.3 58.9919C87.3835 59.0337 87.4148 59.1033 87.453 59.1798C87.453 59.0859 87.4356 58.9885 87.4043 58.905C87.3556 58.9084 87.2652 58.898 87.3 58.9884V58.9919Z" fill="#00B14F"/>
<path d="M87.2275 58.658L87.2413 58.6682C87.2413 58.6682 87.2516 58.6477 87.2275 58.658Z" fill="#00B14F"/>
<path d="M87.7283 59.9703C87.7283 59.9703 87.7429 59.9558 87.7502 59.9485L87.7246 59.9558V59.974L87.7283 59.9703Z" fill="#00B14F"/>
<path d="M87.4222 58.8841C87.4257 58.8111 87.3769 58.7832 87.3213 58.7623C87.3526 58.8041 87.3804 58.8528 87.4013 58.9085C87.4222 58.9085 87.4361 58.905 87.4222 58.8841Z" fill="#00B14F"/>
<path d="M87.4009 59.4927C87.4183 59.4475 87.4288 59.4023 87.4392 59.3536C87.4079 59.4023 87.3592 59.4927 87.4009 59.4927Z" fill="#00B14F"/>
<path d="M87.2089 58.7071L87.1977 58.6996C87.1754 58.7332 87.1866 58.7258 87.2089 58.7071Z" fill="#00B14F"/>
<path d="M87.2061 58.7067C87.2374 58.7345 87.2826 58.7484 87.3208 58.7623C87.2965 58.7275 87.2687 58.6962 87.2373 58.6719C87.2304 58.6823 87.2165 58.6963 87.2061 58.7067Z" fill="#00B14F"/>
<path d="M87.6608 59.6598L87.6225 59.6041C87.6225 59.6807 87.5912 59.7502 87.5216 59.8789C87.6225 59.9589 87.6782 59.9624 87.7234 59.9555L87.6364 59.6493L87.6642 59.6632L87.6608 59.6598Z" fill="#00B14F"/>
<path d="M87.6685 60.0215L87.5085 60.0424L87.7659 60.1084L87.6685 60.0215Z" fill="#00B14F"/>
<path d="M87.6621 60.3659L87.77 60.418L87.7978 60.3311L87.6621 60.3659Z" fill="#00B14F"/>
<path d="M92.2607 66.6862C92.4451 66.7209 92.7269 66.7801 92.6399 66.6514L92.5286 66.5436C92.4312 66.6375 92.3407 66.6757 92.2607 66.6862Z" fill="#00B14F"/>
<path d="M88.9803 63.5243C88.956 63.6322 88.9559 63.7122 88.9733 63.7783C89.0186 63.6426 89.109 63.5139 88.9803 63.5243Z" fill="#00B14F"/>
<path d="M101.817 60.5547C101.841 60.5054 101.824 60.4808 101.778 60.4702C101.753 60.516 101.753 60.5512 101.817 60.5547Z" fill="#00B14F"/>
<path d="M88.9731 63.7747C88.9418 63.8756 88.9349 63.9799 89.0636 64.0321C89.074 64.0113 89.074 63.9938 89.081 63.9729C89.0358 63.9173 88.9905 63.8582 88.9731 63.7747Z" fill="#00B14F"/>
<path d="M87.5995 53.7255C87.6308 53.7255 87.6795 53.7429 87.7247 53.7568C87.7073 53.7394 87.6691 53.7289 87.5995 53.7255Z" fill="#00B14F"/>
<path d="M88.1798 61.616C88.158 61.6123 88.1471 61.5505 88.1798 61.616Z" fill="#00B14F"/>
<path d="M88.2083 61.4894C88.2013 61.5207 88.1943 61.5555 88.1943 61.5903C88.2013 61.5729 88.2048 61.5416 88.2083 61.4894Z" fill="#00B14F"/>
<path d="M88.1453 61.5285C88.1453 61.5039 88.1417 61.4827 88.1382 61.4651C88.1101 61.4651 88.0995 61.4792 88.1453 61.5285Z" fill="#00B14F"/>
<path d="M88.2174 61.7051C88.2 61.6668 88.1965 61.6285 88.1931 61.5938C88.1896 61.6111 88.1826 61.6181 88.1757 61.6181C88.1826 61.6355 88.1965 61.6633 88.2174 61.7085V61.7051Z" fill="#00B14F"/>
<path d="M103.113 59.1554L103.242 59.1415C102.929 58.9954 102.549 58.9988 102.209 59.0162C102.195 58.9745 102.337 58.971 102.393 58.9606C102.059 58.731 101.896 58.6962 101.158 58.7206L101.325 58.5953C101.207 58.6058 101.106 58.5014 100.908 58.3727C100.716 58.2475 100.421 58.1014 100.097 58.0944C100.115 58.0805 100.142 58.0527 100.202 58.0493C100.017 58.0388 99.8606 57.9796 99.6971 57.8962C99.5858 57.8301 99.4954 57.7501 99.398 57.6805C99.2102 57.5449 99.0363 57.4718 98.8589 57.7396L98.5423 57.7919C98.8728 57.9588 98.4032 58.0318 98.5075 58.1779C98.358 58.164 98.2188 57.8788 98.3962 57.9031L98.4136 57.9414C98.5806 57.6527 98.024 57.684 98.104 57.4753C97.4188 57.2561 96.817 56.8526 96.1874 56.6196L96.177 56.884L95.9613 56.7935C95.923 56.717 95.9474 56.5779 96.1039 56.644C96.0691 56.4805 95.7978 56.6648 95.777 56.717C95.5022 56.5118 95.9961 56.4804 95.9022 56.4387L95.7665 56.4108L95.7874 56.4491C95.6482 56.5118 95.603 56.6126 95.4187 56.5326C95.3143 56.4422 95.4082 56.3622 95.363 56.3378C95.37 56.3204 95.3561 56.3066 95.2935 56.3066L95.0221 56.1883L95.0639 56.397C94.9595 56.4074 94.6952 56.2857 94.4238 56.2092C94.163 56.1048 93.8777 56.0421 93.8012 55.9691L93.9612 55.83L93.6725 55.7569C93.6203 55.7187 93.6029 55.7221 93.596 55.7395C93.5438 55.7326 93.5716 55.8544 93.4325 55.8613C93.2377 55.8091 93.262 55.7013 93.189 55.5691L93.2272 55.5517L93.102 55.4891C93.0046 55.4647 93.3768 55.7918 93.0325 55.7848C93.0464 55.7326 92.9455 55.4196 92.8168 55.5274C92.9316 55.5587 92.9316 55.6283 92.8933 55.6839C92.8307 55.6422 92.7646 55.5935 92.7229 55.5135L92.7646 55.4578C92.7437 55.4508 92.7229 55.4474 92.7055 55.4439C92.702 55.4265 92.6951 55.416 92.6916 55.3987C92.6951 55.416 92.6951 55.43 92.6916 55.4404C92.4168 55.3604 92.1246 55.3013 91.8324 55.2456C91.568 55.1239 91.3072 54.9047 90.9906 54.8386C90.9663 54.8838 90.9906 54.9708 90.9245 55.0264C90.9036 55.0195 90.8828 55.0161 90.8619 55.0091L90.7436 54.689C90.6462 54.689 90.5454 54.9952 90.4549 54.7378C90.4619 54.7934 90.4688 54.8804 90.4027 54.8769C90.2636 54.7725 90.1175 54.696 89.961 54.6299C89.9471 54.3864 89.7801 54.3447 89.5714 54.3377C89.4531 54.3342 89.3314 54.3412 89.2027 54.3273C89.0253 54.296 88.8618 54.2472 88.7087 54.1429C88.7505 54.1812 88.7574 54.2194 88.7609 54.2438C88.5974 54.122 88.4096 54.056 88.2392 54.0177C88.0861 53.9203 87.9435 53.802 87.8113 53.649C87.8948 53.802 87.8113 53.7847 87.7139 53.7568C87.7591 53.7986 87.6861 53.8786 87.6582 53.9551C87.6443 53.9551 87.6304 53.9516 87.6165 53.9482L87.3487 53.6351C87.2339 53.7916 87.0426 53.6212 86.9139 53.6455C86.7538 53.5655 86.6147 53.5412 86.413 53.5308C86.4512 53.5725 86.5625 53.6629 86.5243 53.6873C86.2634 53.4681 85.9643 53.2316 85.6268 53.1586L85.7208 53.2455L85.2686 53.0751L85.3138 53.2246C85.7486 53.6351 85.6929 53.7186 85.6721 53.8786C85.6477 54.0351 85.6651 54.2821 86.0999 54.6264C85.9156 54.5743 86.0025 54.9534 85.9782 55.1029C86.006 55.1169 86.0408 55.1412 86.086 55.1864C85.9434 55.2177 86.0373 55.4091 86.1625 55.59C86.2878 55.7778 86.4443 55.9482 86.4686 56.063C86.4513 56.2091 86.3295 56.1465 86.2008 56.0595C86.3886 56.2404 86.399 56.4526 86.399 56.6822C86.399 56.717 86.399 56.7483 86.399 56.7831C86.3886 56.7692 86.3782 56.7518 86.3643 56.7309C86.3573 56.7448 86.3538 56.7517 86.3469 56.7587C86.3538 56.7796 86.3643 56.8039 86.3747 56.8561C86.3817 56.8491 86.3886 56.8457 86.3956 56.8457C86.3956 56.9013 86.3956 56.957 86.3956 57.0057C86.3956 57.044 86.3991 57.0787 86.4025 57.1031C86.4025 57.11 86.4095 57.1135 86.413 57.1205C86.3921 57.1726 86.4025 57.2492 86.3573 57.2283C86.4443 57.3396 86.4895 57.3013 86.5486 57.2039C86.5869 57.197 86.6252 57.1762 86.6669 57.1588L86.7121 57.2005C86.7399 57.1726 86.7886 57.1483 86.7052 57.1448C86.726 57.1379 86.7469 57.1344 86.7678 57.1344C86.7747 57.1761 86.7643 57.2074 86.7469 57.2318L86.7121 57.197C86.7121 57.197 86.6947 57.2283 86.7364 57.2422C86.6356 57.3466 86.3643 57.3048 86.6147 57.4962C86.6217 57.4509 86.6147 57.3779 86.653 57.3918C86.7225 57.4753 87.1643 57.4962 87.2861 57.5866C87.213 57.604 87.1643 57.6597 87.0356 57.5936C87.0878 57.6214 87.1469 57.6666 87.2061 57.684C87.2374 57.7849 87.3626 57.8614 87.46 57.9275C87.4391 57.9657 87.4182 58.004 87.4008 58.0214C87.4356 57.9971 87.4635 57.9727 87.4913 57.9519C87.5748 58.0145 87.6096 58.0701 87.4739 58.1362L87.3104 58.1744C87.6548 58.4736 87.3104 58.3553 87.6304 58.6684L87.6548 58.6545C87.6861 58.8319 87.9156 58.8492 87.693 59.0232L87.6374 58.978C87.6617 59.0719 87.6826 59.1276 87.7035 59.1763C87.6861 59.1693 87.6652 59.1623 87.6478 59.1449C87.7835 59.4232 87.54 59.0893 87.533 59.3258C87.4878 59.2771 87.4634 59.2285 87.4391 59.1832C87.4391 59.2424 87.4391 59.298 87.4287 59.3572L87.4356 59.3467C87.4495 59.3293 87.46 59.3189 87.453 59.3363L87.4565 59.3398C87.4774 59.3363 87.4948 59.3328 87.5157 59.3328C87.5157 59.4267 87.4843 59.3571 87.4565 59.3398C87.4496 59.3398 87.4426 59.3398 87.4356 59.3432L87.6165 59.6076C87.6165 59.538 87.5852 59.465 87.5191 59.3328C87.6269 59.3328 87.7139 59.3884 87.7974 59.378C87.8009 59.3884 87.8044 59.3954 87.8113 59.4058C87.7974 59.4406 87.7974 59.5554 87.86 59.5623C87.7591 59.6041 87.7765 59.7328 87.8287 59.865C87.7974 59.8928 87.7661 59.9207 87.7417 59.9485C87.78 59.938 87.8182 59.9311 87.8704 59.9554C87.9191 60.0528 87.9713 60.1363 87.9887 60.1711C87.9574 59.9937 88.0757 60.0389 88.18 60.0563C88.0444 60.2163 88.0513 60.2894 88.2252 60.3798C88.1383 60.4215 88.0478 60.4632 87.9713 60.5119C87.9644 60.4876 87.9574 60.4633 87.9574 60.4354C87.8322 60.5502 87.9122 60.5155 87.8878 60.5746C87.7939 60.6581 87.7452 60.759 87.7869 60.8981C87.8113 60.8424 87.8078 60.7694 87.8739 60.7763C87.9365 60.7833 87.9018 60.8668 87.8913 60.8946C87.94 60.9016 87.9609 60.839 88.0131 60.8111C88.02 60.8285 88.0235 60.8459 88.0305 60.8598C87.9713 60.985 88.0235 61.0616 88.0826 61.1555C88.0826 61.2181 88.0757 61.2911 88.0026 61.4024C88.0687 61.3746 88.107 61.2946 88.1313 61.4616C88.1522 61.4616 88.1835 61.4685 88.2009 61.4755C88.2009 61.4824 88.2009 61.4825 88.2009 61.4894V61.479C88.2009 61.479 88.2218 61.479 88.2079 61.4755C88.2253 61.4268 88.2496 61.385 88.2809 61.3607C88.3018 61.3607 88.3261 61.3711 88.3435 61.3781C88.2148 61.4963 88.747 61.6111 88.3644 61.6494C88.4444 61.7294 88.507 61.8303 88.5661 61.9347C88.5035 62.0216 88.4618 62.1085 88.347 61.9798L88.4096 62.1781C88.3679 62.3208 88.3922 62.4912 88.4861 62.5678C88.4861 62.6721 88.7331 62.7451 88.587 62.7034L88.7853 62.9782L88.7505 62.9956C88.8374 63.3052 89.2131 63.5347 89.0705 63.973C89.1436 64.0634 89.227 64.1504 89.2444 64.3382L89.1296 64.4148C89.2201 64.5295 89.1401 64.8531 89.2931 64.8635C89.147 64.9991 89.1783 65.1488 89.2653 65.3366C89.394 65.6497 89.5575 65.9453 89.6027 66.1749L89.7523 66.067C89.8392 66.3418 89.9714 66.568 90.1314 66.808L90.1836 66.7071C90.1975 66.7871 90.2079 66.8775 90.2184 66.968C90.2601 67.288 90.3262 67.6532 90.4758 67.7228C90.4758 67.7228 90.4758 67.7228 90.4758 67.7262C90.4793 67.7262 90.4827 67.7262 90.4862 67.7262C90.4897 67.7262 90.4932 67.7297 90.4967 67.7332C90.6567 67.768 90.9315 67.5175 91.1611 67.2914C91.408 67.0479 91.6063 66.8323 91.8115 66.8497C91.9089 66.721 91.9785 66.7001 92.0585 66.6932C92.048 66.7001 92.0411 66.7071 92.0342 66.7175C92.0446 66.714 92.062 66.7036 92.0759 66.6932C92.1281 66.6932 92.1837 66.6931 92.2429 66.6862C92.1872 66.6758 92.1385 66.6723 92.0967 66.6792C92.1767 66.627 92.2915 66.5297 92.3924 66.4218L92.5107 66.5471C92.5107 66.5471 92.5281 66.5331 92.5385 66.5262C92.6881 66.5053 92.5976 66.3975 92.4828 66.3175C92.5281 66.2583 92.5629 66.1958 92.5803 66.1367C92.8133 66.3106 92.7333 65.9314 92.9768 66.1192C92.9525 65.9697 93.2968 65.7923 93.1785 65.5175C93.2029 65.5488 93.2342 65.5488 93.1959 65.5766C93.2968 65.5522 93.3977 65.5279 93.429 65.4096L93.5786 65.5661L93.6064 65.2078C93.7873 65.2496 93.8708 65.2844 93.8499 65.4896C93.9786 65.1105 94.0134 65.274 94.1038 64.9227L94.1664 65.0444C94.243 64.9887 94.2743 64.7522 94.3821 64.8183C94.7021 64.9261 95.29 64.2896 95.8813 64.2026C95.5752 63.9174 96.1909 64.22 96.0448 63.9452C96.1213 64.0078 96.2152 64.0148 96.1839 64.1331C96.3683 63.907 96.6187 64.0391 96.6396 63.7121C96.7196 63.7782 96.664 63.8617 96.7196 63.8965C96.7266 63.8652 96.7509 63.7782 96.8066 63.813C96.8622 63.8478 96.8135 63.9035 96.7996 63.9626C97.0327 63.7957 96.897 63.5312 96.7683 63.2877C96.9596 63.3225 97.0118 63.2669 97.0013 63.0582C97.0918 63.1069 97.2136 63.1452 97.0814 63.2669C97.1718 63.2252 97.6658 63.0547 97.5544 62.8634C97.6101 62.8947 97.6797 62.8042 97.6901 62.766C97.8849 62.6581 97.9127 62.6651 98.0866 62.5295H98.0171C97.9475 62.2581 98.1388 62.3834 98.271 62.2616L98.2814 62.286C98.7267 62.2338 98.3788 62.1155 98.8345 62.0877L98.7267 61.959C98.5667 61.6355 99.1371 61.9485 99.2623 61.7085L99.1406 61.6738C99.1823 61.5033 99.7006 61.8964 99.8328 61.8686C99.8745 61.879 99.8224 61.9346 99.8015 61.9729C100.195 61.9729 99.7215 61.7642 99.9059 61.5903C100.007 61.6668 100.017 61.8755 100.17 61.8059C100.184 61.8094 100.202 61.806 100.215 61.7921C100.233 61.7712 100.254 61.7468 100.282 61.719C100.344 61.6459 100.407 61.5555 100.476 61.465C100.615 61.2842 100.755 61.1207 101.012 61.0929C100.859 61.0825 100.723 61.0615 100.796 60.9328C100.883 60.8563 101.113 60.8146 101.325 60.7451C101.534 60.6755 101.725 60.5816 101.631 60.4737C101.694 60.4633 101.736 60.4668 101.767 60.4737C101.84 60.3416 102.136 60.0946 101.962 60.0215C102.515 60.0111 102.682 59.8267 102.758 59.6876C102.842 59.545 102.849 59.4441 103.44 59.3849L103.565 59.2945L103.103 59.1554H103.113ZM88.4826 60.2371C88.4931 60.2163 88.5035 60.1954 88.514 60.1711C88.4444 60.2476 88.3818 60.2998 88.3331 60.2789L88.347 60.0146C88.4096 60.0389 88.4757 60.0772 88.5453 60.0911C88.5348 60.1189 88.5209 60.1467 88.5105 60.1711C88.5314 60.1502 88.5557 60.1224 88.5766 60.098C88.5974 60.098 88.6218 60.098 88.6427 60.098L88.6809 60.2059C88.6183 60.2581 88.5487 60.2824 88.4792 60.2406L88.4826 60.2371ZM89.0705 61.2911C89.0705 61.2911 89.0635 61.2911 89.0601 61.2911C89.0601 61.2772 89.0601 61.2668 89.0601 61.2529L89.074 61.2876L89.0705 61.2911ZM90.6358 65.7331L90.6532 65.7818C90.6323 65.8131 90.608 65.841 90.5871 65.8688C90.601 65.8236 90.6184 65.7783 90.6358 65.7331ZM91.5645 66.0984L91.6063 66.074C91.5958 66.1122 91.5784 66.154 91.5645 66.1923C91.5645 66.161 91.5645 66.1297 91.5645 66.0984ZM87.3278 57.6492C87.3278 57.6492 87.3278 57.6492 87.3313 57.6457C87.3313 57.6457 87.3313 57.6492 87.3313 57.6527H87.3278V57.6492ZM88.5626 62.293C88.5626 62.293 88.5696 62.293 88.5731 62.293C88.5487 62.4217 88.5592 62.3764 88.5626 62.293ZM90.5489 67.6811C90.5489 67.6811 90.5593 67.6671 90.5662 67.6567L90.5419 67.6845C90.5419 67.6845 90.5175 67.6985 90.5071 67.702C90.5002 67.6915 90.4932 67.681 90.4897 67.6671V67.6323C90.4897 67.6323 90.4897 67.6532 90.4897 67.6637C90.4723 67.6254 90.4619 67.5767 90.4723 67.5176C90.4758 67.5315 90.4827 67.5419 90.4862 67.5558C90.4932 67.5941 90.5036 67.6289 90.5106 67.6637C90.5141 67.6637 90.521 67.6567 90.5245 67.6532C90.5245 67.6567 90.528 67.6637 90.5314 67.6706C90.5593 67.6497 90.5906 67.6219 90.6184 67.6011C90.6288 67.5941 90.6393 67.5906 90.6532 67.5802C90.6254 67.6358 90.5871 67.6672 90.5523 67.688L90.5489 67.6811ZM95.3108 56.3935L95.3387 56.4491C95.2239 56.4596 95.2656 56.4283 95.3108 56.3935ZM93.4499 64.9087L93.5995 64.8148L93.6168 65.1696C93.589 65.0966 93.5229 65.0061 93.4499 64.9087ZM96.7579 63.1417C96.7092 63.1278 96.6918 63.0477 96.6814 62.9469C96.6744 62.9712 96.6674 62.999 96.6674 63.0199C96.6152 63.0129 96.584 62.9851 96.5596 62.9469L96.6744 62.8738C96.6744 62.8982 96.6779 62.9225 96.6814 62.9469C96.6883 62.919 96.6987 62.8877 96.7057 62.8564L96.7579 62.8252C96.8309 62.8565 96.8935 62.8843 96.9318 62.8912L96.7544 63.1417H96.7579Z" fill="#00B14F"/>
<path d="M87.8633 60.9502L87.9537 61.079C87.9224 61.0129 87.9467 60.9745 87.9606 60.9293C87.9259 60.9467 87.8807 60.992 87.8633 60.9467V60.9502Z" fill="#00B14F"/>
<path d="M88.3639 61.7954C88.3812 61.7363 88.183 61.8268 88.2282 61.7781C88.0404 61.785 88.5447 62.025 88.3639 61.7954Z" fill="#00B14F"/>
<path d="M87.1675 53.3741L87.0597 53.2559L87.1049 53.3985L87.1675 53.3741Z" fill="#00B14F"/>
<path d="M86.8231 53.5308L86.8649 53.3081L86.7188 53.4716C86.7535 53.4716 86.8161 53.4716 86.8231 53.5308Z" fill="#00B14F"/>
<path d="M85.9083 55.1418C85.9611 55.177 85.9822 55.1523 85.9928 55.0995C85.947 55.0784 85.9189 55.089 85.9083 55.1418Z" fill="#00B14F"/>
<path d="M15.8862 1.82971L15.8018 1.84724C15.8405 1.85076 15.8721 1.84731 15.8862 1.82971Z" fill="#20BB65"/>
<path d="M13.0682 2.6122C13.0682 2.6122 13.0581 2.60539 13.0479 2.60199L13.0682 2.6122Z" fill="#20BB65"/>
<path d="M13.4442 1.1827C13.2947 1.54445 12.9086 1.60356 13.0199 2.02097C12.9677 2.20881 13.0338 2.42106 13.0686 2.60889C13.3538 2.7202 13.0546 2.8524 13.2947 2.97415L13.1242 3.0054C13.2042 3.04714 13.2599 3.09239 13.166 3.12369H13.1172C13.2425 3.17935 13.1625 3.23497 13.2251 3.26628H13.1764L13.1938 3.32887L13.1242 3.31503C13.2529 3.4159 13.2599 3.50975 13.1938 3.59323H13.3955C13.1625 3.76716 13.5764 3.84374 13.3086 4.00375H13.2599C13.7921 4.21246 12.8946 4.33066 13.399 4.54284C13.3364 4.51849 13.2946 4.55677 13.2459 4.55329C13.3016 4.65068 13.3399 4.75854 13.7364 4.7481C13.7364 4.81767 13.6147 4.80722 13.4616 4.82114C13.6356 4.81766 13.7086 4.87681 13.7225 4.92899L13.6529 4.90461L13.7156 5.06121L14.0425 5.01943C13.9521 5.10639 13.6425 5.05772 13.726 5.13425L13.9973 5.12032C13.9486 5.23511 13.5382 5.32553 13.3468 5.45075C13.2599 5.94469 13.9973 6.37605 13.5869 6.86999L13.3886 6.91865C13.0964 6.97082 13.8442 6.97781 13.5729 7.03346L13.7156 7.06472C13.6634 7.08559 13.6147 7.12737 13.5416 7.10998C13.5382 7.15868 13.5868 7.1517 13.6808 7.17257L13.5068 7.25256C13.392 7.46823 13.7816 7.56214 13.7468 7.77085C13.4164 8.08391 13.8686 8.46308 14.126 8.65787C14.3904 8.77614 14.2617 9.00918 14.1504 9.25267C14.0425 9.49268 13.9486 9.74668 14.2477 9.84407C14.213 9.86842 14.3138 9.86835 14.3452 9.85792L14.4286 10.1953C14.4286 10.1953 14.4599 10.2962 14.533 10.4145C14.613 10.5328 14.7382 10.6649 14.9156 10.724C15.0965 10.7867 15.3261 10.7763 15.6252 10.6163C15.9244 10.4597 16.2861 10.1502 16.7522 9.66667L16.8148 9.64926C16.8948 9.44403 16.9018 9.34313 16.554 9.35704C16.9227 9.20051 16.547 9.22143 16.6548 9.14142L16.6861 9.13446C16.3592 9.14837 16.8601 8.86313 16.5713 8.86661C16.6026 8.85965 16.707 8.82485 16.7209 8.84572C16.6514 8.8005 16.54 8.73788 16.7592 8.66135C16.6479 8.52917 16.6931 8.28913 16.307 8.28913L16.3696 8.27877C16.1122 8.28921 16.3139 8.21616 16.1713 8.18485C16.1992 8.17441 16.2131 8.16395 16.227 8.16048C15.9661 8.16048 16.14 7.98653 16.0252 7.96218L16.1748 7.92048L16.1087 7.80219L16.0879 7.85781C15.6704 7.94129 16.3244 7.70127 16.0357 7.67344C16.067 7.57953 15.1278 7.68392 15.3156 7.54478C15.1104 7.54131 15.6391 7.52046 15.4791 7.4822C15.6948 7.43698 15.6217 7.48215 15.7922 7.43345C15.6774 7.38823 15.9939 7.28394 15.8339 7.23524L16.0044 7.20042C15.6739 7.1552 16.1922 6.97086 15.8826 6.95347C15.7261 6.86998 16.38 6.80038 16.0287 6.74473L16.2548 6.66821C16.2861 6.61603 15.9661 6.67867 16.0705 6.6091C16.2166 6.59171 16.1783 6.52911 16.3209 6.53607C16.5331 6.39345 15.9592 6.34471 16.3313 6.14296C16.0426 6.14296 16.2026 6.04555 15.987 6.04555C16.1122 6.02816 15.987 5.88901 16.2687 5.94815C16.2931 5.95163 16.2896 5.96556 16.2409 5.97252L16.4113 5.96556C16.7209 5.84729 16.2166 5.82645 16.2583 5.73601C16.2026 5.76732 16.2235 5.79859 16.1052 5.78815L16.1226 5.70467H16.2653L16.3418 5.58298L16.1679 5.61423C16.2548 5.54814 16.554 5.50642 16.2966 5.45772C16.1539 5.43685 16.0635 5.53078 16.0009 5.47165C16.1157 5.38468 16.2896 5.25592 16.3348 5.15157C16.1365 5.17244 16.1435 5.14466 16.1018 5.11684L16.2757 5.10639C16.0322 5.00899 16.6548 5.05076 16.4601 4.95336H16.5818L16.22 4.94291C15.8722 4.85943 16.5783 4.88032 16.1052 4.7864C16.1365 4.82814 15.7226 4.81768 15.7991 4.76203L15.9661 4.77247C15.9313 4.74465 15.8583 4.73764 15.8931 4.71676C15.9835 4.73068 16.1365 4.71681 16.1052 4.67855L16.3139 4.70292L16.0044 4.6298C16.1818 4.56371 15.9557 4.46987 16.1922 4.44204C16.1922 4.44204 16.307 4.30987 16.0496 4.27856C16.2096 4.30639 16.2722 4.23332 16.4601 4.25419C16.2792 4.2194 16.1296 4.11505 16.3244 4.07679L16.3453 4.08375C16.54 3.93765 16.0809 3.81934 16.3244 3.69064C16.1226 3.69064 16.2339 3.6211 15.9765 3.63153C15.7296 3.475 16.5087 3.3985 15.7157 3.30458C15.6739 3.23501 15.907 3.23848 15.9487 3.20717L15.9904 3.22458C15.9348 3.09936 15.9278 3.06111 15.9557 2.97415C15.8826 2.92197 15.5139 2.89059 15.6078 2.81407C15.7504 2.85233 15.7261 2.81412 15.7296 2.7863C15.7504 2.80717 15.8026 2.8176 15.907 2.7863C15.8617 2.77586 15.8339 2.76539 15.813 2.75496C15.8235 2.75496 15.8339 2.75496 15.8478 2.75496C15.7991 2.6993 15.7539 2.70623 15.733 2.7271C15.7122 2.7271 15.6809 2.7271 15.6426 2.7271C15.8339 2.68884 15.6426 2.57757 15.8931 2.59148C15.8513 2.43495 15.6043 2.29929 15.5209 2.15668C15.653 2.15668 15.7609 2.19841 15.8096 2.24016L15.7713 2.14275C15.9557 2.16362 15.8722 2.20537 15.907 2.23667C16.2165 2.16363 15.6322 1.98274 15.9209 1.88535L15.7783 1.84017H15.8026C15.7261 1.82625 15.6252 1.78444 15.6009 1.76357C15.7644 1.76357 15.9731 1.81233 15.9696 1.74624C16.1331 1.71842 15.9104 1.59662 15.8339 1.52009C15.8026 1.5514 15.7156 1.52704 15.66 1.50617C15.66 1.47486 15.8235 1.47836 15.7574 1.44358L15.9765 1.47143C15.7713 1.45404 15.7678 1.36008 15.6809 1.33573C15.8443 1.3392 15.8131 1.4053 15.9313 1.42965C15.9313 1.30095 15.9313 1.36702 15.9278 1.23832C15.7748 1.14788 15.7226 1.22093 15.5348 1.15832C15.5 1.09223 15.3574 1.00881 15.5 0.960112L15.3052 0.953148C15.1765 0.817489 15.2078 0.751412 15.4165 0.706192C14.7069 0.149641 14.1851 -0.00342081 13.8338 5.7636e-05C13.486 0.00353608 13.312 0.160053 13.312 0.160053C12.8285 0.452242 13.3503 0.730494 13.4477 1.17921L13.4442 1.1827Z" fill="#20BB65"/>
<path d="M22.1235 15.7471L22.1024 15.8315C22.1235 15.7999 22.1341 15.7682 22.1235 15.7471Z" fill="#20BB65"/>
<path d="M28.077 18.3875C28.077 18.3875 28.0842 18.3767 28.0878 18.3732C28.0806 18.3767 28.077 18.3839 28.077 18.3875Z" fill="#20BB65"/>
<path d="M21.6461 18.6306C21.6461 18.6306 21.6357 18.6375 21.6288 18.6444L21.6461 18.6306Z" fill="#20BB65"/>
<path d="M20.4983 17.6845C20.7696 17.9697 20.6618 18.3559 21.0896 18.4289C21.2392 18.5507 21.4618 18.5854 21.6462 18.6341C21.8653 18.4184 21.8619 18.7489 22.0706 18.5819L22.0253 18.7489C22.0984 18.6932 22.161 18.6619 22.1506 18.7593L22.1262 18.8011C22.234 18.7142 22.2514 18.808 22.3036 18.7663L22.2793 18.808L22.3454 18.8184L22.3036 18.8742C22.4497 18.7976 22.5367 18.8324 22.5854 18.9263L22.6723 18.7419C22.7315 19.0272 22.975 18.6828 23.0028 18.9924L22.9784 19.0342C23.3924 18.6411 23.1141 19.5038 23.5211 19.135C23.4689 19.1803 23.4863 19.2324 23.4654 19.2776C23.5767 19.2637 23.6846 19.2776 23.8515 18.9193C23.9141 18.9541 23.8515 19.055 23.7959 19.1976C23.8689 19.0376 23.9524 18.9993 24.0046 19.0098L23.9559 19.062L24.1228 19.0724L24.2272 18.7593C24.262 18.8776 24.0846 19.135 24.1889 19.0933L24.2968 18.8428C24.3768 18.9402 24.2759 19.3403 24.2968 19.5698C24.6829 19.862 25.3959 19.4029 25.6186 19.9977L25.5629 20.1959C25.4655 20.4777 25.8307 19.8238 25.7473 20.0881L25.8412 19.9768C25.8342 20.0325 25.8412 20.0951 25.796 20.1507C25.8342 20.1785 25.8516 20.1333 25.9142 20.0603L25.8969 20.2516C26.0186 20.4534 26.2864 20.1646 26.4395 20.2968C26.5299 20.7316 27.0552 20.5403 27.3508 20.4255C27.8135 20.1055 27.8448 21.3647 28.3352 20.9752C28.3352 21.0204 28.3909 20.9368 28.3978 20.902L28.697 21.0343C28.697 21.0343 29.0692 21.1699 29.3753 20.9647C29.6849 20.7595 29.9145 20.2134 29.6953 18.8672L29.7197 18.808C29.6014 18.6097 29.5075 18.5506 29.3057 18.8324C29.3996 18.4428 29.184 18.7524 29.184 18.6168L29.1979 18.5854C29.0135 18.8533 29.0692 18.2793 28.8953 18.5159C28.9092 18.488 28.9405 18.3802 28.9648 18.3802C28.8813 18.408 28.7596 18.4672 28.8257 18.2411C28.6448 18.248 28.45 18.0741 28.2309 18.3976L28.2587 18.3385C28.1231 18.5576 28.1683 18.3489 28.0639 18.4498C28.0709 18.4185 28.0709 18.4045 28.0743 18.3906C27.9317 18.6063 27.8726 18.3628 27.7856 18.4463L27.8309 18.2967L27.6917 18.2862L27.73 18.335C27.5769 18.735 27.7161 18.0498 27.5352 18.2794C27.4656 18.1994 27.0691 19.055 27.0447 18.8254C26.9334 18.9993 27.1908 18.5332 27.0725 18.655C27.1421 18.4463 27.1491 18.5333 27.1908 18.3594C27.0934 18.4359 27.163 18.1089 27.0343 18.2236L27.09 18.0602C26.8813 18.3211 26.9752 17.7784 26.8047 18.0393C26.6517 18.1332 26.9125 17.5315 26.6864 17.8097L26.7247 17.5732C26.6934 17.521 26.5925 17.8306 26.5786 17.7054C26.6343 17.5697 26.5543 17.5697 26.6343 17.4514C26.603 17.194 26.283 17.6706 26.276 17.2462C26.1403 17.5001 26.1264 17.3123 26.0221 17.5001C26.0638 17.3818 25.8795 17.4202 26.0638 17.2045C26.0777 17.1871 26.0916 17.194 26.0708 17.2392L26.1438 17.0862C26.1786 16.7557 25.9247 17.1871 25.8586 17.1106C25.8621 17.1732 25.9003 17.1732 25.8342 17.2706L25.7647 17.2184L25.8342 17.0932L25.7507 16.968L25.6986 17.1384C25.6777 17.0306 25.7751 16.7453 25.6116 16.9506C25.5281 17.0688 25.5733 17.1941 25.4899 17.2184C25.462 17.0758 25.4203 16.8601 25.3438 16.7697C25.2742 16.9575 25.2498 16.9401 25.2081 16.9645L25.2742 16.8044C25.0759 16.9818 25.389 16.4392 25.2151 16.5714L25.2742 16.4635L25.1003 16.7836C24.8707 17.0549 25.1977 16.4322 24.9055 16.8149C24.9577 16.8044 24.7663 17.1731 24.749 17.0792L24.829 16.9332C24.7872 16.954 24.7489 17.0132 24.7455 16.9715C24.7976 16.8984 24.8533 16.7523 24.8046 16.7627L24.9194 16.5853L24.7177 16.8323C24.735 16.6444 24.5472 16.8045 24.6237 16.5818C24.6237 16.5818 24.5507 16.4183 24.4116 16.6375C24.5055 16.5053 24.4637 16.4184 24.5646 16.2549C24.4568 16.4045 24.2968 16.4914 24.342 16.3001L24.3594 16.2826C24.3072 16.0392 24.0046 16.4114 23.9907 16.1331C23.9037 16.314 23.8898 16.1853 23.7889 16.4218C23.5419 16.5818 23.7993 15.8409 23.3819 16.5192C23.3019 16.5262 23.3993 16.3175 23.3889 16.2653L23.4237 16.2375C23.2845 16.2375 23.2497 16.227 23.1802 16.1644C23.1036 16.2097 22.9193 16.5297 22.888 16.4114C22.9819 16.2966 22.9402 16.3035 22.9123 16.2896C22.9402 16.2792 22.9715 16.234 22.9854 16.1296C22.9575 16.1679 22.9367 16.1853 22.9193 16.2027C22.9262 16.1922 22.9263 16.1853 22.9367 16.1714C22.8671 16.1923 22.8532 16.2375 22.8636 16.2653C22.8532 16.2827 22.8393 16.3105 22.8254 16.3488C22.8706 16.1575 22.6897 16.2862 22.808 16.0635C22.648 16.0357 22.4219 16.2062 22.2584 16.2235C22.314 16.1053 22.3975 16.0218 22.4567 15.9975L22.3523 15.9905C22.4497 15.8305 22.4532 15.9244 22.4949 15.907C22.5575 15.5975 22.1471 16.0497 22.1853 15.747L22.0845 15.8583L22.0914 15.834C22.0497 15.9001 21.9697 15.9766 21.9418 15.987C22.0114 15.8409 22.1436 15.6705 22.0845 15.6462C22.1262 15.4861 21.9245 15.6391 21.8201 15.6774C21.834 15.7191 21.7749 15.7888 21.7331 15.8305C21.7053 15.8166 21.7784 15.6705 21.7192 15.7157L21.8375 15.5313C21.7366 15.7122 21.6462 15.674 21.5871 15.7401C21.6601 15.594 21.7053 15.6496 21.7784 15.5522C21.6636 15.5 21.7192 15.5244 21.6044 15.4722C21.4549 15.5731 21.5001 15.6496 21.3644 15.7922C21.2914 15.7922 21.1557 15.8862 21.1731 15.7401L21.0827 15.914C20.9018 15.9766 20.8566 15.914 20.9088 15.7087C20.0983 16.1053 19.7261 16.4983 19.5765 16.8149C19.4269 17.1279 19.4965 17.3575 19.4965 17.3575C19.5522 17.9315 20.0461 17.5766 20.4913 17.6914L20.4983 17.6845Z" fill="#20BB65"/>
<path d="M38.257 20.6273L38.271 20.7118C38.2745 20.6731 38.271 20.6414 38.257 20.6273Z" fill="#20BB65"/>
<path d="M44.9386 21.3681C44.9386 21.3681 44.942 21.3577 44.9455 21.3508C44.942 21.3577 44.9386 21.3612 44.9386 21.3681Z" fill="#20BB65"/>
<path d="M38.9174 23.4727C38.9174 23.4727 38.9106 23.4829 38.9072 23.4931L38.9174 23.4727Z" fill="#20BB65"/>
<path d="M37.5746 23.0622C37.919 23.2118 37.9642 23.5978 38.3573 23.5004C38.5312 23.5561 38.733 23.4935 38.9139 23.4727C39.0356 23.1909 39.1434 23.497 39.2721 23.2674L39.2895 23.4379C39.3348 23.3579 39.38 23.3057 39.4043 23.3996L39.3974 23.4483C39.4635 23.33 39.5121 23.41 39.5435 23.3509L39.5365 23.3996L39.5991 23.3857L39.5782 23.4518C39.6826 23.33 39.773 23.3336 39.8461 23.4031L39.8635 23.2013C40.0061 23.4483 40.1209 23.0379 40.2391 23.3231L40.2322 23.3718C40.4896 22.8674 40.4965 23.7683 40.7574 23.2918C40.7261 23.3509 40.7574 23.3961 40.747 23.4448C40.8444 23.3996 40.9487 23.3787 40.994 22.9856C41.06 22.9996 41.0357 23.1144 41.0253 23.2674C41.0461 23.0935 41.1122 23.0309 41.1644 23.0239L41.1331 23.0865L41.2896 23.0448L41.2966 22.7144C41.3662 22.8187 41.2722 23.1144 41.3557 23.0448L41.387 22.7735C41.4914 22.8396 41.5088 23.257 41.5923 23.4657C42.0236 23.6292 42.5732 22.9926 42.9349 23.5109V23.7161C42.9106 24.0153 43.0915 23.2883 43.0775 23.5631L43.1402 23.4309C43.1471 23.4865 43.1715 23.5457 43.1402 23.6083C43.1819 23.6257 43.1889 23.577 43.2306 23.4901L43.2584 23.6778C43.4184 23.8379 43.6028 23.497 43.7802 23.5874C43.9646 23.9874 44.4133 23.6813 44.6742 23.5004C45.0498 23.09 45.3351 24.3075 45.7247 23.831C45.7316 23.8727 45.7699 23.7823 45.7733 23.7475L46.0864 23.817C46.0864 23.817 47.603 24.0605 46.6534 21.5003L46.6673 21.4377C46.5108 21.2673 46.4064 21.2221 46.2603 21.5386C46.2777 21.1386 46.1247 21.4864 46.0934 21.3508L46.1003 21.3195C45.9681 21.6187 45.909 21.0447 45.7838 21.3126C45.7907 21.2813 45.8012 21.1734 45.8255 21.1664C45.749 21.2116 45.6412 21.2882 45.6551 21.0587C45.4742 21.1039 45.2411 20.9751 45.095 21.3334L45.109 21.2708C45.022 21.5143 45.022 21.2986 44.9385 21.4203C44.9385 21.389 44.935 21.3751 44.9385 21.3612C44.8446 21.6012 44.7333 21.3821 44.6672 21.4795L44.6776 21.3264L44.535 21.3508L44.5837 21.3891C44.5246 21.81 44.5037 21.1143 44.3785 21.3786C44.2915 21.316 44.1037 22.2412 44.0237 22.0256C43.9576 22.2204 44.0967 21.7056 44.0132 21.8517C44.0341 21.629 44.0585 21.716 44.0585 21.5386C43.9785 21.636 43.968 21.3021 43.8706 21.4412L43.8845 21.2673C43.7419 21.5699 43.7002 21.0204 43.5958 21.3126C43.4671 21.4448 43.5715 20.7943 43.4184 21.1178L43.3976 20.8812C43.3524 20.8395 43.3315 21.163 43.2897 21.0447C43.3071 20.8986 43.2306 20.9195 43.2793 20.7838C43.1784 20.5404 42.9906 21.083 42.8654 20.676C42.7993 20.9577 42.7332 20.7803 42.6845 20.989C42.6949 20.8638 42.5175 20.9508 42.6427 20.6899C42.6532 20.669 42.6671 20.6759 42.6601 20.7212L42.688 20.5542C42.6288 20.2238 42.4966 20.7108 42.4097 20.6516C42.4306 20.7108 42.4688 20.7003 42.434 20.8151L42.3506 20.7838L42.3853 20.6447L42.2636 20.5472V20.7247C42.2079 20.6273 42.2184 20.3246 42.121 20.5681C42.0723 20.7038 42.1558 20.8117 42.0827 20.8604C42.0097 20.7317 41.9053 20.5368 41.801 20.4707C41.787 20.669 41.7592 20.6586 41.7244 20.6969L41.7418 20.523C41.5992 20.7491 41.7418 20.1403 41.6062 20.3177L41.6305 20.1994L41.5609 20.5542C41.4183 20.8847 41.547 20.1925 41.3801 20.6447C41.4288 20.6203 41.3557 21.0273 41.3105 20.9438L41.3453 20.7804C41.3105 20.8117 41.2931 20.8812 41.2757 20.8429C41.3035 20.756 41.314 20.603 41.2653 20.6273L41.3209 20.4221L41.1992 20.7177C41.154 20.5333 41.0218 20.7421 41.0253 20.5055C41.0253 20.5055 40.8966 20.3734 40.8339 20.6273C40.8826 20.4708 40.8096 20.4012 40.8548 20.2168C40.7957 20.3942 40.6705 20.5264 40.6496 20.3316L40.66 20.3107C40.5244 20.0951 40.3539 20.5438 40.2391 20.2898C40.2218 20.4916 40.1591 20.3733 40.1452 20.6307C39.9643 20.8638 39.94 20.0777 39.7869 20.8604C39.7139 20.8951 39.7313 20.6656 39.7 20.6204L39.7209 20.5821C39.5852 20.6308 39.5469 20.6343 39.4565 20.603C39.4008 20.6725 39.3452 21.0378 39.2721 20.9404C39.3173 20.7977 39.2791 20.8221 39.2478 20.8151C39.2721 20.7942 39.2826 20.742 39.2547 20.6377C39.2443 20.6829 39.2304 20.7073 39.22 20.7316C39.22 20.7212 39.22 20.7108 39.2234 20.6969C39.1643 20.7421 39.1678 20.7873 39.1886 20.8116C39.1852 20.8325 39.1817 20.8638 39.1852 20.9021C39.1573 20.7073 39.0321 20.8951 39.0565 20.6447C38.8895 20.6794 38.7434 20.9229 38.5973 21.0029C38.5973 20.8708 38.646 20.7629 38.6912 20.7177L38.5904 20.7525C38.6182 20.5681 38.6599 20.6551 38.6912 20.6204C38.6217 20.3073 38.4199 20.8847 38.3295 20.5925L38.2808 20.7351V20.7108C38.2669 20.7873 38.2216 20.8882 38.1973 20.9125C38.2008 20.749 38.2529 20.5403 38.1869 20.5438C38.159 20.3803 38.0303 20.5995 37.9503 20.676C37.9816 20.7073 37.9573 20.7943 37.9329 20.8499C37.8981 20.8499 37.9051 20.6864 37.8703 20.7525L37.8982 20.5334C37.8808 20.7386 37.7799 20.7421 37.7555 20.829C37.7625 20.6655 37.8251 20.6969 37.8529 20.5786C37.7208 20.5786 37.7868 20.5786 37.6547 20.5786C37.5607 20.7316 37.6373 20.7839 37.5746 20.9717C37.5086 21.0065 37.4251 21.1456 37.3729 21.0064L37.3659 21.2012C37.2268 21.3334 37.1607 21.2986 37.1155 21.0934C36.5659 21.8099 36.4337 22.3352 36.4407 22.6865C36.4511 23.0344 36.6007 23.2048 36.6007 23.2048C36.879 23.6849 37.1468 23.1492 37.5746 23.0622Z" fill="#20BB65"/>
<path d="M55.4893 22.1995L55.5104 22.2839C55.5104 22.2452 55.5104 22.2135 55.4893 22.1995Z" fill="#20BB65"/>
<path d="M62.2675 22.6411C62.2675 22.6411 62.2709 22.6308 62.2744 22.6239C62.2709 22.6308 62.2675 22.6342 62.2675 22.6411Z" fill="#20BB65"/>
<path d="M56.3406 24.9927C56.3406 24.9927 56.3373 25.0029 56.3339 25.0131L56.3441 24.9927H56.3406Z" fill="#20BB65"/>
<path d="M54.9943 24.6796C55.3456 24.8013 55.4152 25.184 55.7943 25.0588C55.9682 25.1005 56.163 25.0274 56.3404 24.9961C56.4413 24.7074 56.5665 25.0066 56.6813 24.77L56.7057 24.9405C56.7439 24.8605 56.7891 24.8048 56.817 24.8952L56.81 24.944C56.8692 24.8222 56.9213 24.9022 56.9492 24.8396L56.9422 24.8883L57.0048 24.8709L56.9909 24.9405C57.0883 24.8118 57.1787 24.8118 57.2518 24.8779L57.2587 24.6761C57.4118 24.9126 57.5022 24.4987 57.6379 24.777L57.6309 24.8257C57.8605 24.3074 57.9092 25.2083 58.1457 24.7178C58.1179 24.7804 58.1457 24.8222 58.1457 24.8709C58.2431 24.8187 58.3405 24.7978 58.3718 24.4013C58.4379 24.4117 58.4171 24.53 58.4136 24.6831C58.4275 24.5092 58.4901 24.4431 58.5423 24.4361L58.5145 24.5022L58.6675 24.4535L58.6605 24.123C58.7336 24.2239 58.6501 24.5231 58.7336 24.45L58.751 24.1787C58.8553 24.2413 58.8901 24.6553 58.9806 24.8605C59.4119 25.0066 59.9372 24.3491 60.3093 24.8535V25.0588C60.2989 25.3579 60.4589 24.6274 60.452 24.9022L60.5111 24.77C60.5215 24.8257 60.5459 24.8848 60.5146 24.9474C60.5563 24.9614 60.5633 24.9126 60.6015 24.8257L60.6363 25.0135C60.7998 25.17 60.9737 24.8222 61.1511 24.9091C61.3424 25.3022 61.7807 24.9822 62.0346 24.7979C62.4034 24.377 62.7025 25.5875 63.0851 25.104C63.0921 25.1457 63.1304 25.0553 63.1304 25.0205L63.4399 25.0831C63.4399 25.0831 64.9531 25.3022 63.993 22.7595L64.0069 22.6969C63.8469 22.5265 63.7426 22.4846 63.5965 22.8047C63.6104 22.4046 63.4573 22.7526 63.4295 22.6204L63.4365 22.589C63.3078 22.8882 63.2417 22.3177 63.1165 22.589C63.1234 22.5577 63.1338 22.4465 63.1582 22.443C63.0817 22.4882 62.9738 22.5717 62.9843 22.3386C62.8034 22.3873 62.5668 22.2621 62.4242 22.6273L62.4382 22.5647C62.3547 22.8116 62.3512 22.596 62.2712 22.7177C62.2712 22.6864 62.2642 22.6725 62.2677 22.6586C62.1773 22.9021 62.059 22.683 61.9964 22.7839L62.0033 22.6307L61.8607 22.6586L61.9094 22.6969C61.8572 23.1213 61.8259 22.4221 61.7007 22.6899C61.6103 22.6308 61.4398 23.5595 61.3598 23.3438C61.2972 23.5386 61.4259 23.0238 61.3424 23.1734C61.3563 22.9508 61.3842 23.0378 61.3807 22.8604C61.3042 22.9612 61.2833 22.6273 61.1894 22.7699L61.1998 22.596C61.0642 22.9021 61.0085 22.356 60.9111 22.6516C60.7859 22.7873 60.8728 22.1333 60.7302 22.4638L60.7024 22.2273C60.6537 22.1855 60.6433 22.5125 60.598 22.3942C60.612 22.2481 60.5354 22.2725 60.5807 22.1333C60.4693 21.8933 60.2954 22.4429 60.1563 22.0394C60.0972 22.3212 60.0276 22.1473 59.9824 22.3595C59.9858 22.2343 59.8154 22.3282 59.9302 22.0638C59.9406 22.0429 59.9545 22.0464 59.9511 22.0951L59.9754 21.9247C59.9024 21.5977 59.7876 22.0881 59.6971 22.0325C59.7215 22.0916 59.7598 22.0778 59.725 22.1925L59.638 22.1647L59.6658 22.022L59.5406 21.9282V22.1056C59.4884 22.0117 59.4884 21.709 59.398 21.9525C59.3563 22.0916 59.4397 22.196 59.3702 22.2447C59.2936 22.1195 59.1789 21.9281 59.071 21.8655C59.0675 22.0638 59.0362 22.0569 59.0049 22.0951L59.0154 21.9212C58.8797 22.1543 59.0014 21.5386 58.8693 21.7194L58.8867 21.6011L58.831 21.9594C58.7023 22.2934 58.7997 21.5977 58.6501 22.0568C58.6988 22.029 58.6432 22.4395 58.5945 22.3595L58.6223 22.1925C58.5875 22.2238 58.5736 22.2934 58.5562 22.2586C58.5805 22.1716 58.584 22.0151 58.5353 22.0429L58.5805 21.8377L58.4727 22.1368C58.4171 21.9525 58.2953 22.1717 58.2849 21.9317C58.2849 21.9317 58.1492 21.8064 58.097 22.0603C58.1388 21.9038 58.0623 21.8342 58.097 21.6499C58.0483 21.8273 57.9266 21.9698 57.8953 21.7716L57.9057 21.7508C57.7562 21.5421 57.6066 22.0012 57.4779 21.7508C57.4709 21.9525 57.4013 21.8377 57.4013 22.0951C57.2309 22.3386 57.1614 21.556 57.05 22.3421C56.977 22.3804 56.9805 22.1507 56.9492 22.109L56.97 22.0673C56.8378 22.1229 56.7996 22.1264 56.7022 22.1021C56.65 22.1751 56.6152 22.5439 56.5352 22.4499C56.5735 22.3073 56.5352 22.3316 56.5039 22.3282C56.5248 22.3073 56.5352 22.2551 56.5039 22.1508C56.4935 22.196 56.483 22.2238 56.4726 22.2447C56.4726 22.2342 56.4726 22.2238 56.4726 22.2099C56.417 22.2586 56.4204 22.3038 56.4448 22.3247C56.4448 22.3455 56.4448 22.3769 56.4448 22.4151C56.403 22.2238 56.2883 22.4151 56.2987 22.1647C56.1317 22.2134 55.9995 22.4638 55.8604 22.5507C55.8534 22.4186 55.8952 22.3073 55.9369 22.2621L55.8395 22.3038C55.8534 22.1194 55.9021 22.1995 55.9335 22.1647C55.8395 21.8551 55.6795 22.4499 55.5647 22.1647L55.5265 22.3108L55.5195 22.2864C55.516 22.3629 55.4778 22.4673 55.4569 22.4916C55.45 22.3282 55.4847 22.1194 55.4187 22.1229C55.3769 21.9629 55.2656 22.1925 55.1925 22.2725C55.2273 22.3038 55.2099 22.3908 55.1925 22.4465C55.1578 22.4465 55.1508 22.2864 55.123 22.356L55.1334 22.1368C55.1334 22.3455 55.0325 22.3525 55.0151 22.443C55.0082 22.2795 55.0743 22.3073 55.0917 22.1856C54.9595 22.196 55.0256 22.1925 54.8934 22.2029C54.8134 22.3629 54.8934 22.4117 54.8447 22.5995C54.7786 22.6378 54.709 22.7873 54.6464 22.6482L54.6569 22.843C54.5316 22.9856 54.4621 22.9578 54.396 22.756C53.422 24.2761 54.069 24.9022 54.069 24.9022C54.3821 25.3544 54.5942 24.8013 55.0117 24.6796H54.9943Z" fill="#20BB65"/>
<path d="M72.8768 23.6778L72.8944 23.7623C72.898 23.7235 72.8944 23.6919 72.8768 23.6778Z" fill="#20BB65"/>
<path d="M79.6534 24.7805C79.6534 24.7805 79.6604 24.7701 79.6638 24.7632C79.6569 24.7701 79.6569 24.7736 79.6534 24.7805Z" fill="#20BB65"/>
<path d="M73.5444 26.5198C73.5444 26.5198 73.5376 26.53 73.5342 26.5402L73.5444 26.5198Z" fill="#20BB65"/>
<path d="M72.2365 26.1232C72.5774 26.2658 72.6192 26.6519 73.0018 26.5475C73.1722 26.5997 73.367 26.5406 73.541 26.5197C73.6627 26.238 73.7636 26.5475 73.8923 26.3145L73.9062 26.4849C73.9514 26.4049 73.9966 26.3563 74.0175 26.4502L74.0071 26.4989C74.0731 26.3806 74.1184 26.4641 74.1532 26.4049L74.1427 26.4537L74.2054 26.4397L74.1845 26.5058C74.2888 26.3841 74.3793 26.391 74.4453 26.4606L74.4697 26.2589C74.6019 26.5058 74.7236 26.1023 74.8349 26.391L74.8245 26.4397C75.0958 25.9423 75.068 26.8432 75.3393 26.3736C75.3045 26.4327 75.3324 26.478 75.3254 26.5267C75.4228 26.485 75.5237 26.471 75.5898 26.078C75.6559 26.0954 75.6245 26.2102 75.6071 26.3632C75.635 26.1928 75.7011 26.1301 75.7567 26.1266L75.7219 26.1893L75.8785 26.1545L75.9028 25.8275C75.9654 25.9354 75.8576 26.2241 75.9446 26.158L75.9863 25.8901C76.0837 25.9597 76.0802 26.3771 76.1498 26.5928C76.5568 26.7771 77.1411 26.1788 77.4542 26.7214L77.4333 26.9267C77.3846 27.2224 77.6247 26.5128 77.5899 26.7876L77.6629 26.6623C77.6629 26.718 77.6838 26.7771 77.649 26.8397C77.6908 26.8606 77.7012 26.8119 77.7464 26.7284L77.7568 26.9197C77.896 27.0937 78.1081 26.7702 78.2716 26.8746C78.4108 27.2885 78.8769 27.0276 79.1482 26.878C79.5691 26.5093 79.6874 27.7545 80.1257 27.3302C80.1257 27.3754 80.1743 27.2884 80.1848 27.2536L80.477 27.365C80.477 27.365 80.8318 27.4798 81.124 27.2641C81.4127 27.045 81.6597 26.4988 81.3814 25.1596L81.4057 25.1005C81.2735 24.9057 81.1692 24.8466 80.9779 25.1353C81.0509 24.7423 80.8457 25.0622 80.8352 24.9266L80.8457 24.8953C80.6718 25.17 80.6891 24.5961 80.5257 24.8431C80.5361 24.8118 80.5639 24.7075 80.5883 24.704C80.5048 24.7353 80.3831 24.8014 80.4283 24.5718C80.2405 24.5927 80.0144 24.4327 79.823 24.7736L79.8439 24.711C79.7256 24.944 79.7534 24.7283 79.656 24.8396C79.656 24.8083 79.6561 24.791 79.6595 24.7805C79.5378 25.0101 79.4474 24.777 79.3708 24.8675L79.3986 24.7145L79.2526 24.7213L79.2978 24.7631C79.1934 25.177 79.2456 24.4813 79.0891 24.7318C79.0056 24.6587 78.7238 25.5596 78.6682 25.337C78.5847 25.5249 78.7725 25.0274 78.6717 25.1631C78.7134 24.944 78.7308 25.0344 78.7482 24.857C78.6577 24.9475 78.6786 24.6135 78.5673 24.7422L78.5986 24.5718C78.4282 24.8605 78.4316 24.3074 78.3029 24.5892C78.1638 24.7075 78.3238 24.0709 78.1395 24.3804V24.1405C78.0908 24.0952 78.0455 24.4152 78.0108 24.2935C78.0421 24.1474 77.9621 24.1648 78.0212 24.0326C77.9342 23.7822 77.7012 24.3074 77.6038 23.8935C77.5168 24.1683 77.4611 23.984 77.3951 24.1927C77.4125 24.0675 77.2281 24.1439 77.3707 23.8935C77.3812 23.8726 77.3951 23.8796 77.3881 23.9283L77.4299 23.7613C77.3881 23.4273 77.2246 23.904 77.1377 23.8379C77.155 23.897 77.1968 23.89 77.1516 24.0014L77.0681 23.9631L77.1098 23.8239L76.9916 23.7196L76.9811 23.897C76.9324 23.7961 76.9603 23.4935 76.8455 23.73C76.7898 23.8622 76.8663 23.977 76.7898 24.0188C76.7237 23.8866 76.6263 23.6848 76.522 23.6117C76.5011 23.81 76.4698 23.7996 76.435 23.8344L76.4594 23.664C76.3028 23.8831 76.4768 23.2813 76.3307 23.4517L76.362 23.3334L76.2715 23.6848C76.1115 24.0048 76.2716 23.3195 76.0802 23.7648C76.1324 23.7439 76.042 24.1439 75.9968 24.0605L76.0385 23.897C76.0002 23.9283 75.9793 23.9944 75.9654 23.9561C75.9967 23.8691 76.0141 23.7161 75.9654 23.737L76.0281 23.5352L75.8924 23.8239C75.8541 23.6361 75.7115 23.8413 75.7219 23.6048C75.7219 23.6048 75.5932 23.4691 75.5202 23.7161C75.5723 23.563 75.5028 23.49 75.555 23.3057C75.4889 23.4796 75.3567 23.6083 75.3393 23.41L75.3497 23.3891C75.2141 23.17 75.0297 23.6152 74.9149 23.3543C74.8906 23.5526 74.8315 23.4343 74.8106 23.6917C74.6228 23.9213 74.6088 23.1352 74.4384 23.9109C74.3619 23.9422 74.3827 23.7161 74.3514 23.6709L74.3723 23.6326C74.2332 23.6778 74.1949 23.6813 74.101 23.65C74.0418 23.7196 73.9827 24.0848 73.9097 23.9839C73.9584 23.8413 73.9201 23.8656 73.8853 23.8587C73.9097 23.8378 73.9236 23.7856 73.8958 23.6813C73.8819 23.7265 73.8714 23.7509 73.8575 23.7752C73.8575 23.7648 73.8575 23.7544 73.861 23.7405C73.8019 23.7857 73.8018 23.8309 73.8262 23.8552C73.8227 23.8761 73.8193 23.9074 73.8227 23.9456C73.7914 23.7509 73.6662 23.9352 73.694 23.6848C73.5235 23.7195 73.374 23.963 73.2279 24.0431C73.2279 23.9109 73.2766 23.8031 73.3218 23.7579L73.2209 23.7926C73.2453 23.6083 73.2905 23.6953 73.3253 23.6605C73.2522 23.3474 73.0505 23.9283 72.9531 23.6361L72.9079 23.7787V23.7544C72.894 23.8309 72.8487 23.9317 72.8279 23.9561C72.8279 23.7926 72.8766 23.5839 72.8105 23.5874C72.7792 23.4239 72.6539 23.6465 72.5739 23.7231C72.6087 23.7544 72.5844 23.8413 72.5601 23.897C72.5253 23.897 72.5287 23.7335 72.4939 23.7996L72.5183 23.5805C72.5044 23.7857 72.4035 23.7891 72.3827 23.8796C72.3827 23.7161 72.4522 23.7474 72.4731 23.6257C72.3374 23.6291 72.407 23.6257 72.2713 23.6326C72.1809 23.7891 72.2574 23.8413 72.2018 24.0256C72.1357 24.0604 72.0556 24.2031 72 24.0639V24.2588C71.8643 24.3944 71.7982 24.3631 71.7426 24.1579C70.6921 25.6292 71.3043 26.2866 71.3043 26.2866C71.5895 26.7527 71.8296 26.2136 72.247 26.1127L72.2365 26.1232Z" fill="#20BB65"/>
<path d="M89.9299 28.3216L89.9158 28.406C89.9334 28.3744 89.9439 28.3392 89.9299 28.3216Z" fill="#20BB65"/>
<path d="M95.4773 32.847C95.4773 32.847 95.4876 32.847 95.4946 32.8401C95.4876 32.8401 95.4808 32.8401 95.4773 32.847Z" fill="#20BB65"/>
<path d="M89.4555 31.1982C89.4555 31.1982 89.4452 31.2052 89.4382 31.2121L89.4555 31.1982Z" fill="#20BB65"/>
<path d="M88.4612 30.3843C88.7152 30.6243 88.6038 31.0035 88.976 31.0348C89.1047 31.1391 89.2926 31.1565 89.4526 31.1982C89.6717 30.9861 89.6369 31.2991 89.8387 31.1426L89.7796 31.3026C89.8491 31.247 89.9117 31.2191 89.8874 31.3131L89.8596 31.3513C89.9674 31.2713 89.9709 31.3618 90.0231 31.32L89.9952 31.3582L90.0543 31.3722L90.0091 31.4243C90.1483 31.3547 90.2248 31.3931 90.2526 31.4835L90.3605 31.3131C90.3605 31.5879 90.6457 31.2783 90.6109 31.5774L90.5796 31.6156C91.0388 31.2852 90.597 32.0678 91.0423 31.7721C90.9866 31.8104 90.9866 31.8626 90.9553 31.9009C91.0562 31.9044 91.1466 31.9357 91.3901 31.6226C91.4388 31.6643 91.3553 31.7513 91.2683 31.8765C91.3727 31.7374 91.4631 31.7165 91.5084 31.7374L91.4492 31.7756L91.5953 31.8174L91.7762 31.5426C91.7762 31.6643 91.5431 31.8695 91.6475 31.8521L91.8179 31.64C91.8666 31.7478 91.651 32.1061 91.5988 32.3218C91.8284 32.6592 92.6249 32.4505 92.5623 33.0627L92.4302 33.2192C92.2249 33.4349 92.8162 32.9792 92.6319 33.1844L92.7606 33.1183C92.7293 33.1636 92.7084 33.2227 92.6458 33.254C92.6632 33.2922 92.7014 33.2575 92.7849 33.2158L92.6806 33.3757C92.6806 33.5879 93.0354 33.4418 93.0945 33.6123C92.938 34.0158 93.4424 34.0575 93.7346 34.1166C94.0059 34.1027 93.9676 34.3497 93.912 34.5862C93.8598 34.8263 93.8146 35.0454 94.1102 35.0385C94.0789 35.0698 94.1728 35.0384 94.2007 35.021L94.3154 35.2819C94.3154 35.2819 94.3572 35.355 94.4372 35.4384C94.5172 35.5219 94.639 35.6124 94.8129 35.6402C94.9903 35.668 95.2199 35.6333 95.5086 35.4593C95.7973 35.2854 96.1451 34.9723 96.5277 34.3914L96.5869 34.3671C96.6356 34.1236 96.5973 33.9984 96.2495 34.061C96.5799 33.8314 96.2043 33.9079 96.2877 33.8036L96.319 33.7897C95.999 33.8627 96.4095 33.4453 96.1138 33.5079C96.1416 33.494 96.2356 33.4349 96.2564 33.4523C96.166 33.414 96.0303 33.3723 96.2181 33.2366C96.0547 33.1114 95.9886 32.8192 95.6094 32.9479L95.6651 32.9166C95.4216 33.014 95.5816 32.8679 95.4321 32.8818C95.4529 32.861 95.4634 32.847 95.4738 32.8401C95.2303 32.934 95.3068 32.6905 95.1885 32.7079L95.3068 32.607C95.2685 32.5757 95.2268 32.5444 95.1851 32.5131L95.1955 32.5757C94.8546 32.8331 95.3277 32.3183 95.0459 32.4122C95.0181 32.2974 94.2424 32.8331 94.3363 32.621C94.1555 32.7149 94.6076 32.44 94.4441 32.4852C94.6076 32.3357 94.5694 32.4191 94.6911 32.287C94.5659 32.3009 94.7816 32.0435 94.6077 32.0783L94.7329 31.96C94.4198 32.0887 94.7468 31.64 94.472 31.7896C94.2842 31.8 94.785 31.3721 94.4546 31.5147L94.5868 31.3131C94.5729 31.247 94.3537 31.4869 94.392 31.3652C94.4998 31.2643 94.4198 31.226 94.545 31.153C94.6042 30.8886 94.1137 31.1878 94.2494 30.7774C94.0233 30.9582 94.072 30.7704 93.905 30.9095C93.985 30.8156 93.7833 30.7704 94.0407 30.6417C94.0615 30.6312 94.072 30.6417 94.0407 30.68L94.1659 30.5617C94.3016 30.2521 93.9015 30.5616 93.8598 30.4573C93.8459 30.5199 93.8876 30.5374 93.7867 30.6069L93.7311 30.5269L93.8424 30.433L93.7902 30.273L93.6893 30.4191C93.6963 30.3043 93.8737 30.0573 93.6476 30.1964C93.5293 30.2799 93.5432 30.4191 93.4493 30.4156C93.4563 30.266 93.4632 30.0365 93.4041 29.9182C93.2858 30.0817 93.265 30.0538 93.2163 30.0643L93.3241 29.9286C93.0736 30.033 93.5258 29.6017 93.3067 29.6712L93.3902 29.5843L93.1397 29.8452C92.8371 30.0434 93.3137 29.5251 92.9241 29.8173C92.9832 29.8243 92.7084 30.1338 92.7049 30.0364L92.8197 29.9147C92.771 29.9217 92.7189 29.9704 92.7223 29.9286C92.7919 29.8695 92.8789 29.7408 92.8232 29.7338L92.9763 29.5877L92.7154 29.7755C92.7675 29.5877 92.538 29.6991 92.6562 29.4904C92.6562 29.4904 92.6006 29.3025 92.4162 29.4904C92.5345 29.379 92.5032 29.2782 92.6319 29.1425C92.4927 29.2643 92.3084 29.3199 92.3814 29.1321L92.4023 29.1181C92.3675 28.8538 91.9988 29.1634 92.0023 28.8781C91.8944 29.0486 91.8875 28.9129 91.7623 29.1355C91.4875 29.2608 91.8005 28.5372 91.317 29.1703C91.2335 29.1668 91.3449 28.9651 91.3344 28.9129L91.3727 28.8886C91.2231 28.8677 91.1849 28.8538 91.1083 28.7842C91.0248 28.8225 90.8231 29.1355 90.7953 29.0103C90.8961 28.899 90.8509 28.906 90.8231 28.8886C90.8544 28.8816 90.8857 28.8363 90.8996 28.732C90.8718 28.7668 90.8474 28.7877 90.8266 28.8016C90.8335 28.7912 90.837 28.7842 90.844 28.7703C90.7674 28.7842 90.7535 28.8294 90.7674 28.8607C90.7535 28.8781 90.7431 28.906 90.7292 28.9442C90.7779 28.7529 90.5831 28.8711 90.7048 28.652C90.5309 28.6137 90.2944 28.7808 90.1239 28.7981C90.1726 28.6764 90.2596 28.5929 90.3187 28.5685L90.2074 28.5616C90.3013 28.3981 90.3118 28.4955 90.357 28.4781C90.4022 28.1581 89.9952 28.6207 90.0091 28.3111L89.9118 28.4259V28.4016C89.8805 28.4711 89.8004 28.5476 89.7726 28.5616C89.8317 28.4085 89.9535 28.2311 89.8874 28.2067C89.9117 28.0433 89.7135 28.2068 89.6091 28.2485C89.63 28.2903 89.5778 28.3633 89.5361 28.4085C89.5048 28.3981 89.5604 28.245 89.5048 28.2937L89.6022 28.099C89.5187 28.2868 89.4213 28.2555 89.3691 28.3285C89.4282 28.1755 89.4804 28.2276 89.543 28.1233C89.4108 28.078 89.477 28.0989 89.3448 28.0537C89.2056 28.1685 89.2613 28.245 89.143 28.3981C89.0665 28.4085 88.9447 28.5129 88.9378 28.3633L88.8717 28.5476C88.6977 28.6311 88.6456 28.5824 88.6595 28.3702C87.9186 28.892 87.6577 29.3686 87.5673 29.706C87.4768 30.0434 87.5568 30.2451 87.5568 30.2451C87.6542 30.7704 88.0473 30.3286 88.4612 30.3773V30.3843Z" fill="#20BB65"/>
<path d="M98.3231 43.5711L98.2386 43.5922C98.2774 43.5922 98.309 43.5922 98.3231 43.5711Z" fill="#20BB65"/>
<path d="M96.9484 50.4445C96.9484 50.4445 96.9598 50.4516 96.9636 50.4552C96.9598 50.448 96.9522 50.4445 96.9484 50.4445Z" fill="#20BB65"/>
<path d="M95.5088 44.3291C95.5088 44.3291 95.4986 44.3223 95.4884 44.3189L95.5088 44.3291Z" fill="#20BB65"/>
<path d="M95.8427 43.0875C95.7209 43.4145 95.3418 43.4702 95.4601 43.825C95.4149 43.985 95.4844 44.1659 95.5088 44.3328C95.7905 44.4441 95.4879 44.5415 95.721 44.6667L95.5505 44.6807C95.6305 44.7224 95.6792 44.7676 95.5853 44.785L95.5366 44.7781C95.6549 44.8407 95.5714 44.8824 95.6305 44.9172L95.5818 44.9067L95.5957 44.9659L95.5296 44.945C95.6514 45.0459 95.6479 45.1329 95.5748 45.1955L95.7766 45.2198C95.5297 45.3416 95.9297 45.4703 95.641 45.5677L95.5923 45.5572C96.0862 45.832 95.1888 45.7764 95.6479 46.0546C95.5888 46.0199 95.5435 46.0442 95.4948 46.0337C95.5366 46.1311 95.547 46.2286 95.9366 46.3051C95.9192 46.3677 95.8045 46.3329 95.6514 46.312C95.8218 46.3468 95.881 46.4164 95.8844 46.4651L95.8218 46.4303L95.8497 46.5834L96.1766 46.6217C96.0688 46.6773 95.7801 46.559 95.8427 46.646L96.1105 46.7017C96.034 46.7956 95.6201 46.7712 95.4009 46.8268C95.1992 47.2095 95.7627 47.8217 95.1957 48.0896L94.994 48.0547C94.7053 47.9852 95.394 48.2739 95.1227 48.2182L95.2409 48.2982C95.1853 48.2982 95.1227 48.3087 95.0635 48.2705C95.0427 48.3087 95.0879 48.3226 95.1679 48.3747H94.9766C94.7922 48.493 95.0983 48.7261 94.98 48.8792C94.5592 48.9766 94.7748 49.4566 94.9 49.7418C95.2235 50.194 93.9817 50.1835 94.3539 50.6566C94.3122 50.6566 94.3922 50.7123 94.4235 50.7227L94.2844 50.9975C94.2844 50.9975 94.1313 51.335 94.3156 51.6515C94.5 51.9611 95.0183 52.2671 96.3819 52.1315L96.441 52.1593C96.6497 52.048 96.7227 51.9541 96.4514 51.728C96.8375 51.8428 96.5384 51.6027 96.674 51.6062L96.7053 51.6202C96.4479 51.4184 97.0184 51.4915 96.7923 51.3036C96.8201 51.3176 96.9245 51.3558 96.9245 51.3802C96.9001 51.2932 96.8515 51.1645 97.0741 51.2341C97.0741 51.0428 97.2549 50.8306 96.9349 50.608L96.9941 50.6357C96.7749 50.4966 96.9836 50.5419 96.8862 50.434C96.9175 50.441 96.9315 50.4375 96.9454 50.4445C96.7297 50.3019 96.9697 50.2323 96.8862 50.1453L97.0358 50.1871L97.0428 50.0374L96.9941 50.0792C96.5906 49.9366 97.2828 50.0514 97.0462 49.874C97.1262 49.794 96.2531 49.4357 96.4827 49.3975C96.3053 49.2966 96.7819 49.5296 96.6532 49.4183C96.8653 49.4774 96.7784 49.4879 96.9523 49.5226C96.8689 49.4252 97.2028 49.4739 97.081 49.3487L97.248 49.394C96.9732 49.1992 97.5263 49.2478 97.255 49.0948C97.1506 48.9452 97.7733 49.154 97.4776 48.9452L97.7141 48.9592C97.7628 48.9174 97.4462 48.8478 97.5715 48.82C97.7141 48.8617 97.7036 48.7783 97.8289 48.8478C98.0863 48.7748 97.5819 48.5035 98.0028 48.4304C97.735 48.3226 97.9228 48.2808 97.7176 48.2008C97.8393 48.2252 97.7767 48.0339 98.0202 48.1939C98.0411 48.2078 98.0306 48.2217 97.9854 48.2078L98.1489 48.26C98.4828 48.2391 98.0202 48.0408 98.0898 47.9539C98.0271 47.9712 98.0341 48.0095 97.9263 47.9573L97.9715 47.8739L98.1072 47.9261L98.2219 47.8113L98.0445 47.7904C98.1489 47.7452 98.448 47.7904 98.2185 47.6582C98.0898 47.5922 97.9715 47.6687 97.9332 47.5852C98.0689 47.5261 98.2776 47.4321 98.3541 47.3277C98.1558 47.2964 98.1698 47.2687 98.1385 47.2269L98.3089 47.2582C98.1002 47.0877 98.6915 47.293 98.5315 47.133L98.6463 47.1677L98.2985 47.0634C97.9854 46.886 98.6637 47.0773 98.2289 46.8651C98.2498 46.9173 97.8498 46.813 97.9367 46.7677L98.0967 46.8164C98.0689 46.7781 98.0028 46.7538 98.0411 46.7399C98.1246 46.7781 98.2776 46.799 98.2602 46.7434L98.4585 46.8164L98.1733 46.6669C98.3611 46.6321 98.1628 46.479 98.3993 46.4964C98.3993 46.4964 98.542 46.3677 98.295 46.2877C98.4481 46.3468 98.5211 46.2738 98.702 46.3329C98.5315 46.2599 98.4028 46.1208 98.6011 46.1069L98.622 46.1207C98.8446 45.9816 98.4063 45.7834 98.6672 45.6686C98.4689 45.6442 98.5872 45.5816 98.3298 45.5607C98.1002 45.3659 98.8898 45.3485 98.1106 45.1781C98.0793 45.1015 98.3089 45.1189 98.3541 45.0876L98.3924 45.112C98.3472 44.9694 98.3437 44.9276 98.375 44.8302C98.3054 44.7711 97.9402 44.7189 98.0376 44.6389C98.1802 44.6841 98.1559 44.6459 98.1628 44.6111C98.1837 44.6355 98.2359 44.6494 98.3402 44.6146C98.295 44.6042 98.2707 44.5902 98.2463 44.5798C98.2567 44.5798 98.2672 44.5798 98.2811 44.5798C98.2359 44.5172 98.1907 44.5241 98.1663 44.545C98.1454 44.5415 98.1141 44.5415 98.0724 44.545C98.2672 44.5102 98.0793 44.385 98.3298 44.4059C98.288 44.2319 98.0411 44.0858 97.9576 43.9397C98.0898 43.9362 98.2011 43.978 98.2463 44.0232L98.2081 43.9189C98.3924 43.9363 98.3089 43.985 98.3437 44.0198C98.6568 43.9259 98.0689 43.7519 98.3541 43.6337L98.2081 43.5954L98.2324 43.5884C98.1559 43.5814 98.0515 43.5432 98.0272 43.5223C98.1907 43.5154 98.3993 43.5502 98.3959 43.4806C98.5559 43.4354 98.3298 43.3206 98.2463 43.244C98.215 43.2823 98.128 43.2614 98.0724 43.244C98.0724 43.2092 98.2324 43.1988 98.1663 43.1675L98.3855 43.178C98.1802 43.178 98.1663 43.0771 98.0794 43.0597C98.2428 43.0493 98.215 43.1189 98.3402 43.1363C98.3263 42.9971 98.3333 43.0667 98.3193 42.9275C98.1559 42.8475 98.1106 42.931 97.9228 42.8893C97.8811 42.8232 97.7315 42.7571 97.8672 42.6875L97.6724 42.7049C97.5263 42.5797 97.5506 42.5136 97.7489 42.4371C96.9627 41.9814 96.4201 41.9536 96.0792 42.0092C95.7349 42.0684 95.5888 42.2214 95.5888 42.2214C95.1574 42.5205 95.714 42.691 95.8462 43.084L95.8427 43.0875Z" fill="#20BB65"/>
<path d="M93.1818 59.315L93.1044 59.2833C93.1396 59.3009 93.1677 59.315 93.1818 59.315Z" fill="#20BB65"/>
<path d="M92.4434 60.793C92.4434 60.793 92.451 60.8002 92.4587 60.8038L92.4434 60.793Z" fill="#20BB65"/>
<path d="M90.6382 58.2954C90.6382 58.2954 90.6278 58.2884 90.6208 58.285L90.6382 58.2954Z" fill="#20BB65"/>
<path d="M90.983 58.111C90.8578 58.1423 90.51 57.9892 90.6074 58.1353C90.5621 58.1597 90.6178 58.2362 90.6387 58.2953C90.8926 58.4484 90.6178 58.344 90.8265 58.4762L90.6734 58.4067C90.743 58.4519 90.7917 58.4867 90.7082 58.4519L90.6665 58.431C90.7743 58.5006 90.7012 58.4762 90.7534 58.511L90.7117 58.4867L90.7256 58.511L90.6665 58.4762C90.7743 58.5562 90.7743 58.5771 90.7117 58.5667L90.8926 58.6571C90.6734 58.5875 91.0386 58.7928 90.7847 58.7024L90.743 58.678C91.1952 58.9632 90.3882 58.5736 90.8126 58.8484C90.7604 58.8136 90.7187 58.8032 90.6769 58.7789C90.7187 58.8241 90.7325 58.8589 91.0873 59.0432C91.0734 59.0537 90.9726 58.998 90.8334 58.9284C90.9865 59.0084 91.0456 59.0536 91.0491 59.071L90.9935 59.0363L91.0282 59.0954L91.3239 59.2414C91.23 59.2136 90.9656 59.0606 91.0282 59.1128L91.2682 59.2381C91.2091 59.2381 90.8369 59.0606 90.6456 58.9875C90.496 59.0258 91.0561 59.4467 90.5865 59.3111L90.4021 59.2206C90.1377 59.0815 90.7813 59.4502 90.5343 59.325L90.6491 59.398C90.6004 59.3772 90.5482 59.3563 90.4891 59.3181C90.4751 59.3215 90.5169 59.3459 90.5934 59.3946L90.423 59.3181C90.2769 59.2867 90.576 59.485 90.4925 59.492C90.1343 59.3598 90.3952 59.6102 90.5482 59.7563C90.903 60.0381 89.8142 59.558 90.2247 59.8711C90.1864 59.8537 90.2665 59.9059 90.2978 59.9198L90.2247 59.965C90.2247 59.965 89.9569 60.2328 92.2596 61.1616L92.3152 61.1929C92.4753 61.2312 92.517 61.2242 92.2422 61.0433C92.597 61.2277 92.2944 61.0329 92.4127 61.085L92.4405 61.1025C92.1796 60.932 92.6909 61.1755 92.4579 61.0259C92.4857 61.0433 92.5831 61.0955 92.5866 61.1025C92.5518 61.0642 92.4822 60.9981 92.6909 61.1059C92.6562 61.0398 92.7814 61.0364 92.4648 60.8381L92.5205 60.8694C92.3048 60.7372 92.4961 60.8346 92.3918 60.7581C92.4196 60.772 92.4335 60.779 92.4439 60.7825C92.2318 60.6503 92.4335 60.7198 92.3466 60.6572L92.4822 60.7302L92.4648 60.6816H92.4301C92.0544 60.4729 92.677 60.779 92.4439 60.6294C92.5031 60.6329 91.6822 60.1737 91.8804 60.2502C91.71 60.1459 92.1622 60.4102 92.0335 60.3233C92.2283 60.4276 92.1518 60.3963 92.3118 60.4763C92.2248 60.4137 92.524 60.5598 92.4022 60.4694L92.5553 60.5493C92.2874 60.3789 92.7814 60.612 92.5205 60.4555C92.4057 60.3651 92.9831 60.6781 92.6979 60.4937L92.9101 60.5946C92.9484 60.6016 92.6596 60.452 92.7675 60.4937C92.8962 60.5633 92.8787 60.532 93.0005 60.6051C93.2196 60.6851 92.7396 60.3964 93.1049 60.5425C92.8544 60.3999 93.0144 60.4625 92.8266 60.3546C92.9379 60.4103 92.8648 60.3267 93.0944 60.4728C93.1118 60.4833 93.1083 60.4867 93.0631 60.4624L93.2127 60.5425C93.5084 60.6712 93.0771 60.4207 93.1292 60.4242C93.0771 60.4033 93.084 60.4207 92.9831 60.3581L93.0144 60.3511L93.1396 60.4207L93.2301 60.4311L93.0701 60.3511C93.157 60.379 93.4284 60.5146 93.2127 60.3824C93.091 60.3093 92.9936 60.285 92.9518 60.2433C93.0701 60.2815 93.244 60.3372 93.3032 60.3372C93.1258 60.2468 93.1362 60.2433 93.1014 60.2189L93.2545 60.2989C93.0527 60.1633 93.5988 60.4659 93.4423 60.3511L93.5466 60.4102L93.2301 60.2363C92.9379 60.0554 93.5536 60.3894 93.1536 60.1494C93.1744 60.1737 92.8127 59.9789 92.8857 59.9998L93.0318 60.0798C93.004 60.0555 92.9449 60.0206 92.9762 60.0345C93.0527 60.0798 93.1918 60.1493 93.171 60.125L93.3518 60.2294L93.0874 60.0694C93.2544 60.1389 93.0666 60.0102 93.2788 60.1145C93.2788 60.1145 93.3971 60.1355 93.171 60.0103C93.3101 60.0903 93.3727 60.1007 93.5362 60.1946C93.3797 60.1042 93.2614 60.0103 93.4353 60.0903L93.4527 60.1007C93.6475 60.1564 93.244 59.9163 93.4736 59.9928C93.2927 59.9024 93.4005 59.9372 93.171 59.8224C92.9623 59.6728 93.6684 60.0033 92.9657 59.6276C92.9344 59.5928 93.1396 59.6937 93.1814 59.7076L93.2162 59.732C93.1745 59.6728 93.171 59.6624 93.1988 59.652C93.1362 59.6067 92.8092 59.4363 92.8962 59.4572C93.0249 59.5302 93.004 59.5093 93.0075 59.5023C93.0248 59.5162 93.0736 59.5441 93.164 59.5789C93.1257 59.5546 93.1014 59.5406 93.0805 59.5302C93.091 59.5371 93.0979 59.5406 93.1118 59.5476C93.0701 59.5128 93.0318 59.492 93.0109 59.4885C92.9901 59.4781 92.9657 59.4676 92.9275 59.4467C93.1014 59.5198 92.9344 59.4084 93.157 59.5197C93.1223 59.4571 92.9031 59.3145 92.8335 59.2414C92.9518 59.2971 93.0492 59.3563 93.0909 59.3876L93.0596 59.3458C93.2266 59.4293 93.1501 59.405 93.1779 59.4293C93.4596 59.5406 92.9379 59.2415 93.1988 59.3389L93.0701 59.2658L93.0944 59.2763C93.0248 59.2415 92.9344 59.1858 92.9135 59.1719C93.0596 59.2415 93.2475 59.3424 93.244 59.325C93.3901 59.3841 93.1918 59.2589 93.1188 59.2032C93.091 59.1998 93.0109 59.1545 92.9622 59.1267C92.9622 59.1163 93.1083 59.1859 93.0492 59.1511L93.244 59.2484C93.0596 59.158 93.0562 59.1302 92.9762 59.0849C93.1223 59.1545 93.0944 59.158 93.2023 59.2172C93.2023 59.1789 93.2023 59.1997 93.1988 59.1615C93.0596 59.071 93.0109 59.0711 92.844 58.9772C92.8127 58.9459 92.684 58.8623 92.8092 58.9075L92.6318 58.8241C92.5101 58.7301 92.5379 58.7267 92.7222 58.7998C91.4039 57.8988 90.8091 57.784 90.8091 57.784C90.3882 57.6623 90.8752 57.9545 90.9656 58.1076L90.983 58.111Z" fill="#20BB65"/>
</svg>
