<svg width="104" height="10" viewBox="0 0 104 10" fill="none" xmlns="http://www.w3.org/2000/svg">
<g opacity="0.57">
<path d="M0.939941 8.37302C1.25852 8.55655 1.80563 8.57392 2.32505 8.60509C1.92683 8.42848 1.50091 8.35225 0.939941 8.37302Z" fill="#43C554"/>
<path d="M2.33482 8.60852H2.34142C2.33483 8.60852 2.32825 8.60852 2.32495 8.60852C2.32825 8.60852 2.33153 8.60852 2.33482 8.61182V8.60852Z" fill="#43C554"/>
<path d="M103.105 0.266663C102.977 0.270125 102.828 0.273598 102.679 0.277061C102.821 0.283987 102.967 0.283976 103.105 0.266663Z" fill="#43C554"/>
<path d="M27.4957 9.12096L27.5754 8.81619C28.8081 8.80926 27.9355 9.16594 29.0747 9.08976C29.5214 8.65692 30.9689 9.1313 31.3602 8.90276C31.3498 8.93739 31.9108 8.95125 31.8727 9.0863C32.0423 8.85083 32.4475 9.03095 32.7972 8.97208C32.9253 8.90629 32.7037 8.90277 32.6068 8.83006L33.4136 8.74695C33.7287 8.82313 33.8049 8.96162 33.4655 8.98586C35.5709 9.06897 45.6856 9.28367 47.9537 9.16593C47.6629 8.98933 46.9599 9.11054 46.6968 8.83006C47.2958 8.67423 47.5798 8.88544 47.843 8.71922C48.075 9.13475 49.1623 8.81618 49.6159 9.23864L49.789 9.00319L50.0868 9.14522C52.7254 8.89936 50.6893 9.02396 53.0267 9.07936C54.3806 9.04127 55.0247 8.71579 55.7762 8.83699C55.6654 8.83699 55.3641 8.6916 55.7173 8.62927C55.7761 8.83704 56.6522 8.48035 56.8219 8.68811C57.1647 8.66041 58.2762 8.68809 57.9023 8.40414C58.0927 8.54611 59.0831 8.60149 58.4944 8.72269C58.8303 8.72961 59.1523 8.77124 59.3947 8.70891L58.9654 8.62927C60.0977 8.58772 60.714 8.8058 61.4481 8.54955L61.0292 8.4388C61.7044 8.42149 62.2723 8.39723 62.5354 8.67771L61.8429 8.76428C62.9648 8.75736 63.6401 8.73658 64.575 8.58768L64.2426 8.58075C65.4338 8.30026 71.6633 8.06479 72.7575 7.71505L72.252 7.50041L73.1939 7.31687C73.083 7.31687 72.7402 8.01975 72.6468 7.9505C74.669 7.92972 85.1854 7.75315 87.0519 7.89859C87.8067 8.01633 87.1869 8.24144 87.18 8.27606C88.0976 8.19296 87.5747 8.04748 88.3539 8.0648C88.5651 8.10289 88.3089 8.2345 88.1911 8.26566C88.5339 8.24143 88.849 8.31409 88.8767 8.21367C88.4508 8.13403 88.6309 7.86739 88.4508 7.69079L89.455 7.71159L89.41 7.88126C89.6351 7.88472 89.9779 7.41722 90.9613 7.50725C92.6235 7.57997 94.4276 7.51769 96.1001 7.55578C96.0758 7.6562 95.7226 7.71849 95.3729 7.77736C95.598 7.78082 95.9373 7.75663 96.1451 7.82935C95.7399 7.64929 96.8446 7.70813 96.5294 7.63195C97.7518 7.21642 99.3377 7.59388 100.418 7.30994C100.512 6.93596 102.728 0.900343 102.728 0.457109C103.064 0.464034 103.396 0.470926 103.5 0.509017C103.413 0.405134 102.755 0.356648 102.402 0.415515L102.343 0.65451C101.537 0.737617 102.153 0.5125 101.367 0.529813C101.325 0.335899 102.049 0.294349 102.686 0.273572C102.111 0.252795 101.54 0.110785 101.305 0.322014C100.764 0.24237 101.363 0.0831064 100.716 0C100.252 0.058867 99.6459 0.249367 99.1127 0.135095L99.1231 0.100434C97.8314 -0.100407 97.1458 0.398245 95.9616 0.200868L96.0897 0.135095C95.6707 0.0242867 94.85 0.173192 94.0951 0.0554584C94.3098 0.0935488 94.4968 0.235468 94.0432 0.259708C93.1775 0.138511 92.5854 0.259731 91.9517 0.110832L91.3457 0.301301C88.3296 0.266674 76.4177 0.547175 73.3878 0.57834L73.5055 0.547144C68.8896 0.647564 59.4121 0.637186 54.6438 0.903819C53.9063 0.71683 52.8882 0.761826 52.1195 0.709884C52.5488 0.786065 52.3999 0.921143 52.0675 0.914218C49.7232 0.893441 51.9082 1.04229 49.5363 1.1254C46.8041 1.302 36.35 1.11155 33.9261 0.952261C32.6241 1.22928 30.9966 1.0215 29.7223 1.1981L29.8504 1.13233C28.4791 1.23621 20.7225 0.986936 19.1297 1.08736L19.3444 1.1254C17.9558 1.29854 18.1462 0.997314 17.0486 0.903819C17.194 1.21201 16.0028 1.39206 15.5492 1.41284L15.5665 1.3436C14.8809 1.39554 13.333 1.66557 12.2007 1.71059L12.2457 1.54091C11.3038 1.72444 9.53089 1.6483 8.85219 1.66908C7.30433 1.59982 4.91156 1.30544 2.84083 1.53398L1.50074 1.05269L1.30336 1.10114C1.30336 1.10114 -0.847017 6.93943 1.88857 8.18256L1.84355 8.35223L2.38374 8.33144C3.03128 8.41454 3.33253 8.21714 3.28752 8.38681L2.39759 8.3661C3.04859 8.41458 2.59498 8.50459 2.34566 8.60154C2.61922 8.61886 2.88238 8.63617 3.10054 8.68811C3.22866 8.62232 3.00704 8.61884 2.90316 8.58075C3.2529 8.52188 3.74116 8.36262 4.17054 8.4388C4.83886 8.45265 4.21209 8.71231 4.99122 8.72962C9.10152 8.85774 13.0837 9.05168 17.239 9.01013C17.3325 9.07938 17.2217 9.07939 17.1005 9.11056C18.3506 9.03784 19.4656 9.06204 20.6048 8.98586C20.9199 9.06204 21.0065 9.166 21.1 9.23526C20.913 9.09328 27.3918 9.07594 27.4957 9.11403V9.12096Z" fill="#43C554"/>
</g>
</svg>
