<svg width="98" height="122" viewBox="0 0 98 122" fill="none" xmlns="http://www.w3.org/2000/svg">
<path d="M96.9615 1.49353L96.8862 1.47949C96.9189 1.49351 96.9484 1.50054 96.9615 1.49353Z" fill="#20BB65"/>
<path d="M95.6436 4.74231C95.6436 4.74231 95.6506 4.74992 95.6577 4.75372C95.6542 4.74612 95.6471 4.74611 95.6436 4.74231Z" fill="#20BB65"/>
<path d="M94.4016 1.01981C94.4016 1.01981 94.3913 1.0125 94.3845 1.00885L94.4016 1.01981Z" fill="#20BB65"/>
<path d="M94.8011 0.49647C94.6612 0.621964 94.3163 0.534805 94.3944 0.747447C94.3391 0.81368 94.3879 0.925237 94.4009 1.01587C94.6449 1.15879 94.3683 1.11698 94.5668 1.24944L94.4171 1.20412C94.4855 1.24944 94.5278 1.28777 94.4432 1.27034L94.4009 1.25289C94.5017 1.32261 94.4269 1.31914 94.479 1.354L94.4367 1.33659L94.4464 1.37144L94.3879 1.34004C94.4887 1.42719 94.4822 1.47252 94.4171 1.48297L94.5928 1.55616C94.3683 1.54571 94.7197 1.73047 94.4627 1.69561L94.4204 1.67472C94.8466 1.96754 94.056 1.66423 94.4562 1.95008C94.4074 1.91522 94.3651 1.91525 94.3228 1.89433C94.3553 1.95708 94.3651 2.01283 94.7067 2.16969C94.6904 2.19758 94.5896 2.14529 94.4594 2.08603C94.6091 2.15575 94.6612 2.21155 94.6612 2.23595L94.6091 2.19761L94.6319 2.28824L94.9182 2.40675C94.8238 2.40675 94.5733 2.25337 94.6254 2.31961L94.8564 2.43114C94.7913 2.45902 94.4269 2.31961 94.2382 2.28127C94.0593 2.4207 94.557 2.92268 94.0723 2.8913L93.8966 2.81113C93.6428 2.68215 94.2447 3.05166 94.0104 2.94011L94.1146 3.02028C94.0658 3.00285 94.0137 2.98888 93.9617 2.95054C93.9421 2.96448 93.9844 2.9854 94.0527 3.04118L93.8868 2.97845C93.7306 2.98891 94.0039 3.21198 93.9063 3.2573C93.5452 3.17712 93.7534 3.5083 93.8705 3.707C94.1666 4.06256 93.1092 3.65819 93.4541 4.04513C93.4183 4.0277 93.4899 4.08697 93.5159 4.1044L93.4118 4.21249C93.4118 4.21249 93.3044 4.3554 93.4769 4.59593C93.6526 4.83297 94.0983 5.18505 95.237 5.54758L95.2858 5.58243C95.455 5.58243 95.5103 5.55107 95.2728 5.33495C95.6047 5.52319 95.3411 5.28963 95.455 5.33495L95.4811 5.35235C95.2533 5.15365 95.7413 5.38025 95.5429 5.1955C95.5689 5.21293 95.6567 5.2687 95.6567 5.28265C95.634 5.22339 95.5852 5.13276 95.7771 5.24431C95.7674 5.13276 95.917 5.07 95.634 4.83993L95.686 4.87478C95.4941 4.72488 95.673 4.81903 95.5852 4.72491C95.6112 4.73885 95.6242 4.74232 95.6372 4.74929C95.4485 4.5994 95.6502 4.63777 95.5787 4.56108L95.7088 4.63078V4.55061L95.6698 4.55759C95.3216 4.35192 95.9138 4.63078 95.7088 4.45648C95.7739 4.43557 95.0158 3.96147 95.2077 4.01376C95.0516 3.90221 95.468 4.18111 95.3574 4.08002C95.5429 4.18111 95.4648 4.15669 95.6177 4.22989C95.5461 4.14971 95.8324 4.28217 95.7251 4.1741L95.8715 4.25083C95.6307 4.05561 96.109 4.25428 95.8715 4.08347C95.7771 3.96843 96.3205 4.27522 96.0602 4.06955L96.2684 4.14972C96.3107 4.14275 96.0342 4.00681 96.1415 4.02772C96.2652 4.09395 96.2554 4.04516 96.366 4.12185C96.5872 4.16019 96.1448 3.85691 96.5092 3.94406C96.2749 3.80462 96.4376 3.836 96.2619 3.73143C96.3693 3.78371 96.314 3.65822 96.5254 3.81857C96.5417 3.83252 96.5352 3.836 96.4962 3.81857L96.6361 3.89525C96.9289 3.98589 96.5222 3.73489 96.584 3.71049C96.5287 3.70003 96.5352 3.72443 96.4409 3.66168L96.4799 3.63032L96.597 3.70002L96.6946 3.67215L96.5417 3.60589C96.6328 3.61287 96.8931 3.72793 96.6946 3.58849C96.5807 3.51529 96.4799 3.51878 96.4441 3.463C96.5645 3.47346 96.7467 3.48391 96.815 3.45253C96.6426 3.37584 96.6556 3.3654 96.6263 3.33402L96.776 3.40373C96.5938 3.25034 97.1111 3.53968 96.9712 3.40373L97.072 3.45602L96.7695 3.29568C96.4962 3.10744 97.0883 3.41421 96.7109 3.16671C96.7272 3.20157 96.379 3.02377 96.4539 3.02726L96.5938 3.10045C96.571 3.07256 96.5124 3.03769 96.545 3.04118C96.6198 3.08649 96.7532 3.14229 96.7369 3.11092L96.9094 3.20854L96.6621 3.04466C96.828 3.08301 96.6556 2.94359 96.8638 3.02028C96.8638 3.02028 96.9907 2.99587 96.776 2.87735C96.9093 2.95404 96.9777 2.94011 97.1339 3.02377C96.9842 2.93314 96.8768 2.82157 97.0525 2.87735L97.0688 2.8913C97.2705 2.88433 96.8866 2.65077 97.1241 2.6682C96.9484 2.59499 97.059 2.5985 96.8313 2.51135C96.6393 2.34402 97.3356 2.57061 96.6556 2.2499C96.6295 2.2011 96.8313 2.27778 96.8736 2.27778L96.9061 2.30216C96.8736 2.21501 96.8736 2.19412 96.9061 2.15229C96.8475 2.1 96.5254 1.96402 96.6198 1.95357C96.7434 2.0198 96.7239 1.99194 96.7304 1.97799C96.7467 1.99542 96.7922 2.01983 96.8866 2.03378C96.8475 2.01286 96.8248 1.99892 96.8052 1.98846C96.815 1.99195 96.8248 1.9954 96.8378 2.00237C96.802 1.95706 96.7597 1.94659 96.7369 1.95008C96.7174 1.9431 96.6914 1.93266 96.6556 1.9222C96.8313 1.96404 96.6719 1.84203 96.8931 1.92918C96.8703 1.82809 96.6621 1.68169 96.597 1.58408C96.7141 1.62242 96.8085 1.6782 96.8475 1.71306L96.8215 1.65029C96.9842 1.71652 96.9061 1.71304 96.9354 1.74093C97.2184 1.78973 96.7109 1.52134 96.9744 1.55272L96.8508 1.48995H96.8736C96.8053 1.46904 96.7174 1.41674 96.6979 1.39931C96.8443 1.44463 97.0265 1.5283 97.0297 1.48995C97.1761 1.51784 96.9842 1.38887 96.9191 1.32612C96.8898 1.33658 96.8118 1.29823 96.7629 1.27383C96.7629 1.2564 96.9094 1.3017 96.8508 1.26336L97.046 1.3331C96.8606 1.27036 96.8638 1.21804 96.7857 1.1797C96.9321 1.22502 96.8996 1.2494 97.007 1.29472V1.18668C96.8768 1.09953 96.828 1.12392 96.6621 1.04723C96.6328 1.00192 96.5092 0.92524 96.6361 0.932212L96.4604 0.879914C96.3432 0.775336 96.3758 0.747432 96.5612 0.775319C95.9235 0.315176 95.4453 0.130441 95.1329 0.0537502C94.8173 -0.0229403 94.6677 0.00494208 94.6677 0.00494208C94.2382 0.0188858 94.7165 0.273381 94.7913 0.506938L94.8011 0.49647Z" fill="#20BB65"/>
<path d="M89.9351 12.4261L89.8622 12.3835C89.8854 12.4119 89.9119 12.4296 89.9351 12.4261Z" fill="#20BB65"/>
<path d="M84.8158 16.6677C84.8158 16.6677 84.8158 16.6786 84.8194 16.6859C84.8194 16.6786 84.8194 16.6713 84.8158 16.6677Z" fill="#20BB65"/>
<path d="M87.5232 11.0663C87.5232 11.0663 87.5197 11.0521 87.5161 11.0449L87.5232 11.0663Z" fill="#20BB65"/>
<path d="M88.5671 10.3616C88.2678 10.522 87.9717 10.3024 87.822 10.651C87.6854 10.7381 87.6138 10.9228 87.526 11.0658C87.6496 11.3412 87.3731 11.2087 87.4576 11.4562L87.3308 11.3516C87.36 11.4353 87.3665 11.505 87.2885 11.4562L87.2624 11.4178C87.3047 11.5468 87.2201 11.5224 87.2429 11.5852L87.2136 11.5468L87.1843 11.5991L87.1518 11.5398C87.1713 11.6967 87.1128 11.756 87.0217 11.7595L87.1453 11.9129C86.8948 11.8397 87.0965 12.2057 86.833 12.0907L86.8069 12.0523C86.9794 12.5857 86.3807 11.9512 86.5336 12.4671C86.5141 12.4009 86.4653 12.3904 86.4393 12.3521C86.4068 12.4532 86.3547 12.5333 86.5824 12.8506C86.5304 12.8854 86.4718 12.7843 86.3775 12.6693C86.4783 12.8087 86.4751 12.8994 86.4458 12.9377L86.4263 12.8715L86.3514 13.0075L86.5597 13.2515C86.449 13.2236 86.3189 12.9447 86.3091 13.0528L86.4653 13.2689C86.3547 13.2898 86.0749 13.0005 85.8862 12.9029C85.5055 13.0632 85.5348 13.8998 84.9687 13.7395L84.845 13.5826C84.6791 13.3421 84.998 14.0079 84.8385 13.7918L84.8743 13.9312C84.8353 13.8963 84.7832 13.865 84.767 13.7953C84.7279 13.8092 84.7539 13.851 84.7767 13.9417L84.6433 13.8162C84.4384 13.7953 84.5164 14.1717 84.3408 14.2101C83.9764 14.0184 83.8495 14.5273 83.7681 14.8271C83.7356 15.3848 82.8376 14.5866 82.8279 15.1931C82.7986 15.1618 82.8214 15.2593 82.8409 15.2872L82.5773 15.4127C82.5773 15.4127 82.2682 15.5835 82.2162 15.9426C82.1674 16.3016 82.3658 16.8629 83.4363 17.6193L83.4623 17.6786C83.6803 17.7239 83.7844 17.696 83.7193 17.3509C83.9308 17.6821 83.8527 17.3091 83.9503 17.3997L83.9633 17.4311C83.895 17.1104 84.2659 17.5322 84.2106 17.2428C84.2236 17.2707 84.2757 17.3648 84.2594 17.3858C84.2952 17.3021 84.331 17.1731 84.4514 17.3649C84.562 17.215 84.8158 17.1697 84.7182 16.7967L84.7442 16.8559C84.6694 16.6084 84.793 16.7792 84.7832 16.6293C84.8028 16.6537 84.8125 16.6642 84.819 16.6747C84.7474 16.4272 84.9622 16.5282 84.9524 16.4062L85.0338 16.5352L85.1248 16.4271H85.0663C84.8613 16.0611 85.2875 16.5945 85.2257 16.3051C85.3298 16.2947 84.9166 15.4581 85.0988 15.5766C85.0305 15.3849 85.2355 15.8694 85.2094 15.7021C85.3266 15.8833 85.2583 15.838 85.3624 15.974C85.3624 15.8485 85.5706 16.096 85.5576 15.9252L85.6519 16.0681C85.5738 15.7439 85.9382 16.1343 85.8341 15.845C85.8471 15.6603 86.1692 16.2215 86.0814 15.8729L86.2441 16.0367C86.3059 16.0367 86.1172 15.7788 86.2245 15.838C86.3026 15.96 86.3449 15.8938 86.3937 16.0262C86.6215 16.1413 86.4198 15.6045 86.7646 15.8206C86.6378 15.5661 86.7972 15.6532 86.6996 15.4615C86.7711 15.5591 86.8427 15.3744 86.9176 15.6533C86.9241 15.6777 86.9111 15.6811 86.885 15.6428L86.9696 15.7892C87.2201 15.9914 87.0087 15.5417 87.1095 15.5208C87.0575 15.4929 87.0347 15.5278 86.9891 15.4162L87.0705 15.3814L87.1355 15.5068L87.2852 15.4929L87.1713 15.3605C87.2722 15.3953 87.4576 15.6219 87.3731 15.3744C87.321 15.2419 87.1941 15.221 87.2136 15.1339C87.347 15.1792 87.5487 15.2454 87.6659 15.2175C87.5455 15.0641 87.5715 15.0502 87.5715 15.0014L87.6724 15.1374C87.6268 14.8724 87.9197 15.4127 87.9034 15.1896L87.9652 15.2907L87.783 14.9839C87.6691 14.6458 88.0303 15.235 87.8513 14.7888C87.8318 14.841 87.6171 14.4994 87.7017 14.5238L87.7862 14.6668C87.7895 14.618 87.757 14.5587 87.7928 14.5726C87.8318 14.6563 87.9262 14.7713 87.9424 14.719L88.04 14.9038L87.9294 14.604C88.0823 14.7016 88.0335 14.4576 88.1897 14.6249C88.1897 14.6249 88.3654 14.6249 88.2417 14.3983C88.3133 14.5413 88.4077 14.5413 88.502 14.7016C88.4239 14.5343 88.4207 14.3495 88.5671 14.4715L88.5736 14.4925C88.8144 14.5413 88.6257 14.0986 88.8762 14.1892C88.7526 14.0393 88.8762 14.0707 88.707 13.8859C88.668 13.5931 89.2276 14.1055 88.7883 13.4606C88.8144 13.3804 88.9608 13.5478 89.0096 13.5582L89.0226 13.6C89.0779 13.4641 89.1007 13.4327 89.182 13.3839C89.169 13.2933 88.951 13.0074 89.0681 13.0179C89.1365 13.1469 89.1462 13.105 89.169 13.0806C89.169 13.112 89.195 13.1573 89.2861 13.2026C89.2634 13.1643 89.2536 13.1364 89.2438 13.112C89.2503 13.119 89.2569 13.126 89.2666 13.1399C89.2731 13.0632 89.2373 13.0353 89.208 13.0388C89.195 13.0214 89.1755 13.0005 89.1462 12.976C89.3024 13.0806 89.2503 12.861 89.4098 13.0458C89.4911 12.8924 89.4098 12.6205 89.4456 12.4566C89.5367 12.5438 89.5855 12.6519 89.5887 12.7146L89.6278 12.6135C89.7449 12.753 89.657 12.7321 89.657 12.7809C89.9271 12.9273 89.6343 12.3939 89.9043 12.5089L89.8295 12.38L89.849 12.3939C89.8002 12.3382 89.7546 12.237 89.7514 12.2057C89.8685 12.3137 89.9856 12.4846 90.0279 12.4323C90.1646 12.5124 90.0832 12.2719 90.0767 12.1604C90.0344 12.1673 89.9856 12.0906 89.9596 12.0384C89.9791 12.0105 90.0963 12.1185 90.0702 12.0488L90.2134 12.2057C90.0735 12.0627 90.132 11.9826 90.0832 11.9094C90.2004 12.014 90.1386 12.0488 90.2101 12.1429C90.2882 12.0349 90.2492 12.0906 90.3273 11.9826C90.2687 11.8118 90.1841 11.8396 90.0832 11.6758C90.0995 11.6026 90.0409 11.4492 90.1743 11.4945L90.0344 11.369C90.0182 11.1773 90.0767 11.1459 90.2589 11.2331C90.0312 10.3581 89.6993 9.95026 89.4325 9.74807C89.1657 9.54589 88.9608 9.55637 88.9608 9.55637C88.4662 9.4762 88.7233 9.99559 88.5541 10.3756L88.5671 10.3616Z" fill="#20BB65"/>
<path d="M75.9762 21.7263L75.9204 21.663C75.9368 21.6981 75.9532 21.7227 75.9762 21.7263Z" fill="#20BB65"/>
<path d="M75.2798 19.3064C74.9414 19.3622 74.717 19.0555 74.4664 19.3483C74.307 19.3901 74.1801 19.547 74.0532 19.6585C74.0955 19.9618 73.8645 19.7527 73.8743 20.0176L73.7799 19.8781C73.7832 19.9688 73.7702 20.0385 73.7084 19.9688L73.6921 19.9235C73.6986 20.0594 73.6205 20.0106 73.6238 20.0803L73.6075 20.035L73.5652 20.0803L73.5489 20.0141C73.5262 20.171 73.4513 20.2163 73.3635 20.1884L73.4448 20.3732C73.2171 20.2302 73.3212 20.6416 73.0902 20.4533L73.0739 20.408C73.1065 20.9727 72.6802 20.1919 72.6965 20.7357C72.6965 20.6694 72.651 20.6451 72.6347 20.5963C72.5794 20.6834 72.5046 20.7496 72.6477 21.1192C72.5891 21.1401 72.5566 21.025 72.4915 20.8856C72.5566 21.0459 72.5306 21.1365 72.4915 21.1644V21.0947L72.3809 21.2063L72.5241 21.4991C72.4232 21.4433 72.3614 21.1366 72.3256 21.2412L72.4232 21.4921C72.3093 21.4852 72.1076 21.1296 71.9449 20.9832C71.5285 21.0425 71.3658 21.8651 70.8453 21.5723L70.7574 21.3875C70.6468 21.1121 70.816 21.8407 70.7053 21.5897L70.7119 21.7326C70.6826 21.6873 70.637 21.6455 70.6338 21.5758C70.5915 21.5828 70.6077 21.6281 70.611 21.7222L70.5069 21.5688C70.3084 21.4991 70.3052 21.886 70.1197 21.886C69.8009 21.6141 69.5634 22.0882 69.4267 22.3636C69.2868 22.9004 68.5483 21.9313 68.4246 22.5309C68.4019 22.4961 68.4084 22.5937 68.4181 22.6251L68.1318 22.6982C68.1318 22.6982 66.7653 23.1305 68.5971 25.0373L68.6101 25.1001C68.815 25.1872 68.9224 25.1802 68.9159 24.8316C69.0656 25.2011 69.0526 24.8212 69.1339 24.9258L69.1404 24.9571C69.1306 24.6294 69.417 25.1175 69.4137 24.8247C69.4202 24.856 69.456 24.9606 69.4365 24.9746C69.4853 24.9014 69.5438 24.7794 69.6252 24.9955C69.7586 24.8735 70.0123 24.8839 69.9831 24.497L69.9993 24.5598C69.97 24.3018 70.0611 24.4935 70.0807 24.3471C70.0937 24.375 70.1034 24.3854 70.1067 24.3994C70.0839 24.1414 70.2726 24.2879 70.2856 24.1693L70.3409 24.3122L70.4516 24.2286L70.393 24.2181C70.2629 23.8137 70.5785 24.4273 70.572 24.1344C70.6728 24.1484 70.4353 23.2386 70.5915 23.3954C70.5622 23.1932 70.6663 23.7127 70.6761 23.5453C70.7542 23.751 70.6956 23.6883 70.7737 23.8451C70.7964 23.7231 70.9494 24.0159 70.9721 23.8451L71.034 24.0055C71.0209 23.6708 71.2942 24.1379 71.2552 23.8312C71.304 23.6569 71.5025 24.2809 71.4862 23.9218L71.6098 24.1205C71.6684 24.138 71.5415 23.8416 71.6294 23.9253C71.6782 24.0647 71.7335 24.009 71.753 24.1519C71.9449 24.3192 71.8636 23.751 72.1499 24.0473C72.0816 23.7684 72.215 23.8939 72.1629 23.6813C72.2117 23.7963 72.3191 23.636 72.3321 23.9218C72.3321 23.9462 72.3191 23.9462 72.3028 23.9009L72.3516 24.0613C72.5501 24.3227 72.4427 23.8312 72.5403 23.8416C72.4948 23.7998 72.4688 23.8277 72.4493 23.7092L72.5338 23.6952L72.5696 23.8347L72.7128 23.8626L72.6347 23.7057C72.7226 23.7649 72.8494 24.0369 72.8234 23.7754C72.8006 23.6325 72.6835 23.5767 72.7258 23.5C72.8429 23.5802 73.0219 23.6987 73.1357 23.7022C73.0544 23.5209 73.0837 23.5175 73.0967 23.4687L73.1618 23.629C73.178 23.3606 73.3375 23.9636 73.3668 23.744L73.4025 23.8591L73.2984 23.514C73.2659 23.1549 73.4774 23.8242 73.409 23.3466C73.3797 23.3919 73.2529 23.0015 73.3277 23.0503L73.3765 23.2107C73.3895 23.1654 73.3765 23.0957 73.4058 23.1201C73.4221 23.2107 73.4871 23.3501 73.5164 23.3048L73.5652 23.5105L73.5294 23.1933C73.6531 23.3327 73.6628 23.0817 73.7734 23.2909C73.7734 23.2909 73.9426 23.3397 73.8743 23.0887C73.9068 23.249 73.9979 23.2734 74.05 23.4547C74.0175 23.2734 74.0565 23.0922 74.1671 23.2525V23.2769C74.3818 23.392 74.3103 22.9144 74.5282 23.0782C74.4469 22.897 74.5543 22.9667 74.4437 22.7366C74.4795 22.4438 74.8796 23.1061 74.6291 22.3531C74.6714 22.2869 74.769 22.4926 74.8146 22.5135V22.5588C74.9024 22.4473 74.9317 22.4229 75.0228 22.402C75.0358 22.3113 74.9024 21.9697 75.0098 22.0185C75.0423 22.1649 75.0618 22.1266 75.0879 22.1126C75.0781 22.1405 75.0944 22.1928 75.1659 22.266C75.1529 22.2207 75.1497 22.1928 75.1497 22.1684C75.1529 22.1788 75.1594 22.1858 75.1659 22.1998C75.192 22.1301 75.1659 22.0917 75.1367 22.0847C75.1301 22.0638 75.1172 22.0394 75.0944 22.0045C75.2148 22.1544 75.2245 21.9279 75.3254 22.158C75.4425 22.0394 75.4425 21.7536 75.5206 21.6071C75.5824 21.7187 75.6019 21.8373 75.5856 21.9L75.6507 21.8163C75.7223 21.9871 75.6442 21.9383 75.6345 21.9837C75.8492 22.2137 75.719 21.6107 75.9403 21.8094L75.9078 21.6629L75.924 21.6804C75.8947 21.6107 75.8785 21.4991 75.885 21.4677C75.9631 21.6072 76.0281 21.8093 76.0802 21.7745C76.1843 21.8965 76.1778 21.642 76.2006 21.534C76.1583 21.5235 76.1323 21.4364 76.1257 21.3771C76.1518 21.3597 76.2299 21.4991 76.2266 21.4224L76.3145 21.6211C76.2234 21.4398 76.3014 21.3806 76.2754 21.2934C76.3535 21.4329 76.2852 21.4433 76.3275 21.5583C76.4316 21.4851 76.3795 21.52 76.4836 21.4468C76.4804 21.2655 76.3925 21.2621 76.3437 21.0738C76.3795 21.0076 76.373 20.8438 76.4836 20.9344L76.3893 20.7671C76.4283 20.5823 76.4967 20.5718 76.6398 20.7148C76.6951 19.8119 76.5129 19.303 76.3242 19.0171C76.1355 18.7313 75.9338 18.672 75.9338 18.672C75.4815 18.4245 75.5596 19.0101 75.2766 19.3169L75.2798 19.3064Z" fill="#20BB65"/>
<path d="M60.7754 27.9906L60.7262 27.9238C60.7393 27.9589 60.7525 27.9871 60.7754 27.9906Z" fill="#20BB65"/>
<path d="M60.3034 25.508C59.9586 25.5324 59.7601 25.2047 59.477 25.4696C59.3111 25.4975 59.1712 25.6404 59.0313 25.7415C59.0476 26.0482 58.8328 25.8182 58.8198 26.0831L58.7352 25.9367C58.732 26.0273 58.7124 26.0936 58.6571 26.0204L58.6441 25.9751C58.6376 26.111 58.566 26.0587 58.5628 26.125L58.5498 26.0797L58.5042 26.1215L58.4912 26.0517C58.4554 26.2086 58.3773 26.2435 58.2895 26.2121L58.3578 26.4003C58.1398 26.24 58.2114 26.6583 57.9967 26.4526L57.9837 26.4073C57.9739 26.9755 57.603 26.1633 57.5802 26.7071C57.5802 26.6409 57.5379 26.613 57.5249 26.5642C57.4598 26.6479 57.385 26.7106 57.5021 27.0871C57.4403 27.1045 57.4175 26.986 57.3622 26.843C57.4143 27.0069 57.385 27.0941 57.3427 27.1219V27.0487L57.2288 27.1533L57.3557 27.4531C57.2581 27.3903 57.2158 27.0801 57.1735 27.1812L57.2581 27.4391C57.1442 27.4252 56.962 27.0557 56.8091 26.8988C56.3829 26.9337 56.1747 27.7424 55.6671 27.4217L55.5891 27.2335C55.4914 26.9546 55.6216 27.6902 55.524 27.4322V27.5786C55.4947 27.5333 55.4524 27.488 55.4524 27.4147C55.4101 27.4147 55.4231 27.4636 55.4231 27.5612L55.3255 27.4008C55.1271 27.3206 55.1043 27.7075 54.9221 27.7006C54.613 27.4147 54.3527 27.8784 54.203 28.1468C54.0404 28.6766 53.3376 27.6797 53.1879 28.2758C53.1652 28.2409 53.1684 28.3385 53.1782 28.3699L52.8886 28.4327C52.8886 28.4327 51.5059 28.8196 53.2823 30.7857L53.2953 30.8484C53.4938 30.9425 53.6011 30.939 53.6076 30.5904C53.7475 30.9634 53.7443 30.5835 53.8191 30.695L53.8256 30.7264C53.8256 30.3987 54.0957 30.9007 54.0989 30.6044C54.1054 30.6358 54.138 30.7403 54.1185 30.7543C54.1673 30.681 54.2291 30.566 54.3072 30.7857C54.4438 30.6706 54.6943 30.6915 54.6813 30.3046L54.6943 30.3673C54.6748 30.1094 54.7561 30.3046 54.7822 30.1617C54.7952 30.1896 54.8049 30.2035 54.8082 30.214C54.7952 29.956 54.9774 30.1094 54.9937 29.9909L55.0425 30.1373L55.1531 30.0571L55.0978 30.0432C54.9839 29.6318 55.2735 30.2627 55.2767 29.9664C55.3776 29.9873 55.1791 29.0636 55.3288 29.2309C55.3093 29.0252 55.3906 29.5516 55.4069 29.3843C55.4752 29.5935 55.4199 29.5272 55.4915 29.6876C55.5207 29.5656 55.6606 29.8654 55.6899 29.6946L55.7452 29.8584C55.7452 29.5237 55.999 30.0048 55.973 29.698C56.0315 29.5272 56.1975 30.1616 56.1975 29.7991L56.3081 30.0048C56.3634 30.0257 56.2528 29.7224 56.3374 29.8096C56.3797 29.949 56.435 29.8967 56.448 30.0432C56.6302 30.2209 56.5781 29.6492 56.8449 29.963C56.7896 29.6806 56.9165 29.8131 56.8742 29.6004C56.9165 29.719 57.0304 29.5656 57.0271 29.8514C57.0271 29.8758 57.0141 29.8758 56.9978 29.8305L57.0401 29.9943C57.2223 30.2662 57.141 29.7713 57.2386 29.7852C57.1963 29.7399 57.167 29.7678 57.154 29.6492L57.2386 29.6423L57.2646 29.7852L57.4045 29.82L57.3362 29.6562C57.4208 29.7225 57.5314 30.0013 57.5184 29.7364C57.5054 29.5935 57.3915 29.5307 57.4338 29.454C57.5477 29.5412 57.7169 29.6702 57.8275 29.6876C57.7592 29.5028 57.7852 29.4993 57.8015 29.4505L57.8568 29.6144C57.886 29.3495 58.0097 29.963 58.0552 29.7434L58.0845 29.8619L57.9999 29.5098C57.9869 29.1507 58.1593 29.8305 58.1203 29.3495C58.0878 29.3913 57.9836 28.9939 58.0585 29.0462L58.0975 29.21C58.1138 29.1647 58.1008 29.095 58.1301 29.1229C58.1398 29.2135 58.1951 29.3564 58.2277 29.3146L58.2635 29.5238L58.2472 29.203C58.3611 29.3529 58.3871 29.1019 58.4815 29.3181C58.4815 29.3181 58.6441 29.3808 58.5953 29.1264C58.6181 29.2867 58.7059 29.3216 58.745 29.5063C58.7222 29.3216 58.7743 29.1438 58.8719 29.3146V29.339C59.0736 29.4749 59.0345 28.9904 59.2363 29.1717C59.1679 28.9834 59.272 29.0636 59.1744 28.8231C59.2297 28.5337 59.5779 29.2274 59.3827 28.457C59.4315 28.3943 59.5128 28.6069 59.5551 28.6348V28.6801C59.6462 28.5756 59.6787 28.5581 59.7698 28.5442C59.7894 28.457 59.682 28.1015 59.7861 28.1607C59.8056 28.3072 59.8284 28.2723 59.8577 28.2618C59.8479 28.2897 59.8577 28.342 59.926 28.4222C59.9162 28.3769 59.9163 28.349 59.9163 28.3246C59.9195 28.335 59.9228 28.342 59.9293 28.3594C59.9618 28.2932 59.939 28.2514 59.9097 28.2409C59.9032 28.22 59.8935 28.1921 59.874 28.1573C59.9813 28.3176 60.0073 28.0945 60.0887 28.3315C60.2123 28.2235 60.2351 27.9411 60.3262 27.8052C60.3783 27.9237 60.3848 28.0422 60.3685 28.1015L60.4368 28.0248C60.4921 28.2026 60.4206 28.1433 60.4075 28.1886C60.5995 28.4361 60.5214 27.8261 60.7231 28.0457L60.7036 27.8958L60.7166 27.9167C60.6939 27.8435 60.6874 27.732 60.6971 27.7041C60.7622 27.8505 60.811 28.0596 60.8663 28.0283C60.9606 28.1607 60.9736 27.9063 61.0062 27.8017C60.9639 27.7877 60.9476 27.6971 60.9444 27.6379C60.9704 27.6204 61.0387 27.7703 61.0387 27.6936L61.107 27.8993C61.0322 27.7076 61.1136 27.6587 61.0973 27.5716C61.1624 27.718 61.0973 27.7215 61.1233 27.84C61.2339 27.7773 61.1786 27.8086 61.2892 27.7459C61.3023 27.5681 61.2144 27.5542 61.1851 27.359C61.2274 27.2997 61.2339 27.1324 61.338 27.237L61.26 27.0592C61.3185 26.8779 61.3868 26.8779 61.5137 27.0383C61.8 25.2535 61.0192 24.9258 61.0192 24.9258C60.5865 24.6295 60.6028 25.2221 60.2904 25.501L60.3034 25.508Z" fill="#20BB65"/>
<path d="M45.507 33.7389L45.4578 33.6721C45.4709 33.7072 45.4873 33.7354 45.507 33.7389Z" fill="#20BB65"/>
<path d="M44.9598 31.2736C44.6117 31.3085 44.4035 30.9913 44.1269 31.2667C43.961 31.3016 43.8243 31.4514 43.6877 31.5595C43.7137 31.8628 43.4892 31.6467 43.486 31.9116L43.3949 31.7687C43.3949 31.8593 43.3786 31.929 43.32 31.8558L43.307 31.8105C43.307 31.9464 43.2322 31.8977 43.2322 31.9639L43.2159 31.9186L43.1704 31.9604L43.1574 31.8907C43.1248 32.0475 43.05 32.0894 42.9589 32.0615L43.0337 32.2462C42.8092 32.0998 42.8971 32.5111 42.6726 32.3194L42.6563 32.2741C42.6726 32.8424 42.2626 32.051 42.2626 32.5948C42.2626 32.5286 42.2171 32.5007 42.2008 32.4554C42.139 32.5425 42.0642 32.6088 42.2008 32.9783C42.139 32.9992 42.1097 32.8842 42.0479 32.7447C42.1097 32.9051 42.0837 32.9957 42.0414 33.0236V32.9504L41.9308 33.0619L42.0707 33.3548C41.9698 33.2955 41.9113 32.9922 41.8755 33.0933L41.9731 33.3443C41.8592 33.3373 41.6575 32.9783 41.4948 32.8319C41.0653 32.8946 40.9027 33.7173 40.3723 33.4349L40.2813 33.2537C40.1674 32.9818 40.3431 33.7068 40.2292 33.4558L40.2357 33.6023C40.2032 33.5569 40.1576 33.5151 40.1544 33.4454C40.1121 33.4524 40.1283 33.4977 40.1348 33.5953L40.0275 33.4419C39.8225 33.3792 39.8257 33.7661 39.6403 33.7731C39.3084 33.5116 39.0774 33.9996 38.9473 34.282C38.8269 34.8258 38.0363 33.902 37.9354 34.5086C37.9094 34.4737 37.9224 34.5748 37.9354 34.6062L37.6491 34.7003C37.6491 34.7003 37.3075 34.8363 37.2164 35.1919C37.1221 35.5474 37.2847 36.1191 38.2575 37.001L38.2771 37.0638C38.482 37.137 38.5861 37.1231 38.5601 36.7779C38.7326 37.137 38.6935 36.757 38.7781 36.8581L38.7879 36.8895C38.7586 36.5653 39.0677 37.0359 39.0482 36.7431C39.0579 36.7745 39.097 36.8756 39.0807 36.8895C39.123 36.8128 39.175 36.6908 39.2694 36.9034C39.393 36.7779 39.6403 36.7745 39.598 36.391L39.6143 36.4538C39.5752 36.1993 39.6696 36.3875 39.6826 36.2411C39.6989 36.269 39.7086 36.2794 39.7119 36.2934C39.6793 36.0389 39.8713 36.1749 39.8778 36.0564L39.9396 36.1958L40.0437 36.1087L39.9884 36.0982C39.8453 35.7008 40.1771 36.3004 40.1609 36.0076C40.2617 36.0215 39.9949 35.1187 40.1609 35.272C40.1283 35.0699 40.2455 35.5857 40.2487 35.4184C40.3333 35.6206 40.2715 35.5579 40.3528 35.7148C40.3723 35.5893 40.5318 35.8786 40.548 35.7078L40.6131 35.8646C40.5903 35.53 40.8734 35.9936 40.8278 35.6868C40.8734 35.5091 41.0816 36.1296 41.0588 35.774L41.1825 35.9727C41.241 35.9867 41.1076 35.6938 41.1987 35.7775C41.2508 35.9134 41.3029 35.8577 41.3256 36.0006C41.5176 36.1644 41.4297 35.5997 41.7128 35.896C41.6412 35.6171 41.7746 35.7426 41.7193 35.5335C41.7681 35.6485 41.8722 35.4881 41.8885 35.774C41.8885 35.7984 41.8755 35.7984 41.8592 35.7531L41.9113 35.9134C42.1065 36.1749 41.9959 35.6834 42.0967 35.6938C42.0512 35.652 42.0251 35.6799 42.0056 35.5614L42.0902 35.5509L42.126 35.6903L42.2692 35.7182L42.1911 35.5614C42.2789 35.6206 42.4058 35.8925 42.3765 35.6311C42.3538 35.4881 42.2399 35.4324 42.2789 35.3557C42.396 35.4359 42.5685 35.5579 42.6823 35.5648C42.6043 35.3836 42.6303 35.3801 42.6433 35.3313L42.7084 35.4917C42.7246 35.2232 42.8776 35.8298 42.9101 35.6102L42.9426 35.7252L42.8418 35.3766C42.8093 35.0175 43.0142 35.6903 42.9524 35.2093C42.9231 35.2546 42.7995 34.8607 42.8743 34.913L42.9199 35.0733C42.9329 35.028 42.9199 34.9618 42.9491 34.9862C42.9654 35.0768 43.0272 35.2163 43.0565 35.1709L43.1021 35.3766L43.0695 35.0594C43.1899 35.2023 43.2029 34.9513 43.307 35.1605C43.307 35.1605 43.4697 35.2163 43.4079 34.9618C43.4372 35.1221 43.5283 35.15 43.5738 35.3348C43.5413 35.1535 43.5868 34.9722 43.691 35.1361V35.1605C43.8992 35.286 43.8374 34.8084 44.0456 34.9757C43.9707 34.791 44.0749 34.8642 43.9708 34.6306C44.0163 34.3378 44.3872 35.0176 44.1627 34.2576C44.2083 34.1914 44.2961 34.4005 44.3417 34.4284V34.4737C44.4328 34.3657 44.462 34.3448 44.5499 34.3273C44.5662 34.2367 44.4458 33.8916 44.5499 33.9439C44.5759 34.0903 44.5954 34.052 44.6247 34.0415C44.615 34.0694 44.6247 34.1217 44.6963 34.1983C44.6865 34.153 44.6833 34.1252 44.6833 34.1008C44.6865 34.1112 44.693 34.1182 44.6963 34.1356C44.7256 34.0694 44.7028 34.0276 44.6735 34.0171C44.667 33.9962 44.654 33.9683 44.6345 33.9334C44.7451 34.0903 44.7646 33.8672 44.8557 34.1008C44.9761 33.9892 44.9891 33.7034 45.0704 33.5639C45.1258 33.679 45.1388 33.7975 45.1225 33.8602L45.1908 33.7835C45.2526 33.9578 45.1778 33.9021 45.1648 33.9474C45.3633 34.1914 45.2657 33.5814 45.4739 33.794L45.4479 33.6476L45.4641 33.6685C45.4381 33.5953 45.4283 33.4872 45.4381 33.4558C45.5097 33.6022 45.5617 33.8079 45.6138 33.7731C45.7114 33.9021 45.7147 33.6476 45.7472 33.543C45.7049 33.529 45.6854 33.4419 45.6821 33.3826C45.7081 33.3652 45.7797 33.5116 45.7765 33.4384L45.8513 33.6441C45.7732 33.4559 45.8513 33.4036 45.8318 33.3164C45.9001 33.4628 45.8318 33.4663 45.8676 33.5814C45.9749 33.5151 45.9229 33.55 46.0302 33.4838C46.0368 33.3025 45.9522 33.2955 45.9164 33.1003C45.9554 33.0376 45.9587 32.8737 46.0628 32.9713L45.9782 32.797C46.0302 32.6158 46.0986 32.6123 46.232 32.7691C46.476 30.9774 45.6854 30.6706 45.6854 30.6706C45.2429 30.3882 45.2722 30.9809 44.9631 31.2702L44.9598 31.2736Z" fill="#20BB65"/>
<path d="M31.0744 41.101L31.0121 41.0483C31.0318 41.0799 31.0515 41.1045 31.0744 41.101Z" fill="#20BB65"/>
<path d="M26.2195 45.1234C26.2195 45.1234 26.2231 45.1343 26.2268 45.1416C26.2268 45.1343 26.2231 45.1271 26.2195 45.1234Z" fill="#20BB65"/>
<path d="M28.8588 39.393C28.8588 39.393 28.8588 39.3787 28.8517 39.3716V39.393H28.8588Z" fill="#20BB65"/>
<path d="M30.075 38.8069C29.7334 38.9185 29.4666 38.6605 29.2421 38.9951C29.0827 39.0718 28.9753 39.2531 28.8582 39.3925C28.9461 39.6854 28.676 39.5285 28.7313 39.79L28.6142 39.6749C28.6305 39.7656 28.6305 39.8353 28.5556 39.7795L28.5329 39.7377C28.5589 39.8701 28.4743 39.8422 28.4906 39.9085L28.4678 39.8666L28.432 39.9189L28.4027 39.8562C28.4027 40.0166 28.3377 40.0758 28.2433 40.0758L28.3572 40.2362C28.1034 40.1525 28.2791 40.5325 28.0156 40.407L27.9895 40.3651C28.1294 40.9124 27.5503 40.2571 27.6739 40.7869C27.6577 40.7207 27.6089 40.7102 27.5828 40.6684C27.5438 40.773 27.4852 40.8566 27.7065 41.1773C27.6512 41.2122 27.5958 41.1111 27.5015 40.9926C27.5991 41.132 27.5958 41.2261 27.5601 41.2645L27.5405 41.1948L27.4592 41.3342L27.6674 41.5782C27.5536 41.5503 27.4267 41.2715 27.4136 41.383L27.5698 41.5992C27.456 41.6236 27.1729 41.3377 26.9777 41.2436C26.5677 41.4353 26.6198 42.2824 26.0341 42.1813L25.8975 42.0349C25.7121 41.8118 26.0764 42.4497 25.8975 42.2475L25.9431 42.3835C25.9008 42.3521 25.8455 42.3277 25.8227 42.2615C25.7836 42.2824 25.8129 42.3207 25.8422 42.4114L25.6958 42.3033C25.4778 42.3138 25.5884 42.6833 25.4095 42.753C25.0158 42.624 24.9247 43.1713 24.8889 43.492C24.941 44.0498 23.8966 43.4781 23.9877 44.0986C23.9519 44.0776 23.9942 44.1648 24.0169 44.1892L23.7729 44.3949C23.7729 44.3949 23.4931 44.6633 23.5289 45.0363C23.5582 45.4128 23.9259 45.859 25.1264 46.2982L25.1655 46.347C25.3769 46.3366 25.468 46.2877 25.3216 45.9775C25.6014 46.2459 25.4388 45.9112 25.5494 45.974L25.5689 45.9984C25.4322 45.7091 25.8715 46.0298 25.7576 45.7683C25.7771 45.7927 25.8454 45.8729 25.8357 45.8938C25.8487 45.8102 25.8552 45.6777 26.0114 45.8415C26.0829 45.6812 26.3075 45.594 26.1448 45.2524L26.1806 45.3047C26.0602 45.0781 26.2098 45.2245 26.1773 45.0816C26.2001 45.1025 26.2131 45.1095 26.2196 45.12C26.109 44.8934 26.3302 44.9561 26.3009 44.8411L26.4018 44.9526L26.4734 44.8341L26.4181 44.8446C26.161 44.5169 26.6588 44.9735 26.5515 44.7051C26.6491 44.6842 26.1285 43.9173 26.327 44.0079C26.2359 43.8267 26.4994 44.2798 26.4539 44.116C26.5938 44.2798 26.5189 44.2415 26.6393 44.3635C26.6198 44.238 26.8573 44.4611 26.8215 44.2938L26.9289 44.4228C26.8117 44.1125 27.2119 44.4646 27.0785 44.1892C27.072 44.0079 27.4429 44.5343 27.3193 44.1997L27.4917 44.3495C27.5503 44.3495 27.3453 44.109 27.4527 44.1578C27.5405 44.2729 27.5731 44.2032 27.6349 44.3321C27.8594 44.4332 27.6186 43.9208 27.9667 44.1195C27.8236 43.8755 27.983 43.9557 27.8757 43.7709C27.9537 43.865 28.0058 43.6838 28.1002 43.9522C28.1067 43.9731 28.0936 43.9801 28.0676 43.9417L28.1587 44.0812C28.4125 44.2764 28.1782 43.8406 28.2726 43.8197C28.2205 43.7918 28.201 43.8267 28.1522 43.7186L28.227 43.6838L28.2986 43.8058L28.4385 43.7918L28.3246 43.6628C28.4223 43.6942 28.6109 43.9208 28.5166 43.6803C28.458 43.5513 28.3344 43.5269 28.3507 43.4432C28.4808 43.4885 28.6793 43.5582 28.7866 43.5338C28.6663 43.3805 28.6923 43.37 28.689 43.3177L28.7899 43.4537C28.7378 43.1922 29.0372 43.7326 29.0079 43.5129L29.0697 43.614L28.8875 43.3072C28.7671 42.9726 29.1283 43.5617 28.9493 43.119C28.9331 43.1678 28.7183 42.8262 28.8029 42.8541L28.8875 42.997C28.8875 42.9517 28.8582 42.889 28.894 42.9029C28.9298 42.9866 29.0241 43.1051 29.0404 43.0563L29.1348 43.241L29.0241 42.9447C29.1738 43.0493 29.125 42.8088 29.2747 42.9831C29.2747 42.9831 29.4406 42.9935 29.3235 42.767C29.3918 42.9134 29.4829 42.9168 29.5707 43.0841C29.4992 42.9168 29.4959 42.7321 29.6358 42.868L29.6423 42.8889C29.8701 42.9587 29.7009 42.5125 29.9351 42.6275C29.8213 42.4672 29.9351 42.5125 29.7855 42.3138C29.7627 42.0209 30.2703 42.5926 29.8863 41.9059C29.9156 41.8327 30.0458 42.014 30.0946 42.0279L30.1043 42.0733C30.1661 41.9478 30.1889 41.9199 30.2735 41.885C30.2703 41.7944 30.0816 41.4841 30.1922 41.512C30.2475 41.648 30.2605 41.6061 30.2833 41.5887C30.28 41.6201 30.3028 41.6689 30.3874 41.7247C30.3679 41.6828 30.3614 41.6549 30.3549 41.6305C30.3614 41.641 30.3679 41.6479 30.3744 41.6584C30.3874 41.5852 30.3581 41.5538 30.3288 41.5504C30.3191 41.5294 30.3028 41.5085 30.2735 41.4771C30.4134 41.6061 30.3841 41.383 30.5208 41.5887C30.6119 41.4528 30.5663 41.1739 30.6216 41.017C30.6997 41.1181 30.7355 41.2297 30.729 41.2924L30.7778 41.2018C30.8722 41.3586 30.7908 41.3203 30.7876 41.3691C31.0283 41.5608 30.8136 40.9926 31.0544 41.153L31.0023 41.0135L31.0218 41.031C30.9828 40.9647 30.9502 40.8601 30.9535 40.8288C31.0511 40.9542 31.1422 41.146 31.1878 41.1007C31.3049 41.2052 31.2626 40.9577 31.2724 40.8462C31.2301 40.8427 31.1943 40.759 31.178 40.7033C31.2008 40.6823 31.2951 40.8078 31.2821 40.7381L31.3927 40.9229C31.2789 40.7556 31.3472 40.6893 31.3146 40.6056C31.409 40.7346 31.3439 40.752 31.3992 40.8601C31.4903 40.773 31.4448 40.8183 31.5359 40.7311C31.5099 40.5534 31.422 40.5604 31.3537 40.3791C31.3797 40.3094 31.3537 40.149 31.4741 40.2222L31.3602 40.0688C31.3797 39.8806 31.4448 39.8631 31.6042 39.9886C31.5619 39.0858 31.3439 38.5943 31.1292 38.3328C30.9112 38.0714 30.6997 38.04 30.6997 38.04C30.2084 37.8553 30.3353 38.4374 30.0815 38.7895L30.075 38.8069Z" fill="#20BB65"/>
<path d="M20.8162 53.3885L20.7377 53.3815C20.7704 53.3956 20.7998 53.4026 20.8162 53.3885Z" fill="#20BB65"/>
<path d="M18.6455 59.6318C18.6455 59.6318 18.6561 59.6393 18.6597 59.6431C18.6561 59.6355 18.6491 59.6318 18.6455 59.6318Z" fill="#20BB65"/>
<path d="M18.0864 53.2776C18.0864 53.2776 18.0761 53.2667 18.0693 53.263L18.083 53.2776H18.0864Z" fill="#20BB65"/>
<path d="M18.7885 52.0813C18.5672 52.3741 18.2093 52.3148 18.1995 52.7261C18.1052 52.8795 18.1117 53.0957 18.0857 53.2735C18.3102 53.4652 18.0043 53.4896 18.1833 53.6778L18.0271 53.6499C18.0889 53.7127 18.1247 53.7719 18.0336 53.7719L17.9913 53.751C18.0824 53.8452 17.9978 53.8695 18.0434 53.9183L18.0011 53.8974V53.9637L17.9425 53.9288C18.0271 54.0613 18.0011 54.1519 17.9197 54.2007L18.0987 54.2704C17.8417 54.3471 18.1833 54.5597 17.897 54.6051L17.8547 54.5842C18.2516 54.9641 17.4317 54.741 17.8026 55.1175C17.7571 55.0722 17.7083 55.0896 17.666 55.0687C17.6855 55.1767 17.679 55.2813 18.0239 55.4243C17.9978 55.487 17.897 55.4312 17.7603 55.3859C17.9132 55.4487 17.9555 55.5289 17.9458 55.5811L17.8937 55.5358V55.6997L18.1898 55.7868C18.0824 55.8286 17.8319 55.6648 17.8774 55.7624L18.115 55.8565C18.0304 55.9402 17.6497 55.8565 17.4382 55.8879C17.1877 56.2714 17.6465 56.9616 17.0934 57.1951L16.9079 57.1463C16.6411 57.0557 17.2625 57.4008 17.012 57.3241L17.1161 57.4147C17.0641 57.4113 17.0055 57.4182 16.9535 57.3729C16.9307 57.4113 16.973 57.4287 17.0413 57.4879L16.8623 57.474C16.6801 57.596 16.9535 57.854 16.8331 58.0073C16.4329 58.1015 16.6151 58.6139 16.729 58.9067C17.0283 59.3634 15.8603 59.3947 16.2181 59.8828C16.1759 59.8828 16.2539 59.9385 16.2865 59.9455L16.1628 60.2418C16.1628 60.2418 16.0359 60.6078 16.2279 60.9181C16.4166 61.2283 16.9274 61.4619 18.1865 61.2527L18.2418 61.2771C18.4273 61.1586 18.4859 61.068 18.2223 60.8623C18.5867 60.9564 18.2971 60.7403 18.424 60.7403L18.4533 60.7543C18.2028 60.566 18.7396 60.6253 18.5184 60.451C18.5444 60.4649 18.6453 60.4963 18.642 60.5207C18.616 60.437 18.5639 60.315 18.7754 60.3812C18.7689 60.2 18.9283 60.0013 18.629 59.7852L18.6843 59.8131C18.4794 59.6771 18.6746 59.7224 18.5802 59.6178C18.6095 59.6248 18.6225 59.6248 18.6355 59.6283C18.4338 59.4854 18.6583 59.4261 18.5802 59.3389L18.7201 59.3843L18.7266 59.2414L18.6811 59.2797C18.3069 59.1298 18.9479 59.2623 18.7331 59.0845C18.808 59.0148 18.0011 58.6243 18.2158 58.5964C18.0531 58.4884 18.4924 58.7394 18.3752 58.6244C18.5737 58.6941 18.4891 58.6975 18.6518 58.7394C18.577 58.6418 18.886 58.7045 18.7787 58.579L18.9316 58.6313C18.6843 58.4257 19.1951 58.5093 18.9511 58.3455C18.86 58.1921 19.4294 58.4431 19.1626 58.22L19.3838 58.2548C19.4326 58.22 19.1431 58.1259 19.2602 58.1119C19.3903 58.1642 19.3871 58.084 19.501 58.1607C19.7417 58.1189 19.2895 57.8121 19.6864 57.7877C19.4456 57.6587 19.6214 57.6378 19.4392 57.5402C19.5498 57.5786 19.5107 57.3903 19.719 57.5716C19.7352 57.5855 19.7287 57.5995 19.6864 57.5821L19.8328 57.6518C20.1452 57.6727 19.732 57.4322 19.8036 57.3625C19.745 57.3694 19.7482 57.4078 19.6506 57.345L19.6994 57.2718L19.8198 57.338L19.9337 57.2474L19.771 57.2021C19.8719 57.1742 20.1419 57.2579 19.9435 57.1045C19.8296 57.0243 19.7157 57.0766 19.6864 56.9964C19.8198 56.9581 20.0215 56.9058 20.1029 56.8221C19.9239 56.7629 19.9402 56.735 19.9142 56.6931L20.0671 56.7524C19.8947 56.5607 20.4152 56.8465 20.2851 56.6757L20.3859 56.728L20.0801 56.5711C19.8133 56.3515 20.412 56.6478 20.0411 56.3759C20.0508 56.4282 19.6994 56.2574 19.784 56.233L19.9239 56.3062C19.9044 56.2644 19.8458 56.2295 19.8816 56.2225C19.9532 56.2713 20.0899 56.3202 20.0801 56.2679L20.2525 56.3724L20.0118 56.1842C20.1907 56.1842 20.028 56.0099 20.2428 56.0691C20.2428 56.0691 20.3892 55.9785 20.1777 55.8565C20.3078 55.9402 20.3892 55.8914 20.5453 55.982C20.3989 55.8809 20.3078 55.7276 20.49 55.7589L20.5063 55.7728C20.7341 55.6996 20.3664 55.4173 20.6234 55.3754C20.4477 55.3057 20.5681 55.2778 20.3404 55.1977C20.1744 54.9641 20.887 55.1454 20.22 54.7933C20.207 54.7131 20.4087 54.7898 20.4575 54.7724L20.4868 54.8037C20.4738 54.6608 20.4803 54.626 20.5323 54.5458C20.4835 54.4726 20.1679 54.3227 20.2753 54.2809C20.3924 54.3645 20.3794 54.3192 20.3924 54.2913C20.4055 54.3192 20.4477 54.3471 20.5486 54.3436C20.5128 54.3192 20.49 54.3018 20.4738 54.2843C20.4835 54.2878 20.4933 54.2913 20.5063 54.2983C20.4803 54.2286 20.438 54.2216 20.412 54.2356C20.3924 54.2251 20.3664 54.2181 20.3306 54.2077C20.5128 54.2321 20.3762 54.0612 20.5942 54.1519C20.6007 53.9846 20.4185 53.7754 20.3827 53.6151C20.4998 53.6534 20.5877 53.7266 20.6169 53.7824L20.6104 53.6778C20.7698 53.751 20.682 53.7684 20.7048 53.8103C21.0041 53.8277 20.5323 53.4791 20.8187 53.4686L20.7015 53.385H20.7243C20.656 53.3571 20.5779 53.2874 20.5616 53.2595C20.708 53.3083 20.8805 53.4094 20.8967 53.3467C21.0497 53.3641 20.8837 53.1828 20.8349 53.0852C20.7991 53.1061 20.7243 53.0608 20.682 53.0224C20.6885 52.9911 20.8349 53.0399 20.7861 52.9876L20.9748 53.0747C20.7926 53.0015 20.8154 52.9074 20.7438 52.8586C20.8902 52.9074 20.8447 52.9632 20.9455 53.019C20.9781 52.89 20.9618 52.9562 20.9943 52.8272C20.8805 52.6948 20.8122 52.754 20.6592 52.646C20.6462 52.5728 20.5389 52.4543 20.6788 52.4438L20.5031 52.3845C20.4185 52.2172 20.464 52.1614 20.6625 52.1719C20.1549 51.4503 19.7157 51.1749 19.4001 51.0878C19.0813 51.0076 18.8925 51.1052 18.8925 51.1052C18.3915 51.2481 18.8015 51.6455 18.7754 52.0882L18.7885 52.0813Z" fill="#20BB65"/>
<path d="M16.5669 69.7654L16.4884 69.7829C16.5244 69.7864 16.5538 69.7829 16.5669 69.7654Z" fill="#20BB65"/>
<path d="M16.3711 76.3713C16.3711 76.3713 16.3813 76.3712 16.3881 76.3785C16.3813 76.3749 16.3745 76.3713 16.3711 76.3713Z" fill="#20BB65"/>
<path d="M13.9315 70.536C13.9315 70.536 13.9215 70.5289 13.9115 70.5253L13.9315 70.536Z" fill="#20BB65"/>
<path d="M14.2726 69.1554C14.1392 69.511 13.7813 69.5702 13.8854 69.9676C13.8399 70.1489 13.9049 70.3511 13.931 70.5324C14.1978 70.6439 13.9147 70.7659 14.1392 70.8879L13.9798 70.9123C14.0546 70.9542 14.1067 70.9995 14.0188 71.0274L13.9733 71.0204C14.0871 71.0831 14.0123 71.1354 14.0709 71.1633L14.0253 71.1563L14.0416 71.2191L13.9765 71.2017C14.0936 71.3027 14.0969 71.3934 14.0351 71.4701L14.2238 71.4771C14.0025 71.6374 14.3897 71.728 14.1294 71.8675H14.0839C14.5687 72.0906 13.726 72.1568 14.1913 72.3904C14.1327 72.3625 14.0937 72.3973 14.0481 72.3904C14.0969 72.488 14.1229 72.5891 14.4906 72.61C14.4841 72.6762 14.3735 72.6588 14.227 72.6623C14.3897 72.6692 14.4548 72.732 14.4613 72.7843L14.3995 72.7564L14.4483 72.9133L14.7574 72.8958C14.6663 72.9725 14.3832 72.9028 14.4548 72.983L14.7086 72.9934C14.6565 73.1015 14.2693 73.1538 14.0774 73.2584C13.9537 73.715 14.598 74.21 14.149 74.6283L13.957 74.6458C13.6772 74.6527 14.3702 74.7608 14.1099 74.7782L14.2368 74.827C14.188 74.841 14.1327 74.8688 14.0709 74.8479C14.0611 74.8932 14.1067 74.8933 14.1913 74.9281L14.0188 74.9769C13.8854 75.1582 14.2205 75.3081 14.1555 75.4963C13.8073 75.7334 14.1424 76.1552 14.3409 76.3887C14.7671 76.7094 13.6804 77.1731 14.1782 77.5008C14.1392 77.5147 14.2303 77.5391 14.2628 77.5356L14.2433 77.8633C14.2433 77.8633 14.2433 78.2607 14.5264 78.4768C14.8062 78.6964 15.3625 78.7173 16.4687 78.048H16.5306C16.6639 77.8702 16.69 77.7657 16.3776 77.6716C16.7518 77.6228 16.4069 77.5321 16.5273 77.4833H16.5566C16.2637 77.4031 16.7811 77.2567 16.5175 77.1765C16.5468 77.1765 16.6509 77.1766 16.6574 77.1975C16.6054 77.1278 16.5175 77.0371 16.7355 77.0162C16.6704 76.8489 16.7583 76.6083 16.4069 76.5142H16.4687C16.2312 76.4689 16.4297 76.441 16.3093 76.3748C16.3386 76.3713 16.3516 76.3643 16.3646 76.3643C16.1304 76.3051 16.3223 76.1656 16.2182 76.1133L16.3614 76.1029L16.3223 75.9669L16.293 76.0192C15.8928 76.0157 16.5403 75.9077 16.28 75.817C16.3288 75.7229 15.4471 75.6497 15.6391 75.5486C15.4504 75.5068 15.9417 75.5835 15.7985 75.5172C16.0067 75.5103 15.9286 75.5451 16.0946 75.5242C15.9937 75.458 16.3028 75.4092 16.1629 75.329L16.3256 75.322C16.0295 75.2175 16.537 75.1164 16.254 75.0466C16.1206 74.9351 16.7323 74.9664 16.4167 74.8549L16.6346 74.8096C16.6704 74.7608 16.3646 74.7747 16.472 74.7189C16.6086 74.7189 16.5826 74.6492 16.7128 74.6806C16.9275 74.5586 16.4069 74.4296 16.7713 74.2693C16.5045 74.2309 16.6639 74.1508 16.4622 74.1229C16.5793 74.1229 16.485 73.959 16.7355 74.0532C16.755 74.0601 16.7518 74.0741 16.7062 74.0741L16.8657 74.088C17.1682 74.0009 16.703 73.9172 16.7518 73.8266C16.6997 73.8545 16.7127 73.8893 16.6021 73.8614L16.6249 73.7778L16.7583 73.7987L16.8396 73.6732L16.6737 73.6871C16.7583 73.6279 17.0414 73.6139 16.8071 73.5373C16.677 73.5024 16.5826 73.5895 16.5306 73.5233C16.6477 73.4431 16.8201 73.3246 16.8722 73.22C16.6867 73.22 16.6932 73.1956 16.6574 73.1642H16.8201C16.5989 73.0457 17.178 73.1398 17.0023 73.0213L17.1162 73.0353L16.7778 72.9934C16.459 72.8784 17.1162 72.9551 16.6835 72.8226C16.7095 72.8679 16.3256 72.8261 16.3971 72.7773L16.5533 72.7982C16.5208 72.7669 16.4557 72.7529 16.4915 72.7355C16.5761 72.7564 16.7193 72.7564 16.6932 72.7111L16.8884 72.7494L16.6054 72.6518C16.7746 72.596 16.5696 72.481 16.7908 72.467C16.7908 72.467 16.9047 72.3346 16.6639 72.2893C16.8136 72.3276 16.8722 72.2544 17.0479 72.2858C16.8819 72.2405 16.7485 72.1254 16.9307 72.0941L16.9503 72.1045C17.1422 71.9616 16.7127 71.8187 16.947 71.6932C16.7583 71.6862 16.8657 71.62 16.6249 71.62C16.3972 71.4527 17.1324 71.3934 16.3939 71.2783C16.3581 71.2086 16.5728 71.2121 16.6151 71.1808L16.6542 71.2017C16.6021 71.0727 16.5989 71.0343 16.6216 70.9437C16.5533 70.8914 16.2117 70.8531 16.2995 70.7764C16.4329 70.8147 16.4102 70.7764 16.4134 70.7485C16.4329 70.7694 16.4817 70.7799 16.5793 70.7485C16.537 70.738 16.511 70.7276 16.4915 70.7171C16.5013 70.7171 16.511 70.7171 16.524 70.7171C16.4817 70.6613 16.4362 70.6648 16.4167 70.6892C16.3971 70.6892 16.3679 70.6857 16.3288 70.6892C16.511 70.6509 16.3288 70.5358 16.5663 70.5533C16.524 70.3929 16.293 70.2535 16.215 70.1106C16.3386 70.1106 16.4394 70.1524 16.485 70.1942L16.4492 70.0966C16.6217 70.1176 16.5436 70.1594 16.5761 70.1942C16.8689 70.114 16.3191 69.9363 16.5891 69.8352L16.4557 69.7933H16.4785C16.4069 69.7794 16.3093 69.741 16.2898 69.7166C16.4427 69.7166 16.6379 69.7585 16.6346 69.6957C16.7843 69.6644 16.5761 69.5424 16.5045 69.4657C16.4752 69.497 16.3939 69.4761 16.3418 69.4552C16.3418 69.4238 16.4948 69.4238 16.4297 69.389L16.6346 69.4134C16.4427 69.4029 16.4362 69.3018 16.3548 69.2809C16.5078 69.2809 16.4785 69.3471 16.5924 69.3715C16.5891 69.2391 16.5924 69.3053 16.5859 69.1763C16.4394 69.0892 16.3906 69.1624 16.2182 69.1066C16.1857 69.0404 16.049 68.9602 16.1792 68.9079H15.997C15.8701 68.772 15.8994 68.7057 16.0946 68.6535C15.4146 68.1201 14.92 67.9911 14.5947 68.0085C14.2693 68.0225 14.1132 68.1794 14.1132 68.1794C13.6707 68.4757 14.1717 68.7336 14.2661 69.1659L14.2726 69.1554Z" fill="#20BB65"/>
<path d="M17.9761 86.5223L17.9098 86.5719C17.9429 86.5613 17.9694 86.5436 17.9761 86.5223Z" fill="#20BB65"/>
<path d="M15.6455 86.9476C15.6585 87.331 15.3527 87.5402 15.5999 87.8644C15.6292 88.0491 15.7626 88.2095 15.857 88.3663C16.1433 88.3524 15.9318 88.5895 16.1823 88.6034L16.0489 88.694C16.1335 88.6975 16.1986 88.7184 16.1303 88.7812L16.088 88.7951C16.2148 88.8021 16.166 88.8823 16.2311 88.8857L16.1888 88.8997L16.2279 88.952L16.1628 88.9659C16.3092 89.0077 16.345 89.0914 16.319 89.189L16.4946 89.1123C16.3547 89.3563 16.7419 89.2692 16.5597 89.5097L16.5174 89.5237C17.0478 89.5237 16.3059 89.949 16.8167 89.9594C16.7517 89.9594 16.7289 90.0082 16.6866 90.0256C16.768 90.0919 16.8298 90.1755 17.1746 90.0291C17.1942 90.0954 17.0868 90.1267 16.9567 90.193C17.1063 90.1267 17.1909 90.1581 17.2202 90.1999H17.1519L17.256 90.3219L17.5293 90.1686C17.4772 90.2801 17.1909 90.3394 17.2853 90.3812L17.5195 90.2766C17.513 90.3986 17.1811 90.6182 17.0478 90.7995C17.1128 91.2701 17.8904 91.4339 17.6464 92.0161L17.4805 92.1172C17.23 92.2497 17.9002 92.0405 17.6724 92.1695L17.8091 92.1555C17.77 92.1904 17.731 92.2427 17.6659 92.2462C17.6757 92.2915 17.7147 92.2741 17.8058 92.2636L17.6692 92.3856C17.6204 92.6122 17.9815 92.5983 17.9978 92.797C17.7733 93.1665 18.2418 93.4035 18.5151 93.5255C19.0292 93.6266 18.2223 94.5364 18.8014 94.6097C18.7721 94.641 18.8632 94.6201 18.8925 94.6027L19.0031 94.9059C19.0031 94.9059 19.1593 95.265 19.5009 95.3347C19.8425 95.4079 20.3533 95.1778 21.0952 94.0693L21.1505 94.0449C21.2025 93.8218 21.183 93.7138 20.8641 93.7695C21.183 93.5604 20.8349 93.6301 20.926 93.5325L20.9553 93.5186C20.6559 93.5778 21.0724 93.2118 20.7991 93.2571C20.8284 93.2467 20.9195 93.1944 20.9325 93.2118C20.8609 93.1734 20.7438 93.1281 20.9325 93.0131C20.8088 92.8911 20.7926 92.6331 20.4379 92.7063L20.4933 92.6819C20.259 92.7412 20.4282 92.6262 20.2915 92.6227C20.3143 92.6053 20.3273 92.5948 20.3371 92.5878C20.1028 92.6401 20.22 92.4275 20.1093 92.4275L20.2362 92.3543L20.1484 92.2497L20.1419 92.3089C19.7775 92.4832 20.3208 92.0963 20.0508 92.1312C20.0573 92.0266 19.2309 92.3543 19.3643 92.173C19.1788 92.2183 19.6538 92.0684 19.4977 92.0719C19.6831 91.9743 19.6278 92.0405 19.771 91.9464C19.6538 91.9325 19.9174 91.7477 19.7547 91.7372L19.8979 91.6606C19.5888 91.6989 20.0085 91.3782 19.7254 91.4444C19.5595 91.4026 20.1321 91.1586 19.797 91.1969L19.9792 91.0575C19.9922 90.9982 19.7222 91.1446 19.797 91.0505C19.9239 90.9913 19.8686 90.939 20.002 90.9076C20.1516 90.6984 19.6278 90.8135 19.8979 90.5067C19.6408 90.5904 19.7547 90.4474 19.5595 90.5102C19.6636 90.4544 19.5139 90.3498 19.7807 90.3254C19.8035 90.3254 19.8035 90.3394 19.7612 90.3568L19.9109 90.2976C20.1516 90.0849 19.6961 90.2139 19.7059 90.1093C19.6668 90.1581 19.6929 90.1825 19.5855 90.2069L19.5725 90.1198L19.7027 90.0779L19.7287 89.928L19.5823 90.0152C19.6376 89.9211 19.8881 89.7851 19.6473 89.82C19.5139 89.8444 19.4651 89.9664 19.3903 89.928C19.4619 89.806 19.5757 89.6178 19.5855 89.5028C19.4163 89.5899 19.4131 89.5585 19.3675 89.5481L19.5172 89.4784C19.2699 89.4679 19.8328 89.2971 19.6278 89.2657L19.7352 89.2308L19.4098 89.3389C19.078 89.3738 19.7026 89.1541 19.2569 89.2274C19.2992 89.2587 18.9316 89.3912 18.9804 89.3111L19.13 89.2622C19.0877 89.2483 19.0259 89.2622 19.0487 89.2308C19.1333 89.2134 19.2634 89.1507 19.2244 89.1193L19.4163 89.0705L19.1203 89.1054C19.2537 88.9799 19.0226 88.9659 19.2211 88.8544C19.2211 88.8544 19.2732 88.6836 19.0389 88.7463C19.1886 88.715 19.2146 88.6208 19.387 88.572C19.2146 88.6034 19.0519 88.5581 19.2081 88.45H19.2309C19.3545 88.2339 18.9055 88.2931 19.0715 88.077C18.8958 88.1537 18.9673 88.0456 18.7493 88.1502C18.4793 88.0979 19.1268 87.7214 18.4077 87.9411C18.3492 87.8923 18.5476 87.8051 18.5737 87.7563H18.616C18.5184 87.6622 18.5021 87.6273 18.4891 87.5367C18.4045 87.5193 18.0791 87.6308 18.1312 87.5228C18.2678 87.5019 18.2353 87.4774 18.2255 87.446C18.2516 87.4565 18.3004 87.4461 18.3752 87.3763C18.3329 87.3868 18.3069 87.3868 18.2841 87.3868C18.2939 87.3833 18.3004 87.3798 18.3166 87.3729C18.2548 87.3415 18.219 87.3624 18.206 87.3938C18.1865 87.4008 18.1605 87.4112 18.1279 87.4321C18.2808 87.3206 18.0726 87.2927 18.2939 87.2055C18.1963 87.0766 17.9295 87.0522 17.8058 86.9546C17.9165 86.8988 18.0271 86.8953 18.0824 86.9162L18.0141 86.843C18.18 86.7872 18.1247 86.8604 18.167 86.8778C18.4045 86.6791 17.8351 86.7524 18.0433 86.5467L17.9034 86.5641L17.923 86.5502C17.8546 86.5746 17.7505 86.5781 17.7212 86.5676C17.8611 86.5014 18.0564 86.456 18.0303 86.4003C18.154 86.3061 17.9197 86.2852 17.8254 86.2469C17.8091 86.2887 17.7277 86.3062 17.6724 86.3062C17.6594 86.2783 17.7993 86.2121 17.731 86.2086L17.9262 86.1423C17.744 86.2155 17.705 86.1249 17.6204 86.1423C17.7603 86.0796 17.7603 86.1493 17.8709 86.1214C17.8189 86.0029 17.8449 86.0622 17.7928 85.9471C17.6269 85.9297 17.6106 86.0168 17.4284 86.0412C17.3731 85.9959 17.2202 85.982 17.3211 85.8774L17.1519 85.9541C16.9859 85.8844 16.9892 85.8112 17.1454 85.6822C16.3222 85.48 15.8212 85.5706 15.5284 85.724C15.2355 85.8774 15.1509 86.09 15.1509 86.09C14.8516 86.5536 15.4112 86.5781 15.6617 86.9371L15.6455 86.9476Z" fill="#20BB65"/>
<path d="M25.7387 101.142L25.699 101.217C25.7255 101.192 25.7454 101.163 25.7387 101.142Z" fill="#20BB65"/>
<path d="M30.1465 105.786C30.1465 105.786 30.1567 105.779 30.1635 105.775C30.1567 105.775 30.1499 105.782 30.1465 105.786Z" fill="#20BB65"/>
<path d="M24.4891 103.746C24.4891 103.746 24.4791 103.75 24.4691 103.753L24.4891 103.746Z" fill="#20BB65"/>
<path d="M23.7698 102.544C23.926 102.889 23.7243 103.21 24.0691 103.398C24.1635 103.555 24.3457 103.642 24.4888 103.743C24.7459 103.607 24.6418 103.914 24.8728 103.82L24.7849 103.962C24.8663 103.931 24.9281 103.921 24.889 104.008L24.8532 104.039C24.9736 103.99 24.9574 104.085 25.0159 104.06L24.9801 104.091L25.0354 104.123L24.9801 104.161C25.1298 104.137 25.1949 104.196 25.2046 104.297L25.338 104.154C25.299 104.437 25.6211 104.193 25.543 104.492L25.5072 104.524C25.992 104.294 25.4714 105.001 25.9432 104.796C25.8846 104.824 25.8814 104.876 25.8456 104.911C25.9464 104.939 26.031 104.987 26.2946 104.708C26.3368 104.761 26.249 104.834 26.1547 104.949C26.2685 104.827 26.3564 104.817 26.3987 104.848L26.3369 104.879L26.4768 104.946L26.672 104.691C26.6622 104.813 26.4214 104.991 26.5256 104.987L26.7045 104.792C26.7435 104.907 26.5158 105.249 26.4572 105.468C26.6882 105.873 27.4593 105.702 27.4398 106.336L27.3227 106.5C27.1372 106.727 27.6838 106.253 27.5179 106.469L27.6383 106.403C27.6155 106.451 27.5992 106.514 27.5374 106.546C27.5602 106.584 27.5927 106.549 27.6741 106.504L27.5895 106.675C27.622 106.901 27.9506 106.741 28.0385 106.919C27.9604 107.354 28.4744 107.375 28.7705 107.382C29.2813 107.267 28.8486 108.431 29.4082 108.268C29.3919 108.306 29.47 108.254 29.4895 108.226L29.6978 108.463C29.6978 108.463 29.9645 108.731 30.3029 108.665C30.6445 108.599 31.0447 108.184 31.3538 106.863L31.3961 106.817C31.3668 106.587 31.3115 106.497 31.0317 106.675C31.2562 106.354 30.9569 106.553 31.0057 106.427L31.0285 106.403C30.7714 106.573 31.0285 106.071 30.7942 106.221C30.817 106.2 30.8821 106.117 30.9048 106.127C30.8235 106.12 30.6998 106.127 30.8365 105.943C30.6771 105.88 30.573 105.643 30.2671 105.852L30.3127 105.807C30.1142 105.956 30.2313 105.782 30.1045 105.831C30.1207 105.807 30.1272 105.789 30.1337 105.782C29.932 105.925 29.9678 105.681 29.8637 105.723L29.958 105.604L29.8409 105.542L29.8572 105.601C29.5806 105.911 29.9483 105.332 29.7108 105.472C29.6815 105.371 29.0275 106.009 29.0893 105.789C28.9332 105.908 29.3204 105.573 29.1772 105.643C29.3138 105.475 29.2878 105.559 29.3854 105.416C29.2715 105.451 29.4505 105.172 29.2976 105.228L29.4049 105.095C29.1316 105.259 29.4049 104.789 29.1674 104.963C29.0015 104.994 29.4407 104.534 29.1447 104.705L29.2618 104.503C29.252 104.44 29.0568 104.691 29.0893 104.569C29.1837 104.461 29.1154 104.437 29.226 104.353C29.2878 104.098 28.8453 104.419 28.982 104.022C28.7738 104.207 28.8258 104.025 28.6697 104.165C28.7477 104.071 28.5688 104.036 28.8063 103.903C28.8258 103.893 28.8323 103.903 28.7998 103.938L28.9169 103.823C29.0601 103.527 28.6892 103.834 28.6599 103.736C28.6404 103.795 28.6762 103.809 28.5851 103.879L28.5428 103.802L28.6469 103.712L28.6143 103.562L28.5102 103.701C28.5265 103.593 28.7087 103.359 28.4972 103.492C28.3833 103.572 28.3801 103.705 28.302 103.698C28.3248 103.551 28.3606 103.335 28.3248 103.223C28.2011 103.373 28.1849 103.349 28.1393 103.356L28.2499 103.23C28.0157 103.321 28.4744 102.931 28.2727 102.986L28.3573 102.906L28.1003 103.143C27.8075 103.314 28.302 102.85 27.9181 103.105C27.9669 103.115 27.6806 103.391 27.6936 103.297L27.814 103.189C27.7717 103.192 27.7164 103.234 27.7261 103.196C27.7977 103.143 27.892 103.032 27.8465 103.018L28.0059 102.892L27.7456 103.049C27.8237 102.875 27.6057 102.962 27.7456 102.777C27.7456 102.777 27.7326 102.596 27.5374 102.756C27.6643 102.666 27.6545 102.568 27.7944 102.45C27.648 102.551 27.4788 102.579 27.583 102.411L27.6025 102.401C27.635 102.15 27.2446 102.394 27.3162 102.125C27.1828 102.268 27.2088 102.139 27.0461 102.331C26.7761 102.401 27.2316 101.777 26.6557 102.282C26.5841 102.261 26.7305 102.098 26.737 102.042L26.7761 102.024C26.6525 101.976 26.6232 101.955 26.5776 101.874C26.4963 101.892 26.236 102.139 26.2458 102.014C26.3629 101.934 26.3238 101.927 26.3043 101.906C26.3336 101.906 26.3726 101.874 26.4149 101.777C26.3791 101.805 26.3564 101.815 26.3336 101.826C26.3401 101.819 26.3466 101.812 26.3564 101.801C26.288 101.798 26.262 101.836 26.262 101.867C26.2458 101.881 26.2262 101.902 26.2035 101.937C26.3011 101.77 26.0994 101.833 26.2685 101.658C26.1286 101.582 25.8781 101.672 25.7284 101.637C25.8098 101.54 25.9106 101.487 25.9692 101.481L25.8781 101.442C26.0083 101.32 25.9855 101.411 26.031 101.407C26.1742 101.125 25.6796 101.435 25.7935 101.156L25.6731 101.233L25.6861 101.212C25.6308 101.264 25.5397 101.313 25.5105 101.313C25.6146 101.191 25.774 101.066 25.7284 101.024C25.8065 100.884 25.5853 100.968 25.4812 100.975C25.4812 101.02 25.4128 101.069 25.364 101.097C25.3413 101.076 25.4454 100.954 25.3803 100.982L25.5332 100.836C25.3933 100.982 25.325 100.916 25.2534 100.968C25.3576 100.85 25.3836 100.916 25.4747 100.843C25.3803 100.759 25.4291 100.801 25.3348 100.717C25.1754 100.773 25.1949 100.86 25.0387 100.961C24.9704 100.944 24.824 100.996 24.876 100.857L24.7524 100.999C24.5734 101.01 24.5507 100.94 24.645 100.752C23.8186 100.93 23.3957 101.23 23.1842 101.498C22.9759 101.766 22.976 101.996 22.976 101.996C22.8784 102.547 23.3989 102.324 23.7601 102.544H23.7698Z" fill="#20BB65"/>
<path d="M38.0434 111.802L38.027 111.886C38.0433 111.855 38.0532 111.823 38.0434 111.802Z" fill="#20BB65"/>
<path d="M43.6034 114.777C43.6034 114.777 43.6105 114.769 43.6176 114.762C43.6105 114.766 43.6069 114.773 43.6034 114.777Z" fill="#20BB65"/>
<path d="M37.6403 114.696C37.6403 114.696 37.6301 114.703 37.6233 114.71L37.6403 114.696Z" fill="#20BB65"/>
<path d="M36.6047 113.81C36.8552 114.079 36.7576 114.455 37.1415 114.511C37.2749 114.626 37.4734 114.647 37.6393 114.692C37.841 114.476 37.8313 114.8 38.0265 114.633L37.9842 114.797C38.0493 114.737 38.1078 114.71 38.0981 114.804L38.0753 114.845C38.1729 114.758 38.1859 114.852 38.238 114.811L38.2152 114.852L38.277 114.863L38.238 114.919C38.3714 114.845 38.4495 114.877 38.4918 114.971L38.5763 114.79C38.6186 115.072 38.8561 114.73 38.8659 115.041L38.8431 115.083C39.2368 114.703 38.944 115.55 39.3312 115.194C39.2824 115.239 39.2954 115.292 39.2726 115.333C39.3767 115.327 39.4711 115.344 39.6402 114.992C39.6956 115.027 39.6337 115.128 39.5752 115.267C39.65 115.11 39.7281 115.076 39.7769 115.089L39.7281 115.138L39.881 115.152L39.9949 114.845C40.0209 114.967 39.842 115.211 39.9396 115.177L40.0535 114.933C40.1218 115.03 40.0046 115.428 40.0112 115.658C40.343 115.964 41.0295 115.55 41.1889 116.16L41.1239 116.351C41.0132 116.627 41.3971 115.999 41.3028 116.257L41.3972 116.153C41.3874 116.205 41.3906 116.271 41.3418 116.32C41.3744 116.348 41.3972 116.306 41.459 116.236L41.4264 116.425C41.5208 116.63 41.7876 116.369 41.921 116.512C41.9665 116.951 42.4611 116.808 42.7441 116.717C43.1996 116.446 43.1053 117.693 43.5933 117.362C43.5868 117.404 43.6486 117.331 43.6584 117.296L43.9187 117.46C43.9187 117.46 44.244 117.634 44.5531 117.463C44.8622 117.293 45.1355 116.777 45.0737 115.414L45.1029 115.358C45.0118 115.149 44.9337 115.076 44.7158 115.333C44.8426 114.957 44.6117 115.243 44.6247 115.107L44.6409 115.079C44.4392 115.323 44.5498 114.762 44.3644 114.978C44.3807 114.95 44.4197 114.849 44.4425 114.852C44.3611 114.87 44.244 114.915 44.3253 114.696C44.1562 114.685 43.9902 114.49 43.756 114.786L43.7852 114.73C43.6356 114.936 43.7007 114.73 43.5933 114.821C43.6031 114.793 43.6031 114.776 43.6096 114.762C43.4566 114.96 43.4241 114.716 43.3363 114.79L43.3916 114.647L43.2614 114.626L43.294 114.678C43.115 115.062 43.307 114.392 43.1183 114.601C43.0597 114.514 42.6172 115.33 42.614 115.1C42.4969 115.264 42.7734 114.821 42.6563 114.933C42.7409 114.73 42.7376 114.818 42.7929 114.65C42.6953 114.716 42.7864 114.396 42.6563 114.5L42.7214 114.34C42.5066 114.581 42.6368 114.047 42.4578 114.291C42.3049 114.375 42.5977 113.793 42.3635 114.051L42.4188 113.821C42.3927 113.765 42.2756 114.065 42.2724 113.939C42.3342 113.807 42.2593 113.803 42.3439 113.688C42.3309 113.427 41.9991 113.876 42.0186 113.451C41.8722 113.695 41.8722 113.503 41.7616 113.688C41.8071 113.573 41.6282 113.598 41.8201 113.392C41.8364 113.374 41.8462 113.385 41.8266 113.43L41.9047 113.28C41.9568 112.949 41.69 113.364 41.6314 113.28C41.6314 113.343 41.6672 113.347 41.5989 113.441L41.5371 113.381L41.6119 113.259L41.5403 113.127L41.4818 113.294C41.4655 113.186 41.5728 112.904 41.4102 113.099C41.3256 113.211 41.3614 113.34 41.2833 113.36C41.2638 113.214 41.2345 112.994 41.1662 112.9C41.0913 113.085 41.0686 113.064 41.0295 113.089L41.0978 112.932C40.9026 113.096 41.2247 112.573 41.049 112.691L41.1076 112.587L40.9287 112.897C40.6977 113.158 41.036 112.552 40.7432 112.918C40.792 112.911 40.6 113.27 40.5838 113.176L40.6651 113.033C40.6261 113.05 40.587 113.109 40.5838 113.068C40.6358 112.994 40.6944 112.855 40.6456 112.858L40.7595 112.684L40.5577 112.921C40.5805 112.733 40.3983 112.883 40.4764 112.663C40.4764 112.663 40.4113 112.496 40.2714 112.712C40.3625 112.583 40.3267 112.492 40.4276 112.336C40.3202 112.479 40.1641 112.562 40.2129 112.37L40.2291 112.357C40.1836 112.106 39.8875 112.468 39.8745 112.189C39.7899 112.37 39.7769 112.238 39.6793 112.475C39.445 112.628 39.689 111.886 39.2921 112.559C39.2173 112.566 39.3084 112.357 39.2986 112.304L39.3312 112.276C39.1978 112.276 39.1652 112.262 39.0969 112.2C39.0221 112.245 38.8496 112.566 38.8203 112.447C38.9082 112.332 38.8692 112.339 38.8431 112.325C38.8692 112.315 38.8984 112.269 38.9115 112.165C38.8854 112.203 38.8659 112.221 38.8496 112.238C38.8561 112.228 38.8561 112.221 38.8659 112.207C38.8008 112.228 38.7878 112.269 38.7976 112.301C38.7878 112.318 38.7748 112.346 38.7618 112.384C38.8041 112.193 38.6316 112.322 38.7423 112.099C38.5861 112.071 38.3746 112.245 38.2217 112.262C38.2705 112.14 38.3486 112.057 38.4006 112.032L38.303 112.025C38.3909 111.862 38.3974 111.959 38.4364 111.942C38.4852 111.624 38.1111 112.088 38.1339 111.785L38.0428 111.9L38.0493 111.875C38.0135 111.942 37.9386 112.022 37.9126 112.032C37.9744 111.882 38.0883 111.708 38.033 111.684C38.0655 111.523 37.8801 111.68 37.7825 111.722C37.7987 111.764 37.7467 111.837 37.7076 111.879C37.6784 111.869 37.7402 111.719 37.6881 111.764L37.789 111.572C37.7011 111.757 37.6165 111.722 37.5645 111.792C37.6263 111.642 37.6719 111.698 37.7369 111.593C37.6231 111.544 37.6784 111.569 37.5645 111.52C37.4311 111.628 37.4766 111.705 37.3595 111.855C37.2912 111.862 37.1676 111.963 37.1741 111.813L37.0992 111.99C36.9333 112.06 36.8878 112.004 36.9203 111.795C36.1915 112.252 35.8889 112.688 35.7718 113.015C35.6547 113.343 35.7263 113.559 35.7263 113.559C35.8011 114.11 36.2208 113.72 36.6275 113.796L36.6047 113.81Z" fill="#20BB65"/>
<path d="M52.1247 118.014L52.1177 118.095C52.1282 118.06 52.1317 118.028 52.1247 118.014Z" fill="#20BB65"/>
<path d="M55.1633 118.771C55.1633 118.771 55.167 118.76 55.1706 118.753C55.167 118.76 55.1633 118.764 55.1633 118.771Z" fill="#20BB65"/>
<path d="M51.9429 120.789C51.9429 120.789 51.9392 120.8 51.9355 120.807L51.9465 120.789H51.9429Z" fill="#20BB65"/>
<path d="M51.3629 120.395C51.5028 120.538 51.4572 120.915 51.6655 120.817C51.7403 120.869 51.8476 120.81 51.9387 120.789C52.0461 120.514 52.0461 120.813 52.147 120.587L52.1242 120.754C52.16 120.677 52.1925 120.625 52.186 120.719L52.173 120.765C52.2251 120.65 52.2348 120.73 52.2608 120.67L52.2478 120.719L52.2804 120.705L52.2608 120.772C52.3324 120.653 52.3747 120.657 52.3975 120.726L52.4398 120.528C52.4658 120.768 52.5895 120.371 52.5992 120.65L52.5862 120.698C52.7977 120.203 52.648 121.089 52.853 120.622C52.827 120.681 52.8335 120.723 52.8237 120.772C52.879 120.726 52.9311 120.709 53.0189 120.322C53.0482 120.336 53.0189 120.451 52.9864 120.601C53.0254 120.43 53.0677 120.367 53.0937 120.364L53.0677 120.426L53.1491 120.388L53.2076 120.064C53.2239 120.165 53.1295 120.454 53.1816 120.388L53.2402 120.123C53.2792 120.189 53.2174 120.597 53.2239 120.806C53.4061 120.974 53.7737 120.35 53.8616 120.866L53.8258 121.068C53.7672 121.361 53.9722 120.65 53.9202 120.921L53.9722 120.792C53.9689 120.845 53.969 120.904 53.9429 120.967C53.9625 120.984 53.9722 120.935 54.0047 120.852L53.9885 121.04C54.0405 121.2 54.1837 120.866 54.252 120.96C54.278 121.354 54.5416 121.061 54.6945 120.887C54.9353 120.486 54.8897 121.692 55.15 121.228C55.15 121.27 55.1793 121.179 55.1858 121.148L55.3257 121.221C55.3257 121.221 55.4981 121.287 55.6608 121.036C55.8235 120.785 55.9666 120.214 55.9308 118.941L55.9471 118.879C55.8983 118.708 55.856 118.663 55.7421 118.973C55.8072 118.579 55.6868 118.917 55.6933 118.788L55.6998 118.757C55.5957 119.05 55.651 118.485 55.5534 118.746C55.5599 118.715 55.5827 118.607 55.5957 118.603C55.5534 118.645 55.4916 118.722 55.5339 118.492C55.4428 118.534 55.355 118.405 55.2313 118.757L55.2476 118.694C55.1695 118.934 55.2021 118.722 55.1467 118.84C55.15 118.809 55.1532 118.795 55.1532 118.781C55.0719 119.018 55.0524 118.799 55.0068 118.896L55.0361 118.743L54.9645 118.764L54.9808 118.802C54.8865 119.217 54.9873 118.53 54.8864 118.788C54.8539 118.725 54.6229 119.635 54.6197 119.419C54.5578 119.607 54.7042 119.105 54.6424 119.248C54.688 119.032 54.6847 119.116 54.714 118.941C54.662 119.036 54.7075 118.708 54.6392 118.844L54.6717 118.673C54.5578 118.969 54.6229 118.429 54.5286 118.715C54.4472 118.84 54.6001 118.206 54.4765 118.523L54.5058 118.29C54.4895 118.248 54.431 118.565 54.4277 118.45C54.4602 118.307 54.4212 118.328 54.4635 118.195C54.4537 117.955 54.278 118.485 54.2845 118.087C54.2065 118.363 54.2065 118.188 54.1479 118.394C54.1739 118.272 54.0763 118.356 54.1772 118.101C54.1869 118.08 54.1902 118.087 54.1772 118.133L54.2195 117.969C54.2455 117.645 54.1056 118.122 54.0731 118.063C54.0731 118.122 54.0926 118.112 54.0568 118.223L54.021 118.192L54.0601 118.053L54.021 117.955L53.9917 118.129C53.982 118.032 54.0373 117.735 53.9527 117.972C53.9071 118.105 53.9267 118.213 53.8844 118.258C53.8714 118.129 53.8551 117.937 53.816 117.875C53.777 118.07 53.764 118.06 53.7445 118.094L53.7803 117.924C53.6761 118.143 53.8453 117.547 53.751 117.721L53.7835 117.606L53.6891 117.955C53.5655 118.276 53.7445 117.599 53.5883 118.042C53.6143 118.018 53.5135 118.415 53.5037 118.335L53.546 118.175C53.5232 118.206 53.5037 118.272 53.5037 118.237C53.533 118.15 53.5623 118 53.5362 118.025L53.5981 117.826L53.4907 118.115C53.5004 117.934 53.4028 118.14 53.4451 117.906C53.4451 117.906 53.4061 117.777 53.3345 118.025C53.3833 117.871 53.3605 117.802 53.4159 117.624C53.3573 117.795 53.2759 117.927 53.2987 117.735L53.3085 117.714C53.2825 117.502 53.123 117.944 53.1133 117.693C53.071 117.889 53.0612 117.774 53.0092 118.025C52.8823 118.255 53.0092 117.484 52.7977 118.248C52.7554 118.279 52.8042 118.056 52.7977 118.014L52.8139 117.976C52.7424 118.025 52.7229 118.025 52.6838 117.997C52.6448 118.066 52.5537 118.422 52.5374 118.324C52.583 118.185 52.5634 118.206 52.5472 118.202C52.5634 118.182 52.5764 118.133 52.583 118.032C52.5699 118.073 52.5602 118.101 52.5504 118.122C52.5504 118.112 52.5537 118.101 52.5569 118.087C52.5211 118.129 52.5146 118.175 52.5211 118.199C52.5146 118.22 52.5081 118.248 52.5016 118.29C52.5211 118.098 52.43 118.283 52.4853 118.039C52.4007 118.073 52.2869 118.314 52.2023 118.391C52.2283 118.262 52.2674 118.157 52.2966 118.112L52.2413 118.147C52.2869 117.965 52.2901 118.049 52.3129 118.018C52.3357 117.711 52.1372 118.279 52.1437 117.993L52.0949 118.133V118.108C52.0787 118.185 52.0396 118.283 52.0233 118.304C52.0559 118.143 52.1144 117.941 52.0819 117.941C52.0982 117.784 51.9973 117.997 51.9453 118.073C51.955 118.105 51.929 118.192 51.9062 118.244C51.8899 118.244 51.9225 118.087 51.8932 118.15L51.9453 117.938C51.8997 118.14 51.8509 118.143 51.8249 118.227C51.8574 118.066 51.8834 118.098 51.916 117.979C51.8509 117.979 51.8834 117.979 51.8216 117.983C51.75 118.133 51.7761 118.185 51.7142 118.366C51.6752 118.401 51.6101 118.541 51.6101 118.401L51.5711 118.593C51.48 118.722 51.454 118.69 51.4702 118.492C50.6764 119.904 50.8423 120.555 50.8423 120.555C50.8944 121.019 51.1189 120.496 51.3434 120.402L51.3629 120.395Z" fill="#20BB65"/>
</svg>
