<svg width="124" height="99" viewBox="0 0 124 99" fill="none" xmlns="http://www.w3.org/2000/svg">
<path d="M15.6103 0.598694L15.542 0.616107C15.5745 0.616107 15.6005 0.609144 15.6103 0.598694Z" fill="#20BB65"/>
<path d="M13.4285 0.584752C13.3538 0.762412 13.0286 0.832068 13.1717 1.00624C13.1522 1.09682 13.2335 1.18042 13.279 1.26402C13.5358 1.28144 13.292 1.3755 13.5066 1.40337L13.3635 1.43471C13.4383 1.44516 13.4903 1.4591 13.4123 1.48348H13.37C13.4805 1.5009 13.4188 1.53575 13.474 1.54272H13.4318L13.4513 1.57406H13.3895C13.5098 1.60541 13.5196 1.64722 13.4708 1.69251L13.6464 1.67161C13.4578 1.77263 13.8219 1.76566 13.5976 1.8632H13.5553C14.0235 1.91197 13.2562 2.04782 13.7016 2.09659C13.6464 2.08962 13.6139 2.11052 13.5683 2.11749C13.6236 2.15581 13.6529 2.20109 13.9943 2.16278C13.9943 2.19413 13.8902 2.20109 13.7569 2.22199C13.9065 2.20457 13.9715 2.222 13.9845 2.24986H13.926L13.9845 2.30908L14.2674 2.26032C14.1893 2.30909 13.9227 2.31257 13.9943 2.34044L14.2283 2.31256C14.1893 2.37178 13.8349 2.44495 13.6691 2.5181C13.5944 2.74801 14.2186 2.88735 13.8317 3.14513L13.6561 3.17996C13.3993 3.22176 14.043 3.17996 13.8057 3.22176H13.926C13.8805 3.23918 13.835 3.26009 13.7732 3.26009C13.7667 3.28448 13.8089 3.27751 13.887 3.28099L13.7309 3.32975C13.6204 3.43425 13.9357 3.45516 13.887 3.5527C13.5781 3.71294 13.9065 3.86273 14.0983 3.94634C14.5047 4.03342 13.5196 4.41662 13.9845 4.49674C13.9487 4.51067 14.0333 4.50719 14.0625 4.50022L14.0528 4.65697C14.0528 4.65697 14.0625 4.84508 14.3226 4.9043C14.5827 4.96701 15.0899 4.8834 16.0946 4.39919L16.1499 4.39224C16.2702 4.28773 16.2897 4.23548 16.0036 4.23896C16.3449 4.15884 16.0263 4.16929 16.1336 4.12749H16.1629C15.893 4.12749 16.3644 3.98465 16.1206 3.98814C16.1466 3.98465 16.2409 3.96724 16.2507 3.97421C16.2019 3.94983 16.1173 3.92195 16.3157 3.88015C16.2506 3.81396 16.3254 3.68855 15.997 3.699L16.0523 3.69205C15.8312 3.7025 16.0133 3.6607 15.8995 3.65024C15.9255 3.64328 15.9385 3.63978 15.9483 3.6363C15.7305 3.64326 15.8995 3.55271 15.8052 3.54226L15.9385 3.51787L15.8995 3.46212L15.8735 3.49C15.5061 3.54573 16.0946 3.4029 15.8507 3.39942C15.8897 3.35065 15.0769 3.44472 15.2493 3.36808C15.0737 3.37505 15.5289 3.3402 15.3923 3.32975C15.5841 3.29839 15.5126 3.32278 15.6654 3.29143C15.5711 3.27401 15.854 3.20784 15.7174 3.19042L15.867 3.16603C15.5874 3.15906 16.0491 3.04062 15.7857 3.05107C15.6557 3.01972 16.2214 2.94656 15.9255 2.93959L16.1238 2.88735C16.1531 2.85949 15.8735 2.90826 15.9678 2.86994C16.0946 2.85252 16.0653 2.82116 16.1856 2.81768C16.3775 2.73059 15.8897 2.74453 16.2149 2.6226C15.9645 2.6435 16.1076 2.58428 15.9223 2.59822C16.0296 2.5808 15.932 2.52157 16.1694 2.52854C16.1889 2.52854 16.1856 2.53552 16.1434 2.54249L16.2897 2.52505C16.5628 2.44493 16.1271 2.46932 16.1661 2.42055C16.1173 2.43797 16.1336 2.45538 16.0328 2.45887L16.0491 2.41707L16.1726 2.41011L16.2376 2.34393L16.0848 2.37178C16.1596 2.33346 16.4197 2.28817 16.1986 2.28469C16.0751 2.28469 15.9971 2.34044 15.945 2.31605C16.0458 2.2638 16.1954 2.18715 16.2376 2.13141C16.0653 2.15928 16.0718 2.14535 16.0328 2.13141L16.1824 2.11051C15.9678 2.08613 16.5075 2.05131 16.3384 2.01996L16.4425 2.01299L16.1271 2.03737C15.8247 2.02692 16.436 1.97467 16.0231 1.97119C16.0491 1.9886 15.6947 2.01995 15.7565 1.9886L15.9028 1.97816C15.8703 1.96771 15.8085 1.97117 15.8377 1.95724C15.9158 1.95724 16.0491 1.93634 16.0198 1.91892L16.2019 1.91197L15.932 1.905C16.0848 1.85623 15.8865 1.83185 16.0881 1.79701C16.0881 1.79701 16.1824 1.72386 15.958 1.73082C16.0978 1.73082 16.1466 1.68901 16.3124 1.67856C16.1531 1.67856 16.0198 1.64374 16.1856 1.60542H16.2051C16.3709 1.51833 15.9613 1.50787 16.1629 1.42078C15.9905 1.44169 16.0816 1.39641 15.8605 1.42776C15.6362 1.37899 16.3027 1.26055 15.6134 1.30236C15.5744 1.27449 15.7727 1.2501 15.8052 1.23268H15.841C15.7792 1.18391 15.7727 1.1665 15.7857 1.12469C15.7174 1.11076 15.3988 1.13164 15.4703 1.08636C15.5971 1.08636 15.5744 1.07592 15.5711 1.05851C15.5906 1.06547 15.6394 1.06547 15.7239 1.03761C15.6849 1.03761 15.6589 1.0376 15.6394 1.03412C15.6492 1.03412 15.6557 1.03412 15.6719 1.03412C15.6264 1.01322 15.5874 1.02018 15.5679 1.03412C15.5484 1.03412 15.5224 1.03759 15.4898 1.04456C15.6524 1.00624 15.4736 0.974906 15.6914 0.954004C15.6362 0.884334 15.4053 0.849495 15.3175 0.797242C15.4281 0.783308 15.5289 0.79026 15.5744 0.804194L15.5321 0.765881C15.6947 0.75543 15.6264 0.783304 15.6589 0.793755C15.9158 0.724084 15.3923 0.706656 15.6264 0.630018H15.4964L15.5159 0.619579C15.4476 0.623062 15.3565 0.619569 15.3338 0.609118C15.4736 0.5917 15.6589 0.588233 15.6492 0.560365C15.7825 0.529013 15.5776 0.497662 15.4996 0.473277C15.4768 0.490695 15.3988 0.490687 15.3468 0.487203C15.3403 0.473269 15.4801 0.455857 15.4216 0.44889L15.6134 0.434942C15.4346 0.45236 15.4183 0.407089 15.3403 0.407089C15.4801 0.389672 15.4638 0.424499 15.5679 0.421016C15.5484 0.361796 15.5581 0.393148 15.5354 0.333928C15.3891 0.309543 15.3565 0.351356 15.1875 0.344389C15.1485 0.31652 15.0152 0.299103 15.129 0.257301L14.9599 0.278201C14.8266 0.232915 14.8461 0.198064 15.0152 0.152778C14.3194 -0.014431 13.8479 -0.0213963 13.5521 0.0238894C13.2562 0.0656917 13.1327 0.156265 13.1327 0.156265C12.7653 0.344375 13.2627 0.407082 13.4025 0.595192L13.4285 0.584752Z" fill="#20BB65"/>
<path d="M18.5079 11.5508L18.455 11.6075C18.4847 11.5898 18.5046 11.5686 18.5079 11.5508Z" fill="#20BB65"/>
<path d="M21.7711 16.4033C21.7711 16.4033 21.7808 16.3999 21.7872 16.3964C21.7808 16.3964 21.7775 16.3999 21.7711 16.4033Z" fill="#20BB65"/>
<path d="M16.4587 12.4008C16.5367 12.7492 16.2961 13 16.5757 13.2473C16.6342 13.411 16.787 13.5295 16.9008 13.6514C17.1577 13.5782 17.0114 13.8395 17.239 13.7977L17.1349 13.9092C17.213 13.8953 17.2747 13.8987 17.2227 13.9719L17.187 13.9928C17.304 13.9719 17.2747 14.0555 17.3332 14.045L17.2975 14.0659L17.343 14.1043L17.2877 14.1286C17.4276 14.1356 17.4796 14.2018 17.4731 14.2959L17.6161 14.1879C17.5348 14.4387 17.8697 14.275 17.7494 14.5362L17.7137 14.5606C18.1916 14.4387 17.6064 14.9926 18.0713 14.8881C18.0128 14.902 18.003 14.9508 17.9673 14.9752C18.055 15.017 18.1266 15.0796 18.4094 14.8706C18.4387 14.9264 18.3477 14.9786 18.2436 15.0692C18.3672 14.9751 18.4485 14.9821 18.4842 15.017L18.4257 15.0344L18.546 15.118L18.7638 14.9194C18.7378 15.0309 18.4907 15.1493 18.585 15.1667L18.7768 15.0204C18.7963 15.1319 18.5395 15.4071 18.4517 15.5987C18.6078 16.0098 19.3393 15.9714 19.2418 16.5532L19.1117 16.6856C18.9134 16.8667 19.4759 16.5114 19.297 16.6856L19.4173 16.6403C19.3881 16.6821 19.3653 16.7343 19.3068 16.7587C19.323 16.797 19.3588 16.7691 19.4368 16.7413L19.3393 16.8841C19.3393 17.1001 19.6644 16.9991 19.723 17.1733C19.5994 17.5634 20.0741 17.654 20.3439 17.6958C20.8251 17.654 20.3049 18.6746 20.8414 18.591C20.8219 18.6259 20.8999 18.5841 20.9194 18.5632L21.0885 18.807C21.0885 18.807 21.3096 19.0857 21.6282 19.0578C21.9501 19.0334 22.35 18.6886 22.7662 17.5077L22.8117 17.4693C22.8084 17.2568 22.7661 17.1698 22.4963 17.3056C22.7336 17.0339 22.441 17.1872 22.4963 17.0792L22.5191 17.0618C22.2655 17.1942 22.5548 16.7587 22.324 16.8737C22.3467 16.8562 22.4183 16.7866 22.4345 16.797C22.3597 16.7831 22.2492 16.7726 22.3922 16.6229C22.2557 16.5462 22.1874 16.3233 21.885 16.48L21.9306 16.4452C21.7322 16.5601 21.8623 16.4138 21.7388 16.4452C21.755 16.4243 21.7648 16.4104 21.7713 16.4034C21.5729 16.5114 21.6347 16.2919 21.5339 16.3198L21.6315 16.2222L21.5307 16.1526L21.5372 16.2083C21.2478 16.4556 21.6542 15.9749 21.4201 16.0759C21.4039 15.9784 20.7341 16.4835 20.8154 16.2884C20.6561 16.3755 21.0527 16.1212 20.9129 16.1665C21.0592 16.0307 21.0235 16.1038 21.1308 15.9854C21.0235 16.0028 21.2218 15.7729 21.0755 15.8042L21.1893 15.6997C20.9194 15.8147 21.2315 15.421 20.9909 15.5499C20.8349 15.5569 21.2966 15.1946 21.0072 15.313L21.1405 15.1458C21.1405 15.0901 20.9292 15.2887 20.9747 15.1842C21.0755 15.1006 21.017 15.0657 21.1308 15.0065C21.2218 14.787 20.7764 15.0169 20.9584 14.6756C20.7439 14.8149 20.8186 14.6581 20.6561 14.7626C20.7406 14.6895 20.5845 14.6338 20.8186 14.5467C20.8381 14.5397 20.8414 14.5536 20.8089 14.578L20.9324 14.4909C21.1047 14.2436 20.7243 14.47 20.7113 14.376C20.6853 14.4282 20.7146 14.4457 20.6203 14.4944L20.5943 14.4213L20.7016 14.3551L20.6951 14.2157L20.5813 14.3272C20.6138 14.2297 20.8121 14.0485 20.6008 14.1391C20.487 14.1948 20.4642 14.3133 20.3927 14.2959C20.435 14.1705 20.5 13.9789 20.487 13.8709C20.3504 13.9858 20.3439 13.9614 20.2984 13.9614L20.4187 13.8639C20.1944 13.9127 20.6691 13.627 20.4773 13.6514L20.5683 13.5922L20.2984 13.7664C20.0058 13.8778 20.526 13.533 20.1391 13.7037C20.1814 13.7211 19.879 13.9231 19.905 13.843L20.0318 13.7629C19.9928 13.7629 19.9375 13.7908 19.9505 13.7559C20.0221 13.7211 20.1294 13.634 20.0871 13.6166L20.2497 13.526L19.9896 13.627C20.0871 13.4842 19.8758 13.526 20.0318 13.3832C20.0318 13.3832 20.0481 13.2194 19.8465 13.3309C19.9766 13.2682 19.9831 13.1777 20.1294 13.0975C19.9831 13.1672 19.8237 13.1637 19.944 13.0313H19.9635C20.0351 12.8084 19.6449 12.9617 19.7522 12.7318C19.6091 12.8363 19.6547 12.7248 19.4759 12.8711C19.219 12.885 19.7392 12.4078 19.1312 12.7596C19.0694 12.7283 19.232 12.6063 19.2483 12.5611L19.2873 12.5541C19.1832 12.4879 19.1605 12.4635 19.1345 12.3834C19.0564 12.3834 18.7768 12.5576 18.8093 12.4496C18.9296 12.4008 18.8939 12.3869 18.8809 12.3625C18.9069 12.366 18.9491 12.3451 19.0044 12.2685C18.9686 12.2859 18.9426 12.2928 18.9231 12.2963C18.9329 12.2894 18.9361 12.2859 18.9491 12.2789C18.8874 12.2615 18.8581 12.2928 18.8549 12.3207C18.8386 12.3311 18.8158 12.3451 18.7898 12.3695C18.9069 12.2371 18.715 12.258 18.9004 12.1326C18.7898 12.0385 18.5427 12.0734 18.4159 12.0107C18.507 11.9375 18.6078 11.9096 18.6598 11.9166L18.585 11.8644C18.7248 11.7807 18.689 11.8574 18.7281 11.8644C18.9101 11.6379 18.4062 11.8226 18.5622 11.5926L18.4387 11.6379L18.4549 11.6205C18.3964 11.6554 18.3021 11.6797 18.2761 11.6762C18.3932 11.5892 18.5622 11.509 18.5265 11.4638C18.624 11.3558 18.4094 11.3836 18.3151 11.3697C18.3086 11.4115 18.2339 11.4394 18.1851 11.4533C18.1688 11.4289 18.2859 11.3418 18.2209 11.3558L18.3867 11.2582C18.2339 11.3592 18.1818 11.2896 18.1103 11.3175C18.2274 11.2304 18.2371 11.2966 18.3346 11.2513C18.2696 11.1572 18.3021 11.2025 18.2339 11.1084C18.081 11.1259 18.0778 11.2095 17.9185 11.2652C17.86 11.2338 17.7202 11.2513 17.7917 11.1398L17.6519 11.2408C17.4893 11.2095 17.4828 11.1433 17.6031 10.997C16.8228 10.9726 16.3774 11.1433 16.1335 11.3384C15.8897 11.53 15.8474 11.7424 15.8474 11.7424C15.6524 12.2232 16.1661 12.1396 16.4554 12.4217L16.4587 12.4008Z" fill="#20BB65"/>
<path d="M28.5145 22.4543L28.495 22.5309C28.5113 22.5031 28.521 22.4717 28.5145 22.4543Z" fill="#20BB65"/>
<path d="M33.502 25.3768C33.502 25.3768 33.5088 25.3699 33.5157 25.363C33.5088 25.3664 33.5054 25.3699 33.502 25.3768Z" fill="#20BB65"/>
<path d="M28.0202 25.1157C28.0202 25.1157 28.0105 25.1226 28.0073 25.126L28.0234 25.1157H28.0202Z" fill="#20BB65"/>
<path d="M27.1002 24.2553C27.3181 24.5165 27.214 24.8614 27.5652 24.9276C27.6855 25.0391 27.8675 25.0669 28.0171 25.1157C28.2122 24.9206 28.1927 25.2237 28.3747 25.0739L28.3292 25.2237C28.391 25.1714 28.4463 25.147 28.4332 25.2341L28.4105 25.2725C28.5048 25.1958 28.5145 25.2829 28.5601 25.2446L28.5373 25.2829L28.5926 25.2968L28.5535 25.3456C28.6803 25.2794 28.7519 25.3143 28.7844 25.4014L28.8689 25.2376C28.8982 25.4989 29.129 25.1923 29.129 25.4815L29.1063 25.5198C29.4834 25.1784 29.1843 25.9552 29.5517 25.6382C29.5062 25.6766 29.5159 25.7288 29.4932 25.7671C29.5875 25.7636 29.6752 25.7845 29.8443 25.4606C29.8931 25.4954 29.8346 25.586 29.776 25.7149C29.8508 25.572 29.9256 25.5407 29.9679 25.5546L29.9223 25.5999L30.0621 25.6208L30.1792 25.3421C30.1987 25.4536 30.0264 25.6765 30.1174 25.6452L30.2312 25.4223C30.293 25.5163 30.1694 25.8821 30.1662 26.0911C30.4621 26.3837 31.1058 26.0214 31.2326 26.5927L31.1643 26.7704C31.0505 27.0212 31.4277 26.4534 31.3302 26.6868L31.4212 26.5927C31.4114 26.6415 31.4114 26.7007 31.3659 26.746C31.3952 26.7739 31.4147 26.7355 31.4764 26.6728L31.4407 26.847C31.522 27.0421 31.7756 26.8052 31.8926 26.9411C31.9186 27.3486 32.3803 27.2302 32.6437 27.157C33.0728 26.9167 32.9395 28.0732 33.4012 27.7771C33.3947 27.8154 33.4532 27.7492 33.463 27.7179L33.6971 27.8746C33.6971 27.8746 33.9897 28.0453 34.279 27.8955C34.5684 27.7492 34.8383 27.2755 34.8285 26.011L34.8578 25.9587C34.783 25.7602 34.7115 25.6905 34.5034 25.9239C34.6334 25.579 34.4091 25.8368 34.4254 25.7114L34.4416 25.6835C34.2498 25.9065 34.3701 25.3874 34.1913 25.5825C34.2075 25.5581 34.2465 25.4641 34.2693 25.4675C34.1945 25.4815 34.084 25.5198 34.1653 25.3212C34.0092 25.3038 33.8629 25.1192 33.6386 25.3909L33.6678 25.3387C33.5248 25.5233 33.5898 25.3386 33.489 25.4153C33.4987 25.3874 33.4988 25.3735 33.5053 25.363C33.359 25.5442 33.3362 25.3143 33.2517 25.3805L33.3069 25.2481L33.1866 25.2237L33.2126 25.2725C33.0371 25.6208 33.2354 25.0077 33.0533 25.1993C33.0046 25.1157 32.5689 25.8612 32.5721 25.6452C32.4583 25.7915 32.7282 25.3909 32.6176 25.4919C32.7022 25.3073 32.6957 25.3874 32.751 25.2341C32.6567 25.2934 32.751 25.0007 32.6307 25.0913L32.6957 24.945C32.4876 25.1645 32.6274 24.6698 32.4551 24.8928C32.312 24.9659 32.6014 24.4364 32.3771 24.6663L32.4356 24.4538C32.4128 24.4016 32.2958 24.6768 32.299 24.5583C32.3608 24.4364 32.2925 24.4329 32.3738 24.3284C32.3738 24.0881 32.0519 24.4921 32.0812 24.102C31.9381 24.3249 31.9446 24.1473 31.8374 24.3145C31.8861 24.21 31.7203 24.2274 31.8991 24.0428C31.9154 24.0288 31.9219 24.0358 31.9024 24.0776L31.9804 23.9418C32.0389 23.6387 31.7788 24.0149 31.7301 23.9348C31.7301 23.994 31.7626 23.9975 31.6943 24.0811L31.639 24.0254L31.7105 23.9139L31.6488 23.7885L31.5903 23.9418C31.5805 23.8407 31.6878 23.5829 31.5317 23.7571C31.4504 23.8581 31.4797 23.9801 31.4049 23.994C31.3919 23.8581 31.3724 23.6561 31.3139 23.5655C31.2391 23.7327 31.2196 23.7153 31.1806 23.7327L31.2489 23.5899C31.0635 23.7362 31.3789 23.2625 31.2131 23.367L31.2716 23.2729L31.096 23.5551C30.875 23.7885 31.2066 23.2381 30.9237 23.569C30.9693 23.5655 30.7774 23.8895 30.7677 23.8024L30.8489 23.6735C30.8099 23.6875 30.7742 23.7397 30.7742 23.7049C30.8262 23.6387 30.8847 23.5133 30.8392 23.5133L30.9497 23.3565L30.7547 23.569C30.7839 23.3948 30.6084 23.5307 30.6896 23.3252C30.6896 23.3252 30.6344 23.1684 30.5011 23.3635C30.5921 23.245 30.5596 23.1614 30.6571 23.0186C30.5531 23.1475 30.4068 23.2207 30.4588 23.0465L30.4751 23.0325C30.4425 22.8026 30.1564 23.1266 30.1564 22.8653C30.0719 23.0291 30.0654 22.9071 29.9646 23.1231C29.7435 23.259 29.9971 22.5797 29.607 23.1893C29.5387 23.1893 29.6297 23.0012 29.6232 22.9524L29.6525 22.928C29.5322 22.9211 29.4997 22.9106 29.4412 22.8514C29.3729 22.8897 29.2006 23.1824 29.1778 23.0709C29.2656 22.9664 29.2266 22.9733 29.2038 22.9559C29.2298 22.949 29.2591 22.9072 29.2721 22.8096C29.2461 22.8445 29.2266 22.8619 29.2103 22.8758C29.2168 22.8654 29.2168 22.8584 29.2266 22.8479C29.1648 22.8653 29.1518 22.9037 29.1583 22.9315C29.1485 22.9489 29.1355 22.9733 29.1225 23.0082C29.168 22.8305 29.0055 22.9455 29.116 22.7434C28.9762 22.7121 28.7714 22.8654 28.6316 22.8793C28.6803 22.7713 28.7551 22.6947 28.8072 22.6738L28.7194 22.6668C28.8071 22.5205 28.8072 22.6076 28.8462 22.5936C28.9047 22.301 28.5405 22.719 28.5763 22.4369L28.4885 22.5379L28.495 22.5135C28.4593 22.5762 28.3877 22.6424 28.3617 22.6529C28.4235 22.517 28.5373 22.3602 28.4853 22.3358C28.521 22.1895 28.3455 22.3254 28.2544 22.3602C28.2674 22.3985 28.2154 22.4647 28.1797 22.4996C28.1536 22.4891 28.2187 22.3533 28.1666 22.3951L28.2674 22.2209C28.1796 22.3881 28.1016 22.3533 28.0496 22.416C28.1146 22.2801 28.1504 22.3324 28.2154 22.2418C28.1146 22.193 28.1634 22.2174 28.0626 22.1686C27.9358 22.2627 27.9716 22.3358 27.8578 22.4682C27.7927 22.4682 27.6757 22.5588 27.6887 22.4229L27.6107 22.5832C27.4546 22.6424 27.4156 22.5867 27.4579 22.3951C26.7653 22.7852 26.463 23.1754 26.3427 23.4715C26.2191 23.7676 26.2776 23.9696 26.2776 23.9696C26.3232 24.4852 26.7296 24.1403 27.1002 24.2309V24.2553Z" fill="#20BB65"/>
<path d="M41.7993 28.9232V29.0033C41.8098 28.9684 41.8133 28.9406 41.7993 28.9232Z" fill="#20BB65"/>
<path d="M47.3101 30.616C47.3101 30.616 47.317 30.6091 47.3204 30.6022C47.3135 30.6057 47.3135 30.6126 47.3101 30.616Z" fill="#20BB65"/>
<path d="M41.9265 31.6299C41.9265 31.6299 41.9196 31.6402 41.9161 31.6471L41.9299 31.6299H41.9265Z" fill="#20BB65"/>
<path d="M40.8565 31.0446C41.1264 31.2362 41.1036 31.595 41.4515 31.5671C41.5913 31.6438 41.7701 31.6194 41.9262 31.6299C42.0692 31.393 42.1148 31.6891 42.2611 31.4975L42.2481 31.6577C42.2968 31.5915 42.3456 31.5532 42.3488 31.6403L42.3358 31.6821C42.4106 31.5846 42.4366 31.6647 42.4724 31.6159L42.4594 31.6577H42.5147L42.4886 31.7135C42.5959 31.6194 42.6707 31.6333 42.7227 31.7135L42.7683 31.5323C42.8528 31.7796 43.0089 31.4243 43.0674 31.703L43.0544 31.7448C43.347 31.3233 43.2169 32.1489 43.5096 31.7518C43.4738 31.8005 43.4933 31.8458 43.4803 31.8911C43.5713 31.8633 43.6591 31.8632 43.7567 31.5079C43.8119 31.5288 43.7697 31.6333 43.7404 31.7727C43.7827 31.6159 43.8477 31.5671 43.8932 31.5706L43.8574 31.6229L43.9972 31.609L44.0525 31.3094C44.0948 31.4139 43.9712 31.6717 44.0525 31.6194L44.1175 31.3756C44.1956 31.4522 44.1501 31.8354 44.1891 32.0444C44.5305 32.2604 45.0864 31.7587 45.3173 32.2917L45.2848 32.4798C45.223 32.7481 45.4798 32.1106 45.4311 32.3614L45.5026 32.2499C45.5026 32.3022 45.5123 32.3579 45.4766 32.4137C45.5123 32.4346 45.5221 32.3927 45.5709 32.3196V32.4973C45.6814 32.6679 45.8863 32.3858 46.0228 32.4938C46.1203 32.8874 46.5463 32.6749 46.7901 32.546C47.1673 32.2221 47.2355 33.3821 47.6354 33.0024C47.6354 33.0442 47.681 32.964 47.6875 32.9327L47.9411 33.0407C47.9411 33.0407 48.2564 33.1522 48.51 32.9501C48.7669 32.7481 48.9587 32.236 48.7376 30.9924L48.7571 30.9366C48.6498 30.7555 48.5653 30.7032 48.3995 30.9715C48.4678 30.6057 48.2922 30.9018 48.2857 30.7764L48.2955 30.7485C48.1426 31.0028 48.1719 30.4698 48.0288 30.6963C48.0386 30.6684 48.0646 30.5709 48.0841 30.5674C48.0126 30.5952 47.9118 30.6545 47.9573 30.442C47.8012 30.4559 47.6224 30.3061 47.4469 30.6161L47.4664 30.5604C47.3591 30.7729 47.3916 30.5744 47.3038 30.6719C47.3071 30.644 47.3038 30.6266 47.3103 30.6161C47.1998 30.8252 47.1347 30.6022 47.0632 30.6858L47.0957 30.5465H46.9722L47.0079 30.5883C46.8974 30.968 46.9819 30.3235 46.8356 30.55C46.7706 30.4803 46.4812 31.3024 46.4455 31.0899C46.3609 31.2571 46.5528 30.8078 46.4617 30.9297C46.5105 30.7311 46.5202 30.8112 46.5463 30.6475C46.465 30.7276 46.504 30.4176 46.3999 30.5325L46.4357 30.3758C46.2731 30.6336 46.3154 30.1215 46.1886 30.3758C46.0618 30.4768 46.2439 29.8951 46.0683 30.1703L46.0846 29.9508C46.0521 29.9055 45.9903 30.1981 45.9675 30.0832C46.0033 29.9508 45.935 29.9613 45.9968 29.8428C45.9448 29.6059 45.7107 30.0727 45.6652 29.6826C45.5676 29.9299 45.5384 29.7557 45.4668 29.9438C45.4928 29.8324 45.3335 29.8846 45.4733 29.6652C45.4863 29.6477 45.4961 29.6547 45.4831 29.6965L45.5319 29.5467C45.5319 29.2367 45.3498 29.6617 45.2848 29.5955C45.2945 29.6547 45.327 29.6477 45.2815 29.7488L45.2165 29.707L45.2653 29.5816L45.1775 29.4736L45.1514 29.6373C45.1222 29.5397 45.1742 29.2646 45.0572 29.4701C44.9954 29.5885 45.0507 29.7 44.9824 29.7313C44.9401 29.6025 44.8816 29.4074 44.8036 29.3307C44.7646 29.5119 44.7418 29.4979 44.706 29.5258L44.745 29.369C44.5922 29.5537 44.8036 29.0172 44.6638 29.16L44.7028 29.0555L44.589 29.3725C44.4199 29.6512 44.6312 29.0381 44.4232 29.4283C44.4687 29.4143 44.3484 29.7731 44.3191 29.693L44.3711 29.5467C44.3386 29.5711 44.3126 29.6303 44.3029 29.5955C44.3386 29.5188 44.3711 29.3795 44.3256 29.3934L44.4004 29.2158L44.2541 29.4666C44.2444 29.2889 44.1013 29.4631 44.1403 29.2436C44.1403 29.2436 44.0525 29.1043 43.9615 29.3238C44.0233 29.1879 43.9745 29.1148 44.0395 28.951C43.9647 29.1043 43.8379 29.2088 43.8509 29.0242L43.864 29.0068C43.7827 28.7873 43.5713 29.174 43.5128 28.9232C43.4673 29.1043 43.4315 28.9859 43.3827 29.2193C43.1942 29.4039 43.295 28.6828 43.0446 29.3725C42.9763 29.3934 43.0251 29.1844 43.0089 29.1391L43.0316 29.1078C42.9113 29.1322 42.8788 29.1287 42.8073 29.0869C42.7488 29.1426 42.648 29.4701 42.5992 29.3656C42.661 29.2437 42.6252 29.2576 42.5992 29.2471C42.622 29.2332 42.6415 29.1879 42.6317 29.0869C42.6154 29.1252 42.5992 29.1496 42.5862 29.167C42.5862 29.1566 42.5894 29.1496 42.5959 29.1357C42.5407 29.167 42.5342 29.2088 42.5504 29.2332C42.5439 29.2541 42.5374 29.2785 42.5342 29.3168C42.5374 29.1322 42.4041 29.2855 42.4659 29.059C42.3196 29.066 42.1603 29.2645 42.0237 29.3133C42.0465 29.1949 42.1017 29.1008 42.1473 29.066L42.0595 29.0799C42.1115 28.9162 42.131 28.9998 42.1668 28.9754C42.157 28.6758 41.9002 29.1775 41.8644 28.8953L41.8026 29.0172V28.9928C41.7831 29.0625 41.7311 29.1461 41.7083 29.1635C41.7376 29.0137 41.8091 28.8326 41.7539 28.8221C41.7539 28.6689 41.614 28.85 41.536 28.9092C41.5588 28.9441 41.523 29.0207 41.497 29.066C41.4677 29.0625 41.497 28.9127 41.458 28.9685L41.5165 28.7734C41.471 28.958 41.3865 28.9441 41.3539 29.0207C41.3832 28.8709 41.432 28.9127 41.4742 28.8047C41.3637 28.7838 41.419 28.7943 41.3084 28.7769C41.2077 28.9023 41.2629 28.965 41.1816 29.1252C41.1199 29.1461 41.0288 29.2611 41.0061 29.1252L40.9703 29.3029C40.8337 29.4039 40.785 29.3621 40.7752 29.1635C40.203 29.7348 40.0112 30.1947 39.9657 30.5186C39.9201 30.8391 40.0209 31.0202 40.0209 31.0202C40.1835 31.501 40.4891 31.0551 40.863 31.0411L40.8565 31.0446Z" fill="#20BB65"/>
<path d="M56.0852 32.7342L56.0957 32.8143C56.1026 32.7794 56.1026 32.7481 56.0852 32.7342Z" fill="#20BB65"/>
<path d="M61.7719 33.7476C61.7719 33.7476 61.7753 33.7373 61.7787 33.7304C61.7753 33.7373 61.7719 33.7407 61.7719 33.7476Z" fill="#20BB65"/>
<path d="M56.5313 35.4025C56.5313 35.4025 56.5244 35.4129 56.521 35.4197L56.5313 35.4025Z" fill="#20BB65"/>
<path d="M55.4059 34.9706C55.692 35.1204 55.7148 35.4826 56.0529 35.406C56.1992 35.4652 56.3715 35.4165 56.5276 35.406C56.6446 35.1517 56.7227 35.4408 56.843 35.2283L56.8495 35.3886C56.8917 35.3154 56.934 35.2701 56.947 35.3607L56.9372 35.406C56.999 35.298 57.0348 35.3781 57.0673 35.3224L57.0576 35.3677L57.1128 35.3572L57.0933 35.42C57.1876 35.312 57.2656 35.3189 57.3241 35.3851L57.3502 35.2005C57.4607 35.4339 57.5745 35.0611 57.6655 35.3294L57.6558 35.3747C57.8996 34.9183 57.8606 35.7544 58.1045 35.3224C58.0752 35.3747 58.098 35.4199 58.0882 35.4652C58.176 35.4269 58.2638 35.413 58.3223 35.0507C58.3776 35.0646 58.3516 35.1726 58.3353 35.3154C58.3613 35.1552 58.4198 35.0995 58.4653 35.096L58.4361 35.1552L58.5726 35.1238L58.5954 34.8173C58.6474 34.9148 58.5531 35.1865 58.6312 35.1273L58.6702 34.8765C58.7547 34.9427 58.7482 35.3294 58.81 35.5314C59.1676 35.7056 59.6683 35.1413 59.9512 35.6429L59.9382 35.8345C59.9024 36.1097 60.0975 35.4443 60.0715 35.7021L60.13 35.5837C60.1333 35.6359 60.1495 35.6917 60.1203 35.7509C60.156 35.7683 60.1625 35.723 60.2048 35.6464L60.2178 35.824C60.3478 35.9808 60.5202 35.6743 60.6665 35.7683C60.803 36.148 61.2029 35.8867 61.4338 35.7369C61.7784 35.3747 61.954 36.5207 62.3149 36.0992C62.3181 36.141 62.3571 36.0574 62.3604 36.0261L62.6237 36.1062C62.6237 36.1062 63.9048 36.4162 63.235 33.9847L63.2512 33.9255C63.1244 33.7583 63.0399 33.7095 62.8968 33.9952C62.9326 33.6224 62.7831 33.9394 62.7668 33.814L62.7733 33.7862C62.6465 34.0544 62.6238 33.5214 62.5035 33.7618C62.51 33.7339 62.5262 33.6329 62.549 33.6294C62.4807 33.6643 62.3831 33.7339 62.4092 33.5179C62.2531 33.5493 62.0613 33.4169 61.915 33.7444L61.9312 33.6851C61.8434 33.9081 61.8564 33.7095 61.7784 33.814C61.7784 33.7862 61.7784 33.7688 61.7784 33.7583C61.6874 33.9778 61.5996 33.7653 61.5378 33.8558L61.5541 33.713L61.4305 33.7269L61.4695 33.7653C61.398 34.1554 61.4175 33.504 61.294 33.7444C61.2224 33.6817 61.0111 34.5317 60.9558 34.3261C60.8876 34.5038 61.0339 34.0335 60.9558 34.1659C60.9851 33.9603 61.0014 34.0439 61.0111 33.8767C60.9396 33.9638 60.9461 33.6503 60.855 33.7792L60.8746 33.619C60.738 33.8942 60.7315 33.3786 60.6275 33.6468C60.5104 33.7618 60.634 33.1626 60.4877 33.4587L60.4811 33.2358C60.4421 33.194 60.4096 33.4936 60.3804 33.3821C60.4031 33.2462 60.3381 33.2636 60.3836 33.1382C60.3088 32.9083 60.1202 33.3995 60.0325 33.0163C59.9609 33.2741 59.9154 33.1034 59.8602 33.2985C59.8732 33.1835 59.7203 33.2532 59.8374 33.0198C59.8471 32.9989 59.8601 33.0059 59.8504 33.0511L59.8829 32.8979C59.8471 32.5878 59.7106 33.0337 59.6391 32.9745C59.6553 33.0303 59.6878 33.0233 59.6521 33.1243L59.5805 33.0895L59.6163 32.9606L59.5188 32.863L59.509 33.0302C59.4667 32.9362 59.4927 32.6575 59.3952 32.877C59.3464 33.0024 59.4115 33.1069 59.3464 33.1452C59.2912 33.0198 59.2099 32.8352 59.1254 32.769C59.1059 32.9536 59.0798 32.9432 59.0506 32.9745L59.0733 32.8143C58.94 33.0163 59.0928 32.4589 58.9693 32.6157L58.9953 32.5077L58.9173 32.8352C58.7807 33.1348 58.9238 32.4973 58.758 32.9083C58.8002 32.8874 58.719 33.2602 58.6832 33.1835L58.719 33.0337C58.6864 33.0616 58.6669 33.1243 58.6572 33.0895C58.6864 33.0094 58.7027 32.8665 58.6572 32.8874L58.7124 32.6993L58.5954 32.9675C58.5661 32.7934 58.4426 32.9815 58.4556 32.762C58.4556 32.762 58.3516 32.6331 58.2865 32.8665C58.3353 32.7237 58.2768 32.654 58.3255 32.4868C58.267 32.6471 58.1532 32.7655 58.1435 32.5809L58.1532 32.5635C58.0459 32.3579 57.8801 32.7655 57.7923 32.5251C57.7663 32.7098 57.7208 32.5983 57.6948 32.8352C57.529 33.0442 57.5452 32.3126 57.3762 33.0302C57.3111 33.0581 57.3372 32.8456 57.3144 32.8038L57.3339 32.769C57.2169 32.8073 57.1843 32.8073 57.1063 32.776C57.0543 32.8387 56.9893 33.1766 56.9307 33.079C56.9763 32.9501 56.9437 32.9675 56.9177 32.9641C56.9372 32.9466 56.9535 32.8979 56.9307 32.8003C56.9177 32.8421 56.908 32.8665 56.895 32.8839C56.895 32.8735 56.895 32.8665 56.8982 32.8491C56.8462 32.8874 56.8462 32.9327 56.8625 32.9536C56.8592 32.9745 56.856 32.9989 56.856 33.0407C56.8397 32.8596 56.7227 33.0268 56.7584 32.7969C56.6154 32.8247 56.4756 33.0442 56.3488 33.1104C56.3553 32.9885 56.4008 32.8909 56.4431 32.8491L56.3553 32.877C56.3845 32.7063 56.417 32.7864 56.4495 32.7585C56.404 32.4624 56.2057 32.9954 56.1407 32.7202L56.0952 32.8491V32.8247C56.0789 32.8979 56.0366 32.9884 56.0171 33.0093C56.0269 32.8561 56.0789 32.668 56.0204 32.6645C56.0009 32.5112 55.8838 32.7098 55.8123 32.7794C55.8383 32.8108 55.8123 32.8909 55.7928 32.9397C55.7635 32.9397 55.7733 32.7864 55.7408 32.8456L55.7733 32.6436C55.7505 32.8352 55.666 32.8317 55.64 32.9118C55.6497 32.7585 55.705 32.7934 55.731 32.6819C55.6172 32.6784 55.6757 32.6819 55.5619 32.6749C55.4774 32.8143 55.5392 32.8665 55.4807 33.0372C55.4221 33.0651 55.3441 33.194 55.3084 33.0616L55.2953 33.2428C55.1718 33.3612 55.1165 33.3263 55.084 33.1347C54.0891 34.4306 54.5703 35.0786 54.5703 35.0786C54.7881 35.5314 55.0352 35.0472 55.4026 34.9775L55.4059 34.9706Z" fill="#20BB65"/>
<path d="M70.7229 35.0472L70.7359 35.1238C70.7391 35.089 70.7359 35.0577 70.7229 35.0472Z" fill="#20BB65"/>
<path d="M76.4745 35.688C76.4745 35.688 76.4779 35.6776 76.4814 35.6707C76.4779 35.6776 76.4745 35.6811 76.4745 35.688Z" fill="#20BB65"/>
<path d="M71.3344 37.6738C71.3344 37.6738 71.331 37.6841 71.3275 37.691L71.3378 37.6738H71.3344Z" fill="#20BB65"/>
<path d="M70.1897 37.3324C70.4856 37.4578 70.5278 37.8166 70.8594 37.7121C71.009 37.7574 71.1781 37.6947 71.3309 37.6703C71.4317 37.4056 71.5259 37.6877 71.6332 37.4717L71.6495 37.6285C71.6853 37.5553 71.7243 37.5066 71.747 37.5902L71.7405 37.6355C71.7958 37.524 71.8381 37.5971 71.8641 37.5414L71.8576 37.5867L71.9128 37.5728L71.8966 37.6355C71.9844 37.5205 72.0624 37.5205 72.1242 37.5867L72.1372 37.3986C72.2608 37.625 72.355 37.2418 72.4591 37.5066L72.4526 37.5519C72.6704 37.0781 72.6769 37.9176 72.898 37.4683C72.872 37.524 72.898 37.5658 72.8915 37.6111C72.976 37.5658 73.0606 37.5484 73.0996 37.1826C73.1548 37.1931 73.1353 37.3045 73.1256 37.4439C73.1418 37.2836 73.1971 37.2209 73.2427 37.2174L73.2166 37.2767L73.3499 37.2383L73.3564 36.9318C73.415 37.0259 73.3369 37.3045 73.4084 37.2383L73.4345 36.9875C73.5223 37.0468 73.5385 37.4334 73.61 37.632C73.9774 37.7818 74.4456 37.1896 74.7512 37.6703V37.8619C74.7285 38.1371 74.8845 37.4648 74.8748 37.7226L74.9268 37.6006C74.9333 37.6529 74.9528 37.7086 74.9268 37.7678C74.9626 37.7818 74.9691 37.7365 75.0048 37.6564L75.0276 37.834C75.1642 37.9838 75.3235 37.6668 75.473 37.7539C75.6258 38.1266 76.0127 37.8445 76.2338 37.6808C76.5589 37.3011 76.7898 38.4402 77.1279 38.0012C77.1344 38.043 77.1669 37.9559 77.1702 37.9246L77.4335 37.9943C77.4335 37.9943 78.7243 38.2521 77.9473 35.8484L77.9602 35.7892C77.8269 35.6255 77.7392 35.5837 77.6091 35.8728C77.6286 35.5001 77.4921 35.8206 77.4693 35.6952L77.4758 35.6638C77.3587 35.939 77.3132 35.406 77.2059 35.6499C77.2125 35.622 77.2222 35.5175 77.245 35.514C77.1767 35.5523 77.0857 35.6255 77.0987 35.4095C76.9426 35.4478 76.7442 35.3259 76.6174 35.6568L76.6305 35.5976C76.5524 35.824 76.5557 35.6255 76.4842 35.737C76.4842 35.7091 76.4809 35.6917 76.4842 35.6812C76.4029 35.9042 76.3086 35.6986 76.2501 35.7892L76.2598 35.6464L76.1395 35.6673L76.1818 35.7021C76.1298 36.0958 76.1168 35.4443 76.0062 35.6917C75.9315 35.6324 75.7624 36.4929 75.6973 36.2908C75.6388 36.472 75.7624 35.9947 75.6876 36.1306C75.7071 35.9251 75.7266 36.0052 75.7299 35.838C75.6616 35.9285 75.6551 35.6185 75.5673 35.7474L75.5803 35.5872C75.4568 35.8693 75.4242 35.3572 75.3332 35.629C75.2227 35.7509 75.3137 35.1447 75.1837 35.4478L75.1674 35.2284C75.1284 35.19 75.1089 35.4896 75.0731 35.3781C75.0893 35.2423 75.0243 35.2632 75.0634 35.1343C74.9756 34.9079 74.813 35.413 74.7057 35.0333C74.6472 35.2945 74.5919 35.1273 74.5496 35.3259C74.5561 35.2109 74.4066 35.2911 74.5139 35.0472C74.5236 35.0263 74.5334 35.0333 74.5301 35.0786L74.5561 34.9218C74.5041 34.6152 74.3903 35.0681 74.3156 35.0124C74.3351 35.0681 74.3676 35.0577 74.3351 35.1622L74.2635 35.1308L74.2928 34.9984L74.1887 34.9079V35.0751C74.14 34.9845 74.1497 34.7023 74.0652 34.9288C74.0229 35.0542 74.0945 35.1552 74.0327 35.2005C73.9709 35.0786 73.8799 34.8974 73.7921 34.8382C73.7823 35.0228 73.7564 35.0159 73.7271 35.0472L73.7401 34.887C73.6198 35.0995 73.7401 34.5317 73.623 34.6954L73.6426 34.5839L73.5808 34.9148C73.4605 35.2214 73.5678 34.5769 73.4247 34.9984C73.467 34.9741 73.4052 35.3538 73.3662 35.2771L73.3955 35.1238C73.3662 35.1552 73.3499 35.2179 73.3369 35.1831C73.3629 35.1029 73.3694 34.9601 73.3271 34.981L73.3727 34.7894L73.2686 35.0646C73.2296 34.8939 73.1158 35.089 73.1158 34.8696C73.1158 34.8696 73.0053 34.7476 72.9533 34.9845C72.9923 34.8382 72.9305 34.7755 72.9695 34.6013C72.9207 34.765 72.8135 34.8905 72.794 34.7093L72.8037 34.6884C72.6834 34.4898 72.5403 34.9114 72.4396 34.6745C72.4265 34.8626 72.3713 34.7511 72.3615 34.9915C72.2087 35.2109 72.1795 34.4829 72.0527 35.2109C71.9909 35.2423 72.0007 35.0298 71.9746 34.988L71.9941 34.9497C71.8771 34.9984 71.8446 35.0019 71.7666 34.9741C71.7178 35.0402 71.6755 35.3816 71.6105 35.2911C71.6495 35.1587 71.617 35.1796 71.5877 35.1761C71.6072 35.1552 71.617 35.1064 71.591 35.0124C71.5812 35.0542 71.5715 35.0786 71.5617 35.0995C71.5617 35.089 71.5617 35.0821 71.5617 35.0646C71.5097 35.1064 71.513 35.1517 71.5325 35.1726C71.5292 35.1935 71.5292 35.2214 71.5325 35.2597C71.5032 35.0786 71.3991 35.2597 71.4186 35.0228C71.2756 35.0612 71.1521 35.2911 71.0285 35.3677C71.0285 35.2458 71.0675 35.1447 71.1065 35.0995L71.022 35.1343C71.0415 34.9636 71.0805 35.0402 71.1065 35.0089C71.0415 34.7198 70.879 35.2632 70.7944 34.995L70.7554 35.1273V35.1029C70.7424 35.1761 70.7066 35.2702 70.6871 35.2911C70.6871 35.1378 70.7261 34.9462 70.6709 34.9462C70.6416 34.7964 70.5376 35.0054 70.4693 35.0786C70.4986 35.1064 70.479 35.19 70.4595 35.2423C70.4303 35.2423 70.4303 35.0925 70.4042 35.1552L70.4238 34.9532C70.414 35.1448 70.3295 35.1517 70.31 35.2318C70.31 35.0786 70.3685 35.1064 70.388 34.995C70.2742 35.0019 70.3295 34.995 70.2157 35.0054C70.1377 35.1517 70.2059 35.197 70.1571 35.3712C70.0986 35.406 70.0336 35.5384 69.9849 35.4095V35.5907C69.8678 35.7195 69.8125 35.6917 69.767 35.5001C68.8632 36.8795 69.3866 37.4822 69.3866 37.4822C69.6337 37.9142 69.845 37.409 70.2059 37.308L70.1897 37.3324Z" fill="#20BB65"/>
<path d="M85.4834 36.6357L85.4997 36.7123C85.4997 36.6775 85.4997 36.6461 85.4834 36.6357Z" fill="#20BB65"/>
<path d="M91.2643 37.1719C91.2643 37.1719 91.2677 37.1616 91.2712 37.1547C91.2677 37.1616 91.2643 37.1651 91.2643 37.1719Z" fill="#20BB65"/>
<path d="M86.1569 39.2518C86.1569 39.2518 86.1535 39.2621 86.15 39.269L86.1604 39.2518H86.1569Z" fill="#20BB65"/>
<path d="M85.0121 38.9348C85.308 39.0567 85.36 39.412 85.6883 39.3006C85.8379 39.3424 86.0037 39.2797 86.1566 39.2518C86.2508 38.9871 86.3516 39.2657 86.4524 39.0463L86.4719 39.203C86.5077 39.1264 86.5467 39.0776 86.5662 39.1647L86.5597 39.21C86.6117 39.0985 86.654 39.1717 86.68 39.116L86.6735 39.1612L86.7255 39.1473L86.7125 39.21C86.797 39.0916 86.8751 39.0916 86.9369 39.1543L86.9466 38.9662C87.0734 39.1891 87.1579 38.8059 87.2685 39.0672L87.262 39.1125C87.4701 38.6352 87.4928 39.4748 87.7042 39.0219C87.6782 39.0776 87.7042 39.1194 87.6977 39.1647C87.7789 39.1194 87.8667 39.0985 87.8992 38.7328C87.9545 38.7432 87.935 38.8512 87.9317 38.994C87.9447 38.8338 88 38.7711 88.0455 38.7641L88.0195 38.8233L88.1528 38.7815V38.475C88.2146 38.569 88.1398 38.8477 88.2113 38.7815L88.2309 38.5307C88.3187 38.59 88.3414 38.9766 88.4162 39.1717C88.7836 39.3145 89.242 38.7119 89.5541 39.1891V39.3807C89.5346 39.6594 89.6842 38.9801 89.6777 39.2379L89.7297 39.116C89.7362 39.1647 89.7557 39.2205 89.7297 39.2832C89.7655 39.2971 89.772 39.2518 89.8045 39.1717L89.8305 39.3459C89.967 39.4922 90.1231 39.1752 90.2727 39.2553C90.4287 39.6245 90.8124 39.3354 91.0302 39.1682C91.3521 38.7815 91.5862 39.9172 91.9211 39.4713C91.9276 39.5096 91.9601 39.426 91.9633 39.3946L92.2267 39.4608C92.2267 39.4608 93.5175 39.6942 92.7339 37.308L92.7469 37.2488C92.6136 37.0886 92.5225 37.0467 92.3957 37.3394C92.412 36.9666 92.2787 37.2906 92.256 37.1652L92.2625 37.1338C92.1487 37.4125 92.0999 36.8795 91.9893 37.1269C91.9958 37.099 92.0056 36.9945 92.0251 36.991C91.9568 37.0328 91.8658 37.106 91.8788 36.89C91.7227 36.9318 91.5212 36.8133 91.3944 37.1478L91.4074 37.0886C91.3326 37.315 91.3326 37.1164 91.2611 37.2279C91.2611 37.2 91.2578 37.1861 91.2611 37.1722C91.1798 37.3951 91.0822 37.1896 91.027 37.2836L91.0367 37.1408L90.9132 37.1617L90.9555 37.1965C90.9067 37.5902 90.8872 36.9387 90.7799 37.1861C90.7018 37.1269 90.5425 37.9908 90.4775 37.7887C90.4222 37.9699 90.5393 37.4926 90.4678 37.6285C90.484 37.423 90.5068 37.5031 90.5068 37.3359C90.4385 37.4265 90.4287 37.1164 90.3442 37.2488L90.3539 37.0886C90.2336 37.3707 90.1947 36.8586 90.1069 37.1338C89.9963 37.2558 90.0841 36.6531 89.954 36.9562L89.9345 36.7367C89.8955 36.6984 89.8793 36.998 89.8402 36.89C89.8565 36.7541 89.7882 36.775 89.8272 36.6496C89.7362 36.4267 89.5801 36.9318 89.4663 36.5556C89.4111 36.8168 89.3526 36.6531 89.3135 36.8517C89.32 36.7367 89.1705 36.8203 89.2745 36.5765C89.2843 36.5556 89.294 36.5625 89.2908 36.6078L89.3135 36.4511C89.2583 36.1445 89.151 36.6009 89.0729 36.5451C89.0925 36.6009 89.1249 36.5904 89.0957 36.6949L89.0209 36.667L89.0469 36.5347L88.9429 36.4476V36.6148C88.8974 36.5242 88.9006 36.242 88.8193 36.472C88.7803 36.6009 88.8519 36.6984 88.7901 36.7437C88.7251 36.6252 88.6308 36.4441 88.543 36.3884C88.5365 36.573 88.5105 36.566 88.4812 36.6008L88.491 36.4406C88.3707 36.6531 88.4845 36.0853 88.3707 36.2525L88.3902 36.141L88.3349 36.4754C88.2179 36.7855 88.3154 36.1375 88.1788 36.5625C88.2211 36.5382 88.1658 36.9179 88.1236 36.8447L88.1496 36.6914C88.1203 36.7228 88.1041 36.7855 88.0911 36.7506C88.1138 36.667 88.1203 36.5277 88.078 36.5486L88.1203 36.357L88.0228 36.6357C87.9805 36.465 87.87 36.6635 87.8667 36.4441C87.8667 36.4441 87.7529 36.3257 87.7042 36.5625C87.7432 36.4162 87.6781 36.3535 87.7139 36.1794C87.6684 36.3431 87.5611 36.472 87.5383 36.2908L87.5481 36.2699C87.4246 36.0748 87.288 36.4964 87.1839 36.263C87.1742 36.4511 87.1157 36.3431 87.1124 36.5834C86.9629 36.8064 86.9174 36.0748 86.8068 36.8064C86.745 36.8412 86.7515 36.6287 86.7255 36.5869L86.7418 36.5486C86.628 36.5974 86.5922 36.6008 86.5142 36.5765C86.4687 36.6426 86.4329 36.984 86.3646 36.897C86.4004 36.7646 86.3646 36.7855 86.3419 36.782C86.3614 36.7611 86.3711 36.7123 86.3419 36.6183C86.3321 36.6601 86.3224 36.6844 86.3126 36.7054C86.3126 36.6949 86.3126 36.6845 86.3126 36.6705C86.2638 36.7158 86.2671 36.7576 86.2866 36.7785C86.2866 36.7994 86.2834 36.8273 86.2866 36.8656C86.2541 36.6845 86.1533 36.8656 86.1663 36.6322C86.0233 36.674 85.9062 36.9039 85.7826 36.984C85.7826 36.8621 85.8152 36.7576 85.8542 36.7158L85.7696 36.7506C85.7859 36.5765 85.8249 36.6566 85.8542 36.6252C85.7826 36.3361 85.6298 36.883 85.5388 36.6183L85.503 36.7541V36.7297C85.4933 36.8029 85.4575 36.897 85.4412 36.9213C85.438 36.7681 85.4705 36.573 85.4153 36.5765C85.3827 36.4267 85.282 36.6357 85.2169 36.7123C85.2462 36.7402 85.2299 36.8238 85.2104 36.8761C85.1812 36.8761 85.1779 36.7263 85.1519 36.789L85.1649 36.5869C85.1584 36.7785 85.0739 36.7855 85.0576 36.8691C85.0544 36.7158 85.1129 36.7437 85.1291 36.6322C85.0153 36.6392 85.0706 36.6357 84.9568 36.6426C84.8853 36.789 84.9503 36.8342 84.908 37.0119C84.8528 37.0467 84.7878 37.1826 84.739 37.0537V37.2349C84.6317 37.3637 84.5732 37.3394 84.5211 37.1478C83.6563 38.5447 84.196 39.1403 84.196 39.1403C84.4529 39.5688 84.6479 39.0567 85.0056 38.9487L85.0121 38.9348Z" fill="#20BB65"/>
<path d="M100.309 38.2416L100.322 38.3182C100.326 38.2834 100.322 38.252 100.309 38.2416Z" fill="#20BB65"/>
<path d="M106.11 39.3248C106.11 39.3248 106.117 39.3179 106.12 39.311C106.113 39.3145 106.113 39.3214 106.11 39.3248Z" fill="#20BB65"/>
<path d="M100.859 40.8856C100.859 40.8856 100.852 40.8959 100.849 40.9028L100.859 40.8856Z" fill="#20BB65"/>
<path d="M99.7437 40.5129C100.033 40.6452 100.069 41.004 100.394 40.91C100.537 40.9587 100.706 40.903 100.856 40.8856C100.96 40.6243 101.044 40.91 101.158 40.6975L101.168 40.8542C101.207 40.7811 101.246 40.7323 101.262 40.8194L101.256 40.8647C101.314 40.7532 101.35 40.8333 101.379 40.7776L101.373 40.8229L101.425 40.8124L101.408 40.8751C101.499 40.7637 101.574 40.7672 101.633 40.8368L101.655 40.6487C101.766 40.8786 101.873 40.5024 101.964 40.7706L101.955 40.8159C102.189 40.3561 102.156 41.1921 102.394 40.7567C102.364 40.8124 102.387 40.8542 102.381 40.8995C102.465 40.8612 102.55 40.8473 102.608 40.4815C102.663 40.4954 102.634 40.6034 102.621 40.7463C102.647 40.586 102.706 40.5303 102.751 40.5268L102.722 40.586L102.855 40.5547L102.878 40.2481C102.93 40.3457 102.836 40.6174 102.911 40.5582L102.95 40.3073C103.034 40.3735 103.024 40.7602 103.083 40.9622C103.427 41.1364 103.931 40.5825 104.188 41.0911L104.169 41.2792C104.123 41.5544 104.338 40.896 104.302 41.1503L104.364 41.0354C104.364 41.0876 104.38 41.1434 104.348 41.1991C104.38 41.2165 104.39 41.1747 104.432 41.0981L104.439 41.2758C104.552 41.4395 104.741 41.1399 104.874 41.2409C104.982 41.6241 105.378 41.3907 105.612 41.2618C105.98 40.9309 106.028 42.0874 106.409 41.7112C106.409 41.753 106.454 41.6729 106.461 41.6415L106.695 41.7565C106.695 41.7565 106.981 41.8749 107.238 41.6938C107.488 41.5057 107.758 41.0249 107.596 39.7569L107.618 39.7012C107.511 39.5096 107.423 39.4504 107.241 39.7082C107.322 39.3459 107.131 39.6315 107.127 39.5061L107.137 39.4783C106.975 39.7256 107.01 39.1926 106.858 39.4156C106.867 39.3877 106.897 39.2901 106.916 39.2901C106.841 39.318 106.734 39.3703 106.783 39.1613C106.617 39.1717 106.425 39.0184 106.25 39.325L106.269 39.2692C106.162 39.4817 106.191 39.2832 106.1 39.3807C106.1 39.3529 106.1 39.3354 106.107 39.325C105.996 39.534 105.924 39.3145 105.853 39.3981L105.882 39.2588H105.755L105.794 39.3041C105.694 39.6873 105.755 39.0393 105.616 39.2658C105.544 39.1961 105.281 40.0286 105.238 39.8196C105.16 39.9903 105.336 39.534 105.245 39.6594C105.284 39.4574 105.3 39.541 105.316 39.3738C105.238 39.4539 105.261 39.1438 105.164 39.2623L105.193 39.1055C105.04 39.3703 105.056 38.8582 104.936 39.1195C104.812 39.2274 104.962 38.6352 104.799 38.9209V38.6979C104.764 38.6527 104.718 38.9523 104.689 38.8373C104.718 38.7049 104.647 38.7154 104.702 38.5934C104.63 38.36 104.422 38.8443 104.344 38.4576C104.266 38.7119 104.221 38.5412 104.162 38.7328C104.178 38.6178 104.019 38.684 104.146 38.4541C104.156 38.4367 104.169 38.4402 104.159 38.4855L104.198 38.3322C104.165 38.0221 104.019 38.4646 103.944 38.4019C103.961 38.4576 103.993 38.4506 103.954 38.5551L103.883 38.5203L103.922 38.3914L103.821 38.2939L103.808 38.4576C103.766 38.3635 103.795 38.0848 103.691 38.3008C103.642 38.4227 103.707 38.5307 103.639 38.5691C103.584 38.4437 103.499 38.2555 103.414 38.1893C103.392 38.374 103.369 38.3635 103.336 38.3949L103.359 38.2346C103.223 38.4367 103.379 37.8793 103.252 38.0361L103.278 37.9281L103.197 38.2555C103.057 38.5551 103.2 37.9176 103.031 38.3287C103.073 38.3078 102.995 38.684 102.956 38.6039L102.992 38.4541C102.959 38.482 102.94 38.5447 102.927 38.5098C102.956 38.4297 102.969 38.2869 102.927 38.3078L102.982 38.1197L102.862 38.3879C102.829 38.2137 102.706 38.4053 102.715 38.1824C102.715 38.1824 102.608 38.0535 102.543 38.2869C102.592 38.1441 102.53 38.0744 102.576 37.9072C102.517 38.0674 102.403 38.1894 102.39 38.0047L102.4 37.9873C102.286 37.7818 102.124 38.1963 102.029 37.956C102.01 38.1406 101.958 38.0291 101.938 38.2695C101.776 38.482 101.769 37.7504 101.62 38.4715C101.555 38.5029 101.574 38.2904 101.548 38.2451L101.568 38.2102C101.447 38.252 101.415 38.2555 101.337 38.2242C101.285 38.2904 101.233 38.6283 101.171 38.5342C101.213 38.4018 101.181 38.4228 101.152 38.4193C101.171 38.4019 101.184 38.3531 101.161 38.2555C101.152 38.2973 101.139 38.3217 101.129 38.3426C101.129 38.3322 101.129 38.3252 101.132 38.3078C101.08 38.3496 101.083 38.3914 101.1 38.4123C101.096 38.4332 101.093 38.4611 101.096 38.4994C101.074 38.3182 100.963 38.4889 100.989 38.259C100.843 38.2939 100.713 38.5168 100.589 38.59C100.589 38.468 100.631 38.367 100.67 38.3252L100.583 38.3566C100.605 38.1859 100.641 38.266 100.67 38.2346C100.609 37.942 100.436 38.482 100.355 38.2102L100.313 38.3426V38.3182C100.3 38.3914 100.261 38.4855 100.241 38.5064C100.241 38.3531 100.287 38.1615 100.228 38.1615C100.202 38.0117 100.092 38.2172 100.023 38.2869C100.053 38.3182 100.03 38.3984 100.01 38.4506C99.9811 38.4506 99.9843 38.3008 99.9551 38.36L99.9778 38.158C99.9648 38.3496 99.8803 38.3531 99.8575 38.4332C99.8575 38.2799 99.9161 38.3113 99.9388 38.1998C99.825 38.1998 99.8803 38.1998 99.7665 38.2033C99.6885 38.3461 99.7535 38.3949 99.7047 38.5691C99.6462 38.6004 99.5779 38.7363 99.5324 38.6039V38.785C99.4154 38.9104 99.3568 38.8826 99.3113 38.691C98.401 40.053 98.9212 40.6696 98.9212 40.6696C99.1618 41.105 99.3698 40.6034 99.7307 40.5129H99.7437Z" fill="#20BB65"/>
<path d="M114.257 44.3238L114.228 44.397C114.251 44.3726 114.264 44.3447 114.257 44.3238Z" fill="#20BB65"/>
<path d="M118.243 49.1171C118.243 49.1171 118.253 49.1171 118.259 49.1137C118.253 49.1137 118.247 49.1136 118.243 49.1171Z" fill="#20BB65"/>
<path d="M113.285 46.8215C113.285 46.8215 113.275 46.8249 113.269 46.8318L113.285 46.8215Z" fill="#20BB65"/>
<path d="M112.603 45.867C112.768 46.1422 112.599 46.4592 112.908 46.5707C112.996 46.6961 113.155 46.7518 113.285 46.8215C113.51 46.6752 113.422 46.9539 113.627 46.8494L113.545 46.9817C113.617 46.9469 113.672 46.933 113.636 47.0131L113.607 47.0444C113.714 46.9922 113.698 47.0758 113.753 47.0514L113.721 47.0828L113.77 47.1071L113.721 47.1455C113.854 47.1106 113.913 47.1594 113.919 47.25L114.04 47.1141C113.994 47.3684 114.29 47.135 114.209 47.4067L114.176 47.4381C114.622 47.2186 114.118 47.8596 114.547 47.668C114.492 47.6924 114.485 47.7411 114.453 47.769C114.54 47.7899 114.612 47.8352 114.869 47.5879C114.901 47.6366 114.82 47.6993 114.726 47.8038C114.836 47.6959 114.917 47.6889 114.953 47.7168L114.898 47.7411L115.018 47.8038L115.213 47.5809C115.197 47.6924 114.966 47.8422 115.057 47.8422L115.233 47.675C115.259 47.7829 115.025 48.079 114.95 48.2706C115.106 48.6259 115.821 48.5423 115.708 49.1032L115.577 49.2321C115.379 49.4097 115.935 49.0544 115.756 49.2251L115.873 49.1798C115.844 49.2182 115.818 49.2704 115.76 49.2948C115.773 49.3331 115.808 49.3052 115.886 49.2739L115.782 49.4132C115.769 49.6153 116.088 49.5142 116.13 49.6849C115.971 50.0507 116.413 50.1448 116.667 50.2144C117.148 50.2249 116.465 51.1236 116.985 51.1132C116.959 51.1411 117.041 51.1132 117.067 51.0992L117.171 51.3536C117.171 51.3536 117.31 51.6496 117.619 51.6949C117.925 51.7367 118.419 51.5556 119.079 50.4931L119.131 50.4687C119.17 50.2493 119.144 50.1448 118.845 50.2109C119.131 49.9985 118.809 50.0751 118.884 49.981L118.91 49.9671C118.634 50.0368 118.995 49.6606 118.744 49.7198C118.77 49.7058 118.852 49.6536 118.868 49.6675C118.793 49.6327 118.679 49.5979 118.845 49.4759C118.712 49.3645 118.669 49.1102 118.344 49.2182L118.393 49.1903C118.182 49.2704 118.325 49.145 118.195 49.1555C118.214 49.1346 118.224 49.1241 118.234 49.1171C118.022 49.1938 118.104 48.9778 118 48.9917L118.107 48.9046L118.009 48.8141V48.8733C117.704 49.0893 118.146 48.6469 117.899 48.72C117.886 48.6155 117.177 49.0579 117.275 48.8698C117.112 48.9464 117.522 48.72 117.379 48.7548C117.531 48.6294 117.492 48.7026 117.606 48.5911C117.499 48.5981 117.707 48.3786 117.554 48.3995L117.671 48.302C117.392 48.396 117.717 48.0163 117.47 48.1313C117.31 48.1278 117.782 47.7829 117.486 47.884L117.623 47.7133C117.623 47.6541 117.405 47.8491 117.453 47.7446C117.558 47.661 117.492 47.6227 117.61 47.567C117.694 47.3371 117.242 47.5635 117.411 47.2082C117.197 47.3475 117.265 47.1838 117.106 47.2918C117.187 47.2151 117.021 47.1559 117.258 47.0653C117.278 47.0584 117.284 47.0723 117.252 47.1002L117.372 47.0096C117.531 46.7483 117.151 46.9852 117.132 46.8842C117.109 46.9399 117.141 46.9573 117.05 47.0096L117.015 46.9295L117.122 46.8563L117.102 46.71L116.995 46.8285C117.018 46.7274 117.203 46.5254 116.995 46.6264C116.884 46.6891 116.875 46.8145 116.797 46.8006C116.826 46.6647 116.868 46.4627 116.839 46.3477C116.715 46.4766 116.702 46.4522 116.657 46.4557L116.767 46.3477C116.543 46.4104 116.989 46.083 116.797 46.1143L116.881 46.0481L116.628 46.2502C116.345 46.386 116.826 45.9855 116.452 46.1945C116.498 46.2084 116.218 46.4488 116.234 46.3617L116.351 46.2676C116.309 46.2676 116.257 46.3024 116.267 46.2676C116.335 46.2258 116.429 46.1213 116.384 46.1074L116.537 45.9994L116.286 46.1318C116.361 45.9715 116.153 46.0377 116.286 45.8705C116.286 45.8705 116.273 45.6928 116.088 45.8356C116.208 45.7555 116.198 45.658 116.332 45.557C116.192 45.6475 116.033 45.665 116.127 45.5082L116.146 45.5012C116.169 45.2609 115.802 45.4803 115.86 45.2225C115.74 45.3584 115.76 45.233 115.61 45.4141C115.36 45.4768 115.756 44.8847 115.233 45.3689C115.165 45.3515 115.295 45.1912 115.298 45.1389L115.334 45.1215C115.213 45.0762 115.184 45.0553 115.135 44.9822C115.057 45.0031 114.83 45.2435 114.83 45.1285C114.937 45.0484 114.898 45.0449 114.875 45.024C114.901 45.024 114.94 44.9891 114.969 44.8951C114.937 44.923 114.914 44.9334 114.895 44.9439C114.901 44.9369 114.904 44.9299 114.914 44.9195C114.849 44.9195 114.826 44.9543 114.83 44.9857C114.817 44.9996 114.8 45.0205 114.781 45.0519C114.859 44.8881 114.674 44.9578 114.82 44.7836C114.683 44.7174 114.453 44.8185 114.309 44.8011C114.378 44.7035 114.466 44.6443 114.521 44.6338L114.43 44.606C114.54 44.4806 114.527 44.5677 114.57 44.5607C114.674 44.282 114.241 44.6164 114.316 44.3412L114.212 44.4248L114.222 44.4039C114.176 44.4597 114.095 44.5119 114.069 44.5189C114.15 44.3935 114.287 44.2611 114.238 44.2263C114.293 44.0834 114.095 44.1879 113.997 44.2054C114.007 44.2472 113.945 44.3029 113.903 44.3343C113.877 44.3168 113.958 44.1914 113.903 44.2263L114.027 44.0695C113.916 44.2228 113.841 44.1705 113.783 44.2263C113.864 44.1009 113.897 44.1601 113.971 44.08C113.871 44.0103 113.923 44.0451 113.822 43.9789C113.682 44.0521 113.711 44.1322 113.581 44.2472C113.516 44.2402 113.389 44.3099 113.419 44.174L113.324 44.3238C113.162 44.3621 113.129 44.3029 113.188 44.1183C112.459 44.4248 112.134 44.7941 111.985 45.0728C111.835 45.3549 111.861 45.5535 111.861 45.5535C111.832 46.0481 112.258 45.7451 112.596 45.874L112.603 45.867Z" fill="#20BB65"/>
<path d="M121.94 58.3241L121.875 58.3659C121.908 58.3589 121.934 58.345 121.94 58.3241Z" fill="#20BB65"/>
<path d="M122.509 64.7163C122.509 64.7163 122.519 64.7198 122.525 64.7232C122.519 64.7198 122.516 64.7163 122.509 64.7163Z" fill="#20BB65"/>
<path d="M119.784 59.7348C119.784 59.7348 119.775 59.7348 119.765 59.7314H119.784V59.7348Z" fill="#20BB65"/>
<path d="M119.755 58.5401C119.736 58.864 119.427 59.0138 119.619 59.296C119.619 59.4492 119.719 59.5956 119.784 59.7314C120.048 59.7523 119.817 59.923 120.041 59.9683L119.905 60.0241C119.983 60.0415 120.035 60.0659 119.963 60.1077L119.921 60.1146C120.035 60.139 119.98 60.1982 120.035 60.2087H119.993L120.019 60.2609H119.957C120.084 60.3167 120.1 60.3933 120.058 60.4699L120.23 60.4386C120.054 60.6128 120.422 60.6162 120.207 60.78H120.165C120.646 60.8914 119.882 61.0865 120.337 61.205C120.282 61.191 120.249 61.2259 120.207 61.2293C120.266 61.3025 120.301 61.3861 120.643 61.3478C120.643 61.407 120.539 61.407 120.409 61.4279C120.558 61.4105 120.627 61.4558 120.64 61.5011L120.581 61.4871L120.643 61.6125L120.926 61.5568C120.851 61.6369 120.581 61.6091 120.656 61.6683L120.89 61.6439C120.851 61.7449 120.5 61.8355 120.334 61.9435C120.262 62.3302 120.883 62.7133 120.48 63.0965L120.305 63.1174C120.045 63.1314 120.692 63.2045 120.451 63.2254L120.571 63.2637C120.526 63.2776 120.477 63.302 120.418 63.2846C120.409 63.3229 120.451 63.3229 120.529 63.3473L120.37 63.3926C120.246 63.5459 120.562 63.6713 120.5 63.8315C120.171 64.0231 120.474 64.3854 120.643 64.6014C121.026 64.9149 119.976 65.211 120.405 65.5315C120.37 65.5385 120.448 65.5698 120.48 65.5698L120.428 65.8415C120.428 65.8415 120.379 66.1725 120.604 66.4024C120.828 66.6288 121.329 66.7891 122.444 66.3467L122.499 66.3606C122.649 66.2108 122.688 66.1063 122.411 65.9739C122.759 65.9809 122.457 65.8415 122.571 65.8137L122.6 65.8206C122.34 65.7022 122.834 65.6291 122.6 65.5176C122.626 65.5245 122.724 65.5315 122.727 65.5524C122.688 65.4793 122.613 65.3782 122.815 65.3852C122.769 65.2145 122.873 64.9811 122.551 64.8627L122.607 64.8731C122.389 64.8034 122.577 64.793 122.467 64.7198C122.493 64.7198 122.506 64.7129 122.519 64.7129C122.304 64.6397 122.49 64.5178 122.398 64.4621H122.532L122.502 64.3297L122.473 64.3785C122.103 64.3576 122.707 64.2809 122.467 64.1834C122.512 64.0928 121.699 63.9988 121.878 63.9082C121.706 63.8664 122.161 63.9465 122.028 63.8803C122.22 63.8803 122.148 63.9117 122.304 63.8942C122.213 63.8315 122.503 63.7862 122.372 63.7061H122.522C122.246 63.6016 122.717 63.5006 122.454 63.4344C122.327 63.3299 122.899 63.3508 122.603 63.2463L122.805 63.1975C122.837 63.1488 122.555 63.1697 122.652 63.1139C122.779 63.1139 122.753 63.0408 122.876 63.0687C123.071 62.9363 122.584 62.8318 122.915 62.6541C122.665 62.6297 122.811 62.5426 122.623 62.5252C122.73 62.5148 122.633 62.3615 122.873 62.4381C122.893 62.4451 122.889 62.459 122.847 62.459H122.993C123.27 62.351 122.831 62.3023 122.87 62.2082C122.821 62.2396 122.837 62.2744 122.737 62.257L122.753 62.1699L122.88 62.1803L122.945 62.048L122.792 62.0759C122.867 62.0097 123.127 61.9678 122.906 61.9121C122.782 61.8912 122.704 61.9853 122.649 61.926C122.75 61.8355 122.896 61.6996 122.935 61.5882C122.763 61.6125 122.766 61.5881 122.73 61.5603L122.88 61.5429C122.662 61.4488 123.205 61.4697 123.029 61.3757H123.133H122.818C122.512 61.306 123.123 61.2886 122.711 61.2189C122.74 61.2607 122.382 61.2746 122.444 61.2154H122.59C122.558 61.1875 122.496 61.1841 122.525 61.1597C122.607 61.1701 122.737 61.1457 122.707 61.1039L122.893 61.1144L122.62 61.0621C122.769 60.982 122.564 60.9019 122.763 60.8497C122.763 60.8497 122.847 60.6998 122.623 60.6964C122.763 60.7068 122.808 60.6232 122.974 60.6232C122.815 60.6058 122.675 60.5187 122.834 60.4525L122.854 60.4595C123.003 60.2784 122.587 60.2261 122.776 60.0519C122.603 60.0833 122.688 59.9962 122.47 60.0519C122.236 59.9439 122.88 59.714 122.194 59.7767C122.148 59.7175 122.343 59.6722 122.372 59.6339L122.411 59.6443C122.337 59.5329 122.327 59.498 122.327 59.404C122.252 59.3691 121.937 59.4214 121.999 59.3274C122.129 59.3274 122.099 59.303 122.093 59.2716C122.116 59.2855 122.164 59.2855 122.239 59.2298C122.2 59.2298 122.174 59.2298 122.151 59.2228C122.161 59.2228 122.168 59.2159 122.181 59.2159C122.129 59.1741 122.09 59.1915 122.077 59.2159C122.057 59.2159 122.034 59.2263 121.999 59.2403C122.151 59.1567 121.963 59.0974 122.177 59.0487C122.099 58.9058 121.862 58.8466 121.755 58.7386C121.862 58.7003 121.966 58.7073 122.015 58.7386L121.956 58.6585C122.116 58.6237 122.057 58.6899 122.096 58.7108C122.333 58.547 121.797 58.5505 122.008 58.3729H121.878L121.898 58.3624C121.833 58.3763 121.735 58.3729 121.712 58.3589C121.846 58.3102 122.031 58.2858 122.012 58.2266C122.135 58.1464 121.917 58.1046 121.829 58.0594C121.813 58.0977 121.735 58.1081 121.683 58.1046C121.673 58.0768 121.807 58.0245 121.742 58.0141L121.927 57.9653C121.755 58.021 121.722 57.934 121.644 57.9409C121.777 57.8887 121.774 57.9583 121.878 57.9409C121.833 57.8225 121.855 57.8817 121.813 57.7633C121.66 57.7354 121.641 57.819 121.472 57.8294C121.423 57.7807 121.283 57.7598 121.381 57.6657L121.222 57.7284C121.069 57.6587 121.072 57.5891 121.222 57.4741C120.461 57.2686 119.999 57.3731 119.726 57.5089C119.453 57.6483 119.365 57.8225 119.365 57.8225C119.072 58.2056 119.583 58.2161 119.784 58.5331L119.755 58.5401Z" fill="#20BB65"/>
<path d="M120.675 74.505H120.601C120.63 74.5155 120.659 74.519 120.675 74.505Z" fill="#20BB65"/>
<path d="M118.107 80.2598C118.107 80.2598 118.114 80.2667 118.117 80.2736C118.117 80.2667 118.11 80.2633 118.107 80.2598Z" fill="#20BB65"/>
<path d="M118.15 74.4666C118.15 74.4666 118.14 74.4562 118.136 74.4528L118.15 74.4666Z" fill="#20BB65"/>
<path d="M118.725 73.4251C118.546 73.6899 118.211 73.6411 118.227 73.993C118.149 74.1253 118.162 74.3065 118.149 74.4632C118.36 74.6339 118.081 74.6479 118.25 74.8151L118.104 74.7872C118.162 74.843 118.195 74.8952 118.11 74.8917L118.071 74.8708C118.156 74.9579 118.078 74.9753 118.12 75.0171L118.081 74.9962V75.052L118.026 75.0171C118.104 75.1355 118.081 75.2122 118.006 75.254L118.169 75.3236C117.934 75.3759 118.247 75.5849 117.983 75.6058L117.944 75.5849C118.302 75.9437 117.554 75.6894 117.886 76.0448C117.843 75.9995 117.801 76.0134 117.762 75.9925C117.775 76.09 117.765 76.1771 118.078 76.3374C118.048 76.3896 117.96 76.3304 117.837 76.2781C117.973 76.3478 118.009 76.421 117.999 76.4697L117.954 76.4245L117.948 76.5673L118.214 76.6753C118.11 76.6996 117.892 76.529 117.928 76.623L118.139 76.731C118.058 76.7972 117.713 76.6822 117.518 76.6822C117.268 76.9783 117.622 77.6506 117.092 77.7656L116.93 77.689C116.699 77.5636 117.222 77.9711 117.005 77.8631L117.089 77.9607C117.044 77.9468 116.988 77.9433 116.946 77.8945C116.92 77.9224 116.956 77.9468 117.011 78.013L116.852 77.9677C116.673 78.0373 116.888 78.3125 116.754 78.4205C116.38 78.4135 116.471 78.8908 116.517 79.1695C116.702 79.6467 115.655 79.3541 115.88 79.8627C115.844 79.8488 115.899 79.9184 115.925 79.9358L115.753 80.1484C115.753 80.1484 115.561 80.4131 115.652 80.7336C115.746 81.0506 116.117 81.4442 117.291 81.6358L117.333 81.6741C117.531 81.6219 117.613 81.5522 117.431 81.2909C117.73 81.479 117.528 81.2004 117.642 81.2352L117.665 81.2561C117.489 81.0192 117.957 81.2108 117.801 80.9948C117.824 81.0122 117.902 81.0715 117.895 81.0924C117.895 81.0088 117.876 80.8834 118.048 80.9948C118.084 80.8241 118.282 80.6744 118.058 80.4061L118.104 80.4444C117.947 80.2703 118.113 80.3573 118.052 80.2389C118.078 80.2493 118.091 80.2528 118.1 80.2598C117.947 80.0856 118.162 80.0752 118.11 79.9811L118.227 80.0508L118.263 79.9219L118.214 79.9498C117.902 79.7338 118.461 79.9916 118.299 79.7791C118.38 79.7268 117.717 79.2113 117.915 79.2287C117.785 79.0998 118.143 79.4133 118.055 79.2844C118.224 79.3854 118.146 79.375 118.286 79.4412C118.237 79.3367 118.507 79.4551 118.429 79.3158L118.562 79.3924C118.37 79.159 118.825 79.3227 118.627 79.1242C118.565 78.9674 119.05 79.2914 118.845 79.0406L119.043 79.1067C119.095 79.0824 118.842 78.95 118.949 78.9535C119.059 79.0232 119.069 78.9465 119.163 79.0371C119.394 79.0301 119.02 78.6748 119.391 78.7027C119.186 78.5459 119.352 78.5494 119.196 78.4344C119.294 78.4832 119.28 78.3021 119.453 78.4971C119.466 78.5145 119.456 78.525 119.42 78.5006L119.547 78.5842C119.836 78.64 119.482 78.3613 119.56 78.3021C119.505 78.3021 119.502 78.3404 119.42 78.2707L119.472 78.2045L119.576 78.2812L119.693 78.2045L119.547 78.1453C119.645 78.1279 119.885 78.2359 119.719 78.0687C119.625 77.9816 119.508 78.0199 119.495 77.9398C119.622 77.9189 119.817 77.884 119.901 77.8074C119.742 77.7342 119.758 77.7134 119.739 77.6681L119.875 77.7343C119.732 77.5357 120.191 77.8527 120.087 77.675L120.178 77.7343L119.908 77.5601C119.68 77.3337 120.21 77.6541 119.889 77.3685C119.895 77.4207 119.58 77.2326 119.661 77.2152L119.788 77.2953C119.771 77.2535 119.723 77.2187 119.755 77.2152C119.82 77.2675 119.944 77.3197 119.937 77.271L120.09 77.3789L119.882 77.1804C120.048 77.1943 119.911 77.0132 120.106 77.0828C120.106 77.0828 120.253 77.0027 120.061 76.8738C120.178 76.9609 120.256 76.9156 120.396 77.0062C120.266 76.9017 120.191 76.7519 120.36 76.7868L120.373 76.8007C120.588 76.731 120.259 76.4523 120.503 76.414C120.34 76.3443 120.454 76.3165 120.243 76.2398C120.093 76.0169 120.757 76.1876 120.142 75.8532C120.132 75.7765 120.318 75.8497 120.363 75.8323L120.392 75.8601C120.386 75.7243 120.392 75.6894 120.438 75.6093C120.392 75.5397 120.1 75.4038 120.197 75.362C120.308 75.4386 120.295 75.3968 120.308 75.3689C120.321 75.3933 120.36 75.4177 120.454 75.4177C120.418 75.3968 120.399 75.3794 120.383 75.362C120.392 75.3654 120.399 75.3689 120.412 75.3724C120.389 75.3062 120.347 75.2993 120.324 75.3132C120.308 75.3028 120.282 75.2958 120.246 75.2888C120.418 75.3062 120.285 75.1495 120.49 75.2296C120.496 75.0659 120.324 74.8778 120.285 74.728C120.396 74.7593 120.477 74.8255 120.506 74.8743L120.496 74.7733C120.646 74.836 120.568 74.8569 120.588 74.8952C120.867 74.8952 120.415 74.5886 120.682 74.5643L120.571 74.4911H120.594C120.529 74.4667 120.454 74.4075 120.438 74.3796C120.575 74.4145 120.744 74.5016 120.753 74.4389C120.896 74.4423 120.734 74.2821 120.682 74.195C120.649 74.2194 120.578 74.1811 120.536 74.1462C120.542 74.1149 120.679 74.1497 120.63 74.1044L120.809 74.1706C120.636 74.1184 120.653 74.0243 120.581 73.986C120.721 74.0208 120.682 74.0731 120.779 74.1219C120.802 73.9999 120.789 74.0591 120.812 73.9372C120.698 73.8223 120.64 73.8849 120.49 73.7944C120.474 73.7247 120.366 73.6272 120.493 73.6028L120.327 73.5645C120.236 73.4182 120.272 73.3625 120.457 73.352C119.924 72.7389 119.485 72.5508 119.186 72.5055C118.887 72.4602 118.721 72.5578 118.721 72.5578C118.279 72.711 118.702 73.0245 118.712 73.4112L118.725 73.4251Z" fill="#20BB65"/>
<path d="M112.248 87.9688L112.183 87.9305C112.206 87.9549 112.228 87.9723 112.248 87.9688Z" fill="#20BB65"/>
<path d="M107.595 91.9331C107.595 91.9331 107.595 91.9434 107.599 91.9503C107.599 91.9434 107.599 91.9365 107.595 91.9331Z" fill="#20BB65"/>
<path d="M109.999 86.7354C109.999 86.7354 109.995 86.7251 109.992 86.7182L109.999 86.7354Z" fill="#20BB65"/>
<path d="M110.951 86.0703C110.678 86.2236 110.398 86.0215 110.268 86.3455C110.144 86.4291 110.079 86.5998 110.001 86.7322C110.122 86.9865 109.865 86.868 109.946 87.0945L109.829 87.0004C109.855 87.0771 109.865 87.1432 109.793 87.098L109.767 87.0631C109.81 87.1816 109.731 87.1607 109.751 87.2199L109.725 87.1851L109.699 87.2338L109.666 87.1781C109.689 87.3244 109.637 87.3801 109.553 87.3801L109.67 87.5195C109.436 87.4568 109.631 87.7877 109.387 87.6867L109.361 87.6518C109.533 88.143 108.967 87.5613 109.117 88.0385C109.097 87.9793 109.052 87.9689 109.029 87.934C109.003 88.0281 108.958 88.1047 109.172 88.3938C109.127 88.4287 109.068 88.3346 108.98 88.2266C109.075 88.352 109.075 88.4356 109.049 88.4739L109.029 88.4113L108.964 88.5367L109.159 88.7596C109.055 88.7352 108.932 88.4774 108.922 88.5785L109.068 88.777C108.967 88.7979 108.704 88.5332 108.528 88.4426C108.181 88.5924 108.226 89.3657 107.703 89.2194L107.586 89.0731C107.43 88.8502 107.735 89.4633 107.586 89.2647L107.621 89.3936C107.586 89.3588 107.537 89.3309 107.521 89.2682C107.485 89.2821 107.508 89.3204 107.534 89.4041L107.407 89.2891C107.218 89.2682 107.296 89.6165 107.137 89.6549C106.802 89.4772 106.692 89.9475 106.62 90.2227C106.597 90.7382 105.768 89.9928 105.765 90.5536C105.739 90.5258 105.762 90.6128 105.778 90.6407L105.537 90.7522C105.537 90.7522 105.254 90.902 105.209 91.2364C105.167 91.5673 105.342 92.0933 106.324 92.804L106.347 92.8597C106.548 92.905 106.646 92.8771 106.587 92.5601C106.783 92.8702 106.711 92.5218 106.802 92.6054L106.815 92.6333C106.753 92.3372 107.095 92.7273 107.046 92.4591C107.059 92.487 107.108 92.5741 107.091 92.5915C107.124 92.5148 107.156 92.3929 107.27 92.574C107.374 92.4347 107.608 92.3929 107.514 92.0445L107.54 92.1003C107.469 91.8704 107.582 92.0271 107.576 91.8913C107.592 91.9122 107.605 91.9226 107.612 91.9331C107.543 91.7032 107.742 91.7972 107.732 91.6858L107.81 91.8042L107.895 91.7032H107.839C107.647 91.3653 108.047 91.8565 107.986 91.5882C108.08 91.5778 107.69 90.8044 107.862 90.9159C107.797 90.7382 107.992 91.1876 107.966 91.0309C108.077 91.1981 108.012 91.1563 108.112 91.2817C108.112 91.1632 108.307 91.3966 108.294 91.2364L108.382 91.3653C108.304 91.0657 108.646 91.4245 108.548 91.1563C108.558 90.9856 108.86 91.5046 108.776 91.1806L108.928 91.3339C108.984 91.3339 108.808 91.097 108.909 91.1528C108.98 91.2677 109.019 91.2016 109.068 91.327C109.28 91.4315 109.084 90.9368 109.406 91.1319C109.283 90.895 109.432 90.9751 109.341 90.8009C109.41 90.8915 109.471 90.7208 109.546 90.9751C109.553 90.996 109.54 91.003 109.514 90.9647L109.595 91.097C109.832 91.2817 109.627 90.8671 109.722 90.8462C109.673 90.8218 109.653 90.8532 109.611 90.7522L109.686 90.7173L109.748 90.8358L109.884 90.8218L109.777 90.6999C109.871 90.7313 110.047 90.9403 109.966 90.7104C109.914 90.5884 109.797 90.571 109.816 90.4909C109.94 90.5292 110.128 90.5919 110.232 90.564C110.118 90.4247 110.141 90.4108 110.141 90.3655L110.235 90.4909C110.187 90.2471 110.47 90.7452 110.447 90.5362L110.505 90.6303L110.333 90.3481C110.219 90.038 110.567 90.578 110.395 90.1669C110.378 90.2157 110.174 89.9022 110.252 89.9231L110.333 90.052C110.333 90.0067 110.304 89.951 110.339 89.9649C110.375 90.0415 110.466 90.146 110.483 90.1008L110.574 90.2714L110.466 89.9962C110.609 90.0868 110.561 89.8604 110.707 90.0137C110.707 90.0137 110.869 90.0102 110.749 89.8047C110.817 89.937 110.905 89.9335 110.993 90.0833C110.918 89.93 110.912 89.7594 111.048 89.8673L111.055 89.8883C111.276 89.9266 111.094 89.5225 111.328 89.6026C111.211 89.4633 111.325 89.4946 111.165 89.3239C111.123 89.0522 111.646 89.5225 111.234 88.9268C111.256 88.8537 111.393 89.0069 111.442 89.0139L111.455 89.0522C111.503 88.9268 111.523 88.899 111.598 88.8502C111.585 88.7666 111.377 88.5053 111.484 88.5122C111.549 88.6307 111.559 88.5924 111.578 88.5715C111.578 88.5994 111.604 88.6412 111.689 88.683C111.666 88.6481 111.656 88.6237 111.65 88.5993C111.656 88.6063 111.663 88.6133 111.672 88.6237C111.679 88.5541 111.646 88.5297 111.617 88.5297C111.604 88.5123 111.588 88.4948 111.559 88.4704C111.705 88.568 111.653 88.3625 111.803 88.5332C111.874 88.3903 111.796 88.1396 111.825 87.9863C111.91 88.0664 111.959 88.1639 111.962 88.2231L111.994 88.1291C112.105 88.258 112.024 88.2371 112.027 88.2824C112.277 88.4147 112.001 87.9271 112.248 88.0316L112.18 87.9131L112.199 87.9236C112.154 87.8713 112.108 87.7807 112.105 87.7494C112.212 87.8469 112.326 88.0037 112.362 87.9549C112.489 88.028 112.411 87.8051 112.401 87.7041C112.362 87.7111 112.316 87.6414 112.29 87.5926C112.307 87.5683 112.417 87.6658 112.391 87.5996L112.524 87.7459C112.391 87.617 112.443 87.5404 112.398 87.4707C112.508 87.5682 112.45 87.5961 112.518 87.6867C112.589 87.5856 112.554 87.6379 112.625 87.5369C112.57 87.3801 112.492 87.408 112.398 87.2547C112.411 87.185 112.355 87.0457 112.479 87.0875L112.345 86.9726C112.326 86.7984 112.381 86.767 112.55 86.8437C112.329 86.039 112.017 85.6593 111.77 85.4746C111.52 85.29 111.334 85.3005 111.334 85.3005C110.876 85.2273 111.12 85.708 110.967 86.0599L110.951 86.0703Z" fill="#20BB65"/>
<path d="M99.2237 96.2074L99.1782 96.1447C99.188 96.176 99.2042 96.2039 99.2237 96.2074Z" fill="#20BB65"/>
<path d="M93.4492 97.6809C93.4492 97.6809 93.4492 97.6912 93.4492 97.6981C93.4492 97.6912 93.4527 97.6878 93.4492 97.6809Z" fill="#20BB65"/>
<path d="M98.8042 93.8978C98.4953 93.9117 98.323 93.6017 98.0759 93.8351C97.9296 93.8525 97.806 93.9779 97.6792 94.0615C97.6857 94.3437 97.5004 94.1207 97.4841 94.3646L97.4159 94.2252C97.4094 94.3088 97.3931 94.3681 97.3443 94.2984L97.3346 94.2531C97.3248 94.3785 97.2631 94.3263 97.2566 94.389L97.2468 94.3437L97.2045 94.3785L97.198 94.3123C97.159 94.4517 97.0908 94.4795 97.0127 94.4447L97.0647 94.6258C96.8794 94.4621 96.9217 94.8523 96.7428 94.6468L96.7331 94.6015C96.6941 95.124 96.4112 94.3402 96.3592 94.8383C96.3657 94.7756 96.3299 94.7478 96.3202 94.7025C96.2584 94.7756 96.1869 94.8244 96.2682 95.1797C96.2129 95.1902 96.1999 95.0787 96.1609 94.9429C96.1967 95.0996 96.1641 95.1762 96.1251 95.1971L96.1316 95.1309L96.0211 95.2146L96.1089 95.5072C96.0243 95.4375 96.0113 95.1484 95.9658 95.2355L96.0211 95.4828C95.9203 95.4584 95.787 95.0961 95.6634 94.9359C95.2895 94.915 95.0229 95.6326 94.6068 95.2668L94.558 95.0822C94.5027 94.8105 94.5385 95.5037 94.48 95.2529L94.4637 95.3853C94.4442 95.34 94.4117 95.2912 94.4214 95.225C94.3824 95.2215 94.3922 95.2668 94.3791 95.3539L94.3109 95.1902C94.1483 95.0857 94.0833 95.4375 93.9207 95.3992C93.6867 95.0857 93.4005 95.4619 93.2282 95.6814C93.0039 96.1377 92.5454 95.0892 92.3211 95.5943C92.3081 95.556 92.2951 95.6465 92.2984 95.6779L92.035 95.6709C92.035 95.6709 91.7196 95.6813 91.5473 95.9635C91.3782 96.2457 91.3327 96.7996 91.9472 97.8899V97.9491C92.1098 98.078 92.2106 98.0989 92.2821 97.7854C92.3374 98.1547 92.4089 97.8063 92.4577 97.9247V97.9561C92.5162 97.66 92.6755 98.1686 92.734 97.9038C92.734 97.9352 92.7438 98.0362 92.7243 98.0432C92.7828 97.9875 92.8608 97.8934 92.8933 98.1059C93.0396 98.0258 93.2705 98.0954 93.3225 97.7366V97.7958C93.3485 97.5555 93.3908 97.7506 93.4363 97.6217C93.4428 97.6495 93.4493 97.6635 93.4493 97.6739C93.4785 97.437 93.6216 97.6077 93.6574 97.5032L93.6802 97.6461L93.7972 97.5938L93.7484 97.5694C93.7062 97.1758 93.8752 97.7993 93.9273 97.5311C94.0183 97.5659 93.9663 96.6881 94.0801 96.8658C94.0898 96.6742 94.0931 97.1688 94.1288 97.019C94.1646 97.2211 94.1223 97.1514 94.1613 97.3116C94.2036 97.2036 94.2914 97.5033 94.3434 97.35L94.3727 97.5067C94.4214 97.2002 94.5873 97.6809 94.6068 97.3918C94.6815 97.242 94.7531 97.8481 94.8018 97.5172L94.8799 97.7227C94.9319 97.7471 94.8669 97.4545 94.9319 97.5485C94.9514 97.6844 95.0132 97.6426 95.0067 97.7784C95.1562 97.9666 95.1757 97.4336 95.3903 97.7575C95.3741 97.4893 95.4749 97.6287 95.4619 97.4266C95.4879 97.5381 95.6114 97.4127 95.5789 97.6774C95.5789 97.6983 95.5626 97.6983 95.5561 97.653L95.5756 97.8098C95.7154 98.085 95.6959 97.6147 95.787 97.6426C95.7512 97.5973 95.7219 97.6182 95.7219 97.5067H95.8032L95.813 97.6426L95.943 97.6914L95.8943 97.5346C95.9658 97.6042 96.0438 97.8725 96.0601 97.6286C96.0601 97.4963 95.9625 97.4231 96.0113 97.3604C96.1088 97.451 96.2552 97.5938 96.3592 97.6147C96.3104 97.437 96.3397 97.4371 96.3592 97.3918L96.395 97.5485C96.447 97.3047 96.5055 97.8829 96.5706 97.6844L96.5868 97.7958L96.5413 97.4614C96.5608 97.127 96.6616 97.7749 96.6681 97.3256C96.6356 97.3639 96.5738 96.9842 96.6356 97.0399L96.6583 97.1932C96.6778 97.1549 96.6713 97.0887 96.6973 97.1166C96.6973 97.2037 96.7396 97.3395 96.7721 97.3012L96.7884 97.4963L96.8014 97.2002C96.8957 97.3465 96.9412 97.12 97.0127 97.3256C97.0127 97.3256 97.1623 97.3952 97.133 97.1549C97.1428 97.3047 97.224 97.343 97.2435 97.5172C97.237 97.3465 97.2988 97.1863 97.3801 97.35V97.3709C97.5622 97.5102 97.5557 97.0573 97.7378 97.2385C97.6857 97.0608 97.7768 97.1375 97.702 96.9145C97.7703 96.6498 98.0596 97.3151 97.9198 96.5871C97.9686 96.5313 98.0336 96.7334 98.0726 96.7612V96.803C98.1637 96.7125 98.1929 96.6951 98.2775 96.6846C98.3002 96.6045 98.2157 96.2701 98.31 96.3293C98.323 96.4686 98.3457 96.4338 98.3717 96.4268C98.3587 96.4547 98.3685 96.5035 98.427 96.5801C98.4205 96.5383 98.4205 96.5104 98.4238 96.486C98.4238 96.4965 98.4303 96.5035 98.4335 96.5174C98.466 96.4582 98.4465 96.4199 98.4205 96.4059C98.4173 96.385 98.4075 96.3606 98.3913 96.3258C98.4856 96.4791 98.5181 96.2735 98.5863 96.493C98.7066 96.3955 98.7359 96.1342 98.8237 96.0088C98.8692 96.1203 98.8724 96.2318 98.8529 96.2875L98.9212 96.2178C98.97 96.385 98.9049 96.3293 98.8887 96.3711C99.0642 96.608 99.0057 96.0367 99.1878 96.2457L99.1716 96.1063L99.1846 96.1273C99.1618 96.0576 99.1586 95.9565 99.1683 95.9287C99.2268 96.068 99.2691 96.2596 99.3211 96.2317C99.4057 96.3537 99.4252 96.1203 99.4544 96.0227C99.4154 96.0088 99.4024 95.9252 99.3992 95.8695C99.4252 95.8556 99.4837 95.9914 99.4869 95.9217L99.5487 96.1133C99.4804 95.9357 99.5584 95.8904 99.5422 95.8068C99.604 95.9426 99.539 95.9461 99.565 96.0576C99.669 95.9983 99.617 96.0297 99.721 95.9705C99.734 95.8033 99.6527 95.7928 99.6267 95.6117C99.6657 95.5559 99.6723 95.4027 99.7666 95.4967L99.6918 95.333C99.7438 95.1658 99.8056 95.1623 99.9259 95.3121C100.046 94.483 99.9161 93.9988 99.7633 93.7167C99.6105 93.4345 99.4382 93.3578 99.4382 93.3578C99.0513 93.0826 99.0805 93.6295 98.8009 93.8769L98.8042 93.8978Z" fill="#20BB65"/>
<path d="M84.8076 97.9387L84.8007 97.862C84.8007 97.8969 84.8007 97.9282 84.8076 97.9387Z" fill="#20BB65"/>
<path d="M81.813 97.5833C81.813 97.5833 81.813 97.5937 81.8062 97.6006C81.8062 97.5937 81.8096 97.5902 81.813 97.5833Z" fill="#20BB65"/>
<path d="M84.5668 95.3676C84.5668 95.3676 84.5668 95.3573 84.5702 95.3504L84.5634 95.3676H84.5668Z" fill="#20BB65"/>
<path d="M85.1192 95.6256C84.9761 95.5211 84.9631 95.1693 84.7973 95.2947C84.7258 95.2598 84.6413 95.333 84.5632 95.3678C84.5047 95.6361 84.469 95.3609 84.4072 95.5873V95.4305C84.3844 95.5072 84.3617 95.5594 84.3551 95.4723L84.3617 95.4271C84.3291 95.542 84.3129 95.4688 84.2966 95.5281L84.3031 95.4828L84.2771 95.5002L84.2869 95.4375C84.2381 95.5559 84.1991 95.5629 84.1731 95.5002L84.1568 95.6883C84.1048 95.4723 84.043 95.8555 84.0008 95.6012L84.0073 95.5559C83.8772 96.0402 83.913 95.2041 83.7829 95.6639C83.7992 95.6082 83.7894 95.5664 83.7927 95.5211C83.7472 95.5699 83.7049 95.5942 83.6659 95.96C83.6366 95.953 83.6561 95.8416 83.6659 95.6987C83.6496 95.859 83.6171 95.9217 83.5944 95.9287L83.6106 95.8695L83.5423 95.9147L83.5228 96.2178C83.5001 96.1273 83.5553 95.8485 83.5163 95.9147L83.4903 96.1656C83.448 96.1098 83.4643 95.7266 83.4416 95.535C83.2692 95.4027 82.9928 96.0158 82.8758 95.549L82.8921 95.3608C82.9246 95.0857 82.7913 95.7615 82.8173 95.5072L82.7815 95.6291C82.7815 95.5803 82.7783 95.5246 82.7945 95.4654C82.7783 95.4514 82.7718 95.4967 82.7458 95.5768V95.4026C82.6938 95.2598 82.5864 95.5803 82.5182 95.5002C82.4726 95.1379 82.2581 95.4305 82.128 95.5977C81.9264 95.9844 81.9264 94.8627 81.7119 95.3086C81.7119 95.2703 81.6891 95.3539 81.6826 95.3853L81.5558 95.3225C81.5558 95.3225 81.403 95.2668 81.2599 95.5037C81.1201 95.7406 80.9836 96.2735 81.0518 97.4544L81.0389 97.5137C81.0909 97.6739 81.1331 97.7122 81.2339 97.4231C81.1852 97.7924 81.2892 97.4719 81.2892 97.5938L81.2827 97.6251C81.3737 97.3499 81.3412 97.876 81.4257 97.6321C81.4192 97.66 81.403 97.761 81.3932 97.7645C81.4322 97.7227 81.4908 97.6495 81.4582 97.8655C81.546 97.8237 81.6403 97.9422 81.7378 97.6077L81.7249 97.6669C81.7866 97.4405 81.7671 97.6391 81.8159 97.5276C81.8159 97.5555 81.8127 97.5694 81.8127 97.5833C81.8777 97.3604 81.9069 97.5625 81.9459 97.4684L81.9264 97.6112L81.9915 97.5868L81.972 97.552C82.037 97.1618 81.9849 97.8063 82.063 97.559C82.0987 97.6147 82.2613 96.7578 82.2776 96.9563C82.3231 96.7752 82.219 97.2524 82.2678 97.1166C82.2418 97.3221 82.2353 97.2419 82.2223 97.4057C82.2646 97.3151 82.2418 97.6216 82.3004 97.4893L82.2808 97.6495C82.3686 97.3674 82.3459 97.8725 82.4141 97.6008C82.4824 97.4754 82.3849 98.078 82.4792 97.7749L82.4726 97.9944C82.4921 98.0327 82.5214 97.7331 82.5344 97.8411C82.5149 97.977 82.5507 97.9526 82.5214 98.0815C82.5507 98.3044 82.6742 97.7958 82.7035 98.1651C82.7523 97.9038 82.7718 98.0641 82.8075 97.869C82.7945 97.984 82.8791 97.8968 82.8075 98.1442C82.801 98.1651 82.7945 98.1581 82.801 98.1128L82.7783 98.2696C82.7848 98.5726 82.8758 98.1163 82.9116 98.1686C82.9051 98.1163 82.8856 98.1268 82.9116 98.0188L82.9474 98.0467L82.9246 98.179L82.9734 98.2626L82.9831 98.0989C83.0026 98.186 82.9798 98.4682 83.0384 98.2382C83.0676 98.1093 83.0384 98.0153 83.0742 97.9665C83.1002 98.085 83.1359 98.2591 83.1814 98.3149C83.1977 98.1302 83.2107 98.1372 83.227 98.1024L83.2107 98.2626C83.2887 98.0467 83.1912 98.6179 83.2627 98.4472L83.2464 98.5587L83.2985 98.2243C83.3798 97.9143 83.2887 98.5587 83.3863 98.1338C83.3635 98.1581 83.4155 97.7784 83.4318 97.8516L83.409 98.0048C83.4253 97.9735 83.4383 97.9108 83.4448 97.9421C83.4285 98.0258 83.4155 98.1651 83.4383 98.1442L83.4025 98.3358L83.4708 98.0571C83.4838 98.2278 83.5521 98.0258 83.5423 98.2452C83.5423 98.2452 83.5944 98.3602 83.6366 98.1233C83.6074 98.2696 83.6366 98.3323 83.6106 98.503C83.6431 98.3358 83.7081 98.2069 83.7081 98.388L83.7016 98.4089C83.7569 98.6005 83.8512 98.172 83.8967 98.402C83.913 98.2138 83.9357 98.3219 83.952 98.0815C84.0398 97.8551 84.03 98.5796 84.1211 97.8446C84.1568 97.8098 84.1406 98.0223 84.1536 98.0606L84.1438 98.0989C84.2056 98.0432 84.2251 98.0397 84.2641 98.0606C84.2934 97.9909 84.3259 97.6495 84.3551 97.7366C84.3324 97.8725 84.3487 97.8481 84.3617 97.8481C84.3519 97.869 84.3421 97.9177 84.3551 98.0118C84.3617 97.97 84.3682 97.9456 84.3747 97.9247C84.3747 97.9352 84.3747 97.9422 84.3747 97.9596C84.4039 97.9143 84.4007 97.8725 84.3942 97.8516C84.3942 97.8307 84.3974 97.8028 84.3974 97.7645C84.4072 97.9421 84.4657 97.7575 84.4494 97.9944C84.5242 97.9456 84.5957 97.7122 84.664 97.6251C84.664 97.7471 84.638 97.8516 84.6185 97.8969L84.664 97.8551C84.651 98.0292 84.6315 97.9526 84.6153 97.9874C84.6445 98.2731 84.7421 97.7192 84.7811 97.9805L84.8038 97.8446V97.869C84.8103 97.7959 84.8331 97.6983 84.8428 97.6774C84.8396 97.8272 84.8168 98.0257 84.8428 98.0188C84.8558 98.1651 84.9144 97.9526 84.9501 97.8725C84.9371 97.8446 84.9501 97.761 84.9566 97.7087C84.9729 97.7053 84.9697 97.855 84.9859 97.7923L84.9729 97.9944C84.9827 97.8028 85.0249 97.7923 85.0379 97.7087C85.0379 97.8585 85.0054 97.8376 84.9956 97.9491C85.0542 97.9352 85.0249 97.9421 85.0867 97.9282C85.129 97.7784 85.0932 97.7366 85.1224 97.559C85.1517 97.5207 85.1875 97.3813 85.2102 97.5067V97.3256C85.272 97.1897 85.3013 97.2106 85.324 97.3987C85.5614 96.6776 85.6101 96.176 85.6004 95.8555C85.5939 95.535 85.5289 95.3957 85.5289 95.3957C85.4118 94.9846 85.3045 95.5072 85.1224 95.6326L85.1192 95.6256Z" fill="#20BB65"/>
</svg>
