<svg width="97" height="110" viewBox="0 0 97 110" fill="none" xmlns="http://www.w3.org/2000/svg">
<path d="M96.4373 1.4932L96.3634 1.47942C96.3955 1.49319 96.4245 1.50009 96.4373 1.4932Z" fill="#20BB65"/>
<path d="M95.0972 4.71917C95.0972 4.71917 95.1037 4.72573 95.1103 4.729C95.107 4.72245 95.1004 4.72244 95.0972 4.71917Z" fill="#20BB65"/>
<path d="M93.8976 1.01157C93.8976 1.01157 93.8884 1.00502 93.8823 1.00175L93.8976 1.01157Z" fill="#20BB65"/>
<path d="M94.2959 0.49989C94.157 0.624496 93.8145 0.534489 93.8921 0.745628C93.8372 0.811392 93.8856 0.92216 93.8985 1.01215C94.1408 1.15407 93.8662 1.11255 94.0633 1.24407L93.9147 1.19908C93.9825 1.24407 94.0245 1.28213 93.9405 1.26482L93.8985 1.24754C93.9987 1.31677 93.9244 1.31328 93.9761 1.34789L93.9341 1.32714L93.9438 1.36175L93.8856 1.33061C93.9858 1.41714 93.9793 1.46211 93.9147 1.47249L94.0892 1.54521C93.8662 1.53136 94.2151 1.71827 93.9599 1.6802L93.9179 1.65941C94.3411 1.95016 93.5561 1.64558 93.9535 1.93287C93.905 1.89825 93.863 1.89478 93.821 1.87401C93.8533 1.93631 93.863 1.99171 94.199 2.15093C94.1828 2.17862 94.0827 2.12324 93.9535 2.0644C94.1021 2.13362 94.1505 2.18898 94.1505 2.21667L94.0988 2.17861L94.1215 2.2686L94.4057 2.38974C94.3121 2.38628 94.0633 2.23398 94.1182 2.29974L94.3476 2.41053C94.283 2.43822 93.9212 2.29282 93.7338 2.25474C93.5561 2.38973 94.0439 2.89161 93.5658 2.85354L93.3913 2.77047C93.1426 2.63894 93.737 3.01622 93.5044 2.89854L93.6078 2.97818C93.5626 2.96088 93.5076 2.947 93.456 2.90547C93.4366 2.91931 93.4786 2.94008 93.5464 2.99546L93.3849 2.92972C93.2298 2.93664 93.498 3.1616 93.401 3.20313C93.0457 3.1166 93.246 3.44889 93.359 3.64619C93.6466 4.00616 92.6031 3.57698 92.9391 3.96811C92.9035 3.9508 92.9714 4.00961 93.0005 4.02692L92.8971 4.13078C92.8971 4.13078 92.7905 4.26575 92.9552 4.50804C93.1232 4.74687 93.5561 5.11031 94.6803 5.50143L94.7288 5.5395C94.9 5.54642 94.9549 5.51182 94.7223 5.2903C95.0454 5.48759 94.7902 5.24877 94.9032 5.29723L94.9291 5.31455C94.7094 5.11034 95.1875 5.34568 94.9937 5.16223C95.0195 5.17954 95.1068 5.23492 95.1068 5.24877C95.0841 5.18992 95.0389 5.09994 95.2263 5.21416C95.2198 5.1034 95.3684 5.04108 95.0938 4.80918L95.1455 4.84378C94.9582 4.69148 95.1358 4.78842 95.0486 4.6915C95.0745 4.70535 95.0874 4.70879 95.0971 4.71571C94.9129 4.56342 95.1132 4.60498 95.0421 4.52537L95.1681 4.59804V4.51844L95.1326 4.52537C94.7902 4.31423 95.3749 4.60496 95.1746 4.42498C95.2392 4.40421 94.493 3.92307 94.6868 3.97499C94.535 3.86077 94.942 4.14462 94.8322 4.04078C95.0163 4.14462 94.9388 4.12037 95.0874 4.19306C95.0163 4.11345 95.3006 4.24847 95.194 4.13771L95.3361 4.21731C95.1003 4.02002 95.572 4.22424 95.3361 4.05117C95.2424 3.93349 95.7787 4.24846 95.5235 4.04078L95.727 4.12385C95.769 4.11692 95.4977 3.97848 95.6043 4.00271C95.727 4.07194 95.7173 4.02003 95.8272 4.09964C96.0469 4.14117 95.6107 3.82965 95.9725 3.92311C95.7399 3.78119 95.9015 3.81581 95.727 3.70851C95.8336 3.76043 95.7787 3.63583 95.9855 3.79851C96.0016 3.81235 95.9952 3.81581 95.9564 3.79851L96.0953 3.87811C96.3861 3.97156 95.9855 3.71542 96.0469 3.69465C95.9919 3.68427 95.9984 3.70849 95.9047 3.64619L95.9435 3.61505L96.0598 3.68426L96.1567 3.65658L96.0049 3.5908C96.0953 3.59772 96.3537 3.71543 96.1567 3.57351C96.0468 3.49737 95.9435 3.50083 95.9112 3.44545C96.0307 3.45583 96.2116 3.46967 96.2794 3.43852C96.1082 3.35891 96.1211 3.34853 96.0921 3.31738L96.2407 3.38659C96.063 3.23083 96.5702 3.52158 96.4345 3.38659L96.5347 3.44198L96.2342 3.27931C95.9661 3.08894 96.5508 3.397 96.1761 3.15125C96.1922 3.18586 95.8498 3.00586 95.9241 3.00932L96.063 3.08546C96.0404 3.05431 95.9822 3.02314 96.0145 3.0266C96.0888 3.0716 96.2181 3.13047 96.2051 3.09586L96.3764 3.1962L96.1341 3.03007C96.2988 3.06814 96.1308 2.92971 96.3344 3.00932C96.3344 3.00932 96.4604 2.98508 96.2471 2.8674C96.3796 2.94355 96.4474 2.92972 96.6025 3.01625C96.4571 2.92626 96.3505 2.81548 96.525 2.8674L96.5411 2.88126C96.7414 2.8778 96.3635 2.63896 96.5961 2.65973C96.4216 2.58704 96.5314 2.59052 96.3053 2.50052C96.1147 2.33092 96.806 2.55936 96.1341 2.23746C96.1082 2.189 96.3085 2.2686 96.3505 2.26514L96.3828 2.28935C96.3505 2.20282 96.3505 2.18207 96.3828 2.14054C96.3247 2.08862 96.0081 1.95014 96.0985 1.94322C96.2213 2.00898 96.2019 1.98132 96.2084 1.96747C96.2245 1.98478 96.2698 2.00902 96.3634 2.02286C96.3247 2.0021 96.3021 1.98825 96.2827 1.97787C96.2924 1.98133 96.3021 1.98476 96.315 1.99168C96.2794 1.94669 96.2374 1.93634 96.2181 1.9398C96.1987 1.92941 96.1728 1.92246 96.1373 1.91208C96.3117 1.95362 96.1535 1.83248 96.3731 1.91901C96.3505 1.81863 96.1438 1.67326 96.0824 1.57288C96.1987 1.61095 96.2924 1.66633 96.3311 1.70095L96.3053 1.63862C96.4668 1.70439 96.3893 1.70093 96.4184 1.72862C96.6994 1.77708 96.1955 1.51059 96.4604 1.54174L96.3376 1.47942H96.3602C96.2924 1.45865 96.2051 1.40673 96.1858 1.38942C96.3311 1.43442 96.5121 1.5175 96.5153 1.48288C96.6607 1.51057 96.4701 1.38252 96.4054 1.32021C96.3764 1.3306 96.2988 1.29251 96.2504 1.26482C96.2504 1.24751 96.3957 1.2925 96.3376 1.25443L96.5314 1.32714C96.3473 1.26484 96.3505 1.2129 96.273 1.17482C96.4184 1.21982 96.3861 1.24408 96.4927 1.28907C96.4959 1.21639 96.4927 1.25444 96.4991 1.18175C96.3667 1.09176 96.315 1.11944 96.1534 1.03983C96.1244 0.994832 96.0016 0.918699 96.1276 0.925621L95.9532 0.873694C95.8369 0.769855 95.8692 0.74219 96.0533 0.76988C95.4201 0.31299 94.9452 0.129519 94.6351 0.0533702C94.3218 -0.0227781 94.1731 0.00490714 94.1731 0.00490714C93.7499 0.0187523 94.2248 0.271448 94.2959 0.503354V0.49989Z" fill="#20BB65"/>
<path d="M89.1616 11.9074L89.0981 11.8598C89.1203 11.887 89.1426 11.9108 89.1616 11.9074Z" fill="#20BB65"/>
<path d="M86.9112 10.3158C86.9112 10.3158 86.9078 10.3021 86.9044 10.2953L86.9112 10.3158Z" fill="#20BB65"/>
<path d="M87.9641 9.74495C87.6636 9.86956 87.3923 9.62033 87.2243 9.94569C87.0854 10.0149 87.0046 10.188 86.9109 10.3161C87.0111 10.5964 86.7526 10.4372 86.8172 10.6899L86.7009 10.5722C86.7236 10.6587 86.7235 10.7245 86.6525 10.6691L86.6299 10.6276C86.6622 10.7591 86.5814 10.7245 86.5976 10.7903L86.5749 10.7487L86.5426 10.7972L86.5136 10.7349C86.52 10.8906 86.4619 10.9426 86.3714 10.9322L86.4812 11.0949C86.2422 10.9945 86.4134 11.3752 86.1679 11.2299L86.1453 11.1883C86.2713 11.7317 85.7415 11.036 85.8481 11.5587C85.8352 11.4929 85.7899 11.4756 85.7673 11.4341C85.7285 11.5275 85.6704 11.6002 85.8642 11.9359C85.8125 11.9636 85.7641 11.8563 85.6801 11.7317C85.7641 11.8771 85.7576 11.9671 85.7221 12.0017L85.7059 11.9325L85.6219 12.0571L85.8028 12.3202C85.6962 12.2786 85.5929 11.9913 85.5767 12.0952L85.7092 12.3271C85.5993 12.334 85.357 12.019 85.1793 11.8944C84.7981 12.0017 84.7529 12.822 84.2231 12.5936L84.1197 12.424C83.9808 12.1678 84.2296 12.8601 84.0939 12.6248L84.1165 12.7666C84.0842 12.7251 84.0357 12.6871 84.0228 12.6178C83.984 12.6282 84.0034 12.6697 84.0228 12.7632L83.9065 12.6213C83.7095 12.5728 83.7514 12.9501 83.577 12.9674C83.2443 12.7286 83.073 13.2097 82.9664 13.4901C82.8792 14.03 82.0942 13.1232 82.0263 13.715C82.0005 13.6804 82.0134 13.7773 82.0263 13.8085L81.7582 13.895C81.7582 13.895 81.4416 14.0162 81.3576 14.3623C81.2736 14.7084 81.4029 15.2865 82.3559 16.1795L82.3752 16.2418C82.582 16.3179 82.6886 16.3041 82.6595 15.958C82.8308 16.3145 82.7952 15.9372 82.8792 16.0376L82.8889 16.0687C82.8566 15.7468 83.1732 16.2106 83.1474 15.9199C83.157 15.951 83.199 16.0514 83.1796 16.0653C83.2216 15.9891 83.2701 15.8645 83.367 16.0722C83.4898 15.9407 83.7418 15.9303 83.6868 15.5495L83.7062 15.6119C83.6578 15.3592 83.7611 15.5426 83.7676 15.3972C83.7838 15.4214 83.7934 15.4353 83.7999 15.4457C83.7547 15.193 83.955 15.3211 83.9582 15.1999L84.026 15.3349L84.1262 15.2415L84.068 15.2345C83.9065 14.8469 84.2683 15.4249 84.236 15.1342C84.3362 15.1377 84.0196 14.2619 84.1876 14.4038C84.1391 14.2065 84.2909 14.7084 84.2845 14.5423C84.3814 14.7361 84.3168 14.6808 84.4072 14.8296C84.4169 14.705 84.5979 14.9784 84.6011 14.8088L84.6786 14.9611C84.6334 14.6323 84.95 15.0649 84.8789 14.7638C84.908 14.5838 85.1664 15.1792 85.1147 14.8261L85.2569 15.0096C85.315 15.0199 85.16 14.7396 85.2569 14.8123C85.3183 14.9438 85.3667 14.8815 85.4023 15.0199C85.6122 15.1619 85.4669 14.6081 85.7835 14.8642C85.6833 14.5977 85.8287 14.705 85.7544 14.5042C85.8158 14.6115 85.903 14.4385 85.9482 14.7188C85.9514 14.743 85.9385 14.7465 85.9159 14.7015L85.9837 14.8538C86.2099 15.0823 86.0451 14.615 86.1453 14.6081C86.0968 14.5735 86.0742 14.608 86.0387 14.4938L86.1194 14.4696L86.1711 14.6011H86.3165L86.2196 14.4627C86.3133 14.5077 86.4748 14.7569 86.4166 14.5008C86.3779 14.3623 86.2551 14.3277 86.2842 14.2446C86.4102 14.3035 86.6008 14.3969 86.7171 14.3831C86.6137 14.2169 86.6395 14.21 86.646 14.1581L86.7332 14.3035C86.7106 14.037 86.9497 14.6046 86.9529 14.3796L87.0046 14.4869L86.8528 14.1616C86.7688 13.8154 87.0724 14.435 86.9368 13.9781C86.9141 14.0266 86.7332 13.6666 86.814 13.7012L86.8851 13.85C86.8915 13.805 86.8657 13.7393 86.9012 13.7566C86.9303 13.8431 87.0111 13.9677 87.0369 13.9193L87.1144 14.1131L87.0337 13.8085C87.1758 13.9227 87.15 13.677 87.2889 13.8604C87.2889 13.8604 87.4633 13.8777 87.36 13.6458C87.4181 13.7947 87.5118 13.805 87.5861 13.9746C87.5247 13.8016 87.5376 13.6181 87.6701 13.7566V13.7808C87.9059 13.8535 87.7573 13.4001 87.9964 13.5143C87.8865 13.3516 88.0061 13.4001 87.8575 13.1958C87.8445 12.9016 88.3485 13.4693 87.9738 12.7874C88.0028 12.7113 88.1353 12.8947 88.1837 12.9051L88.1934 12.9501C88.2581 12.822 88.2839 12.7944 88.3679 12.7528C88.3647 12.6628 88.1708 12.3582 88.2839 12.3824C88.342 12.5174 88.355 12.4759 88.3776 12.4551C88.3776 12.4863 88.4002 12.5347 88.4842 12.5867C88.4648 12.5451 88.4551 12.5175 88.4486 12.4932C88.4551 12.5036 88.4616 12.5071 88.468 12.5209C88.481 12.4482 88.4486 12.417 88.4196 12.4136C88.4099 12.3963 88.3905 12.3721 88.3647 12.3444C88.51 12.4655 88.4745 12.244 88.6166 12.4413C88.7071 12.2994 88.6522 12.0225 88.6974 11.8667C88.7814 11.9602 88.8202 12.0709 88.8202 12.1332L88.8654 12.0398C88.9688 12.1886 88.8848 12.1575 88.8815 12.2059C89.1368 12.379 88.888 11.8252 89.1432 11.9636L89.0818 11.8287L89.1012 11.8425C89.056 11.7802 89.0205 11.6798 89.0205 11.6487C89.1271 11.7663 89.2304 11.9463 89.2757 11.8979C89.4049 11.9879 89.3435 11.7456 89.3403 11.6348C89.2983 11.6348 89.2563 11.5586 89.2337 11.5033C89.253 11.479 89.3629 11.5933 89.3403 11.5241L89.4695 11.6937C89.3403 11.5414 89.4049 11.4652 89.3597 11.3891C89.4663 11.5033 89.4049 11.531 89.4663 11.6314C89.5503 11.5345 89.5083 11.5829 89.5923 11.4825C89.547 11.3095 89.463 11.3302 89.3758 11.1606C89.3952 11.0879 89.35 10.9322 89.4792 10.991L89.35 10.856C89.3435 10.6691 89.4049 10.6414 89.5761 10.7418C89.4081 9.86264 89.1045 9.43342 88.8557 9.2119C88.6069 8.99038 88.4099 8.98002 88.4099 8.98002C87.935 8.84849 88.1579 9.3815 87.9705 9.73456L87.9641 9.74495Z" fill="#20BB65"/>
<path d="M74.6792 19.0857L74.6348 19.0178C74.6443 19.0518 74.657 19.0823 74.6792 19.0857Z" fill="#20BB65"/>
<path d="M74.3118 16.6053C73.9823 16.6053 73.8047 16.2695 73.5268 16.5153C73.3685 16.5326 73.2296 16.6641 73.0939 16.7506C73.0939 17.0552 72.9001 16.8129 72.8775 17.0725L72.8032 16.9237C72.7967 17.0137 72.7741 17.0794 72.7257 16.9998L72.716 16.9514C72.703 17.0864 72.6384 17.0275 72.632 17.0933L72.6223 17.0448L72.5738 17.0795L72.5674 17.0102C72.5254 17.159 72.4511 17.1902 72.3671 17.1521L72.422 17.3459C72.2217 17.1694 72.2669 17.5882 72.0731 17.3667L72.0634 17.3183C72.0214 17.879 71.7145 17.0414 71.6628 17.5779C71.6693 17.5121 71.6305 17.4809 71.6208 17.4325C71.5562 17.5086 71.4787 17.564 71.5691 17.9448C71.511 17.9552 71.4948 17.8374 71.4496 17.6921C71.4884 17.8582 71.4561 17.9413 71.4141 17.9655L71.4205 17.8963L71.3042 17.9898L71.4044 18.2978C71.3139 18.2251 71.2945 17.9171 71.2461 18.0105L71.3074 18.2736C71.2008 18.2494 71.049 17.8651 70.9133 17.6955C70.5063 17.6851 70.2446 18.4639 69.7826 18.0936L69.7213 17.8998C69.6502 17.6125 69.7212 18.3532 69.6437 18.0901L69.6308 18.232C69.6082 18.1836 69.5694 18.1351 69.5759 18.0659C69.5339 18.0659 69.5436 18.1109 69.5371 18.2078L69.4564 18.0382C69.2754 17.9378 69.2205 18.3186 69.0461 18.2874C68.7747 17.969 68.4872 18.3947 68.3192 18.6405C68.1157 19.1458 67.5342 18.0728 67.3371 18.6405C67.3177 18.6024 67.3113 18.6993 67.321 18.7339L67.0367 18.7582C67.0367 18.7582 65.6702 18.9555 67.1756 21.1257L67.182 21.1915C67.3662 21.3091 67.4696 21.323 67.5116 20.9769C67.6085 21.3611 67.644 20.9873 67.7054 21.1049V21.1361C67.7409 20.8142 67.9509 21.3403 67.9864 21.0495C67.9864 21.0807 68.0091 21.188 67.9897 21.1984C68.0446 21.1326 68.1157 21.0253 68.1674 21.2503C68.3128 21.1534 68.5518 21.2053 68.5776 20.8211L68.5841 20.8869C68.5906 20.6273 68.652 20.8315 68.6875 20.693C68.6972 20.7207 68.7036 20.7346 68.7069 20.7484C68.7166 20.4923 68.8813 20.6653 68.9072 20.5511L68.9427 20.6999L69.059 20.6342L69.0073 20.6134C68.9362 20.1946 69.1559 20.8488 69.1882 20.5615C69.2851 20.5926 69.1721 19.6616 69.3045 19.8416C69.3045 19.6373 69.3368 20.1634 69.3659 20.0008C69.4144 20.2154 69.3659 20.1427 69.4208 20.3123C69.4596 20.1946 69.5694 20.5061 69.6114 20.3434L69.6502 20.5096C69.6825 20.1807 69.8828 20.6826 69.886 20.3746C69.9571 20.2119 70.0637 20.8557 70.096 20.4992L70.1865 20.7138C70.2414 20.738 70.1574 20.4265 70.2317 20.5234C70.2607 20.6653 70.3189 20.6203 70.3221 20.7657C70.4869 20.9595 70.4804 20.3884 70.7163 20.7276C70.6872 20.4403 70.797 20.5857 70.7744 20.3711C70.8067 20.4923 70.9295 20.3503 70.9036 20.6342C70.9036 20.6584 70.8875 20.6584 70.8778 20.61L70.9036 20.7761C71.0587 21.0634 71.0199 20.5649 71.1136 20.5892C71.0749 20.5407 71.0458 20.565 71.0425 20.4473H71.1265L71.1427 20.5926L71.2784 20.6411L71.2235 20.475C71.301 20.5476 71.3882 20.8349 71.3979 20.5719C71.3979 20.43 71.2913 20.3573 71.3365 20.2846C71.4399 20.3815 71.595 20.5269 71.7048 20.5511C71.6499 20.3607 71.679 20.3607 71.6951 20.3158L71.7371 20.4819C71.7856 20.2223 71.8631 20.8384 71.9213 20.6273L71.9406 20.7449L71.8857 20.3884C71.8986 20.0319 72.0182 20.7207 72.0149 20.243C71.9826 20.2811 71.9083 19.8796 71.9762 19.9385L72.002 20.1046C72.0214 20.0631 72.0149 19.9939 72.0408 20.0215C72.044 20.1115 72.0892 20.2569 72.1215 20.2188L72.1442 20.4265L72.1506 20.1081C72.2508 20.2638 72.2928 20.0215 72.3735 20.243C72.3735 20.243 72.5286 20.3192 72.4963 20.0631C72.5092 20.2258 72.5932 20.2638 72.6158 20.4507C72.6061 20.2673 72.6675 20.0977 72.7547 20.2708V20.295C72.9453 20.4438 72.9356 19.9627 73.123 20.1565C73.0681 19.9661 73.165 20.0492 73.0842 19.807C73.1553 19.5266 73.4558 20.2396 73.3104 19.4608C73.3621 19.402 73.4267 19.62 73.4687 19.6477V19.6927C73.5624 19.5958 73.5947 19.5785 73.6819 19.5716C73.7045 19.485 73.6205 19.1285 73.7174 19.1908C73.7304 19.3397 73.753 19.305 73.782 19.2946C73.7691 19.3223 73.7788 19.3743 73.8402 19.4574C73.8337 19.4124 73.8337 19.3847 73.8402 19.357C73.8434 19.3674 73.8466 19.3777 73.8499 19.3916C73.8854 19.3293 73.866 19.2877 73.837 19.2739C73.8337 19.2531 73.824 19.2254 73.8079 19.1874C73.9048 19.3535 73.9403 19.1355 74.0082 19.3743C74.1342 19.2739 74.1697 18.997 74.2634 18.8654C74.3086 18.9866 74.3118 19.1043 74.2892 19.1631L74.3603 19.0939C74.4055 19.2739 74.3409 19.2116 74.3248 19.2566C74.5025 19.5162 74.454 18.907 74.6414 19.1354L74.6284 18.9866L74.6414 19.0074C74.622 18.9312 74.6187 18.8239 74.6317 18.7928C74.6898 18.9416 74.7286 19.1527 74.7835 19.125C74.8707 19.26 74.8933 19.0108 74.9289 18.907C74.8901 18.8897 74.8772 18.8032 74.874 18.7443C74.8998 18.7305 74.9612 18.8793 74.9644 18.8066L75.0258 19.0143C74.9612 18.8205 75.042 18.7789 75.029 18.6889C75.0872 18.8378 75.0226 18.8378 75.0452 18.9554C75.155 18.9001 75.1001 18.9278 75.2099 18.8724C75.2293 18.6959 75.1453 18.6785 75.1227 18.4847C75.1647 18.4259 75.1776 18.2632 75.2746 18.3705L75.2035 18.1905C75.2649 18.014 75.3295 18.014 75.4522 18.1801C75.617 17.3044 75.5039 16.7749 75.3553 16.4668C75.2067 16.1587 75.0226 16.0687 75.0226 16.0687C74.6187 15.7538 74.622 16.3422 74.3118 16.5949V16.6053Z" fill="#20BB65"/>
<path d="M59.2768 22.7521L59.2383 22.6798C59.2447 22.7177 59.2576 22.7452 59.2768 22.7521Z" fill="#20BB65"/>
<path d="M59.1347 20.243C58.7987 20.2119 58.6501 19.8588 58.3464 20.0734C58.1849 20.0734 58.0299 20.1946 57.8845 20.2673C57.8619 20.5684 57.6842 20.3123 57.639 20.5719L57.5776 20.4161C57.5614 20.5061 57.5388 20.5684 57.4903 20.4853L57.4839 20.4369C57.4613 20.5684 57.3967 20.5061 57.387 20.5719L57.3805 20.5234L57.3288 20.5546V20.4853C57.2707 20.6307 57.1931 20.6549 57.1124 20.61L57.1544 20.8072C56.9638 20.6169 56.9832 21.0357 56.799 20.8038L56.7926 20.7553C56.7118 21.3091 56.4566 20.4542 56.3694 20.9838C56.379 20.918 56.3403 20.8834 56.3338 20.8349C56.2628 20.9076 56.1788 20.9561 56.2466 21.3437C56.1852 21.3507 56.1755 21.233 56.1432 21.0841C56.1723 21.2537 56.1335 21.3334 56.0915 21.3541L56.1012 21.2849L55.9785 21.368L56.0625 21.6829C55.9752 21.6033 55.9752 21.2953 55.9203 21.3853L55.9688 21.6518C55.8622 21.6172 55.7329 21.2295 55.6037 21.0495C55.1902 21.0149 54.8898 21.7764 54.4407 21.3818L54.389 21.1845C54.3309 20.8938 54.3664 21.6379 54.3018 21.368L54.2824 21.5099C54.2598 21.4614 54.2275 21.4095 54.234 21.3403C54.192 21.3368 54.2017 21.3853 54.1887 21.4787L54.1144 21.3057C53.9335 21.1949 53.8657 21.5722 53.688 21.5341C53.4263 21.2018 53.1194 21.6172 52.9418 21.856C52.7221 22.351 52.1664 21.2607 51.95 21.8179C51.9338 21.7799 51.9241 21.8768 51.9306 21.9114L51.6431 21.9253C51.6431 21.9253 50.2669 22.0845 51.7335 24.2928V24.3585C51.9177 24.4831 52.0211 24.497 52.0695 24.1578C52.1567 24.5454 52.202 24.1716 52.2601 24.2928V24.3239C52.3021 24.0055 52.4992 24.5351 52.5412 24.2478C52.5412 24.2789 52.5605 24.3862 52.5412 24.3966C52.5993 24.3343 52.6704 24.2305 52.7189 24.4554C52.8642 24.3654 53.1033 24.4278 53.1356 24.0436V24.1093C53.1517 23.8532 53.2067 24.0574 53.2486 23.919C53.2583 23.9467 53.2648 23.9639 53.2648 23.9743C53.2842 23.7182 53.4393 23.9017 53.4716 23.7874L53.5006 23.9397L53.6169 23.8808L53.5653 23.8566C53.5071 23.4378 53.7074 24.0989 53.7462 23.8116C53.8398 23.8463 53.7623 22.9117 53.8851 23.0986C53.8915 22.8944 53.9045 23.424 53.94 23.2613C53.982 23.4794 53.9368 23.4032 53.982 23.5728C54.024 23.4586 54.1209 23.7736 54.1726 23.6144L54.2049 23.784C54.2469 23.4551 54.431 23.9708 54.444 23.6628C54.5215 23.5036 54.6022 24.1508 54.6475 23.7978L54.7282 24.0193C54.7799 24.047 54.7121 23.7321 54.7799 23.8324C54.8026 23.9778 54.8639 23.9363 54.8575 24.0782C55.0125 24.2824 55.0319 23.7113 55.2484 24.0643C55.2322 23.777 55.3356 23.9293 55.3227 23.7147C55.3485 23.8359 55.4777 23.7043 55.439 23.9882C55.4357 24.0124 55.4228 24.009 55.4131 23.9605L55.4325 24.1301C55.5746 24.4278 55.5553 23.9259 55.649 23.957C55.6134 23.9086 55.5843 23.9293 55.5843 23.8082L55.6683 23.8151L55.678 23.957L55.8105 24.0158L55.762 23.8462C55.8363 23.9224 55.9074 24.2132 55.9268 23.957C55.93 23.8151 55.8299 23.7355 55.8815 23.6697C55.9785 23.7736 56.1238 23.9293 56.2304 23.9605C56.1852 23.7667 56.2143 23.7701 56.2337 23.7251L56.266 23.8947C56.3274 23.6386 56.3693 24.2581 56.4404 24.0504L56.4534 24.1716L56.4178 23.8116C56.4501 23.4586 56.5309 24.1543 56.5503 23.6732C56.5147 23.7113 56.4663 23.3028 56.5276 23.3686L56.5438 23.5347C56.5664 23.4932 56.5632 23.424 56.5858 23.4551C56.5858 23.5451 56.6181 23.694 56.6536 23.6594L56.6633 23.8705L56.6859 23.5555C56.7764 23.7182 56.8313 23.4793 56.8959 23.7043C56.8959 23.7043 57.0445 23.7909 57.0284 23.5347C57.0284 23.6974 57.1124 23.7424 57.1253 23.9293C57.1253 23.7459 57.1996 23.5797 57.2707 23.7632V23.7874C57.4451 23.9501 57.4677 23.4724 57.639 23.6836C57.597 23.4897 57.6874 23.5832 57.626 23.334C57.7165 23.0571 57.962 23.7944 57.8748 23.0086C57.9297 22.9533 57.9782 23.1748 58.0169 23.2094L58.0105 23.2544C58.1139 23.1678 58.1462 23.154 58.2334 23.154C58.2625 23.0709 58.2043 22.7075 58.298 22.7802C58.298 22.929 58.3238 22.8944 58.3529 22.8909C58.34 22.9186 58.3432 22.9705 58.3981 23.0605C58.3981 23.0155 58.3981 22.9879 58.4014 22.9636C58.4014 22.974 58.4078 22.9844 58.4078 22.9982C58.4466 22.9394 58.4304 22.8944 58.4078 22.8806C58.4078 22.8598 58.3981 22.8321 58.3852 22.7906C58.466 22.9671 58.5209 22.749 58.5693 22.9948C58.7018 22.9082 58.7599 22.6348 58.8633 22.5137C58.8989 22.6383 58.8924 22.7559 58.8633 22.8113L58.9408 22.749C58.9732 22.9325 58.9118 22.8632 58.8924 22.9048C59.0442 23.1782 59.0475 22.569 59.2122 22.8148V22.6659L59.2219 22.6902C59.209 22.614 59.2154 22.5033 59.2284 22.4756C59.2736 22.6313 59.293 22.8425 59.3479 22.8217C59.4222 22.9671 59.4642 22.7179 59.5127 22.621C59.4739 22.6002 59.4707 22.5102 59.4739 22.4513C59.503 22.441 59.5482 22.5967 59.5579 22.5241L59.5999 22.7386C59.5514 22.5379 59.6386 22.5067 59.6322 22.4167C59.6774 22.5725 59.6096 22.5621 59.6257 22.6833C59.7388 22.6383 59.6839 22.6625 59.7969 22.6175C59.8325 22.4444 59.7485 22.4168 59.7453 22.2229C59.7937 22.171 59.8196 22.0083 59.9068 22.126L59.8519 21.9391C59.9294 21.7695 59.994 21.7799 60.1006 21.9599C60.6014 20.2569 59.8906 19.8104 59.8906 19.8104C59.5127 19.4504 59.4513 20.0354 59.1153 20.2569L59.1347 20.243Z" fill="#20BB65"/>
<path d="M43.9252 26.023L43.8834 25.9507C43.8931 25.9852 43.9059 26.0161 43.9252 26.023Z" fill="#20BB65"/>
<path d="M43.6732 23.5244C43.334 23.5105 43.166 23.1679 42.8687 23.3998C42.704 23.4102 42.5554 23.5417 42.41 23.6247C42.4035 23.9293 42.2097 23.6836 42.1774 23.9432L42.1063 23.7909C42.0966 23.8809 42.074 23.9432 42.0223 23.8671L42.0127 23.8186C41.9965 23.9536 41.9287 23.8948 41.9222 23.9605L41.9125 23.9121L41.864 23.9467L41.8576 23.8774C41.8091 24.0262 41.7316 24.0574 41.6476 24.0193L41.6993 24.2132C41.4958 24.0367 41.5378 24.4555 41.3407 24.2339L41.331 24.1855C41.2858 24.7462 40.9757 23.912 40.9175 24.4485C40.924 24.3828 40.882 24.3516 40.8723 24.3032C40.8044 24.3828 40.7237 24.4347 40.8206 24.8154C40.7592 24.8258 40.7431 24.7082 40.6978 24.5662C40.7398 24.7324 40.7075 24.8154 40.6623 24.8397L40.6687 24.7704L40.5525 24.8674L40.6591 25.1754C40.5654 25.1062 40.5428 24.7947 40.4975 24.8916L40.5654 25.1512C40.4556 25.1269 40.2972 24.7497 40.1551 24.5835C39.7351 24.587 39.4928 25.3762 39.0083 25.0335L38.9404 24.8431C38.8564 24.5593 38.9566 25.2966 38.8694 25.037L38.8629 25.1789C38.837 25.1304 38.7983 25.0854 38.8015 25.0127C38.7595 25.0127 38.7724 25.0612 38.766 25.1546L38.6755 24.992C38.4849 24.902 38.4461 25.2862 38.2685 25.2688C37.9713 24.9712 37.6999 25.4212 37.5481 25.6877C37.3801 26.2069 36.7017 25.2031 36.5434 25.7915C36.5208 25.7534 36.524 25.8538 36.5337 25.885L36.2461 25.9438C36.2461 25.9438 35.9037 26.0373 35.7842 26.38C35.6614 26.7192 35.7745 27.3007 36.637 28.2802L36.65 28.3425C36.8406 28.4359 36.944 28.4394 36.9472 28.0933C37.0829 28.4671 37.0796 28.0898 37.1507 28.2006L37.1572 28.2317C37.1572 27.9098 37.4124 28.4082 37.4188 28.1175C37.4253 28.1486 37.4544 28.2525 37.4382 28.2663C37.4867 28.1971 37.5448 28.0829 37.6159 28.3009C37.7484 28.1902 37.9842 28.2213 37.9745 27.8371L37.9874 27.8995C37.9713 27.6433 38.0488 27.8406 38.0714 27.6987C38.0843 27.7264 38.0908 27.7402 38.094 27.7541C38.0843 27.4979 38.2588 27.6572 38.2749 27.5429L38.3202 27.6883L38.43 27.6156L38.3751 27.5983C38.2749 27.1899 38.5398 27.8233 38.5495 27.5325C38.6432 27.5568 38.472 26.6361 38.6141 26.8057C38.6012 26.6015 38.6658 27.1276 38.6852 26.9614C38.7466 27.1726 38.6949 27.1033 38.7563 27.266C38.7886 27.1449 38.9146 27.4495 38.9469 27.2833L38.9953 27.446C39.005 27.1137 39.2344 27.6052 39.2182 27.2972C39.2796 27.131 39.4185 27.7679 39.4315 27.4114L39.5316 27.6225C39.5833 27.6433 39.4864 27.3387 39.5671 27.4322C39.6027 27.5741 39.6576 27.5256 39.6673 27.6675C39.8353 27.8544 39.8062 27.2868 40.0485 27.6156C40.0065 27.3318 40.1228 27.4737 40.0905 27.2591C40.126 27.3768 40.2423 27.2349 40.2294 27.5187C40.2294 27.5429 40.2132 27.5429 40.2036 27.4945L40.2359 27.6606C40.4006 27.9444 40.3392 27.446 40.4329 27.4702C40.3942 27.4218 40.3651 27.446 40.3586 27.3283H40.4394L40.4588 27.4702L40.5912 27.5152L40.5298 27.3491C40.6074 27.4183 40.7011 27.7021 40.7011 27.4425C40.6946 27.3006 40.588 27.228 40.6332 27.1587C40.7366 27.2522 40.8917 27.3941 40.9983 27.4183C40.9401 27.228 40.9692 27.2279 40.9854 27.183L41.0306 27.3491C41.0726 27.0895 41.1598 27.7056 41.2115 27.491L41.2309 27.6087L41.1695 27.2522C41.176 26.8956 41.3052 27.5845 41.2923 27.1033C41.26 27.1414 41.1824 26.7434 41.247 26.7988L41.2761 26.9614C41.2955 26.9199 41.2858 26.8507 41.3116 26.8784C41.3181 26.9683 41.3601 27.1137 41.3956 27.0757L41.4182 27.2833V26.9649C41.5184 27.1206 41.5571 26.8784 41.6379 27.0999C41.6379 27.0999 41.7898 27.176 41.7575 26.9199C41.7704 27.0826 41.8544 27.1206 41.877 27.3076C41.8673 27.1241 41.9254 26.9545 42.0094 27.131V27.1553C42.1936 27.3076 42.1839 26.8265 42.368 27.0237C42.3163 26.8299 42.4068 26.9199 42.3325 26.6742C42.4068 26.3938 42.6911 27.1137 42.5586 26.335C42.6103 26.2761 42.6717 26.4941 42.7104 26.5253V26.5703C42.8041 26.4768 42.8332 26.4596 42.9204 26.4561C42.9431 26.3696 42.8688 26.0131 42.9624 26.0788C42.9721 26.2277 42.9947 26.193 43.0238 26.1861C43.0109 26.2138 43.0174 26.2657 43.0755 26.3522C43.069 26.3072 43.0723 26.2796 43.0755 26.2519C43.0755 26.2623 43.082 26.2726 43.0852 26.2865C43.1207 26.2242 43.1013 26.1827 43.0755 26.1688C43.0723 26.148 43.0626 26.1204 43.0464 26.0823C43.1369 26.2519 43.1789 26.0338 43.2403 26.2761C43.3663 26.1826 43.4115 25.9057 43.5052 25.7811C43.5472 25.9023 43.5439 26.02 43.5213 26.0788L43.5924 26.013C43.6312 26.193 43.5698 26.1307 43.5504 26.1722C43.7152 26.4388 43.6893 25.8296 43.8638 26.065L43.8573 25.9161L43.8702 25.9369C43.8541 25.8607 43.8573 25.7534 43.8702 25.7223C43.9219 25.8746 43.951 26.0857 44.0059 26.0615C44.0834 26.1999 44.119 25.9542 44.1577 25.8538C44.119 25.8365 44.1093 25.7465 44.1125 25.6877C44.1416 25.6738 44.19 25.8296 44.1997 25.7534L44.2482 25.9646C44.1933 25.7673 44.2773 25.7292 44.2676 25.6392C44.3193 25.7915 44.2514 25.7846 44.2708 25.9058C44.3806 25.8573 44.3257 25.8815 44.4356 25.833C44.4614 25.6565 44.3806 25.6357 44.3677 25.4419C44.4129 25.3865 44.4356 25.2239 44.5228 25.3381L44.4614 25.1546C44.5325 24.9816 44.5971 24.9885 44.7101 25.165C45.1463 23.4379 44.4226 23.0259 44.4226 23.0259C44.0285 22.6833 43.9865 23.2717 43.657 23.5105L43.6732 23.5244Z" fill="#20BB65"/>
<path d="M29.4775 31.6472L29.4202 31.5926C29.4361 31.6233 29.4584 31.6472 29.4775 31.6472Z" fill="#20BB65"/>
<path d="M24.8165 35.4554C24.8165 35.4554 24.8198 35.4652 24.8231 35.4717C24.8231 35.4652 24.8198 35.4587 24.8165 35.4554Z" fill="#20BB65"/>
<path d="M27.3562 29.8548C27.3562 29.8548 27.3562 29.8411 27.3528 29.8343V29.8548H27.3562Z" fill="#20BB65"/>
<path d="M28.5741 29.3289C28.2348 29.4224 27.9796 29.1524 27.747 29.4743C27.5855 29.5435 27.4757 29.72 27.3562 29.8516C27.4337 30.1423 27.1753 29.9762 27.2205 30.2392L27.1074 30.1215C27.1236 30.2115 27.1203 30.2808 27.0493 30.2254L27.0266 30.1839C27.0492 30.3189 26.9685 30.2842 26.9782 30.3535L26.9556 30.3119L26.9168 30.3639L26.891 30.3015C26.891 30.4608 26.8231 30.5161 26.7294 30.5127L26.8393 30.6753C26.5905 30.5853 26.7585 30.9661 26.5001 30.8346L26.4774 30.7931C26.6099 31.3365 26.0446 30.6754 26.1609 31.2049C26.1447 31.1392 26.0962 31.1288 26.0704 31.0873C26.0316 31.1876 25.9703 31.2707 26.1867 31.5926C26.1318 31.6272 26.0769 31.5234 25.9864 31.4057C26.0833 31.5441 26.0769 31.6376 26.0446 31.6757L26.0252 31.6064L25.9444 31.7449L26.1479 31.9906C26.0381 31.963 25.9121 31.6826 25.8992 31.7934L26.051 32.008C25.9412 32.0322 25.6601 31.7414 25.4663 31.6514C25.0592 31.8384 25.1206 32.676 24.5391 32.579L24.4034 32.4372C24.2161 32.2156 24.5876 32.8456 24.4099 32.6483L24.4584 32.7833C24.4164 32.7521 24.3614 32.7279 24.3388 32.6621C24.3001 32.6829 24.3291 32.721 24.3614 32.811L24.2128 32.7036C23.9996 32.7175 24.1127 33.0809 23.9382 33.1536C23.5441 33.0325 23.4698 33.5794 23.4472 33.8944C23.5183 34.4378 22.4651 33.9151 22.5814 34.5278C22.5459 34.507 22.5911 34.5935 22.617 34.6178L22.3876 34.8324C22.3876 34.8324 22.3197 34.9016 22.2616 35.0158C22.2034 35.1335 22.1518 35.2962 22.1808 35.4761C22.2325 35.8465 22.6234 36.255 23.8252 36.6357L23.8672 36.6841C24.0739 36.6634 24.1547 36.6149 23.9964 36.3207C24.2871 36.5734 24.1062 36.2515 24.2193 36.3103L24.2387 36.3346C24.0868 36.0577 24.5359 36.3588 24.4067 36.1061C24.4261 36.1304 24.5004 36.2065 24.4907 36.2273C24.5004 36.1442 24.4971 36.0161 24.6586 36.1719C24.72 36.0161 24.93 35.9261 24.7556 35.5973L24.7943 35.6492C24.6684 35.4311 24.8202 35.5696 24.7814 35.4311C24.804 35.4485 24.817 35.4589 24.8266 35.4658C24.7071 35.2443 24.9268 35.3066 24.8913 35.1923L24.9946 35.2996L25.056 35.1854L25.0011 35.1958C24.7362 34.8774 25.2401 35.3204 25.1271 35.0573C25.2208 35.0366 24.6877 34.2924 24.8848 34.3789C24.7911 34.2024 25.0625 34.642 25.0108 34.4862C25.1529 34.6454 25.0786 34.6109 25.2014 34.7285C25.1788 34.6074 25.4146 34.822 25.3758 34.6593L25.4857 34.7839C25.3597 34.4828 25.7603 34.8255 25.6214 34.5555C25.6084 34.3789 25.9864 34.8912 25.854 34.5658L26.0252 34.7147C26.0801 34.7147 25.8733 34.4758 25.9799 34.5278C26.0672 34.642 26.0962 34.5762 26.1609 34.7008C26.3805 34.8012 26.135 34.2993 26.4742 34.5001C26.3288 34.2578 26.4839 34.3409 26.3773 34.1574C26.4548 34.2509 26.5033 34.0744 26.597 34.3409C26.6034 34.3616 26.5937 34.3686 26.5647 34.3305L26.6584 34.4689C26.9103 34.6628 26.6713 34.2335 26.7617 34.2197C26.71 34.192 26.6939 34.2232 26.6422 34.1193L26.7133 34.0882L26.7843 34.2093L26.92 34.1989L26.807 34.0709C26.9039 34.1055 27.088 34.3305 26.9943 34.0916C26.9362 33.9636 26.8167 33.9394 26.8328 33.8563C26.962 33.9047 27.1526 33.9774 27.256 33.9567C27.1365 33.8044 27.1623 33.794 27.1591 33.7455L27.2592 33.8805C27.2043 33.6244 27.5015 34.1609 27.4725 33.9463L27.5338 34.0466L27.3529 33.742C27.2334 33.4098 27.5887 33.9982 27.4111 33.5621C27.3949 33.6105 27.1849 33.2679 27.2689 33.2956L27.3497 33.4375C27.3497 33.3925 27.3206 33.3302 27.3562 33.3475C27.3917 33.4306 27.4821 33.5482 27.4983 33.4998L27.592 33.6832L27.4854 33.389C27.6307 33.4963 27.5823 33.2575 27.7277 33.434C27.7277 33.434 27.8892 33.4513 27.7729 33.2228C27.8375 33.3682 27.9247 33.3752 28.0119 33.5413C27.9409 33.3752 27.9409 33.1952 28.0733 33.3302L28.0798 33.351C28.2962 33.4306 28.1347 32.984 28.3641 33.1052C28.2542 32.9425 28.3641 32.9944 28.2219 32.7902C28.2026 32.5029 28.6871 33.0844 28.3253 32.3956C28.3544 32.3229 28.4804 32.5099 28.5256 32.5272L28.5353 32.5722C28.5967 32.451 28.6193 32.4268 28.7001 32.3956C28.7001 32.3056 28.5192 31.9941 28.629 32.0253C28.6807 32.1637 28.6936 32.1222 28.7162 32.1049C28.713 32.136 28.7356 32.1845 28.8131 32.2468C28.7937 32.2052 28.7873 32.1775 28.784 32.1533C28.7905 32.1637 28.797 32.1706 28.8034 32.1845C28.8164 32.1152 28.7873 32.0806 28.7614 32.0772C28.7517 32.0564 28.7356 32.0357 28.7098 32.0045C28.8454 32.136 28.8196 31.918 28.9456 32.1256C29.036 31.9976 28.9973 31.7172 29.0522 31.5718C29.1265 31.6757 29.1556 31.7899 29.1523 31.8487L29.2008 31.7622C29.288 31.9214 29.2105 31.8799 29.2072 31.9249C29.4366 32.1291 29.2396 31.5545 29.4722 31.7311L29.4237 31.5926L29.4399 31.6099C29.4043 31.5441 29.3752 31.4368 29.3785 31.4057C29.4689 31.5372 29.5529 31.7276 29.5981 31.6895C29.7112 31.8003 29.6724 31.5545 29.6854 31.4472C29.6434 31.4403 29.6111 31.3572 29.5981 31.3019C29.6208 31.2811 29.7112 31.4126 29.6983 31.3399L29.8017 31.5268C29.6983 31.3538 29.7661 31.2949 29.7338 31.2119C29.8211 31.3434 29.7597 31.3572 29.8081 31.468C29.8986 31.3884 29.8533 31.4299 29.947 31.3503C29.9276 31.1738 29.8437 31.1772 29.7823 30.9938C29.8114 30.928 29.7888 30.7653 29.9051 30.8484L29.8017 30.6892C29.8275 30.5058 29.8921 30.4919 30.0407 30.6269C30.0343 29.7339 29.8469 29.232 29.6434 28.962C29.4431 28.6886 29.2363 28.6436 29.2363 28.6436C28.7582 28.4324 28.8616 29.0139 28.5967 29.3497L28.5741 29.3289Z" fill="#20BB65"/>
<path d="M20.103 43.8144L20.0259 43.8075C20.058 43.8213 20.0869 43.8282 20.103 43.8144Z" fill="#20BB65"/>
<path d="M18.1779 49.9236C18.1779 49.9236 18.1869 49.9301 18.193 49.9333C18.19 49.9268 18.1839 49.9236 18.1779 49.9236Z" fill="#20BB65"/>
<path d="M17.3987 43.7652C17.3987 43.7652 17.3895 43.7554 17.3834 43.7521L17.3987 43.7652Z" fill="#20BB65"/>
<path d="M18.0555 42.5857C17.8455 42.8764 17.4902 42.828 17.4934 43.226C17.4062 43.3783 17.4191 43.586 17.3997 43.7625C17.6258 43.9425 17.3286 43.9737 17.5095 44.1536L17.3512 44.1294C17.4126 44.1917 17.4514 44.2471 17.3609 44.2471L17.3189 44.2298C17.4126 44.3198 17.3286 44.3475 17.3771 44.3925L17.3351 44.3752V44.4375L17.2769 44.4028C17.3642 44.5309 17.3448 44.6175 17.264 44.6694L17.4417 44.7317C17.193 44.8113 17.5386 45.012 17.2543 45.064L17.2123 45.0466C17.6161 45.4066 16.7988 45.2093 17.18 45.5658C17.1316 45.5208 17.0864 45.5416 17.0444 45.5243C17.067 45.6281 17.0637 45.732 17.4094 45.8635C17.3835 45.9223 17.2834 45.8739 17.1477 45.8324C17.2996 45.8877 17.3448 45.9674 17.3383 46.0193L17.2866 45.9743L17.2931 46.1335L17.5903 46.2131C17.4837 46.2546 17.2317 46.1024 17.2802 46.1993L17.5192 46.2858C17.4385 46.3689 17.0605 46.2962 16.8505 46.3342C16.6147 46.715 17.0928 47.3726 16.5565 47.6115L16.3692 47.5665C16.101 47.4834 16.7278 47.8053 16.479 47.7361L16.5856 47.8226C16.5339 47.8226 16.4758 47.8295 16.4241 47.788C16.4015 47.8261 16.4435 47.8434 16.5178 47.8987L16.3401 47.8884C16.1656 48.013 16.4435 48.2553 16.3304 48.4076C15.9363 48.508 16.1366 49.0029 16.2593 49.2867C16.5727 49.7228 15.4162 49.7817 15.7877 50.2455C15.7457 50.2455 15.8264 50.2974 15.8555 50.3044L15.7457 50.5951C15.7457 50.5951 15.6326 50.9551 15.8329 51.2493C16.0332 51.547 16.5468 51.7581 17.7841 51.5193L17.8391 51.5435C18.0167 51.4223 18.0749 51.3323 17.8068 51.142C18.1718 51.225 17.8746 51.0208 18.0006 51.0174L18.0297 51.0278C17.7777 50.8512 18.3075 50.8928 18.0846 50.7301C18.1137 50.7405 18.2106 50.7716 18.2106 50.7958C18.1815 50.7162 18.1266 50.5986 18.3366 50.654C18.3236 50.4774 18.4755 50.2801 18.1718 50.0794L18.2267 50.1036C18.0167 49.9755 18.2138 50.0171 18.1169 49.9167C18.146 49.9202 18.1589 49.9201 18.1718 49.9236C17.9683 49.7921 18.188 49.7263 18.1072 49.6432L18.2461 49.6813V49.5428L18.2073 49.5809C17.8326 49.4459 18.4722 49.5602 18.2526 49.3906C18.3236 49.3213 17.5128 48.9648 17.7228 48.9337C17.558 48.8333 18.0006 49.0652 17.8811 48.9544C18.0781 49.0168 17.9973 49.0236 18.1589 49.0583C18.0813 48.9648 18.3882 49.0202 18.2784 48.8991L18.4335 48.9475C18.1815 48.7537 18.6887 48.8229 18.4432 48.6672C18.3462 48.5218 18.9181 48.7467 18.6499 48.5391L18.8696 48.5668C18.9181 48.5322 18.6241 48.4491 18.7404 48.4318C18.8696 48.4802 18.8631 48.4041 18.9794 48.4733C19.2185 48.4283 18.7598 48.141 19.1507 48.1064C18.9084 47.9853 19.0796 47.9611 18.8987 47.8711C19.0117 47.9057 18.9633 47.7257 19.1765 47.8953C19.1927 47.9091 19.1862 47.9195 19.1442 47.9057L19.2928 47.968C19.6029 47.9818 19.1862 47.7568 19.254 47.6876C19.1959 47.6945 19.1991 47.7326 19.1022 47.6737L19.1474 47.6011L19.2702 47.6634L19.38 47.5699L19.2185 47.5319C19.3154 47.5042 19.5868 47.5768 19.3865 47.4315C19.2734 47.3588 19.1603 47.4107 19.128 47.3311C19.2605 47.293 19.4576 47.2342 19.5351 47.1546C19.3574 47.0992 19.3703 47.075 19.3445 47.0369L19.4963 47.0888C19.3186 46.9054 19.842 47.1719 19.7063 47.0092L19.8097 47.0577L19.4996 46.9123C19.2282 46.7081 19.8323 46.978 19.4543 46.7219C19.4672 46.7738 19.1119 46.6181 19.1959 46.5904L19.338 46.6596C19.3154 46.6215 19.2573 46.5869 19.296 46.58C19.3703 46.625 19.506 46.67 19.4963 46.6181L19.6708 46.715L19.4253 46.535C19.6029 46.535 19.4349 46.3654 19.6514 46.4173C19.6514 46.4173 19.7935 46.3273 19.5771 46.2131C19.7095 46.2927 19.7871 46.2408 19.9454 46.3273C19.7968 46.2339 19.6998 46.0851 19.884 46.1127L19.9001 46.1266C20.123 46.0504 19.7483 45.7874 20.0003 45.7389C19.8226 45.6766 19.9421 45.6455 19.7128 45.5728C19.5383 45.3478 20.2523 45.5105 19.5803 45.1816C19.5642 45.1055 19.7677 45.1747 19.8129 45.1574L19.8452 45.1851C19.8291 45.0466 19.8323 45.012 19.8808 44.9324C19.8291 44.8632 19.5125 44.7248 19.6158 44.6798C19.7354 44.7559 19.7225 44.7144 19.7321 44.6867C19.7451 44.7144 19.7903 44.7386 19.8905 44.7351C19.8517 44.7143 19.8323 44.6971 19.8129 44.6798C19.8226 44.6832 19.8323 44.6867 19.8452 44.6901C19.8161 44.6244 19.7742 44.6175 19.7483 44.6313C19.7289 44.6209 19.7031 44.614 19.6675 44.6071C19.8485 44.6244 19.7063 44.4652 19.926 44.5482C19.926 44.3856 19.7386 44.1883 19.6998 44.0325C19.8161 44.0671 19.9066 44.1363 19.9357 44.1882L19.926 44.0879C20.0875 44.1571 20.0003 44.1744 20.0229 44.2159C20.3201 44.2263 19.8388 43.8975 20.123 43.8837L20.0035 43.8041H20.0261C19.9583 43.7764 19.8775 43.7106 19.8614 43.6864C20.0067 43.7314 20.1844 43.8248 20.1973 43.766C20.3492 43.7798 20.178 43.6068 20.1263 43.5133C20.0907 43.5341 20.0164 43.4925 19.9744 43.4545C19.9809 43.4233 20.1263 43.4683 20.0746 43.4199L20.2652 43.4995C20.0843 43.4337 20.1037 43.3402 20.0294 43.2953C20.1747 43.3402 20.1327 43.3921 20.2361 43.4475C20.262 43.3229 20.249 43.3852 20.2749 43.2606C20.1554 43.136 20.094 43.1948 19.9389 43.091C19.9227 43.0183 19.8129 42.9076 19.9486 42.8937L19.7741 42.8383C19.6837 42.6757 19.7289 42.6237 19.926 42.6272C19.3994 41.9349 18.9536 41.6788 18.637 41.6027C18.3204 41.5265 18.1363 41.6269 18.1363 41.6269C17.6452 41.7757 18.0652 42.1565 18.0555 42.5857Z" fill="#20BB65"/>
<path d="M16.4753 59.7986L16.3982 59.8193C16.4335 59.8193 16.4625 59.8193 16.4753 59.7986Z" fill="#20BB65"/>
<path d="M13.8874 60.6396C13.8874 60.6396 13.8778 60.6328 13.8683 60.6294L13.8874 60.6396Z" fill="#20BB65"/>
<path d="M14.1786 59.2864C14.0591 59.636 13.707 59.7052 13.8233 60.0894C13.7845 60.2659 13.8556 60.4598 13.8879 60.6363C14.156 60.7332 13.8814 60.8647 14.1043 60.972L13.9493 61.0032C14.0268 61.0412 14.0785 61.0828 13.9913 61.1105H13.946C14.0623 61.1624 13.988 61.2143 14.0462 61.242H14.001L14.0171 61.3009L13.9525 61.287C14.0753 61.3805 14.0785 61.4705 14.0203 61.5466H14.2077C13.9945 61.7093 14.3822 61.782 14.1269 61.9273H14.0817C14.5695 62.1281 13.7393 62.2215 14.2045 62.4327C14.1463 62.4084 14.1076 62.4431 14.0623 62.4396C14.114 62.5331 14.1431 62.63 14.5114 62.6369C14.5049 62.7027 14.3951 62.6888 14.2529 62.6957C14.4145 62.6957 14.4791 62.7546 14.4888 62.8065L14.4274 62.7823L14.4823 62.9311L14.786 62.9034C14.6987 62.9796 14.4145 62.9207 14.4888 62.9969H14.7408C14.6923 63.1042 14.3079 63.17 14.1237 63.2773C14.0171 63.7238 14.6697 64.1772 14.24 64.5994L14.0494 64.6237C13.7716 64.641 14.4629 64.7206 14.2077 64.7483L14.3369 64.7898C14.2885 64.8037 14.2368 64.8348 14.1722 64.814C14.1625 64.859 14.2077 64.8591 14.2949 64.8868L14.1237 64.9421C13.9977 65.1221 14.3369 65.2536 14.2788 65.4406C13.9396 65.6828 14.2852 66.0774 14.492 66.2989C14.9249 66.5932 13.862 67.0847 14.3628 67.3823C14.324 67.3962 14.4145 67.4169 14.4468 67.4135L14.4371 67.7319C14.4371 67.7319 14.45 68.1161 14.7375 68.3134C15.0218 68.5176 15.5742 68.5142 16.6532 67.8185H16.7146C16.8406 67.6385 16.8632 67.5346 16.5498 67.4585C16.9181 67.3996 16.5757 67.32 16.692 67.2681H16.7211C16.4271 67.2024 16.9375 67.0396 16.6758 66.9739C16.7049 66.9739 16.8083 66.967 16.8148 66.9877C16.7631 66.9254 16.6726 66.8389 16.8858 66.8112C16.8147 66.652 16.8955 66.4132 16.5434 66.337H16.6048C16.3689 66.2989 16.566 66.2643 16.44 66.2055C16.4691 66.1986 16.482 66.1951 16.4949 66.1916C16.2591 66.1432 16.4465 66.0013 16.3431 65.9563L16.4852 65.9424L16.4432 65.8144L16.4142 65.8663C16.0168 65.8767 16.6565 65.7486 16.3948 65.6724C16.44 65.579 15.5645 65.5444 15.7519 65.4371C15.5645 65.4025 16.0556 65.4579 15.907 65.399C16.1137 65.3852 16.0394 65.4232 16.2009 65.3956C16.1008 65.3367 16.4045 65.2779 16.2623 65.2052L16.4239 65.1914C16.1266 65.1014 16.6274 64.9837 16.3431 64.9283C16.2074 64.8245 16.818 64.8348 16.4982 64.7344L16.7146 64.6825C16.7469 64.6341 16.4465 64.6583 16.5498 64.6029C16.6855 64.6029 16.6565 64.5302 16.7889 64.5579C16.9989 64.4298 16.4788 64.326 16.8341 64.1564C16.566 64.1287 16.7211 64.0457 16.524 64.0249C16.6403 64.018 16.5402 63.8656 16.7921 63.9487C16.8115 63.9556 16.8083 63.9695 16.7631 63.9695L16.9214 63.9764C17.2186 63.8795 16.7534 63.8172 16.7986 63.7272C16.7469 63.7549 16.7598 63.7895 16.6532 63.7687L16.6726 63.6857L16.8051 63.6995L16.8794 63.5749L16.7146 63.5957C16.7986 63.5334 17.0764 63.5092 16.8438 63.4434C16.7146 63.4122 16.6242 63.5022 16.5692 63.4399C16.6823 63.3569 16.8503 63.2357 16.8988 63.1353C16.7146 63.1457 16.7211 63.118 16.6823 63.0903H16.8438C16.6209 62.9761 17.1992 63.0488 17.0183 62.9381L17.1313 62.9484L16.7954 62.9173C16.4756 62.8169 17.1281 62.8654 16.6952 62.7546C16.7211 62.7961 16.3399 62.7719 16.4109 62.72L16.566 62.7338C16.5337 62.7027 16.4691 62.6923 16.5014 62.675C16.5854 62.6923 16.7275 62.6853 16.7017 62.6438L16.8955 62.675L16.6112 62.5919C16.7792 62.5296 16.5725 62.4292 16.7889 62.405C16.7889 62.405 16.8988 62.2735 16.6597 62.2354C16.8083 62.2666 16.8664 62.1938 17.0409 62.2181C16.8729 62.18 16.7372 62.0727 16.9181 62.0347L16.9375 62.0415C17.1249 61.8962 16.692 61.7716 16.9181 61.6435C16.7308 61.6435 16.8341 61.5743 16.5951 61.5847C16.3657 61.4324 17.0894 61.3458 16.356 61.2628C16.3173 61.197 16.5305 61.1936 16.5725 61.1624L16.6112 61.1797C16.5563 61.0551 16.5499 61.0205 16.5725 60.9305C16.5014 60.882 16.1622 60.8544 16.2494 60.7782C16.3851 60.8128 16.3592 60.7782 16.3625 60.747C16.3819 60.7678 16.4335 60.7782 16.5272 60.7436C16.4852 60.7366 16.4594 60.7263 16.44 60.7159C16.4497 60.7159 16.4594 60.7159 16.4723 60.7159C16.4271 60.664 16.3851 60.6675 16.3657 60.6917C16.3463 60.6917 16.3172 60.6917 16.2817 60.6917C16.4594 60.6501 16.2785 60.5428 16.5111 60.5532C16.4659 60.3975 16.23 60.2728 16.1493 60.1378C16.2688 60.1309 16.3754 60.169 16.4174 60.2106L16.3786 60.1171C16.5498 60.1309 16.4755 60.1759 16.5079 60.2071C16.7954 60.1206 16.2429 59.9648 16.5079 59.861L16.3722 59.8229L16.3948 59.816C16.3237 59.809 16.2268 59.7744 16.2042 59.7536C16.356 59.7467 16.5498 59.7813 16.5466 59.719C16.6952 59.681 16.4852 59.5737 16.4077 59.501C16.3786 59.5321 16.2979 59.5148 16.2462 59.494C16.2462 59.4629 16.3948 59.456 16.3334 59.4283L16.5369 59.4421C16.3463 59.4387 16.3366 59.3418 16.2559 59.3244C16.4077 59.321 16.3819 59.3833 16.4949 59.404C16.4852 59.276 16.4917 59.3418 16.482 59.2137C16.3334 59.1341 16.2882 59.2068 16.1137 59.1583C16.0782 59.096 15.9425 59.0233 16.0685 58.9679H15.8876C15.7584 58.8468 15.7842 58.781 15.9748 58.7257C15.2802 58.2307 14.786 58.1234 14.4629 58.1511C14.1399 58.1788 13.9913 58.3345 13.9913 58.3345C13.5616 58.6357 14.0688 58.8676 14.1786 59.2864Z" fill="#20BB65"/>
<path d="M18.361 75.9663L18.2976 76.0173C18.3293 76.0037 18.3547 75.9901 18.361 75.9663Z" fill="#20BB65"/>
<path d="M16.062 76.4786C16.0813 76.849 15.7841 77.067 16.0361 77.3716C16.0684 77.5516 16.2041 77.7004 16.301 77.8493C16.5821 77.825 16.3818 78.0639 16.6273 78.0673L16.4949 78.1608C16.5789 78.1608 16.6435 78.1781 16.5756 78.2438L16.5336 78.2577C16.6596 78.2577 16.6144 78.3408 16.6758 78.3408L16.6338 78.3581L16.6725 78.4065L16.6079 78.4204C16.7533 78.455 16.7921 78.5346 16.7662 78.6315L16.9374 78.5519C16.8018 78.7942 17.1862 78.6938 17.0085 78.9361L16.9665 78.9534C17.4899 78.9292 16.7662 79.3757 17.2734 79.3653C17.212 79.3653 17.1894 79.4172 17.1474 79.4345C17.2314 79.4968 17.2928 79.5765 17.632 79.4207C17.6514 79.483 17.5448 79.5211 17.4188 79.5868C17.5674 79.5176 17.6482 79.5418 17.6772 79.5868H17.6094L17.716 79.7045L17.9841 79.5453C17.9324 79.6561 17.6514 79.7253 17.7483 79.7599L17.9777 79.6491C17.9744 79.7703 17.6482 79.9952 17.5189 80.1752C17.5932 80.6287 18.3621 80.7602 18.1295 81.3348L17.968 81.4421C17.7225 81.5805 18.3815 81.3486 18.1586 81.4836L18.291 81.4663C18.2523 81.5009 18.2167 81.5528 18.1521 81.5597C18.1618 81.6047 18.2006 81.584 18.291 81.5736L18.1553 81.6982C18.1101 81.9197 18.4655 81.892 18.4881 82.0859C18.2717 82.4562 18.7368 82.6639 19.0114 82.7747C19.5186 82.8508 18.7368 83.7681 19.3086 83.82C19.2796 83.8511 19.37 83.8269 19.3959 83.8096L19.5089 84.1038C19.5089 84.1038 19.6672 84.4465 20.0032 84.5053C20.3424 84.5641 20.8432 84.3184 21.5603 83.2142L21.6153 83.1866C21.6637 82.9651 21.6411 82.8612 21.3277 82.9304C21.6411 82.7124 21.2987 82.7954 21.3859 82.6951L21.415 82.6812C21.121 82.7504 21.5248 82.3766 21.2599 82.432C21.2857 82.4181 21.3762 82.3662 21.3923 82.3835C21.3213 82.3489 21.205 82.3109 21.3923 82.1897C21.2664 82.0755 21.2502 81.8228 20.8981 81.9093L20.953 81.8851C20.7204 81.9509 20.8884 81.8332 20.7527 81.8367C20.7753 81.8194 20.785 81.8055 20.7979 81.8021C20.5653 81.8609 20.6816 81.6497 20.5686 81.6532L20.6946 81.5771L20.6073 81.4767L20.6009 81.5355C20.2423 81.719 20.7753 81.3244 20.5072 81.3659C20.5136 81.2621 19.6995 81.6117 19.832 81.4317C19.6479 81.4836 20.1163 81.3175 19.9612 81.3279C20.1421 81.224 20.0904 81.2933 20.2294 81.1963C20.1131 81.186 20.3715 80.999 20.2132 80.9956L20.3554 80.9125C20.0485 80.9609 20.462 80.6321 20.1809 80.7083C20.0161 80.6737 20.5783 80.4141 20.2487 80.466L20.4264 80.3241C20.4393 80.2652 20.1744 80.421 20.2455 80.3241C20.3683 80.2618 20.3166 80.2133 20.4458 80.1787C20.5912 79.971 20.0743 80.1025 20.336 79.791C20.0807 79.8845 20.1938 79.7391 20 79.8084C20.1034 79.753 19.9548 79.656 20.2164 79.6214C20.239 79.6214 20.239 79.6318 20.2003 79.6526L20.3489 79.5903C20.5815 79.3722 20.1357 79.5176 20.1421 79.4172C20.1066 79.4657 20.1324 79.4899 20.0226 79.5176L20.0097 79.4345L20.1357 79.3895L20.1583 79.2442L20.0161 79.3342C20.0678 79.2407 20.3166 79.0988 20.0775 79.1403C19.9483 79.1715 19.8998 79.2926 19.8255 79.2546C19.8966 79.13 20.0032 78.9465 20.0097 78.8322C19.8449 78.9222 19.8385 78.8946 19.7932 78.8842L19.9386 78.8115C19.6931 78.8115 20.2455 78.6211 20.0452 78.6004L20.1518 78.5588L19.832 78.68C19.5025 78.7284 20.1163 78.4896 19.6769 78.5761C19.7189 78.6038 19.3603 78.7457 19.4023 78.6696L19.5509 78.6142C19.5089 78.6003 19.4476 78.6211 19.4702 78.5865C19.5542 78.5657 19.6802 78.5 19.6414 78.4688L19.8288 78.4134L19.538 78.4619C19.6672 78.3338 19.4411 78.3304 19.6317 78.2162C19.6317 78.2162 19.6802 78.0466 19.4476 78.1192C19.5962 78.0812 19.6188 77.9912 19.79 77.9358C19.622 77.9739 19.4573 77.9358 19.6091 77.825H19.6317C19.748 77.6104 19.3087 77.6866 19.467 77.4685C19.2957 77.5481 19.3636 77.4408 19.1504 77.5516C18.8822 77.5135 19.5122 77.1189 18.8079 77.3612C18.7498 77.3162 18.9436 77.2228 18.9662 77.1778H19.0082C18.9113 77.0878 18.8919 77.0566 18.879 76.9666C18.795 76.9528 18.4752 77.0739 18.5236 76.9666C18.6593 76.9389 18.6238 76.9182 18.6141 76.8905C18.6399 76.9009 18.6884 76.8905 18.7627 76.8143C18.7207 76.8247 18.6949 76.8282 18.6722 76.8282C18.6819 76.8247 18.6884 76.8178 18.7045 76.8143C18.6432 76.7866 18.6076 76.8074 18.5947 76.8385C18.5753 76.8455 18.5495 76.8559 18.5172 76.8767C18.6658 76.7624 18.459 76.7417 18.6755 76.6517C18.5753 76.5305 18.3104 76.5167 18.1877 76.4267C18.2975 76.3713 18.4073 76.3609 18.4623 76.3782L18.3944 76.309C18.5592 76.2467 18.5043 76.3228 18.5462 76.3367C18.7756 76.1359 18.2135 76.2294 18.417 76.0182L18.2781 76.0425L18.2975 76.0286C18.2296 76.0528 18.1263 76.0633 18.1004 76.0529C18.2361 75.9836 18.4299 75.9317 18.4009 75.8763C18.5236 75.7794 18.291 75.769 18.1941 75.7379C18.1812 75.7794 18.0972 75.7967 18.0423 75.8036C18.0294 75.7759 18.165 75.7067 18.0972 75.7067L18.291 75.634C18.1134 75.7102 18.0714 75.6271 17.9874 75.6444C18.1263 75.5752 18.1263 75.6444 18.2361 75.6133C18.1812 75.5025 18.2103 75.5579 18.1553 75.4471C17.9906 75.4368 17.9777 75.5233 17.7968 75.5544C17.7418 75.5129 17.59 75.5025 17.6869 75.3987L17.5222 75.4783C17.3574 75.4194 17.3574 75.3467 17.5092 75.2152C16.6887 75.0525 16.1944 75.1633 15.9069 75.3225C15.6194 75.4817 15.5386 75.6929 15.5386 75.6929C15.2543 76.1532 15.8068 76.1532 16.062 76.4924V76.4786Z" fill="#20BB65"/>
<path d="M26.2057 89.9396L26.1671 90.0118C26.1928 89.9877 26.2089 89.9602 26.2057 89.9396Z" fill="#20BB65"/>
<path d="M30.5383 94.3694C30.5383 94.3694 30.5475 94.3629 30.5536 94.3596C30.5475 94.3596 30.5444 94.3661 30.5383 94.3694Z" fill="#20BB65"/>
<path d="M24.991 92.5286C24.991 92.5286 24.9815 92.532 24.9719 92.5354L24.991 92.5286Z" fill="#20BB65"/>
<path d="M24.277 91.3725C24.4321 91.7048 24.2351 92.0267 24.5743 92.1997C24.6679 92.352 24.8488 92.4317 24.9878 92.5251C25.2365 92.3832 25.1364 92.6878 25.3657 92.5874L25.2785 92.7293C25.356 92.6947 25.4207 92.6843 25.3819 92.7709L25.3496 92.802C25.4659 92.7501 25.453 92.8436 25.5111 92.8193L25.4788 92.8505L25.5337 92.8782L25.482 92.9197C25.6274 92.8886 25.692 92.9474 25.7049 93.0478L25.8342 92.9024C25.7954 93.1793 26.112 92.9301 26.0345 93.2278L26.0022 93.2624C26.477 93.0236 25.9666 93.7331 26.4286 93.5151C26.3704 93.5427 26.3672 93.5946 26.3349 93.6293C26.4318 93.6535 26.519 93.6985 26.7743 93.4181C26.813 93.47 26.729 93.5428 26.6353 93.6604C26.7484 93.5358 26.8324 93.5254 26.8744 93.5531L26.8163 93.5843L26.9552 93.6431L27.1458 93.387C27.1361 93.5081 26.9002 93.6881 27.0036 93.6812L27.1781 93.4839C27.2168 93.5981 26.9939 93.9373 26.9358 94.1554C27.1619 94.543 27.9179 94.3561 27.9017 94.9792L27.7854 95.1418C27.6045 95.3668 28.1375 94.8892 27.9792 95.1038L28.0955 95.0346C28.0729 95.083 28.0568 95.1453 27.9986 95.1765C28.0212 95.2146 28.0535 95.1765 28.1311 95.1315L28.0503 95.3011C28.0826 95.5226 28.4057 95.3564 28.4897 95.5295C28.4121 95.9587 28.9161 95.9691 29.2068 95.9656C29.7076 95.841 29.2844 96.9971 29.8336 96.8206C29.8174 96.8587 29.8949 96.8033 29.9143 96.7791L30.1179 97.0075C30.1179 97.0075 30.3795 97.2671 30.7123 97.1909C31.045 97.1182 31.4391 96.7029 31.7428 95.3945L31.7848 95.3495C31.7557 95.1246 31.7008 95.0346 31.4294 95.218C31.6491 94.8961 31.3551 95.1003 31.4036 94.9757L31.4262 94.9515C31.1742 95.128 31.4262 94.6261 31.1969 94.7784C31.2195 94.7577 31.2841 94.6711 31.3035 94.6815C31.2227 94.678 31.1032 94.6815 31.2356 94.5015C31.0806 94.4427 30.9772 94.2142 30.68 94.4288L30.7252 94.3838C30.5314 94.5361 30.6477 94.3596 30.5217 94.415C30.5378 94.3907 30.5443 94.3734 30.5508 94.3665C30.3537 94.5119 30.3892 94.2696 30.2858 94.3146L30.3763 94.1934L30.26 94.1346L30.2761 94.1934C30.008 94.505 30.3666 93.9269 30.1308 94.0723C30.1017 93.9719 29.462 94.6192 29.5234 94.3977C29.3716 94.5188 29.7496 94.1796 29.6074 94.2523C29.7399 94.0827 29.714 94.1692 29.8109 94.0238C29.7011 94.0585 29.8723 93.7816 29.7237 93.8439L29.8271 93.7123C29.559 93.8785 29.8271 93.4112 29.5945 93.5877C29.4297 93.6223 29.8626 93.1585 29.5719 93.3351L29.685 93.1309C29.6753 93.072 29.4814 93.3212 29.517 93.2001C29.6107 93.0928 29.5428 93.0685 29.6527 92.9855C29.714 92.7363 29.2811 93.0616 29.4136 92.6671C29.2101 92.854 29.2618 92.674 29.1099 92.8159C29.1842 92.7224 29.013 92.6913 29.2456 92.5563C29.265 92.5459 29.2715 92.5563 29.2392 92.5909L29.3522 92.4732C29.4911 92.179 29.1293 92.4905 29.1002 92.3936C29.0841 92.4524 29.1164 92.4663 29.0259 92.5355L28.9839 92.4628L29.0873 92.3693L29.055 92.224L28.9549 92.3659C28.971 92.2586 29.1487 92.0267 28.9419 92.1617C28.8321 92.2413 28.8289 92.3728 28.7513 92.3693C28.774 92.2274 28.8063 92.0128 28.774 91.9021C28.6512 92.0509 28.6383 92.0267 28.593 92.0371L28.7029 91.909C28.4735 92.0059 28.9226 91.6079 28.7255 91.6702L28.8095 91.5906L28.5575 91.8294C28.27 92.0059 28.7546 91.5352 28.3766 91.7948C28.425 91.8052 28.144 92.0821 28.1569 91.9921L28.2732 91.8813C28.2312 91.8848 28.1795 91.9298 28.1892 91.8917C28.2603 91.8398 28.354 91.7256 28.3055 91.7152L28.4606 91.5871L28.2054 91.7498C28.2797 91.5767 28.0665 91.6667 28.2054 91.4833C28.2054 91.4833 28.1925 91.3067 28.0019 91.466C28.1246 91.3725 28.1149 91.2756 28.2538 91.1579C28.1117 91.2617 27.9437 91.2929 28.0439 91.1268L28.0632 91.1164C28.0923 90.8706 27.7143 91.1164 27.7822 90.8533C27.653 90.9987 27.6788 90.8706 27.5205 91.061C27.2556 91.1372 27.6982 90.5106 27.1361 91.0264C27.065 91.0091 27.2104 90.8429 27.2168 90.791L27.2556 90.7737C27.1328 90.7322 27.1038 90.7114 27.0585 90.6318C26.9778 90.6526 26.7226 90.9018 26.7323 90.7806C26.8486 90.701 26.8098 90.6941 26.7904 90.6699C26.8195 90.6699 26.8582 90.6353 26.9002 90.5384C26.8647 90.566 26.8421 90.5764 26.8195 90.5868C26.8259 90.5799 26.8324 90.5729 26.8421 90.5626C26.7742 90.5626 26.7484 90.5972 26.7516 90.6283C26.7355 90.6422 26.7161 90.6629 26.6935 90.6976C26.7872 90.5314 26.5901 90.5972 26.7581 90.4241C26.6224 90.3514 26.3737 90.4483 26.2251 90.4241C26.3058 90.3272 26.4027 90.2718 26.4609 90.2649L26.3704 90.2303C26.4997 90.1057 26.477 90.1957 26.519 90.1922C26.6579 89.9084 26.1734 90.2303 26.2832 89.9534L26.1669 90.033L26.1798 90.0122C26.1249 90.0641 26.0345 90.1161 26.0054 90.1161C26.1055 89.9949 26.2638 89.8668 26.2186 89.8288C26.2961 89.6869 26.0764 89.7769 25.9763 89.7872C25.9763 89.8322 25.9085 89.8841 25.86 89.9084C25.8374 89.8876 25.9375 89.7665 25.8762 89.7942L26.0248 89.6453C25.8891 89.7907 25.8212 89.7319 25.7502 89.7838C25.8503 89.6626 25.8762 89.7284 25.9666 89.6522C25.8762 89.5726 25.9214 89.6107 25.8277 89.5311C25.6726 89.5899 25.692 89.6765 25.537 89.7803C25.4691 89.763 25.327 89.8219 25.3787 89.6834L25.2559 89.8253C25.0815 89.8392 25.0556 89.7734 25.1493 89.5865C24.3384 89.7838 23.9249 90.0953 23.7182 90.3653C23.5146 90.6353 23.5179 90.8602 23.5179 90.8602C23.4242 91.4036 23.9346 91.1683 24.29 91.3691L24.277 91.3725Z" fill="#20BB65"/>
<path d="M38.2395 100.126L38.2234 100.209C38.2395 100.178 38.2491 100.147 38.2395 100.126Z" fill="#20BB65"/>
<path d="M43.6378 102.977C43.6378 102.977 43.6444 102.971 43.6509 102.964C43.6444 102.968 43.6411 102.974 43.6378 102.977Z" fill="#20BB65"/>
<path d="M37.8318 102.989C37.8318 102.989 37.8226 102.995 37.8165 103.002L37.8318 102.989Z" fill="#20BB65"/>
<path d="M36.828 102.134C37.0703 102.397 36.9766 102.767 37.3481 102.816C37.4773 102.926 37.6711 102.944 37.8327 102.985C38.0297 102.767 38.02 103.089 38.2074 102.919L38.1654 103.082C38.23 103.023 38.2882 102.992 38.2752 103.089L38.2526 103.131C38.3495 103.044 38.3625 103.137 38.4109 103.092L38.3883 103.134L38.4465 103.144L38.4077 103.2C38.5369 103.124 38.6144 103.158 38.6532 103.248L38.734 103.068C38.776 103.345 39.0053 103.006 39.015 103.311L38.9924 103.352C39.3769 102.971 39.0893 103.812 39.4673 103.456C39.4189 103.501 39.4318 103.553 39.4092 103.594C39.5093 103.584 39.603 103.601 39.771 103.252C39.8227 103.286 39.7645 103.387 39.7064 103.525C39.7774 103.369 39.8582 103.331 39.9034 103.345L39.855 103.394L40.0036 103.407L40.1167 103.103C40.1425 103.22 39.9681 103.466 40.0617 103.432L40.1748 103.189C40.2426 103.286 40.1263 103.681 40.1296 103.906C40.4494 104.204 41.1214 103.785 41.2732 104.387L41.2086 104.577C41.0987 104.851 41.4767 104.228 41.383 104.48L41.4767 104.377C41.467 104.428 41.467 104.494 41.4218 104.543C41.4541 104.57 41.4735 104.529 41.5349 104.46L41.5025 104.647C41.593 104.847 41.8547 104.588 41.9807 104.726C42.0227 105.159 42.504 105.013 42.7818 104.92C43.2277 104.647 43.1275 105.882 43.6056 105.546C43.5992 105.588 43.6573 105.512 43.6702 105.481L43.9222 105.64C43.9222 105.64 44.2388 105.81 44.536 105.64C44.8365 105.47 45.1046 104.951 45.0529 103.605L45.082 103.549C44.9948 103.342 44.9204 103.272 44.7072 103.529C44.8332 103.151 44.6071 103.439 44.6168 103.304L44.6329 103.276C44.4359 103.522 44.5457 102.961 44.3648 103.179C44.381 103.151 44.4197 103.051 44.4423 103.054C44.3648 103.075 44.2485 103.117 44.3293 102.902C44.1645 102.892 44.003 102.705 43.7736 102.999L43.8027 102.944C43.6573 103.148 43.7219 102.944 43.6153 103.034C43.625 103.006 43.625 102.989 43.6315 102.978C43.4829 103.179 43.4506 102.937 43.3633 103.009L43.4183 102.867L43.2923 102.847L43.3213 102.895C43.1469 103.276 43.3343 102.611 43.1501 102.822C43.0952 102.736 42.6591 103.553 42.6559 103.324C42.5428 103.487 42.8142 103.047 42.6979 103.158C42.7818 102.957 42.7786 103.044 42.8303 102.878C42.7334 102.947 42.8238 102.629 42.6979 102.729L42.7625 102.57C42.5493 102.812 42.6817 102.279 42.504 102.525C42.3554 102.608 42.6429 102.03 42.4136 102.289L42.4685 102.061C42.4426 102.006 42.3263 102.307 42.3263 102.182C42.3877 102.051 42.3167 102.047 42.3974 101.933C42.3877 101.673 42.0614 102.123 42.0808 101.704C41.9387 101.947 41.9387 101.76 41.8288 101.943C41.8741 101.829 41.6996 101.857 41.887 101.653C41.9031 101.635 41.9128 101.646 41.8935 101.687L41.971 101.538C42.0227 101.213 41.761 101.625 41.7061 101.538C41.7061 101.601 41.7416 101.604 41.6738 101.698L41.6124 101.639L41.6835 101.518L41.6124 101.389L41.5542 101.556C41.5413 101.448 41.6447 101.168 41.4864 101.365C41.4024 101.476 41.4379 101.604 41.3604 101.625C41.341 101.483 41.3152 101.265 41.2506 101.171C41.1763 101.355 41.1569 101.334 41.1149 101.358L41.1827 101.203C40.9921 101.369 41.3055 100.846 41.1375 100.967L41.1956 100.863L41.0212 101.171C40.7951 101.431 41.1278 100.829 40.8403 101.196C40.8888 101.189 40.6982 101.545 40.6852 101.452L40.766 101.31C40.7272 101.327 40.6884 101.386 40.6884 101.344C40.7401 101.272 40.7983 101.133 40.7498 101.137L40.8629 100.964L40.6659 101.199C40.6885 101.012 40.5108 101.164 40.5883 100.943C40.5883 100.943 40.5237 100.78 40.388 100.991C40.4785 100.863 40.4429 100.773 40.5399 100.618C40.4332 100.763 40.2846 100.846 40.3331 100.656L40.3492 100.638C40.3072 100.393 40.0165 100.756 40.0036 100.479C39.9228 100.659 39.9099 100.528 39.813 100.763C39.5836 100.919 39.8259 100.181 39.435 100.853C39.3607 100.86 39.4512 100.652 39.4415 100.6L39.4738 100.573C39.3446 100.573 39.3122 100.562 39.2444 100.503C39.1733 100.548 39.0021 100.87 38.9763 100.753C39.0635 100.638 39.0247 100.645 38.9989 100.631C39.0247 100.621 39.0538 100.576 39.0667 100.472C39.0409 100.51 39.0215 100.531 39.0054 100.545C39.0118 100.535 39.0118 100.528 39.0215 100.514C38.9569 100.535 38.944 100.58 38.9537 100.607C38.944 100.628 38.931 100.652 38.9181 100.69C38.9601 100.5 38.7921 100.631 38.8987 100.406C38.7469 100.382 38.5401 100.559 38.3915 100.58C38.44 100.458 38.5143 100.375 38.5692 100.351H38.4755C38.5595 100.185 38.566 100.278 38.6048 100.261C38.6532 99.9461 38.2882 100.413 38.3108 100.112L38.2203 100.226L38.2268 100.202C38.1912 100.271 38.1202 100.348 38.0911 100.361C38.1525 100.213 38.2623 100.04 38.2074 100.015C38.2397 99.8561 38.0588 100.015 37.9651 100.057C37.9813 100.098 37.9296 100.171 37.8908 100.213C37.8617 100.202 37.9231 100.053 37.8714 100.102L37.9716 99.9115C37.8844 100.095 37.8036 100.064 37.7519 100.133C37.8133 99.9842 37.8553 100.036 37.9199 99.9358C37.8101 99.8908 37.865 99.9115 37.7519 99.8665C37.6195 99.9738 37.6647 100.05 37.5484 100.199C37.4805 100.206 37.361 100.31 37.3675 100.161L37.2932 100.337C37.1316 100.41 37.0864 100.355 37.1187 100.147C36.408 100.611 36.1076 101.047 35.9945 101.372C35.8814 101.698 35.9493 101.909 35.9493 101.909C36.0203 102.452 36.4306 102.058 36.828 102.127V102.134Z" fill="#20BB65"/>
<path d="M51.9212 106.111L51.9143 106.19C51.9246 106.155 51.9281 106.124 51.9212 106.111Z" fill="#20BB65"/>
<path d="M54.9381 106.861C54.9381 106.861 54.9414 106.851 54.9446 106.844C54.9414 106.851 54.9381 106.854 54.9381 106.861Z" fill="#20BB65"/>
<path d="M51.7401 108.866C51.7401 108.866 51.7369 108.876 51.7336 108.882L51.7434 108.866H51.7401Z" fill="#20BB65"/>
<path d="M51.1651 108.475C51.304 108.617 51.2588 108.99 51.4656 108.894C51.5399 108.945 51.6465 108.887 51.7369 108.866C51.8435 108.592 51.8435 108.89 51.9437 108.665L51.9211 108.831C51.9566 108.755 51.9889 108.703 51.9824 108.797L51.9695 108.842C52.0212 108.727 52.0309 108.807 52.0567 108.748L52.0438 108.797L52.0761 108.783L52.0567 108.849C52.1278 108.731 52.1698 108.734 52.1924 108.804L52.2344 108.606C52.2603 108.845 52.383 108.45 52.3927 108.727L52.3798 108.776C52.5898 108.284 52.4412 109.164 52.6447 108.7C52.6189 108.759 52.6253 108.8 52.6156 108.849C52.6706 108.804 52.7222 108.786 52.8095 108.402C52.8385 108.416 52.8095 108.53 52.7772 108.679C52.8159 108.509 52.8579 108.447 52.8838 108.444L52.8579 108.506L52.9387 108.468L52.9968 108.146C53.013 108.246 52.9193 108.534 52.971 108.468L53.0291 108.205C53.0679 108.27 53.0065 108.675 53.013 108.883C53.1939 109.049 53.559 108.43 53.6462 108.942L53.6106 109.143C53.5525 109.434 53.756 108.727 53.7043 108.997L53.756 108.869C53.7528 108.921 53.7528 108.98 53.7269 109.042C53.7463 109.06 53.756 109.011 53.7883 108.928L53.7722 109.115C53.8238 109.274 53.966 108.945 54.0338 109.035C54.0597 109.427 54.3214 109.136 54.4732 108.963C54.7123 108.565 54.667 109.762 54.9255 109.302C54.9255 109.343 54.9545 109.254 54.961 109.222L55.0999 109.295C55.0999 109.295 55.2711 109.361 55.4327 109.112C55.5942 108.862 55.7363 108.295 55.7008 107.031L55.7169 106.969C55.6685 106.799 55.6265 106.754 55.5134 107.063C55.578 106.671 55.4585 107.007 55.465 106.879L55.4714 106.848C55.368 107.139 55.423 106.578 55.3261 106.838C55.3325 106.806 55.3551 106.699 55.368 106.696C55.326 106.737 55.2647 106.813 55.3067 106.585C55.2162 106.626 55.129 106.498 55.0062 106.848L55.0224 106.786C54.9449 107.024 54.9772 106.813 54.9222 106.931C54.9255 106.9 54.9287 106.886 54.9287 106.872C54.8479 107.108 54.8285 106.889 54.7833 106.986L54.8124 106.834L54.7413 106.855L54.7575 106.893C54.6638 107.305 54.7639 106.623 54.6638 106.879C54.6315 106.817 54.4021 107.72 54.3989 107.506C54.3375 107.696 54.4829 107.194 54.4215 107.336C54.4667 107.121 54.4635 107.204 54.4926 107.031C54.4409 107.125 54.4861 106.799 54.4183 106.934L54.4506 106.765C54.3375 107.059 54.4021 106.523 54.3084 106.806C54.2277 106.931 54.3795 106.301 54.2567 106.616L54.2858 106.384C54.2697 106.343 54.2115 106.658 54.2083 106.543C54.2406 106.401 54.2018 106.422 54.2438 106.291C54.2341 106.052 54.0597 106.578 54.0661 106.183C53.9886 106.457 53.9886 106.284 53.9305 106.488C53.9563 106.367 53.8594 106.45 53.9595 106.197C53.9692 106.176 53.9725 106.183 53.9595 106.228L54.0015 106.066C54.0274 105.744 53.8885 106.218 53.8561 106.159C53.8561 106.218 53.8755 106.208 53.84 106.318L53.8045 106.287L53.8432 106.149L53.8045 106.052L53.7754 106.225C53.7657 106.128 53.8206 105.834 53.7366 106.069C53.6914 106.201 53.7108 106.308 53.6688 106.353C53.6559 106.225 53.6397 106.035 53.6009 105.972C53.5622 106.166 53.5492 106.156 53.5299 106.19L53.5654 106.021C53.462 106.239 53.63 105.647 53.5363 105.82L53.5686 105.706L53.4749 106.052C53.3522 106.37 53.5299 105.699 53.3748 106.138C53.4006 106.114 53.3005 106.509 53.2908 106.429L53.3328 106.27C53.3102 106.301 53.2908 106.367 53.2908 106.332C53.3199 106.246 53.349 106.097 53.3231 106.121L53.3845 105.924L53.2779 106.211C53.2876 106.031 53.1907 106.235 53.2327 106.003C53.2327 106.003 53.1939 105.875 53.1228 106.121C53.1713 105.969 53.1487 105.9 53.2036 105.723C53.1454 105.893 53.0647 106.024 53.0873 105.834L53.097 105.813C53.0711 105.602 52.9128 106.041 52.9032 105.792C52.8612 105.986 52.8515 105.872 52.7998 106.121C52.6738 106.35 52.7998 105.585 52.5898 106.343C52.5478 106.374 52.5962 106.152 52.5898 106.111L52.6059 106.073C52.5349 106.121 52.5155 106.121 52.4767 106.093C52.438 106.163 52.3475 106.516 52.3313 106.419C52.3766 106.28 52.3572 106.301 52.341 106.298C52.3572 106.277 52.3701 106.228 52.3766 106.128C52.3637 106.169 52.354 106.197 52.3443 106.218C52.3443 106.208 52.3475 106.197 52.3507 106.183C52.3152 106.225 52.3087 106.273 52.3152 106.294C52.3087 106.315 52.3023 106.343 52.2958 106.384C52.3152 106.194 52.2247 106.377 52.2796 106.135C52.1957 106.169 52.0826 106.408 51.9986 106.484C52.0244 106.356 52.0632 106.253 52.0923 106.208L52.0374 106.242C52.0826 106.062 52.0858 106.145 52.1084 106.114C52.1311 105.81 51.934 106.374 51.9404 106.09L51.892 106.228V106.204C51.8758 106.28 51.8371 106.377 51.8209 106.398C51.8532 106.239 51.9114 106.038 51.8791 106.038C51.8952 105.882 51.7951 106.093 51.7434 106.169C51.7531 106.201 51.7272 106.287 51.7046 106.339C51.6885 106.339 51.7208 106.183 51.6917 106.246L51.7434 106.035C51.6982 106.235 51.6497 106.239 51.6239 106.322C51.6562 106.163 51.682 106.194 51.7143 106.076C51.6497 106.076 51.682 106.076 51.6206 106.08C51.5496 106.228 51.5754 106.28 51.514 106.46C51.4752 106.495 51.4106 106.633 51.4106 106.495L51.3719 106.685C51.2814 106.813 51.2556 106.782 51.2717 106.585C50.4835 107.987 50.6482 108.634 50.6482 108.634C50.6999 109.094 50.9228 108.575 51.1457 108.485L51.1651 108.475Z" fill="#20BB65"/>
</svg>
