<svg width="183" height="53" viewBox="0 0 183 53" fill="none" xmlns="http://www.w3.org/2000/svg">
<path d="M15.8618 0.789429L15.7881 0.803088C15.8233 0.803088 15.8522 0.799726 15.8618 0.789429Z" fill="#20BB65"/>
<path d="M13.3445 1.36626C13.3445 1.36626 13.3315 1.36626 13.3251 1.36279H13.3445V1.36626Z" fill="#20BB65"/>
<path d="M13.5378 0.623596C13.4443 0.813567 13.0994 0.872302 13.2412 1.07263C13.2154 1.16935 13.2992 1.273 13.3444 1.36626C13.6184 1.4008 13.3508 1.4906 13.5829 1.53205L13.4282 1.55971C13.5055 1.57352 13.5604 1.59421 13.4798 1.61494H13.4346C13.5539 1.63566 13.483 1.67018 13.5442 1.68055H13.4991L13.5217 1.71512H13.4572C13.5829 1.75311 13.5926 1.80143 13.541 1.84633L13.728 1.82913C13.5249 1.9362 13.915 1.93961 13.6732 2.03978H13.6281C14.1277 2.1054 13.3025 2.23666 13.7796 2.30228C13.7215 2.29538 13.6829 2.31612 13.6377 2.31957C13.6958 2.36447 13.728 2.4128 14.0923 2.37826C14.0923 2.4128 13.9794 2.41968 13.8408 2.43695C14.002 2.41968 14.0697 2.4439 14.0826 2.47153L14.0181 2.46461L14.0794 2.53713L14.3792 2.48882C14.2954 2.54063 14.0117 2.54062 14.0891 2.57171L14.3405 2.54405C14.2954 2.60622 13.9214 2.68571 13.7441 2.76515C13.6635 3.02075 14.3308 3.17619 13.9246 3.46287L13.7377 3.50428C13.4669 3.55609 14.1503 3.49395 13.8989 3.54576H14.0278C13.9795 3.56649 13.9311 3.59062 13.8666 3.58717C13.8602 3.61135 13.9053 3.60446 13.9891 3.60791L13.8247 3.66315C13.7087 3.78058 14.0471 3.79784 13.9988 3.90837C13.6764 4.09489 14.031 4.25722 14.2438 4.33666C14.679 4.4092 13.6571 4.88932 14.16 4.95149C14.1245 4.96876 14.2116 4.9584 14.2438 4.95149V5.12765C14.2438 5.12765 14.2728 5.33833 14.5565 5.37978C14.8402 5.42814 15.3689 5.27969 16.3973 4.67869L16.4553 4.66486C16.5746 4.54743 16.5939 4.49211 16.2909 4.52319C16.6487 4.41266 16.3134 4.45071 16.4231 4.3989L16.4521 4.39198C16.1651 4.42307 16.6584 4.23305 16.4005 4.25723C16.4295 4.25032 16.5294 4.2262 16.5359 4.23311C16.4843 4.21239 16.394 4.18819 16.6036 4.13293C16.5327 4.07076 16.6036 3.93952 16.2586 3.9706L16.3167 3.96023C16.0846 3.98786 16.2748 3.93256 16.1522 3.92566C16.178 3.91875 16.1942 3.91182 16.2038 3.90837C15.9717 3.92909 16.149 3.82547 16.0491 3.81856L16.1877 3.78407L16.1426 3.72884L16.1168 3.75987C15.7299 3.83586 16.3489 3.6597 16.091 3.6666C16.1329 3.61479 15.2689 3.74604 15.4495 3.65969C15.2625 3.67351 15.7493 3.61828 15.601 3.61483C15.8041 3.57338 15.7299 3.60441 15.8911 3.56297C15.788 3.54915 16.0878 3.46977 15.9459 3.45596L16.1039 3.42484C15.8073 3.42829 16.2973 3.2901 16.0169 3.30737C15.8782 3.27974 16.4811 3.18654 16.1619 3.18999L16.3715 3.13121C16.4037 3.10358 16.1071 3.16237 16.2071 3.11747C16.3425 3.09675 16.3102 3.0656 16.4392 3.05869C16.6423 2.96889 16.1232 2.99312 16.4682 2.85842C16.2038 2.8826 16.3553 2.8204 16.1555 2.83767C16.2683 2.81695 16.1651 2.75825 16.4198 2.76515C16.4392 2.76515 16.4392 2.77207 16.394 2.77898L16.552 2.7617C16.8421 2.67535 16.3811 2.70987 16.4198 2.65806C16.3682 2.67878 16.3844 2.69255 16.278 2.69601L16.2941 2.6546L16.4263 2.64423L16.4972 2.57517L16.336 2.60628C16.4166 2.56483 16.6906 2.51993 16.4585 2.51647C16.3263 2.51647 16.2425 2.57168 16.1877 2.54751C16.2941 2.49224 16.4553 2.41624 16.5004 2.36098C16.3167 2.38861 16.3231 2.37479 16.2844 2.36098L16.4424 2.34032C16.2167 2.31268 16.7906 2.28159 16.61 2.25051L16.7229 2.24359L16.3876 2.26771C16.0652 2.25389 16.7164 2.20556 16.2812 2.2021C16.3102 2.21937 15.9298 2.25047 15.9975 2.21593L16.1522 2.20556C16.12 2.1952 16.0523 2.19518 16.0846 2.18482C16.1684 2.18482 16.3102 2.1676 16.2812 2.14687L16.4746 2.13996L16.1877 2.12958C16.3521 2.08468 16.1394 2.05358 16.3553 2.02249C16.3553 2.02249 16.4553 1.94997 16.2167 1.95343C16.365 1.95343 16.4198 1.91202 16.5939 1.90856C16.4263 1.90856 16.2844 1.86704 16.4617 1.8325H16.4811C16.6584 1.74961 16.2232 1.72895 16.4392 1.64606C16.2522 1.65987 16.3521 1.61842 16.1168 1.64606C15.8782 1.59079 16.5939 1.49403 15.8589 1.50784C15.817 1.47676 16.0298 1.45951 16.0652 1.44224L16.1039 1.44915C16.0427 1.39389 16.033 1.37659 16.0491 1.33169C15.9782 1.31096 15.6365 1.32136 15.7171 1.27991C15.8524 1.28682 15.8266 1.27298 15.8266 1.25571C15.8492 1.26607 15.8976 1.26606 15.9878 1.24188C15.9459 1.24188 15.9201 1.23842 15.8976 1.23496C15.9073 1.23496 15.9169 1.23496 15.9298 1.23496C15.8815 1.21079 15.8396 1.21769 15.8202 1.22805C15.8009 1.22805 15.7719 1.22806 15.7364 1.23496C15.9105 1.20388 15.7235 1.16243 15.9556 1.15207C15.8976 1.07954 15.6558 1.03125 15.5655 0.965624C15.6848 0.955262 15.7912 0.969014 15.8396 0.986285L15.7944 0.941423C15.9685 0.941423 15.8943 0.965554 15.9298 0.97937C16.2103 0.924105 15.6494 0.872299 15.904 0.810126L15.7686 0.796297H15.7912C15.7203 0.796297 15.6203 0.779084 15.5978 0.768722C15.7493 0.75836 15.9459 0.768692 15.9363 0.737605C16.0813 0.713427 15.8653 0.668512 15.7815 0.637426C15.7557 0.654696 15.6719 0.647791 15.6203 0.640883C15.6139 0.623613 15.7654 0.616755 15.7009 0.606393H15.904C15.7138 0.609847 15.6977 0.564898 15.6139 0.55799C15.7654 0.551082 15.7428 0.582198 15.8557 0.589106C15.8363 0.526934 15.846 0.558014 15.8266 0.495841C15.6751 0.461301 15.6332 0.495828 15.4559 0.482012C15.4172 0.450926 15.2754 0.419833 15.3979 0.388747L15.2174 0.395661C15.0788 0.336943 15.1013 0.302447 15.2851 0.267907C14.5565 0.0330335 14.0568 -0.0187801 13.7377 0.00539799C13.4185 0.0261221 13.2831 0.115866 13.2831 0.115866C12.8802 0.292021 13.4024 0.405993 13.541 0.623596H13.5378Z" fill="#20BB65"/>
<path d="M20.3399 11.2378L20.3079 11.3133C20.3303 11.2858 20.3463 11.2584 20.3399 11.2378Z" fill="#20BB65"/>
<path d="M25.3398 14.6572C25.3398 14.6572 25.3467 14.6503 25.3536 14.6434C25.3467 14.6469 25.3433 14.6503 25.3398 14.6572Z" fill="#20BB65"/>
<path d="M19.4632 13.9803C19.4632 13.9803 19.4535 13.9873 19.447 13.9908L19.4664 13.9803H19.4632Z" fill="#20BB65"/>
<path d="M18.5635 12.8751C18.7666 13.1963 18.6087 13.5555 18.9858 13.6936C19.1051 13.8352 19.2985 13.9043 19.4629 13.9803C19.6951 13.8042 19.6435 14.1254 19.8595 13.9942L19.795 14.1496C19.8691 14.1047 19.9304 14.084 19.9078 14.1772L19.8788 14.2152C19.9884 14.1461 19.9916 14.2428 20.0464 14.2083L20.0174 14.2463L20.0787 14.2669L20.0336 14.3154C20.1754 14.2635 20.2528 14.3119 20.2818 14.4086L20.3849 14.2428C20.3946 14.5295 20.6686 14.229 20.6493 14.5364L20.6203 14.5744C21.0555 14.2532 20.6751 15.0545 21.1006 14.754C21.049 14.792 21.0555 14.8472 21.0297 14.8852C21.1328 14.8887 21.2296 14.9198 21.4327 14.5917C21.4842 14.6331 21.4133 14.7264 21.3424 14.8577C21.4294 14.7126 21.5133 14.6849 21.5616 14.7056L21.51 14.7471L21.6583 14.7817L21.8002 14.4915C21.8163 14.6124 21.6164 14.8369 21.7163 14.8127L21.8517 14.5848C21.913 14.6884 21.7615 15.0684 21.7518 15.2963C22.0613 15.6417 22.7737 15.2894 22.8995 15.9042L22.8221 16.0907C22.6964 16.3532 23.1154 15.7626 23.0058 16.0112L23.1058 15.918C23.0929 15.9698 23.0929 16.0354 23.0413 16.0803C23.0735 16.1114 23.0961 16.07 23.1638 16.0078L23.1219 16.1943C23.2057 16.4085 23.4894 16.1598 23.6119 16.3118C23.6377 16.7539 24.1438 16.633 24.4275 16.5605C24.8885 16.3049 24.7596 17.5483 25.2592 17.2271C25.2528 17.2685 25.3141 17.196 25.3269 17.1649L25.5848 17.3342C25.5848 17.3342 25.9072 17.5138 26.2135 17.348C26.523 17.1856 26.7938 16.671 26.7583 15.3239L26.7873 15.2687C26.7035 15.058 26.6293 14.9889 26.4101 15.241C26.5455 14.868 26.3102 15.1478 26.3263 15.0165L26.3424 14.9889C26.1393 15.2272 26.2651 14.6745 26.0781 14.8852C26.0942 14.8576 26.1361 14.7609 26.1587 14.7609C26.0813 14.7782 25.962 14.8197 26.0491 14.6055C25.8847 14.5882 25.7331 14.3948 25.4946 14.6815L25.5268 14.6262C25.3753 14.8265 25.4462 14.6262 25.3366 14.7125C25.3463 14.6849 25.3495 14.6677 25.3527 14.6573C25.198 14.8507 25.1754 14.6055 25.0852 14.6746L25.1464 14.5364L25.0207 14.5088L25.0497 14.5606C24.8595 14.9302 25.0755 14.2774 24.8821 14.4811C24.8305 14.3948 24.3566 15.1823 24.3663 14.9509C24.2438 15.1064 24.5371 14.6849 24.4146 14.7885C24.5081 14.5916 24.4984 14.6815 24.5597 14.5157C24.4598 14.5779 24.5661 14.267 24.4372 14.3602L24.5081 14.2083C24.2825 14.4362 24.4436 13.9181 24.2534 14.1496C24.1019 14.2221 24.4211 13.666 24.1793 13.9078L24.247 13.6832C24.2244 13.628 24.0923 13.9147 24.0987 13.7903C24.1664 13.6625 24.0987 13.6556 24.1857 13.5486C24.1922 13.2895 23.8376 13.7178 23.8891 13.2999C23.728 13.5313 23.7441 13.3413 23.6248 13.514C23.6796 13.4035 23.5055 13.4173 23.7054 13.2274C23.7215 13.2136 23.7312 13.2239 23.7054 13.2653L23.7924 13.1237C23.873 12.8025 23.5797 13.1928 23.5313 13.1064C23.5249 13.1686 23.5603 13.1721 23.4862 13.2619L23.4314 13.1997L23.512 13.0857L23.4539 12.951L23.383 13.1099C23.3798 12.9994 23.5088 12.7334 23.3347 12.913C23.2412 13.0166 23.2637 13.1444 23.1864 13.1582C23.1799 13.0132 23.1735 12.7956 23.1219 12.6989C23.0316 12.8716 23.0123 12.8509 22.9704 12.8716L23.0542 12.723C22.8511 12.8681 23.2122 12.3811 23.0349 12.4847L23.1026 12.388L22.8995 12.6747C22.6512 12.9096 23.0413 12.3466 22.7189 12.6782C22.7673 12.6782 22.5416 13.0063 22.5384 12.9165L22.6351 12.7852C22.5932 12.7991 22.5513 12.8508 22.5545 12.8128C22.6125 12.7472 22.6867 12.616 22.6383 12.616L22.7673 12.457L22.5481 12.6678C22.5932 12.4847 22.3966 12.6194 22.4997 12.4087C22.4997 12.4087 22.4578 12.2395 22.2998 12.4329C22.403 12.3155 22.3804 12.2257 22.4965 12.0841C22.374 12.2153 22.2193 12.2775 22.2902 12.0979L22.3063 12.0841C22.2966 11.8423 21.9646 12.1566 21.9936 11.8837C21.8872 12.0495 21.8937 11.9182 21.7679 12.1358C21.5197 12.2533 21.8646 11.5694 21.3843 12.1704C21.3134 12.167 21.4326 11.977 21.4294 11.9252L21.4649 11.901C21.3392 11.8803 21.3102 11.863 21.2553 11.7939C21.178 11.8284 20.962 12.1117 20.9523 11.9908C21.0555 11.8941 21.0168 11.8941 20.9942 11.8768C21.0232 11.8699 21.0555 11.8319 21.0845 11.7318C21.0555 11.7628 21.0329 11.7801 21.0136 11.7939C21.02 11.7835 21.0232 11.7766 21.0329 11.7662C20.9652 11.7766 20.9459 11.8181 20.9523 11.8458C20.9394 11.863 20.9233 11.8872 20.904 11.9217C20.9749 11.7421 20.7911 11.8388 20.933 11.6419C20.7911 11.5901 20.559 11.7214 20.4107 11.7145C20.4784 11.6074 20.5687 11.5383 20.6235 11.5245L20.53 11.5037C20.6428 11.3621 20.6299 11.4554 20.6719 11.445C20.7782 11.1515 20.3366 11.5314 20.4172 11.2413L20.3076 11.3345L20.3172 11.3104C20.2689 11.3691 20.1851 11.4278 20.1561 11.4347C20.2431 11.3034 20.3882 11.1584 20.3366 11.1238C20.4011 10.9753 20.1915 11.0927 20.0916 11.1135C20.098 11.1549 20.0336 11.2136 19.9884 11.2481C19.9626 11.2309 20.0529 11.0997 19.9949 11.1342L20.1303 10.9719C20.0078 11.1308 19.9368 11.079 19.8724 11.1377C19.9626 11.0064 19.9916 11.0685 20.0755 10.9856C19.9788 10.9166 20.0271 10.9512 19.9304 10.8821C19.7821 10.9581 19.8079 11.0409 19.6628 11.1583C19.5951 11.148 19.4565 11.2171 19.4952 11.0789L19.3856 11.2344C19.2115 11.2655 19.1825 11.1998 19.2598 11.0064C18.4636 11.2654 18.0606 11.5901 17.8769 11.8768C17.6899 12.16 17.7189 12.3914 17.7189 12.3914C17.6802 12.9614 18.1863 12.692 18.5732 12.8751H18.5635Z" fill="#20BB65"/>
<path d="M34.3115 17.9595L34.3184 18.0422C34.3253 18.0077 34.3288 17.9733 34.3115 17.9595Z" fill="#20BB65"/>
<path d="M40.3368 19.2035C40.3368 19.2035 40.3404 19.1928 40.3476 19.1855C40.3404 19.1928 40.3404 19.1963 40.3368 19.2035Z" fill="#20BB65"/>
<path d="M34.6742 20.8297C34.6742 20.8297 34.6668 20.8409 34.6631 20.8483L34.678 20.8297H34.6742Z" fill="#20BB65"/>
<path d="M33.4766 20.3047C33.7796 20.4843 33.786 20.8712 34.16 20.809C34.3147 20.8781 34.5049 20.8366 34.6726 20.8297C34.808 20.5637 34.8821 20.8746 35.0208 20.657V20.8263C35.0691 20.7503 35.1175 20.7054 35.1303 20.7986L35.1175 20.8435C35.1884 20.733 35.2238 20.8159 35.2593 20.7606L35.2464 20.809L35.3077 20.8021L35.2851 20.8677C35.3915 20.7572 35.4753 20.7675 35.5365 20.8435L35.5688 20.6467C35.6784 20.9023 35.817 20.5085 35.9041 20.7986L35.8944 20.847C36.1716 20.3668 36.1071 21.2615 36.3812 20.809C36.3457 20.8643 36.3715 20.9126 36.3618 20.961C36.4553 20.923 36.552 20.9126 36.6262 20.5258C36.6874 20.543 36.652 20.657 36.6326 20.809C36.6649 20.6398 36.7293 20.581 36.7777 20.581L36.7422 20.6432L36.8905 20.6156L36.9228 20.2909C36.9776 20.398 36.868 20.6846 36.9518 20.6225L37.0001 20.3565C37.0904 20.429 37.0743 20.8435 37.1388 21.0577C37.5224 21.2546 38.0704 20.6639 38.367 21.2027L38.3509 21.4065C38.309 21.7001 38.525 20.9955 38.4959 21.2683L38.5604 21.144C38.5636 21.1993 38.5798 21.258 38.5475 21.3202C38.5862 21.3375 38.5959 21.2925 38.6378 21.2096L38.6507 21.3996C38.7861 21.5723 38.9795 21.2441 39.1375 21.3478C39.2793 21.7553 39.7145 21.4825 39.9627 21.3202C40.3335 20.9368 40.5205 22.1629 40.9105 21.7105C40.9137 21.7519 40.9557 21.6656 40.9589 21.631L41.2426 21.7174C41.2426 21.7174 41.5875 21.8003 41.8422 21.5585C42.0969 21.3167 42.2516 20.7502 41.8938 19.455L41.9099 19.3928C41.7777 19.2132 41.6842 19.1649 41.5327 19.4688C41.5714 19.0716 41.4102 19.4066 41.3941 19.2754L41.4005 19.2443C41.2619 19.531 41.2426 18.9611 41.1136 19.2167C41.1201 19.1856 41.1394 19.0785 41.162 19.0751C41.0878 19.1131 40.9847 19.1856 41.0137 18.9576C40.8461 18.9922 40.643 18.8471 40.4882 19.1959L40.5043 19.1338C40.4109 19.3721 40.4238 19.158 40.3399 19.272C40.3399 19.2409 40.3399 19.2236 40.3399 19.2132C40.24 19.4446 40.1497 19.2201 40.0852 19.3134L40.1046 19.1614L39.9724 19.1753L40.0143 19.2167C39.9337 19.6312 39.9595 18.9369 39.8274 19.1925C39.75 19.1234 39.5211 20.0283 39.4631 19.8073C39.3889 19.9938 39.5501 19.4964 39.4631 19.6346C39.4953 19.417 39.5146 19.5034 39.5243 19.3272C39.4469 19.4205 39.4598 19.0854 39.3599 19.2201L39.3825 19.0509C39.2342 19.341 39.231 18.7953 39.1181 19.0751C38.9924 19.196 39.131 18.5604 38.9698 18.8713V18.633C38.9279 18.5881 38.886 18.9058 38.857 18.7884C38.8828 18.6433 38.8119 18.6606 38.8635 18.5293C38.7861 18.2841 38.5798 18.8057 38.4927 18.3947C38.4121 18.6675 38.367 18.4879 38.3058 18.6917C38.3219 18.5673 38.1575 18.6433 38.2896 18.3947C38.2993 18.3739 38.3122 18.3808 38.3025 18.4291L38.3412 18.2634C38.309 17.9318 38.1575 18.405 38.0801 18.3393C38.0962 18.3981 38.1317 18.3911 38.0897 18.5017L38.0156 18.4637L38.0575 18.3255L37.9544 18.2185L37.9415 18.3947C37.8996 18.2945 37.9318 17.9974 37.8254 18.2289C37.7706 18.3601 37.8383 18.474 37.7674 18.5155C37.7126 18.3808 37.6288 18.1805 37.5417 18.1114C37.5159 18.3083 37.4901 18.2944 37.4579 18.329L37.4869 18.1597C37.3418 18.3739 37.5159 17.7798 37.3805 17.9456L37.4095 17.8281L37.3193 18.1735C37.1645 18.4879 37.3354 17.8143 37.1484 18.2461C37.1935 18.2253 37.1001 18.6226 37.0614 18.5397L37.1033 18.3808C37.0678 18.4085 37.0485 18.4741 37.0356 18.4395C37.0678 18.3566 37.0872 18.2047 37.042 18.2254L37.1065 18.0285L36.9743 18.3118C36.9486 18.1252 36.8132 18.3221 36.8325 18.0872C36.8325 18.0872 36.7261 17.9456 36.6487 18.1908C36.7035 18.0389 36.6455 17.9664 36.7003 17.7867C36.6326 17.956 36.5069 18.0803 36.5069 17.8835L36.5198 17.8627C36.4134 17.6382 36.2232 18.0699 36.1394 17.8074C36.1071 18.0043 36.0588 17.8835 36.0266 18.1356C35.8428 18.3498 35.8847 17.5725 35.6816 18.3324C35.6107 18.3601 35.6462 18.1356 35.6236 18.0872L35.6462 18.0493C35.5204 18.0838 35.485 18.0838 35.4044 18.0493C35.3464 18.1149 35.2657 18.4706 35.2077 18.367C35.2625 18.2323 35.2271 18.2495 35.1981 18.2426C35.2206 18.2253 35.2367 18.1735 35.2206 18.0699C35.2077 18.1114 35.1916 18.139 35.1787 18.1597C35.1787 18.1494 35.1787 18.139 35.1852 18.1252C35.1271 18.1632 35.1271 18.2116 35.1433 18.2358C35.1368 18.2565 35.1336 18.2841 35.1336 18.3255C35.1239 18.1286 34.995 18.3049 35.0401 18.0596C34.8854 18.0803 34.7306 18.3083 34.592 18.3739C34.6049 18.2461 34.6565 18.1425 34.7016 18.101L34.6081 18.1252C34.6468 17.9456 34.679 18.0319 34.7113 18.0043C34.6758 17.6865 34.4405 18.2427 34.3824 17.9456L34.3276 18.0803V18.0562C34.3083 18.1322 34.2599 18.2288 34.2374 18.2461C34.2567 18.0837 34.318 17.8835 34.26 17.88C34.2471 17.7177 34.1117 17.9214 34.0343 17.9905C34.0601 18.025 34.0311 18.1114 34.0053 18.1597C33.9762 18.1597 33.9956 17.9975 33.9569 18.0596L34.002 17.8489C33.9666 18.0527 33.8763 18.0423 33.8473 18.1287C33.8666 17.9663 33.9247 18.0044 33.9569 17.8904C33.8376 17.88 33.8957 17.8835 33.7764 17.8731C33.6765 18.0147 33.7409 18.0768 33.67 18.253C33.6055 18.2806 33.5185 18.4119 33.483 18.2703L33.4604 18.4637C33.3218 18.5812 33.267 18.5431 33.2412 18.3324C32.6739 18.9887 32.503 19.4965 32.4804 19.8419C32.4579 20.1873 32.5804 20.3703 32.5804 20.3703C32.7931 20.8712 33.0865 20.3703 33.4895 20.3185L33.4766 20.3047Z" fill="#20BB65"/>
<path d="M49.9017 20.4567L49.921 20.5394C49.921 20.5015 49.921 20.4705 49.9017 20.4567Z" fill="#20BB65"/>
<path d="M56.0624 20.8792C56.0624 20.8792 56.0661 20.868 56.0698 20.8606C56.0661 20.868 56.0624 20.8718 56.0624 20.8792Z" fill="#20BB65"/>
<path d="M50.6469 23.2371C50.6469 23.2371 50.6435 23.2474 50.64 23.2578L50.6504 23.2371H50.6469Z" fill="#20BB65"/>
<path d="M49.4085 22.9089C49.7309 23.0367 49.7889 23.4167 50.1435 23.2958C50.3047 23.3407 50.4852 23.2682 50.6464 23.2371C50.7431 22.9539 50.856 23.2509 50.9624 23.0125L50.9849 23.1818C51.0204 23.1023 51.0623 23.0471 51.0881 23.1404L51.0816 23.1887C51.1364 23.0678 51.1848 23.1472 51.2106 23.0851L51.2041 23.1335L51.2622 23.1162L51.2493 23.1852C51.3395 23.0574 51.4233 23.0575 51.491 23.1231L51.4975 22.9227C51.6393 23.1576 51.7232 22.75 51.8457 23.0264L51.8392 23.0747C52.052 22.56 52.0971 23.4547 52.3131 22.9677C52.2873 23.0298 52.3131 23.0713 52.3131 23.1196C52.4002 23.0678 52.4936 23.0471 52.5194 22.6533C52.5807 22.6637 52.5613 22.7811 52.5581 22.9331C52.5678 22.7604 52.6258 22.6948 52.6742 22.6844L52.6484 22.75L52.7902 22.7017L52.7838 22.3736C52.8515 22.4738 52.7773 22.7708 52.8515 22.6983L52.8676 22.4288C52.9643 22.491 52.9965 22.902 53.0836 23.1058C53.4833 23.2509 53.9604 22.5911 54.3086 23.092L54.315 23.2958C54.3054 23.5928 54.444 22.8641 54.444 23.1404L54.4956 23.0091C54.5052 23.0609 54.5278 23.1196 54.502 23.1852C54.5407 23.1991 54.5472 23.1507 54.5794 23.0644L54.6116 23.2508C54.7631 23.4028 54.9211 23.0575 55.0855 23.1404C55.2693 23.5272 55.669 23.206 55.8979 23.0195C56.2267 22.5946 56.5298 23.7932 56.8715 23.3027C56.8811 23.3442 56.9102 23.2509 56.9134 23.2198L57.2003 23.2785C57.2003 23.2785 58.5962 23.4616 57.6387 20.9574L57.6484 20.8953C57.4969 20.7295 57.4002 20.6914 57.2777 21.0092C57.2777 20.612 57.1519 20.9608 57.1197 20.8296L57.1262 20.7985C57.0166 21.099 56.9424 20.5326 56.836 20.802C56.8425 20.7709 56.8489 20.6603 56.8682 20.6569C56.7973 20.7052 56.7038 20.7882 56.7071 20.5568C56.5426 20.6086 56.3267 20.4877 56.2042 20.8538L56.2138 20.7916C56.1429 21.0369 56.1365 20.8227 56.0655 20.947C56.0655 20.916 56.0591 20.9022 56.0623 20.8884C55.9849 21.1301 55.8753 20.9159 55.8173 21.0196V20.8641L55.6916 20.8918L55.7367 20.9263C55.698 21.3477 55.6529 20.6569 55.5465 20.9263C55.4627 20.8676 55.3241 21.7933 55.2467 21.5826C55.1919 21.776 55.3015 21.2648 55.2306 21.4134C55.2403 21.1923 55.2693 21.2786 55.2596 21.099C55.1919 21.1992 55.1693 20.8676 55.0823 21.0126L55.0888 20.8399C54.9695 21.1474 54.9114 20.6017 54.8276 20.8987C54.7148 21.0334 54.7857 20.3841 54.66 20.7122L54.631 20.4773C54.5858 20.4359 54.5826 20.7606 54.5375 20.6431C54.5504 20.4981 54.4795 20.5222 54.5181 20.3841C54.415 20.1492 54.2635 20.6915 54.1345 20.2977C54.0862 20.581 54.0185 20.4048 53.9798 20.6189C53.983 20.4946 53.825 20.5878 53.9282 20.3253C53.9379 20.3046 53.9508 20.3081 53.9475 20.3564L53.9669 20.1872C53.8992 19.8625 53.7992 20.353 53.7154 20.2977C53.738 20.3564 53.7734 20.3426 53.7444 20.4566L53.6671 20.4289L53.6929 20.2874L53.58 20.1975L53.5865 20.3737C53.5349 20.2804 53.5317 19.9799 53.4511 20.2251C53.4124 20.3633 53.493 20.4669 53.4253 20.5153C53.3544 20.3909 53.248 20.2009 53.1513 20.1422C53.1513 20.3391 53.1223 20.3323 53.09 20.3702L53.0965 20.1975C52.9772 20.429 53.0803 19.8176 52.9643 20.0006L52.9804 19.8832L52.9288 20.239C52.8128 20.5705 52.8998 19.8797 52.7644 20.3357C52.8096 20.308 52.7612 20.7157 52.7129 20.6362L52.7354 20.4704C52.7064 20.505 52.6903 20.5706 52.6742 20.536C52.6967 20.4462 52.7 20.2942 52.6548 20.3218L52.6967 20.1181L52.5968 20.4186C52.5484 20.2355 52.4356 20.4532 52.4259 20.2148C52.4259 20.2148 52.3034 20.0904 52.2551 20.3426C52.2905 20.1872 52.2228 20.1181 52.2551 19.935C52.2099 20.1112 52.1003 20.2528 52.0713 20.0559L52.081 20.0352C51.9456 19.828 51.8102 20.2839 51.6941 20.0352C51.6877 20.2356 51.6232 20.1216 51.6232 20.3772C51.4685 20.6189 51.4105 19.8383 51.3041 20.6224C51.2396 20.6604 51.2428 20.4324 51.2138 20.3875L51.2331 20.346C51.1106 20.4013 51.0752 20.4048 50.9914 20.3806C50.943 20.4532 50.9075 20.8193 50.8366 20.7226C50.8721 20.581 50.8366 20.6051 50.8108 20.6016C50.8302 20.5809 50.8398 20.5291 50.8108 20.4255C50.8012 20.4704 50.7915 20.498 50.7818 20.5187C50.7818 20.5084 50.7818 20.498 50.7818 20.4842C50.7302 20.5325 50.7335 20.5775 50.756 20.5982C50.756 20.6189 50.756 20.65 50.756 20.688C50.7206 20.4946 50.6142 20.688 50.6271 20.4393C50.4756 20.4842 50.3531 20.7329 50.2241 20.8193C50.2209 20.688 50.2564 20.5775 50.2983 20.5326L50.208 20.5705C50.2241 20.3875 50.266 20.4704 50.295 20.4359C50.2144 20.1284 50.0597 20.7156 49.9598 20.4289L49.9243 20.574L49.9178 20.5499C49.9114 20.6259 49.8759 20.7294 49.8566 20.7536C49.8534 20.5913 49.8856 20.3841 49.8276 20.3875C49.7921 20.2287 49.6857 20.4531 49.618 20.5326C49.6503 20.5637 49.6309 20.65 49.6116 20.7053C49.5826 20.7053 49.5761 20.5464 49.5471 20.612L49.5632 20.3945C49.56 20.5982 49.4665 20.6086 49.4504 20.6949C49.4472 20.5326 49.5084 20.5602 49.5246 20.4393C49.4021 20.4497 49.4633 20.4428 49.344 20.4531C49.2667 20.612 49.3376 20.6603 49.2924 20.8469C49.2312 20.8849 49.1635 21.03 49.1119 20.8918V21.0853C48.9991 21.2234 48.9346 21.1958 48.8798 20.9954C47.9514 22.4841 48.5284 23.1196 48.5284 23.1196C48.8089 23.5756 49.0184 23.0298 49.4053 22.9158L49.4085 22.9089Z" fill="#20BB65"/>
<path d="M65.7239 21.2545L65.7463 21.3335C65.7463 21.2957 65.7399 21.2648 65.7239 21.2545Z" fill="#20BB65"/>
<path d="M71.9104 21.3008C71.9104 21.3008 71.9141 21.2897 71.9178 21.2822C71.9141 21.2897 71.9104 21.2934 71.9104 21.3008Z" fill="#20BB65"/>
<path d="M66.6304 23.9762C66.6304 23.9762 66.6269 23.9901 66.6234 23.997L66.6304 23.9762Z" fill="#20BB65"/>
<path d="M65.3789 23.7415C65.7045 23.8417 65.7851 24.2182 66.13 24.0696C66.2912 24.1007 66.4685 24.0178 66.6265 23.9729C66.7071 23.6828 66.836 23.9729 66.9295 23.7277L66.9617 23.8935C66.994 23.8106 67.0295 23.7554 67.0617 23.8452V23.8935C67.1068 23.7691 67.1584 23.8451 67.181 23.7829V23.8313L67.2358 23.8106L67.2261 23.8796C67.3099 23.7484 67.3905 23.7415 67.4614 23.8002V23.5999C67.6097 23.8244 67.6742 23.4099 67.8096 23.6793V23.7277C67.9901 23.2027 68.0836 24.0903 68.2738 23.5929C68.2512 23.6551 68.2835 23.6966 68.2803 23.745C68.3641 23.6897 68.4543 23.6586 68.4608 23.2648C68.522 23.2717 68.5091 23.3892 68.5156 23.5412C68.5156 23.3685 68.5704 23.2959 68.6187 23.289L68.5962 23.3546L68.7348 23.2959L68.7122 22.9713C68.7832 23.0645 68.7251 23.3685 68.796 23.289V23.0196C68.8992 23.0749 68.954 23.4824 69.0475 23.6827C69.4505 23.8036 69.8953 23.1197 70.2661 23.5999L70.2822 23.8037C70.2854 24.1007 70.3886 23.365 70.4015 23.6413L70.4466 23.5066C70.4595 23.5584 70.4853 23.6171 70.4627 23.6827C70.5047 23.6931 70.5046 23.6448 70.5337 23.5584L70.5756 23.7415C70.7335 23.8866 70.8722 23.5342 71.0398 23.6068C71.2397 23.9867 71.6233 23.6448 71.8425 23.4444C72.152 23.0058 72.5066 24.1905 72.8257 23.6862C72.8354 23.7277 72.8612 23.6344 72.8612 23.5999L73.1513 23.6448C73.1513 23.6448 74.5504 23.776 73.4931 21.3064L73.4995 21.2408C73.3415 21.0819 73.2448 21.0473 73.1352 21.3686C73.1191 20.9714 73.0063 21.3271 72.9708 21.1959V21.1648C72.8773 21.4688 72.7774 20.9092 72.6839 21.182C72.6871 21.151 72.6903 21.0404 72.7097 21.0335C72.642 21.0819 72.5485 21.1717 72.5453 20.9403C72.3841 20.999 72.1617 20.8885 72.0553 21.2581L72.0617 21.1924C72.0005 21.4411 71.9843 21.2269 71.9199 21.3547C71.9166 21.3237 71.9134 21.3099 71.9134 21.296C71.849 21.5413 71.7265 21.3306 71.6749 21.4376V21.2822L71.5459 21.3168L71.5943 21.3513C71.5749 21.7727 71.5008 21.0853 71.4041 21.3582C71.317 21.3029 71.2235 22.2356 71.1333 22.0283C71.0881 22.2252 71.172 21.7071 71.1075 21.8591C71.1075 21.638 71.1397 21.7209 71.1236 21.5447C71.0591 21.6483 71.0204 21.3168 70.9431 21.4653V21.2926C70.8367 21.6069 70.7529 21.0646 70.682 21.3617C70.5756 21.5033 70.6175 20.8505 70.5047 21.1855L70.466 20.9541C70.4208 20.9161 70.4305 21.2373 70.3789 21.1268C70.3821 20.9817 70.3144 21.0094 70.3467 20.8712C70.2306 20.6398 70.1081 21.1925 69.9566 20.8056C69.9211 21.0888 69.8438 20.9196 69.818 21.1337C69.818 21.0094 69.6632 21.113 69.7535 20.8436C69.76 20.8228 69.7729 20.8263 69.7729 20.8747L69.7857 20.7054C69.7019 20.3842 69.6246 20.8781 69.5375 20.8297C69.5633 20.885 69.5956 20.8712 69.573 20.9887L69.4924 20.9645L69.5117 20.8229L69.3925 20.74L69.4086 20.9161C69.3505 20.8263 69.3344 20.5258 69.2635 20.7745C69.2313 20.9127 69.3151 21.0129 69.2538 21.0681C69.1765 20.9472 69.0604 20.7642 68.9605 20.7123C68.9669 20.9092 68.9411 20.9023 68.9121 20.9437V20.771C68.8025 21.0094 68.8767 20.3911 68.7703 20.581L68.7799 20.4602L68.7477 20.8194C68.6478 21.1579 68.6994 20.4636 68.5897 20.9264C68.6317 20.8988 68.6058 21.3064 68.5543 21.2304L68.5704 21.0647C68.5414 21.0992 68.5317 21.1683 68.5124 21.1337C68.5317 21.0439 68.5253 20.8919 68.4834 20.9195L68.5156 20.7123L68.4318 21.0163C68.3738 20.8366 68.2738 21.0612 68.2512 20.8264C68.2512 20.8264 68.1223 20.7089 68.0868 20.9645C68.1159 20.8056 68.0449 20.7434 68.0675 20.5569C68.032 20.7365 67.9289 20.8816 67.8902 20.6916L67.8966 20.6709C67.7516 20.474 67.6387 20.9368 67.5065 20.6951C67.5065 20.8954 67.4421 20.7849 67.455 21.0405C67.3131 21.2926 67.21 20.5189 67.1487 21.3064C67.0842 21.3479 67.0778 21.1199 67.0456 21.0785L67.0617 21.037C66.9424 21.0992 66.907 21.106 66.8199 21.0888C66.7748 21.1648 66.7619 21.5309 66.6845 21.4411C66.7135 21.296 66.6813 21.3237 66.649 21.3237C66.6684 21.2995 66.6748 21.2477 66.6394 21.151C66.6329 21.1959 66.6233 21.2236 66.6168 21.2477C66.6168 21.2374 66.6168 21.227 66.6168 21.2132C66.5685 21.265 66.5749 21.3099 66.5975 21.3306C66.5975 21.3513 66.5975 21.3824 66.6039 21.4204C66.5555 21.2305 66.4621 21.4307 66.4588 21.182C66.3105 21.2373 66.2009 21.4964 66.0752 21.5897C66.0623 21.4619 66.0946 21.3479 66.13 21.296L66.043 21.341C66.0462 21.1545 66.0946 21.2339 66.1236 21.1993C66.0269 20.8988 65.9044 21.4964 65.7883 21.2201L65.7593 21.3651L65.7528 21.341C65.7528 21.417 65.7238 21.524 65.7045 21.5482C65.6916 21.3858 65.7141 21.1751 65.6529 21.1855C65.6078 21.0301 65.5175 21.2615 65.453 21.3478C65.4853 21.3755 65.4724 21.4653 65.4595 21.5205C65.4305 21.524 65.4143 21.3651 65.3918 21.4342V21.2166C65.4014 21.4204 65.3112 21.4376 65.2983 21.5274C65.2854 21.3651 65.3466 21.3893 65.3563 21.2684C65.2338 21.2857 65.2951 21.2788 65.1758 21.296C65.1081 21.4584 65.1822 21.5033 65.15 21.6932C65.092 21.7347 65.0339 21.8867 64.9727 21.7555L64.9888 21.9489C64.8792 22.0974 64.8147 22.0732 64.747 21.8763C63.9185 23.441 64.5343 24.0247 64.5343 24.0247C64.8405 24.4564 65.0146 23.8935 65.3918 23.7484L65.3789 23.7415Z" fill="#20BB65"/>
<path d="M81.5977 21.3029L81.6233 21.3818C81.6233 21.344 81.6169 21.3132 81.5977 21.3029Z" fill="#20BB65"/>
<path d="M87.7968 21.1825C87.7968 21.1825 87.8004 21.1718 87.804 21.1646C87.8004 21.1718 87.7968 21.1789 87.7968 21.1825Z" fill="#20BB65"/>
<path d="M82.5782 23.9969C82.5782 23.9969 82.5748 24.0108 82.5713 24.0178L82.5782 23.9969Z" fill="#20BB65"/>
<path d="M81.3236 23.7967C81.6524 23.89 81.7427 24.263 82.0844 24.1042C82.2456 24.1318 82.4196 24.042 82.5776 23.9971C82.6485 23.7035 82.7872 23.9902 82.8742 23.7449L82.9097 23.9107C82.9387 23.8278 82.9741 23.769 83.0064 23.8588V23.9073C83.0483 23.7795 83.1031 23.8554 83.1256 23.7932V23.8416L83.1805 23.8209L83.1708 23.89C83.2481 23.7553 83.332 23.7449 83.4061 23.8071L83.3964 23.6067C83.5544 23.8278 83.606 23.4134 83.751 23.6759V23.7242C83.9219 23.1923 84.0347 24.08 84.212 23.5757C84.1895 23.6379 84.2217 23.6793 84.2217 23.7276C84.3055 23.6689 84.3958 23.6379 84.3926 23.2441C84.4538 23.2476 84.4442 23.3649 84.4538 23.5169C84.4538 23.3442 84.5054 23.2717 84.5506 23.2613L84.528 23.327L84.6634 23.2648L84.6311 22.9401C84.7053 23.0334 84.6537 23.3373 84.7246 23.2579V22.9884C84.8213 23.0402 84.8858 23.4479 84.9857 23.6447C85.3919 23.7553 85.8175 23.0575 86.2011 23.5273L86.2205 23.7311C86.2301 24.0281 86.3172 23.2924 86.3365 23.5653L86.3784 23.4306C86.3913 23.4824 86.4171 23.5411 86.3978 23.6067C86.4397 23.6171 86.4396 23.5688 86.4654 23.479L86.5106 23.662C86.6718 23.8036 86.8039 23.4444 86.9716 23.5134C87.1779 23.8865 87.5551 23.5342 87.7711 23.3305C88.0709 22.8849 88.4481 24.0558 88.7575 23.5446C88.7672 23.586 88.793 23.4928 88.793 23.4582L89.0831 23.4962C89.0831 23.4962 90.4855 23.5895 89.3829 21.151L89.3894 21.0853C89.2282 20.9299 89.1283 20.8988 89.0251 21.2235C89.0025 20.8263 88.8962 21.1855 88.8575 21.0577V21.0266C88.7704 21.334 88.6576 20.7745 88.5706 21.0508C88.5706 21.0197 88.5738 20.9092 88.5964 20.9023C88.5287 20.9541 88.4384 21.0439 88.4287 20.8125C88.2675 20.8746 88.0419 20.771 87.9451 21.144L87.9516 21.0784C87.8968 21.3306 87.8775 21.1164 87.813 21.2442C87.8098 21.2131 87.8033 21.1993 87.8033 21.1854C87.7421 21.4341 87.6163 21.227 87.5647 21.334L87.5583 21.1785L87.4326 21.2166L87.4809 21.2477C87.4713 21.6725 87.381 20.9852 87.2907 21.258C87.2037 21.2062 87.1263 22.1388 87.0328 21.935C86.9941 22.1319 87.0651 21.6138 87.0038 21.7658C86.9974 21.5447 87.0328 21.6276 87.0135 21.4514C86.9522 21.5585 86.9071 21.2269 86.8297 21.3789L86.8233 21.2062C86.7266 21.5205 86.6299 20.9817 86.5654 21.2822C86.4622 21.4272 86.488 20.7744 86.3848 21.1095L86.3397 20.8781C86.2914 20.8401 86.3107 21.1648 86.2559 21.0508C86.2559 20.9057 86.1882 20.9333 86.2172 20.7952C86.0979 20.5672 85.9851 21.1233 85.8239 20.7399C85.7949 21.0266 85.7143 20.8574 85.6918 21.0715C85.6853 20.9472 85.537 21.0542 85.6208 20.7848C85.6273 20.7641 85.6402 20.7676 85.6402 20.8159L85.6498 20.6467C85.5564 20.3289 85.4919 20.8262 85.4048 20.7779C85.4306 20.8332 85.4661 20.8193 85.4435 20.9333L85.3629 20.9126L85.379 20.771L85.2565 20.6881L85.2759 20.8642C85.2146 20.7744 85.1921 20.474 85.1276 20.7261C85.0986 20.8643 85.1856 20.9609 85.1276 21.0197C85.047 20.9022 84.9277 20.7226 84.8246 20.6708C84.8375 20.8677 84.8084 20.8608 84.7827 20.9023L84.7762 20.7296C84.673 20.9714 84.7311 20.3531 84.6279 20.543L84.6344 20.4221L84.6118 20.7814C84.5215 21.1233 84.557 20.4256 84.4571 20.8919C84.499 20.8608 84.4829 21.2718 84.428 21.1958L84.4377 21.03C84.4087 21.0646 84.4023 21.1336 84.3829 21.1026C84.399 21.0127 84.3894 20.8608 84.3475 20.8884L84.3732 20.6812L84.2991 20.9886C84.2346 20.8125 84.1411 21.037 84.1121 20.8021C84.1121 20.8021 83.9799 20.6881 83.9509 20.9471C83.9767 20.7883 83.9026 20.7296 83.9219 20.5396C83.8897 20.7192 83.7897 20.8677 83.7478 20.6777L83.7543 20.657C83.6028 20.4635 83.5028 20.9299 83.3642 20.6915C83.3739 20.8919 83.2997 20.7848 83.3223 21.0369C83.1869 21.2925 83.0644 20.5223 83.0225 21.3098C82.9612 21.3547 82.9451 21.1268 82.9129 21.0853L82.929 21.0439C82.8129 21.1095 82.7775 21.1198 82.6904 21.1026C82.6485 21.1785 82.6453 21.5481 82.5647 21.4583C82.5873 21.3133 82.5583 21.3409 82.526 21.3409C82.5454 21.3168 82.5486 21.265 82.5099 21.1682C82.5035 21.2131 82.497 21.2407 82.4906 21.2649C82.4906 21.2545 82.4906 21.2442 82.4906 21.2304C82.4422 21.2822 82.4519 21.327 82.4745 21.3478C82.4745 21.3685 82.4744 21.3996 82.4841 21.4376C82.4325 21.2511 82.3423 21.4514 82.3326 21.2027C82.1843 21.2614 82.0844 21.5239 81.9619 21.6207C81.9458 21.4929 81.9748 21.3789 82.0102 21.3271L81.9232 21.3754C81.9232 21.1889 81.9715 21.2684 81.9973 21.2304C81.8909 20.9333 81.7878 21.5309 81.6621 21.258L81.6395 21.4031L81.633 21.3789C81.633 21.4549 81.6073 21.562 81.5911 21.5862C81.5718 21.4238 81.5911 21.2131 81.5299 21.2235C81.4815 21.068 81.3945 21.3029 81.3332 21.3927C81.3655 21.4203 81.3558 21.5102 81.3429 21.5654C81.3139 21.5723 81.2946 21.41 81.272 21.4791L81.2656 21.2614C81.2784 21.4652 81.1882 21.4825 81.1785 21.5723C81.1592 21.41 81.2236 21.4342 81.2301 21.3098C81.1108 21.3305 81.1688 21.3202 81.0495 21.3444C80.9851 21.5102 81.0624 21.5516 81.0334 21.7416C80.9754 21.7865 80.9238 21.9384 80.8561 21.8072L80.8787 22.0006C80.7723 22.1526 80.7078 22.1319 80.6337 21.935C79.8503 23.5204 80.4854 24.0869 80.4854 24.0869C80.8045 24.5083 80.9593 23.9452 81.3332 23.7898L81.3236 23.7967Z" fill="#20BB65"/>
<path d="M97.5037 21.0229L97.5293 21.1019C97.5293 21.0641 97.5229 21.0332 97.5037 21.0229Z" fill="#20BB65"/>
<path d="M103.712 20.869C103.712 20.869 103.716 20.8578 103.72 20.8503C103.716 20.8578 103.712 20.8652 103.712 20.869Z" fill="#20BB65"/>
<path d="M98.5066 23.7103C98.5066 23.7103 98.5031 23.7242 98.4996 23.7311L98.5066 23.7103Z" fill="#20BB65"/>
<path d="M97.2489 23.5169C97.5778 23.6067 97.6713 23.9797 98.0098 23.8209C98.1742 23.8485 98.345 23.7587 98.503 23.7103C98.5739 23.4167 98.7125 23.7034 98.7963 23.4547L98.835 23.6205C98.864 23.5376 98.8995 23.4789 98.9317 23.5687V23.617C98.9736 23.4892 99.0284 23.5653 99.0478 23.4997V23.548L99.1026 23.5238L99.0929 23.5928C99.1703 23.4581 99.2541 23.4478 99.325 23.5065L99.3154 23.3062C99.4733 23.5273 99.5249 23.1093 99.67 23.3718V23.4201C99.8376 22.8882 99.9569 23.7759 100.128 23.2682C100.105 23.3304 100.141 23.3718 100.137 23.4201C100.221 23.3614 100.308 23.3304 100.305 22.9366C100.366 22.9401 100.357 23.0575 100.366 23.2095C100.363 23.0368 100.415 22.9643 100.463 22.9539L100.444 23.0195L100.579 22.9574L100.547 22.6327C100.621 22.726 100.573 23.0299 100.64 22.9504L100.634 22.681C100.734 22.7328 100.802 23.1404 100.901 23.3372C101.308 23.4443 101.73 22.7467 102.117 23.2164L102.136 23.4201C102.149 23.7172 102.233 22.978 102.252 23.2544L102.294 23.1197C102.307 23.1715 102.333 23.2302 102.313 23.2958C102.355 23.3062 102.355 23.2578 102.381 23.168L102.429 23.3511C102.591 23.4892 102.723 23.1335 102.89 23.2026C103.1 23.5756 103.474 23.2198 103.69 23.016C103.99 22.567 104.37 23.738 104.676 23.2268C104.686 23.2682 104.712 23.175 104.712 23.1404L105.002 23.1749C105.002 23.1749 106.404 23.2613 105.295 20.8263L105.302 20.7606C105.141 20.6051 105.041 20.5741 104.938 20.9022C104.912 20.505 104.809 20.8642 104.767 20.7364V20.7053C104.68 21.0127 104.567 20.4532 104.48 20.7295C104.48 20.6984 104.48 20.5879 104.506 20.5809C104.438 20.6328 104.348 20.7226 104.338 20.4911C104.177 20.5568 103.951 20.4532 103.854 20.8228L103.861 20.7571C103.806 21.0092 103.787 20.7951 103.722 20.9229C103.719 20.8918 103.713 20.878 103.713 20.8642C103.651 21.1129 103.526 20.9056 103.474 21.0127L103.468 20.8607L103.339 20.8988L103.387 20.9298C103.377 21.3547 103.287 20.6673 103.197 20.9436C103.11 20.8918 103.036 21.8279 102.942 21.6206C102.903 21.8209 102.974 21.2994 102.913 21.4514C102.907 21.2303 102.942 21.3132 102.92 21.1371C102.858 21.2442 102.813 20.9126 102.736 21.0646L102.729 20.8919C102.633 21.2062 102.533 20.6708 102.471 20.9713C102.368 21.1164 102.391 20.4636 102.288 20.8021L102.243 20.5706C102.194 20.5326 102.214 20.8573 102.162 20.7433C102.162 20.5982 102.094 20.6293 102.123 20.4877C102.001 20.2597 101.891 20.8193 101.73 20.4324C101.701 20.7191 101.62 20.5499 101.601 20.764C101.595 20.6397 101.446 20.7468 101.527 20.4774C101.533 20.4567 101.546 20.4601 101.546 20.5084L101.553 20.3392C101.459 20.0214 101.395 20.5188 101.308 20.4705C101.333 20.5257 101.369 20.5119 101.346 20.6259L101.266 20.6051L101.279 20.4636L101.156 20.3841L101.175 20.5603C101.114 20.4705 101.088 20.1734 101.027 20.4221C100.998 20.5602 101.088 20.657 101.027 20.7157C100.947 20.5983 100.824 20.4187 100.724 20.3668C100.737 20.5637 100.711 20.5568 100.682 20.5982L100.676 20.4255C100.573 20.6673 100.631 20.049 100.527 20.239L100.534 20.1182L100.511 20.4774C100.421 20.8193 100.453 20.1216 100.357 20.5879C100.399 20.5568 100.382 20.9678 100.331 20.8919L100.341 20.7261C100.312 20.7606 100.305 20.8331 100.286 20.7986C100.302 20.7088 100.289 20.5568 100.25 20.5844L100.276 20.3772L100.202 20.6846C100.137 20.5084 100.044 20.7329 100.015 20.4981C100.015 20.4981 99.8795 20.3876 99.8537 20.6432C99.8763 20.4843 99.8022 20.4255 99.8215 20.2355C99.7893 20.4152 99.6925 20.5672 99.6474 20.3738L99.6539 20.353C99.4991 20.1596 99.4024 20.6259 99.2638 20.391C99.2734 20.5914 99.1993 20.4843 99.2219 20.7364C99.0865 20.992 98.9607 20.2217 98.9221 21.0127C98.8608 21.0576 98.8447 20.8297 98.8092 20.7882L98.8221 20.7467C98.7061 20.8124 98.6706 20.8228 98.5836 20.8055C98.5417 20.885 98.5417 21.2511 98.4611 21.1613C98.4836 21.0162 98.4514 21.0438 98.4224 21.0438C98.4417 21.0196 98.445 20.9678 98.4063 20.8711C98.403 20.916 98.3934 20.9437 98.3869 20.9678C98.3869 20.9575 98.3869 20.9471 98.3869 20.9333C98.3386 20.9851 98.3482 21.03 98.3708 21.0507C98.3708 21.0715 98.3708 21.1025 98.3805 21.1405C98.3257 20.954 98.2386 21.1544 98.229 20.9057C98.0807 20.9679 97.9807 21.2269 97.8615 21.3271C97.8453 21.1993 97.8711 21.0853 97.9066 21.0334L97.8195 21.0818C97.8195 20.8953 97.8679 20.9747 97.8937 20.9367C97.7841 20.6397 97.6841 21.2407 97.5584 20.9678L97.5358 21.1163L97.5294 21.0921C97.5294 21.1681 97.5068 21.2752 97.4875 21.2994C97.4681 21.1371 97.4811 20.9264 97.423 20.9402C97.3714 20.7847 97.2876 21.0196 97.2296 21.1094C97.2651 21.1371 97.2554 21.2269 97.2425 21.2821C97.2135 21.289 97.1909 21.1267 97.1716 21.1958L97.1651 20.9782C97.1812 21.182 97.091 21.2027 97.0813 21.289C97.062 21.1267 97.1264 21.1509 97.1297 21.0265C97.0104 21.0507 97.0684 21.0369 96.9491 21.0611C96.8879 21.2269 96.9653 21.2649 96.9362 21.4583C96.8814 21.5032 96.8266 21.6551 96.7589 21.5239L96.7815 21.7173C96.6783 21.8693 96.6139 21.8486 96.5365 21.6552C95.766 23.244 96.4075 23.807 96.4075 23.807C96.7299 24.2284 96.8814 23.662 97.2522 23.5031L97.2489 23.5169Z" fill="#20BB65"/>
<path d="M113.432 20.7501L113.458 20.8291C113.458 20.7913 113.451 20.7604 113.432 20.7501Z" fill="#20BB65"/>
<path d="M119.651 20.6927C119.651 20.6927 119.654 20.6815 119.658 20.6741C119.654 20.6815 119.651 20.689 119.651 20.6927Z" fill="#20BB65"/>
<path d="M114.406 23.4546C114.406 23.4546 114.403 23.4685 114.399 23.4754L114.406 23.4546Z" fill="#20BB65"/>
<path d="M113.155 23.2405C113.484 23.3372 113.574 23.7102 113.912 23.5583C114.074 23.5893 114.248 23.4995 114.406 23.4546C114.48 23.161 114.612 23.4512 114.702 23.2025L114.738 23.3683C114.767 23.2854 114.802 23.2267 114.834 23.3165V23.3648C114.876 23.2405 114.931 23.313 114.954 23.2508V23.2992L115.009 23.2785L114.999 23.3475C115.076 23.2128 115.16 23.2059 115.234 23.2646L115.228 23.0644C115.382 23.2889 115.437 22.8709 115.579 23.1369V23.1852C115.75 22.6567 115.86 23.5444 116.04 23.0402C116.018 23.1023 116.05 23.1438 116.05 23.1921C116.134 23.1334 116.224 23.1058 116.224 22.7086C116.285 22.712 116.275 22.833 116.282 22.9849C116.282 22.8122 116.333 22.7396 116.382 22.7292L116.359 22.7949L116.495 22.7362L116.466 22.4115C116.54 22.5048 116.485 22.8087 116.556 22.7292V22.4599C116.656 22.5117 116.714 22.9227 116.814 23.1196C117.217 23.2336 117.649 22.5428 118.026 23.016L118.042 23.2198C118.048 23.5168 118.145 22.7811 118.158 23.054L118.203 22.9192C118.216 22.971 118.242 23.0298 118.219 23.0954C118.261 23.1058 118.261 23.0574 118.29 22.9676L118.335 23.1507C118.497 23.2923 118.629 22.9365 118.8 23.009C119.003 23.3821 119.38 23.0367 119.599 22.8329C119.909 22.3873 120.263 23.5652 120.579 23.0574C120.589 23.0989 120.615 23.0056 120.615 22.9711L120.902 23.0125C120.902 23.0125 122.297 23.1196 121.243 20.6707L121.25 20.6051C121.092 20.4496 120.992 20.4151 120.882 20.7398C120.866 20.3426 120.753 20.6983 120.715 20.5705V20.5395C120.621 20.8469 120.521 20.2873 120.428 20.5602C120.431 20.5291 120.434 20.4185 120.453 20.4116C120.386 20.4634 120.292 20.5498 120.289 20.3184C120.128 20.3805 119.902 20.2735 119.796 20.6431L119.802 20.5774C119.744 20.8261 119.725 20.6154 119.66 20.7432C119.657 20.7121 119.651 20.6983 119.654 20.6845C119.589 20.9297 119.467 20.7225 119.415 20.8295V20.6741L119.283 20.7122L119.332 20.7432C119.315 21.168 119.235 20.4772 119.141 20.7536C119.054 20.7018 118.964 21.6344 118.874 21.4272C118.832 21.624 118.912 21.1059 118.848 21.2579C118.848 21.0369 118.877 21.1197 118.861 20.9435C118.796 21.0472 118.758 20.719 118.68 20.8676V20.6949C118.577 21.0092 118.484 20.4703 118.416 20.7708C118.313 20.9125 118.345 20.2597 118.235 20.5981L118.194 20.3668C118.145 20.3288 118.161 20.6534 118.11 20.5395C118.11 20.3944 118.045 20.422 118.074 20.2839C117.955 20.0559 117.836 20.6085 117.681 20.2251C117.649 20.5083 117.571 20.3426 117.546 20.5567C117.542 20.4324 117.391 20.536 117.475 20.2666C117.481 20.2459 117.494 20.2493 117.494 20.2977L117.504 20.1284C117.413 19.8107 117.342 20.3046 117.255 20.2562C117.281 20.3115 117.317 20.2976 117.294 20.4116L117.214 20.391L117.23 20.2493L117.107 20.1664L117.123 20.3426C117.065 20.2527 117.043 19.9523 116.975 20.2044C116.946 20.3426 117.033 20.4427 116.969 20.498C116.888 20.3771 116.769 20.1975 116.669 20.1457C116.678 20.3425 116.653 20.3357 116.624 20.3771V20.2044C116.514 20.4428 116.578 19.8279 116.472 20.0179L116.482 19.897L116.456 20.2562C116.362 20.5982 116.401 19.9005 116.298 20.3668C116.34 20.3357 116.321 20.7467 116.269 20.6707L116.282 20.5049C116.253 20.5394 116.243 20.6085 116.224 20.5739C116.24 20.4841 116.23 20.3322 116.188 20.3598L116.214 20.1526L116.137 20.46C116.076 20.2839 115.979 20.5049 115.953 20.2735C115.953 20.2735 115.821 20.1595 115.792 20.4151C115.818 20.2562 115.744 20.194 115.763 20.0075C115.731 20.1871 115.627 20.3356 115.589 20.1457L115.595 20.125C115.444 19.9281 115.341 20.3944 115.205 20.156C115.212 20.3564 115.141 20.2458 115.16 20.5014C115.021 20.7536 114.902 19.9833 114.857 20.7743C114.793 20.8158 114.78 20.5913 114.747 20.5498L114.764 20.5083C114.644 20.574 114.612 20.5809 114.522 20.5637C114.48 20.6396 114.473 21.0057 114.396 20.9193C114.422 20.7743 114.39 20.802 114.361 20.802C114.38 20.7778 114.383 20.726 114.344 20.6293C114.338 20.6742 114.332 20.7018 114.322 20.726C114.322 20.7156 114.322 20.7052 114.322 20.6914C114.273 20.7432 114.283 20.7882 114.306 20.8089C114.306 20.8296 114.306 20.8607 114.315 20.8987C114.264 20.7122 114.174 20.9124 114.164 20.6603C114.016 20.719 113.912 20.9781 113.79 21.0748C113.774 20.947 113.803 20.833 113.838 20.7812L113.751 20.8295C113.751 20.643 113.8 20.7225 113.829 20.6845C113.722 20.384 113.616 20.985 113.493 20.7087L113.471 20.8537L113.464 20.8295C113.464 20.9055 113.439 21.0126 113.422 21.0368C113.403 20.8745 113.422 20.6638 113.361 20.6741C113.313 20.5187 113.226 20.7536 113.165 20.8399C113.2 20.8675 113.187 20.9573 113.174 21.0126C113.145 21.0195 113.126 20.8572 113.103 20.9263L113.097 20.7087C113.11 20.9125 113.019 20.9297 113.01 21.0195C112.99 20.8572 113.055 20.8814 113.061 20.7605C112.939 20.7812 113 20.7709 112.881 20.7916C112.816 20.9574 112.894 20.9988 112.865 21.1888C112.807 21.2302 112.755 21.3823 112.687 21.2545L112.71 21.4478C112.604 21.5998 112.539 21.5756 112.465 21.3822C111.685 22.9607 112.32 23.5341 112.32 23.5341C112.636 23.9589 112.794 23.396 113.165 23.244L113.155 23.2405Z" fill="#20BB65"/>
<path d="M129.383 20.8435L129.405 20.9224C129.405 20.8847 129.399 20.8538 129.383 20.8435Z" fill="#20BB65"/>
<path d="M135.611 21.0624C135.611 21.0624 135.615 21.0513 135.619 21.0438C135.615 21.0513 135.611 21.055 135.611 21.0624Z" fill="#20BB65"/>
<path d="M130.267 23.5895C130.267 23.5895 130.263 23.6033 130.26 23.6102L130.27 23.5895H130.267Z" fill="#20BB65"/>
<path d="M129.028 23.3201C129.354 23.4306 129.431 23.8071 129.773 23.6689C129.934 23.7069 130.108 23.6275 130.266 23.586C130.35 23.2959 130.473 23.5894 130.569 23.3477L130.598 23.5134C130.631 23.4305 130.669 23.3753 130.698 23.4651V23.5134C130.743 23.3891 130.795 23.4652 130.818 23.4064V23.4548L130.869 23.434L130.856 23.5032C130.94 23.3719 131.021 23.3684 131.092 23.4306V23.2303C131.24 23.4617 131.308 23.0472 131.44 23.3201V23.3684C131.63 22.8468 131.704 23.738 131.901 23.2441C131.875 23.3063 131.907 23.3477 131.901 23.3961C131.988 23.3408 132.078 23.3166 132.091 22.9228C132.152 22.9297 132.136 23.0472 132.139 23.1992C132.146 23.0265 132.201 22.9574 132.249 22.947L132.226 23.0126L132.365 22.9609L132.349 22.6327C132.417 22.7294 132.352 23.0299 132.426 22.9539L132.436 22.6845C132.536 22.7432 132.578 23.1508 132.668 23.3546C133.065 23.4858 133.526 22.8158 133.88 23.3028L133.89 23.5065C133.887 23.8036 134.012 23.0713 134.016 23.3477L134.064 23.213C134.074 23.2648 134.096 23.3235 134.074 23.3891C134.112 23.403 134.115 23.3546 134.148 23.2648L134.183 23.4513C134.335 23.5998 134.486 23.251 134.651 23.3305C134.834 23.7139 135.228 23.3822 135.457 23.1922C135.785 22.7639 136.085 23.9556 136.42 23.4617C136.43 23.5031 136.459 23.4099 136.462 23.3753L136.746 23.4271C136.746 23.4271 138.136 23.5963 137.201 21.1025L137.21 21.0404C137.059 20.8781 136.962 20.8401 136.836 21.1579C136.836 20.7607 136.707 21.113 136.678 20.9817L136.685 20.9506C136.572 21.2511 136.498 20.6881 136.391 20.9575C136.398 20.9264 136.404 20.8159 136.427 20.8125C136.356 20.8608 136.259 20.9437 136.266 20.7123C136.101 20.7675 135.879 20.6501 135.76 21.0162L135.769 20.954C135.698 21.1993 135.692 20.9886 135.618 21.1129C135.618 21.0818 135.611 21.068 135.611 21.0542C135.537 21.2995 135.421 21.0853 135.363 21.1889V21.0335L135.237 21.0646L135.282 21.0991C135.247 21.5205 135.199 20.8297 135.092 21.0991C135.008 21.0438 134.876 21.9696 134.796 21.7589C134.744 21.9557 134.847 21.4376 134.776 21.5896C134.783 21.3686 134.812 21.4514 134.802 21.2752C134.734 21.3789 134.709 21.0473 134.625 21.1924V21.0197C134.515 21.3305 134.448 20.7848 134.367 21.0819C134.257 21.22 134.319 20.5707 134.193 20.9023L134.161 20.6673C134.116 20.6293 134.115 20.9506 134.067 20.8366C134.077 20.6915 134.006 20.7157 134.041 20.581C133.932 20.3461 133.79 20.8953 133.651 20.505C133.606 20.7882 133.535 20.6155 133.503 20.8297C133.503 20.7053 133.348 20.8021 133.445 20.5361C133.455 20.5154 133.468 20.5189 133.464 20.5672L133.48 20.3979C133.403 20.0767 133.313 20.5672 133.229 20.5154C133.252 20.5741 133.287 20.5603 133.261 20.6743L133.181 20.6467L133.203 20.505L133.084 20.4187L133.094 20.5948C133.039 20.5016 133.029 20.2011 132.952 20.4498C132.916 20.5879 133 20.6881 132.936 20.7399C132.861 20.6156 132.749 20.4325 132.649 20.3738C132.649 20.5707 132.623 20.5637 132.594 20.6017V20.429C132.481 20.6639 132.571 20.0491 132.458 20.2356L132.471 20.1147L132.429 20.474C132.323 20.8125 132.391 20.1147 132.268 20.5775C132.31 20.5499 132.275 20.9575 132.226 20.8815L132.246 20.7157C132.217 20.7503 132.204 20.8193 132.184 20.7848C132.204 20.695 132.201 20.543 132.159 20.5706L132.194 20.3634L132.104 20.6673C132.049 20.4877 131.943 20.7054 131.927 20.4705C131.927 20.4705 131.798 20.3496 131.759 20.6052C131.791 20.4463 131.72 20.3842 131.746 20.1976C131.707 20.3772 131.601 20.5188 131.566 20.3254L131.575 20.3047C131.43 20.1044 131.311 20.5637 131.182 20.3185C131.182 20.5188 131.114 20.4083 131.124 20.6639C130.976 20.9091 130.885 20.1354 130.811 20.9229C130.747 20.9644 130.74 20.7364 130.708 20.695L130.724 20.6536C130.605 20.7123 130.569 20.7192 130.482 20.6985C130.437 20.7744 130.418 21.1406 130.344 21.0473C130.373 20.9022 130.34 20.9298 130.311 20.9264C130.331 20.9057 130.337 20.8504 130.302 20.7502C130.295 20.7951 130.286 20.8228 130.276 20.8435C130.276 20.8331 130.276 20.8228 130.276 20.809C130.224 20.8574 130.234 20.9057 130.257 20.9264C130.257 20.9471 130.257 20.9782 130.263 21.0162C130.218 20.8262 130.121 21.0231 130.121 20.7744C129.973 20.8262 129.86 21.0819 129.734 21.1717C129.725 21.0439 129.757 20.9299 129.792 20.8815L129.705 20.9264C129.712 20.7399 129.757 20.8228 129.786 20.7848C129.689 20.4809 129.564 21.075 129.448 20.7952L129.418 20.9402L129.412 20.916C129.412 20.992 129.38 21.0991 129.36 21.1233C129.348 20.961 129.37 20.7502 129.309 20.7606C129.264 20.6017 129.17 20.8331 129.106 20.916C129.138 20.9436 129.125 21.0335 129.109 21.0887C129.08 21.0922 129.064 20.9299 129.041 20.999V20.7813C129.051 20.9886 128.961 20.9989 128.948 21.0887C128.935 20.9264 128.996 20.9506 129.009 20.8297C128.887 20.8435 128.948 20.8366 128.825 20.8539C128.758 21.0162 128.832 21.0612 128.796 21.2511C128.738 21.2926 128.68 21.4411 128.616 21.3064L128.632 21.4998C128.522 21.6449 128.458 21.6207 128.39 21.4238C127.565 22.9643 128.181 23.5653 128.181 23.5653C128.484 24.004 128.654 23.4479 129.032 23.3132L129.028 23.3201Z" fill="#20BB65"/>
<path d="M145.347 21.821L145.364 21.9038C145.364 21.8658 145.363 21.8348 145.347 21.821Z" fill="#20BB65"/>
<path d="M151.563 22.6652C151.563 22.6652 151.57 22.654 151.574 22.6466C151.566 22.654 151.566 22.6578 151.563 22.6652Z" fill="#20BB65"/>
<path d="M146.025 24.6222C146.025 24.6222 146.018 24.6325 146.015 24.6429L146.025 24.6222Z" fill="#20BB65"/>
<path d="M144.815 24.263C145.131 24.3943 145.18 24.7777 145.528 24.6637C145.683 24.712 145.863 24.6464 146.024 24.6188C146.127 24.339 146.231 24.6395 146.343 24.4081L146.359 24.5773C146.398 24.4979 146.44 24.4461 146.459 24.5394L146.453 24.5877C146.511 24.4703 146.553 24.5497 146.582 24.491L146.575 24.5394L146.633 24.5256L146.617 24.5912C146.711 24.4703 146.791 24.4703 146.856 24.5394L146.872 24.339C147.001 24.5808 147.101 24.1766 147.211 24.4564L147.204 24.5048C147.439 24.0005 147.436 24.8986 147.675 24.4254C147.646 24.4841 147.675 24.529 147.665 24.5773C147.755 24.5324 147.846 24.5151 147.894 24.1248C147.955 24.1386 147.929 24.2527 147.92 24.4046C147.939 24.2319 148 24.1698 148.049 24.1663L148.02 24.2285L148.162 24.1905L148.174 23.8623C148.236 23.9659 148.145 24.2596 148.223 24.1905L148.255 23.9211C148.349 23.9867 148.355 24.4012 148.426 24.6119C148.806 24.7811 149.322 24.1629 149.628 24.6913L149.619 24.8951C149.586 25.1887 149.78 24.4772 149.757 24.75L149.819 24.6223C149.825 24.6775 149.841 24.7363 149.812 24.7984C149.851 24.8157 149.857 24.7673 149.899 24.6844L149.915 24.8744C150.051 25.0402 150.234 24.712 150.386 24.8087C150.531 25.2128 150.947 24.9331 151.192 24.7742C151.563 24.3908 151.727 25.617 152.111 25.1714C152.114 25.2129 152.156 25.1265 152.159 25.092L152.433 25.1852C152.433 25.1852 152.768 25.2785 153.026 25.0471C153.281 24.8157 153.474 24.2561 153.152 22.947L153.171 22.8849C153.039 22.6984 152.946 22.6465 152.784 22.947C152.833 22.5533 152.662 22.8814 152.646 22.7467L152.655 22.7157C152.51 22.9989 152.497 22.4255 152.362 22.6811C152.372 22.65 152.391 22.5429 152.414 22.5395C152.34 22.5775 152.233 22.6465 152.262 22.4186C152.091 22.4497 151.882 22.3011 151.721 22.65L151.737 22.5878C151.64 22.8227 151.656 22.612 151.569 22.726C151.569 22.6949 151.569 22.6776 151.569 22.6672C151.469 22.8987 151.376 22.6742 151.308 22.7674L151.327 22.6155L151.195 22.6293L151.237 22.6707C151.16 23.0852 151.179 22.3909 151.047 22.6465C150.966 22.5809 150.744 23.4858 150.686 23.2648C150.615 23.4548 150.77 22.9539 150.686 23.0921C150.715 22.8745 150.734 22.9609 150.744 22.7847C150.666 22.878 150.673 22.5464 150.573 22.6811L150.592 22.5118C150.447 22.8054 150.431 22.2563 150.321 22.543C150.199 22.6673 150.321 22.0283 150.167 22.3426L150.157 22.1043C150.115 22.0594 150.086 22.3806 150.047 22.2632C150.07 22.1181 149.999 22.1388 150.047 22.0041C149.96 21.7589 149.767 22.2908 149.661 21.8832C149.59 22.1595 149.535 21.9799 149.48 22.1872C149.493 22.0628 149.325 22.1457 149.448 21.8901C149.457 21.8694 149.47 21.8763 149.464 21.9247L149.496 21.7589C149.448 21.4308 149.312 21.9074 149.232 21.8487C149.251 21.9074 149.287 21.897 149.248 22.011L149.171 21.9764L149.206 21.8383L149.096 21.7381L149.09 21.9143C149.042 21.8176 149.058 21.5171 148.961 21.7554C148.913 21.8901 148.987 21.9972 148.919 22.0455C148.855 21.9143 148.758 21.7209 148.664 21.6518C148.648 21.8487 148.623 21.8383 148.59 21.8763L148.606 21.7036C148.471 21.9246 148.613 21.3237 148.484 21.4964L148.507 21.3789L148.436 21.7312C148.3 22.0559 148.426 21.3686 148.265 21.8176C148.31 21.7934 148.239 22.1976 148.197 22.1147L148.229 21.9522C148.197 21.9833 148.178 22.0525 148.165 22.0145C148.194 21.9281 148.203 21.7761 148.158 21.8003L148.21 21.5966L148.094 21.8901C148.052 21.7036 147.929 21.9143 147.933 21.6794C147.933 21.6794 147.813 21.5481 147.752 21.7968C147.797 21.6414 147.73 21.5723 147.771 21.3893C147.717 21.562 147.597 21.6967 147.578 21.4998L147.588 21.4791C147.459 21.2649 147.301 21.7139 147.191 21.4583C147.175 21.6587 147.117 21.5412 147.104 21.7968C146.937 22.0317 146.904 21.2512 146.772 22.0283C146.704 22.0628 146.717 21.8348 146.688 21.7899L146.708 21.752C146.582 21.8003 146.546 21.8038 146.459 21.7762C146.408 21.8487 146.363 22.2114 146.292 22.1147C146.334 21.973 146.298 21.9972 146.269 21.9937C146.292 21.973 146.301 21.9212 146.272 21.8176C146.263 21.8625 146.25 21.8901 146.24 21.9108C146.24 21.9005 146.24 21.8901 146.24 21.8763C146.185 21.9212 146.189 21.9661 146.211 21.9903C146.208 22.011 146.208 22.0421 146.211 22.0835C146.179 21.8901 146.066 22.0801 146.085 21.8314C145.931 21.8729 145.799 22.1147 145.666 22.1975C145.666 22.0663 145.705 21.9592 145.747 21.9108L145.653 21.9489C145.673 21.7658 145.715 21.8487 145.744 21.8141C145.67 21.5033 145.499 22.087 145.405 21.8003L145.367 21.942L145.36 21.9178C145.354 21.9937 145.315 22.0974 145.296 22.1181C145.296 21.9558 145.331 21.7485 145.27 21.752C145.238 21.5931 145.128 21.8141 145.057 21.8936C145.089 21.9246 145.07 22.011 145.047 22.0663C145.018 22.0663 145.015 21.9074 144.986 21.973L145.002 21.7554C144.996 21.9592 144.902 21.9661 144.883 22.0559C144.883 21.8935 144.944 21.9246 144.96 21.8037C144.838 21.8107 144.899 21.8072 144.777 21.8141C144.696 21.9695 144.77 22.0214 144.722 22.2079C144.661 22.2425 144.593 22.3875 144.538 22.2528V22.4462C144.422 22.5844 144.358 22.5567 144.306 22.353C143.374 23.8382 143.948 24.4771 143.948 24.4771C144.219 24.9331 144.428 24.3909 144.809 24.2803L144.815 24.263Z" fill="#20BB65"/>
<path d="M161.147 25.1299V25.216C161.157 25.1816 161.161 25.1471 161.147 25.1299Z" fill="#20BB65"/>
<path d="M166.998 27.931C166.998 27.931 167.005 27.9241 167.012 27.9207C167.005 27.9207 167.001 27.9275 166.998 27.931Z" fill="#20BB65"/>
<path d="M161.2 28.0209C161.2 28.0209 161.193 28.032 161.185 28.0395L161.2 28.0209Z" fill="#20BB65"/>
<path d="M160.131 27.3922C160.405 27.5891 160.37 27.9759 160.724 27.9449C160.863 28.0278 161.044 28.007 161.202 28.0208C161.363 27.7721 161.389 28.09 161.55 27.8931L161.527 28.0589C161.582 27.9932 161.634 27.9518 161.63 28.0485L161.614 28.0934C161.698 27.9932 161.717 28.083 161.759 28.0312L161.74 28.0762H161.798L161.766 28.1383C161.882 28.045 161.959 28.0658 162.004 28.1487L162.069 27.9587C162.13 28.2246 162.327 27.862 162.359 28.1625L162.34 28.2074C162.684 27.7894 162.459 28.6494 162.801 28.2591C162.759 28.3075 162.772 28.3594 162.752 28.4008C162.846 28.3835 162.936 28.3904 163.084 28.0312C163.136 28.0623 163.084 28.1659 163.033 28.3075C163.097 28.1487 163.171 28.1037 163.216 28.1141L163.171 28.166H163.316L163.416 27.8585C163.445 27.9759 163.284 28.2281 163.374 28.1866L163.474 27.9379C163.545 28.0277 163.439 28.4284 163.449 28.6495C163.752 28.9224 164.409 28.4975 164.532 29.102L164.461 29.2919C164.342 29.5578 164.735 28.95 164.632 29.2022L164.728 29.102C164.715 29.1538 164.712 29.216 164.667 29.2643C164.696 29.2919 164.719 29.2505 164.783 29.1849L164.741 29.368C164.812 29.5717 165.08 29.323 165.189 29.468C165.186 29.8929 165.65 29.7824 165.928 29.7271C166.401 29.5164 166.092 30.7046 166.592 30.4525C166.579 30.4939 166.646 30.4318 166.666 30.4007L166.866 30.601C166.866 30.601 166.93 30.6563 167.03 30.7012C167.13 30.7461 167.272 30.7806 167.43 30.7357C167.743 30.639 168.171 30.2522 168.407 28.9085L168.449 28.8601C168.4 28.6253 168.329 28.532 168.062 28.7289C168.258 28.3904 167.971 28.6115 168.007 28.4802L168.026 28.456C167.781 28.646 167.984 28.1176 167.759 28.2868C167.778 28.2626 167.836 28.1728 167.859 28.1797C167.772 28.1797 167.646 28.197 167.759 28.0001C167.585 27.9483 167.433 27.7204 167.159 27.976L167.198 27.9241C167.024 28.1003 167.111 27.9104 166.991 27.9794C167.004 27.9518 167.008 27.9345 167.014 27.9241C166.837 28.0968 166.83 27.8481 166.73 27.9103L166.801 27.7756L166.669 27.7342L166.698 27.7894C166.485 28.1452 166.737 27.5062 166.524 27.6927C166.469 27.596 165.963 28.3594 165.976 28.1314C165.847 28.2834 166.156 27.8689 166.031 27.9691C166.127 27.7756 166.121 27.8654 166.186 27.7031C166.082 27.7618 166.192 27.451 166.057 27.5408L166.131 27.3888C165.899 27.6099 166.057 27.0882 165.86 27.3162C165.702 27.3853 166.018 26.8292 165.77 27.071L165.831 26.843C165.802 26.7843 165.676 27.0779 165.676 26.9536C165.741 26.8258 165.666 26.8154 165.754 26.7083C165.741 26.4458 165.396 26.8741 165.412 26.4527C165.264 26.691 165.26 26.5011 165.147 26.6807C165.196 26.5667 165.009 26.5874 165.202 26.3871C165.218 26.3698 165.228 26.3802 165.209 26.4251L165.286 26.28C165.331 25.9484 165.064 26.3594 164.999 26.2731C164.999 26.3353 165.041 26.3388 164.97 26.432L164.902 26.3733L164.977 26.2524L164.896 26.1211L164.841 26.2869C164.822 26.1764 164.919 25.8967 164.757 26.0936C164.674 26.2075 164.719 26.3353 164.638 26.356C164.609 26.2109 164.567 25.9899 164.49 25.8966C164.422 26.0832 164.4 26.0625 164.358 26.0866L164.419 25.9277C164.225 26.0969 164.525 25.565 164.351 25.6894L164.406 25.5823L164.245 25.9001C164.026 26.1695 164.329 25.5512 164.051 25.9277C164.103 25.9208 163.929 26.2835 163.91 26.1936L163.984 26.0486C163.942 26.0693 163.91 26.1281 163.903 26.0866C163.951 26.0106 164 25.869 163.951 25.8759L164.055 25.6963L163.864 25.9415C163.871 25.7515 163.697 25.9139 163.758 25.6859C163.758 25.6859 163.671 25.5236 163.552 25.7482C163.636 25.6134 163.587 25.5236 163.671 25.3613C163.574 25.5132 163.423 25.6065 163.452 25.413L163.468 25.3958C163.39 25.1506 163.126 25.5339 163.078 25.2611C163.017 25.4476 162.984 25.3198 162.913 25.5651C162.694 25.7447 162.842 24.9779 162.53 25.6963C162.456 25.7101 162.52 25.4925 162.501 25.4442L162.53 25.4096C162.394 25.4234 162.359 25.42 162.278 25.3682C162.211 25.4234 162.085 25.7654 162.04 25.6514C162.111 25.5236 162.072 25.5374 162.043 25.527C162.069 25.5132 162.091 25.4649 162.085 25.3578C162.066 25.3993 162.049 25.42 162.033 25.4407C162.037 25.4303 162.037 25.4199 162.043 25.4061C161.979 25.4372 161.972 25.4821 161.988 25.5098C161.979 25.5305 161.972 25.5581 161.966 25.5996C161.975 25.4027 161.824 25.5581 161.898 25.3198C161.737 25.3198 161.553 25.5271 161.408 25.572C161.434 25.4442 161.498 25.3475 161.547 25.3129L161.447 25.3267C161.505 25.1505 161.527 25.2439 161.566 25.2197C161.556 24.8985 161.266 25.4235 161.234 25.123L161.166 25.2542V25.23C161.144 25.3026 161.086 25.3923 161.06 25.4096C161.092 25.2507 161.173 25.0573 161.111 25.047C161.111 24.8846 160.957 25.0746 160.87 25.1368C160.895 25.1748 160.857 25.2542 160.828 25.306C160.795 25.2991 160.828 25.1402 160.786 25.1989L160.847 24.9917C160.799 25.192 160.705 25.1747 160.67 25.2576C160.699 25.0987 160.757 25.1402 160.799 25.0297C160.676 25.009 160.737 25.0193 160.615 24.9951C160.505 25.1298 160.566 25.1955 160.483 25.3647C160.415 25.3854 160.318 25.5098 160.292 25.3647L160.257 25.5547C160.112 25.6618 160.057 25.6203 160.041 25.413C159.441 26.0382 159.261 26.539 159.222 26.8845C159.184 27.2299 159.29 27.4129 159.29 27.4129C159.461 27.9172 159.764 27.4267 160.151 27.406L160.131 27.3922Z" fill="#20BB65"/>
<path d="M173.203 35.6887L173.136 35.7265C173.168 35.7162 173.197 35.7024 173.203 35.6887Z" fill="#20BB65"/>
<path d="M170.957 36.3417C170.918 36.5213 170.596 36.6733 170.776 36.7734C170.77 36.8529 170.867 36.9047 170.928 36.9634C171.199 36.9185 170.954 37.0567 171.186 37.0325L171.041 37.0912C171.118 37.0843 171.176 37.0843 171.099 37.1223L171.054 37.1327C171.173 37.1223 171.112 37.1637 171.17 37.1603L171.125 37.1706L171.15 37.1914L171.086 37.2052C171.215 37.2087 171.231 37.2466 171.183 37.2915L171.363 37.2431C171.176 37.3675 171.56 37.2984 171.331 37.4228L171.286 37.4331C171.785 37.4055 170.983 37.6369 171.457 37.6197C171.399 37.6197 171.363 37.6439 171.318 37.6542C171.379 37.6819 171.411 37.7199 171.773 37.6439C171.773 37.6749 171.663 37.6922 171.524 37.7233C171.682 37.6922 171.753 37.7026 171.766 37.7233H171.702L171.766 37.782L172.063 37.7095C171.982 37.7613 171.698 37.7889 171.779 37.8096L172.027 37.7612C171.989 37.82 171.618 37.9202 171.441 37.9996C171.363 38.2034 172.027 38.3277 171.605 38.5695L171.418 38.6006C171.144 38.6352 171.831 38.6006 171.576 38.6386L171.705 38.6455C171.656 38.6559 171.605 38.6766 171.54 38.6732C171.531 38.6939 171.576 38.6904 171.663 38.6939L171.495 38.7318C171.37 38.8216 171.705 38.8562 171.644 38.9426C171.302 39.0669 171.634 39.2258 171.824 39.3259C172.243 39.4675 171.147 39.6748 171.621 39.8165C171.582 39.8234 171.669 39.8337 171.702 39.8337L171.663 39.9753C171.663 39.9753 171.634 40.1445 171.892 40.2619C172.15 40.3725 172.695 40.4623 173.845 40.186L173.907 40.1929C174.055 40.1031 174.09 40.0444 173.784 39.9788C174.155 39.9719 173.823 39.9028 173.942 39.8821H173.971C173.684 39.8302 174.21 39.7646 173.952 39.7128C173.981 39.7128 174.084 39.7128 174.09 39.7266C174.045 39.6887 173.961 39.6334 174.177 39.6265C174.119 39.5332 174.216 39.3916 173.868 39.3467H173.929C173.697 39.3225 173.894 39.3052 173.775 39.2707C173.804 39.2707 173.816 39.2638 173.829 39.2638C173.597 39.2361 173.787 39.1567 173.687 39.1326L173.829 39.1222L173.794 39.0496L173.765 39.0807C173.372 39.0945 174.01 39.0081 173.752 38.9702C173.797 38.9149 172.927 38.9288 173.117 38.8666C172.93 38.8562 173.417 38.8666 173.275 38.8389C173.481 38.8217 173.404 38.8458 173.568 38.8217C173.468 38.794 173.774 38.7456 173.633 38.7111L173.794 38.6939C173.497 38.6628 173.997 38.5626 173.713 38.5488C173.575 38.5004 174.184 38.459 173.865 38.4279L174.078 38.3795C174.11 38.3484 173.81 38.3899 173.913 38.3485C174.049 38.3347 174.016 38.2966 174.148 38.3001C174.355 38.2034 173.833 38.1965 174.181 38.0549C173.913 38.0721 174.065 38.003 173.865 38.0168C173.981 37.9996 173.871 37.9236 174.129 37.9374C174.152 37.9374 174.148 37.9478 174.103 37.9547L174.261 37.9374C174.548 37.8407 174.087 37.8649 174.126 37.8062C174.078 37.8304 174.094 37.8476 173.984 37.8511L173.997 37.7993L174.129 37.7889L174.197 37.7026L174.036 37.7371C174.113 37.6888 174.387 37.63 174.152 37.6266C174.019 37.63 173.939 37.6956 173.881 37.668C173.984 37.6024 174.142 37.5022 174.181 37.4331C174 37.4711 174.003 37.4539 173.965 37.4435L174.123 37.4124C173.891 37.3882 174.468 37.3226 174.281 37.2915L174.39 37.2777L174.058 37.326C173.736 37.3295 174.381 37.2293 173.942 37.2501C173.974 37.2708 173.597 37.333 173.658 37.2881L173.813 37.2639C173.778 37.2535 173.713 37.2639 173.742 37.2431C173.826 37.2362 173.965 37.2017 173.936 37.1845L174.129 37.1637L173.842 37.1741C174 37.1015 173.784 37.0912 173.994 37.029C173.994 37.029 174.084 36.9254 173.845 36.96C173.994 36.9427 174.042 36.8874 174.213 36.8598C174.045 36.8771 173.897 36.8494 174.068 36.7838H174.087C174.248 36.6491 173.81 36.6905 174.01 36.5558C173.829 36.6076 173.92 36.5386 173.691 36.6077C173.446 36.5904 174.126 36.3313 173.407 36.4971C173.359 36.4729 173.562 36.4073 173.594 36.3796H173.633C173.558 36.3244 173.546 36.3071 173.549 36.2519C173.475 36.2484 173.143 36.3417 173.21 36.2726C173.346 36.2485 173.317 36.238 173.31 36.2208C173.333 36.2242 173.381 36.2139 173.465 36.1655C173.423 36.1759 173.397 36.1759 173.375 36.1794C173.384 36.1794 173.394 36.1724 173.407 36.169C173.352 36.1552 173.313 36.1725 173.301 36.1897C173.281 36.1966 173.255 36.2035 173.22 36.2208C173.381 36.1413 173.188 36.1448 173.41 36.0723C173.336 36.0032 173.088 36.0205 172.981 35.9825C173.094 35.9376 173.201 35.9169 173.249 35.9238L173.194 35.8892C173.359 35.8339 173.297 35.8857 173.336 35.8892C173.584 35.7407 173.033 35.8581 173.255 35.7061L173.12 35.7372L173.139 35.7269C173.072 35.751 172.972 35.7683 172.949 35.7683C173.088 35.7061 173.278 35.6509 173.259 35.6198C173.388 35.5438 173.165 35.568 173.078 35.5611C173.059 35.5887 172.978 35.6129 172.927 35.6232C172.917 35.6094 173.056 35.5473 172.991 35.5576L173.181 35.4851C173.004 35.5611 172.972 35.5162 172.891 35.5403C173.03 35.4782 173.023 35.5196 173.13 35.4816C173.088 35.4229 173.11 35.4506 173.068 35.3918C172.914 35.4126 172.891 35.4678 172.717 35.5161C172.669 35.4989 172.527 35.5231 172.63 35.4436L172.466 35.5231C172.317 35.5196 172.324 35.4816 172.479 35.3711C171.718 35.4505 171.25 35.6474 170.967 35.7994C170.683 35.9548 170.58 36.0723 170.58 36.0723C170.257 36.359 170.77 36.2208 170.957 36.3417Z" fill="#20BB65"/>
<path d="M165.044 41.4741C165.128 41.536 165.215 41.3915 165.189 41.4156C165.163 41.3571 165.07 41.4672 165.044 41.4741Z" fill="#00B14F"/>
<path d="M166.444 43.4505C166.424 43.5553 166.379 43.3736 166.444 43.4505Z" fill="#00B14F"/>
<path d="M167.146 44.5234C167.188 44.4993 167.223 44.403 167.265 44.3514L167.162 44.3102C167.162 44.3721 167.198 44.4684 167.143 44.5234H167.146Z" fill="#00B14F"/>
<path d="M167.269 44.3515L167.42 44.4134C167.352 44.3033 167.304 44.3102 167.269 44.3515Z" fill="#00B14F"/>
<path d="M167.471 44.9769L167.333 44.9838L167.555 44.9907L167.471 44.9769Z" fill="#00B14F"/>
<path d="M167.704 45.2601C167.594 45.2739 167.63 45.4328 167.546 45.419C167.617 45.4881 167.733 45.5054 167.836 45.5192C167.755 45.4812 167.714 45.4017 167.707 45.2601H167.704Z" fill="#00B14F"/>
<path d="M167.994 45.55C167.952 45.5328 167.894 45.5259 167.836 45.5156C167.878 45.5363 167.929 45.55 167.994 45.55Z" fill="#00B14F"/>
<path d="M167.504 44.8137L167.578 44.6761C167.578 44.6761 167.555 44.6451 167.546 44.6279C167.53 44.6555 167.482 44.7243 167.504 44.8103V44.8137Z" fill="#00B14F"/>
<path d="M167.582 44.6727C167.614 44.7313 167.639 44.7658 167.649 44.783C167.639 44.7692 167.62 44.7382 167.585 44.6727H167.582Z" fill="#00B14F"/>
<path d="M167.539 44.6178L167.55 44.6287C167.55 44.6287 167.561 44.6069 167.539 44.6178Z" fill="#00B14F"/>
<path d="M167.459 44.3755L167.632 44.4443L167.565 44.2998C167.539 44.3273 167.514 44.3824 167.459 44.3755Z" fill="#00B14F"/>
<path d="M167.71 44.4793L167.633 44.4448L167.656 44.4999L167.71 44.4793Z" fill="#00B14F"/>
<path d="M167.939 45.2527C168.026 45.2665 168.071 45.3215 168.129 45.3799C168.096 45.2905 168.055 45.208 168.003 45.1392C167.962 45.1564 167.878 45.177 167.939 45.2527Z" fill="#00B14F"/>
<path d="M167.775 44.9634L167.792 44.9708C167.792 44.9708 167.792 44.9448 167.775 44.9634Z" fill="#00B14F"/>
<path d="M168.607 46.0339C168.607 46.0339 168.616 46.0166 168.62 46.0062L168.6 46.0201L168.61 46.0339H168.607Z" fill="#00B14F"/>
<path d="M168.013 45.1111C167.994 45.0389 167.945 45.032 167.891 45.0286C167.929 45.0595 167.968 45.0939 168.003 45.1387C168.023 45.1318 168.032 45.1214 168.016 45.1111H168.013Z" fill="#00B14F"/>
<path d="M168.178 45.6877C168.178 45.6396 168.178 45.5948 168.168 45.5466C168.155 45.6017 168.142 45.7015 168.178 45.6877Z" fill="#00B14F"/>
<path d="M167.773 45.0112H167.762C167.752 45.0459 167.762 45.032 167.773 45.0112Z" fill="#00B14F"/>
<path d="M167.772 45.0112C167.807 45.025 167.849 45.025 167.891 45.025C167.858 45.0009 167.823 44.9803 167.788 44.9666C167.788 44.9803 167.778 44.9975 167.772 45.0078V45.0112Z" fill="#00B14F"/>
<path d="M168.458 45.7643L168.41 45.7228C168.436 45.7953 168.426 45.8713 168.403 46.0129C168.513 46.0544 168.565 46.0406 168.603 46.0199L168.436 45.7608H168.465L168.458 45.7643Z" fill="#00B14F"/>
<path d="M168.568 46.1028L168.436 46.1753L168.681 46.1511L168.568 46.1028Z" fill="#00B14F"/>
<path d="M168.668 46.4272L168.777 46.4445L168.774 46.3514L168.668 46.4272Z" fill="#00B14F"/>
<path d="M174.59 50.9005C174.764 50.8729 175.028 50.8384 174.912 50.7486L174.783 50.683C174.725 50.8004 174.658 50.866 174.593 50.9005H174.59Z" fill="#00B14F"/>
<path d="M170.766 48.9732C170.776 49.0837 170.802 49.1562 170.834 49.2115C170.834 49.0699 170.873 48.9179 170.766 48.9732Z" fill="#00B14F"/>
<path d="M181.143 42.0784C181.15 42.027 181.127 42.0064 181.086 42.0132C181.076 42.0647 181.089 42.0956 181.143 42.0784Z" fill="#00B14F"/>
<path d="M170.834 49.2148C170.834 49.318 170.863 49.4178 170.991 49.4281C170.991 49.4074 170.991 49.3903 170.991 49.3662C170.934 49.3283 170.879 49.2871 170.837 49.2148H170.834Z" fill="#00B14F"/>
<path d="M166.627 40.2068C166.656 40.1965 166.701 40.1965 166.746 40.1965C166.724 40.1862 166.688 40.1862 166.627 40.2068Z" fill="#00B14F"/>
<path d="M169.493 47.4361C169.474 47.4361 169.445 47.3877 169.493 47.4361Z" fill="#00B14F"/>
<path d="M169.48 47.3116C169.48 47.3427 169.487 47.3771 169.5 47.4082C169.5 47.3909 169.493 47.3599 169.48 47.3116Z" fill="#00B14F"/>
<path d="M169.439 47.3677C169.429 47.3433 169.423 47.3258 169.413 47.3083C169.39 47.3153 169.383 47.3328 169.439 47.3677Z" fill="#00B14F"/>
<path d="M169.554 47.5084C169.529 47.4774 169.513 47.4464 169.5 47.4084C169.5 47.4257 169.5 47.436 169.49 47.436C169.503 47.4497 169.522 47.4705 169.551 47.5084H169.554Z" fill="#00B14F"/>
<path d="M181.863 40.3484L181.972 40.2967C181.656 40.2587 181.321 40.383 181.028 40.5074C181.002 40.4728 181.128 40.421 181.173 40.3968C180.812 40.2863 180.657 40.3105 180.015 40.5661L180.125 40.3968C180.025 40.4452 179.903 40.3796 179.693 40.3209C179.49 40.2656 179.184 40.2207 178.897 40.3209C178.906 40.3001 178.926 40.2691 178.974 40.2449C178.81 40.2932 178.655 40.2897 178.487 40.2621C178.371 40.2345 178.265 40.1896 178.162 40.1551C177.955 40.086 177.781 40.0721 177.707 40.383L177.446 40.535C177.785 40.5868 177.395 40.8044 177.533 40.908C177.401 40.9426 177.191 40.7181 177.353 40.687L177.378 40.718C177.44 40.3934 176.959 40.6006 176.969 40.3795C176.302 40.3899 175.654 40.2068 175.031 40.1861L175.102 40.4382L174.886 40.421C174.828 40.3623 174.812 40.2241 174.967 40.2345C174.886 40.0894 174.706 40.3519 174.703 40.4072C174.4 40.3036 174.822 40.1136 174.732 40.1067L174.606 40.124L174.635 40.1551C174.532 40.2587 174.522 40.3657 174.335 40.3519C174.216 40.3001 174.277 40.1965 174.229 40.1861C174.229 40.1688 174.213 40.1585 174.158 40.1792L173.884 40.1551L173.984 40.3381C173.894 40.383 173.626 40.3519 173.368 40.3657C173.107 40.3519 172.839 40.383 172.749 40.3381L172.849 40.1551L172.575 40.1792C172.52 40.1619 172.504 40.1688 172.504 40.1861C172.459 40.1965 172.517 40.3001 172.398 40.3519C172.211 40.3657 172.201 40.2552 172.098 40.1551L172.127 40.124L172.001 40.1067C171.908 40.1136 172.333 40.3036 172.03 40.4072C172.027 40.3519 171.846 40.0894 171.763 40.2345C171.872 40.2276 171.895 40.2932 171.875 40.3553C171.808 40.3346 171.734 40.3105 171.676 40.2518L171.695 40.1861C171.676 40.1861 171.656 40.1896 171.637 40.1896C171.627 40.1757 171.618 40.1654 171.611 40.1516C171.621 40.1654 171.624 40.1792 171.627 40.193C171.36 40.2068 171.089 40.2448 170.815 40.2828C170.547 40.2552 170.254 40.1309 169.954 40.1689C169.948 40.2207 169.993 40.2932 169.954 40.3692C169.935 40.3692 169.912 40.3692 169.893 40.3692L169.693 40.1067C169.606 40.1343 169.609 40.4556 169.454 40.2449C169.477 40.2967 169.509 40.3727 169.451 40.3934C169.3 40.3416 169.145 40.3139 168.99 40.3001C168.906 40.0721 168.745 40.0894 168.561 40.1482C168.458 40.1827 168.352 40.2276 168.236 40.2553C168.068 40.2829 167.913 40.2863 167.749 40.238C167.797 40.2621 167.817 40.2932 167.826 40.3139C167.649 40.2518 167.465 40.2483 167.301 40.269C167.14 40.2275 166.975 40.162 166.817 40.0583C166.937 40.1758 166.856 40.1896 166.766 40.193C166.817 40.2172 166.779 40.3174 166.775 40.3968C166.763 40.4003 166.75 40.4003 166.737 40.4038L166.408 40.1965C166.353 40.3795 166.137 40.2793 166.031 40.345C165.866 40.3208 165.737 40.345 165.557 40.3968C165.602 40.4245 165.728 40.4728 165.702 40.5074C165.409 40.383 165.073 40.2587 164.757 40.2967L164.867 40.3484L164.419 40.3312L164.503 40.4555C165.006 40.7008 164.98 40.7975 165.012 40.9563C165.038 41.1083 165.128 41.3398 165.612 41.5228C165.434 41.5332 165.621 41.8613 165.647 42.0098C165.676 42.0133 165.715 42.0271 165.766 42.0548C165.65 42.1273 165.792 42.2793 165.953 42.4106C166.121 42.5453 166.308 42.6592 166.363 42.756C166.389 42.901 166.266 42.8768 166.128 42.8388C166.343 42.9494 166.418 43.1428 166.485 43.3604C166.495 43.3915 166.505 43.4225 166.514 43.4536C166.501 43.4432 166.485 43.4329 166.469 43.4156C166.469 43.4329 166.466 43.4364 166.463 43.4468C166.476 43.464 166.492 43.4847 166.514 43.5262C166.521 43.5193 166.524 43.5124 166.53 43.5089C166.547 43.5642 166.563 43.616 166.579 43.6609C166.592 43.6954 166.605 43.7265 166.614 43.7507C166.618 43.7576 166.624 43.7576 166.63 43.761C166.63 43.8163 166.659 43.8854 166.614 43.8785C166.724 43.9545 166.75 43.9027 166.772 43.7922C166.801 43.7714 166.834 43.7403 166.863 43.7126L166.914 43.7368C166.93 43.7023 166.966 43.6643 166.892 43.6885C166.908 43.6747 166.924 43.6643 166.943 43.6574C166.962 43.6954 166.962 43.73 166.953 43.7576L166.911 43.7368C166.901 43.7576 166.908 43.7714 166.946 43.7714C166.892 43.9027 166.64 43.951 166.917 44.0512C166.911 44.0063 166.882 43.9407 166.921 43.9407C167.008 43.9994 167.398 43.875 167.536 43.9199C167.478 43.9579 167.452 44.0304 167.32 44.0063C167.375 44.0132 167.443 44.0408 167.494 44.0374C167.552 44.1237 167.685 44.1513 167.788 44.1859C167.781 44.2308 167.775 44.2688 167.765 44.293C167.788 44.2619 167.804 44.2273 167.823 44.1963C167.913 44.2273 167.962 44.2688 167.862 44.3759L167.73 44.4622C168.123 44.6315 167.781 44.6349 168.158 44.8249L168.175 44.8042C168.255 44.9596 168.462 44.9043 168.316 45.1392L168.255 45.115C168.307 45.1979 168.339 45.2393 168.371 45.2808C168.352 45.2808 168.333 45.2808 168.313 45.2704C168.516 45.488 168.2 45.2532 168.268 45.4777C168.217 45.4466 168.178 45.4086 168.146 45.374C168.165 45.4293 168.178 45.4846 168.187 45.5398V45.5295C168.194 45.5053 168.2 45.495 168.2 45.5157C168.2 45.5157 168.204 45.5157 168.207 45.5157C168.223 45.5053 168.239 45.4984 168.255 45.4915C168.284 45.5813 168.236 45.5261 168.207 45.5157C168.2 45.5192 168.194 45.5225 168.187 45.526L168.423 45.716C168.4 45.6538 168.352 45.5917 168.255 45.4881C168.352 45.4535 168.445 45.4776 168.513 45.4431C168.52 45.45 168.523 45.4569 168.532 45.4639C168.529 45.4984 168.565 45.609 168.623 45.5986C168.545 45.6711 168.603 45.7851 168.684 45.8921C168.665 45.9301 168.645 45.9647 168.632 45.9992C168.661 45.9785 168.694 45.9578 168.748 45.9647C168.819 46.0407 168.89 46.1028 168.916 46.1305C168.835 45.975 168.955 45.9785 169.048 45.9612C168.977 46.1546 169.006 46.2237 169.184 46.2514C169.119 46.317 169.051 46.3861 169 46.4552C168.984 46.4345 168.974 46.4137 168.964 46.3895C168.89 46.5346 168.948 46.4794 168.945 46.5415C168.887 46.6486 168.874 46.7591 168.955 46.8766C168.958 46.8179 168.935 46.7487 168.993 46.7349C169.051 46.7211 169.045 46.8109 169.042 46.842C169.087 46.8316 169.087 46.7695 169.126 46.7246C169.135 46.7384 169.145 46.7522 169.155 46.766C169.142 46.9042 169.209 46.9595 169.29 47.0285C169.309 47.0907 169.325 47.1563 169.293 47.2876C169.342 47.2392 169.355 47.1529 169.422 47.3014C169.442 47.2945 169.471 47.291 169.487 47.291C169.487 47.2979 169.487 47.298 169.487 47.3014V47.2876C169.487 47.2876 169.503 47.2876 169.487 47.2841C169.487 47.2358 169.496 47.1875 169.516 47.1529C169.535 47.1495 169.558 47.1495 169.577 47.1529C169.5 47.3049 170.002 47.2427 169.677 47.4016C169.77 47.4534 169.854 47.5259 169.938 47.6053C169.909 47.7089 169.899 47.8022 169.761 47.7193L169.874 47.8851C169.88 48.0336 169.951 48.1856 170.057 48.2271C170.09 48.3238 170.325 48.3134 170.186 48.3238L170.444 48.5172L170.418 48.5449C170.589 48.8074 170.986 48.9006 170.992 49.3634C171.082 49.4222 171.182 49.4809 171.253 49.6502L171.176 49.7606C171.289 49.8401 171.318 50.1682 171.453 50.1302C171.366 50.3064 171.437 50.4342 171.569 50.5827C171.776 50.8349 172.008 51.0628 172.117 51.2632L172.217 51.1147C172.375 51.3461 172.559 51.5153 172.772 51.6915L172.788 51.5809C172.823 51.6534 172.859 51.7329 172.897 51.8158C173.03 52.1025 173.197 52.4271 173.349 52.4409C173.349 52.4409 173.349 52.441 173.349 52.4444C173.352 52.4444 173.355 52.4444 173.358 52.4444C173.362 52.4444 173.365 52.4444 173.368 52.4444C173.368 52.4444 173.368 52.4444 173.368 52.4409C173.52 52.4237 173.687 52.0991 173.819 51.8158C173.964 51.5084 174.071 51.2424 174.258 51.1906C174.303 51.0387 174.361 50.9972 174.429 50.9661C174.422 50.9764 174.419 50.9868 174.416 50.9972C174.425 50.9903 174.435 50.9765 174.445 50.9592C174.49 50.942 174.538 50.9246 174.59 50.897C174.538 50.9074 174.493 50.9178 174.461 50.935C174.513 50.8591 174.587 50.7313 174.641 50.5966L174.78 50.676C174.78 50.676 174.79 50.6587 174.796 50.6483C174.922 50.5793 174.809 50.5067 174.683 50.4722C174.706 50.3996 174.716 50.3341 174.716 50.2719C174.97 50.3617 174.79 50.0301 175.057 50.1302C174.99 49.9955 175.238 49.7226 175.054 49.5016C175.083 49.5223 175.112 49.5154 175.086 49.5534C175.167 49.4982 175.251 49.4429 175.241 49.3254L175.418 49.4256L175.338 49.0802C175.509 49.0595 175.592 49.0664 175.634 49.2667C175.634 48.8695 175.715 49.0111 175.689 48.6519L175.779 48.7486C175.831 48.6726 175.786 48.4412 175.902 48.4654C176.215 48.4654 176.54 47.6779 177.033 47.4085C176.679 47.2358 177.311 47.3256 177.098 47.1149C177.185 47.1494 177.269 47.1253 177.278 47.2462C177.372 46.9733 177.633 47.0182 177.552 46.7039C177.64 46.7384 177.62 46.8386 177.678 46.8524C177.678 46.8213 177.669 46.7315 177.727 46.7453C177.785 46.7591 177.762 46.8282 177.765 46.8869C177.92 46.659 177.723 46.4517 177.536 46.2617C177.714 46.2341 177.743 46.165 177.672 45.9716C177.765 45.9889 177.885 45.9854 177.804 46.1408C177.872 46.0717 178.252 45.754 178.101 45.609C178.159 45.6193 178.194 45.5122 178.191 45.4742C178.329 45.3119 178.355 45.3084 178.468 45.1254L178.407 45.1496C178.265 44.9147 178.471 44.97 178.549 44.8145L178.565 44.8352C178.939 44.6452 178.6 44.6418 178.993 44.4726L178.861 44.3862C178.626 44.1341 179.219 44.2446 179.258 43.9821H179.142C179.126 43.8128 179.7 44.0201 179.806 43.9476C179.845 43.9476 179.816 44.0131 179.809 44.058C180.157 43.9337 179.677 43.8888 179.783 43.6643C179.896 43.7023 179.964 43.8958 180.077 43.7818C180.093 43.7818 180.102 43.7714 180.112 43.7541C180.122 43.73 180.135 43.6989 180.148 43.6643C180.18 43.578 180.209 43.4675 180.244 43.3639C180.312 43.1463 180.386 42.9528 180.602 42.8423C180.464 42.8838 180.338 42.9045 180.367 42.7594C180.422 42.6592 180.609 42.5487 180.776 42.414C180.941 42.2828 181.079 42.1342 180.963 42.0582C181.015 42.0306 181.053 42.0167 181.082 42.0133C181.105 41.8648 181.295 41.5401 181.118 41.5263C181.601 41.3398 181.692 41.1118 181.718 40.9598C181.747 40.8009 181.724 40.7042 182.227 40.459L182.311 40.3347L181.863 40.3519V40.3484ZM169.348 46.0441C169.351 46.0234 169.354 45.9958 169.358 45.9716C169.319 46.0648 169.28 46.1339 169.232 46.1305L169.164 45.8783C169.226 45.8818 169.296 45.8956 169.364 45.8852C169.364 45.9129 169.361 45.9439 169.358 45.9716C169.371 45.9439 169.383 45.9129 169.393 45.8818C169.413 45.8783 169.432 45.868 169.451 45.8577L169.516 45.944C169.474 46.0131 169.422 46.058 169.348 46.0407V46.0441ZM170.18 46.8489C170.18 46.8489 170.173 46.8524 170.17 46.8558C170.167 46.8455 170.16 46.8316 170.157 46.8213L170.18 46.8524V46.8489ZM172.878 50.524L172.907 50.5654C172.897 50.6 172.885 50.6345 172.875 50.6691C172.875 50.6207 172.875 50.5724 172.875 50.5275L172.878 50.524ZM173.803 50.5689L173.832 50.531C173.832 50.5724 173.832 50.6138 173.832 50.6552C173.823 50.6276 173.813 50.5965 173.806 50.5654L173.803 50.5689ZM167.565 43.9821C167.565 43.9821 167.565 43.9786 167.565 43.9751C167.565 43.9751 167.565 43.9752 167.565 43.9821ZM170.035 47.9542C170.035 47.9542 170.041 47.9542 170.044 47.9542C170.064 48.0854 170.057 48.0371 170.035 47.9542ZM173.387 52.3823C173.387 52.3823 173.394 52.365 173.397 52.3546L173.384 52.3892C173.384 52.3892 173.368 52.4099 173.358 52.4168C173.349 52.4099 173.339 52.3995 173.333 52.3892L173.32 52.3546C173.32 52.3546 173.326 52.3719 173.329 52.3823C173.304 52.3512 173.278 52.3098 173.271 52.251C173.278 52.2614 173.287 52.2717 173.294 52.2821C173.313 52.3132 173.329 52.3477 173.349 52.3753C173.352 52.3719 173.355 52.365 173.358 52.3615C173.362 52.365 173.365 52.3719 173.368 52.3753C173.387 52.3443 173.404 52.3132 173.423 52.2821C173.429 52.2717 173.439 52.2649 173.445 52.251C173.439 52.3098 173.413 52.3512 173.387 52.3823ZM174.197 40.2483L174.238 40.2932C174.142 40.3416 174.168 40.2967 174.197 40.2483ZM175.106 48.8488L175.209 48.7141L175.331 49.0422C175.283 48.9835 175.199 48.9179 175.106 48.8523V48.8488ZM177.482 46.1305C177.436 46.1339 177.398 46.0648 177.356 45.9716C177.356 45.9992 177.359 46.0234 177.365 46.0441C177.32 46.0545 177.282 46.0372 177.249 46.0096L177.33 45.906C177.34 45.9267 177.349 45.9509 177.356 45.9716C177.356 45.9439 177.353 45.9094 177.349 45.8783L177.385 45.83C177.459 45.8369 177.523 45.8404 177.559 45.8369L177.478 46.1305H177.482Z" fill="#00B14F"/>
<path d="M169.019 46.9142L169.138 47.0071C169.09 46.9555 169.103 46.9108 169.1 46.8661C169.074 46.8936 169.048 46.9486 169.019 46.9142Z" fill="#00B14F"/>
<path d="M169.708 47.5465C169.708 47.4846 169.561 47.6325 169.583 47.574C169.419 47.6394 169.933 47.7047 169.708 47.5465Z" fill="#00B14F"/>
<path d="M166.146 40.013L166.015 39.9374L166.098 40.0578L166.146 40.013Z" fill="#00B14F"/>
<path d="M165.892 40.2715L165.863 40.048L165.783 40.251C165.812 40.2406 165.869 40.2234 165.892 40.2715Z" fill="#00B14F"/>
<path d="M165.567 42.0784C165.621 42.0922 165.634 42.0647 165.624 42.0132C165.579 42.0064 165.557 42.027 165.567 42.0784Z" fill="#00B14F"/>
</svg>
