<svg width="86" height="51" viewBox="0 0 86 51" fill="none" xmlns="http://www.w3.org/2000/svg">
<path d="M16.458 1.40997L16.3868 1.44115C16.4224 1.43769 16.4515 1.42729 16.458 1.40997Z" fill="#20BB65"/>
<path d="M18.2334 7.35982C18.2334 7.35982 18.2438 7.35981 18.2508 7.35608C18.2438 7.35608 18.2369 7.35608 18.2334 7.35982Z" fill="#20BB65"/>
<path d="M14.0452 2.77356C14.0452 2.77356 14.0313 2.76985 14.0243 2.76611L14.0452 2.77356Z" fill="#20BB65"/>
<path d="M14.1053 1.26047C14.0306 1.65341 13.6996 1.79597 13.8781 2.1889C13.8651 2.38711 13.9787 2.5853 14.0436 2.7696C14.326 2.8148 14.0793 3.01998 14.3227 3.08604L14.1767 3.15559C14.261 3.17646 14.3195 3.21123 14.2448 3.26339L14.1994 3.27033C14.326 3.30163 14.2675 3.37814 14.3292 3.39205L14.2838 3.39899L14.3162 3.4616H14.2513C14.3909 3.53462 14.4168 3.62849 14.3746 3.72585L14.5564 3.67719C14.3844 3.90669 14.7836 3.88234 14.5726 4.1014L14.5272 4.11185C15.0562 4.19182 14.2643 4.52912 14.7803 4.61258C14.7154 4.60214 14.6895 4.65081 14.644 4.66124C14.7219 4.7447 14.7771 4.83859 15.1308 4.73427C15.1438 4.80382 15.0335 4.82467 14.9004 4.87683C15.0562 4.82815 15.1373 4.8699 15.1601 4.91858L15.0919 4.91162L15.186 5.0507L15.4716 4.92552C15.4099 5.03331 15.1211 5.06113 15.2152 5.11676L15.4586 5.03679C15.4456 5.16198 15.0984 5.35324 14.9556 5.5271C14.9718 5.77747 15.1828 5.9687 15.3515 6.15995C15.517 6.35468 15.6501 6.54942 15.53 6.85194L15.3645 6.95278C15.1146 7.08491 15.7864 6.88671 15.5592 7.01537L15.6955 7.00495C15.6566 7.03972 15.6176 7.09186 15.5527 7.09882C15.5625 7.1475 15.6047 7.12664 15.6955 7.11968L15.5592 7.24486C15.517 7.48131 15.8838 7.47088 15.9065 7.683C15.702 8.06898 16.1921 8.31935 16.481 8.42714C16.7471 8.46539 16.6887 8.72966 16.6562 8.99046C16.6205 9.25126 16.5945 9.52248 16.8931 9.52943C16.8672 9.56421 16.958 9.53292 16.984 9.51553L17.1398 9.81805C17.1398 9.81805 17.1917 9.90847 17.2891 9.99888C17.3897 10.0893 17.5325 10.1797 17.7077 10.1936C18.0647 10.2249 18.5158 9.88412 19.1 8.68794L19.152 8.65317C19.1747 8.43063 19.1487 8.33327 18.8404 8.43758C19.1325 8.18722 18.7982 8.30543 18.8761 8.20111L18.9021 8.18373C18.6165 8.28109 18.9864 7.87774 18.7268 7.95772C18.7528 7.94381 18.8372 7.88122 18.8534 7.89513C18.7787 7.86731 18.6619 7.83948 18.8404 7.70734C18.7106 7.6065 18.6781 7.36657 18.3374 7.47437L18.3925 7.44655C18.1653 7.52652 18.3244 7.40135 18.1913 7.4083C18.214 7.39091 18.2238 7.37701 18.2335 7.37006C18.0031 7.44308 18.1102 7.22748 17.9998 7.23444L18.1232 7.15447C18.0907 7.12317 18.0647 7.09187 18.0355 7.06057L18.029 7.11968C17.6753 7.31441 18.201 6.90062 17.9349 6.95626C17.9414 6.85542 17.1268 7.21704 17.2534 7.03275C17.0684 7.08491 17.539 6.918 17.3832 6.92843C17.5649 6.82412 17.513 6.89018 17.6526 6.79282C17.5357 6.78586 17.7954 6.59463 17.6363 6.59115L17.7791 6.51116C17.4741 6.55984 17.8895 6.23646 17.6104 6.30601C17.4449 6.27124 18.016 6.02435 17.685 6.06956L17.8668 5.93394C17.883 5.87482 17.6104 6.02086 17.6883 5.92698C17.8148 5.86786 17.7629 5.81918 17.896 5.79136C18.0518 5.59663 17.5292 5.70444 17.8083 5.41583C17.5487 5.4958 17.672 5.35671 17.4741 5.41583C17.5812 5.36714 17.4416 5.26281 17.7045 5.24542C17.7272 5.24542 17.7272 5.25934 17.685 5.27325L17.8376 5.2211C18.0875 5.02637 17.6331 5.14112 17.6461 5.04376C17.6039 5.08548 17.6298 5.1133 17.5195 5.13417L17.513 5.0507L17.6428 5.01593L17.6785 4.87683L17.5292 4.95334C17.5877 4.86641 17.8505 4.74818 17.6104 4.77252C17.4773 4.7899 17.4156 4.90466 17.3507 4.86293C17.4351 4.74818 17.5617 4.58127 17.5812 4.47348C17.4059 4.54302 17.4059 4.51521 17.3605 4.5013L17.513 4.44565C17.2696 4.41783 17.8408 4.29614 17.6396 4.25789L17.7499 4.23006L17.4189 4.31005C17.0878 4.31701 17.7272 4.16052 17.2826 4.19182C17.3183 4.22311 16.945 4.31699 17.0002 4.24744L17.1527 4.21268C17.1138 4.19529 17.0489 4.20573 17.0749 4.17792C17.1592 4.17096 17.2956 4.1188 17.2599 4.0875L17.4546 4.0562L17.1592 4.06316C17.3053 3.95884 17.0781 3.92406 17.2858 3.83713C17.2858 3.83713 17.3572 3.68414 17.1203 3.71543C17.2696 3.70152 17.3118 3.61805 17.487 3.59371C17.315 3.60415 17.1593 3.54157 17.328 3.45812H17.3507C17.5 3.2773 17.0489 3.27728 17.2436 3.09647C17.0619 3.14167 17.1495 3.05126 16.9158 3.12081C16.6594 3.0304 17.3507 2.77657 16.614 2.87046C16.5621 2.81482 16.773 2.76264 16.8023 2.72439L16.8444 2.73136C16.7633 2.62704 16.7536 2.59227 16.7601 2.50186C16.6822 2.47057 16.3414 2.51924 16.4128 2.42535C16.5523 2.42883 16.5231 2.40102 16.5167 2.36973C16.5394 2.38711 16.5913 2.38364 16.6757 2.33148C16.6335 2.33148 16.6075 2.328 16.5848 2.32452C16.5945 2.32452 16.6043 2.32104 16.6173 2.31756C16.5621 2.27583 16.5231 2.28974 16.5069 2.31756C16.4874 2.31756 16.4582 2.32451 16.4225 2.33842C16.5913 2.26192 16.3901 2.19587 16.6238 2.15762C16.5459 2.01853 16.2992 1.93854 16.1954 1.82031C16.3154 1.79249 16.4225 1.80988 16.4745 1.84117L16.4225 1.75772C16.5945 1.74033 16.5264 1.79945 16.5653 1.82031C16.8347 1.6847 16.2667 1.63254 16.5102 1.47954L16.3706 1.46562L16.3933 1.4552C16.3219 1.46215 16.2181 1.44128 16.1954 1.42738C16.3446 1.39608 16.5426 1.39955 16.5296 1.33696C16.6724 1.27785 16.4485 1.20483 16.3641 1.14572C16.3414 1.18049 16.257 1.17701 16.2018 1.16658C16.1953 1.13528 16.3446 1.10747 16.2797 1.08661L16.4842 1.06923C16.2927 1.09357 16.2732 0.99967 16.1889 0.992715C16.3381 0.964897 16.3219 1.03444 16.4355 1.03444C16.4096 0.912736 16.4225 0.971861 16.3966 0.850156C16.2375 0.791042 16.2051 0.87102 16.0233 0.850156C15.9811 0.791042 15.8318 0.738873 15.9552 0.66585L15.7734 0.693674C15.6306 0.585879 15.6501 0.512856 15.8319 0.432878C15.0854 0.0190818 14.5791 -0.0435066 14.2611 0.0225617C13.943 0.08863 13.8099 0.279877 13.8099 0.279877C13.414 0.665855 13.9462 0.850149 14.115 1.27785L14.1053 1.26047Z" fill="#20BB65"/>
<path d="M25.1884 13.949L25.1722 14.0321C25.1884 14.001 25.1981 13.9698 25.1884 13.949Z" fill="#20BB65"/>
<path d="M30.8453 16.6653C30.8453 16.6653 30.8525 16.6581 30.8597 16.6509C30.8525 16.6545 30.8489 16.6617 30.8453 16.6653Z" fill="#20BB65"/>
<path d="M24.8651 16.8526C24.8651 16.8526 24.8546 16.8601 24.8477 16.8675L24.8651 16.8526Z" fill="#20BB65"/>
<path d="M23.7897 15.9833C24.0494 16.2476 23.965 16.6301 24.3545 16.6787C24.494 16.79 24.6952 16.8074 24.864 16.8492C25.0587 16.6266 25.062 16.9535 25.2502 16.7761L25.2145 16.943C25.2794 16.8839 25.3378 16.8491 25.3281 16.9465L25.3054 16.9882C25.4028 16.8978 25.419 16.9917 25.4677 16.9465L25.4449 16.9882L25.5066 16.9952L25.4677 17.0543C25.5975 16.9743 25.6819 17.0056 25.7241 17.096L25.8019 16.9117C25.8571 17.1899 26.081 16.8422 26.1038 17.1517L26.081 17.1934C26.4608 16.797 26.2044 17.6559 26.5776 17.2838C26.5322 17.329 26.5451 17.3812 26.5257 17.4264C26.6295 17.4125 26.7269 17.4264 26.8794 17.0682C26.9346 17.103 26.8794 17.2038 26.8275 17.3464C26.8957 17.1864 26.9736 17.1482 27.0222 17.1586L26.9768 17.2108L27.1293 17.2212L27.23 16.9083C27.2624 17.0265 27.0936 17.2803 27.191 17.2421L27.2948 16.9952C27.3695 17.0891 27.2689 17.4924 27.2851 17.7185C27.6324 18.0105 28.2977 17.562 28.4859 18.1636L28.4275 18.3583C28.3269 18.6365 28.6839 17.9932 28.5995 18.254L28.6904 18.1462C28.6839 18.2018 28.6904 18.2644 28.6417 18.3166C28.6774 18.3444 28.6936 18.2992 28.7553 18.2296L28.7326 18.4209C28.8365 18.6226 29.0928 18.3479 29.2291 18.4835C29.2941 18.9216 29.7809 18.7512 30.06 18.6504C30.5046 18.3548 30.4592 19.6066 30.933 19.2519C30.9298 19.2937 30.9849 19.2172 30.9979 19.1859L31.2641 19.3354C31.2641 19.3354 31.5951 19.4954 31.8937 19.3111C32.1955 19.1303 32.4519 18.6017 32.3383 17.2455L32.3643 17.1865C32.2637 16.9813 32.1825 16.9117 31.9748 17.176C32.0884 16.7935 31.8645 17.0891 31.871 16.9535L31.8839 16.9256C31.6924 17.1795 31.7801 16.6127 31.6016 16.8352C31.6146 16.8074 31.6535 16.7031 31.6762 16.7066C31.5951 16.7274 31.4783 16.7761 31.5529 16.5571C31.3809 16.5536 31.2056 16.3658 30.985 16.6753L31.0142 16.6162C30.8746 16.8283 30.9298 16.6231 30.8259 16.717C30.8324 16.6857 30.8324 16.6718 30.8389 16.6579C30.6961 16.863 30.6507 16.6196 30.5663 16.6996L30.615 16.5536L30.4819 16.5362L30.5144 16.5849C30.3553 16.9743 30.5144 16.2997 30.3326 16.5188C30.2709 16.4354 29.8653 17.2699 29.849 17.0404C29.7387 17.2073 29.9951 16.7553 29.8815 16.87C29.9561 16.6614 29.9594 16.7518 30.0048 16.5814C29.9107 16.6544 29.9853 16.3275 29.862 16.4388L29.9204 16.2754C29.716 16.5292 29.8198 15.9868 29.6543 16.2406C29.505 16.331 29.7711 15.7364 29.5504 16.0042L29.5959 15.7712C29.5667 15.7155 29.4628 16.0215 29.4563 15.8964C29.5115 15.7607 29.4369 15.7608 29.5147 15.6425C29.4888 15.3817 29.1772 15.8477 29.1772 15.4235C29.0409 15.6738 29.0344 15.4826 28.9306 15.6704C28.9728 15.5521 28.7943 15.5869 28.976 15.3748C28.9922 15.3574 29.002 15.3678 28.9825 15.4096L29.0539 15.2566C29.0928 14.9262 28.8429 15.3539 28.7813 15.2705C28.7813 15.333 28.8202 15.3331 28.7553 15.4304L28.6904 15.3748L28.7586 15.2496L28.6807 15.1209L28.6287 15.2913C28.6093 15.1835 28.7034 14.8984 28.5476 15.1001C28.4665 15.2148 28.5086 15.3435 28.4308 15.3678C28.4048 15.2218 28.3659 15.0062 28.2945 14.9158C28.2263 15.1036 28.2068 15.0827 28.1646 15.1105L28.2263 14.9506C28.0381 15.1244 28.3366 14.5854 28.1679 14.7141L28.2231 14.6063L28.0608 14.9227C27.8433 15.194 28.1517 14.5715 27.8758 14.954C27.9245 14.9471 27.746 15.3087 27.7297 15.2183L27.8076 15.0722C27.7687 15.0931 27.733 15.1522 27.7297 15.1105C27.7817 15.0375 27.8336 14.8949 27.7817 14.9019L27.8888 14.7245L27.6973 14.9679C27.7103 14.7802 27.535 14.9401 27.6064 14.7141C27.6064 14.7141 27.535 14.5507 27.4052 14.7697C27.4928 14.6376 27.4506 14.5472 27.5448 14.3872C27.4441 14.5368 27.2916 14.6237 27.3338 14.4324L27.35 14.4151C27.2949 14.1716 27.0125 14.5437 26.993 14.2655C26.9151 14.4498 26.8989 14.3177 26.808 14.5576C26.5808 14.721 26.7983 13.9734 26.4251 14.6585C26.3504 14.6654 26.4348 14.4568 26.4251 14.4046L26.4543 14.3733C26.3212 14.3733 26.2888 14.3664 26.2174 14.3073C26.146 14.3559 25.9837 14.6793 25.9512 14.5646C26.0356 14.4464 25.9967 14.4533 25.9707 14.4394C25.9967 14.4289 26.0259 14.3838 26.0324 14.276C26.0097 14.3142 25.9902 14.3351 25.9707 14.3524C25.974 14.342 25.9772 14.3351 25.9837 14.3212C25.9188 14.342 25.9058 14.3872 25.9188 14.4185C25.909 14.4394 25.8993 14.4637 25.8863 14.5054C25.922 14.3107 25.7565 14.4464 25.8571 14.2203C25.7013 14.1995 25.4969 14.3768 25.3443 14.4011C25.3898 14.2794 25.4644 14.1925 25.5196 14.1647H25.4222C25.5066 13.9978 25.5131 14.0917 25.552 14.0743C25.5942 13.7578 25.234 14.2308 25.2502 13.9247L25.1626 14.0395V14.0152C25.1334 14.0847 25.062 14.1612 25.0328 14.1751C25.0912 14.0256 25.2015 13.8483 25.1463 13.8274C25.1756 13.6674 24.9938 13.8274 24.8997 13.8726C24.9159 13.9143 24.8672 13.9873 24.8283 14.0291C24.7991 14.0186 24.8575 13.8656 24.8056 13.9143L24.9029 13.7231C24.8186 13.9108 24.7342 13.8761 24.6823 13.9491C24.7407 13.7996 24.7861 13.8517 24.8478 13.7509C24.7342 13.7057 24.7926 13.7265 24.679 13.6813C24.5459 13.7891 24.5946 13.8691 24.4778 14.0186C24.4096 14.0256 24.2895 14.1264 24.2928 13.9804L24.2214 14.1612C24.0559 14.2342 24.0105 14.1786 24.0429 13.97C23.3192 14.4324 23.0108 14.8636 22.8972 15.1905C22.7837 15.5173 22.8583 15.7329 22.8583 15.7329C22.9459 16.2893 23.3678 15.8964 23.78 15.9729L23.7897 15.9833Z" fill="#20BB65"/>
<path d="M40.163 20.0239V20.1104C40.1768 20.0758 40.1768 20.0412 40.163 20.0239Z" fill="#20BB65"/>
<path d="M46.2255 21.975C46.2255 21.975 46.2327 21.9679 46.2363 21.9607C46.2291 21.9643 46.2255 21.9715 46.2255 21.975Z" fill="#20BB65"/>
<path d="M40.3533 22.9378C40.3496 22.9453 40.3458 22.949 40.3384 22.9565L40.3533 22.9378Z" fill="#20BB65"/>
<path d="M39.1928 22.3258C39.4849 22.524 39.4687 22.9135 39.8419 22.8752C39.9912 22.9552 40.1827 22.9274 40.3514 22.9343C40.504 22.677 40.5559 22.997 40.7084 22.7883L40.6955 22.9587C40.7474 22.8892 40.7993 22.8439 40.8058 22.9413L40.7896 22.9865C40.8675 22.8787 40.8999 22.9691 40.9389 22.917L40.9226 22.9622H40.9843L40.9551 23.0213C41.0687 22.9204 41.1531 22.9378 41.205 23.0213L41.2537 22.8266C41.3445 23.0908 41.5133 22.7083 41.5782 23.0109L41.562 23.056C41.88 22.604 41.7372 23.4907 42.0521 23.0665C42.0131 23.1186 42.0326 23.1673 42.0196 23.216C42.117 23.1882 42.2143 23.1882 42.3214 22.8092C42.3799 22.8335 42.3377 22.9448 42.302 23.0943C42.3474 22.9274 42.4188 22.8752 42.4707 22.8822L42.4318 22.9378L42.5811 22.9239L42.6427 22.6005C42.6882 22.7153 42.5519 22.99 42.6427 22.9343L42.7174 22.6735C42.8018 22.757 42.7466 23.1708 42.7855 23.3934C43.149 23.6333 43.7624 23.1082 43.9993 23.6854L43.9604 23.8871C43.8857 24.1757 44.1811 23.4977 44.1194 23.7654L44.2005 23.6507C44.2005 23.7063 44.207 23.7689 44.1681 23.8245C44.2038 23.8489 44.22 23.8037 44.2719 23.7237L44.2655 23.915C44.3823 24.1027 44.6127 23.8036 44.7555 23.9288C44.8496 24.3565 45.3137 24.1444 45.5831 24.0192C46.005 23.6924 46.031 24.9407 46.4756 24.5548C46.4756 24.6 46.5275 24.5165 46.534 24.4818L46.8034 24.6139C46.8034 24.6139 48.1373 25.1702 47.7738 22.4684L47.7998 22.4093C47.6894 22.2076 47.6018 22.1415 47.4071 22.4197C47.4979 22.0302 47.2935 22.3397 47.2902 22.2041L47.3032 22.1728C47.1247 22.4371 47.1799 21.8633 47.0144 22.0998C47.0273 22.072 47.0598 21.9642 47.0825 21.9677C47.0014 21.9955 46.8878 22.0511 46.9462 21.8251C46.771 21.8321 46.5827 21.6582 46.3783 21.9816L46.4042 21.9225C46.2776 22.145 46.3198 21.9329 46.2192 22.0337C46.2225 22.0024 46.2225 21.9885 46.229 21.9746C46.0991 22.1902 46.0342 21.9538 45.9563 22.0372L45.9953 21.8877L45.8622 21.8808L45.9012 21.9294C45.7681 22.3328 45.8784 21.6443 45.7129 21.8773C45.6415 21.7973 45.3008 22.6666 45.2683 22.4406C45.1709 22.6179 45.3949 22.1415 45.2878 22.2702C45.3462 22.0581 45.3559 22.145 45.3884 21.9711C45.2975 22.0511 45.3494 21.7208 45.2326 21.839L45.278 21.6721C45.0931 21.9433 45.1547 21.3939 45.0054 21.6617C44.8659 21.766 45.0768 21.147 44.8789 21.4356L44.9016 21.1992C44.8659 21.147 44.7912 21.4635 44.7718 21.3383C44.8139 21.1992 44.7393 21.2061 44.8074 21.081C44.7555 20.8236 44.4861 21.3174 44.4407 20.8967C44.3304 21.1609 44.3012 20.9732 44.2168 21.1714C44.246 21.0497 44.0707 21.1018 44.2298 20.8723C44.2427 20.8549 44.2557 20.8619 44.2395 20.9071L44.2947 20.7472C44.2947 20.4133 44.0902 20.8654 44.0188 20.7889C44.0285 20.8515 44.0675 20.848 44.0123 20.9523L43.9409 20.9036L43.9961 20.7715L43.902 20.6533L43.8695 20.8271C43.837 20.7228 43.8987 20.4272 43.7656 20.6463C43.6975 20.7715 43.7559 20.8932 43.678 20.9245C43.6326 20.7854 43.5677 20.5733 43.4833 20.4898C43.4379 20.6846 43.4152 20.6672 43.3762 20.6985L43.4216 20.5316C43.2529 20.7263 43.4865 20.156 43.3308 20.3055L43.373 20.1942L43.2464 20.5316C43.0581 20.8306 43.2951 20.1699 43.0614 20.5872C43.1101 20.5733 42.977 20.9593 42.9478 20.8689L43.0062 20.7123C42.9673 20.7367 42.9413 20.7993 42.9316 20.761C42.9738 20.6811 43.0062 20.5315 42.9575 20.5454L43.0419 20.3542L42.8796 20.6219C42.8699 20.4307 42.7109 20.615 42.7531 20.382C42.7531 20.382 42.6557 20.229 42.5551 20.4655C42.6233 20.3194 42.5713 20.2394 42.6427 20.0656C42.5616 20.229 42.422 20.3368 42.435 20.1386L42.448 20.1212C42.3571 19.8848 42.1235 20.2986 42.0586 20.0273C42.0099 20.2221 41.9709 20.0934 41.919 20.3473C41.7145 20.5455 41.8151 19.7665 41.549 20.5107C41.4744 20.5315 41.5263 20.309 41.5068 20.2603L41.5328 20.2256C41.3997 20.2499 41.364 20.2464 41.2829 20.2012C41.218 20.2603 41.1109 20.6115 41.0589 20.5002C41.1239 20.3681 41.0849 20.3855 41.0589 20.3751C41.0849 20.3577 41.1044 20.309 41.0914 20.2012C41.0752 20.2429 41.0589 20.2673 41.0427 20.2881C41.0427 20.2777 41.046 20.2673 41.0524 20.2534C40.9908 20.2881 40.9875 20.3333 41.0038 20.3611C40.9973 20.382 40.9908 20.4098 40.9875 20.4516C40.9875 20.2533 40.8447 20.4168 40.9064 20.1769C40.7474 20.1873 40.5721 20.3994 40.4261 20.455C40.4488 20.3264 40.5072 20.2255 40.5559 20.1908L40.4585 20.2082C40.5104 20.0308 40.5364 20.1212 40.5721 20.0934C40.5527 19.7735 40.28 20.3125 40.2378 20.01L40.1729 20.1421V20.1177C40.1502 20.1908 40.095 20.2847 40.0723 20.3021C40.0983 20.1421 40.1762 19.9439 40.1145 19.9334C40.1113 19.77 39.962 19.9647 39.8776 20.0273C39.9036 20.0656 39.8679 20.1456 39.8386 20.1977C39.8094 20.1942 39.8354 20.0343 39.7932 20.0934L39.8516 19.8813C39.8062 20.083 39.7153 20.0691 39.6796 20.1525C39.7056 19.9926 39.764 20.0343 39.803 19.9196C39.6796 19.9022 39.7413 19.9091 39.618 19.8917C39.5109 20.0308 39.5725 20.0934 39.4914 20.2673C39.4232 20.2916 39.3291 20.4203 39.2999 20.2708L39.2674 20.462C39.1214 20.5733 39.0662 20.5315 39.05 20.3194C37.8427 21.5817 38.2971 22.3363 38.2971 22.3363C38.4853 22.8474 38.7968 22.3571 39.2025 22.3328L39.1928 22.3258Z" fill="#20BB65"/>
<path d="M55.66 25.3372V25.4237C55.6704 25.3891 55.6739 25.3579 55.66 25.3372Z" fill="#20BB65"/>
<path d="M61.6025 27.8552C61.6025 27.8552 61.6097 27.848 61.6169 27.8408C61.6097 27.8444 61.6061 27.848 61.6025 27.8552Z" fill="#20BB65"/>
<path d="M55.6879 28.2546C55.6879 28.2546 55.6804 28.2658 55.673 28.2733L55.6879 28.2546Z" fill="#20BB65"/>
<path d="M54.5728 27.58C54.852 27.7921 54.813 28.1816 55.183 28.1642C55.3258 28.2546 55.5173 28.2372 55.6828 28.2546C55.8515 28.0077 55.8808 28.3311 56.0463 28.1329L56.0236 28.3033C56.0787 28.2373 56.1339 28.1955 56.1339 28.2929L56.1144 28.3381C56.1988 28.2372 56.2215 28.3276 56.267 28.279L56.2475 28.3242H56.3059L56.2735 28.3868C56.3935 28.2929 56.4747 28.3172 56.5201 28.4007L56.5818 28.2094C56.6532 28.4807 56.8447 28.1121 56.8869 28.4146L56.8674 28.4598C57.2147 28.0321 57.0069 28.9084 57.351 28.5085C57.3088 28.5572 57.325 28.6093 57.3055 28.6545C57.4029 28.6337 57.497 28.6406 57.6366 28.272C57.6917 28.2998 57.6398 28.4076 57.5944 28.5537C57.6528 28.3902 57.7274 28.3451 57.7761 28.3555L57.7339 28.4076H57.8832L57.9708 28.0912C58.0065 28.2094 57.8508 28.4702 57.9416 28.425L58.0357 28.1712C58.1104 28.2616 58.026 28.6684 58.0455 28.891C58.3798 29.1622 59.0321 28.6997 59.2138 29.2978L59.1554 29.4925C59.0548 29.7707 59.4118 29.1274 59.3242 29.3882L59.4151 29.2804C59.4086 29.3361 59.4118 29.3986 59.3664 29.4508C59.3988 29.4786 59.4183 29.4334 59.4767 29.3639L59.4508 29.5517C59.5449 29.7499 59.8013 29.4787 59.9311 29.6177C59.9798 30.0524 60.4569 29.8924 60.736 29.802C61.1903 29.5273 61.067 30.7687 61.5473 30.4453C61.5408 30.487 61.6025 30.414 61.6155 30.3827L61.8621 30.5496C61.8621 30.5496 62.1705 30.7339 62.4788 30.5774C62.7871 30.421 63.1051 29.9307 63.0954 28.5641L63.1279 28.5085C63.0435 28.2894 62.9623 28.2129 62.7319 28.4598C62.8715 28.0877 62.6248 28.3624 62.6411 28.2268L62.6573 28.199C62.4463 28.4354 62.5697 27.8756 62.3749 28.0843C62.3912 28.0564 62.4333 27.9591 62.4561 27.9626C62.3717 27.9765 62.2516 28.0182 62.336 27.8026C62.1607 27.7852 61.9887 27.5835 61.7486 27.8791L61.781 27.8235C61.6317 28.0286 61.6934 27.8235 61.583 27.9104C61.5895 27.8791 61.5928 27.8652 61.5993 27.8513C61.4467 28.0495 61.4078 27.8026 61.3201 27.8791L61.3753 27.7365L61.2423 27.7122L61.2747 27.7643C61.0995 28.1468 61.2812 27.4757 61.093 27.6878C61.0313 27.6009 60.5997 28.425 60.5932 28.192C60.4796 28.3555 60.7489 27.9104 60.6321 28.0251C60.7132 27.82 60.71 27.9104 60.7619 27.74C60.6646 27.8095 60.749 27.4861 60.6191 27.5905L60.6808 27.4305C60.4698 27.6774 60.5802 27.1384 60.4082 27.3888C60.2556 27.4757 60.5283 26.8846 60.3011 27.1488L60.3465 26.9159C60.3141 26.8603 60.2102 27.1662 60.2037 27.0376C60.2589 26.902 60.1842 26.902 60.2621 26.7838C60.2329 26.5195 59.9181 26.9854 59.9084 26.5612C59.7753 26.8116 59.7623 26.6203 59.6617 26.8116C59.7007 26.6933 59.5189 26.7281 59.7007 26.5125C59.7169 26.4951 59.7266 26.5056 59.7072 26.5508L59.7786 26.3978C59.8078 26.064 59.5611 26.4951 59.4962 26.4117C59.5027 26.4742 59.5384 26.4743 59.4767 26.5751L59.4086 26.5195L59.4767 26.3943L59.3891 26.2656L59.3437 26.436C59.3177 26.3282 59.4053 26.0396 59.2528 26.2448C59.1749 26.363 59.2236 26.4882 59.1424 26.516C59.11 26.3699 59.0581 26.1543 58.9802 26.0639C58.9185 26.2517 58.8958 26.2343 58.8568 26.2622L58.9153 26.0987C58.7303 26.2795 59.0094 25.7301 58.8406 25.8623L58.8926 25.7544L58.74 26.0779C58.529 26.356 58.8146 25.7232 58.5518 26.1161C58.6037 26.1057 58.4382 26.4777 58.4155 26.3873L58.4869 26.2378C58.4479 26.2587 58.4155 26.3212 58.409 26.2795C58.4577 26.203 58.4998 26.057 58.4512 26.0674L58.5485 25.8831L58.3668 26.137C58.3668 25.9457 58.198 26.1161 58.2532 25.8866C58.2532 25.8866 58.1656 25.7267 58.0487 25.9527C58.1299 25.8136 58.0779 25.7267 58.1623 25.5597C58.0682 25.7162 57.9189 25.8136 57.9481 25.6154L57.9643 25.598C57.8864 25.3546 57.6268 25.7475 57.5781 25.4728C57.5165 25.6641 57.484 25.5319 57.4158 25.7788C57.1984 25.9596 57.3445 25.1912 57.0329 25.9144C56.9582 25.9283 57.0232 25.7128 57.0037 25.6606L57.0329 25.6258C56.8966 25.6397 56.8609 25.6327 56.783 25.5841C56.7148 25.6397 56.5883 25.9805 56.5396 25.8692C56.611 25.7406 56.572 25.7545 56.5428 25.744C56.5688 25.7301 56.5915 25.6815 56.5883 25.5737C56.5688 25.6154 56.5526 25.6363 56.5363 25.6571C56.5396 25.6467 56.5428 25.6362 56.5461 25.6223C56.4812 25.6536 56.4747 25.6988 56.4909 25.7266C56.4812 25.7475 56.4747 25.7753 56.4682 25.8171C56.4812 25.6189 56.3286 25.7753 56.4033 25.5354C56.241 25.5354 56.056 25.7371 55.9067 25.7823C55.9359 25.6571 56.0008 25.5598 56.0495 25.525L55.9489 25.5354C56.0106 25.3615 56.0333 25.4554 56.069 25.4276C56.069 25.1042 55.7639 25.6293 55.738 25.3233L55.6666 25.4519V25.4276C55.6438 25.5006 55.5822 25.591 55.5562 25.6084C55.5919 25.4485 55.6763 25.2572 55.6146 25.2433C55.6179 25.0764 55.4588 25.2642 55.3712 25.3233C55.3939 25.3615 55.355 25.4415 55.3225 25.4902C55.2933 25.4832 55.3258 25.3268 55.2804 25.3824L55.3485 25.1738C55.2933 25.372 55.2025 25.3546 55.1635 25.4346C55.1992 25.2746 55.2544 25.3198 55.2998 25.2085C55.1765 25.1807 55.2382 25.1946 55.1148 25.1703C55.0012 25.3024 55.0597 25.3685 54.9688 25.5389C54.9006 25.5597 54.8 25.6815 54.7773 25.5319L54.7351 25.7232C54.5858 25.824 54.5306 25.7823 54.5242 25.5702C53.2649 26.7698 53.6868 27.5487 53.6868 27.5487C53.8491 28.0669 54.1801 27.5939 54.5826 27.587L54.5728 27.58Z" fill="#20BB65"/>
<path d="M70.472 32.8794L70.4526 32.9625C70.472 32.9314 70.4817 32.9002 70.472 32.8794Z" fill="#20BB65"/>
<path d="M75.717 36.8929C75.717 36.8929 75.7275 36.8854 75.7345 36.8817C75.7275 36.8817 75.7205 36.8892 75.717 36.8929Z" fill="#20BB65"/>
<path d="M69.9057 35.7308C69.9057 35.7308 69.8953 35.7383 69.8883 35.7457L69.9057 35.7308Z" fill="#20BB65"/>
<path d="M68.9731 34.8301C69.2035 35.0979 69.0835 35.4664 69.4437 35.5325C69.5638 35.6507 69.7488 35.6786 69.9045 35.7342C70.1187 35.5325 70.0798 35.8524 70.2778 35.6994L70.2193 35.8594C70.2875 35.8072 70.3492 35.7794 70.3265 35.8733L70.3005 35.9115C70.4043 35.835 70.4076 35.9254 70.4595 35.8872L70.4336 35.9254L70.492 35.9393L70.4465 35.9915C70.5828 35.9254 70.6542 35.9706 70.6834 36.0645L70.7841 35.8941C70.7938 36.1723 71.0599 35.8629 71.034 36.1689L71.008 36.2071C71.4364 35.8768 71.0437 36.6765 71.4624 36.3705C71.4104 36.4088 71.4137 36.4609 71.3877 36.4992C71.4883 36.5027 71.576 36.534 71.7902 36.2106C71.8388 36.2523 71.7642 36.3427 71.6863 36.4714C71.7804 36.3288 71.8616 36.3045 71.907 36.3253L71.8518 36.367L71.9946 36.4053L72.1504 36.1237C72.1569 36.2454 71.9492 36.461 72.0465 36.4401L72.1926 36.2175C72.2445 36.3253 72.0693 36.6939 72.0368 36.9165C72.2965 37.2607 73.0299 36.986 73.0591 37.6119L72.9553 37.7858C72.7898 38.0257 73.2863 37.5041 73.1435 37.7302L73.2571 37.6502C73.2376 37.6989 73.2247 37.7614 73.1695 37.7997C73.1954 37.8345 73.2246 37.7997 73.2993 37.7441L73.2279 37.9179C73.2701 38.137 73.5817 37.9423 73.6725 38.1126C73.6109 38.5404 74.1042 38.523 74.393 38.516C74.8993 38.3839 74.4579 39.5383 74.9999 39.3645C74.9805 39.4027 75.0583 39.3506 75.0811 39.3227L75.2725 39.5557C75.2725 39.5557 75.516 39.82 75.8502 39.7678C76.1845 39.7122 76.6259 39.3436 76.9829 38.0292L77.0283 37.9875C77.0024 37.751 76.9472 37.6502 76.6584 37.8171C76.892 37.5007 76.5805 37.6919 76.6324 37.5667L76.6551 37.5458C76.3922 37.7093 76.6551 37.2051 76.4117 37.3477C76.4344 37.3268 76.5026 37.2433 76.522 37.2538C76.4377 37.2433 76.3111 37.2433 76.4474 37.0625C76.2819 36.993 76.165 36.7461 75.86 36.9582L75.9054 36.913C75.7074 37.066 75.821 36.8886 75.6912 36.9408C75.7074 36.9165 75.7107 36.8991 75.7204 36.8886C75.5224 37.0347 75.5452 36.7878 75.4413 36.8296L75.5289 36.7078L75.4056 36.6452L75.4251 36.7043C75.1622 37.0242 75.503 36.4296 75.266 36.5792C75.2271 36.4748 74.6072 37.1494 74.6559 36.9234C74.5066 37.0486 74.8734 36.6974 74.7338 36.7704C74.8604 36.5966 74.8376 36.6835 74.9285 36.5305C74.8149 36.5687 74.9772 36.2801 74.8247 36.3462L74.922 36.2071C74.6559 36.3844 74.8961 35.8976 74.6656 36.0889C74.4969 36.1306 74.9025 35.6368 74.6169 35.8281L74.7143 35.6125C74.6981 35.5499 74.5228 35.8177 74.5456 35.6925C74.6332 35.5777 74.5585 35.5534 74.6624 35.463C74.6948 35.1987 74.2794 35.5603 74.3703 35.1465C74.1821 35.3517 74.2113 35.1639 74.0717 35.3204C74.1399 35.2161 73.9549 35.1987 74.1788 35.0422C74.1983 35.0283 74.2048 35.0422 74.1788 35.0805L74.2827 34.9518C74.3898 34.6354 74.049 34.9866 74.0036 34.8892C73.9938 34.9518 74.0328 34.9622 73.9484 35.0422L73.8932 34.9692L73.9873 34.8649L73.9322 34.7188L73.8478 34.8718C73.8478 34.7606 73.9971 34.5033 73.8024 34.6597C73.6985 34.7536 73.718 34.8892 73.6336 34.8927C73.6336 34.7432 73.6336 34.5171 73.5784 34.4093C73.4778 34.5762 73.4583 34.5519 73.4129 34.5693L73.5038 34.4267C73.2831 34.5519 73.679 34.0929 73.4843 34.1764L73.5589 34.086L73.3383 34.3606C73.0721 34.5762 73.4875 34.0338 73.1435 34.3468C73.1954 34.3468 72.952 34.6701 72.952 34.5762L73.0526 34.4476C73.0105 34.458 72.965 34.5067 72.965 34.4685C73.0267 34.4059 73.1046 34.2772 73.0526 34.2737L73.189 34.1207L72.9553 34.3189C73.0007 34.1346 72.7962 34.2529 72.9001 34.0442C72.9001 34.0442 72.8482 33.8634 72.6859 34.0581C72.793 33.9434 72.7638 33.846 72.8839 33.7069C72.7573 33.8321 72.5918 33.8912 72.6599 33.7069L72.6794 33.693C72.6534 33.4357 72.3159 33.7521 72.3256 33.4705C72.225 33.6409 72.2218 33.5053 72.1017 33.7278C71.8518 33.8495 72.1536 33.1367 71.6993 33.7626C71.6214 33.7626 71.7317 33.5609 71.7252 33.5087L71.7609 33.4844C71.6246 33.4635 71.5922 33.4496 71.524 33.3801C71.4461 33.4183 71.2514 33.7208 71.2287 33.5991C71.3261 33.4913 71.2839 33.4948 71.2579 33.4774C71.2871 33.4705 71.3196 33.4287 71.3358 33.3209C71.3066 33.3557 71.2871 33.3731 71.2676 33.387C71.2741 33.3766 71.2774 33.3697 71.2839 33.3558C71.2157 33.3697 71.1995 33.4114 71.2092 33.4427C71.1962 33.4601 71.1832 33.4844 71.1703 33.5227C71.2222 33.3349 71.0405 33.4461 71.1638 33.234C71.0048 33.1923 70.7808 33.3488 70.625 33.3558C70.677 33.2375 70.7613 33.1575 70.8165 33.1367L70.7159 33.1262C70.81 32.9698 70.8133 33.0671 70.8555 33.0497C70.9171 32.7333 70.5179 33.1749 70.5504 32.8689L70.4563 32.9767L70.4628 32.9524C70.4238 33.0184 70.3459 33.0914 70.32 33.1019C70.3849 32.9558 70.5082 32.7854 70.4498 32.7576C70.4855 32.5977 70.2908 32.7437 70.1934 32.782C70.2096 32.8237 70.1544 32.8932 70.1155 32.935C70.0863 32.9211 70.1512 32.775 70.096 32.8202L70.2031 32.6325C70.1123 32.8133 70.0246 32.775 69.9695 32.8446C70.0344 32.695 70.0798 32.7542 70.1447 32.6533C70.0279 32.6012 70.0863 32.6255 69.9695 32.5734C69.8332 32.6777 69.8786 32.7576 69.7585 32.9037C69.6871 32.9037 69.5638 33.0045 69.5703 32.855L69.4924 33.0323C69.3268 33.0984 69.2814 33.0463 69.3139 32.8342C68.5836 33.2862 68.2915 33.7278 68.1747 34.0546C68.0611 34.3815 68.1228 34.5902 68.1228 34.5902C68.1812 35.1291 68.5901 34.7327 68.9828 34.8162L68.9731 34.8301Z" fill="#20BB65"/>
<path d="M82.4122 44.2884L82.3638 44.3507C82.3896 44.3265 82.4122 44.3057 82.4122 44.2884Z" fill="#20BB65"/>
<path d="M84.8661 48.013C84.8661 48.013 84.8765 48.013 84.8835 48.0056C84.8765 48.0056 84.8696 48.0056 84.8661 48.013Z" fill="#20BB65"/>
<path d="M80.7749 46.4825C80.7749 46.4825 80.7644 46.4862 80.7574 46.49L80.7783 46.4825H80.7749Z" fill="#20BB65"/>
<path d="M80.4459 45.6619C80.5043 45.9018 80.2609 46.18 80.5075 46.2704C80.5465 46.3782 80.6795 46.4199 80.7736 46.4791C81.0235 46.3434 80.858 46.5903 81.0755 46.4929L80.9651 46.6112C81.0398 46.5764 81.0982 46.5625 81.0398 46.6355L81.0041 46.6633C81.1177 46.6146 81.0787 46.6877 81.1371 46.6633L81.0982 46.6912L81.1371 46.7085L81.082 46.7433C81.2118 46.7086 81.2507 46.7503 81.2312 46.8268L81.3805 46.7051C81.2702 46.9241 81.6077 46.712 81.4584 46.9485L81.4195 46.9763C81.8901 46.7642 81.2507 47.3449 81.7018 47.1536C81.6467 47.178 81.6272 47.2197 81.5883 47.2475C81.6629 47.2614 81.7213 47.2962 82.0231 47.0667C82.0426 47.105 81.9485 47.1676 81.8349 47.258C81.968 47.1571 82.0426 47.1467 82.0686 47.1676L82.0102 47.1919L82.1075 47.2371L82.3477 47.0354C82.3023 47.1328 82.0491 47.2753 82.1367 47.2684L82.3445 47.1119C82.3445 47.2023 82.0491 47.4701 81.929 47.6405C81.9874 47.936 82.682 47.8004 82.4483 48.2872L82.2958 48.4089C82.0653 48.5758 82.6755 48.2247 82.4678 48.3881L82.5911 48.3394C82.5554 48.3742 82.5197 48.4228 82.458 48.4472C82.4645 48.4785 82.5035 48.4507 82.5814 48.4194L82.4515 48.5445C82.3964 48.7149 82.7242 48.6002 82.7274 48.7393C82.5002 49.0627 82.9059 49.0974 83.1428 49.1183C83.6037 49.0661 82.7826 49.9007 83.2921 49.8242C83.2629 49.852 83.3473 49.8172 83.3733 49.7998L83.4349 49.9946C83.4349 49.9946 83.5291 50.2171 83.8244 50.2067C84.1197 50.1928 84.6293 49.9598 85.4406 49.0001L85.4958 48.9722C85.5672 48.7914 85.5607 48.7115 85.2589 48.8088C85.5737 48.5932 85.2459 48.7045 85.3368 48.6176L85.3627 48.6037C85.0836 48.701 85.4958 48.3464 85.2427 48.4298C85.2686 48.4159 85.3562 48.3602 85.3692 48.3707C85.3043 48.3533 85.2005 48.3429 85.3855 48.2177C85.2784 48.1482 85.2816 47.9499 84.9506 48.0786L85.0057 48.0473C84.785 48.1447 84.9473 48.0195 84.824 48.0473C84.8467 48.0299 84.8564 48.016 84.8694 48.0125C84.6487 48.1029 84.7721 47.9152 84.6682 47.9395L84.7883 47.8561L84.7136 47.7969L84.7039 47.8456C84.3631 48.0647 84.8792 47.6439 84.626 47.7344C84.6357 47.6509 83.8633 48.1029 83.9964 47.936C83.8244 48.016 84.2658 47.783 84.1197 47.8282C84.2917 47.7065 84.2398 47.7726 84.3729 47.6648C84.2658 47.6822 84.5124 47.477 84.3664 47.5118L84.4994 47.4144C84.2138 47.5222 84.6065 47.171 84.3437 47.2962C84.1944 47.3101 84.7169 46.9728 84.4118 47.0911L84.5773 46.938C84.5903 46.8894 84.3404 47.0737 84.4086 46.9798C84.5254 46.8998 84.4767 46.8755 84.5968 46.8163C84.7331 46.6147 84.2528 46.8511 84.4962 46.5381C84.2625 46.6772 84.3631 46.5347 84.1879 46.639C84.282 46.566 84.1424 46.5312 84.3858 46.4339C84.4053 46.4269 84.4086 46.4338 84.3696 46.4617L84.5059 46.3747C84.7201 46.1417 84.308 46.3747 84.3112 46.2948C84.2788 46.3434 84.3015 46.3539 84.2041 46.406L84.1911 46.3434L84.308 46.2739L84.3242 46.1522L84.1944 46.2635C84.243 46.1765 84.467 45.9922 84.2463 46.093C84.1262 46.1556 84.084 46.2635 84.0159 46.2565C84.0775 46.1418 84.1716 45.9644 84.1716 45.874C84.0223 45.9922 84.0159 45.9714 83.9737 45.9783L84.1067 45.8775C83.8796 45.9505 84.3826 45.6375 84.1944 45.6793L84.2917 45.6167L84.0029 45.8079C83.7011 45.947 84.256 45.5715 83.8568 45.7732C83.8958 45.7801 83.5745 46.0061 83.6102 45.9296L83.7433 45.8427C83.7043 45.8427 83.6491 45.8809 83.6653 45.8497C83.74 45.8079 83.8536 45.714 83.8146 45.7071L83.9867 45.6028L83.7205 45.7314C83.8309 45.5923 83.6232 45.6619 83.7919 45.5089C83.7919 45.5089 83.8276 45.3628 83.6199 45.495C83.753 45.4185 83.7692 45.3385 83.9217 45.2411C83.7692 45.3246 83.6167 45.3524 83.7465 45.2133L83.766 45.2064C83.8536 45.0012 83.4576 45.2098 83.5842 44.9908C83.4349 45.1125 83.4901 45.0047 83.3019 45.1681C83.0552 45.2342 83.5907 44.7056 82.9741 45.1472C82.9156 45.1368 83.0844 44.9908 83.1006 44.949L83.1396 44.9316C83.0422 44.9004 83.0227 44.883 83 44.8204C82.9254 44.8413 82.6463 45.0569 82.6787 44.9595C82.7988 44.8865 82.7664 44.883 82.7534 44.8656C82.7793 44.8656 82.8215 44.8343 82.8799 44.7508C82.8442 44.7752 82.8183 44.7856 82.7988 44.796C82.8085 44.7891 82.815 44.7821 82.8248 44.7752C82.7664 44.7752 82.7339 44.8099 82.7307 44.8343C82.7144 44.8482 82.6917 44.8656 82.6658 44.8934C82.7858 44.7508 82.5976 44.8169 82.7826 44.6639C82.6787 44.6117 82.4418 44.7091 82.3185 44.6952C82.4094 44.6083 82.5067 44.5561 82.5587 44.5457L82.4872 44.5248C82.6268 44.4101 82.5879 44.4901 82.6268 44.4831C82.8053 44.2397 82.3152 44.5422 82.4678 44.3023L82.3477 44.3788L82.3639 44.3579C82.3055 44.4066 82.2179 44.4553 82.1919 44.4587C82.3055 44.3509 82.4678 44.2292 82.4353 44.2014C82.5294 44.0762 82.3217 44.1701 82.2309 44.1875C82.2244 44.2223 82.153 44.2745 82.1075 44.2988C82.0913 44.2849 82.2017 44.1736 82.14 44.2049L82.299 44.0693C82.153 44.2049 82.101 44.1632 82.0329 44.2119C82.1432 44.1006 82.1562 44.1528 82.2471 44.0797C82.1822 44.0241 82.2146 44.0519 82.1465 43.9928C81.9972 44.0589 82.0004 44.1284 81.8446 44.2292C81.7895 44.2223 81.6532 44.2884 81.7246 44.1667L81.5915 44.2988C81.4357 44.3336 81.426 44.2814 81.5396 44.118C80.7964 44.3892 80.3874 44.7126 80.1635 44.9595C79.9396 45.2064 79.8974 45.3837 79.8974 45.3837C79.7124 45.8218 80.1862 45.5541 80.4491 45.6653L80.4459 45.6619Z" fill="#20BB65"/>
</svg>
