<svg width="163" height="134" viewBox="0 0 163 134" fill="none" xmlns="http://www.w3.org/2000/svg">
<path d="M90.0746 111.159C90.0159 112.093 90.1161 113.053 90.0746 113.987L99.6411 114.159C100.16 113.987 99.8243 112.093 99.7725 111.564C103.125 111.654 106.526 111.602 109.871 111.764C110.773 111.809 112.346 112.169 113.203 112.169H116.234C117.074 112.169 118.615 112.303 119.566 112.369C120.433 112.428 121.39 112.504 122.289 112.573C126.906 112.922 131.544 113.416 136.127 113.983C135.768 115.587 135.564 117.246 135.118 118.829L141.553 119.406C141.826 119.236 141.968 115.556 141.982 114.92C142.03 114.733 142.255 114.806 142.39 114.792C143.589 114.66 147.619 115.604 149.06 115.898C152.094 116.513 161.156 118.383 162.67 121.068C163.399 122.357 162.822 123.028 161.882 123.885C157.628 127.77 141.246 129.85 135.215 130.545C110.269 133.41 83.75 133.469 58.6724 132.56C43.2271 132 24.5572 131.181 9.68211 127.217C3.36434 125.533 -4.44301 121.942 6.35041 118.02C11.7558 116.057 17.7729 115.366 23.4201 114.387C23.4201 114.415 23.6413 114.602 23.631 114.878C23.6033 115.766 23.2266 116.838 23.4201 117.823L31.9049 117.014C32.0016 115.787 31.8081 114.588 31.701 113.378C34.9981 113.136 38.2918 112.701 41.5993 112.57C42.0036 112.552 42.5359 112.57 42.9126 112.57H48.1624C49.4101 112.57 50.8962 112.155 52.1024 111.965C53.9237 111.678 56.0734 111.643 57.9605 111.56C62.9615 111.343 68.1249 111.229 73.1086 111.156C78.7593 111.073 84.4239 111.218 90.0746 111.156V111.159Z" fill="#A0D92A"/>
<path d="M78.9672 20.4711C72.0895 21.145 66.3351 27.0066 65.8305 33.8946C65.4884 38.5604 68.1427 42.6627 65.948 47.1419C65.2914 48.4828 64.0161 49.765 63.2523 51.1129C61.4033 54.372 61.0196 57.5586 61.1924 61.2739C61.2028 61.4743 61.1786 61.6782 61.1924 61.8787C56.9345 62.7289 53.4473 61.5676 50.2815 58.7509C48.9854 57.5966 48.0005 56.1416 46.7563 55.0045C40.8912 49.651 32.6795 49.2052 25.8468 52.9896C27.6371 47.3596 30.4331 45.3654 34.0309 41.2769C38.3165 36.4037 36.2324 29.4466 37.9674 23.4986C39.4673 18.3559 42.1907 16.341 45.2356 12.4875C49.376 7.24454 53.0395 0.753998 60.6947 0.0731445C73.0987 -1.03281 76.8244 10.6177 78.9706 20.4711H78.9672Z" fill="#A0D92A"/>
<path d="M141.377 39.4555C131.873 42.5591 130.242 49.3814 127.442 58.039C123.658 58.0113 119.542 57.1404 116.808 54.3306C114.555 52.015 114.548 49.8031 113.511 47.0244C111.022 40.3506 104.636 36.4314 97.5505 37.2332C97.5229 37.1744 97.3846 37.1122 97.3501 37.0327C97.3155 36.9532 97.1738 36.891 97.1496 36.8323C95.9158 34.0743 94.9619 31.2265 93.5138 28.5514C93.8559 28.3406 93.8905 28.0054 93.9216 27.6459C94.2499 24.1069 93.5864 21.7775 94.9239 18.1451C101.394 0.546591 134.462 3.15595 137.489 22.244C138.288 27.2692 136.539 31.2887 139.259 36.2309C139.884 37.368 140.873 38.2493 141.384 39.4589L141.377 39.4555Z" fill="#A0D92A"/>
<path d="M93.5109 28.548C94.959 31.2265 95.9129 34.0709 97.1467 36.8289L97.3472 37.0293C97.3852 37.1123 97.5234 37.171 97.5476 37.2298C98.505 39.3726 99.1789 41.6432 100.299 43.8724C102.331 47.9126 105.182 51.5623 107.042 55.6128C102.88 60.8315 98.1351 66.1263 90.981 66.7173C79.3754 67.6781 78.3869 57.0195 68.1638 58.0356C65.5026 58.3017 63.4151 60.0021 61.1928 61.267C61.02 57.5517 61.4002 54.3652 63.2527 51.106C64.0165 49.7616 65.2918 48.476 65.9484 47.135C68.143 42.6559 65.4887 38.5535 65.8309 33.8877C66.3355 26.9997 72.0899 21.1382 78.9676 20.4642C85.5445 19.8179 90.4833 22.9423 93.5109 28.5446V28.548Z" fill="#28BD3B"/>
<path d="M141.782 39.4555L141.982 39.6559C150.09 39.49 155.026 45.4587 155.523 53.2799C155.665 55.4814 155.316 57.3754 155.859 59.6115C156.633 62.798 158.952 64.1217 160.397 66.7898C162.937 71.4728 163.006 76.6397 161.776 81.6684C160.825 81.6476 159.961 81.1811 159.024 81.0877C152.627 80.4449 151.431 86.2858 146.479 88.2868C143.344 89.5518 140.178 89.3617 137.203 87.765C132.927 85.4701 129.302 78.1017 123.554 80.3101C122.504 80.7145 121.775 81.6373 120.776 82.0762C120.734 81.5647 120.537 81.1638 120.575 80.4587C120.703 77.9151 121.75 74.9773 122.594 72.5823C124.308 67.7195 125.863 62.9155 127.443 58.039C130.242 49.3814 131.873 42.5591 141.378 39.4555C141.461 39.4278 141.661 39.452 141.782 39.4555Z" fill="#28BD3B"/>
<path d="M37.9641 23.4987C36.2291 29.4432 38.3131 36.4003 34.0276 41.2769C30.4332 45.3655 27.6338 47.3597 25.8435 52.9897C24.112 58.4296 24.074 65.131 26.4483 70.3601C16.671 76.1352 5.81535 69.966 0.192261 61.4744C1.0079 55.1151 3.26475 53.9954 6.62063 49.4229C10.018 44.7952 8.7807 41.8402 9.50993 36.7597C11.4315 23.4019 26.8078 20.0391 37.9606 23.5021L37.9641 23.4987Z" fill="#28BD3B"/>
<path d="M26.4515 70.36C27.4987 72.6687 31.5009 76.0522 33.7888 77.2619C34.5975 77.6904 37.2795 78.5441 37.5594 79.0452C37.6043 79.1282 37.5456 79.4185 37.6735 79.6293C38.9211 81.6857 40.6976 83.3688 41.8001 85.5081C41.0846 85.4839 39.4914 86.2408 38.5755 86.424C36.0906 86.9217 33.0319 86.7731 30.6921 85.7086C28.7152 84.81 27.8097 83.4483 25.2384 83.2858C22.788 83.1303 20.1026 84.5162 17.5624 84.295C16.6845 84.219 14.832 83.8803 13.9265 83.6902C3.75175 81.5371 -1.04878 71.1445 0.191966 61.4709C5.81505 69.966 16.6707 76.1352 26.448 70.3566L26.4515 70.36Z" fill="#027D40"/>
<path d="M161.778 81.6718C160.009 88.9089 152.568 98.1367 144.207 95.4064C142.821 94.9536 142.296 94.2693 140.572 93.9928C138.367 93.6403 137.15 94.6391 135.118 94.8016C134.237 94.8741 133.172 94.729 132.291 94.6011C127.321 93.8753 123.011 90.2671 121.383 85.5115C120.91 84.1256 120.889 83.4966 120.778 82.0762C121.777 81.6372 122.506 80.7145 123.557 80.3101C129.305 78.1016 132.93 85.4701 137.205 87.7649C140.181 89.3617 143.347 89.5517 146.482 88.2868C151.434 86.2892 152.633 80.4449 159.027 81.0877C159.964 81.181 160.828 81.6476 161.778 81.6684V81.6718Z" fill="#027D40"/>
<path d="M30.6925 85.7086C30.3572 85.9194 30.492 86.4758 30.4886 86.818C30.4436 90.319 30.4989 93.8304 30.4989 97.3315C30.4989 102.682 31.2282 108.045 31.7016 113.382C31.8088 114.591 32.0023 115.794 31.9056 117.017L23.4208 117.826C23.2273 116.841 23.604 115.766 23.6316 114.882C23.642 114.605 23.4174 114.418 23.4208 114.391C23.5141 112.348 24.0187 110.292 23.8148 108.222L24.3989 99.1805L15.0432 90.3501L13.9269 83.6902C14.8324 83.8803 16.6849 84.219 17.5627 84.295C17.7217 85.7466 17.8668 87.2707 18.3611 88.6463C20.1652 89.9872 21.8448 91.5183 23.642 92.8593C23.8321 93.001 24.6927 93.7475 24.8309 93.585L25.2353 83.2858C27.8066 83.4483 28.7121 84.81 30.689 85.7086H30.6925Z" fill="#BE6632"/>
<path d="M144.204 95.4064L142.183 113.489L142.387 114.795C142.252 114.809 142.027 114.736 141.979 114.923C141.965 115.559 141.823 119.24 141.55 119.409L135.115 118.832C135.564 117.246 135.768 115.587 136.124 113.986C136.791 111 137.731 108.059 138.146 105.007L132.848 98.3717L132.284 94.5942C133.166 94.7221 134.23 94.8672 135.111 94.7946C135.219 95.434 135.184 96.692 135.416 97.2174C135.678 97.8049 137.572 99.5295 138.136 100.152C138.571 100.635 138.602 101.434 139.352 101.261L140.565 93.9894C142.29 94.2659 142.815 94.9502 144.201 95.4029L144.204 95.4064Z" fill="#BE6632"/>
<path d="M141.986 39.6593L141.785 39.4589C141.937 39.4623 141.972 39.6628 141.986 39.6593Z" fill="#A0D92A"/>
<path d="M65.029 77.2273L66.0416 99.2427C66.8331 98.5653 68.8099 97.7359 69.1417 96.7889C69.6705 91.2418 71.5126 85.2282 71.9032 79.7399C71.9308 79.3528 71.9101 78.9761 71.6958 78.6409C71.955 78.6996 72.2453 78.7756 72.5045 78.8413C73.683 79.1454 74.63 79.7226 75.736 80.0544L75.1312 86.5173L82.5445 82.0175L83.0076 80.2549C84.3763 79.8782 85.4753 78.9554 86.8439 78.6374C86.3532 80.0095 86.1665 82.9506 85.2299 83.9909L75.0586 91.19L74.6128 91.7533L73.5172 103.787L73.1128 111.159C68.1291 111.232 62.9657 111.343 57.9647 111.564C58.2308 103.915 58.6421 96.2981 58.7665 88.6428L55.5558 84.2225C55.1549 83.7248 55.1272 84.3987 54.9371 84.5923C54.1872 85.3733 51.0179 88.7016 50.9004 89.4585C50.7829 90.2154 51.087 90.7752 51.1008 91.4561C51.2322 98.1402 51.1458 104.797 51.481 111.474L52.1031 111.965C50.8969 112.155 49.4143 112.569 48.1632 112.569H42.9133C42.5366 112.569 42.0044 112.552 41.6 112.569L44.7485 88.826C44.1472 88.273 42.4053 85.5254 41.8005 85.5047C40.698 83.3653 38.9215 81.6822 37.6739 79.6258C37.546 79.415 37.6047 79.1247 37.5598 79.0418C37.7568 78.6581 38.2407 78.9104 38.5344 78.9726C39.7959 79.2353 41.1231 79.5602 42.4053 79.6466C42.8027 80.2998 44.8038 83.0128 45.3326 83.0854C45.7508 83.1442 45.7854 82.4288 45.8165 82.1488C45.9132 81.3228 45.7992 80.4726 45.8407 79.6466C47.2231 79.5222 49.3106 79.0003 50.6896 78.6374L50.9902 83.0785C51.4603 82.7502 52.9464 81.5751 53.0777 81.1154C53.3162 80.2963 52.4591 79.059 52.3036 78.233C54.1319 77.6904 55.7355 76.7953 57.7573 76.4151C57.8886 77.1996 56.6963 78.5787 56.7412 79.1282C56.7654 79.4392 58.8736 82.2663 59.0706 82.2698C59.2884 82.2698 59.361 81.7825 59.3851 81.5751C59.5683 79.9092 59.2296 77.9185 59.3748 76.2112C62.1535 76.0902 62.6754 76.5776 65.029 77.2204V77.2273ZM66.446 111.159C66.8331 111.09 66.7812 110.738 66.8572 110.461C67.4206 108.415 67.5208 105.802 67.9597 103.691C67.6556 104.029 66.6188 104.728 66.4287 104.983C65.7444 105.91 66.681 109.846 66.446 111.159Z" fill="#BE6632"/>
<path d="M117.344 70.9648L117.952 82.681C118.913 82.1004 119.494 80.8251 120.576 80.4587C120.541 81.1603 120.738 81.5612 120.776 82.0762C120.89 83.4932 120.907 84.1222 121.381 85.5116L118.543 88.2281C117.994 89.1819 118.505 91.7533 118.554 92.8869C118.827 99.3878 119.186 105.882 119.566 112.376C118.616 112.31 117.071 112.175 116.235 112.175H113.204C112.343 112.175 110.774 111.816 109.872 111.771C110.339 109.141 110.283 106.452 110.48 103.794C111.02 96.578 111.687 89.417 111.901 82.1868C112.011 78.4438 111.866 74.7009 112.094 70.9683C114.026 70.4464 114.614 70.1215 116.802 70.6123C117.113 70.6814 117.296 70.9579 117.344 70.9683V70.9648Z" fill="#BE6632"/>
<path d="M97.952 76.2181L96.732 86.2063C97.7446 94.6496 98.899 103.11 99.7699 111.567C99.8252 112.096 100.157 113.99 99.6386 114.163L90.0721 113.99C90.1135 113.053 90.0168 112.096 90.0721 111.163C90.0721 111.132 90.2656 110.935 90.2829 110.676C90.8531 101.593 91.2506 92.5275 91.852 83.431C91.7759 82.9368 88.7588 79.3252 88.1816 78.6132C87.9673 78.3471 87.9016 78.005 87.4454 78.0361C88.5376 77.1409 89.6262 76.6847 91.0812 76.6225C91.2506 76.9474 92.1596 78.5268 92.2978 78.6409C92.8923 79.1386 92.6192 77.1651 92.8992 76.823C94.0604 76.8264 96.8841 76.5361 97.9486 76.2181H97.952Z" fill="#BE6632"/>
<path d="M61.193 61.8752C61.6803 68.6492 66.1663 74.967 71.9691 78.2745C72.2422 78.43 72.6154 78.3401 72.5014 78.8413C72.2422 78.7756 71.9519 78.6961 71.6927 78.6408C69.4738 78.1431 67.2446 77.8321 65.0258 77.2273C62.6688 76.5845 62.1469 76.0937 59.3716 76.2181C58.7288 76.2457 58.3694 76.3045 57.7542 76.4185C55.7323 76.7987 54.1287 77.6938 52.3004 78.2364C51.8477 78.3712 51.1979 78.506 50.683 78.6408C49.304 79.0072 47.2165 79.5256 45.8341 79.65C44.8629 79.7364 43.3837 79.7157 42.3987 79.65C41.113 79.5636 39.7859 79.2387 38.5278 78.9761C38.2341 78.9139 37.7468 78.6616 37.5532 79.0452C37.2733 78.5441 34.5913 77.6904 33.7826 77.2618C31.4947 76.0522 27.4925 72.6687 26.4453 70.36C24.071 65.1309 24.109 58.4295 25.8405 52.9896C32.6732 49.2052 40.8884 49.651 46.7499 55.0045C47.9941 56.1416 48.9791 57.5966 50.2752 58.7509C53.441 61.5676 56.9282 62.7289 61.1861 61.8787L61.193 61.8752Z" fill="#62B529"/>
<path d="M107.041 55.6163C108.838 59.532 108.911 64.0423 107.076 68.0721L104.214 72.3784C103.385 72.4717 102.254 73.7574 101.411 74.3242C100.703 74.8011 98.6083 76.0211 97.9516 76.2181C96.8837 76.5361 94.0635 76.8299 92.9022 76.8229C92.453 76.8229 91.7928 76.5914 91.0843 76.6225C89.6293 76.6847 88.5407 77.1409 87.4485 78.036C87.1859 78.2503 87.1202 77.8632 86.8437 78.6409C85.4716 78.9588 84.3726 79.8816 83.0074 80.2583C80.6089 80.9184 78.1101 80.7629 75.7358 80.0579C74.6298 79.7295 73.6828 79.1489 72.5043 78.8448C72.6149 78.3436 72.2416 78.4335 71.9721 78.278C66.1693 74.9705 61.6832 68.6527 61.1959 61.8787C61.1821 61.6783 61.2063 61.4744 61.1959 61.2739C63.4147 60.009 65.5057 58.3086 68.1669 58.0425C78.39 57.0229 79.3785 67.685 90.9841 66.7242C98.1417 66.1332 102.884 60.8385 107.045 55.6197L107.041 55.6163Z" fill="#027D40"/>
<path d="M97.5472 37.2333C104.636 36.4314 111.019 40.3507 113.508 47.0244C114.544 49.8031 114.551 52.0151 116.805 54.3307C119.538 57.1405 123.655 58.0114 127.439 58.039C125.86 62.9156 124.308 67.7161 122.59 72.5823C120.897 71.8773 119.089 71.4177 117.34 70.9649C117.292 70.9511 117.109 70.678 116.798 70.6089C114.607 70.1216 114.019 70.443 112.091 70.9649C111.976 70.996 111.804 70.9338 111.686 70.9649L111.486 71.1653C108.807 71.8704 106.927 72.0743 104.214 72.3784L107.076 68.0721C108.907 64.0423 108.838 59.5286 107.041 55.6163C105.182 51.5692 102.331 47.9161 100.298 43.8759C99.1785 41.6467 98.5046 39.376 97.5472 37.2333Z" fill="#62B529"/>
<path d="M97.3468 37.0328L97.1464 36.8323C97.174 36.8945 97.3122 36.9533 97.3468 37.0328Z" fill="#62B529"/>
<path d="M45.8398 79.65C45.7983 80.476 45.9124 81.3262 45.8156 82.1522C45.7845 82.4287 45.7499 83.1476 45.3317 83.0888C44.8029 83.0163 42.8019 80.3032 42.4044 79.65C43.3894 79.7157 44.8686 79.7364 45.8398 79.65Z" fill="#027D40"/>
<path d="M111.485 71.1686L111.686 70.9682C111.627 70.9855 111.548 71.1548 111.485 71.1686Z" fill="#BE6632"/>
</svg>
