<svg width="90" height="38" viewBox="0 0 90 38" fill="none" xmlns="http://www.w3.org/2000/svg">
<path d="M15.8571 0.715454L15.7993 0.770483C15.8314 0.756728 15.8539 0.736085 15.8571 0.715454Z" fill="#ACDE45"/>
<path d="M18.9779 5.99708C18.9779 5.99708 18.9873 5.99372 18.9936 5.99036C18.9873 5.99036 18.981 5.99036 18.9779 5.99708Z" fill="#ACDE45"/>
<path d="M13.6372 1.36794C13.6861 1.74227 13.4158 1.97923 13.6893 2.27113C13.7382 2.44971 13.8912 2.5905 14.0019 2.73474C14.2755 2.68666 14.1029 2.9442 14.3471 2.92703L14.2266 3.03351C14.3113 3.02664 14.3732 3.03693 14.3146 3.10905L14.2755 3.12967C14.3992 3.11937 14.3634 3.20521 14.4253 3.19834L14.3862 3.21897L14.4318 3.26361L14.3699 3.28419C14.5165 3.3048 14.5621 3.38381 14.5523 3.47997L14.7119 3.3838C14.6109 3.63793 14.9724 3.50055 14.8291 3.76155L14.79 3.78217C15.3013 3.70319 14.6467 4.22861 15.145 4.16336C15.0831 4.17366 15.0668 4.22174 15.0277 4.24578C15.1189 4.29729 15.1906 4.36938 15.4999 4.17707C15.5292 4.23888 15.4283 4.28698 15.3143 4.3694C15.4511 4.28355 15.5357 4.2973 15.5683 4.33851L15.5032 4.35222L15.6237 4.45182L15.8646 4.26292C15.8321 4.37625 15.565 4.48274 15.6627 4.50678L15.8744 4.3694C15.8874 4.4896 15.6009 4.75401 15.4999 4.94976C15.6432 5.3962 16.4183 5.4168 16.2913 6.01778L16.1512 6.14828C15.9363 6.32342 16.542 5.99375 16.3466 6.16203L16.4736 6.12426C16.4411 6.16547 16.415 6.2204 16.3531 6.24101C16.3694 6.28222 16.4052 6.25821 16.4899 6.23074L16.3824 6.37494C16.3792 6.6016 16.7244 6.51573 16.7797 6.70461C16.6397 7.10297 17.1379 7.2335 17.4278 7.29188C17.9358 7.27128 17.3691 8.31868 17.9423 8.25686C17.9195 8.2912 18.0042 8.25344 18.027 8.2294L18.2028 8.4904C18.2028 8.4904 18.4373 8.79259 18.7792 8.77199C19.1244 8.75825 19.5445 8.4011 19.9971 7.1854L20.0427 7.14763C20.0427 6.92785 20.0004 6.83512 19.7138 6.96905C19.9711 6.69432 19.6585 6.84544 19.7203 6.73555L19.7431 6.71836C19.4728 6.84543 19.7887 6.40586 19.5445 6.51576C19.5673 6.49859 19.6454 6.42991 19.6617 6.44022C19.5868 6.42304 19.4663 6.4093 19.6226 6.25819C19.4826 6.17577 19.4142 5.94226 19.0951 6.09336L19.1439 6.05903C18.9323 6.16892 19.0723 6.02468 18.942 6.05215C18.9616 6.03155 18.9681 6.01781 18.9779 6.01094C18.7629 6.11397 18.8346 5.89074 18.7304 5.91478L18.8378 5.81861L18.7336 5.73963L18.7401 5.79803C18.4275 6.04185 18.8736 5.56106 18.6196 5.65378C18.6066 5.55419 17.8804 6.04186 17.9749 5.84267C17.8055 5.92509 18.2321 5.68123 18.0823 5.71901C18.2419 5.58507 18.1996 5.66066 18.3201 5.5439C18.2061 5.55421 18.421 5.32753 18.2679 5.35501L18.3917 5.25197C18.1051 5.35156 18.4503 4.96693 18.1898 5.08369C18.0237 5.08026 18.5285 4.73342 18.2158 4.83988L18.3656 4.67161C18.3656 4.61323 18.1344 4.80897 18.1898 4.70251C18.3005 4.62352 18.2419 4.58231 18.3624 4.52736C18.4699 4.30414 17.9911 4.51705 18.1996 4.17707C17.9651 4.30757 18.053 4.14962 17.8772 4.24922C17.9684 4.1771 17.812 4.10842 18.0628 4.0363C18.0823 4.02943 18.0856 4.04316 18.0498 4.07063L18.1833 3.98822C18.3819 3.74439 17.9684 3.95387 17.9586 3.85428C17.9293 3.90579 17.9586 3.92638 17.8576 3.97103L17.8316 3.89205L17.9488 3.83022V3.68601L17.8251 3.79244C17.8641 3.69629 18.0856 3.52117 17.8576 3.60015C17.7339 3.64823 17.7046 3.77184 17.6297 3.7478C17.6818 3.6173 17.7632 3.42498 17.7567 3.31509C17.6069 3.42498 17.6004 3.39755 17.5548 3.39411L17.6883 3.30482C17.4473 3.33916 17.9651 3.07816 17.7632 3.08847L17.8609 3.03694L17.5645 3.1949C17.2487 3.28763 17.8185 2.97512 17.4017 3.11592C17.4441 3.13653 17.1119 3.32197 17.1477 3.23955L17.2845 3.16744C17.2422 3.16058 17.1835 3.18804 17.2031 3.15369C17.2812 3.12279 17.3985 3.04036 17.3561 3.01976L17.532 2.94078L17.2519 3.02319C17.3626 2.88239 17.1412 2.90987 17.3138 2.77251C17.3138 2.77251 17.3431 2.60425 17.1249 2.70384C17.265 2.64889 17.278 2.5596 17.4375 2.48749C17.278 2.54587 17.1151 2.5287 17.2519 2.40163H17.2715C17.3626 2.17841 16.9393 2.30202 17.0728 2.0788C16.9132 2.17496 16.9686 2.06509 16.77 2.19559C16.5029 2.18529 17.0858 1.73883 16.4183 2.0479C16.3564 2.01013 16.5355 1.90025 16.555 1.85217H16.5941C16.4899 1.76975 16.4671 1.74226 16.4476 1.6564C16.3662 1.64953 16.06 1.80063 16.1024 1.69074C16.2326 1.65296 16.1968 1.63579 16.1871 1.60832C16.2131 1.61519 16.2587 1.59802 16.3238 1.52247C16.2847 1.5362 16.2587 1.53966 16.2359 1.54309C16.2457 1.53966 16.2522 1.53277 16.2652 1.5259C16.2033 1.50186 16.1675 1.52933 16.161 1.56024C16.1415 1.5671 16.1187 1.58084 16.0893 1.60488C16.2229 1.47782 16.021 1.48128 16.2261 1.37138C16.1187 1.26149 15.8581 1.27178 15.7279 1.1928C15.8288 1.12755 15.9363 1.11035 15.9917 1.12409L15.92 1.0623C16.0763 0.990181 16.0275 1.06575 16.0698 1.07605C16.2815 0.86313 15.7377 0.997065 15.92 0.777278L15.7865 0.811611L15.8028 0.794424C15.7377 0.825331 15.6367 0.839063 15.6106 0.832194C15.7409 0.753209 15.9233 0.691415 15.894 0.639903C16.0079 0.536878 15.78 0.543755 15.6823 0.519715C15.6725 0.560925 15.5911 0.584951 15.539 0.59182C15.5227 0.564346 15.653 0.488781 15.5879 0.492215L15.7702 0.409799C15.6009 0.495653 15.552 0.416655 15.4739 0.440694C15.6041 0.365143 15.6074 0.433824 15.7149 0.396049C15.653 0.289589 15.6855 0.344549 15.6237 0.23809C15.4608 0.23809 15.4511 0.323943 15.2785 0.365153C15.2199 0.327377 15.0701 0.3274 15.158 0.217507L15.0017 0.306799C14.8356 0.255286 14.8323 0.183165 14.9756 0.0457988C14.1582 -0.0709629 13.6763 0.0526319 13.4027 0.22434C13.1292 0.396049 13.0641 0.612403 13.0641 0.612403C12.8133 1.09319 13.3604 1.06916 13.6405 1.3954L13.6372 1.36794Z" fill="#ACDE45"/>
<path d="M26.1939 12.1545L26.1779 12.2325C26.1939 12.202 26.2035 12.1715 26.1939 12.1545Z" fill="#ACDE45"/>
<path d="M31.7073 14.7529C31.7073 14.7529 31.7136 14.7466 31.7167 14.7404C31.7104 14.7435 31.7073 14.7498 31.7073 14.7529Z" fill="#ACDE45"/>
<path d="M25.8615 14.9467C25.8615 14.9467 25.8521 14.9534 25.849 14.9601L25.8647 14.9467H25.8615Z" fill="#ACDE45"/>
<path d="M24.8134 14.1052C25.0641 14.3628 24.9795 14.7268 25.3605 14.7783C25.4972 14.8882 25.6959 14.9019 25.8587 14.9466C26.0508 14.7337 26.0541 15.0462 26.2397 14.8813L26.2039 15.0427C26.2658 14.9844 26.3244 14.9535 26.3146 15.0462L26.2918 15.0874C26.3863 15.0015 26.4025 15.0908 26.4514 15.0496L26.4286 15.0908L26.4905 15.1011L26.4546 15.1561C26.5849 15.0805 26.6631 15.1115 26.7054 15.1973L26.7803 15.0187C26.8324 15.2866 27.0539 14.9535 27.0766 15.2522L27.0571 15.2934C27.4316 14.9122 27.1776 15.7399 27.5423 15.3827C27.4967 15.4274 27.5097 15.4789 27.4902 15.5201C27.5912 15.5098 27.6856 15.5235 27.8387 15.1767C27.894 15.2076 27.8387 15.3072 27.7866 15.4446C27.8517 15.2935 27.9298 15.2522 27.9787 15.266L27.9331 15.3141L28.0829 15.3244L28.1806 15.0256C28.2131 15.1389 28.0471 15.3862 28.1415 15.345L28.2425 15.1046C28.3141 15.1973 28.2164 15.5854 28.2327 15.8017C28.5746 16.0833 29.2292 15.6506 29.4148 16.2276L29.3594 16.4164C29.265 16.6843 29.6102 16.0662 29.5288 16.3168L29.6167 16.2138C29.6102 16.2653 29.6167 16.3271 29.5711 16.3786C29.6069 16.4061 29.6232 16.3615 29.6818 16.2928L29.659 16.4748C29.7632 16.6671 30.0107 16.4027 30.1475 16.5332C30.2159 16.9522 30.6946 16.7873 30.9681 16.6843C31.398 16.3958 31.3785 17.6012 31.8376 17.2509C31.8376 17.2921 31.8897 17.2166 31.8995 17.1857L32.1665 17.3265C32.1665 17.3265 32.4987 17.4741 32.7853 17.2887C33.0751 17.1067 33.3128 16.5915 33.1695 15.29L33.1956 15.2351C33.0946 15.0393 33.0132 14.9775 32.8178 15.2351C32.9188 14.8642 32.7104 15.1527 32.7136 15.0222L32.7267 14.9947C32.5443 15.2419 32.6192 14.6959 32.4531 14.9157C32.4661 14.8882 32.502 14.7886 32.5215 14.7886C32.4433 14.8127 32.3326 14.8607 32.3977 14.6478C32.2317 14.6478 32.0591 14.4727 31.8474 14.7715L31.8735 14.7165C31.7399 14.9226 31.792 14.7234 31.6911 14.8161C31.6976 14.7886 31.6976 14.7715 31.7041 14.7612C31.5673 14.9638 31.5185 14.7303 31.4371 14.8058L31.4827 14.665L31.3524 14.6512L31.385 14.6993C31.2319 15.0771 31.385 14.4246 31.2091 14.6375C31.1473 14.5586 30.7597 15.369 30.7434 15.1458C30.6392 15.3072 30.8835 14.8676 30.776 14.9844C30.8477 14.7852 30.8509 14.871 30.8932 14.7062C30.8021 14.7783 30.8737 14.4658 30.7532 14.5688L30.8086 14.4109C30.6099 14.6581 30.7109 14.1327 30.5481 14.38C30.4048 14.4658 30.6588 13.8957 30.4438 14.1533L30.4862 13.9266C30.4569 13.8751 30.3592 14.1705 30.3494 14.0503C30.4015 13.9198 30.3299 13.9198 30.4048 13.8065C30.3787 13.5592 30.0791 14.0056 30.0759 13.597C29.9456 13.8374 29.9358 13.6553 29.8381 13.8373C29.8772 13.724 29.7046 13.7584 29.8805 13.5523C29.8935 13.5352 29.9065 13.5455 29.887 13.5867L29.9554 13.439C29.9912 13.1196 29.7502 13.5317 29.6916 13.4527C29.6916 13.5145 29.7307 13.5146 29.6688 13.6073L29.6069 13.5523L29.6721 13.4321L29.5972 13.3085L29.5483 13.4733C29.5288 13.3703 29.62 13.0956 29.4702 13.2913C29.392 13.4012 29.4311 13.5249 29.3562 13.5489C29.3301 13.4115 29.2911 13.202 29.2259 13.1127C29.1608 13.2913 29.138 13.2742 29.0989 13.2982L29.1608 13.1436C28.9784 13.3119 29.2683 12.7934 29.1054 12.917L29.1575 12.814L28.998 13.1196C28.783 13.3806 29.0892 12.7831 28.8189 13.1505C28.8677 13.1436 28.6919 13.4939 28.6756 13.4046L28.7505 13.2639C28.7114 13.2845 28.6756 13.3394 28.6723 13.3016C28.7212 13.2295 28.7733 13.0922 28.7244 13.099L28.8286 12.9273L28.643 13.1608C28.6593 12.9788 28.4867 13.1334 28.5551 12.917C28.5551 12.917 28.4867 12.759 28.3564 12.9719C28.4411 12.8449 28.402 12.759 28.4932 12.6045C28.3923 12.7487 28.2457 12.8346 28.2881 12.6491L28.3043 12.632C28.2555 12.395 27.9754 12.7522 27.9559 12.4843C27.881 12.6594 27.8614 12.5358 27.7735 12.7625C27.5488 12.9204 27.767 12.1993 27.399 12.8586C27.3274 12.8655 27.4121 12.6629 27.399 12.6148L27.4283 12.5873C27.2981 12.5873 27.2655 12.5805 27.1971 12.5221C27.1255 12.5667 26.9659 12.8792 26.9366 12.7659C27.0213 12.6526 26.9822 12.6594 26.9562 12.6457C26.9822 12.6354 27.0082 12.5908 27.018 12.4877C26.9952 12.5255 26.9757 12.5427 26.9594 12.5598C26.9627 12.5495 26.9659 12.5427 26.9724 12.529C26.9073 12.5496 26.8975 12.5942 26.9073 12.6217C26.8975 12.6389 26.8878 12.6663 26.8747 12.7041C26.9106 12.5187 26.7477 12.6457 26.8487 12.4293C26.6989 12.4087 26.4937 12.5805 26.3472 12.6011C26.3928 12.4843 26.4677 12.4019 26.5198 12.3778H26.4253C26.5068 12.2164 26.5133 12.3091 26.5523 12.292C26.5947 11.9863 26.2397 12.4397 26.256 12.1478L26.1681 12.2576V12.2336C26.1388 12.2989 26.0671 12.3744 26.0411 12.3881C26.0997 12.2439 26.2072 12.0722 26.1518 12.0516C26.1811 11.8971 26.002 12.0516 25.9108 12.0928C25.9271 12.134 25.8782 12.2027 25.8392 12.2439C25.8099 12.2336 25.8685 12.0894 25.8196 12.134L25.9173 11.9486C25.8327 12.1271 25.7512 12.0962 25.6991 12.1649C25.7578 12.0207 25.8033 12.0722 25.8652 11.9726C25.7545 11.928 25.8099 11.952 25.6991 11.9073C25.5689 12.0104 25.6145 12.0859 25.5005 12.2302C25.4321 12.2371 25.3149 12.3332 25.3181 12.1924L25.2465 12.3641C25.0869 12.4328 25.0413 12.3778 25.0706 12.1787C24.3607 12.6182 24.0611 13.0372 23.9471 13.3497C23.8332 13.6622 23.9081 13.8717 23.9081 13.8717C23.9895 14.4075 24.4031 14.0297 24.8069 14.1052H24.8134Z" fill="#ACDE45"/>
<path d="M40.8878 17.4536L40.8981 17.5351C40.905 17.5012 40.905 17.4706 40.8878 17.4536Z" fill="#ACDE45"/>
<path d="M46.938 18.5144C46.938 18.5144 46.9413 18.5044 46.9447 18.4977C46.9413 18.5044 46.938 18.5077 46.938 18.5144Z" fill="#ACDE45"/>
<path d="M41.3407 20.225C41.3407 20.225 41.3339 20.235 41.3306 20.2417L41.3407 20.225Z" fill="#ACDE45"/>
<path d="M40.1385 19.7545C40.4446 19.9194 40.4642 20.2903 40.8322 20.2182C40.9885 20.28 41.1774 20.2353 41.3434 20.2216C41.4704 19.9606 41.5519 20.2594 41.6821 20.043L41.6886 20.2079C41.7342 20.1357 41.7798 20.0877 41.7928 20.1804L41.7831 20.225C41.8514 20.1152 41.8873 20.1976 41.9231 20.1392L41.9133 20.1838L41.9719 20.1735L41.9524 20.2388C42.0534 20.1289 42.138 20.1357 42.1999 20.2079L42.2259 20.0155C42.3432 20.2594 42.4669 19.8747 42.5646 20.1529L42.5548 20.1975C42.8154 19.7271 42.7763 20.5925 43.0368 20.1495C43.0042 20.2044 43.0303 20.2491 43.0205 20.2972C43.1117 20.2594 43.2062 20.2456 43.2713 19.8713C43.3299 19.8885 43.3006 19.9984 43.2843 20.146C43.3104 19.9812 43.3755 19.9228 43.4243 19.9194L43.3918 19.9778L43.5383 19.9469L43.5611 19.6309C43.6197 19.7339 43.5188 20.0121 43.6002 19.9503L43.6393 19.6927C43.7304 19.7614 43.7272 20.1632 43.7923 20.3693C44.1798 20.5513 44.7106 19.9641 45.0168 20.4826L45.0037 20.6783C44.9679 20.9634 45.1698 20.2765 45.1438 20.541L45.2056 20.4173C45.2089 20.4689 45.2284 20.5272 45.1959 20.589C45.2349 20.6062 45.2415 20.5616 45.2838 20.4792L45.3001 20.6612C45.4401 20.8226 45.6225 20.5066 45.782 20.5994C45.9318 20.9909 46.3584 20.7196 46.6027 20.5582C46.9641 20.1804 47.1726 21.3652 47.5503 20.9222C47.5568 20.9634 47.5926 20.8775 47.5959 20.8432L47.8792 20.9256C47.8792 20.9256 48.2244 21.0012 48.4719 20.7642C48.7226 20.5272 48.8692 19.9743 48.4947 18.7243L48.511 18.6625C48.3742 18.4908 48.283 18.4427 48.1365 18.7415C48.169 18.3568 48.0127 18.6831 47.9932 18.556L47.9997 18.5251C47.8662 18.8067 47.8369 18.2538 47.7131 18.5045C47.7197 18.4736 47.7359 18.3706 47.7587 18.3672C47.6871 18.4049 47.5829 18.477 47.6089 18.2538C47.4428 18.2881 47.2377 18.1542 47.0879 18.4942L47.1042 18.4324C47.013 18.6625 47.026 18.4564 46.9446 18.5698C46.9446 18.5388 46.9446 18.5251 46.9446 18.5114C46.8502 18.738 46.7557 18.5217 46.6906 18.6144L46.7069 18.4667L46.5766 18.4805L46.6189 18.5182C46.5473 18.92 46.5603 18.2504 46.4333 18.4977C46.3552 18.4324 46.1435 19.315 46.0816 19.1021C46.0132 19.2841 46.163 18.7999 46.0816 18.9372C46.1109 18.7243 46.1305 18.8101 46.137 18.6384C46.0621 18.7277 46.0653 18.4049 45.9709 18.5389L45.9904 18.374C45.8472 18.6591 45.8341 18.1268 45.7267 18.4049C45.6029 18.5251 45.7267 17.9035 45.5769 18.2092L45.5671 17.9791C45.528 17.9344 45.4955 18.2469 45.4596 18.1302C45.4824 17.9894 45.4108 18.0065 45.4596 17.8795C45.3782 17.6425 45.1828 18.1508 45.0884 17.7559C45.0135 18.0237 44.9646 17.8486 44.9093 18.0478C44.9223 17.9276 44.7595 18.0031 44.8865 17.7593C44.8963 17.7387 44.9093 17.7455 44.9028 17.7902L44.9386 17.6288C44.8995 17.3094 44.7562 17.7696 44.6813 17.7078C44.6976 17.7662 44.7334 17.7558 44.6944 17.8657L44.6195 17.8314L44.6585 17.6975L44.5543 17.5979L44.5446 17.7696C44.5022 17.6735 44.525 17.385 44.4241 17.6116C44.3752 17.7387 44.4436 17.8486 44.3752 17.8898C44.3166 17.7627 44.2287 17.567 44.1408 17.5017C44.118 17.694 44.0952 17.6803 44.0626 17.7147L44.0854 17.5498C43.9454 17.7593 44.1049 17.1824 43.9747 17.3438L44.0007 17.2304L43.9193 17.5704C43.7728 17.8795 43.9258 17.2201 43.75 17.646C43.7956 17.6254 43.7109 18.01 43.6718 17.931L43.7109 17.773C43.6783 17.8005 43.6588 17.8657 43.6458 17.8314C43.6751 17.749 43.6914 17.6013 43.6458 17.6219L43.7044 17.4296L43.5807 17.7078C43.5481 17.5258 43.4178 17.7215 43.4308 17.4949C43.4308 17.4949 43.3201 17.3609 43.2517 17.6013C43.3038 17.4537 43.242 17.3815 43.2908 17.2098C43.2289 17.3747 43.1084 17.4983 43.0987 17.306L43.1085 17.2854C42.9945 17.069 42.8154 17.4949 42.7275 17.2407C42.7014 17.433 42.6493 17.3163 42.6232 17.5601C42.4474 17.7765 42.4669 17.0175 42.2846 17.7593C42.2162 17.7868 42.2422 17.5704 42.2194 17.5223L42.2422 17.4845C42.1152 17.5223 42.0827 17.5223 42.0012 17.488C41.9459 17.5532 41.8742 17.9001 41.8156 17.8005C41.8645 17.6666 41.8287 17.6872 41.8026 17.6803C41.8254 17.6631 41.8384 17.6116 41.8189 17.512C41.8059 17.5533 41.7928 17.5773 41.7798 17.5979C41.7798 17.5876 41.7798 17.5773 41.7863 17.5636C41.731 17.6013 41.731 17.646 41.7472 17.67C41.7407 17.6906 41.7407 17.7181 41.7375 17.7593C41.7212 17.5704 41.5974 17.7421 41.6365 17.5052C41.4835 17.5292 41.3337 17.7559 41.1969 17.8211C41.2067 17.6975 41.2555 17.5945 41.2978 17.5533L41.2034 17.5807C41.236 17.4056 41.2718 17.4914 41.3044 17.4605C41.2588 17.1549 41.0438 17.7009 40.9755 17.4159L40.9233 17.5498V17.5258C40.9071 17.5979 40.8615 17.694 40.8387 17.7147C40.8517 17.5567 40.9071 17.3609 40.8484 17.3575C40.8322 17.1995 40.7019 17.4022 40.627 17.4708C40.6531 17.5052 40.627 17.5876 40.6042 17.6357C40.5749 17.6357 40.5879 17.4777 40.5521 17.5395L40.5912 17.3335C40.5651 17.5292 40.474 17.5258 40.4446 17.6082C40.4577 17.4502 40.5163 17.488 40.5456 17.3712C40.4251 17.3644 40.4837 17.3712 40.3632 17.3609C40.2688 17.5017 40.3372 17.5601 40.2688 17.7318C40.2069 17.7593 40.1223 17.8932 40.0832 17.7524L40.0669 17.9413C39.9334 18.0615 39.8748 18.0237 39.8454 17.8245C39.3049 18.4805 39.1551 18.9784 39.1453 19.315C39.1355 19.6515 39.2625 19.8232 39.2625 19.8232C39.4905 20.3006 39.764 19.8026 40.1613 19.7408L40.1385 19.7545Z" fill="#ACDE45"/>
<path d="M56.5155 19.7096L56.5315 19.7876C56.5315 19.7537 56.5315 19.7198 56.5155 19.7096Z" fill="#ACDE45"/>
<path d="M62.6866 20.3276C62.6866 20.3276 62.69 20.3175 62.6934 20.3108C62.69 20.3175 62.6866 20.3208 62.6866 20.3276Z" fill="#ACDE45"/>
<path d="M57.2061 22.4193C57.2061 22.4193 57.1994 22.4294 57.196 22.4361L57.2061 22.4193Z" fill="#ACDE45"/>
<path d="M55.9878 22.0792C56.3037 22.2063 56.3558 22.5772 56.7043 22.4673C56.8606 22.5119 57.0429 22.4467 57.2025 22.4226C57.3034 22.1479 57.4077 22.4398 57.5216 22.2131L57.5412 22.378C57.5803 22.299 57.6193 22.2509 57.6421 22.3402L57.6356 22.3848C57.6942 22.2681 57.7366 22.3471 57.7659 22.2887L57.7594 22.3368L57.818 22.3231L57.8017 22.3883C57.8929 22.2681 57.9775 22.2681 58.0427 22.3333L58.0557 22.141C58.1892 22.3746 58.2837 21.9796 58.3976 22.2509L58.3911 22.299C58.6191 21.8079 58.6321 22.6767 58.8633 22.2097C58.834 22.2681 58.8633 22.3093 58.8568 22.3574C58.9447 22.3093 59.0359 22.2921 59.0782 21.9109C59.1369 21.9212 59.1141 22.0346 59.1076 22.1822C59.1238 22.0174 59.1825 21.9521 59.2313 21.9453L59.202 22.0071L59.342 21.9659L59.3485 21.6499C59.4104 21.7461 59.329 22.0346 59.4039 21.9659L59.4299 21.7049C59.5244 21.7667 59.5439 22.1651 59.6188 22.3677C60.0063 22.5222 60.5078 21.9041 60.8335 22.3986V22.5943C60.8074 22.8794 60.9768 22.1822 60.9638 22.4467L61.0191 22.3196C61.0256 22.3711 61.0452 22.4295 61.0191 22.4913C61.0582 22.5051 61.0647 22.4604 61.1005 22.378L61.1266 22.56C61.2699 22.7145 61.4392 22.3848 61.5988 22.4741C61.7616 22.8588 62.1719 22.5634 62.4096 22.3917C62.7613 21.9968 62.9925 23.1713 63.3573 22.7146C63.3638 22.7558 63.3996 22.6664 63.4029 22.6355L63.6829 22.7042C63.6829 22.7042 65.0572 22.9583 64.2593 20.4857L64.2723 20.4239C64.1323 20.2557 64.0379 20.211 63.8946 20.5132C63.9174 20.1286 63.7708 20.4617 63.7481 20.3312L63.7546 20.3003C63.6276 20.5854 63.5852 20.0359 63.4615 20.29C63.468 20.2591 63.481 20.1561 63.5038 20.1492C63.4322 20.1904 63.3312 20.266 63.3507 20.0428C63.1847 20.084 62.9697 19.9569 62.8297 20.3038L62.8427 20.2419C62.7581 20.4754 62.7646 20.2694 62.6832 20.3862C62.6832 20.3553 62.6799 20.3415 62.6832 20.3278C62.5952 20.5579 62.4943 20.3449 62.4292 20.4411L62.4422 20.2934L62.3119 20.314L62.3575 20.3518C62.2989 20.7571 62.2891 20.0874 62.1686 20.3415C62.0872 20.2797 61.9049 21.1691 61.8365 20.9597C61.7746 21.1451 61.9081 20.654 61.8267 20.7948C61.8463 20.5819 61.8691 20.6643 61.8723 20.4926C61.7974 20.5853 61.7909 20.266 61.6997 20.3999L61.7127 20.235C61.5792 20.527 61.5434 19.9981 61.449 20.2797C61.3317 20.4068 61.4294 19.7818 61.2894 20.0943L61.2699 19.8676C61.2275 19.8264 61.208 20.1389 61.1689 20.0256C61.1852 19.8848 61.1168 19.9054 61.1591 19.7749C61.0647 19.5414 60.8889 20.0633 60.7749 19.6753C60.713 19.9466 60.6544 19.7749 60.6055 19.9775C60.6153 19.8573 60.4525 19.9432 60.5665 19.6925C60.5762 19.6719 60.5892 19.6787 60.5827 19.7234L60.6088 19.562C60.5534 19.246 60.4329 19.7131 60.3515 19.6581C60.3711 19.7131 60.4069 19.7028 60.3743 19.8127L60.2962 19.7818L60.3255 19.6478L60.2147 19.5551V19.7268C60.1626 19.6341 60.1724 19.3422 60.0812 19.5757C60.0389 19.7062 60.1138 19.8092 60.0454 19.8573C59.9803 19.7337 59.8793 19.5482 59.7849 19.4864C59.7751 19.6787 59.7491 19.6684 59.7165 19.7062L59.7295 19.5413C59.5993 19.7611 59.7295 19.1739 59.6025 19.3456L59.6221 19.2323L59.5602 19.5757C59.4332 19.8951 59.5439 19.2254 59.3941 19.665C59.4397 19.641 59.3778 20.0325 59.3322 19.9535L59.3615 19.7955C59.329 19.8264 59.3127 19.8916 59.2964 19.8573C59.3225 19.7714 59.329 19.6272 59.2834 19.6478L59.3322 19.4521L59.2248 19.7371C59.1824 19.5585 59.062 19.7646 59.0587 19.5345C59.0587 19.5345 58.9382 19.4109 58.8829 19.6547C58.9252 19.5036 58.8568 19.4383 58.8959 19.2598C58.8438 19.4315 58.7298 19.5619 58.707 19.3731L58.7168 19.3525C58.5865 19.1464 58.4367 19.586 58.326 19.3422C58.313 19.5345 58.2543 19.4246 58.2446 19.6718C58.0817 19.9019 58.0427 19.1464 57.9157 19.9019C57.8473 19.9363 57.8603 19.7165 57.831 19.6718L57.8506 19.6341C57.7268 19.6856 57.691 19.689 57.6063 19.6616C57.5542 19.7303 57.5151 20.084 57.4435 19.9912C57.4826 19.8539 57.4467 19.8745 57.4174 19.8745C57.437 19.8539 57.45 19.8024 57.4174 19.7062C57.4077 19.7509 57.3979 19.7749 57.3881 19.7955C57.3881 19.7852 57.3881 19.7749 57.3881 19.7611C57.336 19.8058 57.3393 19.8504 57.3588 19.871C57.3588 19.8917 57.3556 19.9191 57.3588 19.9603C57.3263 19.7749 57.2155 19.9603 57.2351 19.7165C57.082 19.7577 56.955 19.9947 56.8215 20.0771C56.8215 19.95 56.8606 19.8435 56.8996 19.7989L56.8085 19.8367C56.828 19.6581 56.8671 19.7406 56.8996 19.7062C56.8247 19.4074 56.6587 19.9706 56.5642 19.6959L56.5252 19.8333L56.5186 19.8092C56.5121 19.8848 56.4763 19.9844 56.4535 20.005C56.4535 19.847 56.4893 19.6478 56.4275 19.6513C56.3949 19.4967 56.2842 19.7131 56.2158 19.7886C56.2451 19.8195 56.2288 19.902 56.2093 19.9569C56.18 19.9569 56.1767 19.8024 56.1474 19.8676L56.1637 19.6581C56.1572 19.8573 56.066 19.8642 56.0464 19.9466C56.0464 19.7886 56.1051 19.8161 56.1246 19.7028C56.0041 19.7096 56.0627 19.7062 55.9422 19.713C55.8641 19.8642 55.9357 19.9123 55.8869 20.0943C55.825 20.1286 55.7566 20.2694 55.7045 20.1355V20.3243C55.5873 20.4583 55.5254 20.4308 55.4733 20.235C54.5387 21.6705 55.1086 22.2921 55.1086 22.2921C55.3789 22.7351 55.5905 22.2097 55.9748 22.1033L55.9878 22.0792Z" fill="#ACDE45"/>
<path d="M72.3583 22.0728V22.1543C72.372 22.1203 72.3755 22.0897 72.3583 22.0728Z" fill="#ACDE45"/>
<path d="M78.3342 24.3586C78.3342 24.3586 78.3405 24.3523 78.3468 24.3461C78.3405 24.3492 78.3374 24.3523 78.3342 24.3586Z" fill="#ACDE45"/>
<path d="M72.5831 24.8679C72.5831 24.8679 72.5764 24.878 72.573 24.8847L72.5864 24.8679H72.5831Z" fill="#ACDE45"/>
<path d="M71.4823 24.3218C71.7656 24.4969 71.7525 24.8747 72.1042 24.8232C72.2443 24.8987 72.4266 24.8644 72.583 24.8678C72.7295 24.6171 72.7751 24.9262 72.9216 24.7236L72.9086 24.8885C72.9607 24.8198 73.0063 24.7785 73.0128 24.8713L72.9965 24.9159C73.0714 24.8129 73.1007 24.8988 73.1366 24.8472L73.1203 24.8919H73.1789L73.1496 24.9502C73.2603 24.8507 73.3385 24.8678 73.3873 24.9502L73.4394 24.7648C73.5176 25.019 73.6902 24.6549 73.7423 24.9434L73.726 24.9881C74.0451 24.5588 73.8725 25.4104 74.1884 25.0086C74.1493 25.0602 74.1656 25.1048 74.1493 25.1495C74.2438 25.1254 74.3349 25.1289 74.4554 24.7683C74.5108 24.7923 74.4619 24.8987 74.4229 25.0395C74.475 24.8816 74.5466 24.8335 74.5922 24.8404L74.5531 24.8919L74.6964 24.885L74.7746 24.5794C74.8136 24.6893 74.6671 24.9468 74.755 24.9022L74.8397 24.6549C74.9146 24.7373 74.8397 25.1323 74.8625 25.3452C75.1849 25.5924 75.8101 25.1357 75.9795 25.7092L75.9209 25.8981C75.8232 26.1659 76.1684 25.5478 76.0837 25.7985L76.1716 25.6955C76.1651 25.747 76.1651 25.8088 76.1228 25.8603C76.1553 25.8878 76.1716 25.8431 76.2302 25.7745L76.2009 25.9565C76.2888 26.1488 76.5396 25.8844 76.6601 26.0183C76.6959 26.4338 77.1518 26.2861 77.4221 26.2106C77.8748 25.9599 77.6891 27.1447 78.1646 26.8528C78.1548 26.894 78.2167 26.8253 78.233 26.7944L78.4577 26.9661C78.4577 26.9661 78.7345 27.1584 79.0406 27.0314C79.3434 26.9009 79.7082 26.4682 79.7863 25.1495L79.8221 25.0979C79.7505 24.8781 79.6723 24.7957 79.4313 25.019C79.5909 24.6721 79.3304 24.9159 79.3532 24.7888L79.3695 24.7614C79.1513 24.9743 79.2978 24.4386 79.0927 24.6275C79.109 24.6034 79.1578 24.5107 79.1806 24.5141C79.0959 24.5244 78.9722 24.5553 79.0666 24.3527C78.8908 24.3252 78.7247 24.1192 78.4772 24.3905L78.5098 24.339C78.3535 24.5279 78.4251 24.3355 78.3111 24.4145C78.3209 24.3871 78.3209 24.3699 78.3274 24.3596C78.1678 24.545 78.1385 24.3046 78.0473 24.3733L78.106 24.236L77.9724 24.2085L78.005 24.26C77.8259 24.624 78.018 23.9818 77.8259 24.181C77.764 24.0951 77.3277 24.8781 77.3244 24.6549C77.2104 24.8094 77.4807 24.3871 77.3635 24.4935C77.4449 24.2978 77.4449 24.3836 77.4937 24.2222C77.396 24.2874 77.4807 23.975 77.3537 24.0746L77.4156 23.92C77.2039 24.1535 77.3179 23.6384 77.1453 23.8753C76.9955 23.9578 77.2625 23.3912 77.0378 23.6418L77.0802 23.4152C77.0476 23.3602 76.9467 23.6556 76.9369 23.5319C76.9922 23.4014 76.9173 23.4014 76.9955 23.2881C76.9629 23.034 76.6536 23.4804 76.6405 23.0683C76.5103 23.3087 76.494 23.1267 76.3963 23.3087C76.4354 23.1954 76.253 23.2297 76.4289 23.0202C76.4452 23.0031 76.4549 23.0134 76.4386 23.0546L76.507 22.9069C76.5298 22.5841 76.2921 23.0031 76.2237 22.9241C76.2302 22.9859 76.2693 22.9859 76.2074 23.0821L76.1358 23.0306L76.2009 22.9069L76.113 22.7833L76.0706 22.9481C76.0446 22.8417 76.1195 22.5635 75.9762 22.7627C75.9013 22.876 75.9534 22.9996 75.8753 23.0237C75.8394 22.8829 75.7808 22.6768 75.6994 22.591C75.6441 22.7764 75.6213 22.7593 75.5822 22.7833L75.6343 22.6253C75.4552 22.8039 75.7157 22.2647 75.5529 22.3987L75.5985 22.2922L75.4584 22.6082C75.2598 22.8829 75.5171 22.2647 75.2696 22.6494C75.3184 22.6391 75.1719 23.0031 75.1458 22.9172L75.2109 22.7696C75.1719 22.7902 75.1425 22.852 75.1328 22.8142C75.1784 22.7386 75.2142 22.5979 75.1654 22.6082L75.2565 22.4296L75.0839 22.6803C75.0774 22.4948 74.9146 22.6665 74.9602 22.4433C74.9602 22.4433 74.8658 22.2922 74.7583 22.5154C74.8299 22.3781 74.7778 22.2956 74.8527 22.1342C74.7648 22.2853 74.6248 22.3884 74.6411 22.1961L74.6541 22.1789C74.5629 21.9488 74.3252 22.3403 74.26 22.0724C74.2112 22.2579 74.1721 22.1342 74.1168 22.3746C73.9116 22.5601 74.0093 21.8114 73.7455 22.5257C73.6739 22.5463 73.7227 22.33 73.7032 22.2819L73.7292 22.2476C73.5957 22.2682 73.5599 22.2647 73.4785 22.2201C73.4134 22.2785 73.3124 22.615 73.2571 22.5086C73.3189 22.3815 73.2831 22.3952 73.2538 22.3884C73.2766 22.3712 73.2994 22.3266 73.2864 22.2235C73.2701 22.2647 73.2538 22.2853 73.2408 22.306C73.2408 22.2956 73.244 22.2854 73.2505 22.2716C73.1887 22.306 73.1854 22.3506 73.2017 22.3746C73.1952 22.3952 73.1887 22.4227 73.1854 22.4605C73.1854 22.2716 73.0421 22.4296 73.1007 22.1961C72.9412 22.2064 72.7718 22.4124 72.6286 22.4708C72.6481 22.3472 72.7034 22.2476 72.7523 22.2132L72.6546 22.2338C72.7002 22.0621 72.7295 22.148 72.7653 22.1205C72.736 21.8114 72.482 22.3369 72.4299 22.0484L72.368 22.1789V22.1549C72.3485 22.227 72.2964 22.3197 72.2736 22.3368C72.2964 22.1823 72.3648 21.99 72.3029 21.9832C72.2931 21.8252 72.1498 22.0175 72.0684 22.0827C72.0945 22.1171 72.0619 22.1995 72.0359 22.2476C72.0066 22.2476 72.0261 22.0896 71.987 22.148L72.0359 21.942C72 22.1377 71.9056 22.1274 71.8763 22.2098C71.8958 22.0552 71.9545 22.093 71.9903 21.9797C71.8665 21.966 71.9284 21.9728 71.8047 21.9591C71.7037 22.0965 71.7688 22.1549 71.6939 22.3266C71.6288 22.3506 71.5409 22.4776 71.5051 22.3368L71.4823 22.5223C71.3455 22.6356 71.2869 22.5979 71.2608 22.3952C70.7007 23.034 70.5509 23.532 70.5314 23.8685C70.5118 24.2051 70.6291 24.3768 70.6291 24.3768C70.8277 24.8541 71.1013 24.363 71.4855 24.3184L71.4823 24.3218Z" fill="#ACDE45"/>
<path d="M86.0022 30.6375L85.9573 30.7017C85.9829 30.678 86.0022 30.6578 86.0022 30.6375Z" fill="#ACDE45"/>
<path d="M84.452 32.8248C84.452 32.8248 84.4425 32.8282 84.4363 32.8316L84.4551 32.8248H84.452Z" fill="#ACDE45"/>
<path d="M84.0782 31.9596C84.1531 32.2103 83.9187 32.4816 84.1727 32.5881C84.2183 32.7014 84.3518 32.7529 84.4527 32.8216C84.7002 32.7014 84.5374 32.9452 84.7588 32.8628L84.6481 32.9761C84.723 32.9486 84.7816 32.9384 84.7263 33.007L84.6905 33.0311C84.8044 32.9899 84.7686 33.062 84.824 33.0414L84.7849 33.0654L84.824 33.0895L84.7686 33.1204C84.8989 33.0963 84.938 33.1444 84.9217 33.22L85.0715 33.11C84.9607 33.3264 85.3027 33.141 85.1529 33.371L85.1138 33.3951C85.5925 33.2337 84.9379 33.7557 85.3971 33.6149C85.3385 33.6321 85.319 33.6733 85.2799 33.6973C85.358 33.7214 85.4134 33.7626 85.7228 33.5703C85.7423 33.6149 85.6446 33.663 85.5274 33.7454C85.6641 33.6595 85.739 33.6595 85.7651 33.687L85.7032 33.7042L85.8009 33.766L86.0484 33.5874C85.9996 33.6836 85.7391 33.7935 85.827 33.8003L86.0419 33.6698C86.0354 33.7625 85.7325 33.9995 85.6055 34.1575C85.6479 34.47 86.3578 34.4562 86.0875 34.9199L85.9247 35.016C85.6804 35.1465 86.3187 34.8993 86.0973 35.0263L86.2243 34.9988C86.1852 35.0297 86.1461 35.071 86.0842 35.0847C86.0842 35.1156 86.1266 35.0984 86.2112 35.0813L86.0712 35.1877C86.0028 35.3526 86.3382 35.3011 86.3252 35.4487C86.0712 35.7338 86.462 35.8574 86.6932 35.9432C87.1556 36.0119 86.234 36.6644 86.742 36.7159C86.7095 36.7365 86.7974 36.7262 86.8267 36.7159L86.856 36.9357C86.856 36.9357 86.9081 37.1933 87.198 37.2723C87.4878 37.3444 88.0316 37.2723 88.9792 36.4893L89.0379 36.4755C89.1356 36.3004 89.1421 36.2042 88.8295 36.218C89.1714 36.0806 88.8294 36.1012 88.9337 36.0291L88.9629 36.0223C88.6731 36.0429 89.1323 35.7784 88.8685 35.7922C88.8978 35.7853 88.9923 35.751 89.0021 35.7647C88.9402 35.7269 88.836 35.6788 89.0346 35.5998C88.9369 35.4899 88.9597 35.2667 88.6145 35.3148L88.6699 35.2976C88.4387 35.3388 88.6145 35.2496 88.4875 35.2427C88.5136 35.229 88.5233 35.2186 88.5364 35.2152C88.3052 35.253 88.4452 35.0813 88.341 35.0779L88.4713 35.0195L88.4028 34.9302L88.3898 34.9817C88.0251 35.1259 88.5852 34.8065 88.3247 34.834C88.341 34.7447 87.5268 35.0366 87.6734 34.889C87.4943 34.9336 87.9567 34.7928 87.8069 34.8031C87.9925 34.7138 87.9339 34.7722 88.0739 34.6898C87.9665 34.6829 88.2303 34.5215 88.0805 34.5181L88.2238 34.4459C87.9274 34.494 88.3475 34.2056 88.0739 34.2742C87.9209 34.2536 88.4745 34.0098 88.1553 34.0648L88.3345 33.9343C88.3475 33.8827 88.087 34.027 88.1619 33.9411C88.2856 33.8828 88.2368 33.8415 88.3605 33.8038C88.507 33.6114 88.0056 33.7591 88.2661 33.4707C88.0219 33.5702 88.1293 33.4363 87.9469 33.5119C88.0479 33.4535 87.9046 33.3814 88.1586 33.3298C88.1781 33.3264 88.1814 33.3367 88.1423 33.3573L88.2824 33.2886C88.5071 33.0757 88.0805 33.2405 88.0837 33.1513C88.0479 33.1959 88.0739 33.2165 87.9697 33.2509L87.9567 33.1788L88.0772 33.1272L88.0968 32.9967L87.96 33.0895C88.0088 33.0036 88.2433 32.8456 88.0153 32.9109C87.8916 32.9521 87.846 33.0654 87.7776 33.0414C87.8428 32.9246 87.9404 32.7495 87.9404 32.6464C87.7874 32.7495 87.7809 32.7254 87.7353 32.722L87.872 32.6361C87.6376 32.6705 88.1554 32.4232 87.96 32.4335L88.0577 32.382L87.7613 32.5366C87.452 32.6327 88.0219 32.3202 87.6083 32.4713C87.6474 32.4885 87.3152 32.6739 87.3543 32.5984L87.491 32.5263C87.452 32.5228 87.3934 32.5503 87.4129 32.5194C87.4911 32.4885 87.6083 32.4061 87.5659 32.3889L87.7418 32.3065L87.4682 32.3992C87.5822 32.2653 87.364 32.3065 87.5366 32.1691C87.5366 32.1691 87.5692 32.0111 87.3543 32.121C87.491 32.0592 87.504 31.9734 87.6604 31.8909C87.504 31.9562 87.3445 31.9596 87.478 31.8291L87.4975 31.8222C87.5822 31.6059 87.1719 31.7742 87.2956 31.551C87.1458 31.6609 87.1947 31.5509 87.0091 31.702C86.755 31.7398 87.2859 31.235 86.6639 31.6334C86.602 31.6128 86.7681 31.4788 86.7844 31.4342L86.8235 31.4205C86.7192 31.3724 86.6965 31.3518 86.6704 31.2797C86.5922 31.2934 86.3154 31.4926 86.3448 31.3895C86.4652 31.3243 86.4294 31.3174 86.4164 31.2968C86.4424 31.2968 86.4848 31.2693 86.5401 31.1869C86.5043 31.2075 86.4783 31.2178 86.4587 31.2281C86.4685 31.2213 86.475 31.2179 86.4848 31.2075C86.4229 31.2041 86.3936 31.235 86.3904 31.2625C86.3741 31.2728 86.3545 31.2934 86.3252 31.3209C86.4392 31.1801 86.2471 31.2316 86.4294 31.0839C86.3155 31.0152 86.0745 31.0942 85.9442 31.0667C86.0321 30.9809 86.1298 30.9328 86.1819 30.9294L86.1038 30.8985C86.2406 30.7886 86.208 30.8676 86.247 30.8676C86.4131 30.6203 85.9214 30.8985 86.0614 30.6547L85.9442 30.7268L85.9572 30.7061C85.9019 30.7542 85.8107 30.7989 85.7846 30.8023C85.8921 30.6924 86.0517 30.5791 86.0158 30.5447C86.1038 30.4177 85.8921 30.5001 85.7976 30.5138C85.7976 30.5516 85.726 30.5997 85.6772 30.6237C85.6576 30.6065 85.7651 30.4967 85.7032 30.5242L85.8563 30.3902C85.7163 30.5241 85.6576 30.4761 85.5892 30.5207C85.6934 30.4108 85.713 30.4658 85.8009 30.3971C85.7228 30.3284 85.7618 30.3627 85.6869 30.2975C85.5371 30.3559 85.5469 30.4314 85.3971 30.531C85.3385 30.5207 85.205 30.5791 85.2636 30.4554L85.1399 30.5894C84.9803 30.6169 84.964 30.5654 85.0617 30.3937C84.3127 30.6478 83.9317 30.9809 83.7233 31.2316C83.5181 31.4857 83.4888 31.6643 83.4888 31.6643C83.3358 32.1073 83.7982 31.8394 84.075 31.963L84.0782 31.9596Z" fill="#ACDE45"/>
</svg>
