<svg width="162" height="59" viewBox="0 0 162 59" fill="none" xmlns="http://www.w3.org/2000/svg">
<path d="M16.4655 0.517471L16.394 0.541861C16.4298 0.534899 16.459 0.527914 16.4655 0.517471Z" fill="#20BB65"/>
<path d="M17.3036 3.47977C17.3036 3.47977 17.3137 3.47976 17.3204 3.47617C17.3137 3.47617 17.3103 3.47617 17.3036 3.47977Z" fill="#20BB65"/>
<path d="M14.1263 0.701912C14.0581 0.910764 13.7202 1.02562 13.8924 1.2101C13.8794 1.31453 13.9801 1.40854 14.0353 1.49556C14.3115 1.48511 14.0613 1.62083 14.2985 1.62779L14.149 1.68354C14.2303 1.68354 14.2855 1.69394 14.2075 1.73223L14.162 1.7392C14.2822 1.7392 14.2205 1.78798 14.2822 1.78798L14.2368 1.79835L14.2627 1.82622L14.1978 1.83667C14.331 1.85756 14.3472 1.90285 14.3017 1.96202L14.4837 1.91324C14.2985 2.05596 14.6851 1.99335 14.4609 2.13955L14.4154 2.14992C14.919 2.12555 14.1263 2.40756 14.6104 2.38667C14.5486 2.38667 14.5194 2.41796 14.4739 2.43189C14.5389 2.46669 14.5779 2.51192 14.9352 2.4075C14.9385 2.4423 14.8313 2.47017 14.6948 2.51542C14.8508 2.47017 14.9222 2.4806 14.9417 2.50497L14.8768 2.51194L14.9515 2.57465L15.2406 2.47021C15.1659 2.53635 14.8833 2.59201 14.9677 2.60941L15.2114 2.53284C15.1789 2.60246 14.8183 2.75561 14.6558 2.87048C14.6201 3.14894 15.3121 3.1698 14.9612 3.54226L14.7858 3.62239C14.5259 3.7303 15.1919 3.52834 14.9547 3.63276L15.0814 3.60846C15.036 3.63282 14.9937 3.66762 14.9288 3.68154C14.9288 3.70939 14.971 3.69198 15.0554 3.67457L14.9028 3.76508C14.8118 3.90779 15.1497 3.85553 15.1237 3.97736C14.841 4.23495 15.2276 4.31851 15.4486 4.35332C15.8936 4.32896 14.9807 5.03559 15.4908 4.98686C15.4583 5.01123 15.5428 4.98336 15.572 4.96595L15.611 5.14C15.611 5.14 15.6825 5.34189 15.9684 5.31752C16.2575 5.30012 16.7448 5.02166 17.6317 4.18973L17.687 4.16186C17.7812 4.01914 17.7877 3.95996 17.4953 4.06438C17.8234 3.86946 17.5018 3.98783 17.6025 3.91125L17.6317 3.89731C17.3556 3.99477 17.8039 3.69547 17.5538 3.77902C17.5798 3.76509 17.674 3.71631 17.6837 3.72327C17.6285 3.71631 17.5343 3.71636 17.7292 3.60846C17.648 3.56321 17.6935 3.4205 17.3588 3.53189L17.4141 3.5075C17.1899 3.58756 17.3686 3.4901 17.2484 3.51098C17.2744 3.49706 17.2874 3.49007 17.2971 3.48311C17.073 3.55621 17.2289 3.41353 17.1282 3.43441L17.2614 3.3717L17.2061 3.32649L17.1866 3.36133C16.8195 3.52493 17.3978 3.21157 17.1444 3.27771C17.1769 3.21853 16.3485 3.53882 16.5109 3.41351C16.329 3.4692 16.7968 3.30909 16.6539 3.33694C16.8455 3.24992 16.7806 3.29862 16.93 3.22204C16.826 3.23249 17.1054 3.08626 16.9625 3.10715L17.1119 3.04103C16.8195 3.11065 17.2776 2.86698 17.0047 2.94704C16.8618 2.94704 17.4401 2.73126 17.1282 2.80088L17.3264 2.69992C17.3524 2.66511 17.0697 2.78696 17.1607 2.72082C17.2906 2.67209 17.2549 2.65119 17.3816 2.61638C17.5668 2.48411 17.0567 2.61636 17.3783 2.41795C17.1217 2.49801 17.2581 2.40755 17.0664 2.46324C17.1769 2.42147 17.0632 2.38315 17.3134 2.3379C17.3329 2.33441 17.3328 2.34139 17.2874 2.35532L17.4401 2.30662C17.713 2.16391 17.2614 2.29263 17.2939 2.23694C17.2484 2.26478 17.2646 2.27877 17.1574 2.30314L17.1672 2.25784L17.2971 2.2196L17.3556 2.13955L17.1997 2.20218C17.2711 2.14649 17.5375 2.04552 17.3036 2.09425C17.1737 2.1221 17.0989 2.19171 17.0405 2.17779C17.1379 2.10469 17.2841 1.99681 17.3199 1.93763C17.1412 2.00029 17.1444 1.98284 17.1054 1.98284L17.2614 1.93066C17.0307 1.94807 17.5993 1.80532 17.4141 1.81228L17.5245 1.78449L17.1964 1.87152C16.8748 1.92025 17.5115 1.74965 17.0795 1.8297C17.1119 1.84015 16.7383 1.94107 16.8 1.89582L16.9527 1.85758C16.917 1.8541 16.852 1.86801 16.8813 1.85061C16.9657 1.83321 17.1022 1.79145 17.0697 1.77753L17.2614 1.73571L16.9755 1.78101C17.1314 1.70443 16.917 1.71831 17.1249 1.64521C17.1249 1.64521 17.2127 1.55475 16.9755 1.60697C17.1249 1.57912 17.1704 1.53037 17.3426 1.49556C17.1737 1.52688 17.0307 1.513 17.1997 1.44686H17.2191C17.3848 1.33199 16.9462 1.38769 17.1509 1.27282C16.969 1.32155 17.06 1.26235 16.8293 1.32848C16.5824 1.31456 17.2841 1.09874 16.5532 1.23798C16.5077 1.21709 16.7156 1.16487 16.7513 1.1405H16.7903C16.7188 1.09525 16.7091 1.08131 16.7188 1.03258C16.6441 1.02561 16.3062 1.09175 16.381 1.03606C16.5174 1.02214 16.4914 1.01174 16.4882 0.994335C16.5109 0.997815 16.5596 0.994297 16.6474 0.956008C16.6051 0.962969 16.5791 0.962976 16.5564 0.962976C16.5661 0.962976 16.5759 0.959489 16.5889 0.956008C16.5369 0.942084 16.4947 0.956021 16.4784 0.969945C16.4589 0.973426 16.4329 0.980408 16.3939 0.99085C16.5629 0.931676 16.3712 0.921206 16.6019 0.875955C16.5369 0.8133 16.2868 0.806307 16.1893 0.757575C16.3062 0.729729 16.4167 0.726312 16.4654 0.736755L16.4167 0.701912C16.5889 0.674066 16.5206 0.708888 16.5564 0.715849C16.826 0.618386 16.264 0.656685 16.5109 0.55226L16.3745 0.562712L16.3972 0.555744C16.3257 0.566186 16.225 0.569674 16.199 0.562712C16.3485 0.531385 16.5467 0.510506 16.5304 0.48266C16.6701 0.437409 16.4492 0.426891 16.3647 0.406006C16.342 0.426891 16.2575 0.43388 16.2023 0.43388C16.1958 0.419957 16.3452 0.388667 16.277 0.385186L16.4784 0.353827C16.2867 0.385155 16.2673 0.343378 16.1828 0.346859C16.3322 0.319012 16.316 0.353814 16.4297 0.33989C16.4037 0.280716 16.4167 0.312044 16.3907 0.252869C16.2348 0.238946 16.199 0.284234 16.0203 0.291196C15.9781 0.26683 15.8319 0.256391 15.9489 0.207659L15.7702 0.238932C15.624 0.200643 15.6435 0.162391 15.8222 0.103216C15.0652 -0.029056 14.5584 -0.0185829 14.2432 0.0475533C13.9281 0.110209 13.8014 0.221596 13.8014 0.221596C13.4181 0.461775 13.9574 0.503511 14.123 0.708881L14.1263 0.701912Z" fill="#20BB65"/>
<path d="M23.3269 10.0411L23.3107 10.1246C23.3269 10.0933 23.3367 10.062 23.3269 10.0411Z" fill="#20BB65"/>
<path d="M29.2527 12.855C29.2527 12.855 29.2604 12.8474 29.2642 12.8397C29.2565 12.8436 29.2527 12.8512 29.2527 12.855Z" fill="#20BB65"/>
<path d="M22.9927 12.965C22.9927 12.965 22.9827 12.9722 22.976 12.9794L22.9927 12.965Z" fill="#20BB65"/>
<path d="M21.8553 12.0252C22.1282 12.3071 22.0372 12.6969 22.4498 12.7666C22.5993 12.8884 22.8105 12.9197 22.9891 12.9685C23.1938 12.7527 23.2003 13.0834 23.3952 12.9128L23.3595 13.0799C23.4277 13.0207 23.4862 12.9929 23.4797 13.0903L23.457 13.1321C23.5577 13.045 23.5772 13.1391 23.6259 13.0938L23.6032 13.1355L23.6681 13.146L23.6292 13.2017C23.7656 13.1251 23.8533 13.1634 23.8988 13.2574L23.9768 13.0729C24.0385 13.3583 24.2692 13.0137 24.3017 13.327L24.2789 13.3688C24.672 12.979 24.4186 13.8421 24.802 13.4767C24.7532 13.5219 24.7727 13.5777 24.75 13.6194C24.8572 13.609 24.9612 13.6264 25.1171 13.2644C25.1756 13.2992 25.1171 13.4035 25.0684 13.5463C25.1366 13.3861 25.2178 13.3479 25.2698 13.3618L25.2211 13.414L25.3803 13.428L25.4777 13.1146C25.5135 13.2365 25.3445 13.4906 25.4452 13.4524L25.5459 13.2017C25.6272 13.2991 25.5329 13.7029 25.5589 13.9327C25.9325 14.2355 26.6213 13.7865 26.8422 14.3922L26.7902 14.5905C26.696 14.8725 27.0469 14.2251 26.9689 14.4862L27.0599 14.3782C27.0534 14.4339 27.0599 14.4966 27.0176 14.5523C27.0566 14.5801 27.0729 14.5349 27.1346 14.4653L27.1184 14.6567C27.2353 14.8586 27.4952 14.5801 27.6447 14.7193C27.7324 15.1614 28.2424 14.9839 28.5283 14.8795C28.9799 14.5731 28.9994 15.8401 29.4802 15.4677C29.4802 15.5129 29.5355 15.4294 29.5452 15.3981L29.8344 15.5443C29.8344 15.5443 30.195 15.694 30.4971 15.5025C30.8025 15.3111 31.0397 14.7716 30.8415 13.4105L30.8675 13.3514C30.7538 13.146 30.6628 13.0834 30.4614 13.3549C30.5588 12.9685 30.3444 13.2713 30.3444 13.1321L30.3574 13.1008C30.1722 13.3618 30.2339 12.7875 30.0585 13.0172C30.0715 12.9894 30.1072 12.8849 30.13 12.8849C30.0488 12.9093 29.9286 12.9615 29.9935 12.7388C29.8149 12.7388 29.6232 12.5542 29.4087 12.871L29.4347 12.8118C29.2983 13.0277 29.347 12.8188 29.2431 12.9163C29.2496 12.885 29.2496 12.871 29.2528 12.8571C29.1131 13.0659 29.0546 12.8223 28.9702 12.9024L29.0157 12.7562L28.876 12.7422L28.9117 12.7909C28.7622 13.1878 28.8987 12.5021 28.72 12.7283C28.6518 12.6448 28.2619 13.4941 28.2392 13.2609C28.132 13.4315 28.3821 12.972 28.2684 13.0903C28.3367 12.8815 28.3432 12.972 28.3854 12.7979C28.2879 12.871 28.3562 12.5438 28.2295 12.6552L28.2814 12.4916C28.0768 12.7492 28.1677 12.2027 28.002 12.4603C27.8526 12.5508 28.106 11.9521 27.8851 12.2236L27.9241 11.9868C27.8916 11.9312 27.7941 12.241 27.7811 12.1157C27.8331 11.9799 27.7584 11.9799 27.8331 11.8616C27.8006 11.6005 27.4887 12.0704 27.4757 11.6422C27.3425 11.8929 27.3295 11.7014 27.2288 11.8929C27.2678 11.7745 27.0859 11.8094 27.2646 11.5935C27.2808 11.5761 27.2906 11.5865 27.2743 11.6318L27.3458 11.4787C27.375 11.1445 27.1314 11.5761 27.0631 11.4926C27.0664 11.5552 27.1054 11.5552 27.0436 11.6562L26.9754 11.6005L27.0436 11.4752L26.9592 11.3464L26.9104 11.517C26.8877 11.4056 26.9787 11.1201 26.8227 11.322C26.7415 11.4369 26.787 11.5657 26.709 11.5901C26.6765 11.4439 26.6343 11.2246 26.5563 11.1341C26.4913 11.322 26.4686 11.3012 26.4264 11.329L26.4881 11.1689C26.2964 11.3429 26.5953 10.8034 26.4231 10.9322L26.4783 10.8243L26.3159 11.141C26.095 11.4125 26.4036 10.7895 26.1242 11.1689C26.1762 11.1619 25.9975 11.5274 25.9748 11.4334L26.0528 11.2872C26.0105 11.3046 25.9748 11.3673 25.9715 11.3255C26.0235 11.2524 26.0722 11.1097 26.0235 11.1131L26.1307 10.9356L25.9358 11.1793C25.9488 10.9879 25.7668 11.148 25.8351 10.9218C25.8351 10.9218 25.7571 10.7547 25.6272 10.9739C25.7149 10.8417 25.6726 10.7511 25.7669 10.591C25.6629 10.7407 25.5102 10.8243 25.5492 10.6328L25.5654 10.6154C25.507 10.3683 25.2178 10.7373 25.1951 10.4553C25.1171 10.6398 25.0976 10.5041 25.0066 10.7442C24.7695 10.9009 24.9936 10.1525 24.6103 10.8347C24.5323 10.8417 24.62 10.6329 24.6103 10.5772L24.6428 10.5493C24.5063 10.5493 24.4706 10.5354 24.3991 10.4727C24.3244 10.518 24.1587 10.8417 24.123 10.7199C24.2107 10.605 24.1685 10.6119 24.1425 10.5945C24.1685 10.5841 24.1977 10.5388 24.2074 10.4309C24.1815 10.4692 24.162 10.4901 24.1457 10.504C24.149 10.4936 24.1522 10.4866 24.162 10.4727C24.0937 10.4936 24.0807 10.5389 24.0937 10.5667C24.084 10.5876 24.071 10.612 24.0612 10.6503C24.097 10.4588 23.9248 10.5876 24.032 10.3613C23.8728 10.3335 23.6584 10.504 23.4992 10.5214C23.5447 10.3996 23.6259 10.3161 23.6811 10.2917L23.5804 10.2847C23.6681 10.1211 23.6746 10.2186 23.7169 10.2012C23.7624 9.88445 23.3855 10.3474 23.405 10.0376L23.314 10.1524L23.3205 10.1281C23.2848 10.1943 23.2101 10.2708 23.1808 10.2847C23.2425 10.1351 23.3595 9.96103 23.301 9.93666C23.3335 9.77654 23.1418 9.92973 23.0444 9.96802C23.0606 10.0098 23.0086 10.0829 22.9664 10.1212C22.9372 10.1072 22.9989 9.96101 22.9437 10.0063L23.0476 9.81828C22.9599 10.0028 22.8689 9.96452 22.817 10.0341C22.8819 9.88446 22.9274 9.94362 22.9924 9.84267C22.8754 9.79046 22.9339 9.81483 22.817 9.76262C22.6773 9.86704 22.726 9.94708 22.6025 10.0898C22.5311 10.0898 22.4044 10.1908 22.4109 10.0376L22.3329 10.2151C22.1607 10.2813 22.1152 10.2186 22.151 10.0097C21.394 10.4274 21.0626 10.8417 20.9392 11.1654C20.8157 11.4891 20.8937 11.7154 20.8937 11.7154C20.9781 12.2932 21.4297 11.9207 21.8618 12.0287L21.8553 12.0252Z" fill="#20BB65"/>
<path d="M39.2102 15.6314L39.2232 15.7149C39.2297 15.6766 39.2297 15.6453 39.2102 15.6314Z" fill="#20BB65"/>
<path d="M45.7435 16.7423C45.7435 16.7423 45.7507 16.7315 45.7543 16.7243C45.7471 16.7315 45.7471 16.7351 45.7435 16.7423Z" fill="#20BB65"/>
<path d="M39.7537 18.5134C39.7537 18.5134 39.7465 18.5243 39.7429 18.5315L39.7573 18.5134H39.7537Z" fill="#20BB65"/>
<path d="M38.4533 18.0296C38.7879 18.1967 38.8139 18.59 39.207 18.51C39.3759 18.5761 39.5773 18.5274 39.7528 18.5134C39.8827 18.2384 39.9769 18.5518 40.1134 18.329L40.1231 18.4996C40.1686 18.423 40.2173 18.3742 40.2368 18.4682L40.2271 18.5169C40.2953 18.4021 40.3408 18.4856 40.3733 18.4299L40.3635 18.4787L40.4253 18.4682L40.4025 18.5343C40.5097 18.4195 40.6007 18.4265 40.6657 18.4996L40.6917 18.2977C40.8216 18.5518 40.9483 18.1514 41.0555 18.4404L41.0458 18.4891C41.3187 17.9983 41.2895 18.8998 41.5623 18.4369C41.5299 18.496 41.5559 18.5414 41.5461 18.5901C41.6436 18.5483 41.7443 18.5379 41.806 18.1445C41.871 18.1619 41.8417 18.2767 41.8255 18.4299C41.8515 18.2593 41.9197 18.1967 41.9717 18.1967L41.9392 18.2593L42.0952 18.2281L42.1146 17.8973C42.1764 18.0052 42.0756 18.2977 42.1601 18.2316L42.1991 17.9635C42.2966 18.0366 42.2998 18.4543 42.3745 18.6701C42.7904 18.8581 43.3557 18.2524 43.6903 18.7884L43.6806 18.9938C43.6481 19.2897 43.8527 18.5762 43.83 18.8512L43.895 18.7223C43.9015 18.778 43.921 18.8372 43.8885 18.8998C43.9307 18.9173 43.9372 18.8685 43.9827 18.785L44.0022 18.9764C44.1549 19.147 44.3466 18.8163 44.5187 18.9138C44.6844 19.321 45.1393 19.0391 45.3992 18.8755C45.7858 18.4821 46.0197 19.7179 46.4226 19.2584C46.429 19.3002 46.468 19.2131 46.4713 19.1783L46.7767 19.2654C46.7767 19.2654 48.2581 19.5856 47.4167 16.9749L47.4329 16.9123C47.2835 16.7313 47.1828 16.6826 47.0301 16.9923C47.0593 16.5921 46.8969 16.9332 46.8741 16.7974L46.8806 16.766C46.7409 17.0584 46.7019 16.4807 46.5687 16.7417C46.5752 16.7104 46.5915 16.6024 46.6142 16.599C46.5362 16.6407 46.429 16.7139 46.4518 16.4807C46.2731 16.5155 46.0489 16.3762 45.893 16.7278L45.9092 16.6652C45.815 16.9053 45.8248 16.6895 45.737 16.8079C45.737 16.7765 45.737 16.7591 45.737 16.7487C45.6363 16.9854 45.5324 16.7591 45.4642 16.8531L45.4804 16.6999L45.3407 16.7139L45.3862 16.7557C45.3115 17.1769 45.318 16.4772 45.1848 16.7348C45.1003 16.6686 44.8826 17.5841 44.8144 17.3613C44.7429 17.5528 44.8989 17.0481 44.8079 17.1873C44.8339 16.968 44.8599 17.055 44.8631 16.8775C44.7819 16.9714 44.7851 16.6373 44.6812 16.773L44.7007 16.6025C44.5512 16.8983 44.5285 16.3449 44.418 16.6338C44.2881 16.7591 44.4148 16.1151 44.2523 16.4319L44.2394 16.1917C44.1939 16.1465 44.1646 16.4702 44.1257 16.3484C44.1484 16.2022 44.0737 16.2196 44.1257 16.0873C44.0347 15.8402 43.83 16.3693 43.7228 15.9585C43.6481 16.237 43.5896 16.0525 43.5311 16.2613C43.5441 16.136 43.3687 16.2161 43.5019 15.962C43.5116 15.9411 43.5246 15.9481 43.5181 15.9968L43.5539 15.8297C43.5084 15.4956 43.3622 15.9759 43.2777 15.9133C43.2972 15.9724 43.3362 15.9655 43.294 16.0768L43.2127 16.0386L43.2517 15.8993L43.138 15.795L43.1283 15.9725C43.0795 15.8715 43.1023 15.5686 42.9951 15.8088C42.9431 15.9411 43.0178 16.056 42.9463 16.0977C42.8814 15.9655 42.7839 15.7636 42.6864 15.694C42.6669 15.8924 42.641 15.8819 42.6052 15.9167L42.6279 15.7462C42.4785 15.9655 42.6442 15.3633 42.5045 15.5339L42.5337 15.4155L42.4493 15.7671C42.2966 16.0873 42.4493 15.4016 42.2673 15.8471C42.3161 15.8263 42.2316 16.2266 42.1861 16.143L42.2251 15.9795C42.1894 16.0073 42.1699 16.0769 42.1536 16.0386C42.1861 15.9516 42.1991 15.7984 42.1536 15.8193L42.2154 15.6174L42.0854 15.9063C42.0497 15.7183 41.9132 15.9202 41.923 15.6835C41.923 15.6835 41.8028 15.5443 41.7313 15.795C41.7833 15.6418 41.7183 15.5686 41.767 15.3842C41.702 15.5582 41.5753 15.6835 41.5623 15.4851L41.5753 15.4642C41.4486 15.2414 41.2635 15.6801 41.1628 15.419C41.1368 15.6174 41.0815 15.4956 41.0588 15.7531C40.8736 15.9759 40.8768 15.1893 40.6982 15.962C40.6234 15.9899 40.6494 15.7636 40.6234 15.7184L40.6462 15.6801C40.513 15.7218 40.474 15.7218 40.3863 15.6835C40.3278 15.7497 40.2596 16.1117 40.1913 16.0107C40.2433 15.8715 40.2043 15.8924 40.1719 15.8855C40.1946 15.8681 40.2109 15.8158 40.1849 15.7114C40.1719 15.7567 40.1589 15.781 40.1459 15.8019C40.1459 15.7915 40.1459 15.781 40.1524 15.7671C40.0939 15.8089 40.0939 15.8541 40.1134 15.8785C40.1069 15.8994 40.1069 15.9272 40.1069 15.969C40.0842 15.7706 39.9542 15.9516 39.9932 15.7045C39.8275 15.7323 39.6748 15.9655 39.5286 16.0351C39.5351 15.9063 39.5871 15.7984 39.6326 15.7566L39.5319 15.7845C39.5643 15.6 39.6033 15.6905 39.6358 15.6592C39.5806 15.3424 39.3597 15.9098 39.2817 15.6105L39.2297 15.7497V15.7253C39.2135 15.8019 39.1647 15.8993 39.142 15.9202C39.1517 15.7566 39.2102 15.5512 39.142 15.5477C39.1193 15.3841 38.9861 15.5965 38.9048 15.6696C38.9341 15.7044 38.9048 15.7914 38.8821 15.8437C38.8496 15.8437 38.8594 15.68 38.8236 15.7427L38.8594 15.5269C38.8334 15.7323 38.7359 15.7288 38.7099 15.8123C38.7196 15.6487 38.7846 15.687 38.8139 15.5652C38.6839 15.5582 38.7489 15.5652 38.6189 15.5547C38.5215 15.7044 38.5929 15.7601 38.528 15.9411C38.4597 15.969 38.3753 16.1082 38.3298 15.9655L38.3168 16.1604C38.1771 16.2857 38.1121 16.2475 38.0731 16.0386C37.5079 16.7243 37.3584 17.2464 37.3552 17.5945C37.3519 17.9426 37.4916 18.1236 37.4916 18.1236C37.7483 18.6179 38.0277 18.0993 38.4533 18.0331V18.0296Z" fill="#20BB65"/>
<path d="M56.0715 17.9878L56.091 18.0714C56.091 18.0331 56.091 18.0017 56.0715 17.9878Z" fill="#20BB65"/>
<path d="M62.699 18.5244C62.699 18.5244 62.7026 18.5136 62.7062 18.5064C62.7026 18.5136 62.699 18.5173 62.699 18.5244Z" fill="#20BB65"/>
<path d="M56.8656 20.7934C56.8656 20.7934 56.8581 20.8046 56.8544 20.8159L56.8656 20.7934Z" fill="#20BB65"/>
<path d="M55.5387 20.4593C55.8831 20.588 55.9448 20.971 56.3249 20.8491C56.4971 20.8944 56.6888 20.8247 56.8642 20.7934C56.9682 20.508 57.0884 20.8074 57.2054 20.5707L57.2281 20.7412C57.2671 20.6612 57.3126 20.6054 57.3386 20.6994L57.3321 20.7482C57.3905 20.6264 57.4425 20.7064 57.4718 20.6437L57.4653 20.6924L57.527 20.6751L57.5107 20.7447C57.6082 20.6194 57.6959 20.6159 57.7707 20.6855L57.7804 20.4836C57.9298 20.7238 58.0241 20.3096 58.154 20.5916L58.1475 20.6403C58.3782 20.1251 58.4204 21.0266 58.6543 20.5393C58.6251 20.5985 58.6543 20.6437 58.6511 20.6924C58.7453 20.6437 58.846 20.6194 58.8752 20.2261C58.9402 20.2365 58.9207 20.3548 58.9175 20.5079C58.9305 20.3339 58.9922 20.2678 59.0442 20.2608L59.0149 20.327L59.1676 20.2817V19.9511C59.2359 20.052 59.1546 20.3513 59.2326 20.2782L59.2521 20.0067C59.3561 20.0694 59.3886 20.4871 59.4763 20.6959C59.9019 20.8491 60.4217 20.1982 60.7888 20.7099V20.9153C60.779 21.2146 60.935 20.4837 60.9317 20.7621L60.9902 20.6298C61 20.6855 61.0227 20.7447 60.9935 20.8073C61.0357 20.8213 61.0422 20.7725 61.0779 20.6855L61.1104 20.8735C61.2728 21.0336 61.4418 20.6855 61.6172 20.776C61.8089 21.1728 62.241 20.8596 62.4879 20.6786C62.8485 20.2609 63.1539 21.4792 63.5275 20.9988C63.5373 21.0406 63.5698 20.9501 63.573 20.9153L63.8816 20.9849C63.8816 20.9849 65.3728 21.2286 64.3917 18.6632L64.4047 18.6004C64.2455 18.4264 64.1415 18.3846 64.0051 18.7014C64.0116 18.3011 63.8686 18.6492 63.8394 18.5169L63.8459 18.4856C63.7224 18.785 63.651 18.2106 63.534 18.4787C63.5405 18.4473 63.5503 18.3359 63.573 18.3324C63.4983 18.3777 63.3943 18.4578 63.4041 18.2246C63.2286 18.2698 62.9947 18.141 62.8583 18.5031L62.8713 18.4403C62.79 18.6875 62.7868 18.4716 62.7088 18.5935C62.7088 18.5622 62.7023 18.5483 62.7056 18.5343C62.6211 18.778 62.5042 18.5553 62.4392 18.6562L62.4457 18.4996L62.306 18.5239L62.3547 18.5622C62.306 18.9869 62.2702 18.2872 62.1533 18.5552C62.0656 18.4926 61.9031 19.4219 61.8219 19.2061C61.7634 19.401 61.8836 18.8859 61.8057 19.0321C61.8187 18.8093 61.8479 18.8963 61.8414 18.7188C61.7667 18.8198 61.7472 18.4821 61.653 18.6248L61.6627 18.4508C61.5328 18.7571 61.4743 18.2072 61.3801 18.4996C61.2566 18.6318 61.3411 17.9809 61.2014 18.3081L61.1721 18.0714C61.1267 18.0296 61.1169 18.3534 61.0682 18.235C61.0812 18.0888 61.0064 18.1132 61.0487 17.974C60.9415 17.7338 60.7725 18.2803 60.6361 17.8765C60.5809 18.1584 60.5094 17.9809 60.4672 18.1932C60.4704 18.0679 60.3015 18.1584 60.4152 17.8973C60.4249 17.8764 60.4379 17.8799 60.4347 17.9287L60.4574 17.7616C60.3859 17.4344 60.2755 17.9217 60.1845 17.866C60.2073 17.9252 60.2462 17.9113 60.2137 18.0261L60.1293 17.9948L60.1585 17.8521L60.0351 17.7581V17.9356C59.9831 17.8382 59.9831 17.5354 59.8954 17.7825C59.8531 17.9183 59.9376 18.0261 59.8661 18.0748C59.7914 17.946 59.6777 17.7546 59.577 17.692C59.5705 17.8904 59.5445 17.8834 59.512 17.9217L59.5217 17.7477C59.3885 17.9774 59.5088 17.3648 59.382 17.5458L59.4015 17.4274L59.3431 17.786C59.2131 18.1201 59.3171 17.424 59.1676 17.88C59.2131 17.8556 59.1579 18.2628 59.1092 18.1828L59.1351 18.0157C59.1026 18.047 59.0864 18.1166 59.0702 18.0818C59.0962 17.9948 59.0994 17.8417 59.0507 17.866L59.0962 17.6606L58.989 17.96C58.937 17.7755 58.8168 17.9913 58.807 17.7546C58.807 17.7546 58.6738 17.6259 58.6218 17.8835C58.6641 17.7268 58.5893 17.6571 58.6283 17.4727C58.5763 17.6502 58.4594 17.7894 58.4302 17.5945L58.4399 17.5736C58.297 17.3648 58.1443 17.8207 58.0208 17.5701C58.0111 17.772 57.9428 17.6571 57.9428 17.9147C57.7739 18.1549 57.7154 17.3717 57.5985 18.1584C57.527 18.1967 57.5335 17.9669 57.501 17.9217L57.5205 17.88C57.3873 17.9357 57.3516 17.9391 57.2606 17.9112C57.2086 17.9843 57.1696 18.3498 57.0917 18.2558C57.1306 18.1131 57.0917 18.1375 57.0624 18.1341C57.0852 18.1132 57.0949 18.061 57.0624 17.9565C57.0527 18.0018 57.0429 18.0296 57.0299 18.0505C57.0299 18.0401 57.0299 18.0296 57.0299 18.0157C56.9747 18.0644 56.978 18.1097 57.0007 18.1306C57.0007 18.1515 56.9974 18.1828 57.0007 18.2211C56.9617 18.0262 56.848 18.2211 56.861 17.9705C56.6985 18.0157 56.5654 18.2663 56.4257 18.3498C56.4224 18.2176 56.4614 18.1062 56.5036 18.061L56.4062 18.0992C56.4224 17.9147 56.4679 17.9983 56.5004 17.9635C56.4159 17.6537 56.247 18.2455 56.1398 17.9565L56.1008 18.1027L56.0943 18.0783C56.0878 18.1549 56.0488 18.2594 56.0293 18.2837C56.026 18.1201 56.0618 17.9112 55.9968 17.9147C55.9578 17.7546 55.8441 17.9809 55.7726 18.061C55.8051 18.0923 55.7856 18.1793 55.7661 18.235C55.7337 18.235 55.7304 18.0749 55.6979 18.141L55.7142 17.9217C55.7077 18.1271 55.6102 18.1376 55.5907 18.2246C55.5875 18.061 55.6524 18.0888 55.6719 17.967C55.542 17.9774 55.607 17.9705 55.477 17.9809C55.3925 18.141 55.4705 18.1897 55.4218 18.3777C55.3568 18.416 55.2853 18.5622 55.2268 18.4264L55.2334 18.6214C55.1067 18.7606 55.0384 18.7327 54.9799 18.5308C53.9858 20.0381 54.6096 20.6716 54.6096 20.6716C54.9085 21.1276 55.1326 20.5811 55.5485 20.4627L55.5387 20.4593Z" fill="#20BB65"/>
<path d="M73.0919 19.2688L73.1147 19.3524C73.1147 19.3141 73.1114 19.2828 73.0919 19.2688Z" fill="#20BB65"/>
<path d="M79.755 19.621C79.755 19.621 79.7586 19.6102 79.7622 19.603C79.7586 19.6102 79.755 19.6138 79.755 19.621Z" fill="#20BB65"/>
<path d="M73.9733 22.0535C73.9733 22.0535 73.9696 22.0647 73.9658 22.076L73.9771 22.0535H73.9733Z" fill="#20BB65"/>
<path d="M72.6403 21.7541C72.9879 21.8725 73.0626 22.2554 73.4363 22.1231C73.6084 22.1649 73.8001 22.0883 73.9723 22.0535C74.0698 21.7646 74.1965 22.0604 74.3037 21.8203L74.3329 21.9873C74.3687 21.9038 74.4109 21.8516 74.4401 21.9421V21.9908C74.4921 21.869 74.5441 21.9456 74.5701 21.883V21.9317L74.6253 21.9142L74.6123 21.9839C74.7065 21.8551 74.7943 21.8516 74.869 21.9177V21.7159C75.0282 21.9526 75.1094 21.5348 75.2458 21.8133V21.8621C75.4603 21.3399 75.522 22.2415 75.7461 21.7472C75.7169 21.8098 75.7526 21.8516 75.7461 21.9003C75.8404 21.8481 75.9378 21.8238 75.9606 21.427C76.0255 21.4374 76.0093 21.5558 76.0093 21.7089C76.019 21.5349 76.0775 21.4653 76.1295 21.4583L76.1035 21.5244L76.253 21.4722L76.24 21.1415C76.3147 21.239 76.24 21.5418 76.3179 21.4687L76.3309 21.1973C76.4349 21.2564 76.4771 21.6706 76.5713 21.8795C77.0002 22.0222 77.5005 21.3539 77.8839 21.8551L77.8904 22.0605C77.8839 22.3599 78.0236 21.6253 78.0268 21.9038L78.082 21.7716C78.0918 21.8273 78.1178 21.883 78.0918 21.9491C78.134 21.963 78.1373 21.9142 78.173 21.8272L78.2087 22.0152C78.3744 22.1684 78.5369 21.8203 78.7123 21.9038C78.9105 22.2936 79.3361 21.97 79.5797 21.782C79.9306 21.3539 80.2587 22.5652 80.6226 22.0744C80.6323 22.1161 80.6648 22.0221 80.6648 21.9908L80.9735 22.05C80.9735 22.05 82.4712 22.2519 81.4478 19.7144L81.4575 19.6517C81.2951 19.4846 81.1911 19.4429 81.0579 19.7631C81.0579 19.3628 80.9215 19.7144 80.889 19.5821L80.8955 19.5507C80.7785 19.8536 80.6941 19.2827 80.5836 19.5507C80.5901 19.5194 80.5966 19.408 80.6193 19.4046C80.5446 19.4498 80.4407 19.5333 80.4472 19.3001C80.2717 19.3523 80.0346 19.2305 79.9046 19.596L79.9143 19.5334C79.8396 19.7805 79.8299 19.5647 79.7519 19.69C79.7519 19.6587 79.7454 19.6448 79.7454 19.6309C79.6642 19.8745 79.5407 19.6587 79.4823 19.7596V19.603L79.3458 19.6309L79.3945 19.6656C79.3556 20.0903 79.3036 19.3941 79.1899 19.6656C79.0989 19.6065 78.9559 20.5394 78.8715 20.327C78.8162 20.522 78.9267 20.0068 78.852 20.1565C78.8617 19.9337 78.891 20.0207 78.8812 19.8397C78.8098 19.9406 78.7805 19.6065 78.6895 19.7527L78.6961 19.5786C78.5726 19.8884 78.5011 19.3384 78.4134 19.6378C78.2932 19.7735 78.3647 19.1192 78.2282 19.4533L78.1957 19.2166C78.147 19.1748 78.147 19.502 78.095 19.3837C78.1048 19.2375 78.0301 19.2618 78.069 19.1226C77.9553 18.8859 77.7961 19.4359 77.6532 19.0356C77.6012 19.321 77.5265 19.1435 77.4907 19.3594C77.4907 19.234 77.3251 19.328 77.4323 19.0634C77.442 19.0426 77.455 19.0461 77.4518 19.0948L77.4712 18.9242C77.3933 18.597 77.2893 19.0913 77.2016 19.0356C77.2276 19.0947 77.2633 19.0809 77.2341 19.1958L77.1496 19.1679L77.1756 19.0252L77.0522 18.9347L77.0619 19.1122C77.0034 19.0182 76.9969 18.7153 76.9125 18.9625C76.8735 19.1017 76.9612 19.2062 76.8897 19.2549C76.8118 19.1296 76.6948 18.9416 76.5876 18.8824C76.5876 19.0843 76.5583 19.0739 76.5259 19.1122L76.5324 18.9382C76.4057 19.1714 76.5096 18.5553 76.3862 18.7398L76.4024 18.6179L76.3537 18.9764C76.2335 19.3141 76.3179 18.6144 76.1782 19.0774C76.2237 19.0495 76.1782 19.4602 76.1295 19.3802L76.1522 19.2131C76.1198 19.2479 76.1068 19.3176 76.0873 19.2793C76.11 19.1888 76.11 19.0356 76.0613 19.0634L76.1035 18.8546L76.0028 19.1574C75.9476 18.973 75.8306 19.1922 75.8144 18.9555C75.8144 18.9555 75.6779 18.8337 75.6324 19.0878C75.6682 18.9277 75.5934 18.8651 75.6259 18.6771C75.5805 18.8546 75.4635 18.9973 75.431 18.8024L75.4408 18.7815C75.2913 18.5761 75.1516 19.0356 75.0217 18.7884C75.0184 18.9903 74.9469 18.8755 74.9534 19.133C74.791 19.3767 74.7098 18.597 74.6123 19.3871C74.5408 19.4254 74.5408 19.1957 74.5084 19.154L74.5278 19.1122C74.3979 19.1714 74.3589 19.1748 74.2679 19.1505C74.216 19.2236 74.19 19.5925 74.112 19.4986C74.1477 19.3524 74.112 19.3802 74.0795 19.3767C74.1022 19.3558 74.1088 19.3002 74.073 19.1992C74.0633 19.2445 74.0535 19.2723 74.0438 19.2932C74.0438 19.2827 74.0438 19.2723 74.0438 19.2584C73.9885 19.3071 73.9951 19.3524 74.0178 19.3733C74.0178 19.3942 74.0178 19.4254 74.021 19.4637C73.9755 19.2723 73.8684 19.4672 73.8749 19.2166C73.7124 19.2653 73.5857 19.5195 73.4493 19.61C73.4428 19.4812 73.4785 19.3663 73.5175 19.3175L73.42 19.3594C73.4298 19.1714 73.4785 19.2549 73.511 19.2201C73.4168 18.9138 73.2641 19.509 73.1504 19.2236L73.1146 19.3698L73.1081 19.3454C73.1049 19.422 73.0691 19.5264 73.0496 19.5507C73.0399 19.3871 73.0691 19.1783 73.0042 19.1818C72.9619 19.0217 72.8547 19.2514 72.7832 19.335C72.819 19.3628 72.8027 19.4533 72.7832 19.509C72.7508 19.5125 72.741 19.3489 72.7118 19.4185L72.7215 19.1992C72.7215 19.4081 72.6241 19.4185 72.6078 19.5055C72.5981 19.3419 72.6663 19.3698 72.6793 19.2479C72.5493 19.2619 72.6143 19.2549 72.4844 19.2688C72.4064 19.429 72.4844 19.4777 72.4421 19.6656C72.3771 19.7039 72.3122 19.8536 72.2472 19.7179L72.2602 19.9128C72.1367 20.0555 72.0685 20.0311 72.0035 19.8292C71.0646 21.3643 71.7079 21.9804 71.7079 21.9804C72.023 22.4295 72.2277 21.8725 72.6338 21.7437L72.6403 21.7541Z" fill="#20BB65"/>
<path d="M90.1807 20.2538L90.2034 20.3374C90.2034 20.2991 90.2002 20.2678 90.1807 20.2538Z" fill="#20BB65"/>
<path d="M96.8535 20.6513C96.8535 20.6513 96.8571 20.6405 96.8607 20.6333C96.8571 20.6405 96.8535 20.6441 96.8535 20.6513Z" fill="#20BB65"/>
<path d="M91.0588 23.042C91.0588 23.042 91.055 23.0533 91.0513 23.0646L91.0625 23.042H91.0588Z" fill="#20BB65"/>
<path d="M89.7288 22.7358C90.0765 22.8576 90.1479 23.2405 90.5216 23.1082C90.6937 23.15 90.8854 23.0734 91.0576 23.042C91.1551 22.7531 91.2818 23.0525 91.389 22.8123L91.4182 22.9829C91.4572 22.8993 91.4962 22.8472 91.5254 22.9377V22.9864C91.5774 22.8645 91.6294 22.9411 91.6554 22.8819V22.9307L91.7106 22.9133L91.6976 22.9829C91.7918 22.8541 91.8795 22.8506 91.9543 22.9168V22.7149C92.1135 22.9515 92.1979 22.5373 92.3311 22.8123V22.861C92.5456 22.3424 92.6073 23.244 92.8314 22.7497C92.8022 22.8123 92.8347 22.8541 92.8314 22.9028C92.9257 22.8506 93.0231 22.8262 93.0459 22.4294C93.1108 22.4398 93.0913 22.5582 93.0913 22.7114C93.1011 22.5373 93.1628 22.4677 93.2148 22.4608L93.1888 22.5269L93.3383 22.4782L93.3285 22.1475C93.4 22.2485 93.3285 22.5478 93.4065 22.4747L93.4195 22.2032C93.5234 22.2624 93.5657 22.68 93.6566 22.8854C94.0822 23.0281 94.589 22.3667 94.9659 22.8715L94.9724 23.0769C94.9627 23.3762 95.1088 22.6418 95.1088 22.9203L95.1641 22.7879C95.1738 22.8436 95.1998 22.8993 95.1706 22.9655C95.2128 22.9794 95.2161 22.9307 95.255 22.8437L95.2908 23.0316C95.4532 23.1882 95.6189 22.8367 95.7976 22.9237C95.9925 23.3171 96.4181 22.9933 96.6683 22.8088C97.0256 22.3842 97.3375 23.5955 97.7046 23.1082C97.7144 23.15 97.7469 23.0595 97.7501 23.0247L98.0555 23.0873C98.0555 23.0873 99.5499 23.2962 98.5623 20.7552L98.5753 20.6925C98.4161 20.5219 98.3122 20.4836 98.1725 20.8004C98.179 20.4001 98.036 20.7516 98.0035 20.6194L98.01 20.5881C97.8866 20.8909 97.8118 20.3201 97.6949 20.5881C97.7014 20.5568 97.7111 20.4453 97.7339 20.4418C97.6592 20.4871 97.5519 20.5706 97.5617 20.3374C97.383 20.3861 97.1491 20.2643 97.0159 20.6298L97.0289 20.5672C96.9509 20.8143 96.9444 20.5985 96.8664 20.7238C96.8664 20.6925 96.8599 20.6786 96.8632 20.6647C96.7787 20.9083 96.6585 20.689 96.5968 20.7934L96.6033 20.6368L96.4636 20.6647L96.5123 20.6994C96.4701 21.1241 96.4246 20.4244 96.3077 20.6959C96.2167 20.6368 96.064 21.5697 95.9828 21.3539C95.9243 21.5488 96.0413 21.0336 95.9633 21.1833C95.973 20.9605 96.0023 21.0475 95.9958 20.8665C95.921 20.9674 95.8983 20.6333 95.8041 20.776L95.8106 20.602C95.6839 20.9117 95.6189 20.3618 95.5279 20.6577C95.4077 20.7935 95.4825 20.139 95.346 20.4697L95.3135 20.233C95.2648 20.1913 95.2615 20.5185 95.2128 20.4001C95.2258 20.2539 95.1478 20.2783 95.1901 20.1391C95.0764 19.9024 94.9139 20.4488 94.771 20.0485C94.719 20.334 94.6443 20.1564 94.6053 20.3688C94.6053 20.2435 94.4396 20.3374 94.55 20.0729C94.5598 20.052 94.5728 20.0555 94.5695 20.1042L94.589 19.9337C94.5143 19.6065 94.4071 20.1008 94.3161 20.0451C94.3421 20.1042 94.3779 20.0903 94.3486 20.2052L94.2641 20.1773L94.2901 20.0346L94.1667 19.9441L94.1732 20.1216C94.1147 20.0277 94.1115 19.7248 94.0237 19.972C93.9848 20.1112 94.0692 20.2156 94.001 20.2643C93.923 20.139 93.8061 19.9476 93.7021 19.8884C93.7021 20.0869 93.6729 20.0799 93.6404 20.1181L93.6469 19.9441C93.5169 20.1773 93.6274 19.5612 93.5007 19.7457L93.5169 19.6274L93.465 19.9858C93.3415 20.3235 93.4292 19.6238 93.2895 20.0833C93.335 20.0555 93.2895 20.4662 93.2375 20.3862L93.2603 20.2191C93.2278 20.2539 93.2148 20.32 93.1953 20.2852C93.218 20.1947 93.218 20.0416 93.1726 20.0695L93.2148 19.8641L93.1108 20.1668C93.0556 19.9824 92.9386 20.2017 92.9224 19.965C92.9224 19.965 92.7859 19.8397 92.7405 20.0972C92.7794 19.9406 92.7015 19.871 92.7372 19.6865C92.6917 19.8641 92.5748 20.0067 92.539 19.8118L92.5488 19.791C92.3994 19.5821 92.2597 20.0451 92.1265 19.7945C92.1232 19.9963 92.0517 19.8815 92.055 20.1391C91.8925 20.3827 91.8113 19.5995 91.7139 20.3897C91.6424 20.428 91.6424 20.1982 91.6099 20.1565L91.6294 20.1147C91.4994 20.1704 91.4604 20.1774 91.3662 20.153C91.3143 20.2261 91.2883 20.5951 91.207 20.5011C91.2428 20.3549 91.2071 20.3827 91.1746 20.3792C91.1973 20.3583 91.2038 20.3026 91.1681 20.2017C91.1583 20.2469 91.1486 20.2748 91.1388 20.2957C91.1388 20.2852 91.1388 20.2748 91.1388 20.2608C91.0836 20.3096 91.0901 20.3548 91.1128 20.3757C91.1128 20.3966 91.1128 20.4279 91.1161 20.4697C91.0706 20.2783 90.9634 20.4697 90.9699 20.2191C90.8074 20.2678 90.6807 20.5184 90.5443 20.6089C90.5378 20.4766 90.5735 20.3653 90.6158 20.3166L90.5183 20.3583C90.528 20.1703 90.5768 20.2539 90.6093 20.2191C90.515 19.9093 90.3623 20.5045 90.2454 20.2191L90.2097 20.3653L90.2032 20.3409C90.1999 20.4175 90.1642 20.5219 90.1447 20.5463C90.1349 20.3827 90.1642 20.1738 90.0992 20.1773C90.057 20.0172 89.9498 20.247 89.8783 20.3305C89.914 20.3618 89.8978 20.4489 89.8783 20.5046C89.8458 20.5046 89.8361 20.3444 89.8068 20.4141L89.8165 20.1947C89.8165 20.4036 89.7191 20.4106 89.7028 20.5011C89.6931 20.3375 89.7613 20.3653 89.7743 20.2435C89.6444 20.2539 89.7093 20.2504 89.5794 20.2608C89.5014 20.421 89.5794 20.4697 89.5372 20.6577C89.4722 20.696 89.4072 20.8456 89.3422 20.7099L89.3552 20.9048C89.2318 21.0475 89.1636 21.0232 89.0986 20.8213C88.1629 22.3494 88.8062 22.9724 88.8062 22.9724C89.1213 23.4249 89.3227 22.868 89.7321 22.7427L89.7288 22.7358Z" fill="#20BB65"/>
<path d="M107.286 21.5279L107.305 21.6115C107.305 21.5732 107.305 21.5418 107.286 21.5279Z" fill="#20BB65"/>
<path d="M113.952 22.2282C113.952 22.2282 113.956 22.2173 113.963 22.2101C113.956 22.2173 113.956 22.221 113.952 22.2282Z" fill="#20BB65"/>
<path d="M108.073 24.3578C108.073 24.3578 108.066 24.3691 108.062 24.3803L108.073 24.3578Z" fill="#20BB65"/>
<path d="M106.759 23.9923C107.1 24.128 107.162 24.5145 107.536 24.3996C107.704 24.4483 107.896 24.3821 108.068 24.3543C108.176 24.0689 108.289 24.3752 108.406 24.1385L108.429 24.3091C108.468 24.229 108.513 24.1768 108.536 24.2708L108.53 24.3195C108.588 24.1977 108.637 24.2812 108.669 24.2186L108.663 24.2673L108.725 24.2533L108.708 24.323C108.806 24.1977 108.894 24.2011 108.965 24.2673L108.978 24.0654C109.124 24.3091 109.222 23.8983 109.345 24.1803L109.339 24.229C109.576 23.7208 109.602 24.6224 109.845 24.142C109.816 24.2012 109.845 24.2464 109.839 24.2952C109.933 24.2464 110.034 24.229 110.07 23.8322C110.135 23.8461 110.112 23.961 110.105 24.1141C110.122 23.9401 110.183 23.874 110.239 23.8705L110.209 23.9331L110.362 23.8914V23.5607C110.433 23.6616 110.346 23.961 110.427 23.8914L110.453 23.6199C110.554 23.686 110.58 24.1002 110.664 24.3126C111.083 24.4762 111.616 23.8357 111.967 24.3543V24.5597C111.941 24.8556 112.12 24.1316 112.107 24.41L112.168 24.2812C112.175 24.3369 112.198 24.3961 112.168 24.4587C112.211 24.4761 112.217 24.4274 112.256 24.3404L112.282 24.5283C112.438 24.6919 112.62 24.3508 112.789 24.4413C112.964 24.8416 113.406 24.5388 113.66 24.3648C114.036 23.9575 114.29 25.1793 114.68 24.7094C114.686 24.7511 114.725 24.6606 114.728 24.6258L115.031 24.7024C115.031 24.7024 116.512 24.9774 115.654 22.3981L115.671 22.3354C115.518 22.1613 115.417 22.1126 115.261 22.4259C115.287 22.0256 115.128 22.3703 115.102 22.238L115.109 22.2066C114.972 22.5025 114.923 21.9282 114.793 22.1927C114.8 22.1614 114.816 22.0535 114.839 22.05C114.761 22.0918 114.65 22.1683 114.673 21.9386C114.491 21.9804 114.261 21.8481 114.111 22.2032L114.124 22.1405C114.033 22.3842 114.04 22.1683 113.952 22.2867C113.952 22.2554 113.949 22.2415 113.952 22.2275C113.858 22.4677 113.747 22.2449 113.679 22.3424L113.692 22.1892L113.552 22.2101L113.601 22.2484C113.539 22.6695 113.526 21.97 113.396 22.2345C113.309 22.1719 113.114 23.0942 113.039 22.8749C112.971 23.0699 113.114 22.5582 113.029 22.7009C113.049 22.4781 113.075 22.5652 113.078 22.3877C113 22.4851 112.99 22.1509 112.893 22.2902L112.906 22.1161C112.763 22.419 112.724 21.8656 112.62 22.1579C112.493 22.2867 112.597 21.6393 112.445 21.963L112.422 21.7262C112.376 21.6845 112.357 22.0083 112.311 21.8899C112.331 21.7437 112.253 21.7646 112.298 21.6289C112.194 21.3852 112.009 21.9282 111.882 21.5209C111.817 21.8029 111.753 21.6218 111.704 21.8342C111.71 21.7089 111.538 21.7959 111.658 21.5349C111.668 21.514 111.681 21.5209 111.678 21.5661L111.707 21.3991C111.645 21.0684 111.519 21.5557 111.428 21.4965C111.45 21.5557 111.489 21.5453 111.454 21.6601L111.369 21.6289L111.402 21.4896L111.281 21.3921V21.5696C111.226 21.4722 111.236 21.1693 111.138 21.413C111.093 21.5488 111.174 21.6567 111.103 21.7054C111.031 21.5766 110.921 21.3817 110.817 21.3155C110.807 21.5139 110.781 21.5035 110.745 21.5418L110.758 21.3678C110.622 21.594 110.752 20.9849 110.619 21.1624L110.641 21.044L110.576 21.4025C110.44 21.7332 110.554 21.0371 110.398 21.493C110.446 21.4687 110.381 21.876 110.336 21.7959L110.365 21.6323C110.333 21.6637 110.313 21.7333 110.297 21.695C110.323 21.6079 110.33 21.4547 110.281 21.4791L110.33 21.2738L110.216 21.5696C110.167 21.3851 110.04 21.5975 110.037 21.3573C110.037 21.3573 109.907 21.2285 109.849 21.4791C109.891 21.3225 109.819 21.2529 109.858 21.0684C109.806 21.2459 109.683 21.3817 109.657 21.1833L109.667 21.1624C109.524 20.9466 109.368 21.4026 109.244 21.1484C109.231 21.3503 109.166 21.232 109.163 21.4896C108.991 21.7263 108.936 20.9396 108.812 21.7262C108.741 21.761 108.747 21.5313 108.718 21.4861L108.738 21.4478C108.604 21.5001 108.569 21.5035 108.474 21.4721C108.419 21.5452 108.38 21.9107 108.306 21.8133C108.344 21.6705 108.306 21.695 108.276 21.6915C108.299 21.6706 108.309 21.6184 108.276 21.514C108.267 21.5592 108.254 21.5871 108.244 21.6079C108.244 21.5975 108.244 21.587 108.244 21.5731C108.185 21.6184 108.192 21.6671 108.215 21.688C108.215 21.7089 108.211 21.7402 108.215 21.782C108.176 21.5871 108.062 21.7785 108.075 21.5279C107.912 21.5697 107.776 21.8167 107.636 21.9003C107.633 21.768 107.672 21.6567 107.714 21.6114L107.617 21.6497C107.633 21.4652 107.679 21.5488 107.711 21.514C107.627 21.2007 107.454 21.7889 107.347 21.5L107.308 21.6427L107.302 21.6184C107.295 21.695 107.256 21.7993 107.237 21.8202C107.23 21.6566 107.269 21.4478 107.204 21.4513C107.165 21.2912 107.051 21.5139 106.977 21.594C107.009 21.6253 106.993 21.7124 106.97 21.7681C106.938 21.7681 106.931 21.6044 106.902 21.6741L106.918 21.4548C106.915 21.6637 106.814 21.6671 106.795 21.7541C106.788 21.5905 106.857 21.6218 106.876 21.5C106.746 21.507 106.811 21.5 106.678 21.5105C106.597 21.6671 106.675 21.7193 106.626 21.9073C106.561 21.9421 106.489 22.0883 106.431 21.9491L106.437 22.144C106.311 22.2832 106.243 22.2519 106.184 22.0465C105.206 23.5329 105.833 24.1872 105.833 24.1872C106.132 24.6537 106.35 24.1072 106.759 23.9992V23.9923Z" fill="#20BB65"/>
<path d="M124.348 23.8044L124.361 23.8879C124.368 23.8497 124.364 23.8183 124.348 23.8044Z" fill="#20BB65"/>
<path d="M130.947 25.246C130.947 25.246 130.954 25.2352 130.957 25.228C130.95 25.2316 130.947 25.2388 130.947 25.246Z" fill="#20BB65"/>
<path d="M124.898 26.683C124.898 26.683 124.891 26.6938 124.887 26.701L124.902 26.683H124.898Z" fill="#20BB65"/>
<path d="M123.627 26.2131C123.955 26.3732 123.984 26.7631 124.364 26.6796C124.53 26.7422 124.725 26.6935 124.897 26.6796C125.027 26.4046 125.115 26.7179 125.251 26.4951L125.258 26.6657C125.303 26.5891 125.352 26.5403 125.368 26.6378L125.358 26.6865C125.427 26.5716 125.469 26.6586 125.505 26.5994L125.495 26.6482L125.557 26.6378L125.534 26.7039C125.641 26.589 125.729 26.5995 125.794 26.6726L125.823 26.4742C125.943 26.7283 126.08 26.3314 126.177 26.6238L126.167 26.6726C126.45 26.1888 126.392 27.0903 126.674 26.6343C126.639 26.69 126.665 26.7387 126.655 26.7874C126.752 26.7491 126.853 26.7422 126.928 26.3523C126.989 26.3732 126.957 26.4846 126.937 26.6378C126.97 26.4672 127.038 26.4081 127.09 26.4081L127.054 26.4672L127.207 26.4393L127.24 26.1122C127.298 26.2201 127.184 26.509 127.272 26.4463L127.324 26.1783C127.418 26.2549 127.402 26.6726 127.464 26.8919C127.86 27.1007 128.451 26.5264 128.744 27.0868L128.718 27.2922C128.666 27.5846 128.916 26.8849 128.874 27.1599L128.948 27.038C128.948 27.0937 128.965 27.1564 128.929 27.2156C128.968 27.2365 128.981 27.1913 129.03 27.1077L129.036 27.2991C129.173 27.4801 129.387 27.1669 129.546 27.2783C129.673 27.6995 130.141 27.4592 130.41 27.3235C130.829 26.9719 130.927 28.225 131.366 27.8177C131.366 27.863 131.414 27.776 131.424 27.7447L131.71 27.8665C131.71 27.8665 132.061 27.9953 132.35 27.79C132.639 27.5811 132.879 27.0416 132.623 25.6875L132.646 25.6284C132.519 25.4265 132.421 25.3638 132.226 25.6492C132.304 25.2558 132.1 25.5726 132.09 25.4334L132.103 25.4021C131.931 25.6736 131.954 25.0958 131.791 25.3359C131.801 25.3046 131.83 25.2002 131.853 25.2002C131.768 25.2316 131.651 25.2907 131.7 25.0609C131.515 25.0749 131.301 24.9043 131.109 25.2385L131.132 25.1793C131.015 25.4056 131.044 25.1932 130.943 25.3011C130.943 25.2698 130.943 25.2524 130.95 25.242C130.826 25.4647 130.742 25.228 130.664 25.315L130.693 25.1619H130.55L130.592 25.2071C130.482 25.6178 130.547 24.9217 130.391 25.1654C130.31 25.0888 130.014 25.9799 129.965 25.7536C129.878 25.9381 130.076 25.4473 129.975 25.5796C130.021 25.3638 130.037 25.4508 130.056 25.2733C129.969 25.3603 129.995 25.0261 129.881 25.1514L129.913 24.9809C129.738 25.2628 129.757 24.7094 129.624 24.9844C129.484 25.0958 129.657 24.4658 129.471 24.7651V24.5249C129.432 24.4761 129.38 24.7964 129.348 24.6711C129.38 24.5284 129.303 24.5389 129.364 24.4101C129.286 24.156 129.046 24.6711 128.958 24.2499C128.864 24.5214 128.815 24.3369 128.747 24.5388C128.766 24.417 128.585 24.4797 128.731 24.236C128.744 24.2151 128.757 24.222 128.747 24.2708L128.792 24.1072C128.763 23.773 128.588 24.2394 128.503 24.1698C128.52 24.2325 128.559 24.2256 128.513 24.3335L128.432 24.2917L128.477 24.156L128.364 24.0446L128.347 24.2221C128.302 24.1177 128.338 23.8183 128.217 24.048C128.159 24.1768 128.23 24.2952 128.152 24.3335C128.091 24.1977 128 23.9888 127.902 23.9122C127.873 24.1107 127.847 24.0968 127.808 24.1281L127.837 23.9575C127.678 24.1664 127.867 23.5746 127.717 23.7382L127.75 23.6234L127.652 23.9715C127.486 24.2848 127.665 23.606 127.464 24.0411C127.516 24.0202 127.412 24.4205 127.373 24.3335L127.418 24.1733C127.382 24.2012 127.357 24.2673 127.344 24.2291C127.379 24.1455 127.399 23.9923 127.347 24.0097L127.415 23.8114L127.272 24.0933C127.24 23.9018 127.093 24.1002 127.11 23.8635C127.11 23.8635 126.989 23.7208 126.911 23.9645C126.97 23.8148 126.902 23.7382 126.96 23.5572C126.892 23.7278 126.755 23.8496 126.746 23.6512L126.759 23.6304C126.635 23.4041 126.437 23.8392 126.336 23.5711C126.307 23.7695 126.252 23.6477 126.223 23.9018C126.031 24.1211 126.044 23.3344 125.852 24.1037C125.778 24.1316 125.804 23.9053 125.778 23.8566L125.8 23.8183C125.664 23.8565 125.625 23.8565 125.534 23.8183C125.472 23.8844 125.404 24.2465 125.336 24.142C125.388 24.0028 125.349 24.0236 125.316 24.0167C125.339 23.9993 125.355 23.9471 125.332 23.8426C125.319 23.8879 125.306 23.9123 125.293 23.9331C125.293 23.9227 125.294 23.9123 125.3 23.8984C125.238 23.9402 125.242 23.9854 125.261 24.0097C125.255 24.0306 125.255 24.0585 125.255 24.1002C125.232 23.9018 125.102 24.0828 125.138 23.8322C124.969 23.86 124.813 24.0932 124.667 24.1629C124.673 24.0306 124.722 23.9262 124.77 23.8845L124.67 23.9122C124.702 23.7278 124.741 23.8183 124.777 23.787C124.715 23.4702 124.498 24.041 124.413 23.7417L124.361 23.881V23.8566C124.345 23.9332 124.299 24.0341 124.277 24.055C124.283 23.8914 124.338 23.686 124.273 23.6825C124.247 23.5189 124.117 23.7313 124.036 23.8079C124.069 23.8427 124.043 23.9297 124.017 23.9819C123.984 23.9819 123.991 23.8183 123.955 23.881L123.987 23.6651C123.968 23.8705 123.867 23.8705 123.841 23.9541C123.848 23.7905 123.913 23.8253 123.942 23.7069C123.809 23.7034 123.877 23.7069 123.744 23.7C123.65 23.8496 123.724 23.9053 123.659 24.0898C123.591 24.1211 123.51 24.2604 123.461 24.1176L123.451 24.3126C123.315 24.4414 123.25 24.4065 123.205 24.1977C122.116 25.6109 122.691 26.3036 122.691 26.3036C122.954 26.7875 123.211 26.2583 123.627 26.1818V26.2131Z" fill="#20BB65"/>
<path d="M141.005 28.8516L140.998 28.9386C141.012 28.9038 141.019 28.8725 141.005 28.8516Z" fill="#20BB65"/>
<path d="M146.956 32.573C146.956 32.573 146.966 32.5694 146.973 32.5622C146.966 32.5622 146.96 32.5694 146.956 32.573Z" fill="#20BB65"/>
<path d="M140.843 31.786C140.843 31.786 140.833 31.7968 140.829 31.8004L140.846 31.786H140.843Z" fill="#20BB65"/>
<path d="M139.757 31.0027C140.033 31.2394 139.965 31.6258 140.342 31.6433C140.482 31.7442 140.673 31.7511 140.839 31.7859C141.031 31.5562 141.034 31.8834 141.219 31.7024L141.18 31.8695C141.242 31.8103 141.3 31.7755 141.291 31.8695L141.268 31.9112C141.362 31.8207 141.378 31.9112 141.427 31.8695L141.404 31.9112L141.466 31.9182L141.427 31.9739C141.557 31.8939 141.638 31.9286 141.677 32.0191L141.758 31.8381C141.804 32.1166 142.038 31.7789 142.048 32.0852L142.025 32.1271C142.421 31.7511 142.119 32.59 142.509 32.2454C142.46 32.2872 142.47 32.3429 142.447 32.3846C142.548 32.3812 142.642 32.4021 142.827 32.0575C142.879 32.0957 142.814 32.1932 142.753 32.329C142.834 32.1758 142.915 32.1445 142.964 32.1619L142.912 32.2071L143.064 32.2315L143.194 31.9321C143.217 32.0539 143.025 32.2871 143.126 32.2593L143.253 32.0226C143.318 32.127 143.178 32.5169 143.168 32.7432C143.464 33.0634 144.195 32.7362 144.273 33.3697L144.182 33.5508C144.033 33.8049 144.5 33.2444 144.367 33.4845L144.474 33.3975C144.458 33.4497 144.448 33.5125 144.396 33.5542C144.426 33.589 144.452 33.5472 144.523 33.4915L144.461 33.6725C144.517 33.8918 144.822 33.683 144.923 33.8466C144.884 34.2817 145.381 34.2399 145.673 34.233C146.187 34.0937 145.764 35.2598 146.307 35.0858C146.287 35.1241 146.365 35.0718 146.388 35.0474L146.58 35.2877C146.58 35.2877 146.641 35.3538 146.745 35.4164C146.846 35.4791 146.989 35.5383 147.161 35.5209C147.496 35.4756 147.973 35.1485 148.334 33.8083L148.38 33.7665C148.35 33.5159 148.285 33.4114 147.99 33.5646C148.224 33.2513 147.905 33.4288 147.954 33.3035L147.977 33.2827C147.707 33.4359 147.964 32.9276 147.713 33.0669C147.736 33.046 147.804 32.9624 147.827 32.9764C147.736 32.9624 147.603 32.959 147.739 32.7745C147.561 32.6945 147.424 32.4334 147.116 32.6492L147.158 32.6039C146.96 32.757 147.067 32.5761 146.937 32.6283C146.95 32.6004 146.957 32.5865 146.963 32.5761C146.765 32.7258 146.775 32.4647 146.667 32.5135L146.752 32.3881L146.615 32.3255L146.641 32.3846C146.388 32.7118 146.703 32.1026 146.466 32.2558C146.417 32.1479 145.819 32.8441 145.855 32.6143C145.709 32.7466 146.066 32.3777 145.923 32.4577C146.044 32.2767 146.027 32.3637 146.109 32.2106C145.995 32.2524 146.138 31.9565 145.985 32.0226L146.076 31.8799C145.813 32.0679 146.021 31.5597 145.8 31.7615C145.628 31.8068 146.008 31.2881 145.725 31.4935L145.806 31.2708C145.784 31.2081 145.625 31.4866 145.638 31.3578C145.719 31.236 145.638 31.2151 145.738 31.1211C145.745 30.8496 145.348 31.2359 145.397 30.8078C145.222 31.0271 145.231 30.8357 145.101 30.9993C145.16 30.8914 144.962 30.8809 145.183 30.7103C145.202 30.6964 145.212 30.7104 145.186 30.7486L145.28 30.6128C145.355 30.2822 145.036 30.6581 144.981 30.5607C144.981 30.6268 145.017 30.6338 144.939 30.7208L144.874 30.6477L144.962 30.5363L144.887 30.3866L144.816 30.5467C144.803 30.4319 144.929 30.1604 144.741 30.3344C144.643 30.4354 144.679 30.5746 144.591 30.5816C144.575 30.4284 144.546 30.1986 144.474 30.0907C144.39 30.2682 144.367 30.2474 144.322 30.2648L144.4 30.1116C144.182 30.2543 144.539 29.7566 144.348 29.8575L144.413 29.7601L144.215 30.056C143.961 30.2961 144.331 29.7114 144.01 30.056C144.065 30.056 143.854 30.4006 143.838 30.3031L143.929 30.1639C143.883 30.1778 143.844 30.2334 143.841 30.1917C143.899 30.1221 143.961 29.9864 143.906 29.9864L144.029 29.8192L143.812 30.042C143.834 29.8506 143.636 29.9898 143.717 29.767C143.717 29.767 143.64 29.5895 143.493 29.7984C143.591 29.6731 143.545 29.5756 143.649 29.4224C143.536 29.5617 143.37 29.6348 143.412 29.4433L143.428 29.4294C143.367 29.1683 143.058 29.5199 143.025 29.2344C142.944 29.4154 142.922 29.2797 142.827 29.5199C142.584 29.6696 142.795 28.9177 142.411 29.5965C142.33 29.5999 142.415 29.3911 142.402 29.3354L142.434 29.3075C142.291 29.3006 142.252 29.2901 142.171 29.2275C142.096 29.2727 141.937 29.6034 141.895 29.4816C141.979 29.3632 141.937 29.3702 141.908 29.3563C141.937 29.3459 141.963 29.3006 141.966 29.1927C141.944 29.231 141.924 29.2519 141.905 29.2693C141.908 29.2588 141.911 29.2484 141.918 29.2344C141.846 29.2553 141.836 29.3006 141.853 29.3319C141.843 29.3528 141.833 29.3772 141.823 29.4189C141.849 29.2205 141.677 29.3563 141.771 29.1265C141.603 29.1022 141.391 29.2867 141.232 29.3145C141.268 29.1892 141.343 29.0987 141.398 29.0709H141.291C141.365 28.9003 141.382 28.9978 141.424 28.9769C141.437 28.6497 141.092 29.144 141.076 28.8307L140.995 28.9525V28.9282C140.969 28.9978 140.901 29.0813 140.872 29.0952C140.917 28.9386 141.018 28.7541 140.953 28.7332C140.966 28.5661 140.787 28.7402 140.69 28.7924C140.712 28.8341 140.667 28.9107 140.631 28.956C140.599 28.9455 140.644 28.7889 140.592 28.8446L140.673 28.6427C140.608 28.8376 140.511 28.8098 140.465 28.8864C140.508 28.7297 140.566 28.782 140.618 28.6706C140.488 28.6323 140.553 28.6496 140.423 28.6114C140.297 28.7332 140.358 28.8063 140.254 28.9699C140.183 28.9838 140.069 29.0953 140.053 28.9456L140.001 29.1335C139.838 29.224 139.783 29.1753 139.783 28.9629C139.101 29.5164 138.874 30.0002 138.805 30.3448C138.74 30.6859 138.838 30.8878 138.838 30.8878C138.981 31.4169 139.338 30.9644 139.751 30.9958L139.757 31.0027Z" fill="#20BB65"/>
<path d="M152.704 41.5289L152.635 41.5637C152.668 41.5533 152.697 41.5428 152.704 41.5289Z" fill="#20BB65"/>
<path d="M150.403 42.0162C150.355 42.1972 150.02 42.3294 150.196 42.4478C150.183 42.5313 150.28 42.5905 150.338 42.6567C150.615 42.6288 150.361 42.7541 150.595 42.7472L150.446 42.7993C150.527 42.7993 150.582 42.7994 150.501 42.8342L150.455 42.8446C150.576 42.8446 150.511 42.8794 150.572 42.8794L150.527 42.8864L150.553 42.9073L150.488 42.9177C150.618 42.9316 150.631 42.9699 150.582 43.0152L150.767 42.9734C150.572 43.0883 150.962 43.043 150.728 43.1579L150.683 43.1649C151.186 43.1649 150.371 43.3598 150.849 43.3668C150.79 43.3668 150.754 43.3876 150.709 43.3946C150.767 43.4259 150.803 43.4677 151.17 43.4085C151.17 43.4398 151.06 43.4503 150.917 43.4782C151.076 43.4538 151.147 43.4677 151.16 43.492H151.095L151.16 43.5513L151.463 43.492C151.381 43.5442 151.092 43.5582 151.173 43.5825L151.424 43.5443C151.381 43.6035 151.004 43.687 150.823 43.7601C150.738 43.9689 151.404 44.1186 150.975 44.3518L150.787 44.3762C150.511 44.404 151.203 44.3901 150.946 44.4215L151.076 44.4319C151.027 44.4424 150.975 44.4597 150.91 44.4527C150.901 44.4736 150.946 44.4702 151.03 44.4771L150.858 44.512C150.732 44.599 151.066 44.6442 151.004 44.7347C150.657 44.8565 150.988 45.0237 151.183 45.1316C151.602 45.2813 150.498 45.4796 150.972 45.6328C150.933 45.6363 151.021 45.6502 151.053 45.6502L151.014 45.7964C151.014 45.7964 150.985 45.9705 151.245 46.0888C151.505 46.2037 152.054 46.2906 153.214 46.0156L153.275 46.0226C153.425 45.9356 153.461 45.8765 153.152 45.8068C153.526 45.7999 153.191 45.7303 153.311 45.7129H153.34C153.051 45.6572 153.581 45.598 153.324 45.5458C153.353 45.5458 153.457 45.5458 153.464 45.5597C153.418 45.5214 153.334 45.4657 153.552 45.4622C153.493 45.3683 153.591 45.2325 153.243 45.1803H153.305C153.071 45.1559 153.269 45.1385 153.149 45.1037C153.178 45.1037 153.191 45.0967 153.204 45.0967C152.97 45.0654 153.165 44.9888 153.064 44.9644L153.207 44.9575L153.171 44.8844L153.142 44.9122C152.746 44.9192 153.389 44.8461 153.129 44.8043C153.178 44.7486 152.297 44.7487 152.489 44.686C152.301 44.6721 152.791 44.686 152.648 44.6616C152.856 44.6477 152.778 44.6721 152.944 44.6512C152.843 44.6199 153.152 44.5781 153.009 44.5433L153.171 44.5293C152.873 44.491 153.376 44.404 153.093 44.3831C152.957 44.3344 153.568 44.3031 153.249 44.2648L153.467 44.223C153.5 44.1917 153.197 44.223 153.301 44.1882C153.438 44.1778 153.409 44.1395 153.539 44.1465C153.75 44.056 153.223 44.0351 153.578 43.9063C153.308 43.9133 153.464 43.8506 153.262 43.8575C153.379 43.8436 153.272 43.7636 153.529 43.7879C153.548 43.7879 153.548 43.7984 153.503 43.8019L153.662 43.7914C153.954 43.7044 153.49 43.7148 153.529 43.6556C153.477 43.6765 153.493 43.6974 153.386 43.6939L153.402 43.6453L153.535 43.6383L153.604 43.5582L153.441 43.5895C153.522 43.5443 153.798 43.4955 153.561 43.4851C153.428 43.4851 153.344 43.5477 153.288 43.5164C153.396 43.4572 153.558 43.3633 153.597 43.2937C153.412 43.325 153.418 43.3076 153.379 43.2972L153.539 43.2728C153.308 43.2414 153.889 43.1962 153.701 43.1614L153.815 43.1509L153.477 43.1858C153.152 43.1788 153.805 43.1022 153.363 43.1092C153.392 43.1301 153.012 43.1753 153.077 43.1335L153.233 43.1162C153.197 43.1057 153.132 43.1092 153.165 43.0918C153.249 43.0918 153.389 43.0605 153.36 43.0396L153.555 43.0257H153.266C153.425 42.9595 153.21 42.9386 153.425 42.8864C153.425 42.8864 153.519 42.7889 153.279 42.8133C153.428 42.8028 153.48 42.7506 153.656 42.7297C153.487 42.7402 153.34 42.7054 153.513 42.6462H153.532C153.701 42.5209 153.256 42.5418 153.464 42.42C153.279 42.4618 153.373 42.3991 153.139 42.4582C152.892 42.4269 153.591 42.2077 152.86 42.3364C152.814 42.3086 153.022 42.2564 153.054 42.2285H153.093C153.022 42.1728 153.009 42.1554 153.015 42.0997C152.941 42.0892 152.603 42.1658 152.674 42.0997C152.811 42.0823 152.782 42.0719 152.778 42.0545C152.801 42.0614 152.853 42.0544 152.937 42.0092C152.895 42.0161 152.869 42.0162 152.847 42.0162C152.856 42.0162 152.866 42.0127 152.879 42.0092C152.827 41.9918 152.785 42.0092 152.769 42.0231C152.749 42.0266 152.723 42.0336 152.687 42.0475C152.853 41.9779 152.658 41.971 152.886 41.9118C152.814 41.8387 152.564 41.8387 152.46 41.7934C152.577 41.7551 152.684 41.7446 152.733 41.7516L152.678 41.7134C152.847 41.6681 152.782 41.7134 152.817 41.7238C153.077 41.5915 152.515 41.6751 152.749 41.5393L152.613 41.5602L152.635 41.5498C152.564 41.5707 152.466 41.581 152.44 41.5776C152.583 41.5253 152.778 41.4836 152.762 41.4523C152.895 41.3862 152.674 41.3931 152.583 41.3827C152.564 41.4071 152.479 41.4244 152.427 41.4314C152.418 41.4175 152.561 41.3653 152.496 41.3688L152.694 41.3095C152.509 41.3722 152.483 41.3235 152.398 41.3409C152.541 41.2887 152.531 41.3305 152.642 41.3026C152.606 41.24 152.622 41.2713 152.587 41.2087C152.427 41.2191 152.401 41.2712 152.226 41.306C152.181 41.2852 152.034 41.2991 152.145 41.226L151.973 41.2922C151.823 41.2783 151.833 41.2364 151.999 41.1425C151.229 41.1599 150.745 41.3131 150.446 41.4418C150.147 41.5741 150.04 41.689 150.04 41.689C149.695 41.957 150.222 41.863 150.403 42.0022V42.0162Z" fill="#20BB65"/>
<path d="M143.931 47.5229C144.016 47.5856 144.104 47.4394 144.078 47.4638C144.052 47.4046 143.957 47.516 143.931 47.5229Z" fill="#00B14F"/>
<path d="M145.342 49.5145C145.322 49.6213 145.276 49.4362 145.342 49.5145Z" fill="#00B14F"/>
<path d="M146.05 50.5965C146.092 50.5721 146.128 50.4747 146.17 50.4225L146.066 50.3807C146.066 50.4434 146.102 50.5408 146.046 50.5965H146.05Z" fill="#00B14F"/>
<path d="M146.173 50.4225L146.326 50.4852C146.258 50.3738 146.209 50.3808 146.173 50.4225Z" fill="#00B14F"/>
<path d="M146.378 51.0525L146.238 51.0595L146.462 51.0665L146.378 51.0525Z" fill="#00B14F"/>
<path d="M146.612 51.338C146.501 51.3519 146.537 51.512 146.453 51.4981C146.524 51.5677 146.641 51.5851 146.745 51.599C146.664 51.5608 146.622 51.4807 146.615 51.338H146.612Z" fill="#00B14F"/>
<path d="M146.904 51.6303C146.862 51.6129 146.803 51.606 146.745 51.5956C146.787 51.6164 146.839 51.6303 146.904 51.6303Z" fill="#00B14F"/>
<path d="M146.41 50.8889L146.485 50.7497C146.485 50.7497 146.462 50.7184 146.453 50.701C146.436 50.7288 146.388 50.7984 146.41 50.8855V50.8889Z" fill="#00B14F"/>
<path d="M146.488 50.7462C146.521 50.8053 146.547 50.8402 146.557 50.8576C146.547 50.8436 146.527 50.8123 146.492 50.7462H146.488Z" fill="#00B14F"/>
<path d="M146.446 50.6908L146.458 50.7024C146.458 50.7024 146.469 50.6793 146.446 50.6908Z" fill="#00B14F"/>
<path d="M146.365 50.4469L146.54 50.5165L146.472 50.3703C146.446 50.3981 146.42 50.4538 146.365 50.4469Z" fill="#00B14F"/>
<path d="M146.618 50.5513L146.54 50.5165L146.563 50.5721L146.618 50.5513Z" fill="#00B14F"/>
<path d="M146.849 51.331C146.937 51.3449 146.982 51.4006 147.041 51.4598C147.008 51.3693 146.966 51.2857 146.914 51.2161C146.872 51.2335 146.787 51.2544 146.849 51.331Z" fill="#00B14F"/>
<path d="M146.683 51.0388L146.7 51.046C146.7 51.046 146.7 51.0208 146.683 51.0388Z" fill="#00B14F"/>
<path d="M147.522 52.1186C147.522 52.1186 147.532 52.1006 147.535 52.0898L147.515 52.1042L147.525 52.1186H147.522Z" fill="#00B14F"/>
<path d="M146.924 51.1882C146.904 51.1151 146.855 51.1082 146.8 51.1047C146.839 51.136 146.878 51.1709 146.914 51.2161C146.933 51.2092 146.943 51.1987 146.927 51.1882H146.924Z" fill="#00B14F"/>
<path d="M147.089 51.7696C147.089 51.7209 147.089 51.6756 147.08 51.6268C147.067 51.6825 147.054 51.7835 147.089 51.7696Z" fill="#00B14F"/>
<path d="M146.681 51.0873H146.671C146.66 51.1248 146.671 51.1098 146.681 51.0873Z" fill="#00B14F"/>
<path d="M146.68 51.0873C146.716 51.1012 146.758 51.1012 146.8 51.1012C146.768 51.0769 146.732 51.056 146.696 51.0421C146.696 51.056 146.686 51.0734 146.68 51.0838V51.0873Z" fill="#00B14F"/>
<path d="M147.372 51.8462L147.323 51.8044C147.349 51.8774 147.339 51.9541 147.317 52.0968C147.427 52.1385 147.479 52.1246 147.518 52.1037L147.349 51.8427H147.378L147.372 51.8462Z" fill="#00B14F"/>
<path d="M147.482 52.1873L147.349 52.2604L147.596 52.236L147.482 52.1873Z" fill="#00B14F"/>
<path d="M147.583 52.5145L147.694 52.5319L147.69 52.4379L147.583 52.5145Z" fill="#00B14F"/>
<path d="M153.551 57.0221C153.726 56.9943 153.993 56.9595 153.876 56.869L153.746 56.8029C153.688 56.9212 153.619 56.9873 153.554 57.0221H153.551Z" fill="#00B14F"/>
<path d="M149.698 55.0799C149.708 55.1913 149.734 55.2643 149.766 55.32C149.766 55.1773 149.805 55.0242 149.698 55.0799Z" fill="#00B14F"/>
<path d="M160.157 48.1328C160.163 48.08 160.14 48.0589 160.097 48.066C160.088 48.1187 160.101 48.1503 160.157 48.1328Z" fill="#00B14F"/>
<path d="M149.766 55.3235C149.766 55.4279 149.795 55.5288 149.925 55.5393C149.925 55.5184 149.925 55.501 149.925 55.4767C149.867 55.4384 149.812 55.3966 149.769 55.3235H149.766Z" fill="#00B14F"/>
<path d="M145.527 46.2454C145.556 46.235 145.601 46.235 145.647 46.235C145.624 46.2245 145.588 46.2245 145.527 46.2454Z" fill="#00B14F"/>
<path d="M148.416 53.5316C148.396 53.5316 148.365 53.4812 148.416 53.5316Z" fill="#00B14F"/>
<path d="M148.402 53.4056C148.402 53.4369 148.408 53.4718 148.421 53.5031C148.421 53.4857 148.415 53.4543 148.402 53.4056Z" fill="#00B14F"/>
<path d="M148.36 53.4619C148.35 53.4373 148.344 53.4197 148.334 53.4021C148.311 53.4092 148.304 53.4267 148.36 53.4619Z" fill="#00B14F"/>
<path d="M148.477 53.604C148.451 53.5727 148.434 53.5414 148.421 53.5031C148.421 53.5205 148.421 53.5309 148.412 53.5309C148.425 53.5448 148.444 53.5658 148.473 53.604H148.477Z" fill="#00B14F"/>
<path d="M160.88 46.3881L160.991 46.336C160.673 46.2977 160.335 46.423 160.039 46.5483C160.013 46.5135 160.14 46.4613 160.185 46.4369C159.821 46.3255 159.665 46.3499 159.019 46.6075L159.129 46.4369C159.029 46.4856 158.905 46.4195 158.694 46.3603C158.489 46.3046 158.181 46.2594 157.892 46.3603C157.901 46.3395 157.921 46.3081 157.97 46.2838C157.804 46.3325 157.648 46.329 157.479 46.3011C157.362 46.2733 157.255 46.2281 157.151 46.1933C156.943 46.1237 156.768 46.1097 156.693 46.423L156.43 46.5761C156.771 46.6283 156.378 46.8476 156.517 46.9521C156.384 46.9869 156.173 46.7607 156.335 46.7293L156.361 46.7606C156.423 46.4334 155.939 46.6423 155.949 46.4195C155.276 46.4299 154.623 46.2454 153.996 46.2245L154.068 46.4786L153.85 46.4613C153.792 46.4021 153.775 46.2629 153.931 46.2733C153.85 46.1271 153.668 46.3917 153.665 46.4474C153.36 46.3429 153.785 46.1515 153.694 46.1445L153.567 46.1619L153.597 46.1933C153.493 46.2977 153.483 46.4055 153.295 46.3916C153.174 46.3394 153.236 46.235 153.187 46.2245C153.187 46.2071 153.171 46.1967 153.116 46.2176L152.84 46.1933L152.94 46.3778C152.849 46.423 152.58 46.3916 152.32 46.4056C152.057 46.3916 151.787 46.423 151.696 46.3778L151.797 46.1933L151.521 46.2176C151.465 46.2002 151.449 46.2071 151.449 46.2245C151.404 46.235 151.462 46.3394 151.342 46.3916C151.154 46.4055 151.144 46.2942 151.04 46.1933L151.069 46.1619L150.942 46.1445C150.848 46.1515 151.277 46.3429 150.972 46.4474C150.968 46.3917 150.786 46.1271 150.702 46.2733C150.812 46.2664 150.835 46.3324 150.816 46.3951C150.748 46.3742 150.673 46.3499 150.614 46.2907L150.634 46.2245C150.614 46.2245 150.595 46.228 150.575 46.228C150.566 46.2141 150.556 46.2037 150.549 46.1898C150.559 46.2037 150.562 46.2176 150.566 46.2315C150.296 46.2454 150.023 46.2837 149.747 46.322C149.477 46.2942 149.182 46.1689 148.879 46.2072C148.873 46.2594 148.918 46.3325 148.879 46.409C148.86 46.409 148.837 46.409 148.818 46.409L148.616 46.1445C148.529 46.1723 148.532 46.4961 148.376 46.2838C148.399 46.336 148.431 46.4125 148.373 46.4334C148.22 46.3812 148.064 46.3534 147.908 46.3394C147.824 46.1097 147.661 46.1271 147.476 46.1863C147.372 46.2211 147.265 46.2664 147.148 46.2942C146.979 46.3221 146.823 46.3255 146.657 46.2768C146.706 46.3012 146.725 46.3325 146.735 46.3534C146.557 46.2907 146.371 46.2872 146.206 46.3081C146.043 46.2663 145.878 46.2002 145.718 46.0958C145.839 46.2141 145.757 46.228 145.666 46.2315C145.718 46.2559 145.679 46.3569 145.676 46.4369C145.663 46.4404 145.65 46.4404 145.637 46.4439L145.306 46.235C145.251 46.4195 145.033 46.3185 144.926 46.3846C144.76 46.3603 144.63 46.3847 144.448 46.4369C144.494 46.4648 144.62 46.5135 144.594 46.5483C144.299 46.423 143.961 46.2977 143.642 46.336L143.753 46.3881L143.301 46.3708L143.386 46.4961C143.893 46.7432 143.867 46.8406 143.899 47.0008C143.925 47.1539 144.016 47.3872 144.503 47.5717C144.325 47.5821 144.513 47.9128 144.539 48.0624C144.568 48.0659 144.607 48.0799 144.659 48.1077C144.542 48.1808 144.685 48.334 144.848 48.4663C145.017 48.602 145.205 48.7169 145.26 48.8144C145.286 48.9606 145.163 48.9362 145.023 48.8979C145.241 49.0093 145.315 49.2042 145.384 49.4235C145.393 49.4548 145.403 49.4861 145.413 49.5174C145.4 49.507 145.384 49.4966 145.367 49.4792C145.367 49.4966 145.364 49.5001 145.361 49.5105C145.374 49.5279 145.39 49.5488 145.413 49.5906C145.419 49.5836 145.423 49.5766 145.429 49.5732C145.445 49.6289 145.462 49.681 145.478 49.7263C145.491 49.7611 145.504 49.7924 145.514 49.8168C145.517 49.8238 145.523 49.8238 145.53 49.8273C145.53 49.8829 145.559 49.9526 145.514 49.9456C145.624 50.0222 145.65 49.97 145.673 49.8586C145.702 49.8377 145.735 49.8063 145.764 49.7785L145.816 49.8029C145.832 49.7681 145.868 49.7298 145.793 49.7542C145.809 49.7402 145.826 49.7298 145.845 49.7228C145.865 49.7611 145.865 49.7959 145.855 49.8238L145.813 49.8029C145.803 49.8238 145.809 49.8377 145.848 49.8377C145.793 49.97 145.54 50.0187 145.819 50.1197C145.813 50.0744 145.783 50.0083 145.822 50.0083C145.91 50.0674 146.303 49.9421 146.443 49.9874C146.384 50.0257 146.358 50.0987 146.225 50.0744C146.28 50.0813 146.349 50.1092 146.401 50.1057C146.459 50.1928 146.592 50.2206 146.696 50.2554C146.69 50.3006 146.683 50.339 146.674 50.3633C146.696 50.332 146.712 50.2972 146.732 50.2658C146.823 50.2972 146.872 50.339 146.771 50.4469L146.638 50.5339C147.034 50.7044 146.69 50.7079 147.07 50.8994L147.086 50.8785C147.167 51.0351 147.375 50.9794 147.229 51.2161L147.167 51.1917C147.219 51.2753 147.252 51.317 147.284 51.3588C147.265 51.3588 147.245 51.3588 147.226 51.3483C147.43 51.5676 147.112 51.331 147.18 51.5572C147.128 51.5259 147.089 51.4876 147.057 51.4528C147.076 51.5085 147.089 51.5642 147.099 51.6199V51.6094C147.106 51.585 147.112 51.5747 147.112 51.5956C147.112 51.5956 147.115 51.5956 147.119 51.5956C147.135 51.5851 147.151 51.5781 147.167 51.5712C147.197 51.6617 147.148 51.606 147.119 51.5956C147.112 51.599 147.106 51.6024 147.099 51.6059L147.336 51.7974C147.314 51.7347 147.265 51.6721 147.167 51.5677C147.265 51.5329 147.359 51.5572 147.427 51.5224C147.434 51.5293 147.437 51.5363 147.447 51.5433C147.443 51.5781 147.479 51.6895 147.538 51.6791C147.46 51.7522 147.518 51.867 147.599 51.9749C147.58 52.0132 147.56 52.048 147.547 52.0828C147.577 52.062 147.609 52.041 147.664 52.048C147.736 52.1246 147.807 52.1872 147.833 52.2151C147.752 52.0584 147.872 52.0619 147.967 52.0445C147.895 52.2394 147.924 52.3091 148.103 52.3369C148.038 52.4031 147.97 52.4727 147.918 52.5423C147.902 52.5215 147.892 52.5005 147.882 52.4761C147.807 52.6223 147.866 52.5667 147.863 52.6294C147.804 52.7373 147.791 52.8486 147.872 52.967C147.876 52.9078 147.853 52.8381 147.911 52.8242C147.97 52.8103 147.963 52.9008 147.96 52.9321C148.006 52.9217 148.006 52.8591 148.045 52.8139C148.054 52.8278 148.064 52.8417 148.074 52.8556C148.061 52.9948 148.129 53.0505 148.21 53.1201C148.23 53.1828 148.246 53.2489 148.213 53.3812C148.262 53.3325 148.275 53.2455 148.343 53.3951C148.363 53.3882 148.392 53.3847 148.408 53.3847C148.408 53.3916 148.408 53.3916 148.408 53.3951V53.3812C148.408 53.3812 148.425 53.3812 148.408 53.3777C148.408 53.329 148.418 53.2803 148.438 53.2455C148.457 53.242 148.48 53.242 148.499 53.2455C148.421 53.3986 148.928 53.336 148.6 53.4961C148.694 53.5483 148.779 53.6213 148.863 53.7014C148.834 53.8058 148.824 53.8998 148.685 53.8163L148.798 53.9834C148.805 54.133 148.876 54.2862 148.983 54.328C149.016 54.4254 149.253 54.415 149.113 54.4254L149.373 54.6204L149.347 54.6483C149.519 54.9128 149.919 55.0068 149.926 55.4732C150.017 55.5324 150.117 55.5916 150.189 55.7621L150.111 55.8734C150.224 55.9535 150.254 56.2842 150.39 56.2459C150.302 56.4234 150.374 56.5523 150.507 56.7019C150.715 56.956 150.949 57.1858 151.059 57.3877L151.16 57.238C151.319 57.4712 151.504 57.6418 151.719 57.8193L151.735 57.7079C151.771 57.781 151.807 57.8611 151.846 57.9446C151.979 58.2335 152.148 58.5607 152.3 58.5746C152.3 58.5746 152.3 58.5746 152.3 58.5781C152.304 58.5781 152.307 58.5781 152.31 58.5781C152.313 58.5781 152.317 58.5781 152.32 58.5781C152.32 58.5781 152.32 58.5781 152.32 58.5746C152.473 58.5572 152.642 58.2301 152.775 57.9446C152.921 57.6348 153.028 57.3668 153.217 57.3146C153.262 57.1614 153.321 57.1196 153.389 57.0883C153.382 57.0987 153.379 57.1092 153.376 57.1196C153.386 57.1127 153.395 57.0988 153.405 57.0814C153.45 57.064 153.499 57.0465 153.551 57.0187C153.499 57.0291 153.454 57.0396 153.421 57.057C153.473 56.9804 153.548 56.8516 153.603 56.7159L153.743 56.7959C153.743 56.7959 153.753 56.7785 153.759 56.7681C153.886 56.6984 153.772 56.6253 153.645 56.5905C153.668 56.5174 153.678 56.4513 153.678 56.3887C153.935 56.4792 153.753 56.145 154.022 56.2459C153.954 56.1102 154.204 55.8352 154.019 55.6124C154.048 55.6333 154.078 55.6264 154.052 55.6646C154.133 55.609 154.217 55.5532 154.207 55.4349L154.386 55.5358L154.305 55.1877C154.477 55.1668 154.562 55.1738 154.604 55.3757C154.604 54.9754 154.685 55.1181 154.659 54.7561L154.75 54.8536C154.802 54.777 154.757 54.5438 154.873 54.5681C155.189 54.5681 155.517 53.7746 156.014 53.5031C155.656 53.329 156.293 53.4195 156.079 53.2071C156.166 53.242 156.251 53.2176 156.261 53.3395C156.355 53.0645 156.618 53.1097 156.537 52.7929C156.625 52.8278 156.605 52.9287 156.664 52.9426C156.664 52.9113 156.654 52.8208 156.712 52.8347C156.771 52.8486 156.748 52.9183 156.751 52.9774C156.907 52.7477 156.709 52.5388 156.521 52.3474C156.699 52.3195 156.729 52.2499 156.657 52.055C156.751 52.0724 156.871 52.0689 156.79 52.2255C156.858 52.1559 157.242 51.8357 157.089 51.6895C157.148 51.7 157.183 51.592 157.18 51.5537C157.32 51.3901 157.346 51.3867 157.459 51.2022L157.398 51.2266C157.255 50.9899 157.463 51.0456 157.541 50.8889L157.557 50.9098C157.934 50.7183 157.593 50.7149 157.989 50.5443L157.856 50.4573C157.619 50.2032 158.216 50.3145 158.255 50.05H158.138C158.122 49.8794 158.701 50.0883 158.808 50.0152C158.847 50.0152 158.818 50.0813 158.811 50.1266C159.162 50.0013 158.678 49.956 158.785 49.7298C158.899 49.7681 158.967 49.963 159.081 49.8482C159.097 49.8482 159.107 49.8377 159.116 49.8203C159.126 49.7959 159.139 49.7646 159.152 49.7298C159.185 49.6428 159.214 49.5314 159.25 49.427C159.318 49.2077 159.393 49.0128 159.61 48.9014C159.471 48.9432 159.344 48.964 159.373 48.8178C159.428 48.7169 159.617 48.6055 159.786 48.4698C159.951 48.3375 160.091 48.1878 159.974 48.1112C160.026 48.0834 160.065 48.0694 160.094 48.0659C160.117 47.9162 160.309 47.5891 160.13 47.5752C160.617 47.3872 160.708 47.1574 160.734 47.0042C160.764 46.8441 160.741 46.7467 161.248 46.4995L161.332 46.3743L160.88 46.3916V46.3881ZM148.269 52.1281C148.272 52.1072 148.275 52.0793 148.278 52.055C148.239 52.1489 148.2 52.2186 148.152 52.2151L148.083 51.961C148.145 51.9645 148.217 51.9784 148.285 51.9679C148.285 51.9958 148.282 52.0271 148.278 52.055C148.291 52.0271 148.304 51.9958 148.314 51.9645C148.334 51.961 148.353 51.9506 148.373 51.9402L148.438 52.0272C148.395 52.0968 148.343 52.1421 148.269 52.1247V52.1281ZM149.107 52.9391C149.107 52.9391 149.1 52.9426 149.097 52.9461C149.094 52.9356 149.087 52.9217 149.084 52.9112L149.107 52.9426V52.9391ZM151.826 56.6428L151.855 56.6845C151.846 56.7193 151.833 56.7541 151.823 56.789C151.823 56.7402 151.823 56.6915 151.823 56.6463L151.826 56.6428ZM152.759 56.688L152.788 56.6498C152.788 56.6915 152.788 56.7332 152.788 56.775C152.778 56.7472 152.768 56.7158 152.762 56.6845L152.759 56.688ZM146.472 50.05C146.472 50.05 146.472 50.0465 146.472 50.043C146.472 50.043 146.472 50.043 146.472 50.05ZM148.961 54.053C148.961 54.053 148.967 54.053 148.97 54.053C148.99 54.1852 148.983 54.1365 148.961 54.053ZM152.339 58.5154C152.339 58.5154 152.346 58.498 152.349 58.4876L152.336 58.5224C152.336 58.5224 152.32 58.5433 152.31 58.5503C152.3 58.5433 152.291 58.5329 152.284 58.5224L152.271 58.4876C152.271 58.4876 152.278 58.505 152.281 58.5154C152.255 58.4841 152.229 58.4424 152.222 58.3832C152.229 58.3937 152.239 58.404 152.245 58.4145C152.265 58.4458 152.281 58.4806 152.3 58.5085C152.304 58.505 152.307 58.498 152.31 58.4945C152.313 58.498 152.317 58.505 152.32 58.5085C152.339 58.4771 152.356 58.4458 152.375 58.4145C152.382 58.404 152.391 58.3971 152.398 58.3832C152.391 58.4424 152.365 58.4841 152.339 58.5154ZM153.155 46.2873L153.197 46.3325C153.1 46.3812 153.126 46.336 153.155 46.2873ZM154.071 54.9545L154.175 54.8188L154.298 55.1495C154.25 55.0903 154.165 55.0242 154.071 54.958V54.9545ZM156.465 52.2151C156.42 52.2186 156.381 52.1489 156.339 52.055C156.339 52.0828 156.342 52.1072 156.348 52.1281C156.303 52.1385 156.264 52.1211 156.231 52.0933L156.313 51.9889C156.322 52.0097 156.332 52.0341 156.339 52.055C156.339 52.0271 156.335 51.9923 156.332 51.961L156.368 51.9123C156.443 51.9192 156.508 51.9227 156.543 51.9193L156.462 52.2151H156.465Z" fill="#00B14F"/>
<path d="M147.937 53.0052L148.057 53.0992C148.009 53.047 148.022 53.0018 148.018 52.9565C147.992 52.9844 147.966 53.04 147.937 53.0052Z" fill="#00B14F"/>
<path d="M148.633 53.6423C148.633 53.5796 148.483 53.7293 148.506 53.6702C148.34 53.7363 148.86 53.8024 148.633 53.6423Z" fill="#00B14F"/>
<path d="M145.043 46.0505L144.909 45.9739L144.994 46.0958L145.043 46.0505Z" fill="#00B14F"/>
<path d="M144.786 46.3115L144.757 46.0853L144.676 46.2907C144.705 46.2803 144.763 46.2628 144.786 46.3115Z" fill="#00B14F"/>
<path d="M144.458 48.1328C144.514 48.1468 144.527 48.1187 144.517 48.066C144.471 48.0589 144.448 48.08 144.458 48.1328Z" fill="#00B14F"/>
</svg>
