<svg width="56" height="66" viewBox="0 0 56 66" fill="none" xmlns="http://www.w3.org/2000/svg">
<path d="M13.6322 54.3122C13.7169 54.3744 13.8049 54.2294 13.7789 54.2536C13.7528 54.1949 13.6583 54.3053 13.6322 54.3122Z" fill="white"/>
<path d="M15.0477 56.2755C15.0274 56.3838 14.9803 56.196 15.0477 56.2755Z" fill="white"/>
<path d="M15.7568 57.3465C15.7992 57.3225 15.835 57.2263 15.8774 57.1747L15.7731 57.1334C15.7731 57.1953 15.8089 57.2915 15.7535 57.3465H15.7568Z" fill="white"/>
<path d="M15.8806 57.1749L16.0338 57.2371C15.9654 57.1266 15.9165 57.1335 15.8806 57.1749Z" fill="white"/>
<path d="M16.0859 57.7935L15.9458 57.8039L16.1706 57.8074L16.0859 57.7935Z" fill="white"/>
<path d="M16.3206 58.0752C16.2098 58.0889 16.2456 58.2467 16.1609 58.233C16.2326 58.3016 16.3499 58.3187 16.4542 58.3324C16.3727 58.2946 16.3303 58.2158 16.3238 58.0752H16.3206Z" fill="white"/>
<path d="M16.614 58.3676C16.5717 58.3501 16.513 58.3431 16.4543 58.3326C16.4967 58.3536 16.5488 58.3676 16.614 58.3676Z" fill="white"/>
<path d="M16.1186 57.6351L16.1936 57.4977C16.1936 57.4977 16.1708 57.4669 16.161 57.4497C16.1447 57.4772 16.0958 57.5458 16.1186 57.6317V57.6351Z" fill="white"/>
<path d="M16.1969 57.4944C16.2297 57.5536 16.2559 57.5884 16.2658 57.6058C16.2559 57.5919 16.2362 57.5605 16.2001 57.4944H16.1969Z" fill="white"/>
<path d="M16.1545 57.4397L16.1658 57.4518C16.1658 57.4518 16.1771 57.4276 16.1545 57.4397Z" fill="white"/>
<path d="M16.073 57.1991L16.2489 57.2678L16.1805 57.1233C16.1545 57.1508 16.1284 57.2059 16.073 57.1991Z" fill="white"/>
<path d="M16.3294 57.3027L16.2491 57.2676L16.2726 57.3238L16.3294 57.3027Z" fill="white"/>
<path d="M16.5586 58.0715C16.6466 58.0852 16.6922 58.1401 16.7509 58.1984C16.7183 58.1092 16.6759 58.027 16.6238 57.9584C16.5814 57.9755 16.4967 57.996 16.5586 58.0715Z" fill="white"/>
<path d="M16.3925 57.7843L16.4113 57.7924C16.4113 57.7924 16.4113 57.764 16.3925 57.7843Z" fill="white"/>
<path d="M17.2338 58.8505C17.2338 58.8505 17.2442 58.832 17.2476 58.8208L17.2268 58.8357L17.2372 58.8505H17.2338Z" fill="white"/>
<path d="M16.6335 57.9314C16.6139 57.8588 16.565 57.8518 16.5096 57.8484C16.5487 57.8795 16.5878 57.9141 16.6237 57.9591C16.6432 57.9522 16.653 57.9418 16.6367 57.9314H16.6335Z" fill="white"/>
<path d="M16.8 58.5049C16.8 58.4568 16.8 58.4121 16.7902 58.3639C16.7772 58.4189 16.7641 58.5187 16.8 58.5049Z" fill="white"/>
<path d="M16.3905 57.8311H16.3797C16.3689 57.8695 16.3797 57.8541 16.3905 57.8311Z" fill="white"/>
<path d="M16.3894 57.8309C16.4253 57.8446 16.4676 57.8446 16.51 57.8446C16.4774 57.8206 16.4415 57.8001 16.4057 57.7864C16.4057 57.8001 16.3959 57.8172 16.3894 57.8275V57.8309Z" fill="white"/>
<path d="M17.0832 58.5801L17.0344 58.5389C17.0604 58.6109 17.0506 58.6864 17.0278 58.827C17.1386 58.8682 17.1908 58.8544 17.2299 58.8339L17.0604 58.5767H17.0898L17.0832 58.5801Z" fill="white"/>
<path d="M17.1972 58.9171L17.0603 58.9894L17.3112 58.9652L17.1972 58.9171Z" fill="white"/>
<path d="M17.2952 59.2405L17.406 59.2578L17.4027 59.1646L17.2952 59.2405Z" fill="white"/>
<path d="M23.2816 63.6906C23.4576 63.6631 23.7248 63.6287 23.6075 63.5394L23.4771 63.4741C23.4185 63.591 23.3501 63.6562 23.2849 63.6906H23.2816Z" fill="white"/>
<path d="M19.4167 61.773C19.4265 61.8827 19.4526 61.9548 19.4852 62.0097C19.4852 61.8691 19.5243 61.7182 19.4167 61.773Z" fill="white"/>
<path d="M29.9086 54.9154C29.9153 54.8624 29.8919 54.8412 29.8484 54.8482C29.8384 54.9013 29.8517 54.933 29.9086 54.9154Z" fill="white"/>
<path d="M19.4851 62.0135C19.4851 62.1166 19.5144 62.2163 19.6448 62.2266C19.6448 62.206 19.6448 62.1888 19.6448 62.1647C19.5861 62.1269 19.5307 62.0857 19.4884 62.0135H19.4851Z" fill="white"/>
<path d="M15.2322 53.0474C15.2615 53.0369 15.3071 53.0369 15.3528 53.0369C15.3299 53.0264 15.2941 53.0264 15.2322 53.0474Z" fill="white"/>
<path d="M18.131 60.2454C18.1102 60.2454 18.079 60.1934 18.131 60.2454Z" fill="white"/>
<path d="M18.1196 60.12C18.1196 60.1513 18.1262 60.186 18.1393 60.2173C18.1393 60.1999 18.1327 60.1687 18.1196 60.12Z" fill="white"/>
<path d="M18.074 60.1752C18.0642 60.151 18.0576 60.1337 18.0478 60.1165C18.0248 60.1234 18.0182 60.1406 18.074 60.1752Z" fill="white"/>
<path d="M18.1917 60.3172C18.1655 60.2859 18.1491 60.2546 18.1359 60.2163C18.1359 60.2337 18.1359 60.2442 18.1261 60.2442C18.1392 60.2581 18.1589 60.2789 18.1884 60.3172H18.1917Z" fill="white"/>
<path d="M30.6335 53.1918L30.7443 53.1403C30.4249 53.1025 30.086 53.2262 29.7895 53.3499C29.7634 53.3155 29.8905 53.264 29.9361 53.24C29.5711 53.13 29.4147 53.1541 28.7662 53.4084L28.877 53.24C28.776 53.2881 28.6521 53.2228 28.4403 53.1644C28.235 53.1094 27.9254 53.0647 27.6354 53.1644C27.6452 53.1438 27.6647 53.1128 27.7136 53.0887C27.5474 53.1368 27.391 53.1334 27.2215 53.1059C27.1042 53.0784 26.9967 53.0337 26.8924 52.9993C26.6838 52.9306 26.5078 52.9169 26.4329 53.2262L26.1689 53.3774C26.5111 53.429 26.1168 53.6455 26.2569 53.7486C26.1233 53.783 25.9115 53.5595 26.0744 53.5286L26.1005 53.5596C26.1624 53.2365 25.6768 53.4427 25.6866 53.2228C25.012 53.2331 24.357 53.0509 23.7281 53.0303L23.7997 53.2812L23.5814 53.264C23.5227 53.2056 23.5064 53.0682 23.6629 53.0785C23.5814 52.9341 23.3989 53.1953 23.3957 53.2503C23.0893 53.1472 23.5162 52.9581 23.425 52.9513L23.2979 52.9685L23.3272 52.9993C23.2229 53.1024 23.2132 53.209 23.0241 53.1953C22.9036 53.1437 22.9655 53.0406 22.9166 53.0303C22.9166 53.0131 22.9003 53.0028 22.8449 53.0234L22.5679 52.9993L22.6689 53.1815C22.5777 53.2262 22.3072 53.1953 22.0465 53.209C21.7825 53.1953 21.512 53.2262 21.4208 53.1815L21.5218 52.9993L21.2448 53.0234C21.1894 53.0062 21.1731 53.0131 21.1731 53.0303C21.1275 53.0406 21.1862 53.1437 21.0656 53.1953C20.8766 53.209 20.8668 53.099 20.7625 52.9993L20.7919 52.9685L20.6648 52.9513C20.5703 52.9581 21.0004 53.1472 20.6941 53.2503C20.6908 53.1953 20.5083 52.9341 20.4236 53.0785C20.5344 53.0716 20.5572 53.1368 20.5377 53.1987C20.4692 53.1781 20.3943 53.154 20.3356 53.0956L20.3551 53.0303C20.3356 53.0303 20.3161 53.0337 20.2965 53.0337C20.2867 53.02 20.277 53.0097 20.2705 52.996C20.2802 53.0097 20.2835 53.0234 20.2867 53.0372C20.0162 53.0509 19.7425 53.0887 19.4655 53.1265C19.195 53.0991 18.8985 52.9753 18.5954 53.0131C18.5889 53.0647 18.6345 53.1369 18.5954 53.2125C18.5759 53.2125 18.553 53.2125 18.5335 53.2125L18.3314 52.9513C18.2434 52.9788 18.2467 53.2983 18.0903 53.0887C18.1131 53.1403 18.1457 53.2159 18.087 53.2365C17.9339 53.185 17.7775 53.1575 17.621 53.1437C17.5363 52.9169 17.3733 52.9341 17.1876 52.9926C17.0833 53.0269 16.9758 53.0715 16.8584 53.099C16.689 53.1265 16.5326 53.13 16.3664 53.0819C16.4152 53.106 16.4348 53.1369 16.4446 53.1575C16.2653 53.0956 16.0796 53.0922 15.9134 53.1128C15.7504 53.0715 15.5842 53.0063 15.4245 52.9032C15.5451 53.02 15.4637 53.0338 15.3724 53.0372C15.4246 53.0612 15.3855 53.1609 15.3822 53.24C15.3692 53.2434 15.3561 53.2434 15.3431 53.2469L15.0107 53.0406C14.9553 53.2228 14.737 53.1231 14.6294 53.1884C14.4632 53.1643 14.3329 53.1884 14.1504 53.24C14.196 53.2675 14.3231 53.3155 14.297 53.3499C14.0005 53.2262 13.6616 53.1025 13.3422 53.1403L13.453 53.1918L13 53.1746L13.0847 53.2984C13.5931 53.5424 13.567 53.6386 13.5996 53.7967C13.6257 53.9479 13.7169 54.1782 14.2057 54.3603C14.0265 54.3706 14.2156 54.6971 14.2416 54.8449C14.271 54.8483 14.3101 54.862 14.3622 54.8895C14.2449 54.9617 14.3883 55.1129 14.5512 55.2435C14.7207 55.3775 14.9097 55.4909 14.9651 55.5871C14.9912 55.7315 14.8673 55.7074 14.7272 55.6696C14.9455 55.7796 15.0205 55.972 15.0889 56.1886C15.0987 56.2195 15.1085 56.2504 15.1182 56.2813C15.1052 56.271 15.0889 56.2608 15.0726 56.2436C15.0726 56.2608 15.0693 56.2642 15.0661 56.2745C15.0791 56.2916 15.0954 56.3123 15.1182 56.3535C15.1248 56.3466 15.128 56.3398 15.1345 56.3364C15.1508 56.3914 15.1671 56.4429 15.1834 56.4876C15.1964 56.5219 15.2095 56.5529 15.2193 56.5769C15.2225 56.5838 15.229 56.5838 15.2355 56.5873C15.2355 56.6422 15.2649 56.7109 15.2193 56.704C15.3301 56.7797 15.3561 56.7281 15.379 56.6181C15.4083 56.5975 15.4408 56.5666 15.4702 56.5391L15.5223 56.5632C15.5386 56.5288 15.5745 56.491 15.4995 56.5151C15.5158 56.5014 15.5321 56.491 15.5516 56.4841C15.5712 56.5219 15.5712 56.5563 15.5614 56.5838L15.5191 56.5632C15.5093 56.5838 15.5158 56.5976 15.5549 56.5976C15.4995 56.7282 15.2453 56.7762 15.5256 56.8759C15.5191 56.8312 15.4897 56.766 15.5289 56.766C15.6168 56.8244 16.0112 56.7006 16.1513 56.7453C16.0926 56.7831 16.0666 56.8553 15.9329 56.8312C15.9883 56.8381 16.0568 56.8656 16.1089 56.8622C16.1676 56.9481 16.3012 56.9756 16.4055 57.01C16.3989 57.0546 16.3924 57.0925 16.3827 57.1165C16.4055 57.0856 16.4218 57.0512 16.4413 57.0203C16.5326 57.0512 16.5815 57.0924 16.4804 57.199L16.3468 57.2849C16.7444 57.4533 16.3989 57.4567 16.7802 57.6457L16.7965 57.6251C16.878 57.7798 17.0866 57.7248 16.9399 57.9585L16.878 57.9344C16.9301 58.0169 16.9627 58.0581 16.9953 58.0993C16.9758 58.0993 16.9562 58.0993 16.9366 58.089C17.142 58.3055 16.8226 58.0719 16.891 58.2952C16.8389 58.2643 16.7998 58.2265 16.7672 58.1921C16.7868 58.2471 16.7998 58.3021 16.8095 58.3571V58.3468C16.8161 58.3227 16.8226 58.3124 16.8226 58.333C16.8226 58.333 16.8259 58.333 16.8291 58.333C16.8454 58.3227 16.8617 58.3159 16.878 58.309C16.9073 58.3984 16.8584 58.3433 16.8291 58.333C16.8226 58.3364 16.8161 58.3399 16.8095 58.3433L17.0475 58.5324C17.0247 58.4705 16.9758 58.4087 16.878 58.3056C16.9758 58.2712 17.0703 58.2952 17.1387 58.2608C17.1452 58.2677 17.1485 58.2746 17.1583 58.2815C17.155 58.3159 17.1909 58.4258 17.2495 58.4155C17.1713 58.4876 17.2299 58.6011 17.3114 58.7076C17.2919 58.7454 17.2723 58.7798 17.2593 58.8142C17.2886 58.7936 17.3212 58.7729 17.3766 58.7798C17.4483 58.8554 17.52 58.9172 17.546 58.9447C17.4646 58.7901 17.5852 58.7935 17.6797 58.7763C17.608 58.9688 17.6373 59.0376 17.8166 59.065C17.7514 59.1303 17.6829 59.1991 17.6308 59.2678C17.6145 59.2472 17.6047 59.2265 17.5949 59.2025C17.52 59.3468 17.5787 59.2919 17.5754 59.3538C17.5167 59.4603 17.5037 59.5703 17.5851 59.6871C17.5884 59.6287 17.5656 59.5599 17.6243 59.5461C17.6829 59.5324 17.6764 59.6218 17.6731 59.6527C17.7188 59.6424 17.7188 59.5805 17.7579 59.5358C17.7677 59.5496 17.7774 59.5634 17.7872 59.5771C17.7742 59.7146 17.8426 59.7696 17.9241 59.8383C17.9436 59.9001 17.9599 59.9654 17.9273 60.096C17.9762 60.0479 17.9893 59.962 18.0577 60.1098C18.0773 60.1029 18.1066 60.0995 18.1229 60.0995C18.1229 60.1063 18.1229 60.1064 18.1229 60.1098V60.096C18.1229 60.096 18.1392 60.096 18.1229 60.0926C18.1229 60.0445 18.1327 59.9963 18.1522 59.962C18.1718 59.9585 18.1946 59.9585 18.2141 59.962C18.1359 60.1132 18.6443 60.0514 18.3152 60.2095C18.4097 60.261 18.4944 60.3331 18.5791 60.4122C18.5498 60.5153 18.54 60.6081 18.3999 60.5256L18.5139 60.6906C18.5205 60.8383 18.5921 60.9895 18.6997 61.0308C18.7323 61.127 18.9702 61.1167 18.83 61.127L19.0907 61.3195L19.0647 61.3469C19.2374 61.6081 19.6382 61.7009 19.6447 62.1615C19.736 62.2199 19.837 62.2783 19.9087 62.4467L19.8305 62.5566C19.9445 62.6357 19.9739 62.9622 20.1107 62.9244C20.0227 63.0996 20.0945 63.2268 20.2281 63.3746C20.4367 63.6255 20.6713 63.8523 20.7821 64.0516L20.8831 63.9038C21.0428 64.1341 21.2285 64.3025 21.4436 64.4777L21.4599 64.3677C21.4957 64.4399 21.5316 64.5189 21.5707 64.6014C21.7043 64.8866 21.8738 65.2097 22.0269 65.2235C22.0269 65.2235 22.0269 65.2235 22.0269 65.2269C22.0302 65.2269 22.0335 65.2269 22.0367 65.2269C22.04 65.2269 22.0432 65.2269 22.0465 65.2269C22.0465 65.2269 22.0465 65.2269 22.0465 65.2235C22.1997 65.2063 22.3691 64.8832 22.5027 64.6014C22.6494 64.2955 22.7569 64.031 22.9459 63.9794C22.9916 63.8282 23.0502 63.7869 23.1187 63.756C23.1121 63.7663 23.1089 63.7767 23.1056 63.787C23.1154 63.7801 23.1252 63.7663 23.1349 63.7491C23.1806 63.7319 23.2295 63.7148 23.2816 63.6873C23.2295 63.6976 23.1838 63.708 23.1512 63.7251C23.2034 63.6495 23.2783 63.5224 23.3337 63.3884L23.4739 63.4674C23.4739 63.4674 23.4836 63.4502 23.4901 63.4399C23.6172 63.3711 23.5032 63.299 23.3761 63.2646C23.3989 63.1924 23.4087 63.1271 23.4087 63.0652C23.6661 63.1546 23.4836 62.8247 23.7541 62.9244C23.6857 62.7903 23.9366 62.5188 23.7509 62.2989C23.7802 62.3195 23.8095 62.3127 23.7834 62.3505C23.8649 62.2955 23.9496 62.2405 23.9399 62.1236L24.1191 62.2233L24.0376 61.8796C24.2104 61.859 24.2951 61.8659 24.3375 62.0652C24.3375 61.67 24.4189 61.8109 24.3928 61.4535L24.4841 61.5497C24.5362 61.4741 24.4906 61.2438 24.6079 61.2679C24.924 61.2679 25.2532 60.4843 25.7518 60.2163C25.3933 60.0444 26.032 60.1338 25.8169 59.9242C25.9049 59.9586 25.9897 59.9345 25.9995 60.0548C26.094 59.7833 26.3579 59.828 26.2764 59.5153C26.3644 59.5496 26.3449 59.6493 26.4035 59.663C26.4035 59.6321 26.3938 59.5427 26.4524 59.5565C26.5111 59.5702 26.4883 59.639 26.4915 59.6974C26.648 59.4706 26.4491 59.2644 26.2601 59.0754C26.4394 59.0479 26.4687 58.9791 26.397 58.7867C26.4915 58.8038 26.6121 58.8004 26.5306 58.9551C26.5991 58.8863 26.9836 58.5701 26.8304 58.4258C26.8891 58.4361 26.9249 58.3296 26.9217 58.2918C27.0618 58.1303 27.0879 58.1268 27.2019 57.9447L27.14 57.9688C26.9967 57.7351 27.2052 57.7901 27.2834 57.6354L27.2997 57.656C27.6777 57.467 27.3356 57.4635 27.7331 57.2951L27.5995 57.2092C27.3617 56.9583 27.9613 57.0683 28.0004 56.8072H27.8831C27.8668 56.6388 28.4468 56.845 28.5544 56.7728C28.5935 56.7728 28.5641 56.8381 28.5576 56.8828C28.9096 56.759 28.424 56.7144 28.5316 56.491C28.6456 56.5288 28.714 56.7212 28.8281 56.6078C28.8444 56.6078 28.8542 56.5976 28.864 56.5804C28.8737 56.5563 28.8868 56.5254 28.8998 56.491C28.9324 56.4051 28.9617 56.2951 28.9976 56.192C29.066 55.9755 29.1409 55.783 29.3593 55.6731C29.2192 55.7143 29.0921 55.7349 29.1214 55.5906C29.1768 55.4909 29.3658 55.3809 29.5353 55.2469C29.7015 55.1163 29.8416 54.9685 29.7243 54.8929C29.7764 54.8654 29.8155 54.8517 29.8448 54.8483C29.8677 54.7005 30.06 54.3775 29.8807 54.3638C30.3695 54.1782 30.4608 53.9513 30.4869 53.8001C30.5162 53.642 30.4934 53.5458 31.0017 53.3018L31.0865 53.1781L30.6335 53.1953V53.1918ZM17.9828 58.8588C17.986 58.8382 17.9892 58.8107 17.9925 58.7867C17.9534 58.8794 17.9143 58.9482 17.8654 58.9447L17.797 58.6939C17.8589 58.6973 17.9306 58.7111 17.999 58.7007C17.999 58.7282 17.9958 58.7592 17.9925 58.7867C18.0055 58.7592 18.0186 58.7282 18.0284 58.6973C18.0479 58.6939 18.0675 58.6835 18.087 58.6732L18.1522 58.7591C18.1099 58.8279 18.0577 58.8726 17.9828 58.8554V58.8588ZM18.8235 59.6596C18.8235 59.6596 18.817 59.663 18.8137 59.6665C18.8105 59.6561 18.804 59.6424 18.8007 59.6321L18.8235 59.663V59.6596ZM21.5512 63.3161L21.5805 63.3574C21.5707 63.3918 21.5577 63.4261 21.5479 63.4605C21.5479 63.4124 21.5479 63.3642 21.5479 63.3196L21.5512 63.3161ZM22.4864 63.3608L22.5158 63.323C22.5158 63.3642 22.5158 63.4055 22.5158 63.4467C22.506 63.4193 22.4962 63.3883 22.4897 63.3574L22.4864 63.3608ZM16.1806 56.8072C16.1806 56.8072 16.1806 56.8037 16.1806 56.8003C16.1806 56.8003 16.1806 56.8003 16.1806 56.8072ZM18.6769 60.7593C18.6769 60.7593 18.6834 60.7593 18.6866 60.7593C18.7062 60.8899 18.6997 60.8418 18.6769 60.7593ZM22.066 65.1651C22.066 65.1651 22.0726 65.1479 22.0758 65.1375L22.0628 65.1719C22.0628 65.1719 22.0465 65.1925 22.0367 65.1994C22.0269 65.1925 22.0172 65.1823 22.0107 65.1719L21.9976 65.1375C21.9976 65.1375 22.0041 65.1548 22.0074 65.1651C21.9813 65.1341 21.9552 65.0928 21.9487 65.0344C21.9552 65.0447 21.965 65.0551 21.9716 65.0654C21.9911 65.0963 22.0074 65.1307 22.0269 65.1582C22.0302 65.1547 22.0335 65.1479 22.0367 65.1444C22.04 65.1479 22.0432 65.1547 22.0465 65.1582C22.0661 65.1273 22.0824 65.0963 22.1019 65.0654C22.1084 65.0551 22.1182 65.0482 22.1247 65.0344C22.1182 65.0928 22.0921 65.1341 22.066 65.1651ZM22.884 53.0921L22.9264 53.1369C22.8286 53.185 22.8547 53.1403 22.884 53.0921ZM23.803 61.6494L23.9073 61.5153L24.0311 61.8419C23.9822 61.7834 23.8975 61.7181 23.803 61.6528V61.6494ZM26.2048 58.9447C26.1591 58.9482 26.12 58.8794 26.0777 58.7867C26.0777 58.8142 26.0809 58.8382 26.0874 58.8588C26.0418 58.8691 26.0027 58.852 25.9701 58.8245L26.0516 58.7214C26.0614 58.742 26.0711 58.766 26.0777 58.7867C26.0777 58.7592 26.0744 58.7248 26.0711 58.6939L26.107 58.6458C26.1819 58.6527 26.2471 58.6561 26.283 58.6527L26.2015 58.9447H26.2048Z" fill="#A0D92A"/>
<path d="M17.6503 59.7213L17.7708 59.8141C17.722 59.7625 17.735 59.7179 17.7317 59.6732C17.7057 59.7007 17.6796 59.7557 17.6503 59.7213Z" fill="white"/>
<path d="M18.3477 60.3537C18.3477 60.292 18.1978 60.4394 18.2206 60.3811C18.0544 60.4463 18.5758 60.5114 18.3477 60.3537Z" fill="white"/>
<path d="M14.7467 52.8581L14.613 52.7827L14.6978 52.9028L14.7467 52.8581Z" fill="white"/>
<path d="M14.489 53.1158L14.4596 52.8925L14.3782 53.0952C14.4075 53.0849 14.4662 53.0677 14.489 53.1158Z" fill="white"/>
<path d="M14.1603 54.9153C14.2171 54.9294 14.2304 54.9012 14.2204 54.8482C14.1736 54.8412 14.1502 54.8623 14.1603 54.9153Z" fill="white"/>
<path d="M26.3384 0.914307L26.3685 0.995671C26.3685 0.956754 26.3584 0.92492 26.3384 0.914307Z" fill="#ACDE45"/>
<path d="M32.8983 0.917354C32.8983 0.917354 32.9023 0.905191 32.9064 0.897095C32.9023 0.905191 32.8983 0.909258 32.8983 0.917354Z" fill="#ACDE45"/>
<path d="M27.3986 3.63623C27.3986 3.63623 27.3947 3.65165 27.3909 3.65934L27.3986 3.63623Z" fill="#ACDE45"/>
<path d="M26.1036 3.45383C26.4458 3.54318 26.5468 3.91781 26.889 3.75285C27.0552 3.78035 27.2312 3.68753 27.3941 3.63598C27.4658 3.33699 27.6092 3.62911 27.6939 3.37823L27.733 3.54662C27.7623 3.46071 27.7982 3.40232 27.834 3.49167V3.53974C27.8764 3.41259 27.9318 3.48825 27.9546 3.42295V3.47103L28.01 3.44695L28.0002 3.51566C28.0817 3.3782 28.1664 3.36789 28.2414 3.42975L28.2316 3.22704C28.3946 3.45386 28.45 3.0277 28.5966 3.2992V3.34727C28.7726 2.80772 28.8866 3.71158 29.0724 3.19952C29.0496 3.26482 29.0822 3.3026 29.0822 3.35415C29.1669 3.29573 29.2614 3.26483 29.2614 2.86618C29.3233 2.87305 29.3135 2.98992 29.32 3.14456C29.32 2.9693 29.3755 2.89713 29.4244 2.88682L29.4015 2.95553L29.5449 2.89714L29.5188 2.56715C29.5938 2.66338 29.5384 2.9693 29.6101 2.89026V2.61531C29.7144 2.6703 29.773 3.08612 29.8741 3.28888C30.2879 3.40916 30.7474 2.71496 31.1254 3.2064L31.1385 3.41263C31.1385 3.71505 31.2558 2.96931 31.2623 3.24768L31.3112 3.11016C31.3242 3.16515 31.347 3.22358 31.3242 3.28888C31.3666 3.30262 31.3666 3.25112 31.3992 3.16176L31.4383 3.35071C31.598 3.49849 31.7479 3.14456 31.9174 3.2236C32.1129 3.61194 32.5137 3.2751 32.7483 3.08264C33.0873 2.64963 33.3969 3.86279 33.7423 3.37135C33.7488 3.41603 33.7814 3.3198 33.7847 3.28544L34.078 3.34727C34.078 3.34727 34.4332 3.4023 34.6743 3.13424C34.9122 2.86962 35.0556 2.28197 34.5765 0.996672L34.5896 0.931397C34.4332 0.759565 34.3289 0.718262 34.192 1.03787C34.1985 0.632346 34.0584 0.986309 34.0258 0.855717L34.0323 0.821401C33.9118 1.12382 33.8368 0.549907 33.7227 0.821401C33.7292 0.790471 33.7358 0.680523 33.7586 0.67365C33.6836 0.718326 33.5826 0.804225 33.5891 0.570534C33.4132 0.622083 33.1785 0.501758 33.0514 0.869477L33.0612 0.804201C32.9863 1.05507 32.9797 0.838554 32.9048 0.962273C32.9048 0.931343 32.8983 0.914187 32.8983 0.903877C32.8201 1.15131 32.6995 0.934769 32.6375 1.03787V0.883237L32.5039 0.914197L32.5528 0.948513C32.5202 1.37809 32.4616 0.673582 32.3508 0.948513C32.2595 0.89009 32.1357 1.83515 32.0477 1.62208C31.9955 1.8214 32.0966 1.2956 32.0249 1.45025C32.0281 1.22687 32.0607 1.30937 32.0477 1.13066C31.9792 1.23376 31.9467 0.896977 31.8587 1.04819V0.872917C31.7446 1.18909 31.6632 0.635769 31.585 0.938193C31.4709 1.07909 31.523 0.419336 31.3992 0.756125L31.3601 0.518934C31.3112 0.481131 31.3177 0.807611 31.2656 0.690766C31.2721 0.542991 31.1971 0.57048 31.233 0.429578C31.1124 0.192451 30.9756 0.752635 30.8159 0.357423C30.7768 0.646099 30.6953 0.474258 30.6659 0.690766C30.6659 0.56361 30.4998 0.666756 30.5975 0.395263C30.6073 0.374643 30.6204 0.378026 30.6171 0.426138L30.6301 0.254307C30.5421 -0.0721725 30.4574 0.429612 30.3662 0.378063C30.3922 0.436485 30.4281 0.419292 30.4053 0.539574L30.3205 0.515494L30.3401 0.371183L30.213 0.285267L30.2293 0.463978C30.1674 0.371189 30.1478 0.068793 30.0761 0.319667C30.0435 0.460569 30.1348 0.560184 30.0663 0.61517C29.9849 0.491451 29.8578 0.309293 29.7535 0.254307C29.7633 0.457068 29.7339 0.446819 29.7046 0.488058V0.312787C29.5873 0.556787 29.6622 -0.0721356 29.5482 0.120316L29.558 0L29.5286 0.364303C29.4276 0.711402 29.4732 0.00348026 29.3624 0.474298C29.408 0.443369 29.382 0.859167 29.3298 0.783561L29.3429 0.61517C29.3136 0.649536 29.3038 0.721692 29.2809 0.687326C29.3005 0.597973 29.2907 0.443365 29.2451 0.470858L29.2744 0.261187L29.1897 0.570534C29.1245 0.388393 29.0202 0.618627 28.9942 0.378063C28.9942 0.378063 28.8541 0.26119 28.8215 0.522374C28.8475 0.360853 28.7726 0.29901 28.7921 0.109996C28.7563 0.292137 28.652 0.443315 28.6064 0.247427L28.6129 0.226871C28.4532 0.0275467 28.3424 0.501751 28.199 0.261187C28.2088 0.463948 28.1306 0.353983 28.1534 0.61173C28.01 0.869477 27.8764 0.0893826 27.8373 0.890117C27.7721 0.934793 27.7558 0.704569 27.72 0.66333L27.7363 0.62205C27.6124 0.690782 27.5766 0.697629 27.4821 0.680446C27.4364 0.759488 27.4365 1.13066 27.3517 1.04475C27.3746 0.896973 27.342 0.924517 27.3126 0.924517C27.3322 0.90046 27.3354 0.845471 27.2931 0.749245C27.2898 0.793921 27.2801 0.824861 27.2735 0.845481C27.2735 0.835171 27.2735 0.824824 27.2735 0.807641C27.2214 0.862627 27.2344 0.907337 27.2572 0.927957C27.2572 0.952013 27.2572 0.979429 27.267 1.02067C27.2084 0.831654 27.1171 1.03787 27.1041 0.783561C26.9509 0.84542 26.8433 1.11348 26.7162 1.21314C26.6967 1.08255 26.726 0.965746 26.7619 0.914197L26.6706 0.965713C26.6674 0.776698 26.7195 0.855764 26.7488 0.817961C26.6315 0.515538 26.5305 1.12721 26.3936 0.852277L26.3708 1.00011L26.361 0.976032C26.361 1.05507 26.3382 1.16165 26.3187 1.18914C26.2959 1.02762 26.3089 0.811094 26.247 0.824841C26.1916 0.670193 26.1069 0.907323 26.045 1.00011C26.0808 1.02761 26.0743 1.11696 26.058 1.17538C26.0254 1.18226 26.0026 1.02074 25.9798 1.08947L25.97 0.869477C25.9896 1.07567 25.895 1.09635 25.8853 1.18914C25.8625 1.02762 25.9309 1.0448 25.9341 0.921077C25.807 0.945133 25.8722 0.934776 25.7451 0.958833C25.6832 1.12723 25.7647 1.16852 25.7386 1.36098C25.6799 1.40565 25.6278 1.56372 25.5529 1.43313L25.5822 1.62896C25.4746 1.78361 25.4095 1.76645 25.3247 1.57056C24.9402 2.38848 24.9207 2.93489 24.9956 3.27856C25.0706 3.62222 25.2368 3.75973 25.2368 3.75973C25.5757 4.179 25.719 3.60158 26.1003 3.43319L26.1036 3.45383Z" fill="#ACDE45"/>
<path d="M43.1349 2.44348L43.1421 2.53203C43.1528 2.49307 43.1528 2.46119 43.1349 2.44348Z" fill="#ACDE45"/>
<path d="M49.385 5.16706C49.385 5.16706 49.3963 5.15896 49.4039 5.15491C49.3963 5.15491 49.3926 5.16301 49.385 5.16706Z" fill="#ACDE45"/>
<path d="M43.3682 5.37158C43.3682 5.37158 43.3606 5.38375 43.353 5.39184L43.3682 5.37158Z" fill="#ACDE45"/>
<path d="M42.2286 4.80767C42.5252 4.98638 42.5089 5.38503 42.8707 5.32661C43.0173 5.39877 43.1998 5.37133 43.3627 5.37477C43.5159 5.11358 43.5615 5.42977 43.7147 5.22357L43.6984 5.39541C43.7505 5.32324 43.8027 5.28198 43.8059 5.37821L43.7896 5.42284C43.8711 5.31631 43.8972 5.40567 43.9363 5.35069L43.92 5.39541H43.9787L43.9493 5.45724C44.0634 5.35414 44.1448 5.37476 44.1937 5.45724L44.2491 5.26133C44.3241 5.52939 44.5098 5.15138 44.5554 5.4538L44.5392 5.49844C44.8781 5.05511 44.6793 5.93836 45.0149 5.5294C44.9726 5.58095 44.9889 5.63247 44.9693 5.67715C45.0671 5.65309 45.1583 5.66 45.2985 5.28541C45.3539 5.3129 45.3017 5.41946 45.2561 5.56724C45.3148 5.40228 45.3897 5.35757 45.4386 5.36445L45.393 5.4194H45.5429L45.6341 5.09982C45.67 5.21666 45.507 5.48128 45.6015 5.4366L45.6993 5.18229C45.7742 5.27508 45.6797 5.68064 45.6928 5.90746C46.0089 6.17208 46.6802 5.72876 46.8106 6.34048L46.7389 6.53287C46.6183 6.80436 47.0191 6.18232 46.9116 6.43663L47.0093 6.3336C46.9963 6.38858 46.9963 6.45044 46.9474 6.50199C46.9768 6.52948 46.9996 6.48825 47.0648 6.41951L47.0191 6.60502C47.0908 6.81122 47.3678 6.55692 47.4786 6.7047C47.4689 7.14115 47.9479 7.02088 48.2314 6.97276C48.4693 6.86966 48.5182 7.11371 48.554 7.36115C48.5899 7.60858 48.6257 7.83533 48.8897 7.72192C48.8734 7.76316 48.9483 7.70134 48.9679 7.67385L49.1602 7.88352C49.1602 7.88352 49.2221 7.94188 49.3231 7.98999C49.4241 8.04154 49.5643 8.08283 49.7305 8.04503C49.8967 8.00723 50.0922 7.89383 50.291 7.62577C50.4865 7.35772 50.6918 6.93501 50.8352 6.25112L50.8808 6.2064C50.8417 5.95897 50.7668 5.85931 50.4767 6.04145C50.6951 5.7081 50.3855 5.9143 50.4278 5.7837L50.4507 5.75962C50.19 5.94177 50.4181 5.40572 50.1736 5.57068C50.1932 5.54662 50.2584 5.45725 50.2812 5.46756C50.19 5.46412 50.0563 5.47442 50.1769 5.27853C49.9944 5.21667 49.8348 4.9727 49.5415 5.22357L49.5806 5.17197C49.3948 5.34724 49.4893 5.15484 49.3622 5.22357C49.3752 5.19608 49.3785 5.17884 49.385 5.16853C49.1993 5.34037 49.1895 5.08268 49.0885 5.1411L49.1634 5.00702L49.0233 4.96239L49.0526 5.02078C48.8278 5.37819 49.0918 4.73209 48.8669 4.91767C48.8082 4.818 48.277 5.58782 48.2933 5.35413C48.1597 5.50534 48.4791 5.08951 48.3487 5.18917C48.4497 4.99329 48.4432 5.08263 48.5084 4.91767C48.4009 4.97265 48.5149 4.65992 48.3715 4.74928L48.4465 4.59464C48.2053 4.81802 48.3618 4.28536 48.1597 4.51905C47.9968 4.59122 48.3194 4.02074 48.0619 4.26474L48.1206 4.03099C48.0913 3.97257 47.9642 4.27158 47.9609 4.14099C48.0294 4.01039 47.9446 4.00009 48.0359 3.89012C48.0131 3.61863 47.6611 4.06195 47.6676 3.62893C47.5177 3.87293 47.508 3.68046 47.3939 3.86604C47.4395 3.74919 47.244 3.77329 47.4428 3.5671C47.459 3.54991 47.4721 3.56018 47.4493 3.60485L47.5275 3.45366C47.5666 3.11687 47.2929 3.53614 47.2244 3.45022C47.2277 3.51552 47.27 3.51895 47.2016 3.61517L47.1299 3.55334L47.2016 3.42958L47.1104 3.29215L47.0582 3.46398C47.0322 3.35057 47.1267 3.06187 46.9637 3.26463C46.879 3.38147 46.9311 3.51208 46.8464 3.5327C46.8106 3.38492 46.7584 3.16159 46.6737 3.0688C46.6118 3.25782 46.5857 3.24057 46.5434 3.26463L46.602 3.10312C46.4065 3.27839 46.6998 2.72854 46.5205 2.85913L46.5727 2.74913L46.413 3.07568C46.1914 3.35749 46.4847 2.71822 46.2109 3.11C46.2631 3.09969 46.0969 3.47773 46.0708 3.38494L46.1425 3.23375C46.1001 3.25437 46.0675 3.31619 46.0578 3.27495C46.1066 3.19591 46.1523 3.05161 46.0969 3.05848L46.1979 2.87289L46.0089 3.1272C46.0089 2.93131 45.8297 3.10314 45.8851 2.86945C45.8851 2.86945 45.7873 2.70448 45.67 2.93817C45.7514 2.79726 45.696 2.71138 45.7775 2.53955C45.683 2.69763 45.5298 2.80071 45.5494 2.60138L45.5657 2.58418C45.4712 2.33675 45.2137 2.74232 45.1486 2.46051C45.0932 2.6564 45.0541 2.52578 44.9922 2.77665C44.7738 2.96911 44.8846 2.18553 44.5978 2.92785C44.5196 2.94503 44.575 2.72165 44.5522 2.6701L44.5815 2.63578C44.4381 2.6564 44.4023 2.6495 44.3143 2.60482C44.2459 2.66325 44.1351 3.01726 44.0797 2.90729C44.1481 2.77326 44.1057 2.7904 44.0764 2.78009C44.1025 2.76291 44.122 2.7148 44.109 2.60482C44.0894 2.64606 44.0732 2.67012 44.0601 2.69074C44.0601 2.68043 44.0634 2.67009 44.0699 2.65634C44.0047 2.69071 44.0015 2.73884 44.0178 2.76289C44.0112 2.78351 44.0047 2.81101 44.0015 2.85569C44.0015 2.65637 43.8515 2.8213 43.9135 2.5773C43.744 2.58418 43.5648 2.80415 43.4149 2.86257C43.4344 2.73198 43.4931 2.62887 43.5419 2.59106L43.4377 2.6117C43.4866 2.42956 43.5159 2.52232 43.555 2.49483C43.5224 2.17178 43.2552 2.72165 43.1998 2.41579L43.1379 2.55331V2.52579C43.1183 2.60139 43.0629 2.69764 43.0369 2.71482C43.0597 2.54986 43.1314 2.35051 43.0662 2.3402C43.0531 2.17524 42.9065 2.37802 42.8185 2.44675C42.8478 2.48455 42.8152 2.56703 42.7859 2.61858C42.7533 2.61858 42.7729 2.45361 42.7338 2.51547L42.7827 2.299C42.7468 2.5052 42.649 2.49483 42.6165 2.58074C42.636 2.41579 42.6979 2.45704 42.7338 2.3402C42.6034 2.32645 42.6686 2.3333 42.5382 2.31956C42.434 2.46389 42.5024 2.52579 42.4275 2.7045C42.359 2.73199 42.2677 2.86603 42.2286 2.71826L42.2058 2.91409C42.0625 3.03437 42.0038 2.99661 41.9712 2.78697C41.3911 3.46399 41.2445 3.9898 41.2315 4.34034C41.2184 4.69087 41.339 4.87303 41.339 4.87303C41.5475 5.36791 41.8278 4.8489 42.2254 4.80079L42.2286 4.80767Z" fill="#ACDE45"/>
<path d="M55.0633 14.6434L54.9865 14.6828C55.0232 14.6792 55.0533 14.6685 55.0633 14.6434Z" fill="#ACDE45"/>
<path d="M54.26 21.8191C54.26 21.8191 54.2706 21.8267 54.2741 21.8342C54.2706 21.8267 54.2635 21.8229 54.26 21.8191Z" fill="#ACDE45"/>
<path d="M52.515 15.8197C52.515 15.8197 52.5006 15.8159 52.4934 15.812L52.515 15.8197Z" fill="#ACDE45"/>
<path d="M52.6469 14.592C52.5882 14.9219 52.2362 15.0318 52.3992 15.3446C52.3796 15.4992 52.4644 15.6641 52.5132 15.8154C52.7935 15.8841 52.5198 16.0181 52.7544 16.1041L52.5947 16.1385C52.6762 16.1694 52.7283 16.2071 52.6403 16.2346H52.5947C52.7153 16.2793 52.6403 16.3309 52.7022 16.3515H52.6566L52.6762 16.403L52.611 16.3928C52.7381 16.4752 52.7414 16.5577 52.6794 16.6299H52.8717C52.6501 16.7777 53.0477 16.8567 52.7804 16.9839L52.7349 16.977C53.2335 17.1969 52.3698 17.2278 52.8359 17.4546C52.7772 17.4271 52.7348 17.4546 52.6892 17.4478C52.7381 17.5371 52.7577 17.6334 53.1324 17.6781C53.1194 17.7399 53.0086 17.7158 52.8619 17.7055C53.0281 17.7261 53.0901 17.788 53.0933 17.8396L53.0314 17.8086L53.0705 17.9564L53.3834 17.9701C53.2856 18.0354 53.002 17.9392 53.0672 18.0217L53.3247 18.056C53.2595 18.1557 52.8619 18.1626 52.6599 18.2313C52.4937 18.6128 53.0705 19.1936 52.5458 19.4754L52.3503 19.4479C52.07 19.3895 52.7414 19.6472 52.4807 19.5991L52.598 19.6712C52.5458 19.6712 52.4872 19.685 52.4285 19.6472C52.409 19.685 52.4546 19.6954 52.5328 19.7469H52.3503C52.1808 19.8672 52.4806 20.0871 52.3731 20.2349C51.9755 20.3311 52.1939 20.7847 52.3079 21.0665C52.4644 21.2865 52.2395 21.393 52.0277 21.4858C51.8126 21.582 51.6073 21.6714 51.7735 21.9119C51.7311 21.9051 51.8061 21.967 51.8354 21.9807L51.6887 22.2282C51.6887 22.2282 51.5291 22.5305 51.6757 22.8536C51.8256 23.1629 52.2688 23.5684 53.5919 23.5546L53.644 23.589C53.8559 23.4894 53.9373 23.3897 53.6995 23.1388C54.0579 23.2832 53.7939 23.0151 53.9243 23.0254L53.9504 23.0426C53.719 22.8158 54.2632 22.9223 54.0579 22.7127C54.084 22.7299 54.1817 22.7711 54.1785 22.7986C54.1622 22.7024 54.1198 22.5684 54.3316 22.6474C54.3447 22.4447 54.5305 22.2212 54.2306 21.9841L54.286 22.015C54.0807 21.8673 54.2795 21.9189 54.1883 21.802C54.2176 21.8089 54.2339 21.8088 54.2437 21.8123C54.0416 21.661 54.273 21.5923 54.1948 21.4996L54.3382 21.5443L54.348 21.3896L54.3023 21.4343C53.9178 21.2899 54.5793 21.4033 54.3545 21.2177C54.4327 21.1318 53.5952 20.7779 53.8102 20.7366C53.6375 20.637 54.097 20.8638 53.9764 20.7538C54.1818 20.8088 54.097 20.8226 54.2632 20.8535C54.185 20.7573 54.5044 20.7985 54.3871 20.6714L54.5467 20.7126C54.2828 20.5201 54.8107 20.5511 54.5467 20.3998C54.4392 20.2486 55.0421 20.4377 54.7553 20.2349H54.9834C55.029 20.1937 54.7227 20.1352 54.8433 20.1008C54.9802 20.1352 54.9704 20.0493 55.091 20.1146C55.3354 20.0252 54.84 19.7709 55.2376 19.6678C54.9736 19.575 55.1496 19.5166 54.9541 19.4479C55.0714 19.4651 55.003 19.2726 55.2409 19.4204C55.2604 19.4341 55.2539 19.4479 55.2083 19.4376L55.3647 19.4823C55.6841 19.4376 55.2311 19.2623 55.293 19.1729C55.2344 19.1936 55.2441 19.2348 55.1366 19.1901L55.1724 19.1008L55.306 19.1455L55.4071 19.0183L55.2376 19.008C55.3354 18.953 55.6221 18.9771 55.3973 18.8602C55.2702 18.8053 55.1627 18.8877 55.1203 18.8086C55.2506 18.7365 55.4397 18.6231 55.5049 18.5097C55.3126 18.4925 55.3256 18.4616 55.2898 18.4238L55.456 18.4444C55.2441 18.2863 55.8242 18.4478 55.658 18.2966L55.7721 18.3241L55.4331 18.2451C55.1203 18.0904 55.7818 18.2244 55.3484 18.0457C55.3712 18.0973 54.9834 18.0251 55.0616 17.9736L55.2181 18.008C55.1887 17.9702 55.1236 17.953 55.1594 17.9324C55.2441 17.9633 55.3908 17.9702 55.368 17.9152L55.5635 17.9701L55.28 17.843C55.456 17.788 55.2539 17.6505 55.4788 17.6437C55.4788 17.6437 55.6026 17.4959 55.3582 17.4374C55.5081 17.4821 55.5733 17.3996 55.7525 17.4374C55.583 17.379 55.4494 17.2485 55.6352 17.2141L55.6547 17.2244C55.8568 17.056 55.4169 16.9013 55.6515 16.7501C55.4592 16.7501 55.5668 16.6676 55.3223 16.678C55.0877 16.5061 55.8307 16.3859 55.0714 16.3103C55.0323 16.2347 55.2507 16.2243 55.2898 16.1865L55.3289 16.2037C55.2702 16.0628 55.2604 16.0216 55.2767 15.915C55.2018 15.8635 54.8498 15.8601 54.9346 15.7673C55.0747 15.7948 55.0486 15.7569 55.0486 15.7226C55.0714 15.7432 55.1236 15.7501 55.2148 15.702C55.1724 15.6951 55.1431 15.6882 55.1203 15.6779C55.1301 15.6779 55.1398 15.6779 55.1561 15.6779C55.104 15.6195 55.0616 15.6332 55.0421 15.6607C55.0193 15.6607 54.9932 15.6607 54.9541 15.671C55.1333 15.6057 54.9378 15.5061 55.1757 15.4889C55.1171 15.3136 54.8596 15.2037 54.7586 15.0696C54.8824 15.0456 54.9932 15.0696 55.0421 15.1108L54.9899 15.0112C55.1692 15.0009 55.0942 15.0628 55.1333 15.0937C55.4136 14.9494 54.8303 14.8634 55.0812 14.695L54.9378 14.6779L54.9606 14.6676C54.8857 14.6744 54.7814 14.6538 54.7586 14.6332C54.9117 14.5988 55.1138 14.5988 55.1007 14.5266C55.2441 14.4545 55.0095 14.372 54.9183 14.3102C54.8954 14.3514 54.8107 14.3513 54.752 14.341C54.7423 14.3067 54.8954 14.2655 54.827 14.2483L55.0356 14.2174C54.84 14.2552 54.814 14.1521 54.726 14.1521C54.8792 14.1108 54.8661 14.1864 54.9834 14.183C54.9443 14.0421 54.9639 14.1143 54.9248 13.9734C54.7586 13.9218 54.7292 14.018 54.5435 14.0077C54.4946 13.9493 54.3414 13.9115 54.4555 13.8153L54.2763 13.8703C54.1133 13.774 54.1231 13.7053 54.2958 13.5884C53.4713 13.2963 52.9565 13.396 52.6501 13.5266C52.3405 13.6572 52.233 13.829 52.233 13.829C51.881 14.1933 52.4383 14.2346 52.624 14.5817L52.6469 14.592Z" fill="#ACDE45"/>
<path d="M47.4507 30.3846L47.3872 30.3282C47.4073 30.3599 47.4273 30.3846 47.4507 30.3846Z" fill="#ACDE45"/>
<path d="M45.2893 28.5369C45.2893 28.5369 45.2892 28.5215 45.2854 28.5138V28.5369H45.2893Z" fill="#ACDE45"/>
<path d="M46.4454 28.0671C46.1228 28.1634 45.8653 27.8815 45.6567 28.1908C45.5068 28.2458 45.4025 28.4107 45.2885 28.531C45.3602 28.8266 45.1093 28.6376 45.1451 28.8988L45.0408 28.7682C45.0538 28.8576 45.0473 28.9262 44.9789 28.8609L44.9593 28.8163C44.9756 28.9503 44.8975 28.9091 44.9072 28.9778L44.8877 28.9332L44.8486 28.9812L44.8258 28.916C44.816 29.0741 44.7443 29.1222 44.653 29.1016L44.7475 29.2803C44.5097 29.1531 44.6432 29.5551 44.4021 29.3833L44.3826 29.3387C44.4477 29.9023 43.9784 29.1393 44.0273 29.6823C44.0208 29.6136 43.9752 29.5929 43.9556 29.5483C43.9035 29.641 43.8351 29.7098 43.998 30.0706C43.9393 30.0947 43.9002 29.9813 43.8318 29.8438C43.9035 30.0019 43.884 30.0913 43.8448 30.1222L43.8383 30.0501L43.7373 30.1669L43.8937 30.4556C43.7895 30.404 43.7145 30.0982 43.6819 30.2047L43.7927 30.4521C43.6786 30.4521 43.457 30.1016 43.2876 29.9573C42.8737 30.0294 42.7303 30.8577 42.1959 30.5724L42.1046 30.3903C41.9873 30.1154 42.1731 30.8439 42.0558 30.593L42.0655 30.7374C42.0329 30.6927 41.9873 30.6514 41.984 30.5792C41.9417 30.5861 41.958 30.6308 41.9645 30.7271L41.8537 30.5724C41.6517 30.5037 41.6549 30.8955 41.4659 30.8955C41.1367 30.6274 40.9021 31.1051 40.762 31.3834C40.6218 31.9264 39.8626 30.9539 39.7355 31.5587C39.7094 31.5243 39.7192 31.624 39.729 31.6549L39.4356 31.7305C39.4356 31.7305 38.0343 32.1739 39.9179 34.0812L39.9343 34.1431C40.1428 34.229 40.2536 34.2221 40.2471 33.8716C40.4035 34.2427 40.3872 33.8578 40.4687 33.9644L40.4752 33.9953C40.4622 33.6654 40.7587 34.1568 40.7555 33.8612C40.762 33.8922 40.7978 33.9952 40.7815 34.0124C40.8304 33.9368 40.8891 33.8166 40.9771 34.0331C41.1139 33.9093 41.3746 33.9197 41.3453 33.5279L41.3616 33.5897C41.3323 33.3285 41.4235 33.5245 41.4431 33.3767C41.4561 33.4042 41.4659 33.4179 41.4724 33.4282C41.4463 33.1705 41.6419 33.3148 41.6549 33.1946L41.7136 33.3389L41.8276 33.2529L41.769 33.2426C41.6321 32.8371 41.958 33.4523 41.9515 33.1567C42.0557 33.1705 41.8048 32.2563 41.9678 32.411C41.9384 32.2082 42.0492 32.7306 42.0558 32.5587C42.1372 32.7649 42.0785 32.6997 42.1568 32.8612C42.1796 32.7375 42.3393 33.0296 42.3621 32.8578L42.4273 33.0193C42.411 32.6825 42.6977 33.1499 42.6554 32.8406C42.7043 32.6619 42.9128 33.2873 42.8965 32.9265L43.0236 33.1258C43.0823 33.1396 42.9486 32.844 43.0432 32.9265C43.0953 33.0639 43.1507 33.0056 43.1735 33.1499C43.3756 33.3114 43.2843 32.7409 43.5841 33.033C43.5092 32.7512 43.6493 32.8749 43.5907 32.6653C43.6428 32.7787 43.7503 32.6137 43.7699 32.9024C43.7699 32.9265 43.7568 32.93 43.7373 32.8818L43.7927 33.0434C44.0045 33.3011 43.8839 32.8096 43.9882 32.813C43.9393 32.7718 43.9133 32.8028 43.8905 32.6859L43.9785 32.6687L44.0176 32.8096L44.1675 32.8302L44.0827 32.6756C44.1772 32.7306 44.3141 32.9986 44.2815 32.7375C44.2554 32.5931 44.1316 32.5451 44.1707 32.4626C44.2946 32.5348 44.4836 32.6515 44.6041 32.6481C44.5162 32.4694 44.5455 32.4625 44.5553 32.4144L44.627 32.5725C44.6335 32.301 44.8192 32.9024 44.8453 32.6756L44.8844 32.7891L44.7638 32.4454C44.7182 32.0845 44.9626 32.7478 44.8746 32.2701C44.8453 32.3182 44.6987 31.9333 44.7801 31.9745L44.8355 32.1326C44.8485 32.0879 44.829 32.0192 44.8616 32.0398C44.8812 32.1292 44.9528 32.2666 44.9822 32.2185L45.0408 32.4213L44.992 32.1017C45.1256 32.2323 45.1288 31.9814 45.2494 32.1808C45.2494 32.1808 45.4286 32.2185 45.3472 31.9711C45.3895 32.1292 45.4873 32.1464 45.5459 32.3285C45.5036 32.1464 45.5394 31.9608 45.66 32.1155V32.1395C45.8946 32.2391 45.7936 31.7615 46.0315 31.9058C45.937 31.7305 46.0543 31.789 45.924 31.569C45.9435 31.27 46.403 31.9024 46.0934 31.167C46.1326 31.0948 46.2499 31.2907 46.2988 31.3113V31.3559C46.3867 31.2322 46.416 31.2081 46.5105 31.1772C46.5171 31.0844 46.3541 30.7545 46.4682 30.7924C46.5105 30.9367 46.5301 30.8954 46.5594 30.8783C46.5529 30.9092 46.5725 30.9607 46.654 31.026C46.6377 30.9813 46.6344 30.9538 46.6279 30.9298C46.6344 30.9401 46.6377 30.947 46.6474 30.9607C46.6702 30.8886 46.6409 30.8507 46.6083 30.8473C46.5985 30.8267 46.5822 30.8026 46.5594 30.7717C46.6963 30.9092 46.6865 30.679 46.8104 30.8989C46.9212 30.7614 46.8983 30.4761 46.9635 30.3215C47.0385 30.4246 47.0678 30.5415 47.058 30.6068L47.1167 30.514C47.2079 30.6755 47.1232 30.6377 47.1167 30.6858C47.3611 30.8851 47.1688 30.2975 47.4198 30.4659L47.3709 30.3249L47.3905 30.3421C47.3513 30.2768 47.322 30.1669 47.3285 30.136C47.4263 30.2666 47.5143 30.459 47.5664 30.4143C47.6902 30.5208 47.6544 30.2665 47.6642 30.1531C47.6186 30.1531 47.5827 30.0672 47.5664 30.0088C47.5925 29.9847 47.6903 30.1119 47.674 30.0397L47.788 30.2253C47.6707 30.0569 47.7457 29.9881 47.7098 29.9022C47.8108 30.0294 47.7391 30.05 47.7945 30.16C47.8956 30.0672 47.8434 30.1119 47.9444 30.0191C47.9184 29.8404 47.8271 29.8507 47.7522 29.6686C47.7815 29.5964 47.7522 29.4349 47.8793 29.5071L47.7587 29.3559C47.775 29.1634 47.8402 29.1428 48.0096 29.2596C47.9282 28.3489 47.6479 27.8884 47.4132 27.641C47.1754 27.3936 46.9733 27.3626 46.9733 27.3626C46.4975 27.1839 46.6768 27.7441 46.4454 28.0809V28.0671Z" fill="#ACDE45"/>
<path d="M32.1992 37.4916L32.139 37.4318C32.1558 37.467 32.1758 37.4916 32.1992 37.4916Z" fill="#ACDE45"/>
<path d="M27.2313 41.3185C27.2313 41.3185 27.2353 41.3306 27.2434 41.3387C27.2434 41.3306 27.2394 41.3225 27.2313 41.3185Z" fill="#ACDE45"/>
<path d="M30.0573 35.599C30.0573 35.599 30.0573 35.5836 30.0535 35.5759V35.599H30.0573Z" fill="#ACDE45"/>
<path d="M31.3668 35.0984C31.0051 35.1809 30.7509 34.899 30.4869 35.2221C30.3142 35.2874 30.1871 35.4661 30.0568 35.5967C30.1252 35.8957 29.858 35.7238 29.8938 35.9919L29.7798 35.8682C29.7928 35.961 29.7863 36.0297 29.7113 35.9713L29.6885 35.9266C29.7081 36.0641 29.6201 36.0297 29.6299 36.0984L29.607 36.0538L29.5647 36.1053L29.5386 36.04C29.5288 36.2015 29.4571 36.2599 29.3561 36.2531L29.4637 36.4214C29.203 36.3252 29.3659 36.7171 29.0954 36.5762L29.0726 36.5349C29.1866 37.095 28.6229 36.4111 28.7207 36.9541C28.7076 36.8854 28.6555 36.8751 28.6327 36.8305C28.587 36.9336 28.5186 37.016 28.7337 37.346C28.675 37.3803 28.6196 37.2738 28.5317 37.1535C28.6262 37.2978 28.6197 37.3941 28.5805 37.4353L28.5642 37.3665L28.473 37.5075L28.6783 37.7583C28.561 37.7274 28.4404 37.4421 28.4241 37.5521L28.574 37.7755C28.4567 37.7962 28.1732 37.5006 27.9711 37.4044C27.5344 37.5968 27.5703 38.456 26.9609 38.3666L26.8208 38.2222C26.6285 37.9989 27.0065 38.6415 26.8208 38.4422L26.8697 38.5797C26.8273 38.5487 26.7686 38.5247 26.7458 38.456C26.7035 38.48 26.7328 38.5178 26.7654 38.6072L26.6122 38.5006C26.3841 38.5178 26.4949 38.889 26.3156 38.9749C25.9018 38.8581 25.8138 39.432 25.7877 39.7585C25.8203 40.0403 25.5661 40.054 25.3152 40.0815C25.0643 40.109 24.8068 40.1467 24.8785 40.4595C24.8394 40.4423 24.8916 40.5282 24.9144 40.5488L24.6732 40.786C24.6732 40.786 24.6015 40.8581 24.5461 40.9853C24.4875 41.1124 24.4385 41.2843 24.4711 41.4699C24.533 41.8514 24.96 42.2397 26.2179 42.5559L26.2635 42.6006C26.4753 42.5696 26.5568 42.5146 26.3841 42.2225C26.6904 42.4665 26.4949 42.1469 26.6155 42.2019L26.6383 42.226C26.4721 41.9476 26.9478 42.2397 26.8045 41.9854C26.824 42.0095 26.9022 42.085 26.8957 42.1056C26.9022 42.0197 26.8957 41.8926 27.0684 42.0438C27.1304 41.8823 27.3454 41.7895 27.1564 41.4527L27.1955 41.5042C27.0619 41.2877 27.2216 41.4218 27.1792 41.2843C27.202 41.3015 27.2151 41.3118 27.2249 41.3186C27.0978 41.0953 27.3291 41.1537 27.29 41.0403L27.3976 41.1468L27.4595 41.0266L27.4041 41.0369C27.1303 40.7173 27.6485 41.1571 27.5312 40.8925C27.6289 40.8719 27.0749 40.1193 27.2802 40.2052C27.1825 40.0265 27.4627 40.4732 27.4106 40.3117C27.5572 40.4732 27.479 40.4354 27.6061 40.5557C27.5833 40.432 27.8277 40.6485 27.7886 40.4836L27.9027 40.6108C27.7723 40.3015 28.1895 40.6485 28.0461 40.377C28.0331 40.1949 28.4209 40.7172 28.2905 40.3873L28.4665 40.5386C28.5251 40.5386 28.3133 40.298 28.4208 40.3496C28.5088 40.4664 28.5414 40.3942 28.6066 40.5248C28.8347 40.6279 28.5838 40.1159 28.9357 40.322C28.7891 40.0746 28.9488 40.1605 28.838 39.9715C28.9162 40.0677 28.9683 39.8856 29.0628 40.1571C29.0694 40.1812 29.0596 40.1846 29.0302 40.1468L29.1247 40.2876C29.3789 40.487 29.141 40.0505 29.2388 40.0333C29.1867 40.0058 29.1671 40.0368 29.1182 39.9303L29.1932 39.8993L29.2649 40.0231L29.405 40.0162L29.2909 39.8856C29.3887 39.9234 29.5777 40.1537 29.4832 39.9097C29.4278 39.7791 29.304 39.7516 29.3203 39.6691C29.4506 39.7172 29.6462 39.7928 29.757 39.779C29.6364 39.6209 29.6625 39.6107 29.6625 39.5626L29.7602 39.7034C29.7114 39.4423 30.0014 39.9921 29.9786 39.7722L30.0372 39.8787L29.858 39.5626C29.7439 39.2223 30.0959 39.8306 29.9232 39.377C29.9069 39.4251 29.6983 39.0711 29.783 39.102L29.8645 39.2499C29.8678 39.2018 29.8384 39.1399 29.8743 39.1571C29.9101 39.243 29.9981 39.3633 30.0177 39.3151L30.1089 39.5042L30.0079 39.2017C30.1545 39.3151 30.1122 39.0711 30.2588 39.2532C30.2588 39.2532 30.425 39.2739 30.3142 39.0402C30.3761 39.1914 30.4674 39.2017 30.5488 39.3701C30.4804 39.1983 30.4869 39.0127 30.6205 39.1571L30.6271 39.1811C30.8519 39.267 30.6988 38.8099 30.9334 38.9405C30.8259 38.7721 30.9399 38.8271 30.7965 38.6141C30.7867 38.3151 31.2691 38.9268 30.9204 38.2154C30.9529 38.1433 31.0768 38.3357 31.1257 38.3529L31.1322 38.3975C31.2006 38.2772 31.2267 38.2532 31.3114 38.2222C31.3114 38.1294 31.142 37.8064 31.2528 37.8408C31.3016 37.9817 31.3147 37.9405 31.3408 37.9267C31.3342 37.9577 31.357 38.0057 31.4352 38.0745C31.4189 38.0332 31.4124 38.0023 31.4092 37.9782C31.4157 37.9886 31.419 37.9955 31.4288 38.0092C31.4483 37.937 31.419 37.9026 31.3896 37.8958C31.3799 37.8751 31.3636 37.8511 31.3408 37.8202C31.4744 37.9611 31.4613 37.7343 31.5852 37.9542C31.6862 37.8271 31.6568 37.5384 31.7253 37.3906C31.797 37.4971 31.823 37.614 31.8133 37.6759L31.8687 37.5899C31.9534 37.7549 31.8719 37.7102 31.8687 37.7583C32.0968 37.9748 31.9241 37.3837 32.1555 37.5693L32.1131 37.425L32.1294 37.4422C32.0935 37.3735 32.0707 37.2635 32.0773 37.2325C32.1652 37.37 32.2434 37.5659 32.2923 37.5281C32.4031 37.645 32.3771 37.3906 32.3966 37.2806C32.3543 37.2737 32.3249 37.1878 32.3119 37.1294C32.338 37.1088 32.4227 37.2463 32.4129 37.1741L32.5107 37.37C32.4096 37.1913 32.4846 37.1328 32.4553 37.0469C32.54 37.1844 32.4748 37.1947 32.5205 37.3081C32.6215 37.2325 32.5693 37.2703 32.6703 37.1912C32.6573 37.0125 32.5693 37.0092 32.5172 36.8236C32.5498 36.7583 32.5368 36.5933 32.6541 36.6792L32.553 36.5142C32.5889 36.3252 32.6573 36.3149 32.8072 36.4593C32.8463 35.5486 32.6704 35.0331 32.4748 34.7513C32.2793 34.466 32.0642 34.4145 32.0642 34.4145C31.5754 34.1808 31.6503 34.7788 31.357 35.1122L31.3668 35.0984Z" fill="#ACDE45"/>
<path d="M23.2837 49.6904H23.2035C23.2403 49.6976 23.2704 49.7012 23.2837 49.6904Z" fill="#ACDE45"/>
<path d="M22.946 53.6287C22.946 53.6287 22.9574 53.6287 22.9649 53.6327C22.9574 53.6327 22.9498 53.6287 22.946 53.6287Z" fill="#ACDE45"/>
<path d="M20.6114 49.8663C20.6114 49.8663 20.6006 49.8586 20.5898 49.8586L20.6114 49.8663Z" fill="#ACDE45"/>
<path d="M20.9614 49.0269C20.831 49.2366 20.4627 49.2331 20.567 49.5011C20.5214 49.6111 20.58 49.7486 20.6094 49.8654C20.8799 49.9617 20.5931 50.0132 20.8179 50.1129H20.6583C20.7365 50.1472 20.7854 50.1782 20.6974 50.1885L20.6517 50.1816C20.7658 50.2331 20.6909 50.2572 20.7495 50.2813L20.7039 50.2744L20.7202 50.3157L20.655 50.2985C20.7756 50.3741 20.7756 50.4325 20.7104 50.4737L20.9027 50.4944C20.6746 50.5734 21.0656 50.6662 20.8016 50.728L20.756 50.7212C21.2481 50.9067 20.3878 50.8758 20.857 51.0579C20.7984 51.0339 20.756 51.0545 20.7104 51.0476C20.7593 51.1129 20.7821 51.1782 21.1601 51.2195C21.1504 51.2607 21.0395 51.2401 20.8929 51.2298C21.0591 51.247 21.1243 51.2916 21.1308 51.326L21.0689 51.3054L21.1145 51.405L21.4273 51.4188C21.3328 51.46 21.0461 51.3913 21.1178 51.4463L21.3752 51.4703C21.3165 51.5322 20.9222 51.5356 20.7267 51.5838C20.5898 51.8587 21.2318 52.2058 20.7593 52.436H20.5637C20.2802 52.4223 20.9809 52.5323 20.7169 52.5288L20.844 52.5667C20.7919 52.5735 20.7365 52.5873 20.6746 52.5667C20.6615 52.5942 20.7072 52.5976 20.7951 52.6216L20.6159 52.6423C20.4725 52.7454 20.8114 52.8588 20.7365 52.9722C20.3682 53.0959 20.6941 53.3776 20.8831 53.5289C21.3067 53.7454 20.1629 53.9756 20.6517 54.2024C20.6126 54.2093 20.7006 54.2265 20.7332 54.2265L20.6908 54.4259C20.6908 54.4259 20.6648 54.6664 20.9353 54.8142C21.2057 54.9619 21.7695 54.9963 22.946 54.6389H23.0079C23.1578 54.5392 23.1904 54.4774 22.8775 54.4087C23.2621 54.3983 22.9166 54.3262 23.0405 54.3021H23.0731C22.7798 54.2402 23.3175 54.1784 23.0535 54.1165C23.0828 54.1165 23.1904 54.12 23.1969 54.1337C23.148 54.089 23.0633 54.0306 23.2881 54.0306C23.2327 53.9275 23.337 53.7866 22.9818 53.711L23.0437 53.7179C22.8026 53.6732 23.0079 53.6698 22.8873 53.6217C22.9166 53.6217 22.9329 53.6182 22.9427 53.6217C22.7081 53.5735 22.9101 53.5014 22.8091 53.4636H22.9557L22.9231 53.3845L22.8905 53.4155C22.4832 53.3914 23.148 53.3605 22.884 53.2917C22.9362 53.2402 22.0433 53.1439 22.2453 53.0924C22.0563 53.0546 22.5549 53.1303 22.4082 53.0822C22.6201 53.089 22.5419 53.1062 22.7113 53.1027C22.6136 53.058 22.9297 53.0444 22.7895 52.9894L22.9557 52.9962C22.6559 52.9172 23.1773 52.8862 22.8905 52.8278C22.7569 52.7522 23.3826 52.8107 23.0633 52.7213L23.2881 52.7075C23.3272 52.68 23.0144 52.6698 23.1252 52.6423C23.2653 52.6526 23.2392 52.6079 23.3728 52.6354C23.5977 52.577 23.0666 52.4636 23.4478 52.3948C23.1741 52.3536 23.3403 52.3158 23.1382 52.2848C23.2588 52.2917 23.1643 52.1886 23.4185 52.2642C23.438 52.2711 23.4348 52.278 23.3892 52.2745L23.5521 52.2952C23.8617 52.2642 23.3892 52.1818 23.4413 52.1302C23.3859 52.1405 23.3989 52.1645 23.2881 52.1404L23.3142 52.0924L23.4511 52.113L23.5358 52.0443H23.3664C23.4576 52.0099 23.7444 52.0237 23.5097 51.9618C23.3761 51.9309 23.2784 51.9755 23.2295 51.9309C23.3501 51.8931 23.5293 51.8346 23.5847 51.7762C23.3924 51.7625 23.4022 51.7487 23.3664 51.7246L23.5325 51.7384C23.3077 51.649 23.8975 51.7521 23.7216 51.6662L23.8356 51.6834L23.4934 51.6318C23.1741 51.539 23.8389 51.6353 23.3989 51.5219C23.425 51.5528 23.034 51.4944 23.1089 51.4703L23.2686 51.4944C23.236 51.4738 23.1708 51.4601 23.2034 51.4498C23.2882 51.4704 23.4348 51.4807 23.4087 51.4498L23.6075 51.4875L23.3207 51.405C23.4967 51.3844 23.2881 51.3019 23.513 51.3122C23.513 51.3122 23.6303 51.2435 23.3892 51.1954C23.5391 51.2297 23.6042 51.1954 23.7802 51.2263C23.6107 51.1851 23.4771 51.1027 23.6629 51.1027L23.6825 51.1095C23.8812 51.0407 23.4446 50.917 23.6825 50.8655C23.4902 50.8414 23.601 50.8139 23.3566 50.7899C23.1285 50.6696 23.8715 50.704 23.122 50.5631C23.0861 50.5184 23.3044 50.5424 23.3468 50.5287L23.3859 50.5424C23.3338 50.46 23.3305 50.4359 23.3566 50.3844C23.2881 50.3466 22.9394 50.2847 23.0307 50.2503C23.1676 50.2881 23.1447 50.2641 23.148 50.2469C23.1676 50.2607 23.2197 50.2744 23.3142 50.2641C23.2718 50.2538 23.2458 50.2435 23.2262 50.2366C23.236 50.2366 23.2458 50.2366 23.2621 50.2401C23.2164 50.2023 23.1741 50.1988 23.1513 50.2091C23.1317 50.2057 23.1024 50.2022 23.0633 50.1988C23.2458 50.1988 23.0633 50.106 23.3044 50.1438C23.2653 50.0442 23.0274 49.9341 22.9492 49.8379C23.0731 49.8517 23.1773 49.8895 23.223 49.9204L23.1871 49.8586C23.3631 49.8895 23.2816 49.9067 23.3142 49.9307C23.6075 49.917 23.0535 49.7452 23.3272 49.7177L23.1904 49.6764H23.2132C23.1382 49.6627 23.0437 49.6249 23.0209 49.6111C23.1741 49.6283 23.3728 49.6799 23.3696 49.6421C23.5228 49.6421 23.311 49.5424 23.236 49.4874C23.2067 49.5046 23.1219 49.4806 23.0698 49.4599C23.0698 49.4393 23.223 49.4599 23.1611 49.4324L23.3664 49.4737C23.1708 49.4428 23.1675 49.3809 23.0828 49.3568C23.236 49.3774 23.2099 49.4118 23.324 49.4427C23.3207 49.3637 23.324 49.4015 23.3175 49.3259C23.1708 49.2537 23.1219 49.2915 22.946 49.2331C22.9134 49.1884 22.7765 49.1231 22.9069 49.106L22.7211 49.0784C22.5907 48.9788 22.6233 48.941 22.8156 48.9376C22.128 48.5149 21.6294 48.3568 21.3002 48.319C20.9711 48.2812 20.8147 48.3602 20.8147 48.3602C20.365 48.4907 20.8733 48.7279 20.9678 49.0132L20.9614 49.0269Z" fill="#ACDE45"/>
</svg>
