<svg width="84" height="45" viewBox="0 0 84 45" fill="none" xmlns="http://www.w3.org/2000/svg">
<path d="M83.7814 1.60406L83.7029 1.62512C83.7389 1.62862 83.7683 1.6251 83.7814 1.60406Z" fill="#20BB65"/>
<path d="M81.5358 8.39117C81.5358 8.39117 81.5434 8.40259 81.5472 8.40639C81.5472 8.39879 81.5396 8.39498 81.5358 8.39117Z" fill="#20BB65"/>
<path d="M81.1235 2.2147C81.1235 2.2147 81.1133 2.20739 81.1064 2.20374L81.1235 2.2147Z" fill="#20BB65"/>
<path d="M81.4744 1.04983C81.3605 1.36008 80.9929 1.39492 81.1003 1.73306C81.0482 1.87947 81.1003 2.05377 81.123 2.21412C81.3866 2.33961 81.0873 2.40936 81.2987 2.54531H81.1393C81.2109 2.59063 81.2564 2.63591 81.1686 2.64637L81.1263 2.63246C81.2337 2.70218 81.1556 2.737 81.2076 2.77186L81.1621 2.75795L81.1718 2.81718L81.11 2.7928C81.2174 2.90086 81.2044 2.98102 81.1328 3.03331L81.3183 3.07862C81.0775 3.16926 81.4419 3.33311 81.1653 3.39586L81.123 3.3819C81.559 3.7026 80.7228 3.53876 81.123 3.85947C81.0742 3.81764 81.0287 3.83507 80.9831 3.82113C81.0124 3.91874 81.0124 4.01287 81.3638 4.14185C81.341 4.20111 81.2369 4.14883 81.1003 4.107C81.2532 4.16277 81.302 4.23947 81.2955 4.28827L81.2434 4.24645L81.2499 4.39632L81.546 4.47998C81.4386 4.51832 81.1881 4.36147 81.2337 4.45559L81.4712 4.54972C81.3898 4.6299 81.0092 4.54272 80.8042 4.56015C80.6838 4.72398 80.7326 4.97152 80.7424 5.20508C80.7424 5.43515 80.7066 5.64778 80.4333 5.71401L80.2543 5.63733C80.0006 5.51184 80.5797 5.92666 80.3422 5.81511L80.4365 5.91618C80.3877 5.90223 80.3292 5.90225 80.2804 5.84997C80.2544 5.88134 80.2934 5.90225 80.3552 5.97196L80.1828 5.92665C79.9941 5.99985 80.2348 6.29267 80.0949 6.40422C79.6947 6.39724 79.8021 6.89574 79.8477 7.19553C79.9485 7.45 79.7143 7.4988 79.4865 7.54063C79.2588 7.58595 79.0473 7.6278 79.1514 7.90318C79.1123 7.88575 79.1709 7.96244 79.1969 7.98335L79.005 8.19599C79.005 8.19599 78.9529 8.26571 78.9074 8.37378C78.8618 8.48184 78.826 8.63523 78.8651 8.81301C78.9497 9.15811 79.3043 9.62872 80.5634 9.9076L80.6057 9.95291C80.827 9.90411 80.9213 9.83088 80.7424 9.53458C81.0547 9.75419 80.8562 9.437 80.9766 9.47883L80.9994 9.49973C80.8237 9.23131 81.3215 9.4614 81.1686 9.2139C81.1914 9.23481 81.2727 9.30103 81.2662 9.32543C81.2694 9.23131 81.2564 9.09189 81.4386 9.21739C81.4907 9.02566 81.7119 8.86182 81.4809 8.55854L81.5265 8.60037C81.3605 8.40516 81.5395 8.50624 81.4777 8.37029C81.5037 8.38423 81.52 8.3877 81.5297 8.39467C81.3703 8.19946 81.6046 8.18904 81.5492 8.08446L81.6761 8.16114L81.7184 8.01472L81.6631 8.04608C81.328 7.81252 81.9332 8.08793 81.7607 7.85438C81.8518 7.79163 81.1361 7.23738 81.3508 7.25481C81.2109 7.11537 81.5948 7.44999 81.5037 7.31404C81.6859 7.4221 81.6013 7.41164 81.7542 7.48136C81.7022 7.36632 81.995 7.48836 81.9136 7.33847L82.0568 7.41863C81.8518 7.16765 82.3399 7.32801 82.1251 7.11885C82.0568 6.94455 82.5871 7.28267 82.3594 7.01425L82.5774 7.07702C82.6327 7.04565 82.3529 6.91315 82.4765 6.90966C82.6002 6.97938 82.6066 6.89226 82.7108 6.98638C82.9645 6.96198 82.5481 6.58898 82.9515 6.58898C82.7238 6.43211 82.906 6.42163 82.7335 6.30311C82.8409 6.35191 82.8214 6.14276 83.0133 6.34843C83.0296 6.36586 83.0198 6.37981 82.9776 6.3589L83.1175 6.43907C83.4363 6.47393 83.0394 6.19159 83.1175 6.1149C83.0589 6.12187 83.0556 6.16368 82.9645 6.09396L83.0199 6.01379L83.137 6.08698L83.2606 5.98592L83.1012 5.93711C83.2053 5.90574 83.4753 5.99635 83.2866 5.82903C83.1793 5.74188 83.0556 5.80115 83.0329 5.71052C83.1728 5.67217 83.381 5.60596 83.4623 5.50835C83.2834 5.44909 83.2996 5.4212 83.2769 5.37588L83.4298 5.43163C83.2606 5.22596 83.7779 5.51881 83.6543 5.33057L83.7584 5.38286L83.4493 5.22597C83.1825 5.00287 83.7877 5.28872 83.4135 5.00984C83.4233 5.06562 83.0686 4.90526 83.1532 4.87389L83.2964 4.94363C83.2769 4.9018 83.2183 4.86694 83.2541 4.85648C83.3289 4.90529 83.4656 4.94711 83.4558 4.88785L83.6315 4.98895L83.3875 4.8007C83.5664 4.78675 83.4005 4.60547 83.6185 4.65078C83.6185 4.65078 83.7682 4.53229 83.5469 4.42074C83.6803 4.49743 83.7617 4.4312 83.9211 4.51138C83.7714 4.41726 83.6738 4.26037 83.856 4.26734L83.8723 4.2813C84.0935 4.1558 83.7031 3.90831 83.9601 3.81419C83.7747 3.77236 83.8951 3.71658 83.6576 3.67475C83.4688 3.45862 84.1976 3.49694 83.4884 3.2599C83.4656 3.17972 83.6771 3.21459 83.7194 3.18322L83.7552 3.21109C83.7226 3.05771 83.7259 3.01938 83.7616 2.91828C83.6998 2.85205 83.3647 2.77536 83.4591 2.70216C83.5892 2.75793 83.5697 2.71612 83.5762 2.68127C83.5925 2.70567 83.6413 2.72307 83.7389 2.69518C83.6966 2.68124 83.6738 2.66729 83.6543 2.65335C83.6641 2.65335 83.6738 2.65336 83.6868 2.66033C83.6478 2.5941 83.6055 2.59758 83.5827 2.6185C83.5632 2.61153 83.5372 2.61152 83.4981 2.61152C83.6803 2.58712 83.5111 2.44419 83.7454 2.47905C83.7161 2.2943 83.5014 2.13397 83.4233 1.98059C83.5437 1.98059 83.6478 2.02936 83.6901 2.07816L83.6576 1.97012C83.83 1.99452 83.7519 2.0433 83.7812 2.07816C84.074 1.9945 83.5307 1.78883 83.8007 1.68076L83.6673 1.63549L83.6901 1.62851C83.6185 1.62154 83.5209 1.57619 83.5014 1.55527C83.6543 1.55527 83.8495 1.59712 83.8495 1.52391C84.0024 1.48208 83.7909 1.3566 83.7129 1.27642C83.6836 1.31477 83.6022 1.29385 83.5502 1.27294C83.5502 1.23808 83.6998 1.23111 83.6348 1.19625L83.8397 1.21017C83.6478 1.21017 83.638 1.10211 83.5534 1.08119C83.7064 1.07073 83.6803 1.14393 83.7942 1.16136C83.7844 1.01844 83.7877 1.08816 83.7779 0.945235C83.6283 0.861573 83.5827 0.945234 83.407 0.899916C83.3712 0.833684 83.2313 0.763977 83.3582 0.694258L83.176 0.708216C83.0394 0.582722 83.0589 0.512993 83.2443 0.436303C82.509 -0.0203542 82.0015 -0.0343167 81.6827 0.0249442C81.3606 0.0876909 81.2239 0.234134 81.2239 0.234134C80.8205 0.519981 81.3443 0.676842 81.4614 1.05681L81.4744 1.04983Z" fill="#20BB65"/>
<path d="M73.9854 15.8865L73.9264 15.8303C73.9428 15.8619 73.9658 15.8865 73.9854 15.8865Z" fill="#20BB65"/>
<path d="M71.9159 13.9866C71.9159 13.9866 71.9159 13.9723 71.9124 13.9651V13.9866H71.9159Z" fill="#20BB65"/>
<path d="M73.074 13.5504C72.7519 13.6375 72.5046 13.3482 72.2931 13.655C72.1434 13.7073 72.0328 13.8676 71.919 13.9861C71.984 14.2859 71.7433 14.0872 71.7693 14.3521L71.6684 14.2196C71.6782 14.3103 71.6684 14.3765 71.6066 14.3103L71.5871 14.265C71.6001 14.401 71.5253 14.3556 71.5318 14.4253L71.5123 14.3801L71.4732 14.4253L71.4537 14.3591C71.4407 14.516 71.3724 14.5613 71.2813 14.5404L71.3691 14.7182C71.1414 14.5857 71.2585 14.9901 71.0275 14.8123L71.008 14.767C71.0633 15.3317 70.6143 14.5613 70.6533 15.1016C70.6501 15.0354 70.6045 15.011 70.585 14.9657C70.5329 15.0563 70.4646 15.1225 70.6143 15.4851C70.5557 15.506 70.5199 15.3944 70.4549 15.2584C70.5232 15.4188 70.5004 15.506 70.4614 15.5373L70.4549 15.4676L70.354 15.5792L70.5037 15.8685C70.4028 15.8127 70.3345 15.5094 70.3019 15.614L70.4061 15.8616C70.2922 15.8546 70.084 15.5025 69.9245 15.3595C69.5179 15.4188 69.3617 16.2381 68.8476 15.9418L68.763 15.757C68.6557 15.4816 68.8183 16.2101 68.711 15.9556L68.7175 16.0986C68.6882 16.0533 68.6459 16.0115 68.6426 15.9383C68.6004 15.9418 68.6166 15.9905 68.6199 16.0846L68.5158 15.9278C68.3205 15.8546 68.314 16.2415 68.1318 16.2345C67.8195 15.9556 67.582 16.4193 67.4356 16.6877C67.2794 17.2211 66.5799 16.2171 66.4367 16.8097C66.414 16.7714 66.4172 16.8725 66.427 16.9039L66.1407 16.9596C66.1407 16.9596 65.7991 17.0468 65.6722 17.3884C65.5453 17.7265 65.6201 18.3226 66.4953 19.3231L66.5083 19.3858C66.71 19.4834 66.8207 19.4834 66.8304 19.1313C66.9638 19.5078 66.9703 19.1244 67.0452 19.2359L67.0517 19.2673C67.0549 18.9396 67.325 19.4416 67.3347 19.1453C67.3412 19.1767 67.3705 19.2812 67.351 19.2952C67.4031 19.222 67.4681 19.1035 67.543 19.3231C67.6829 19.2081 67.9399 19.2289 67.9269 18.835L67.9399 18.8978C67.9204 18.6364 68.005 18.835 68.0277 18.6886C68.0407 18.7165 68.0505 18.7304 68.0538 18.7409C68.0407 18.4829 68.2262 18.6329 68.2425 18.5143L68.2945 18.6607L68.4084 18.5805L68.3498 18.5666C68.2294 18.1587 68.5288 18.7827 68.532 18.4864C68.6361 18.5038 68.4182 17.5871 68.5711 17.7474C68.5483 17.5453 68.6394 18.0681 68.6524 17.8973C68.7273 18.1065 68.6687 18.0403 68.7435 18.2006C68.7695 18.0786 68.9192 18.3749 68.9452 18.2006L69.0038 18.361C68.9973 18.0263 69.2673 18.4969 69.2315 18.1867C69.2868 18.0124 69.4723 18.6398 69.4658 18.2773L69.5862 18.4794C69.6447 18.4969 69.5211 18.1971 69.6122 18.2843C69.661 18.4237 69.7163 18.3679 69.7358 18.5108C69.931 18.6782 69.8562 18.1065 70.1425 18.4028C70.0742 18.1239 70.2108 18.2494 70.1588 18.0368C70.2076 18.1518 70.3182 17.9915 70.328 18.2773C70.328 18.3017 70.315 18.3017 70.2987 18.2564L70.3475 18.4167C70.5492 18.6782 70.4419 18.1832 70.5427 18.1902C70.4972 18.1483 70.4679 18.1797 70.4484 18.0611L70.5362 18.0472L70.572 18.1867L70.7217 18.2111L70.6403 18.0542C70.7314 18.1134 70.8616 18.3819 70.8355 18.1205C70.8128 17.9775 70.6924 17.9252 70.7347 17.8451C70.8551 17.9218 71.0372 18.0368 71.1576 18.0403C71.073 17.8625 71.1023 17.8555 71.1153 17.8067L71.1837 17.9635C71.1967 17.6951 71.3658 18.2947 71.3984 18.0716L71.4342 18.1867L71.3236 17.8416C71.2845 17.4825 71.5123 18.1483 71.4342 17.6708C71.4049 17.7161 71.2683 17.3291 71.3463 17.3744L71.3984 17.5348C71.4114 17.4894 71.3951 17.4197 71.4277 17.4441C71.4472 17.5348 71.5123 17.6707 71.5415 17.6254L71.5936 17.8311L71.5513 17.5104C71.6815 17.6464 71.6847 17.3919 71.8018 17.5976C71.8018 17.5976 71.9743 17.6394 71.9027 17.3919C71.9417 17.5487 72.0361 17.5697 72.0914 17.7509C72.0523 17.5697 72.0914 17.3884 72.2085 17.5417V17.5662C72.4363 17.6707 72.3452 17.1932 72.5729 17.3431C72.4851 17.1653 72.599 17.228 72.4753 17.0049C72.5014 16.7086 72.9341 17.3431 72.6478 16.6075C72.69 16.5378 72.7974 16.7365 72.8462 16.7539V16.7993C72.9341 16.6808 72.9633 16.6564 73.0544 16.625C73.061 16.5343 72.908 16.2032 73.0219 16.2415C73.061 16.3844 73.0805 16.3426 73.1065 16.3286C73.1 16.36 73.1163 16.4088 73.1976 16.475C73.1813 16.4332 73.1781 16.4019 73.1748 16.3775C73.1813 16.388 73.1846 16.3949 73.1911 16.4088C73.2139 16.3356 73.1878 16.3008 73.1553 16.2938C73.1455 16.2729 73.1325 16.2484 73.1065 16.2171C73.2366 16.3565 73.2334 16.13 73.3505 16.3496C73.4611 16.2171 73.4449 15.9347 73.5132 15.7813C73.5848 15.8859 73.6108 16.0045 73.601 16.0672L73.6596 15.9766C73.7442 16.1404 73.6596 16.0986 73.6531 16.1474C73.8874 16.353 73.7149 15.764 73.9524 15.9383L73.9069 15.7953L73.9264 15.8127C73.8906 15.7465 73.8646 15.6384 73.8711 15.607C73.9622 15.7395 74.0435 15.9347 74.0956 15.8894C74.2127 16.001 74.1834 15.7465 74.1997 15.6315C74.1574 15.628 74.1249 15.5443 74.1086 15.4851C74.1346 15.4642 74.2257 15.5931 74.2127 15.5199L74.3201 15.7081C74.2127 15.5373 74.2843 15.4711 74.2517 15.3875C74.3461 15.5164 74.2745 15.5339 74.3266 15.6454C74.4274 15.5583 74.3754 15.6001 74.4762 15.513C74.4567 15.3352 74.3656 15.3422 74.3006 15.1574C74.3298 15.0877 74.3071 14.9238 74.4274 15.0005L74.3136 14.8471C74.3331 14.6554 74.4014 14.638 74.5608 14.7635C74.5153 13.8571 74.268 13.3831 74.0468 13.1251C73.8255 12.8671 73.6271 12.8288 73.6271 12.8288C73.1618 12.6336 73.3115 13.2018 73.0707 13.5294L73.074 13.5504Z" fill="#20BB65"/>
<path d="M58.4628 21.7471L58.4164 21.6761C58.4263 21.7116 58.4396 21.7435 58.4628 21.7471Z" fill="#20BB65"/>
<path d="M58.1301 19.2359C57.7819 19.2394 57.603 18.9013 57.3037 19.1523C57.1345 19.1732 56.9881 19.3091 56.8416 19.3998C56.8416 19.7065 56.6367 19.466 56.6107 19.7309L56.5358 19.581C56.5261 19.6717 56.5066 19.7379 56.4512 19.6612L56.4415 19.6124C56.4285 19.7483 56.3569 19.6926 56.3504 19.7588L56.3406 19.71L56.2918 19.7484L56.2821 19.6787C56.2365 19.832 56.1584 19.8669 56.0706 19.8285L56.1291 20.0203C55.9176 19.8495 55.9697 20.2712 55.7615 20.0551L55.7517 20.0063C55.7127 20.5745 55.3841 19.7414 55.332 20.2852C55.3385 20.219 55.2962 20.1875 55.2865 20.1387C55.2181 20.2189 55.1368 20.2747 55.2377 20.6581C55.1758 20.6721 55.1563 20.5536 55.1108 20.4072C55.1563 20.5745 55.1205 20.6616 55.0782 20.686V20.6129L54.9644 20.7105L55.075 21.0172C54.9806 20.9475 54.9546 20.6373 54.9058 20.7349L54.9774 20.9963C54.8635 20.9754 54.7008 20.5954 54.5512 20.4316C54.1217 20.442 53.8744 21.2403 53.3766 20.8917L53.3083 20.7C53.2237 20.4142 53.3213 21.1567 53.2335 20.8952L53.227 21.0381C53.2009 20.9893 53.1619 20.944 53.1652 20.8708C53.1229 20.8708 53.1326 20.9196 53.1294 21.0137L53.0383 20.8499C52.8431 20.7592 52.804 21.1462 52.6186 21.1253C52.3192 20.822 52.0362 21.2717 51.8735 21.5331C51.6881 22.0525 51.0178 21.0207 50.8454 21.6064C50.8226 21.568 50.8226 21.6691 50.8324 21.7005L50.5363 21.7458C50.5363 21.7458 49.1275 22.056 50.8421 24.1093L50.8519 24.172C51.0504 24.2766 51.1545 24.2801 51.174 23.9315C51.2976 24.3114 51.3139 23.9315 51.3822 24.0465L51.3887 24.0779C51.4017 23.7537 51.6523 24.2661 51.6685 23.9733C51.675 24.0046 51.7011 24.1128 51.6815 24.1232C51.7336 24.0535 51.8019 23.9419 51.867 24.165C52.0102 24.0569 52.2574 24.0953 52.2607 23.7049L52.2704 23.7676C52.2607 23.5097 52.3355 23.7084 52.3648 23.5654C52.3778 23.5933 52.3843 23.6072 52.3876 23.6212C52.3876 23.3632 52.56 23.5271 52.5828 23.4121L52.6283 23.5585L52.7455 23.4853L52.6901 23.4678C52.5925 23.053 52.8561 23.6944 52.8724 23.4016C52.97 23.426 52.8105 22.4987 52.9537 22.6695C52.9439 22.4639 53.0025 22.9938 53.0253 22.8265C53.0871 23.0391 53.0318 22.9693 53.0968 23.1332C53.1326 23.0147 53.2595 23.3214 53.2953 23.1541L53.3441 23.3179C53.3604 22.9833 53.5914 23.4783 53.5784 23.1681C53.6434 23.0007 53.7833 23.6421 53.7996 23.2831L53.9037 23.4957C53.959 23.5166 53.8614 23.2099 53.9428 23.304C53.9785 23.4469 54.0371 23.3981 54.0436 23.541C54.2193 23.7292 54.19 23.1541 54.4438 23.4853C54.4015 23.1994 54.5219 23.3388 54.4893 23.1262C54.5251 23.2447 54.6455 23.0983 54.6325 23.3876C54.6325 23.412 54.6162 23.412 54.6065 23.3632L54.639 23.5306C54.8082 23.813 54.7496 23.311 54.8472 23.3354C54.8082 23.2901 54.7789 23.3144 54.7691 23.1924H54.8537L54.8733 23.3319L55.0132 23.3772L54.9513 23.2099C55.0327 23.2796 55.1303 23.5654 55.1303 23.3005C55.1238 23.1576 55.0132 23.0878 55.062 23.0146C55.1693 23.1087 55.332 23.2483 55.4459 23.2692C55.3841 23.0809 55.4134 23.0774 55.4296 23.0321L55.4784 23.1994C55.5207 22.9345 55.6151 23.555 55.6704 23.3389L55.6932 23.4573L55.6281 23.1018C55.6346 22.7427 55.7712 23.433 55.755 22.9484C55.7224 22.9902 55.6378 22.5859 55.7062 22.6452L55.7355 22.809C55.755 22.7672 55.7452 22.6975 55.7745 22.7254C55.781 22.816 55.8298 22.9624 55.8623 22.9206L55.8884 23.1297V22.809C55.9925 22.9624 56.0315 22.7183 56.1161 22.9379C56.1161 22.9379 56.2755 23.0111 56.2398 22.7532C56.256 22.917 56.3406 22.9519 56.3699 23.1402C56.3569 22.9554 56.4187 22.7811 56.5065 22.9554V22.9798C56.7018 23.1262 56.6855 22.6417 56.8775 22.8334C56.8189 22.6417 56.9165 22.7254 56.8352 22.4814C56.9067 22.1955 57.2158 22.9101 57.0629 22.1293C57.1149 22.07 57.1833 22.2861 57.2256 22.3174V22.3628C57.3199 22.2652 57.3525 22.2477 57.4436 22.2373C57.4663 22.1501 57.3817 21.7911 57.4793 21.8539C57.4924 22.0038 57.5151 21.9689 57.5444 21.9585C57.5314 21.9864 57.5412 22.0386 57.603 22.1223C57.5965 22.077 57.5965 22.0491 57.603 22.0212C57.6062 22.0316 57.6095 22.0421 57.6127 22.056C57.6485 21.9898 57.629 21.9515 57.5997 21.9375C57.5965 21.9166 57.5867 21.8887 57.5704 21.8504C57.668 22.0177 57.7071 21.7946 57.7754 22.0351C57.9056 21.9341 57.9446 21.6517 58.0389 21.5192C58.0845 21.6412 58.0845 21.7597 58.0617 21.819L58.1366 21.7458C58.1821 21.9271 58.1138 21.8643 58.0975 21.9096C58.2732 22.1711 58.2309 21.5541 58.4196 21.7842L58.4066 21.6342L58.4196 21.6551C58.4001 21.5785 58.4001 21.4704 58.4131 21.4391C58.4717 21.5924 58.5042 21.8016 58.5628 21.7737C58.6474 21.9097 58.6766 21.6586 58.7157 21.554C58.6766 21.5366 58.6636 21.446 58.6636 21.3867C58.6929 21.3728 58.7482 21.5227 58.7547 21.4494L58.8133 21.6621C58.7515 21.4669 58.8361 21.4216 58.8231 21.3345C58.8816 21.4879 58.8133 21.4844 58.8361 21.6029C58.9499 21.5471 58.8914 21.575 59.0053 21.5192C59.028 21.3415 58.9434 21.324 58.9239 21.1288C58.9695 21.0695 58.9857 20.9056 59.0833 21.0137L59.015 20.8324C59.0833 20.6546 59.1517 20.6582 59.2721 20.8255C59.6657 19.0547 58.9044 18.6816 58.9044 18.6816C58.4879 18.3609 58.4684 18.957 58.1366 19.215L58.1301 19.2359Z" fill="#20BB65"/>
<path d="M42.9562 26.787L42.907 26.7203C42.9201 26.7554 42.9332 26.7835 42.9562 26.787Z" fill="#20BB65"/>
<path d="M42.4773 24.3045C42.1292 24.3289 41.9275 24.0046 41.6412 24.2731C41.472 24.3044 41.3321 24.4474 41.1922 24.5485C41.2117 24.8552 40.9904 24.6286 40.9807 24.8936L40.8961 24.7472C40.8928 24.8378 40.8766 24.904 40.818 24.8308L40.805 24.7855C40.7985 24.9214 40.7269 24.8691 40.7237 24.9388L40.7107 24.8936L40.6618 24.9354L40.6488 24.8657C40.613 25.0225 40.535 25.0609 40.4471 25.0295L40.5154 25.2177C40.2942 25.0644 40.3723 25.4792 40.151 25.277L40.138 25.2317C40.138 25.7999 39.7509 24.9946 39.7346 25.5419C39.7346 25.4722 39.6923 25.4478 39.6793 25.4025C39.6175 25.4896 39.5394 25.5524 39.6663 25.9254C39.6044 25.9428 39.5784 25.8278 39.5199 25.6849C39.5752 25.8487 39.5491 25.9359 39.5036 25.9638V25.8905L39.3897 25.9986L39.5199 26.2984C39.419 26.2357 39.3734 25.9289 39.3311 26.03L39.419 26.2845C39.3051 26.2705 39.1132 25.908 38.957 25.7546C38.5275 25.7999 38.3356 26.6191 37.815 26.3193L37.7304 26.1346C37.623 25.8592 37.776 26.5877 37.6718 26.3367V26.4832C37.6458 26.4379 37.6003 26.396 37.6003 26.3227C37.558 26.3262 37.5742 26.3751 37.5742 26.4692L37.4701 26.3124C37.2684 26.2392 37.2554 26.6296 37.0699 26.6296C36.7478 26.3577 36.5006 26.8317 36.3574 27.1106C36.2175 27.6509 35.4627 26.6888 35.3358 27.2953C35.3098 27.2605 35.3195 27.3581 35.3326 27.393L35.043 27.4731C35.043 27.4731 34.6981 27.5917 34.5908 27.9438C34.4834 28.2958 34.6168 28.8745 35.5538 29.8018L35.5701 29.8645C35.775 29.9447 35.8792 29.9377 35.8661 29.5891C36.0223 29.9551 36.0028 29.5752 36.0841 29.6797L36.0939 29.7111C36.0776 29.3835 36.3704 29.868 36.3607 29.5751C36.3672 29.6065 36.4062 29.7111 36.3867 29.725C36.4322 29.6518 36.4876 29.5298 36.5754 29.746C36.7055 29.6239 36.9561 29.6344 36.9235 29.2475L36.9398 29.3102C36.9105 29.0523 36.9984 29.244 37.0179 29.1011C37.0309 29.129 37.0407 29.1394 37.0439 29.1534C37.0211 28.8954 37.2066 29.0418 37.2196 28.9233L37.2749 29.0662L37.3823 28.9826L37.327 28.9721C37.1968 28.5677 37.5092 29.1812 37.5027 28.8884C37.6035 28.9059 37.3693 27.9926 37.5254 28.1495C37.4994 27.9473 37.6003 28.4667 37.6068 28.2993C37.6849 28.505 37.6263 28.4422 37.7011 28.5991C37.7272 28.4771 37.8768 28.7699 37.8996 28.5991L37.9614 28.7595C37.9517 28.4248 38.2184 28.8989 38.1827 28.5886C38.2347 28.4143 38.4202 29.0418 38.4104 28.6827L38.5275 28.8849C38.5828 28.9024 38.4625 28.6026 38.5503 28.6897C38.5959 28.8291 38.6512 28.7734 38.6707 28.9163C38.8594 29.0872 38.7878 28.5189 39.0611 28.8257C38.9993 28.5433 39.1294 28.6758 39.0806 28.4632C39.1262 28.5782 39.2335 28.4213 39.2401 28.7106C39.2401 28.735 39.227 28.735 39.2108 28.6897L39.2563 28.8535C39.445 29.122 39.3507 28.627 39.4483 28.6409C39.406 28.5991 39.3767 28.6235 39.3604 28.5049L39.445 28.4946L39.4743 28.634L39.6175 28.6654L39.5426 28.5049C39.6272 28.5677 39.7476 28.8432 39.7281 28.5817C39.7118 28.4388 39.5979 28.3795 39.637 28.3028C39.7508 28.3865 39.9233 28.5119 40.0339 28.5259C39.9591 28.3411 39.9884 28.3377 40.0014 28.2889L40.0599 28.4492C40.0827 28.1843 40.2194 28.7943 40.2584 28.5747L40.2877 28.6932L40.1966 28.3411C40.1771 27.9821 40.3625 28.6583 40.3105 28.1808C40.2812 28.2226 40.1673 27.8287 40.2421 27.881L40.2844 28.0449C40.3007 27.9995 40.2844 27.9298 40.317 27.9577C40.33 28.0483 40.3853 28.1913 40.4178 28.146L40.4569 28.3516L40.4341 28.0309C40.5512 28.1773 40.5708 27.9298 40.6716 28.1425C40.6716 28.1425 40.8343 28.2017 40.7822 27.9472C40.8083 28.1076 40.8961 28.139 40.9384 28.3238C40.9124 28.139 40.9612 27.9612 41.062 28.1285V28.1529C41.267 28.2853 41.2215 27.8043 41.4232 27.9821C41.3549 27.7938 41.4557 27.8705 41.3581 27.637C41.4102 27.3476 41.7648 28.0379 41.5631 27.271C41.6119 27.2082 41.6932 27.4209 41.7355 27.4453V27.4906C41.8266 27.386 41.8592 27.3651 41.947 27.3512C41.9633 27.2605 41.8559 26.9119 41.96 26.9677C41.9795 27.1141 42.0023 27.0792 42.0316 27.0688C42.0218 27.0967 42.0316 27.1489 42.0999 27.2291C42.0901 27.1838 42.0902 27.1559 42.0902 27.1315C42.0934 27.142 42.0967 27.149 42.1032 27.1664C42.1357 27.1002 42.1129 27.0583 42.0836 27.0478C42.0771 27.0269 42.0674 26.999 42.0479 26.9642C42.1552 27.1245 42.1812 26.9014 42.2658 27.1385C42.3895 27.0304 42.409 26.7446 42.5001 26.6086C42.5522 26.7271 42.5619 26.8457 42.5424 26.905L42.6107 26.8283C42.666 27.0061 42.5945 26.9468 42.5814 26.9921C42.7734 27.2396 42.6953 26.6295 42.897 26.8491L42.8775 26.6993L42.8905 26.7202C42.8677 26.647 42.8612 26.5354 42.871 26.5075C42.9361 26.6539 42.9849 26.8631 43.0402 26.8318C43.1345 26.9642 43.1475 26.7097 43.1801 26.6051C43.1378 26.5912 43.1215 26.5006 43.1183 26.4413C43.1443 26.4274 43.2126 26.5737 43.2126 26.5005L43.2809 26.7062C43.2061 26.5145 43.2875 26.4657 43.2712 26.3786C43.3363 26.525 43.2712 26.5285 43.2972 26.647C43.4078 26.5843 43.3525 26.6156 43.4631 26.5529C43.4761 26.3751 43.3883 26.3611 43.3623 26.1659C43.4046 26.1066 43.4111 25.9394 43.5152 26.0439L43.4371 25.8662C43.4957 25.6849 43.564 25.6849 43.6909 25.8452C43.987 24.0604 43.2061 23.7327 43.2061 23.7327C42.7701 23.4364 42.7831 24.0326 42.4643 24.308L42.4773 24.3045Z" fill="#20BB65"/>
<path d="M28.0225 33.3719L27.9667 33.3086C27.9831 33.3437 28.0028 33.3684 28.0225 33.3719Z" fill="#20BB65"/>
<path d="M22.5461 36.5681C22.5461 36.5681 22.5461 36.579 22.5498 36.5863C22.5498 36.579 22.5498 36.5717 22.5461 36.5681Z" fill="#20BB65"/>
<path d="M27.277 30.966C26.9322 31.0357 26.6979 30.7359 26.4441 31.0392C26.2814 31.0915 26.1546 31.2554 26.0244 31.3739C26.0765 31.6737 25.8325 31.4819 25.852 31.7469L25.7511 31.6144C25.7576 31.7051 25.7511 31.7748 25.6828 31.7086L25.6633 31.6632C25.673 31.7992 25.595 31.7573 25.5982 31.827L25.5787 31.7818L25.5364 31.8305L25.5169 31.7643C25.4973 31.9247 25.4258 31.9735 25.3314 31.956L25.4225 32.1338C25.1817 32.0118 25.3086 32.4127 25.0646 32.2454L25.0451 32.2C25.1102 32.7648 24.6287 32.0223 24.6775 32.5661C24.6709 32.4999 24.6221 32.4789 24.6026 32.4336C24.5506 32.5277 24.479 32.6009 24.6514 32.953C24.5929 32.9809 24.5506 32.8694 24.479 32.7369C24.5538 32.8903 24.5376 32.9844 24.4985 33.0158L24.4887 32.946L24.3879 33.0715L24.5571 33.3469C24.4497 33.3016 24.3651 33.0018 24.3358 33.1099L24.4562 33.3504C24.3423 33.3539 24.1048 33.0227 23.9259 32.8972C23.4997 33.0123 23.4183 33.8523 22.8555 33.6467L22.7449 33.4794C22.5984 33.2249 22.8555 33.9221 22.7156 33.6885L22.7383 33.8314C22.7025 33.7931 22.6505 33.7583 22.6407 33.6851C22.5984 33.699 22.6212 33.7408 22.6375 33.8349L22.5106 33.699C22.2959 33.6676 22.3414 34.051 22.156 34.0859C21.7916 33.8767 21.6126 34.3996 21.5215 34.7064C21.4727 35.2642 20.552 34.4869 20.5325 35.1178C20.4999 35.0899 20.5259 35.184 20.5455 35.2119L20.2689 35.3618C20.2689 35.3618 19.9468 35.5674 19.911 35.9404C19.872 36.3134 20.1453 36.8328 21.245 37.5126L21.2742 37.5683C21.4857 37.5997 21.5833 37.5684 21.4987 37.2372C21.7232 37.5579 21.6256 37.1954 21.7265 37.2791L21.7395 37.3069C21.6582 36.9932 22.0323 37.4011 21.9673 37.1187C21.9803 37.1466 22.0356 37.2407 22.0226 37.2581C22.0519 37.178 22.0844 37.049 22.208 37.2407C22.3089 37.0978 22.5464 37.0595 22.4488 36.6865L22.4748 36.7457C22.4 36.4982 22.5204 36.6725 22.5106 36.5261C22.5301 36.5505 22.5399 36.561 22.5464 36.5714C22.4781 36.3239 22.6863 36.432 22.6765 36.3135L22.7546 36.4424L22.8457 36.3379H22.7904C22.5952 35.9614 23.0019 36.5087 22.9466 36.2228C23.0474 36.2228 22.67 35.3653 22.849 35.4942C22.7904 35.299 22.9726 35.7941 22.9531 35.6267C23.0604 35.815 22.9954 35.7627 23.093 35.9056C23.0962 35.7801 23.2915 36.045 23.2849 35.8707L23.3695 36.0171C23.3077 35.6894 23.6428 36.1113 23.5582 35.815C23.581 35.6337 23.8608 36.2228 23.7957 35.8707L23.9422 36.052C24.0007 36.059 23.8381 35.7836 23.9357 35.8568C24.0007 35.9858 24.0463 35.923 24.0853 36.0625C24.2935 36.2019 24.1406 35.6511 24.453 35.9125C24.3521 35.6441 24.4953 35.7522 24.4204 35.5501C24.4822 35.6581 24.5636 35.4873 24.6124 35.7696C24.6156 35.794 24.6026 35.7975 24.5799 35.7522L24.6482 35.9056C24.8694 36.1427 24.7067 35.6685 24.8043 35.6685C24.7555 35.6337 24.7328 35.6616 24.7002 35.5501L24.7816 35.5291L24.8304 35.665L24.9735 35.6755L24.8792 35.5291C24.9703 35.5779 25.1232 35.8324 25.0711 35.5779C25.0353 35.4385 24.915 35.3966 24.9442 35.3164C25.0679 35.3827 25.2533 35.4838 25.3639 35.4803C25.2663 35.3095 25.2956 35.3025 25.3021 35.2502L25.3802 35.4036C25.3672 35.1387 25.5819 35.7208 25.5917 35.4977L25.6373 35.6093L25.5038 35.2747C25.4388 34.9226 25.7056 35.5675 25.595 35.0969C25.5722 35.1457 25.4095 34.7692 25.4908 34.8075L25.5527 34.9609C25.5624 34.9156 25.5396 34.8493 25.5722 34.8702C25.595 34.9574 25.6698 35.0899 25.6958 35.0445L25.7609 35.2433L25.6991 34.9296C25.8325 35.0585 25.8195 34.811 25.9463 35.0062C25.9463 35.0062 26.1123 35.0446 26.0277 34.8005C26.0732 34.9574 26.1643 34.9748 26.2261 35.1526C26.1773 34.9748 26.2034 34.7901 26.3237 34.9435V34.9679C26.545 35.0724 26.4409 34.6019 26.6621 34.7518C26.571 34.574 26.6816 34.6368 26.558 34.4171C26.5743 34.1208 27.007 34.7622 26.7174 34.0267C26.7565 33.957 26.8638 34.1556 26.9094 34.1765V34.2219C26.994 34.1069 27.02 34.0825 27.1079 34.0581C27.1144 33.9674 26.9679 33.6328 27.0786 33.6746C27.1176 33.8175 27.1339 33.7792 27.1599 33.7652C27.1534 33.7966 27.1697 33.8454 27.2445 33.9151C27.2315 33.8733 27.2282 33.8419 27.225 33.8175C27.2315 33.8279 27.2347 33.8349 27.2412 33.8489C27.264 33.7792 27.238 33.7408 27.2087 33.7338C27.199 33.7129 27.1859 33.6885 27.1632 33.6537C27.2868 33.8001 27.2868 33.5735 27.3974 33.7966C27.508 33.6746 27.495 33.3887 27.5699 33.2423C27.6349 33.3539 27.6577 33.4689 27.6447 33.5317L27.7065 33.448C27.7813 33.6154 27.7065 33.57 27.6967 33.6154C27.9147 33.8385 27.7683 33.2424 27.9928 33.4341L27.957 33.2877L27.9733 33.3051C27.9408 33.2353 27.9212 33.1273 27.9277 33.096C28.0091 33.2354 28.0806 33.434 28.1295 33.3957C28.2368 33.5142 28.2206 33.2598 28.2433 33.1517C28.201 33.1412 28.175 33.0576 28.1653 32.9983C28.1913 32.9809 28.2726 33.1168 28.2661 33.0436L28.3572 33.2388C28.2628 33.0576 28.3377 33.0018 28.3116 32.9147C28.393 33.0541 28.3247 33.0646 28.367 33.1761C28.4711 33.0994 28.419 33.1378 28.5199 33.0646C28.5134 32.8833 28.4255 32.8833 28.3767 32.695C28.4125 32.6288 28.3995 32.465 28.5134 32.5521L28.4158 32.3848C28.4548 32.1966 28.5199 32.1896 28.6663 32.3326C28.7639 30.5234 27.9505 30.2967 27.9505 30.2967C27.4853 30.0562 27.5633 30.6453 27.2803 30.9625L27.277 30.966Z" fill="#20BB65"/>
<path d="M16.3693 42.7177L16.2997 42.6787C16.3295 42.7 16.356 42.7142 16.3693 42.7177Z" fill="#20BB65"/>
<path d="M15.5807 44.3485C15.5807 44.3485 15.5909 44.3522 15.5977 44.3595L15.5807 44.3485Z" fill="#20BB65"/>
<path d="M14.0427 41.5535C14.0427 41.5535 14.0324 41.5462 14.0256 41.5389L14.0427 41.5535Z" fill="#20BB65"/>
<path d="M14.432 41.2949C14.2986 41.3402 13.9831 41.1659 14.0449 41.3507C13.9928 41.3855 14.0319 41.4832 14.0416 41.5529C14.2661 41.7272 14.0091 41.6191 14.1945 41.7725L14.0546 41.6993C14.1164 41.7515 14.1587 41.7899 14.0807 41.755L14.0416 41.7307C14.136 41.8074 14.0677 41.7864 14.1132 41.8248L14.0742 41.8004L14.0839 41.8283L14.0286 41.7899C14.123 41.8805 14.1164 41.9119 14.0546 41.9015L14.2206 41.9991C14.0123 41.9329 14.3442 42.1594 14.1034 42.0688L14.0644 42.0444C14.4711 42.3581 13.7228 41.9538 14.1067 42.2536C14.0579 42.2152 14.0188 42.2048 13.9798 42.1804C14.0123 42.2327 14.0254 42.2744 14.3507 42.4661C14.3377 42.4801 14.2401 42.4209 14.1132 42.3512C14.2564 42.4348 14.3084 42.4836 14.3084 42.5045L14.2564 42.4661L14.2856 42.5358L14.5589 42.6823C14.4711 42.6579 14.2271 42.4975 14.2824 42.5568L14.5069 42.6858C14.4483 42.6893 14.1002 42.5114 13.918 42.4487C13.7586 42.5219 14.2726 42.9717 13.8204 42.8706L13.6479 42.7834C13.3974 42.6544 14.0026 43.0134 13.7683 42.8949L13.8757 42.9681C13.8301 42.9472 13.7781 42.9298 13.726 42.8949C13.7098 42.9019 13.7521 42.9228 13.8236 42.9716L13.661 42.9019C13.5178 42.8879 13.7976 43.0867 13.713 43.1076C13.3649 43.01 13.6057 43.2784 13.7488 43.4318C14.0904 43.7071 13.0265 43.3412 13.4235 43.6479C13.3844 43.634 13.4625 43.6793 13.495 43.6932L13.4235 43.7699C13.4235 43.7699 13.3551 43.871 13.5731 44.0453C13.7878 44.2231 14.2954 44.4532 15.4211 44.7774L15.4764 44.8052C15.6294 44.8226 15.6684 44.8122 15.3983 44.6518C15.7465 44.8017 15.4471 44.6344 15.5643 44.6728L15.5936 44.6867C15.3398 44.5403 15.8343 44.7355 15.6066 44.5996C15.6326 44.6135 15.7269 44.6588 15.7302 44.6658C15.6944 44.6274 15.6293 44.5682 15.8278 44.6588C15.792 44.5926 15.9091 44.5751 15.6033 44.3974L15.6586 44.4253C15.4504 44.3068 15.6359 44.3904 15.535 44.3207C15.561 44.3311 15.574 44.3381 15.587 44.3416C15.3821 44.2196 15.574 44.2754 15.4927 44.2161L15.6261 44.2788L15.6098 44.23H15.5773C15.2162 44.0453 15.8148 44.3137 15.5903 44.1743C15.6456 44.1743 14.8615 43.749 15.0502 43.8118C14.8875 43.7141 15.3203 43.9616 15.1966 43.878C15.3853 43.9721 15.3105 43.9477 15.4634 44.0174C15.3821 43.9546 15.6684 44.0872 15.5513 44L15.6977 44.0732C15.4439 43.9094 15.9124 44.122 15.6684 43.9721C15.561 43.8815 16.1076 44.1778 15.8376 44L16.0393 44.0941C16.0751 44.0976 15.8018 43.9582 15.9026 43.9965C16.0263 44.0628 16.01 44.0313 16.1239 44.101C16.3289 44.1742 15.8799 43.8919 16.2247 44.0278C15.9905 43.8884 16.1402 43.9477 15.9645 43.8431C16.0686 43.8988 16.0002 43.8117 16.215 43.9581C16.2312 43.9686 16.228 43.9721 16.1857 43.9477L16.3256 44.0278C16.6022 44.1533 16.1987 43.9059 16.2508 43.9059C16.202 43.885 16.2085 43.9023 16.1141 43.8431L16.1434 43.8327L16.2605 43.9024L16.3451 43.9094L16.1955 43.8327C16.2768 43.8606 16.5306 43.9965 16.3289 43.8605C16.215 43.7873 16.1239 43.7629 16.0848 43.7211C16.1955 43.756 16.3614 43.8118 16.4167 43.8118C16.2508 43.7211 16.2605 43.7176 16.2312 43.6897L16.3744 43.7699C16.1889 43.6304 16.6933 43.9407 16.5501 43.8222L16.6477 43.8815L16.3516 43.7037C16.0816 43.5154 16.6542 43.864 16.2833 43.613C16.3028 43.6374 15.9677 43.4353 16.036 43.4562L16.1727 43.5398C16.1466 43.5154 16.0913 43.4805 16.1206 43.491C16.1922 43.5398 16.3191 43.6095 16.2996 43.5851L16.4688 43.6932L16.228 43.5259C16.3842 43.5956 16.2117 43.4632 16.4069 43.5712C16.4069 43.5712 16.5176 43.5956 16.3126 43.4597C16.4395 43.5433 16.498 43.5573 16.651 43.6549C16.5078 43.5573 16.4004 43.4597 16.5631 43.5433L16.5794 43.5573C16.7583 43.62 16.3939 43.3586 16.6054 43.4457C16.4427 43.3481 16.5403 43.383 16.3289 43.261C16.1434 43.0971 16.7843 43.4597 16.1499 43.0484C16.1239 43.01 16.3093 43.125 16.3484 43.1355L16.3809 43.1598C16.3451 43.0971 16.3451 43.0832 16.3712 43.0727C16.3158 43.0204 16.0198 42.8322 16.1011 42.8566C16.215 42.9368 16.1987 42.9158 16.202 42.9089C16.2182 42.9263 16.2605 42.9542 16.3451 42.996C16.3093 42.9716 16.2898 42.9542 16.2703 42.9403C16.2801 42.9472 16.2866 42.9507 16.2996 42.9577C16.2638 42.9194 16.228 42.8984 16.2085 42.8914C16.189 42.881 16.1662 42.8671 16.1336 42.8461C16.2931 42.9298 16.1434 42.8043 16.3451 42.9333C16.3191 42.8671 16.1271 42.7032 16.0686 42.6195C16.1727 42.6857 16.2605 42.7521 16.2963 42.7869L16.2703 42.7415C16.42 42.8392 16.3484 42.8113 16.3744 42.8357C16.6282 42.9681 16.1662 42.623 16.4037 42.7381L16.2898 42.6544L16.3093 42.6649C16.2475 42.623 16.1662 42.5603 16.1499 42.5428C16.28 42.6265 16.446 42.7415 16.446 42.7206C16.5761 42.7938 16.4037 42.644 16.3451 42.5812C16.3191 42.5742 16.2475 42.5254 16.2052 42.4906C16.2052 42.4801 16.3354 42.5638 16.2833 42.5185L16.4557 42.637C16.2898 42.5289 16.2931 42.4975 16.2215 42.4452C16.3516 42.5289 16.3256 42.5324 16.4199 42.6021C16.4199 42.5603 16.4199 42.5812 16.4199 42.5393C16.2996 42.4348 16.254 42.4313 16.1076 42.3163C16.0816 42.2779 15.971 42.1803 16.0848 42.2361L15.9287 42.135C15.8278 42.0235 15.8538 42.0199 16.0198 42.1106C15.4634 41.5703 15.0535 41.253 14.7769 41.0788C14.5004 40.9045 14.3572 40.8696 14.3572 40.8696C13.9635 40.7267 14.3767 41.0857 14.432 41.2775V41.2949Z" fill="#20BB65"/>
</svg>
