<svg width="102" height="36" viewBox="0 0 102 36" fill="none" xmlns="http://www.w3.org/2000/svg">
<path d="M101.104 2.02426L101.031 2.01746C101.06 2.03121 101.088 2.03801 101.104 2.02426Z" fill="#ACDE45"/>
<path d="M97.0027 7.021C97.0027 7.021 97.0027 7.03109 97.006 7.03781C97.006 7.03109 97.006 7.02435 97.0027 7.021Z" fill="#ACDE45"/>
<path d="M98.6108 1.65918C98.6108 1.65918 98.6045 1.64975 98.5983 1.64661L98.6108 1.65918Z" fill="#ACDE45"/>
<path d="M99.2395 0.8121C99.0507 1.03189 98.7283 0.942528 98.725 1.25504C98.6371 1.35806 98.6403 1.52296 98.611 1.66033C98.7967 1.85608 98.5231 1.81143 98.6664 1.99687L98.5296 1.93843C98.5785 2.00368 98.6045 2.05864 98.5231 2.0346L98.4873 2.00718C98.5589 2.10334 98.4808 2.10331 98.5166 2.15139L98.4808 2.12389L98.471 2.17545L98.4254 2.1342C98.484 2.25783 98.4482 2.32312 98.37 2.34373L98.5166 2.44677C98.2821 2.43646 98.5491 2.70772 98.2886 2.65964L98.2561 2.63214C98.5264 3.05798 97.862 2.61847 98.1095 3.03743C98.0802 2.98592 98.0346 2.98249 98.0021 2.95502C97.9988 3.04774 97.963 3.12327 98.2268 3.36023C98.1877 3.398 98.116 3.31898 98.0118 3.23312C98.1258 3.33615 98.1421 3.41862 98.1226 3.45639L98.09 3.40139L98.0476 3.53193L98.2756 3.71396C98.1714 3.70709 98.0053 3.48382 98.0151 3.57998L98.1909 3.74481C98.0965 3.78602 97.8002 3.56969 97.6145 3.50787C97.3117 3.69332 97.4485 4.43508 96.9209 4.34579L96.7906 4.21533C96.6148 4.01615 96.9763 4.57937 96.8069 4.40079L96.8558 4.52093C96.8167 4.49003 96.7678 4.46948 96.7451 4.40766C96.7125 4.42483 96.7385 4.45914 96.7711 4.53812L96.6376 4.43508C96.4552 4.43508 96.5594 4.76136 96.4031 4.80943C96.0644 4.65833 95.9863 5.11849 95.9309 5.39323C95.9309 5.89805 95.081 5.20436 95.094 5.74696C95.0647 5.71948 95.094 5.80534 95.107 5.83281L94.8693 5.9496C94.8693 5.9496 94.5925 6.10067 94.5502 6.43035C94.5144 6.7566 94.687 7.27857 95.6932 7.9551L95.716 8.0101C95.9212 8.04788 96.0254 8.02036 95.9602 7.70441C96.1621 8.00319 96.0872 7.66324 96.1784 7.73879L96.1914 7.76629C96.1231 7.47439 96.4813 7.8487 96.4259 7.58427C96.4389 7.61174 96.4911 7.69412 96.4748 7.71129C96.5073 7.63574 96.5399 7.51216 96.6571 7.68387C96.7613 7.53964 97.0023 7.48123 96.8981 7.14125L96.9242 7.19273C96.846 6.96951 96.9665 7.12066 96.9567 6.98329C96.9763 7.00389 96.986 7.01072 96.9925 7.02102C96.9176 6.7978 97.1228 6.87335 97.1098 6.76346L97.1944 6.87337L97.2791 6.76689L97.2238 6.77377C97.0121 6.45439 97.442 6.90774 97.3703 6.64675C97.4713 6.62958 97.0316 5.89461 97.2107 5.98733C97.1358 5.81562 97.3573 6.24491 97.3247 6.09381C97.4485 6.25178 97.3768 6.21398 97.4875 6.32731C97.4778 6.21055 97.6927 6.42005 97.6699 6.26208L97.7676 6.38231C97.6699 6.09041 98.0444 6.4166 97.9272 6.1556C97.9272 5.98389 98.2724 6.46467 98.1616 6.15216L98.3277 6.28271C98.3863 6.27584 98.1877 6.06291 98.2951 6.10412C98.3766 6.20715 98.4124 6.13844 98.471 6.25521C98.6957 6.32732 98.4645 5.86372 98.8064 6.00796C98.6599 5.7916 98.8194 5.84657 98.712 5.68516C98.7901 5.76415 98.839 5.58211 98.9367 5.82593C98.9432 5.84654 98.9334 5.8534 98.9041 5.81906L98.9986 5.93929C99.2591 6.08352 99.0148 5.70232 99.1093 5.66798C99.0572 5.65081 99.0376 5.68516 98.9855 5.59243L99.0572 5.54431L99.1321 5.65079L99.2721 5.60962L99.1516 5.51002C99.2493 5.52375 99.4545 5.69887 99.3437 5.48252C99.2786 5.36919 99.1549 5.37604 99.1646 5.29018C99.2949 5.30736 99.4968 5.32803 99.6043 5.27996C99.4707 5.16319 99.4935 5.14601 99.487 5.09793L99.601 5.20089C99.5196 4.96394 99.8745 5.40359 99.8257 5.1941L99.8973 5.27652L99.6824 5.03262C99.5261 4.74415 99.9527 5.20782 99.7215 4.83693C99.7117 4.88845 99.4577 4.62398 99.5424 4.62741L99.6433 4.73733C99.6401 4.69269 99.601 4.6446 99.6368 4.64804C99.6857 4.71672 99.7899 4.79916 99.7996 4.74764L99.9169 4.89529L99.7671 4.6446C99.9299 4.69955 99.842 4.48315 100.018 4.59991C100.018 4.59991 100.184 4.55187 100.028 4.37673C100.119 4.49005 100.21 4.46262 100.324 4.58625C100.223 4.45231 100.187 4.28055 100.347 4.35266L100.357 4.37329C100.594 4.34925 100.33 3.99207 100.584 3.99893C100.438 3.89591 100.562 3.8925 100.366 3.77231C100.269 3.51818 100.897 3.8101 100.353 3.35679C100.357 3.2778 100.529 3.38084 100.578 3.37054L100.601 3.40483C100.62 3.26059 100.633 3.22626 100.698 3.15414C100.666 3.07516 100.396 2.8932 100.506 2.86573C100.601 2.95845 100.597 2.91718 100.614 2.8897C100.62 2.91718 100.659 2.94815 100.751 2.95845C100.718 2.93098 100.702 2.91031 100.689 2.89314C100.698 2.89658 100.705 2.90003 100.715 2.91033C100.702 2.83821 100.663 2.82792 100.637 2.83823C100.62 2.82792 100.597 2.81415 100.565 2.80385C100.731 2.84163 100.627 2.6631 100.819 2.773C100.851 2.60472 100.705 2.38835 100.689 2.23381C100.796 2.27502 100.871 2.35057 100.891 2.40552C100.891 2.37118 100.897 2.33682 100.897 2.30248C101.04 2.38146 100.956 2.39868 100.972 2.43989C101.259 2.46393 100.838 2.10334 101.109 2.09648L101.005 2.01406H101.027C100.965 1.98659 100.894 1.91787 100.884 1.89039C101.021 1.93847 101.177 2.03806 101.197 1.97281C101.34 1.98311 101.197 1.80797 101.151 1.71181C101.115 1.73585 101.05 1.69123 101.008 1.65689C101.014 1.62598 101.151 1.66716 101.105 1.61908L101.281 1.69462C101.112 1.63281 101.135 1.53327 101.066 1.49206C101.203 1.53327 101.161 1.58819 101.255 1.6397C101.288 1.50921 101.272 1.57443 101.301 1.44393C101.193 1.32374 101.128 1.38557 100.985 1.28941C100.972 1.2173 100.868 1.11425 101.001 1.09364L100.835 1.04904C100.751 0.897934 100.786 0.842944 100.972 0.832642C100.444 0.211057 99.9983 0.0565567 99.6987 0.0119125C99.3991 -0.0292975 99.2395 0.0496414 99.2395 0.0496414C98.8129 0.162969 99.233 0.451509 99.2363 0.808663L99.2395 0.8121Z" fill="#ACDE45"/>
<path d="M88.4863 11.344L88.4414 11.2832C88.451 11.3136 88.4671 11.3407 88.4863 11.344Z" fill="#ACDE45"/>
<path d="M88.0505 9.07453C87.7346 9.09514 87.5555 8.79297 87.2982 9.02993C87.1484 9.05397 87.0182 9.18101 86.8912 9.26687C86.9009 9.54503 86.7088 9.33216 86.6958 9.57255L86.6209 9.43857C86.6144 9.52099 86.5981 9.5828 86.5492 9.51068L86.5395 9.46951C86.533 9.59314 86.4678 9.54159 86.4613 9.60341L86.4515 9.5588L86.4092 9.59309L86.3995 9.5313C86.3636 9.6721 86.292 9.70298 86.2106 9.67207L86.2659 9.84722C86.0705 9.69268 86.1259 10.0773 85.9338 9.8816L85.924 9.83691C85.8979 10.3555 85.5853 9.59651 85.5462 10.091C85.5495 10.0292 85.5104 10.0018 85.5007 9.96057C85.4388 10.0361 85.3671 10.0842 85.4616 10.4344C85.4062 10.4482 85.3867 10.3383 85.3411 10.2078C85.3834 10.3589 85.3541 10.4379 85.3118 10.4619V10.3967L85.2076 10.486L85.3118 10.7676C85.2239 10.7058 85.1978 10.4208 85.1555 10.5101L85.2206 10.7504C85.1164 10.7298 84.9666 10.3864 84.8298 10.2353C84.439 10.2422 84.2013 10.9633 83.7487 10.6371L83.6868 10.4619C83.6119 10.201 83.6933 10.8775 83.6184 10.6371L83.6086 10.7676C83.5858 10.723 83.5468 10.6783 83.5533 10.6165C83.5142 10.6165 83.524 10.6612 83.5174 10.747L83.436 10.5959C83.2569 10.5101 83.2146 10.8603 83.0453 10.8397C82.775 10.5581 82.5079 10.9634 82.3549 11.1969C82.1725 11.6708 81.5831 10.7127 81.4105 11.2449C81.391 11.2106 81.3877 11.2999 81.3975 11.3308L81.1239 11.3686C81.1239 11.3686 79.8213 11.6296 81.3291 13.5458L81.3356 13.6043C81.5147 13.7039 81.6157 13.7072 81.645 13.3879C81.7492 13.7382 81.772 13.3879 81.8371 13.4943V13.5252C81.8632 13.2264 82.0813 13.7004 82.1041 13.4326C82.1074 13.46 82.1302 13.5596 82.1106 13.5699C82.1627 13.5081 82.2279 13.405 82.2832 13.6111C82.42 13.5149 82.6512 13.5527 82.6642 13.1955L82.6708 13.254C82.6708 13.017 82.7326 13.2024 82.7652 13.0719C82.775 13.0994 82.7847 13.1097 82.7847 13.1234C82.788 12.8865 82.9476 13.041 82.9736 12.9345L83.0127 13.0719L83.1234 13.0067L83.0713 12.9895C82.9899 12.6083 83.2211 13.199 83.2439 12.9311C83.3351 12.9551 83.2048 12.1035 83.3351 12.2649C83.3286 12.076 83.3742 12.5602 83.397 12.4091C83.4491 12.6048 83.4002 12.5396 83.4556 12.6907C83.4881 12.5808 83.6021 12.8659 83.6412 12.7113L83.6835 12.8624C83.7063 12.5568 83.9115 13.0136 83.905 12.7285C83.9701 12.574 84.0873 13.1647 84.1101 12.835L84.2046 13.0307C84.2567 13.0513 84.1687 12.7697 84.2436 12.8556C84.2762 12.9861 84.3316 12.9415 84.3348 13.0754C84.4977 13.2471 84.4781 12.7251 84.7126 13.0273C84.6768 12.7663 84.7875 12.8968 84.7614 12.6976C84.794 12.8075 84.9112 12.6735 84.8917 12.938C84.8917 12.9586 84.8754 12.9586 84.8656 12.9174L84.8949 13.0685C85.0512 13.3295 85.0024 12.8693 85.0936 12.8934C85.0578 12.8487 85.0285 12.8727 85.0219 12.7628H85.1034L85.1229 12.8934L85.2532 12.9345L85.1978 12.7834C85.2727 12.8487 85.3639 13.1097 85.3671 12.8693C85.3606 12.7388 85.2597 12.6736 85.3053 12.6083C85.4062 12.6942 85.5593 12.8212 85.6667 12.8384C85.6114 12.6667 85.6374 12.6633 85.6537 12.6221L85.6993 12.7731C85.7416 12.5327 85.8263 13.096 85.8784 12.9002L85.8979 13.0101L85.8361 12.6838C85.8426 12.3542 85.9696 12.9861 85.9566 12.5431C85.924 12.5809 85.8458 12.2134 85.911 12.2649L85.9403 12.416C85.9566 12.3782 85.95 12.313 85.9761 12.337C85.9826 12.4194 86.0282 12.5534 86.0575 12.5156L86.0836 12.7079V12.416C86.1845 12.5568 86.2171 12.3301 86.2985 12.5293C86.2985 12.5293 86.4483 12.5911 86.4125 12.3576C86.4288 12.5053 86.5102 12.5396 86.5395 12.7113C86.5265 12.5431 86.5818 12.3817 86.6697 12.5396V12.5603C86.8553 12.6908 86.8358 12.2477 87.0214 12.416C86.9661 12.2408 87.0573 12.3164 86.9758 12.0966C87.0377 11.8322 87.3438 12.4778 87.1843 11.7669C87.2298 11.7086 87.3015 11.9077 87.3406 11.9318V11.973C87.4285 11.8803 87.4578 11.8631 87.5457 11.8528C87.5653 11.7704 87.4741 11.4476 87.5685 11.5025C87.5848 11.6399 87.6076 11.6055 87.6337 11.5952C87.6239 11.6227 87.6337 11.6708 87.6923 11.7429C87.6858 11.7017 87.6858 11.6742 87.6858 11.6536C87.689 11.6639 87.6923 11.6708 87.6955 11.6845C87.7281 11.6227 87.7053 11.5884 87.6793 11.5781C87.6727 11.5574 87.6662 11.5334 87.6467 11.4991C87.7444 11.6502 87.7737 11.4441 87.8453 11.6605C87.9658 11.5643 87.9919 11.3034 88.0765 11.1797C88.1254 11.2896 88.1286 11.3961 88.1124 11.451L88.1807 11.3823C88.2296 11.5437 88.1645 11.4922 88.1514 11.5334C88.3305 11.7635 88.2654 11.2037 88.451 11.4029L88.4348 11.2656L88.4478 11.2828C88.425 11.2141 88.4217 11.1145 88.4315 11.087C88.4934 11.2209 88.5357 11.4132 88.5878 11.3823C88.6757 11.5025 88.6887 11.269 88.7213 11.1728C88.6822 11.1591 88.666 11.0801 88.666 11.0252C88.692 11.0115 88.7539 11.1454 88.7539 11.0767L88.819 11.2656C88.7506 11.0904 88.8288 11.0457 88.8125 10.9668C88.8744 11.1007 88.8125 11.1041 88.8386 11.2106C88.9428 11.1522 88.8907 11.1831 88.9949 11.1247C89.0046 10.9599 88.9265 10.9497 88.8972 10.7745C88.9363 10.7196 88.9428 10.5684 89.0405 10.6612L88.9655 10.4998C89.0177 10.3349 89.0828 10.3315 89.2033 10.4757C89.327 9.65837 89.1968 9.17756 89.047 8.90282C88.8939 8.62809 88.7148 8.55253 88.7148 8.55253C88.3175 8.28467 88.3436 8.82384 88.0603 9.07453H88.0505Z" fill="#ACDE45"/>
<path d="M73.7831 15.396L73.7446 15.3281C73.751 15.362 73.7639 15.3892 73.7831 15.396Z" fill="#ACDE45"/>
<path d="M73.5981 13.0892C73.2789 13.072 73.1291 12.7492 72.8426 12.9587C72.6863 12.9655 72.543 13.0789 72.4062 13.151C72.3899 13.4292 72.2141 13.1957 72.1782 13.4361L72.1164 13.2952C72.1033 13.3776 72.0805 13.436 72.0349 13.3604L72.0284 13.3158C72.0089 13.4395 71.947 13.381 71.9373 13.4429L71.9307 13.3983L71.8819 13.4292V13.3639C71.8298 13.5012 71.7549 13.5253 71.6767 13.4841L71.7191 13.6627C71.5367 13.491 71.5562 13.879 71.3804 13.6627L71.3739 13.618C71.3022 14.1331 71.0515 13.3467 70.9701 13.8378C70.9799 13.776 70.944 13.7451 70.9375 13.7004C70.8691 13.7691 70.791 13.8138 70.8594 14.1709C70.8007 14.1778 70.791 14.0679 70.7584 13.934C70.7877 14.0885 70.7519 14.1641 70.7096 14.1847L70.7193 14.1195L70.6021 14.1984L70.6835 14.4869C70.5988 14.4147 70.5988 14.1297 70.5467 14.2155L70.5923 14.4594C70.4914 14.432 70.3644 14.0713 70.2406 13.9099C69.8466 13.8825 69.56 14.5899 69.1302 14.2293L69.0813 14.0473C69.0259 13.7794 69.0585 14.4628 68.9999 14.219L68.9804 14.3495C68.9608 14.3049 68.9283 14.2568 68.9348 14.1916C68.8957 14.1916 68.9022 14.2327 68.8892 14.3186L68.8175 14.1606C68.6449 14.061 68.5798 14.4079 68.4105 14.3736C68.163 14.0714 67.8667 14.4525 67.6941 14.6723C67.4759 15.1291 66.9613 14.1229 66.7464 14.638C66.7301 14.6002 66.7204 14.693 66.7269 14.7239L66.4533 14.7375C66.4533 14.7375 65.1312 14.8749 66.4957 16.9217V16.9801C66.6715 17.0968 66.7692 17.1105 66.8213 16.7946C66.8995 17.1518 66.9483 16.8084 67.0037 16.9183V16.9492C67.0493 16.6539 67.2316 17.1449 67.2772 16.8805C67.2772 16.9114 67.2935 17.011 67.2772 17.0179C67.3326 16.9595 67.4075 16.8633 67.4466 17.0728C67.5898 16.9904 67.8178 17.0454 67.8569 16.6916V16.75C67.8764 16.513 67.9253 16.7019 67.9676 16.5749C67.9774 16.6023 67.9839 16.616 67.9839 16.6263C68.0067 16.3894 68.1532 16.5576 68.1858 16.4512L68.2118 16.5886L68.3258 16.5336L68.277 16.5131C68.2249 16.125 68.4105 16.7362 68.4528 16.4718C68.544 16.5027 68.4756 15.6408 68.5928 15.8125C68.6026 15.6236 68.6091 16.1112 68.6449 15.9601C68.684 16.1593 68.6384 16.0907 68.684 16.2486C68.7264 16.1422 68.8175 16.434 68.8664 16.2829L68.8957 16.4375C68.9413 16.1353 69.1106 16.6058 69.1269 16.3207C69.2018 16.1731 69.2767 16.7706 69.3223 16.4443L69.4005 16.647C69.4493 16.671 69.3842 16.3825 69.4526 16.4753C69.4721 16.6092 69.534 16.5679 69.5275 16.7019C69.674 16.8873 69.6968 16.362 69.9052 16.6848C69.8889 16.4203 69.9899 16.5576 69.9768 16.3619C70.0029 16.4718 70.1267 16.3517 70.0908 16.6127C70.0876 16.6333 70.0745 16.6332 70.068 16.5886L70.0876 16.7431C70.2243 17.0144 70.2081 16.5543 70.2993 16.5817C70.2667 16.5371 70.2374 16.5576 70.2374 16.4478H70.3155L70.322 16.5852L70.449 16.6366L70.4034 16.4821C70.4751 16.5508 70.5435 16.8187 70.563 16.5817C70.5663 16.4512 70.4718 16.3791 70.5207 16.3173C70.6151 16.41 70.7551 16.5508 70.8594 16.5783C70.817 16.3997 70.8431 16.4031 70.8594 16.3585L70.8919 16.5131C70.9505 16.2761 70.9929 16.8461 71.0613 16.6538L71.0743 16.7638L71.0385 16.4341C71.071 16.1078 71.1492 16.7466 71.1687 16.3035C71.1329 16.3379 71.0841 15.9635 71.1459 16.0219L71.1622 16.1731C71.1817 16.1353 71.1785 16.0701 71.2045 16.0975C71.2045 16.1834 71.2371 16.3173 71.2729 16.2829L71.2827 16.4753L71.3055 16.1834C71.3934 16.3311 71.4455 16.1112 71.5107 16.3173C71.5107 16.3173 71.6539 16.3929 71.6377 16.1559C71.6377 16.3036 71.7191 16.3448 71.7321 16.5199C71.7321 16.3517 71.8005 16.1971 71.8721 16.3619V16.3825C72.0447 16.5302 72.061 16.0872 72.2303 16.276C72.188 16.0975 72.2759 16.1799 72.2141 15.9533C72.2987 15.6991 72.543 16.3688 72.4485 15.6476C72.5006 15.5961 72.5527 15.7988 72.5886 15.8297L72.582 15.8708C72.6797 15.7884 72.7123 15.7747 72.797 15.7712C72.823 15.6922 72.7644 15.3626 72.8556 15.4244C72.8556 15.5617 72.8816 15.5308 72.9109 15.524C72.8979 15.548 72.9012 15.5995 72.9565 15.6785C72.9565 15.6373 72.9565 15.6098 72.9565 15.5858C72.9565 15.5961 72.9631 15.603 72.9631 15.6167C72.9989 15.5583 72.9826 15.5205 72.9598 15.5068C72.9598 15.4862 72.95 15.4622 72.937 15.4278C73.0184 15.5858 73.0673 15.3866 73.1194 15.6098C73.2464 15.5274 73.2985 15.2733 73.3962 15.1599C73.432 15.2733 73.4255 15.3832 73.4027 15.4347L73.4743 15.3729C73.5069 15.5412 73.4483 15.4793 73.4287 15.5171C73.5818 15.7644 73.572 15.2012 73.7381 15.4244V15.287L73.7446 15.3077C73.7316 15.239 73.7348 15.1359 73.7479 15.1119C73.7935 15.2527 73.8162 15.4484 73.8684 15.4244C73.94 15.5549 73.9791 15.3248 74.0214 15.2321C73.9856 15.215 73.9791 15.1325 73.9823 15.0775C74.0084 15.0672 74.054 15.2081 74.0638 15.1394L74.1061 15.3351C74.0572 15.1531 74.1386 15.1188 74.1321 15.0364C74.1777 15.1772 74.1158 15.1703 74.1321 15.2836C74.2396 15.239 74.1875 15.263 74.295 15.2184C74.3243 15.057 74.2461 15.0363 74.2396 14.8578C74.2852 14.8063 74.308 14.6586 74.3926 14.7616L74.3373 14.5933C74.4089 14.4354 74.4708 14.4422 74.575 14.6036C75.0147 13.0136 74.3243 12.6324 74.3243 12.6324C73.9563 12.3165 73.914 12.8557 73.5981 13.072V13.0892Z" fill="#ACDE45"/>
<path d="M58.8424 18.1332L58.8103 18.0654C58.8135 18.0993 58.8231 18.1264 58.8424 18.1332Z" fill="#ACDE45"/>
<path d="M52.9946 18.9447C52.9946 18.9447 52.9946 18.9548 52.9912 18.9615C52.9912 18.9548 52.9946 18.9514 52.9946 18.9447Z" fill="#ACDE45"/>
<path d="M57.6251 15.7777C57.6251 15.7777 57.6251 15.7676 57.6285 15.7576V15.7777H57.6251Z" fill="#ACDE45"/>
<path d="M58.8236 15.823C58.5045 15.7749 58.3775 15.4452 58.0746 15.6272C57.9183 15.6204 57.7652 15.7199 57.622 15.7818C57.5861 16.0565 57.4266 15.8127 57.3712 16.0462L57.3191 15.8985C57.2996 15.9775 57.2735 16.0359 57.2345 15.9569V15.9123C57.2019 16.0325 57.1465 15.9706 57.1302 16.0324V15.9878L57.0781 16.0153V15.95C57.0195 16.0805 56.9446 16.1011 56.8665 16.0531L56.8958 16.2351C56.7232 16.0496 56.7199 16.4377 56.5571 16.211V16.1664C56.4496 16.6712 56.2477 15.8711 56.1338 16.3553C56.1468 16.2935 56.1142 16.2625 56.1077 16.2179C56.0361 16.2797 55.9546 16.321 56.0002 16.6781C55.9416 16.6781 55.9384 16.5717 55.9156 16.4343C55.9351 16.5923 55.8928 16.6644 55.8504 16.6815L55.8635 16.6162L55.743 16.6884L55.8049 16.9837C55.7267 16.9082 55.743 16.6231 55.6844 16.7021L55.7169 16.9494C55.616 16.9151 55.515 16.5476 55.3978 16.3759C55.0038 16.3209 54.6748 17.0043 54.2678 16.6197L54.2287 16.4377C54.1896 16.1664 54.1799 16.8533 54.1375 16.6026L54.1115 16.733C54.0952 16.6849 54.0626 16.6369 54.0757 16.5751C54.0366 16.5682 54.0398 16.6129 54.0235 16.6987L53.9617 16.5373C53.7956 16.4274 53.7077 16.7674 53.5416 16.7227C53.3104 16.4033 52.9912 16.7674 52.8089 16.9803C52.5679 17.4233 52.1022 16.3896 51.8612 16.8944C51.8482 16.8566 51.8319 16.9459 51.8352 16.9768H51.5584C51.5584 16.9768 50.2297 17.049 51.4965 19.161V19.2194C51.6626 19.343 51.7603 19.3636 51.8287 19.0511C51.8873 19.4117 51.9557 19.0717 52.0045 19.1851V19.2159C52.0631 18.924 52.2195 19.422 52.2781 19.161C52.2781 19.1919 52.2878 19.2915 52.2683 19.2983C52.3269 19.2434 52.4051 19.1506 52.4344 19.3636C52.5809 19.288 52.8056 19.3568 52.861 19.0065V19.0648C52.8903 18.8279 52.9294 19.0202 52.9782 18.8966C52.9847 18.924 52.9912 18.9377 52.9912 18.948C53.0238 18.7145 53.1638 18.8897 53.1997 18.7866L53.2192 18.9275L53.3364 18.8794L53.2876 18.8553C53.255 18.4673 53.4081 19.0855 53.4667 18.8245C53.5546 18.8622 53.5351 17.9968 53.6425 18.1754C53.6621 17.9899 53.6425 18.4742 53.6849 18.3265C53.7109 18.5291 53.6719 18.457 53.7077 18.6149C53.7565 18.5119 53.8314 18.8073 53.8868 18.6631L53.9096 18.821C53.9714 18.5223 54.1147 19.003 54.1473 18.7214C54.2287 18.5772 54.271 19.1781 54.3362 18.8588L54.4013 19.0648C54.4502 19.0923 54.4013 18.8004 54.4632 18.8966C54.4762 19.0305 54.5381 18.9961 54.5251 19.1266C54.6618 19.3224 54.7139 18.8004 54.9028 19.1335C54.9028 18.8691 54.994 19.0133 54.994 18.8141C55.0135 18.9275 55.1438 18.8141 55.0917 19.0717C55.0884 19.0923 55.0754 19.0923 55.0689 19.0476L55.0786 19.2022C55.1991 19.4838 55.2089 19.0202 55.2968 19.0545C55.2675 19.0064 55.235 19.0237 55.2447 18.9172L55.3229 18.9275V19.0614L55.4466 19.1232L55.4108 18.9652C55.4759 19.0408 55.5313 19.3121 55.5639 19.0751C55.5769 18.9447 55.4825 18.8657 55.5378 18.8073C55.6257 18.9069 55.7593 19.058 55.8602 19.0923C55.8276 18.9138 55.8537 18.9172 55.8765 18.8759L55.8993 19.0339C55.9709 18.8004 55.9807 19.3739 56.0588 19.1885L56.0654 19.2983L56.0491 18.9652C56.1012 18.6424 56.1403 19.2847 56.1859 18.8451C56.15 18.876 56.124 18.5016 56.1793 18.5635L56.1859 18.718C56.2087 18.6836 56.2087 18.6184 56.2315 18.6459C56.2249 18.7283 56.251 18.8691 56.2868 18.8382V19.0305L56.3226 18.742C56.4008 18.8966 56.4659 18.6802 56.518 18.8897C56.518 18.8897 56.6548 18.979 56.6548 18.7386C56.6483 18.8863 56.7232 18.9343 56.7264 19.106C56.7362 18.9377 56.8144 18.7901 56.8762 18.9584V18.979C57.0358 19.1404 57.0814 18.7008 57.2377 18.9034C57.2084 18.7214 57.2898 18.8107 57.241 18.5806C57.3419 18.3334 57.5406 19.0236 57.495 18.2956C57.5503 18.2475 57.5861 18.4536 57.622 18.4879L57.6122 18.5291C57.7164 18.4535 57.749 18.4432 57.8336 18.4501C57.8662 18.3746 57.8304 18.038 57.9151 18.1101C57.9085 18.2475 57.9346 18.2166 57.9639 18.2132C57.9476 18.2372 57.9509 18.2853 57.9965 18.3711C57.9965 18.3299 57.9997 18.3024 58.0062 18.2818C58.0062 18.2921 58.0095 18.299 58.0127 18.3162C58.0518 18.2613 58.0388 18.2235 58.0127 18.2063C58.0127 18.1857 58.0062 18.1617 57.9932 18.1239C58.0648 18.2887 58.1267 18.093 58.1625 18.3231C58.2961 18.251 58.3645 18.0003 58.4687 17.8973C58.498 18.014 58.485 18.1204 58.4556 18.1719L58.5338 18.117C58.5566 18.2853 58.498 18.22 58.4784 18.2578C58.6119 18.5188 58.6445 17.959 58.7911 18.1925L58.7976 18.0552L58.8073 18.0758C58.7976 18.0036 58.8106 17.9041 58.8236 17.8801C58.8594 18.0243 58.866 18.22 58.9213 18.2029C58.9864 18.3402 59.0385 18.1136 59.0874 18.0277C59.0516 18.0071 59.0516 17.9247 59.0581 17.8698C59.0874 17.8595 59.12 18.0071 59.1362 17.9384L59.1656 18.1376C59.1297 17.9522 59.2144 17.9247 59.2144 17.8423C59.2502 17.9865 59.1883 17.9762 59.1949 18.0861C59.3056 18.0517 59.2502 18.0689 59.3609 18.0346C59.4033 17.8766 59.3251 17.8491 59.3316 17.6705C59.3805 17.6259 59.413 17.4782 59.4912 17.5916L59.4489 17.4164C59.5303 17.2653 59.5954 17.2791 59.6866 17.4474C60.2434 15.9054 59.5824 15.4624 59.5824 15.4624C59.2372 15.1121 59.1525 15.6444 58.8204 15.8299L58.8236 15.823Z" fill="#ACDE45"/>
<path d="M43.8854 20.2142L43.8533 20.1464C43.8597 20.1802 43.8693 20.2074 43.8854 20.2142Z" fill="#ACDE45"/>
<path d="M43.8306 17.9004C43.5082 17.8626 43.3747 17.5364 43.0718 17.7287C42.9122 17.7287 42.7625 17.8351 42.6192 17.9004C42.5899 18.1786 42.4238 17.9381 42.3717 18.1751L42.3163 18.0308C42.3 18.1133 42.274 18.1682 42.2316 18.0926L42.2251 18.048C42.1991 18.1682 42.1405 18.1098 42.1274 18.1716L42.1209 18.127L42.0721 18.1545V18.0892C42.0134 18.2231 41.9386 18.2438 41.8604 18.2026L41.8962 18.3846C41.7171 18.206 41.7236 18.5941 41.551 18.3777L41.5445 18.333C41.4566 18.8447 41.2254 18.0549 41.1277 18.5425C41.1407 18.4807 41.1016 18.4498 41.0984 18.4052C41.0267 18.4704 40.9486 18.515 41.0072 18.8722C40.9486 18.8791 40.9421 18.7692 40.9095 18.6318C40.9356 18.7898 40.8965 18.8619 40.8541 18.8825L40.8639 18.8173L40.7434 18.8963L40.8183 19.1882C40.7369 19.1161 40.7402 18.831 40.6848 18.9169L40.7272 19.1607C40.6229 19.1298 40.5057 18.7692 40.382 18.6078C39.9814 18.5769 39.6851 19.2844 39.252 18.9272L39.2031 18.7452C39.1445 18.4773 39.1803 19.1641 39.1184 18.9169L39.0989 19.0473C39.0794 19.0027 39.0435 18.9546 39.0533 18.8928C39.0142 18.8928 39.0207 18.934 39.0077 19.0198L38.9361 18.8619C38.7602 18.7657 38.6951 19.1126 38.5225 19.0817C38.2652 18.7829 37.9689 19.1744 37.7995 19.4011C37.5944 19.8647 37.0343 18.8825 36.8356 19.4079C36.8194 19.3736 36.8096 19.4629 36.8194 19.4938L36.5393 19.5213C36.5393 19.5213 36.2039 19.5762 36.0573 19.8784C35.9108 20.1806 35.9596 20.7198 36.6891 21.7019L36.6956 21.7604C36.8715 21.8668 36.9691 21.8737 37.005 21.5577C37.0994 21.9115 37.132 21.5646 37.1906 21.6745V21.7054C37.2232 21.41 37.4251 21.8908 37.4544 21.623C37.4544 21.6539 37.4772 21.7501 37.4576 21.7604C37.5097 21.702 37.5781 21.6024 37.627 21.8084C37.7637 21.7191 37.9884 21.7673 38.0145 21.4135L38.021 21.4719C38.0275 21.2349 38.0829 21.4238 38.122 21.2933C38.1317 21.3208 38.1382 21.3345 38.1382 21.3448C38.1513 21.1078 38.3043 21.2727 38.3336 21.1662L38.3662 21.3036L38.4769 21.2453L38.4281 21.2246C38.3662 20.84 38.5648 21.4444 38.6007 21.1765C38.6886 21.2074 38.6072 20.3489 38.7277 20.5172C38.7342 20.3283 38.7505 20.8159 38.783 20.6648C38.8254 20.864 38.7798 20.7953 38.8254 20.9499C38.8644 20.8434 38.9589 21.1319 39.0045 20.9808L39.037 21.1353C39.0761 20.8331 39.252 21.3036 39.2617 21.0186C39.3334 20.8709 39.4148 21.465 39.4571 21.1422L39.5353 21.3448C39.5841 21.3688 39.519 21.0804 39.5841 21.1731C39.6069 21.307 39.6655 21.2658 39.659 21.3963C39.8056 21.5818 39.8218 21.0563 40.0303 21.3792C40.014 21.1147 40.1149 21.2521 40.1019 21.0564C40.1247 21.1663 40.2484 21.0461 40.2126 21.3071C40.2094 21.3277 40.1963 21.3276 40.1898 21.283L40.2094 21.4375C40.3429 21.7088 40.3266 21.2486 40.4145 21.2796C40.382 21.2349 40.3527 21.2521 40.3559 21.1422L40.4341 21.1491L40.4406 21.2796L40.5643 21.3346L40.522 21.1765C40.5904 21.2486 40.6588 21.5165 40.6783 21.2761C40.6848 21.1456 40.5904 21.0701 40.636 21.0082C40.7271 21.101 40.8672 21.2452 40.9681 21.2761C40.9291 21.0975 40.9551 21.101 40.9746 21.0598L41.0039 21.2143C41.0658 20.9774 41.0984 21.5508 41.1668 21.3585L41.1765 21.4684L41.1472 21.1388C41.1831 20.8125 41.2514 21.4547 41.2775 21.0117C41.2417 21.046 41.1993 20.6718 41.2612 20.7301L41.2742 20.8847C41.2938 20.8469 41.2938 20.7816 41.3166 20.8126C41.3166 20.8984 41.3459 21.0323 41.3785 21.0014L41.3849 21.1937L41.411 20.9018C41.4957 21.0529 41.551 20.8331 41.6096 21.0426C41.6096 21.0426 41.7497 21.125 41.7367 20.8847C41.7367 21.0323 41.8116 21.077 41.8213 21.2487C41.8246 21.0804 41.8962 20.9293 41.9646 21.0941V21.1147C42.1274 21.2693 42.1567 20.8262 42.3163 21.022C42.2805 20.84 42.3619 20.9293 42.3098 20.6992C42.401 20.4451 42.6192 21.1284 42.5508 20.4038C42.6029 20.3557 42.6485 20.5584 42.6843 20.5927L42.6778 20.634C42.7787 20.555 42.808 20.5447 42.8927 20.5447C42.922 20.4691 42.8764 20.1326 42.9644 20.2013C42.9644 20.3386 42.9871 20.3077 43.0132 20.3043C43.0002 20.3283 43.0002 20.3764 43.0523 20.4588C43.0523 20.4176 43.0523 20.3901 43.0588 20.3695C43.0588 20.3798 43.0621 20.3866 43.0653 20.4004C43.1044 20.3454 43.0881 20.3043 43.0653 20.2906C43.0653 20.2699 43.0588 20.2459 43.0458 20.2081C43.1207 20.3695 43.176 20.1737 43.2184 20.4004C43.3486 20.3248 43.4105 20.0707 43.5114 19.9642C43.5408 20.081 43.531 20.1875 43.5049 20.239L43.5798 20.1841C43.6059 20.3523 43.5473 20.2905 43.5277 20.3283C43.6645 20.5858 43.6873 20.0227 43.8371 20.2527V20.1154L43.8501 20.1359C43.8403 20.0638 43.8501 19.9643 43.8631 19.9403C43.9022 20.0845 43.912 20.2802 43.9673 20.2596C44.0325 20.3935 44.0813 20.1669 44.1302 20.0776C44.0943 20.057 44.0944 19.9746 44.0976 19.9196C44.1237 19.9093 44.1627 20.0536 44.1758 19.9883L44.2083 20.1875C44.1693 20.0021 44.2507 19.9746 44.2507 19.8921C44.2897 20.0364 44.2246 20.0261 44.2344 20.1394C44.3451 20.1016 44.2897 20.1222 44.4005 20.0845C44.4395 19.9265 44.3614 19.899 44.3646 19.7204C44.4135 19.6723 44.4428 19.5247 44.521 19.6346L44.4754 19.4629C44.5568 19.3118 44.6187 19.3221 44.7131 19.4904C45.2569 17.9381 44.5926 17.5054 44.5926 17.5054C44.2409 17.162 44.1595 17.7012 43.8273 17.8935L43.8306 17.9004Z" fill="#ACDE45"/>
<path d="M29.423 23.9709L29.3781 23.91C29.3909 23.9405 29.4037 23.9675 29.423 23.9709Z" fill="#ACDE45"/>
<path d="M28.9222 21.7193C28.5933 21.7536 28.3979 21.4652 28.1341 21.7193C27.9778 21.7536 27.8476 21.8944 27.7173 21.994C27.7434 22.2722 27.5284 22.0764 27.5284 22.3203L27.4437 22.1932C27.4437 22.2757 27.4307 22.3375 27.3721 22.2757L27.3591 22.2344C27.3591 22.358 27.2874 22.3168 27.2874 22.3786L27.2744 22.3375L27.2321 22.3786L27.2191 22.3168C27.1897 22.4611 27.1214 22.5023 27.0334 22.4782L27.1051 22.6465C26.8902 22.5194 26.9813 22.8937 26.7632 22.7255L26.7469 22.6843C26.7697 23.2029 26.3724 22.4954 26.3821 22.9934C26.3821 22.9315 26.3365 22.911 26.3203 22.8698C26.2649 22.9522 26.1965 23.014 26.3333 23.3471C26.2779 23.3677 26.2454 23.2647 26.1835 23.1376C26.2454 23.2819 26.2226 23.3643 26.1835 23.3952V23.3299L26.0793 23.4364L26.2193 23.6974C26.1216 23.6493 26.0597 23.3712 26.0272 23.4673L26.1249 23.6939C26.0174 23.6939 25.8188 23.3745 25.6592 23.2475C25.2554 23.3265 25.1349 24.0889 24.6236 23.8656L24.5292 23.7042C24.4087 23.4639 24.6073 24.1129 24.4901 23.8931L24.5031 24.0236C24.4706 23.9858 24.4282 23.9515 24.4217 23.8863C24.3827 23.8966 24.3989 23.9343 24.4087 24.0236L24.298 23.8931C24.1026 23.8485 24.1221 24.2022 23.9495 24.2228C23.6239 24.0099 23.4317 24.4735 23.3275 24.7448C23.2526 25.2496 22.445 24.4803 22.3929 25.047C22.3669 25.0195 22.3832 25.1088 22.3994 25.1363L22.1357 25.2531C22.1357 25.2531 21.8263 25.4144 21.7709 25.7476C21.7123 26.0841 21.924 26.5786 22.8977 27.2861L22.9205 27.3411C23.1159 27.3857 23.2071 27.3651 23.155 27.0526C23.3438 27.3616 23.2755 27.0216 23.3634 27.1075L23.3731 27.135C23.3178 26.8431 23.6402 27.2414 23.5978 26.977C23.6076 27.0045 23.6532 27.0937 23.6402 27.1075C23.6727 27.0354 23.7086 26.9186 23.8128 27.1075C23.917 26.9838 24.1417 26.9633 24.0733 26.6164L24.0928 26.6713C24.0375 26.4412 24.1384 26.6061 24.1417 26.4722C24.1579 26.4962 24.1677 26.5065 24.171 26.5168C24.1221 26.2867 24.3077 26.4001 24.3077 26.2902L24.3729 26.4138L24.4641 26.3245H24.412C24.2524 25.9673 24.6008 26.4928 24.565 26.225C24.6562 26.2284 24.3566 25.4247 24.5162 25.5552C24.4738 25.3732 24.6139 25.8369 24.6074 25.6823C24.6985 25.8609 24.6367 25.8094 24.7213 25.9468C24.7311 25.8334 24.8972 26.0841 24.9004 25.9261L24.9721 26.0669C24.933 25.7647 25.2196 26.1699 25.1577 25.8918C25.1903 25.7304 25.415 26.2833 25.3759 25.9571L25.5029 26.1288C25.555 26.1391 25.4215 25.8781 25.5061 25.9502C25.5615 26.0738 25.6071 26.0188 25.6331 26.1459C25.8188 26.2867 25.7048 25.7751 25.9816 26.0326C25.9002 25.7819 26.0304 25.8884 25.9686 25.6995C26.0174 25.7991 26.1053 25.6514 26.1347 25.9124C26.1347 25.933 26.1249 25.9364 26.1053 25.8952L26.1607 26.0395C26.3528 26.2696 26.2291 25.8265 26.3203 25.8334C26.2779 25.7956 26.2551 25.8231 26.2291 25.7166L26.304 25.703L26.3431 25.83L26.4733 25.8506L26.3952 25.7098C26.4766 25.7613 26.6068 26.0017 26.5678 25.7647C26.5417 25.6342 26.4342 25.5896 26.4668 25.5175C26.5775 25.5862 26.7436 25.6892 26.8446 25.6926C26.7664 25.5312 26.7892 25.5243 26.799 25.4797L26.8641 25.624C26.8674 25.3802 27.0334 25.9261 27.053 25.7235L27.0888 25.8265L26.9846 25.5141C26.9423 25.1878 27.1539 25.7922 27.079 25.3595C27.053 25.4007 26.926 25.047 26.9976 25.0917L27.0465 25.2359C27.0595 25.1947 27.0432 25.1329 27.0693 25.1535C27.0855 25.2359 27.1474 25.3595 27.1735 25.3217L27.2223 25.5072L27.18 25.2187C27.294 25.3457 27.2972 25.1191 27.4014 25.3045C27.4014 25.3045 27.5512 25.3492 27.4893 25.1225C27.5219 25.2668 27.6033 25.2909 27.6522 25.4557C27.6196 25.2909 27.6522 25.126 27.7531 25.2737V25.2942C27.9485 25.4041 27.8801 24.968 28.0755 25.1191C28.0039 24.9508 28.0983 25.0161 27.9974 24.8066C28.0332 24.5387 28.3881 25.1535 28.1667 24.4632C28.2058 24.4048 28.2937 24.5937 28.3328 24.6143V24.6555C28.4142 24.5559 28.4402 24.5387 28.5216 24.5215C28.5347 24.4391 28.4207 24.1232 28.5184 24.1712C28.5444 24.3052 28.564 24.2708 28.5868 24.2605C28.577 24.288 28.59 24.3361 28.6552 24.4048C28.6454 24.3636 28.6421 24.3361 28.6421 24.3155C28.6454 24.3258 28.6519 24.3327 28.6552 24.3464C28.6812 24.2846 28.6584 24.2503 28.6324 24.24C28.6259 24.2194 28.6161 24.1954 28.5966 24.1645C28.7008 24.3087 28.717 24.1026 28.8017 24.3155C28.9124 24.2125 28.9189 23.9515 28.9971 23.8245C29.0492 23.9309 29.059 24.0373 29.0459 24.0923L29.1078 24.0202C29.1664 24.1781 29.0981 24.13 29.085 24.1712C29.2707 24.391 29.1762 23.8382 29.3683 24.0339L29.3455 23.9L29.3586 23.9171C29.3358 23.8519 29.326 23.7489 29.3325 23.7214C29.3976 23.8554 29.4465 24.0442 29.4953 24.0133C29.5833 24.13 29.5898 23.9 29.6191 23.8039C29.58 23.7901 29.5637 23.7111 29.5572 23.6561C29.5833 23.6424 29.6451 23.7729 29.6451 23.7077L29.7135 23.8966C29.6419 23.7249 29.7135 23.6768 29.6972 23.5978C29.7624 23.7317 29.6972 23.7351 29.7298 23.8416C29.8308 23.7832 29.7787 23.8107 29.8796 23.7523C29.8861 23.5874 29.808 23.5771 29.7786 23.402C29.8145 23.347 29.821 23.196 29.9154 23.2853L29.8405 23.1239C29.8894 22.9591 29.9545 22.9556 30.075 23.0998C30.1987 22.2825 30.0848 21.7983 29.935 21.5235C29.7852 21.2453 29.5963 21.1767 29.5963 21.1767C29.1827 20.9122 29.1958 21.4583 28.9027 21.7227L28.9222 21.7193Z" fill="#ACDE45"/>
<path d="M17.3482 31.6917L17.2904 31.6504C17.3129 31.6745 17.3353 31.6917 17.3482 31.6917Z" fill="#ACDE45"/>
<path d="M15.1505 34.4393C15.1505 34.4393 15.1568 34.4456 15.1599 34.4519C15.1568 34.4456 15.1537 34.4425 15.1505 34.4393Z" fill="#ACDE45"/>
<path d="M15.2747 30.3588C15.2747 30.3588 15.268 30.3488 15.2646 30.342L15.2747 30.3588Z" fill="#ACDE45"/>
<path d="M15.9419 29.9336C15.74 30.016 15.473 29.8134 15.4177 30.0676C15.3297 30.1225 15.3102 30.2598 15.2711 30.3594C15.4242 30.5792 15.1864 30.4591 15.3037 30.6548L15.1832 30.5655C15.2223 30.6342 15.2451 30.6857 15.1734 30.6445L15.1441 30.6136C15.206 30.7131 15.1343 30.6926 15.1669 30.7407L15.1376 30.7097L15.1278 30.7475L15.0887 30.6994C15.1408 30.8196 15.1115 30.8643 15.0431 30.8609L15.1734 30.9845C14.965 30.9192 15.2125 31.2043 14.9813 31.1047L14.952 31.0738C15.2223 31.4824 14.6035 30.9845 14.8575 31.3795C14.825 31.3314 14.7859 31.3211 14.7533 31.2902C14.7566 31.3657 14.7403 31.4275 15.0008 31.6679C14.9715 31.6919 14.8999 31.6164 14.7957 31.5271C14.9096 31.6301 14.9357 31.6988 14.9259 31.7297L14.8901 31.6782L14.8771 31.7778L15.1018 31.9598C15.0106 31.9392 14.8315 31.7297 14.8575 31.8087L15.0366 31.9701C14.9617 31.9839 14.6687 31.7675 14.4961 31.6954C14.2583 31.8259 14.5612 32.4406 14.0955 32.3513L13.949 32.2448C13.7438 32.0799 14.2095 32.5471 14.0174 32.3994L14.0955 32.4989C14.0532 32.4749 14.0043 32.4543 13.9685 32.4063C13.9457 32.42 13.9783 32.4474 14.0304 32.5127L13.8871 32.4302C13.7275 32.4302 13.9229 32.6982 13.8122 32.7428C13.4768 32.6363 13.5777 33.0244 13.6461 33.2442C13.8545 33.6357 12.8874 33.1995 13.1414 33.6322C13.1088 33.615 13.1674 33.6803 13.1902 33.6975L13.0632 33.828C13.0632 33.828 12.9232 33.9997 13.06 34.2572C13.1902 34.5148 13.607 34.8307 14.6654 35.1879L14.711 35.2223C14.8738 35.2223 14.9259 35.1982 14.724 34.9785C15.0171 35.1742 14.7924 34.9372 14.8966 34.9853L14.9194 35.0024C14.7273 34.7964 15.1636 35.0402 14.9943 34.8548C15.0171 34.872 15.0953 34.9303 15.092 34.9441C15.0757 34.8857 15.0431 34.7964 15.2092 34.9166C15.2157 34.8101 15.359 34.7621 15.1311 34.5148L15.1734 34.5526C15.0138 34.3912 15.1734 34.4976 15.1018 34.398C15.1246 34.4118 15.1376 34.4186 15.1474 34.4255C14.9943 34.2607 15.1799 34.3156 15.1213 34.2366L15.232 34.319L15.2483 34.2401H15.2092C14.9161 34.0065 15.4274 34.3431 15.2646 34.1508C15.3297 34.1405 14.7077 33.5841 14.8836 33.6528C14.7598 33.5223 15.0953 33.8486 15.0106 33.7352C15.1636 33.8554 15.0985 33.828 15.2255 33.9173C15.1734 33.828 15.4177 33.9962 15.3395 33.876L15.46 33.9722C15.2776 33.749 15.6814 34.0134 15.4958 33.8108C15.4339 33.6837 15.8703 34.0684 15.6749 33.828L15.8475 33.9413C15.8898 33.9413 15.6619 33.7627 15.7563 33.8039C15.8573 33.8898 15.8573 33.8417 15.9452 33.9345C16.1406 34.0134 15.8052 33.6425 16.1211 33.797C15.9387 33.6185 16.0787 33.6803 15.9452 33.5463C16.0299 33.615 16.0136 33.488 16.1634 33.6838C16.1764 33.7009 16.1699 33.7044 16.1373 33.6735L16.2481 33.7765C16.4923 33.9242 16.1829 33.6048 16.2481 33.5945C16.2025 33.5739 16.1992 33.5945 16.1308 33.5189L16.1732 33.4983L16.2643 33.591H16.362L16.2383 33.4914C16.3197 33.5189 16.5281 33.6872 16.3816 33.5086C16.3002 33.4125 16.2025 33.3919 16.1894 33.3335C16.2969 33.3678 16.4597 33.4262 16.5281 33.4159C16.3914 33.3026 16.4076 33.2957 16.3913 33.2579L16.5053 33.3609C16.3848 33.172 16.7691 33.5704 16.6812 33.4125L16.7561 33.488L16.5281 33.2579C16.336 33.0107 16.7821 33.4502 16.5118 33.124C16.5151 33.1583 16.2546 32.9042 16.323 32.9248L16.4272 33.0312C16.4141 32.9969 16.3718 32.9523 16.4011 32.9626C16.4532 33.0244 16.5574 33.1137 16.5542 33.0793L16.6812 33.2167L16.5086 32.9969C16.6486 33.0794 16.5346 32.9007 16.6974 33.0347C16.6974 33.0347 16.8179 33.0484 16.6616 32.8767C16.7561 32.9866 16.8212 32.9934 16.9352 33.1171C16.831 32.9934 16.7691 32.8561 16.9091 32.9591L16.9189 32.9763C17.1013 33.0347 16.8375 32.7016 17.0394 32.7943C16.9091 32.6707 17.0036 32.7119 16.8342 32.5573C16.7235 32.341 17.2608 32.7771 16.7756 32.2585C16.7756 32.2036 16.9221 32.3444 16.9612 32.3547L16.9808 32.3891C16.984 32.2998 16.9938 32.2791 17.0361 32.2551C17.0036 32.1864 16.7756 31.953 16.8603 31.9736C16.9417 32.0766 16.9384 32.0457 16.9482 32.0353C16.9547 32.0594 16.9873 32.0937 17.0622 32.1418C17.0361 32.1109 17.0231 32.0902 17.0101 32.0731C17.0166 32.0799 17.0231 32.0868 17.0329 32.0971C17.0199 32.0422 16.9873 32.0182 16.9677 32.0147C16.9547 32.001 16.9352 31.9838 16.9059 31.9598C17.0426 32.0594 16.9515 31.8911 17.111 32.0491C17.1306 31.9495 17.0101 31.74 16.997 31.6267C17.0817 31.7057 17.1436 31.7915 17.1599 31.8361V31.7709C17.2804 31.8911 17.212 31.8602 17.225 31.8946C17.4497 32.0457 17.1241 31.6129 17.3422 31.74L17.2608 31.6336L17.2771 31.6472C17.2283 31.5957 17.1762 31.5168 17.1664 31.4927C17.2738 31.5923 17.3943 31.7366 17.4139 31.7057C17.5279 31.7881 17.4204 31.5992 17.3911 31.5168C17.3618 31.5134 17.3097 31.4481 17.2804 31.4069C17.2901 31.3897 17.3944 31.4893 17.3618 31.4344L17.4953 31.5751C17.365 31.4446 17.3911 31.3966 17.3422 31.3348C17.4465 31.4344 17.4074 31.4447 17.479 31.5305C17.5148 31.4687 17.4953 31.4996 17.5311 31.4378C17.4562 31.3039 17.4009 31.3073 17.2967 31.1665C17.2967 31.115 17.225 30.9913 17.3292 31.0497L17.2055 30.9296C17.1599 30.7853 17.1989 30.775 17.3455 30.8746C17.0361 30.1843 16.7398 29.7997 16.5086 29.5936C16.2806 29.3876 16.1243 29.3601 16.1243 29.3601C15.727 29.2124 15.994 29.6623 15.9257 29.9267L15.9419 29.9336Z" fill="#ACDE45"/>
</svg>
