<svg width="113" height="39" viewBox="0 0 113 39" fill="none" xmlns="http://www.w3.org/2000/svg">
<path d="M112.543 2.58056L112.467 2.55603C112.497 2.57707 112.523 2.59108 112.543 2.58056Z" fill="#ACDE45"/>
<path d="M108.002 7.61682C108.002 7.61682 108.005 7.62693 108.009 7.63368C108.009 7.62693 108.009 7.6202 108.002 7.61682Z" fill="#ACDE45"/>
<path d="M109.93 1.73406C109.93 1.73406 109.924 1.72392 109.92 1.71716L109.93 1.73406Z" fill="#ACDE45"/>
<path d="M110.821 0.861103C110.559 1.07513 110.225 0.919821 110.146 1.28229C110.028 1.39276 109.989 1.58261 109.93 1.7345C110.1 1.97615 109.806 1.9002 109.93 2.12459L109.789 2.0452C109.832 2.12114 109.852 2.18671 109.767 2.15219L109.734 2.12113C109.796 2.23851 109.711 2.23159 109.74 2.28683L109.708 2.25577L109.688 2.31447L109.645 2.26268C109.691 2.41112 109.645 2.48014 109.554 2.4974L109.701 2.62513C109.442 2.59751 109.701 2.91512 109.423 2.84953L109.39 2.81501C109.645 3.30521 108.955 2.78396 109.187 3.26035C109.158 3.20166 109.109 3.1982 109.076 3.16368C109.059 3.26724 109.023 3.35353 109.292 3.6228C109.246 3.66422 109.174 3.57449 109.063 3.47783C109.181 3.59521 109.194 3.68495 109.168 3.72638L109.138 3.66422L109.086 3.80922L109.328 4.01289C109.213 4.00253 109.043 3.754 109.05 3.86101L109.233 4.0474C109.128 4.08537 108.811 3.84721 108.611 3.78162C108.261 3.9922 108.402 4.80344 107.822 4.72404L107.681 4.58595C107.485 4.37192 107.888 4.97948 107.701 4.78961L107.757 4.92079C107.714 4.88973 107.658 4.86557 107.632 4.80343C107.596 4.82415 107.626 4.85868 107.662 4.94498L107.514 4.83795C107.308 4.8414 107.436 5.20041 107.262 5.26255C106.883 5.11756 106.814 5.63195 106.765 5.93228C106.791 6.48462 105.819 5.79764 105.871 6.3914C105.838 6.36378 105.871 6.45699 105.891 6.48116L105.642 6.62962C105.642 6.62962 105.351 6.82293 105.331 7.18195C105.315 7.53751 105.554 8.07602 106.693 8.71467L106.722 8.76991C106.945 8.79062 107.053 8.75264 106.958 8.41779C107.2 8.72158 107.092 8.36258 107.197 8.43852L107.213 8.46612C107.118 8.15889 107.527 8.53172 107.446 8.25209C107.462 8.27971 107.524 8.36602 107.508 8.38673C107.537 8.30043 107.56 8.1658 107.701 8.34531C107.799 8.18306 108.055 8.10712 107.917 7.75155L107.95 7.80676C107.848 7.57201 107.989 7.72394 107.966 7.57895C107.986 7.59966 107.999 7.61002 108.009 7.62037C107.914 7.38563 108.136 7.4581 108.117 7.34073L108.212 7.45464L108.294 7.33728L108.235 7.34764C107.989 7.01279 108.477 7.48226 108.382 7.20609C108.487 7.18193 107.979 6.4121 108.179 6.5053C108.091 6.32579 108.349 6.77459 108.303 6.61234C108.441 6.77804 108.366 6.7366 108.487 6.85743C108.47 6.73315 108.709 6.95064 108.68 6.78149L108.791 6.90922C108.676 6.60198 109.086 6.93339 108.948 6.66067C108.942 6.47771 109.328 6.98517 109.2 6.65376L109.384 6.79186C109.446 6.78495 109.23 6.5571 109.341 6.60197C109.433 6.71244 109.469 6.63648 109.534 6.76421C109.776 6.84361 109.511 6.34305 109.881 6.5053C109.721 6.27401 109.894 6.33615 109.773 6.16009C109.858 6.24639 109.907 6.0531 110.015 6.31546C110.025 6.33618 110.012 6.34307 109.979 6.30855L110.081 6.43973C110.359 6.59853 110.091 6.18774 110.189 6.15322C110.133 6.13251 110.117 6.17049 110.058 6.07038L110.133 6.02204L110.215 6.13595L110.362 6.09798L110.231 5.98749C110.336 6.00475 110.552 6.19809 110.438 5.97025C110.369 5.84943 110.238 5.84943 110.248 5.75968C110.389 5.78039 110.601 5.81492 110.713 5.76659C110.572 5.63541 110.598 5.61812 110.591 5.56979L110.709 5.68715C110.628 5.43515 110.997 5.91846 110.948 5.69752L111.024 5.78728L110.801 5.51455C110.641 5.20041 111.086 5.71824 110.844 5.31089C110.834 5.36612 110.569 5.06581 110.657 5.07617L110.762 5.20044C110.762 5.15211 110.719 5.09687 110.755 5.10722C110.804 5.18317 110.916 5.27982 110.925 5.22458L111.047 5.39028L110.896 5.11413C111.063 5.18318 110.981 4.95186 111.161 5.08649C111.161 5.08649 111.338 5.052 111.181 4.85522C111.272 4.98295 111.367 4.96223 111.485 5.10722C111.384 4.95878 111.354 4.7758 111.518 4.869L111.528 4.88974C111.773 4.88974 111.521 4.49273 111.786 4.5307C111.639 4.40643 111.767 4.41678 111.574 4.26488C111.492 3.98526 112.127 4.3788 111.59 3.82991C111.603 3.74706 111.776 3.88516 111.826 3.8817L111.845 3.92313C111.881 3.77814 111.898 3.74363 111.97 3.67804C111.943 3.59174 111.678 3.357 111.796 3.3432C111.888 3.45712 111.888 3.41224 111.907 3.38462C111.911 3.41569 111.947 3.45367 112.045 3.48129C112.015 3.44677 111.999 3.42257 111.989 3.40186C111.999 3.40876 112.006 3.41223 112.015 3.42259C112.009 3.34664 111.97 3.32593 111.94 3.33283C111.924 3.31902 111.901 3.30176 111.868 3.2845C112.042 3.35699 111.953 3.15333 112.143 3.30177C112.199 3.13262 112.074 2.88404 112.081 2.71834C112.186 2.78393 112.254 2.87715 112.268 2.94274L112.287 2.83575C112.425 2.94967 112.336 2.9462 112.346 2.99107C112.637 3.07738 112.258 2.61823 112.543 2.67346L112.448 2.56301L112.471 2.56993C112.412 2.52505 112.349 2.43871 112.34 2.40764C112.474 2.48704 112.621 2.62861 112.654 2.56993C112.804 2.61826 112.68 2.40076 112.654 2.29374C112.611 2.30755 112.549 2.2454 112.516 2.20053C112.529 2.16946 112.664 2.24888 112.624 2.18675L112.795 2.31102C112.631 2.204 112.673 2.11079 112.611 2.04865C112.745 2.1246 112.69 2.17291 112.778 2.24886C112.837 2.12458 112.808 2.18671 112.867 2.06589C112.778 1.914 112.7 1.95889 112.572 1.8208C112.572 1.74485 112.49 1.61024 112.631 1.62405L112.467 1.53429C112.415 1.35478 112.467 1.30644 112.66 1.35132C112.274 0.55388 111.862 0.232828 111.564 0.0947436C111.263 -0.0398889 111.066 0.00844073 111.066 0.00844073C110.569 0.0326055 110.922 0.477932 110.827 0.874925L110.821 0.861103Z" fill="#ACDE45"/>
<path d="M99.3078 13.2024L99.2522 13.1404C99.2686 13.1749 99.2849 13.199 99.3078 13.2024Z" fill="#ACDE45"/>
<path d="M98.5876 10.8171C98.2504 10.8758 98.0245 10.5755 97.779 10.8586C97.6186 10.9 97.4975 11.0519 97.3698 11.1624C97.4124 11.4592 97.18 11.2521 97.1931 11.5144L97.0981 11.3764C97.1014 11.4661 97.0883 11.5317 97.0294 11.4627L97.013 11.4178C97.0195 11.5524 96.941 11.5041 96.9443 11.5731L96.9279 11.5283L96.8853 11.5697L96.869 11.5041C96.8461 11.6595 96.7707 11.7009 96.6824 11.6733L96.7609 11.8562C96.5351 11.7147 96.6333 12.1186 96.4074 11.9322L96.391 11.8873C96.4172 12.4465 96.0015 11.6663 96.0113 12.2049C96.0113 12.1393 95.9655 12.1151 95.9491 12.0668C95.8902 12.1531 95.8182 12.2187 95.9557 12.5812C95.8967 12.6019 95.864 12.4879 95.8051 12.3499C95.8673 12.5087 95.8411 12.595 95.8018 12.626V12.557L95.6905 12.664L95.8313 12.954C95.7298 12.8953 95.6741 12.595 95.6381 12.6951L95.7331 12.9436C95.6185 12.9333 95.4221 12.5777 95.2617 12.4327C94.8459 12.481 94.6659 13.2888 94.1519 12.985L94.0701 12.8021C93.9654 12.5294 94.116 13.2509 94.0112 12.9989V13.1404C93.985 13.0955 93.9424 13.0506 93.9424 12.9816C93.8999 12.985 93.9163 13.0299 93.9163 13.1266L93.8148 12.9713C93.6184 12.8953 93.6053 13.2785 93.422 13.2716C93.111 12.992 92.8589 13.4511 92.7116 13.7169C92.5512 14.2416 91.8507 13.2509 91.7034 13.8343C91.6805 13.7963 91.6837 13.8964 91.6935 13.9275L91.4055 13.9827C91.4055 13.9827 91.0618 14.0725 90.9341 14.4073C90.8064 14.7422 90.885 15.329 91.7656 16.3163L91.7787 16.3785C91.9816 16.4752 92.0896 16.4752 92.0994 16.1265C92.2337 16.4993 92.2402 16.1196 92.3155 16.23L92.3221 16.2611C92.3253 15.9366 92.5938 16.4337 92.6036 16.1437C92.6101 16.1748 92.6396 16.2784 92.62 16.2922C92.6723 16.2232 92.7378 16.1058 92.8098 16.3233C92.9506 16.2093 93.2059 16.23 93.1961 15.8434L93.2092 15.9056C93.1895 15.6501 93.2714 15.8434 93.2976 15.6984C93.3107 15.726 93.3205 15.7398 93.3237 15.7502C93.3106 15.4947 93.4973 15.6466 93.5136 15.5292L93.566 15.6743L93.6806 15.5949L93.6249 15.581C93.5071 15.1771 93.8017 15.7951 93.8083 15.5051C93.9097 15.5224 93.7002 14.6145 93.854 14.7767C93.8311 14.5765 93.9196 15.0943 93.9326 14.9251C94.0047 15.1323 93.949 15.0667 94.021 15.2255C94.0505 15.1046 94.1945 15.3981 94.224 15.2289L94.2829 15.3877C94.2829 15.0563 94.5448 15.5292 94.512 15.222C94.5677 15.0494 94.7477 15.6742 94.7445 15.3152L94.8623 15.5155C94.9212 15.5327 94.8001 15.2358 94.8885 15.3221C94.9343 15.4602 94.99 15.405 95.0063 15.5465C95.1962 15.7157 95.1307 15.1495 95.4122 15.4533C95.35 15.1737 95.481 15.3014 95.4352 15.0943C95.481 15.2082 95.5923 15.0529 95.5989 15.336C95.5989 15.3601 95.5858 15.3601 95.5694 15.3152L95.6152 15.4775C95.8083 15.7399 95.7134 15.2531 95.8149 15.2635C95.7691 15.222 95.7429 15.2497 95.7265 15.1323L95.8116 15.1219L95.8444 15.26L95.9917 15.2876L95.9164 15.1323C96.0048 15.1944 96.1291 15.4637 96.1062 15.2048C96.0866 15.0632 95.9688 15.008 96.0113 14.932C96.1292 15.0114 96.3059 15.1323 96.4238 15.1392C96.3452 14.9596 96.3747 14.9562 96.3878 14.9044L96.45 15.0632C96.4696 14.7974 96.6202 15.3981 96.6562 15.1772L96.6889 15.2911L96.5907 14.9459C96.5645 14.5903 96.7675 15.2566 96.7053 14.7802C96.6758 14.825 96.5515 14.4384 96.63 14.4867L96.6759 14.6455C96.6922 14.6007 96.6758 14.5316 96.7053 14.5558C96.7217 14.6455 96.7806 14.7836 96.8133 14.7387L96.8591 14.9424L96.8297 14.6283C96.9541 14.7663 96.9672 14.5212 97.0752 14.7249C97.0752 14.7249 97.2454 14.7767 97.1832 14.5247C97.216 14.6835 97.3076 14.7077 97.3535 14.8906C97.3207 14.7111 97.3665 14.5316 97.4746 14.6904V14.7146C97.6939 14.8319 97.6251 14.3556 97.8412 14.5178C97.7626 14.3383 97.8707 14.4073 97.7594 14.1795C97.7986 13.8895 98.198 14.5454 97.9492 13.7997C97.995 13.7341 98.09 13.9344 98.1358 13.9586V14.0034C98.2275 13.893 98.257 13.8688 98.3486 13.8481C98.3617 13.7583 98.2275 13.42 98.3388 13.4683C98.3715 13.6133 98.3912 13.5754 98.4173 13.5616C98.4075 13.5926 98.4239 13.6409 98.4959 13.7134C98.4828 13.6686 98.4828 13.641 98.4795 13.6168C98.4828 13.6272 98.4894 13.6341 98.4959 13.6479C98.5221 13.5788 98.4959 13.5409 98.4665 13.534C98.4599 13.5132 98.4468 13.489 98.4239 13.4545C98.545 13.603 98.5548 13.3786 98.6563 13.603C98.7741 13.4822 98.7741 13.2026 98.8527 13.0576C98.9149 13.168 98.9346 13.2854 98.9182 13.3475L98.9837 13.2647C99.0557 13.4338 98.9771 13.3855 98.9673 13.4304C99.1834 13.6548 99.0524 13.061 99.2783 13.2543L99.2455 13.1093L99.2619 13.1266C99.2292 13.0575 99.2161 12.9471 99.2226 12.9195C99.3045 13.0576 99.3699 13.2578 99.4223 13.2198C99.5303 13.3372 99.5205 13.0886 99.5434 12.9781C99.5009 12.9678 99.4747 12.8849 99.4648 12.8263C99.491 12.8055 99.5729 12.9436 99.5663 12.8711L99.658 13.0679C99.5631 12.8884 99.6416 12.8297 99.6187 12.7469C99.7006 12.8849 99.6318 12.8953 99.6744 13.0058C99.7791 12.9298 99.7267 12.9678 99.8315 12.8918C99.8249 12.7123 99.7366 12.7123 99.6875 12.5259C99.7235 12.4603 99.7136 12.2981 99.8282 12.3844L99.73 12.2221C99.7693 12.0392 99.8348 12.0254 99.9854 12.1669C100.028 11.2728 99.8348 10.7757 99.6384 10.4961C99.4419 10.2199 99.2423 10.1612 99.2423 10.1612C98.7873 9.92304 98.8756 10.4995 98.5974 10.8033L98.5876 10.8171Z" fill="#ACDE45"/>
<path d="M83.6472 18.6467L83.6046 18.5741C83.6144 18.6087 83.6275 18.6397 83.6472 18.6467Z" fill="#ACDE45"/>
<path d="M77.3981 20.0966C77.3981 20.0966 77.3981 20.1067 77.3981 20.1134C77.3981 20.1067 77.4014 20.0999 77.3981 20.0966Z" fill="#ACDE45"/>
<path d="M83.3985 16.1575C83.0548 16.1437 82.8846 15.8019 82.5834 16.0332C82.4165 16.0436 82.2659 16.1679 82.1186 16.2507C82.1055 16.5545 81.9123 16.3059 81.8763 16.5648L81.8076 16.4129C81.7945 16.5027 81.7716 16.5648 81.7225 16.4854L81.7159 16.4371C81.6963 16.5717 81.6308 16.5096 81.621 16.5752L81.6112 16.5268L81.5621 16.5614V16.4923C81.5064 16.6408 81.4246 16.6684 81.3427 16.627L81.3886 16.8203C81.1889 16.6373 81.2184 17.055 81.0252 16.8306L81.0187 16.7823C80.9499 17.3381 80.6684 16.4958 80.5866 17.0274C80.5964 16.9618 80.5571 16.9308 80.5473 16.8824C80.4753 16.9584 80.3935 17.0067 80.4687 17.3899C80.4066 17.3968 80.3934 17.2794 80.3574 17.1344C80.3934 17.3036 80.3542 17.383 80.3083 17.4072L80.3181 17.3381L80.1937 17.4278L80.2854 17.7385C80.1938 17.6626 80.1872 17.3554 80.1348 17.4486L80.1905 17.7109C80.0792 17.6833 79.9384 17.2967 79.8042 17.1241C79.3787 17.0999 79.0808 17.8697 78.6127 17.4865L78.557 17.2932C78.4948 17.0067 78.5374 17.7455 78.4719 17.4796L78.4523 17.6212C78.4293 17.5729 78.3933 17.5211 78.4031 17.452C78.3606 17.452 78.3704 17.4969 78.3573 17.5901L78.2787 17.421C78.0922 17.314 78.0234 17.6937 77.8434 17.6557C77.5717 17.3312 77.2574 17.7489 77.0741 17.9905C76.845 18.4876 76.2754 17.4072 76.0528 17.9664C76.0364 17.9284 76.0266 18.0251 76.0298 18.0596L75.7352 18.0768C75.7352 18.0768 74.3113 18.2426 75.8073 20.4381V20.5037C75.9971 20.6245 76.1051 20.6383 76.1575 20.3C76.2459 20.6867 76.295 20.3138 76.3572 20.4312V20.4623C76.403 20.1412 76.606 20.6729 76.6518 20.3829C76.6518 20.4139 76.6715 20.5209 76.6518 20.5313C76.7107 20.4692 76.7893 20.3622 76.8351 20.5865C76.989 20.4933 77.2345 20.552 77.2738 20.1688V20.2344C77.2934 19.979 77.3491 20.1827 77.3916 20.0446C77.4015 20.0722 77.408 20.086 77.4113 20.0998C77.4309 19.8443 77.5946 20.0239 77.6273 19.9099L77.6601 20.0584L77.7812 19.9962L77.7255 19.9755C77.6633 19.5578 77.8728 20.2137 77.9154 19.9272C78.0136 19.9617 77.9318 19.0296 78.0594 19.2126C78.066 19.0089 78.0823 19.5336 78.1183 19.3714C78.1609 19.5854 78.1151 19.5129 78.1642 19.6821C78.21 19.5682 78.3115 19.8789 78.3606 19.7166L78.3966 19.8823C78.4391 19.5543 78.6323 20.0618 78.6454 19.7546C78.7239 19.5923 78.8123 20.2379 78.8582 19.8858L78.9466 20.1032C79.0022 20.1309 78.9269 19.8167 78.9989 19.9169C79.0251 20.0618 79.0873 20.0169 79.084 20.1585C79.2477 20.3553 79.2608 19.7891 79.4932 20.1343C79.4736 19.8478 79.5849 19.9962 79.5685 19.7822C79.598 19.903 79.7289 19.7684 79.6929 20.048C79.6897 20.0722 79.6765 20.0687 79.6667 20.0238L79.6897 20.1895C79.8402 20.483 79.8173 19.9824 79.9155 20.0101C79.8795 19.9617 79.8468 19.9824 79.8468 19.8651H79.9319L79.9417 20.0135L80.0792 20.0687L80.0268 19.8996C80.1054 19.9755 80.1839 20.2621 80.2036 20.0032C80.2036 19.8616 80.1021 19.7856 80.1512 19.7166C80.2527 19.8167 80.4098 19.9652 80.5211 19.9928C80.472 19.8029 80.5015 19.8029 80.5211 19.758L80.5571 19.9238C80.6193 19.6649 80.6717 20.2828 80.7404 20.0756L80.7535 20.193L80.711 19.8375C80.7404 19.4819 80.8354 20.1723 80.8484 19.6959C80.8124 19.7339 80.7535 19.33 80.819 19.3921L80.8387 19.5578C80.8616 19.5164 80.855 19.4474 80.8812 19.475C80.8812 19.5647 80.9205 19.7132 80.9565 19.6752L80.9696 19.8858L80.9892 19.5682C81.0874 19.727 81.1398 19.4888 81.2118 19.7097C81.2118 19.7097 81.3689 19.7891 81.346 19.5337C81.3526 19.6959 81.4377 19.7373 81.4541 19.9238C81.4541 19.7408 81.5228 19.5716 81.6046 19.7512V19.7753C81.7945 19.9306 81.8043 19.4543 81.9909 19.6545C81.9451 19.4612 82.0367 19.5509 81.968 19.3058C82.0564 19.0262 82.3314 19.7512 82.2168 18.971C82.2724 18.9157 82.3314 19.1332 82.3706 19.1643L82.3641 19.2092C82.4688 19.1194 82.5016 19.1022 82.5965 19.0987C82.626 19.0124 82.5539 18.6568 82.6522 18.7224C82.6587 18.8708 82.6849 18.8363 82.7144 18.8294C82.7013 18.857 82.7045 18.9088 82.7667 18.9951C82.7634 18.9502 82.7667 18.9226 82.7667 18.895C82.7667 18.9054 82.7733 18.9157 82.7765 18.9296C82.8158 18.8674 82.7962 18.826 82.77 18.8121C82.7667 18.7914 82.7569 18.7638 82.7438 18.7258C82.8355 18.895 82.8846 18.6775 82.9435 18.9192C83.081 18.826 83.1301 18.5498 83.2316 18.4255C83.2741 18.5463 83.2676 18.6637 83.2447 18.7224L83.3232 18.6534C83.3625 18.8329 83.297 18.7707 83.2774 18.8121C83.4476 19.078 83.428 18.467 83.608 18.7052L83.6015 18.5567L83.6146 18.5774C83.5982 18.5015 83.6015 18.3945 83.6146 18.3634C83.667 18.5153 83.6931 18.7259 83.752 18.6982C83.8339 18.8363 83.8699 18.5878 83.9157 18.4877C83.8764 18.4704 83.8666 18.3807 83.8699 18.322C83.8994 18.3082 83.9517 18.46 83.9583 18.3875L84.0107 18.5981C83.955 18.4013 84.0401 18.3634 84.0336 18.2736C84.0859 18.4255 84.0172 18.4186 84.0336 18.5395C84.1514 18.4877 84.0925 18.5153 84.2103 18.4635C84.2398 18.2874 84.1514 18.2667 84.1416 18.0734C84.1907 18.0182 84.2104 17.8559 84.3053 17.9664L84.2398 17.7834C84.3118 17.6108 84.3806 17.6143 84.4984 17.7834C84.9338 16.0539 84.1776 15.6604 84.1776 15.6604C83.775 15.3255 83.7422 15.9124 83.4051 16.1506L83.3985 16.1575Z" fill="#ACDE45"/>
<path d="M67.5514 21.8708L67.5154 21.7947C67.5219 21.8327 67.5318 21.8604 67.5514 21.8708Z" fill="#ACDE45"/>
<path d="M61.2534 22.9165C61.2534 22.9165 61.2534 22.9266 61.25 22.9334C61.25 22.9266 61.2534 22.9199 61.2534 22.9165Z" fill="#ACDE45"/>
<path d="M66.1832 19.3609C66.1832 19.3609 66.1832 19.3471 66.1867 19.3402V19.3609H66.1832Z" fill="#ACDE45"/>
<path d="M67.4828 19.3713C67.1358 19.3299 66.9918 18.9743 66.671 19.178C66.5008 19.1745 66.3403 19.2885 66.1865 19.3575C66.1538 19.6578 65.977 19.3955 65.9213 19.6509L65.8624 19.4922C65.8428 19.5785 65.8166 19.6406 65.7708 19.5577L65.7642 19.5094C65.7347 19.6406 65.6725 19.575 65.6595 19.6406L65.6529 19.5922L65.6005 19.6233V19.5543C65.5383 19.6993 65.4565 19.72 65.3747 19.6716L65.4107 19.8684C65.2208 19.6716 65.2241 20.0928 65.044 19.8511L65.0375 19.8028C64.936 20.3517 64.7003 19.4921 64.589 20.0168C64.6021 19.9512 64.5628 19.9167 64.5596 19.8684C64.4843 19.9375 64.3959 19.9823 64.4515 20.3724C64.3893 20.3759 64.3828 20.2585 64.3533 20.1101C64.3795 20.2792 64.3337 20.3586 64.2879 20.3793L64.3009 20.3103L64.17 20.3897L64.2453 20.7073C64.1569 20.6279 64.17 20.3172 64.1111 20.4069L64.1504 20.6727C64.0423 20.6382 63.9212 20.2447 63.7935 20.0617C63.368 20.0134 63.0276 20.7625 62.5758 20.3552L62.53 20.1584C62.4809 19.8684 62.4874 20.6072 62.4351 20.3414L62.4089 20.4829C62.3892 20.4311 62.3532 20.3793 62.3663 20.3103C62.3237 20.3068 62.3303 20.3551 62.3139 20.4449L62.2452 20.2689C62.0619 20.155 61.9768 20.5278 61.7967 20.4829C61.5381 20.1446 61.2042 20.5485 61.0111 20.7832C60.7623 21.27 60.232 20.1653 59.9865 20.7176C59.9701 20.6797 59.957 20.7763 59.9603 20.8074L59.6624 20.8143C59.6624 20.8143 58.2286 20.9317 59.646 23.179V23.2446C59.8293 23.3723 59.9341 23.393 59.9996 23.0513C60.0716 23.4413 60.137 23.072 60.1927 23.1928V23.2239C60.2483 22.9063 60.4317 23.4414 60.4873 23.1583C60.4873 23.1894 60.5004 23.2998 60.4808 23.3067C60.543 23.2446 60.6248 23.1445 60.6608 23.3723C60.8179 23.286 61.0602 23.3551 61.1125 22.9719V23.0374C61.1387 22.782 61.1878 22.9891 61.2369 22.8511C61.2435 22.8821 61.2533 22.8959 61.2533 22.9063C61.2828 22.6543 61.4399 22.8372 61.4759 22.7268L61.5021 22.8787L61.6265 22.8234L61.5741 22.7993C61.5316 22.3781 61.7083 23.0444 61.764 22.7613C61.8589 22.7993 61.8196 21.8672 61.9408 22.0536C61.9571 21.8499 61.9473 22.3781 61.9931 22.2158C62.0259 22.4333 61.9833 22.3574 62.0226 22.5265C62.0717 22.4126 62.1601 22.7302 62.219 22.5714L62.2452 22.7406C62.3041 22.4161 62.4711 22.9339 62.4973 22.6267C62.5824 22.4713 62.6413 23.1169 62.7035 22.7682L62.7788 22.9891C62.8311 23.0202 62.7722 22.7026 62.841 22.8062C62.8573 22.9512 62.9228 22.9097 62.913 23.0513C63.0636 23.2584 63.1094 22.6922 63.3189 23.0513C63.3123 22.7647 63.4138 22.9201 63.4106 22.706C63.4335 22.8269 63.571 22.6992 63.5219 22.9788C63.5186 23.0029 63.5022 22.9995 63.4989 22.9511L63.512 23.1203C63.6462 23.4206 63.6495 22.9201 63.7445 22.9546C63.7117 22.9028 63.679 22.9235 63.6855 22.8062L63.7706 22.8165V22.958L63.9081 23.0202L63.8656 22.8511C63.9376 22.9305 64.0031 23.2239 64.0358 22.965C64.0456 22.8234 63.9441 22.7406 63.9998 22.675C64.098 22.782 64.242 22.9408 64.3533 22.9753C64.314 22.782 64.3435 22.7854 64.3664 22.7406L64.3959 22.9097C64.4712 22.6577 64.4908 23.2757 64.5694 23.072L64.5759 23.1928L64.553 22.8338C64.6021 22.4817 64.6578 23.1755 64.697 22.7026C64.6578 22.7371 64.6218 22.3332 64.684 22.3988L64.6938 22.5645C64.7167 22.5265 64.7167 22.454 64.7429 22.4851C64.7396 22.5749 64.7691 22.7233 64.8084 22.6888V22.8994L64.8476 22.5852C64.936 22.7509 65.0015 22.5162 65.0637 22.7406C65.0637 22.7406 65.2143 22.8303 65.2077 22.5749C65.2044 22.7371 65.2863 22.7855 65.2928 22.9719C65.3026 22.7889 65.3812 22.6267 65.4532 22.8096V22.8338C65.63 23.0029 65.6693 22.5265 65.8395 22.7406C65.8035 22.5438 65.8919 22.6404 65.8395 22.3919C65.9442 22.1192 66.1734 22.8614 66.1079 22.0778C66.1668 22.026 66.2127 22.2469 66.252 22.2814L66.2421 22.3263C66.3534 22.2435 66.3862 22.2297 66.4778 22.2331C66.5106 22.1503 66.4647 21.7878 66.5564 21.8638C66.5531 22.0122 66.5793 21.9811 66.612 21.9742C66.5957 21.9984 66.599 22.0536 66.6513 22.1434C66.6513 22.0985 66.6546 22.0708 66.6579 22.0467C66.6579 22.057 66.6612 22.0674 66.6644 22.0812C66.707 22.0226 66.6906 21.9776 66.6644 21.9638C66.6644 21.9431 66.6546 21.9155 66.6415 21.8741C66.7201 22.0501 66.7855 21.8395 66.8281 22.0847C66.9689 22.0018 67.0376 21.7325 67.1489 21.6152C67.1816 21.7394 67.1686 21.8568 67.1424 21.912L67.2242 21.8499C67.2504 22.0329 67.1882 21.9638 67.1685 22.0053C67.3191 22.2849 67.342 21.6773 67.5057 21.9259V21.7774L67.5221 21.8016C67.509 21.7256 67.5221 21.6186 67.5352 21.591C67.5777 21.7464 67.5908 21.9569 67.6498 21.9362C67.7218 22.0812 67.7741 21.8361 67.8265 21.7429C67.7872 21.7222 67.7872 21.6324 67.7905 21.5737C67.82 21.5634 67.8625 21.7188 67.8756 21.6463L67.9116 21.8603C67.8691 21.6601 67.9575 21.629 67.9575 21.5392C68 21.6946 67.9313 21.6842 67.9411 21.8051C68.0622 21.7636 68 21.7843 68.1211 21.7463C68.1604 21.5737 68.0786 21.5461 68.0819 21.3528C68.1342 21.301 68.167 21.1423 68.2521 21.2596L68.203 21.0732C68.2881 20.9075 68.3568 20.9178 68.4583 21.1008C69.0279 19.4231 68.3045 18.9571 68.3045 18.9571C67.9215 18.5877 67.8429 19.1676 67.4894 19.3782L67.4828 19.3713Z" fill="#ACDE45"/>
<path d="M51.4032 24.4564L51.3672 24.3802C51.3737 24.4183 51.3836 24.446 51.4032 24.4564Z" fill="#ACDE45"/>
<path d="M45.1376 25.5643C45.1376 25.5643 45.1376 25.5744 45.1376 25.5812C45.1376 25.5744 45.1409 25.5677 45.1376 25.5643Z" fill="#ACDE45"/>
<path d="M50.0415 21.9568C50.0415 21.9568 50.0415 21.943 50.045 21.9362V21.9568H50.0415Z" fill="#ACDE45"/>
<path d="M51.3445 21.9534C50.9975 21.9154 50.8535 21.5599 50.5294 21.7705C50.3592 21.7705 50.1955 21.8844 50.0416 21.9569C50.0089 22.2572 49.8288 21.9983 49.7765 22.2538L49.7176 22.0984C49.6979 22.1847 49.6717 22.2469 49.6259 22.164L49.6193 22.1157C49.5899 22.2469 49.5277 22.1813 49.5146 22.2469L49.508 22.1985L49.4557 22.2296V22.1606C49.3935 22.3056 49.3116 22.3297 49.2298 22.2814L49.2658 22.4781C49.0727 22.2848 49.0792 22.7026 48.8959 22.4678L48.8894 22.4195C48.7879 22.9718 48.5489 22.1122 48.4409 22.6404C48.454 22.5748 48.4147 22.5403 48.4081 22.492C48.3329 22.5645 48.2445 22.6093 48.3034 22.996C48.2412 23.0029 48.2346 22.882 48.2019 22.7336C48.2281 22.9027 48.1855 22.9822 48.1397 23.0029L48.1528 22.9338L48.0219 23.0167L48.1004 23.3308C48.0121 23.2514 48.0219 22.9442 47.963 23.0339L48.0055 23.2997C47.8942 23.2652 47.7731 22.8717 47.6422 22.6956C47.2133 22.6542 46.8794 23.4068 46.4211 23.0029L46.372 22.8061C46.3164 22.5161 46.336 23.2549 46.2771 22.989L46.2542 23.1306C46.2345 23.0823 46.1985 23.0305 46.2084 22.9614C46.1658 22.958 46.1723 23.0063 46.156 23.0995L46.084 22.9269C45.8974 22.813 45.8188 23.1858 45.6355 23.1444C45.3703 22.8096 45.0397 23.2169 44.8498 23.4517C44.6109 23.9384 44.0544 22.8441 43.8154 23.3964C43.7991 23.3584 43.786 23.4551 43.7925 23.4862L43.4913 23.4965C43.4913 23.4965 42.0543 23.6277 43.5404 25.8543V25.9199C43.7303 26.0477 43.8351 26.0649 43.8907 25.7266C43.9725 26.1132 44.0282 25.7439 44.0871 25.8647V25.8957C44.1362 25.5782 44.3326 26.1098 44.3785 25.8267C44.3785 25.8578 44.3948 25.9648 44.3785 25.9751C44.4374 25.913 44.5159 25.8129 44.5618 26.0373C44.7156 25.951 44.9612 26.0166 45.0037 25.6334V25.699C45.0266 25.4435 45.079 25.6506 45.1248 25.5126C45.1346 25.5402 45.1412 25.5575 45.1412 25.5678C45.1674 25.3158 45.3245 25.4988 45.3605 25.3848L45.39 25.5367L45.5144 25.4781L45.462 25.4539C45.4096 25.0362 45.6028 25.699 45.6519 25.4124C45.7468 25.4504 45.6879 24.5184 45.8123 24.7048C45.8253 24.5011 45.8254 25.0293 45.8646 24.867C45.9007 25.0845 45.8548 25.0086 45.9006 25.1777C45.9465 25.0638 46.0414 25.3814 46.097 25.2226L46.1265 25.3917C46.1789 25.0673 46.3557 25.5816 46.3753 25.2744C46.4571 25.1156 46.5259 25.7646 46.5848 25.4159L46.6634 25.6368C46.7158 25.6645 46.6536 25.3503 46.7223 25.4539C46.7419 25.5989 46.8074 25.5575 46.7976 25.699C46.9514 25.9027 46.9874 25.3365 47.2035 25.6921C47.1937 25.4056 47.2984 25.5609 47.2886 25.3434C47.3115 25.4642 47.449 25.3365 47.4032 25.6161C47.3999 25.6403 47.3835 25.6368 47.377 25.5885L47.3934 25.7577C47.5309 26.0545 47.5276 25.5574 47.6225 25.592C47.5865 25.5402 47.557 25.5609 47.5603 25.4435L47.6454 25.4504L47.652 25.592L47.7862 25.6541L47.7436 25.485C47.8157 25.5644 47.8844 25.8543 47.9138 25.5954C47.9237 25.4539 47.8222 25.371 47.8746 25.3054C47.9728 25.409 48.1201 25.5678 48.2281 25.6023C48.1888 25.409 48.215 25.4124 48.2379 25.3676L48.2674 25.5367C48.3394 25.2847 48.3656 25.9027 48.4442 25.6955L48.454 25.8164L48.4278 25.4573C48.4736 25.1052 48.5358 25.7991 48.5718 25.3227C48.5325 25.3572 48.4933 24.9533 48.5587 25.0189L48.5718 25.1846C48.5947 25.1467 48.5947 25.0741 48.6177 25.1052C48.6144 25.195 48.6438 25.3434 48.6831 25.3089V25.5195L48.7191 25.2053C48.8075 25.371 48.873 25.1329 48.9319 25.3607C48.9319 25.3607 49.0825 25.4504 49.0727 25.1915C49.0727 25.3537 49.1512 25.3986 49.161 25.5885C49.1676 25.4055 49.2494 25.2433 49.3182 25.4263V25.4504C49.495 25.6161 49.531 25.1432 49.7012 25.3538C49.6652 25.157 49.7536 25.2537 49.6979 25.0051C49.7994 24.7324 50.0318 25.4711 49.9631 24.6875C50.022 24.6357 50.0678 24.8566 50.1038 24.8912L50.094 24.936C50.2053 24.8532 50.238 24.8394 50.3297 24.8429C50.3624 24.76 50.3166 24.3975 50.4083 24.47C50.405 24.6185 50.4312 24.5874 50.4639 24.5805C50.4476 24.6047 50.4508 24.6599 50.5032 24.7497C50.5032 24.7048 50.5032 24.6772 50.5098 24.653C50.5098 24.6633 50.513 24.6737 50.5163 24.6875C50.5588 24.6288 50.5425 24.584 50.5163 24.5701C50.5163 24.5494 50.5065 24.5218 50.4934 24.4804C50.5719 24.6564 50.6341 24.4424 50.6767 24.6875C50.8174 24.6047 50.8862 24.3319 50.9975 24.2146C51.0302 24.3388 51.0171 24.4562 50.9877 24.5114L51.0695 24.4493C51.0957 24.6323 51.0335 24.5632 51.0139 24.6047C51.1612 24.8808 51.1874 24.2733 51.351 24.5218V24.3734L51.3674 24.3975C51.3543 24.3216 51.3674 24.2111 51.3838 24.1835C51.4231 24.3389 51.4361 24.5494 51.4951 24.5287C51.5671 24.6737 51.6195 24.4286 51.6718 24.3319C51.6326 24.3112 51.6326 24.2215 51.6391 24.1628C51.6686 24.1524 51.7111 24.3078 51.7242 24.2353L51.757 24.4493C51.7144 24.2491 51.806 24.218 51.8028 24.1283C51.8421 24.2836 51.7766 24.2733 51.7864 24.3941C51.9043 24.3527 51.8453 24.3734 51.9665 24.3319C52.009 24.1593 51.9239 24.1317 51.9304 23.9384C51.9828 23.8866 52.0156 23.7278 52.1007 23.8452L52.0516 23.6588C52.14 23.4931 52.2054 23.5034 52.3069 23.6829C52.8896 21.9914 52.1727 21.5357 52.1727 21.5357C51.793 21.1698 51.7078 21.7532 51.351 21.9672L51.3445 21.9534Z" fill="#ACDE45"/>
<path d="M35.412 27.5392L35.3695 27.4667C35.3793 27.5012 35.3924 27.5323 35.412 27.5392Z" fill="#ACDE45"/>
<path d="M35.1766 25.05C34.823 25.0362 34.6528 24.6945 34.3418 24.9292C34.1716 24.9396 34.0145 25.0707 33.8639 25.1536C33.8541 25.4573 33.6544 25.2123 33.6184 25.4712L33.5464 25.3193C33.5333 25.409 33.5103 25.4712 33.458 25.3952L33.4481 25.3469C33.4318 25.4815 33.3598 25.4229 33.3532 25.4884L33.3434 25.4401L33.291 25.4746L33.2845 25.4056C33.2354 25.554 33.1535 25.5851 33.0651 25.5471L33.1175 25.7404C32.908 25.5644 32.9473 25.9821 32.7443 25.7646L32.7345 25.7163C32.6821 26.2755 32.3679 25.4435 32.3024 25.9821C32.309 25.9165 32.2664 25.8854 32.2566 25.8371C32.1846 25.9165 32.1027 25.9683 32.1977 26.3515C32.1355 26.3618 32.1191 26.2479 32.0733 26.1029C32.1158 26.2686 32.0798 26.3515 32.034 26.3756L32.0405 26.3066L31.9161 26.4032L32.0209 26.7105C31.926 26.6414 31.9063 26.3342 31.8539 26.4274L31.9194 26.6863C31.8048 26.6622 31.6477 26.2859 31.5004 26.1236C31.0618 26.1305 30.8032 26.9176 30.3056 26.5758L30.2368 26.386C30.1517 26.1029 30.2467 26.8382 30.1615 26.5793L30.1517 26.7208C30.1255 26.6725 30.083 26.6276 30.0895 26.5586C30.047 26.5586 30.0568 26.6069 30.0535 26.7001L29.9619 26.5379C29.7622 26.4516 29.7229 26.8313 29.5363 26.8175C29.2319 26.5241 28.9438 26.9728 28.7834 27.2387C28.6033 27.7599 27.9094 26.7588 27.7424 27.3491C27.7195 27.3146 27.7228 27.4112 27.7326 27.4423L27.4347 27.5045C27.4347 27.5045 27.0779 27.6011 26.9502 27.9429C26.8193 28.2847 26.9306 28.8612 27.8177 29.8346L27.8308 29.8968C28.0305 29.99 28.1352 29.99 28.1418 29.6448C28.276 30.0141 28.2793 29.6413 28.3513 29.7483L28.3578 29.7794C28.3578 29.4584 28.623 29.952 28.6295 29.6655C28.6361 29.6966 28.6655 29.8001 28.6459 29.8139C28.695 29.7449 28.7605 29.631 28.8325 29.8485C28.97 29.738 29.2155 29.7656 29.209 29.3824L29.2188 29.4446C29.2057 29.1891 29.281 29.3859 29.3104 29.2444C29.3235 29.272 29.3301 29.2857 29.3334 29.2961C29.3268 29.0406 29.5036 29.1994 29.5232 29.0821L29.569 29.2271L29.6836 29.1546L29.628 29.1373C29.5265 28.73 29.7949 29.3617 29.808 29.0717C29.9062 29.0959 29.7393 28.1776 29.8833 28.3468C29.8702 28.1431 29.9324 28.6644 29.9553 28.4987C30.0175 28.7093 29.9651 28.6402 30.0273 28.8025C30.0601 28.6816 30.1877 28.9854 30.2237 28.8197L30.2729 28.982C30.2859 28.6506 30.5184 29.1408 30.5053 28.8335C30.5707 28.6678 30.7082 29.2995 30.7246 28.9474L30.8261 29.158C30.8817 29.1788 30.7835 28.875 30.8621 28.9682C30.8981 29.1097 30.957 29.0613 30.9636 29.2029C31.1371 29.3893 31.1109 28.8232 31.3597 29.1477C31.3204 28.8646 31.4382 29.0061 31.4088 28.7921C31.4448 28.9095 31.5659 28.7679 31.5495 29.051C31.5495 29.0752 31.5332 29.0752 31.5233 29.0269L31.5561 29.1926C31.723 29.4722 31.6674 28.9785 31.7623 29.0027C31.723 28.9578 31.6936 28.982 31.687 28.8611H31.7721L31.7917 29.0027L31.9292 29.0476L31.8703 28.8819C31.9489 28.9509 32.0438 29.234 32.0471 28.9751C32.0405 28.8335 31.9325 28.761 31.9816 28.692C32.0896 28.7852 32.2501 28.9267 32.3581 28.9509C32.2992 28.761 32.3286 28.761 32.345 28.7162L32.3908 28.8819C32.4366 28.623 32.5217 29.234 32.5774 29.0234L32.597 29.1408L32.5381 28.7852C32.5479 28.4296 32.6756 29.1166 32.6658 28.6368C32.6331 28.6747 32.5545 28.2778 32.6232 28.3364L32.6494 28.4987C32.669 28.4573 32.6625 28.3882 32.6887 28.4158C32.6953 28.5056 32.7378 28.6506 32.7738 28.6126L32.7967 28.8197V28.5021C32.9047 28.6575 32.944 28.4158 33.0259 28.6333C33.0259 28.6333 33.183 28.7093 33.1503 28.4538C33.1634 28.6161 33.2485 28.654 33.2714 28.8404C33.2616 28.6575 33.327 28.4883 33.4121 28.6644V28.6885C33.602 28.837 33.5987 28.3606 33.7853 28.5573C33.7329 28.3675 33.8279 28.4538 33.7526 28.2087C33.8312 27.9291 34.1192 28.6436 33.9883 27.8704C34.0407 27.8117 34.1028 28.0292 34.1454 28.0603L34.1389 28.1051C34.2403 28.0119 34.2731 27.9947 34.3647 27.9912C34.3909 27.9049 34.3156 27.5493 34.4138 27.6149C34.4204 27.7634 34.4466 27.7289 34.476 27.722C34.4629 27.7496 34.4695 27.8013 34.5284 27.8877C34.5251 27.8428 34.5284 27.8151 34.5284 27.7875C34.5284 27.7979 34.535 27.8082 34.5382 27.822C34.5742 27.7599 34.5579 27.7185 34.5284 27.7047C34.5251 27.684 34.5153 27.6564 34.4989 27.6184C34.5906 27.7875 34.6364 27.5701 34.6986 27.8117C34.8328 27.7185 34.8787 27.4423 34.9802 27.318C35.0227 27.4389 35.0194 27.5562 34.9932 27.6149L35.0685 27.5494C35.1078 27.7289 35.0423 27.6667 35.0227 27.7081C35.1896 27.9739 35.17 27.3664 35.3501 27.6011L35.3435 27.4527L35.3566 27.4734C35.3402 27.3975 35.3435 27.2905 35.3566 27.2594C35.409 27.4113 35.4352 27.6219 35.4941 27.5977C35.5759 27.7358 35.6119 27.4906 35.6545 27.3905C35.6152 27.3733 35.6054 27.2835 35.6087 27.2248C35.6381 27.211 35.6905 27.3629 35.6971 27.2904L35.7462 27.501C35.6905 27.3042 35.7789 27.2663 35.7691 27.1765C35.8214 27.3284 35.7527 27.3215 35.7691 27.4423C35.8836 27.394 35.828 27.4182 35.9426 27.3698C35.972 27.1938 35.8869 27.1731 35.8771 26.9797C35.9262 26.9245 35.9491 26.7622 36.0408 26.8762L35.9786 26.6932C36.0539 26.5206 36.1226 26.5275 36.2339 26.7036C36.7086 24.9844 35.9589 24.5702 35.9589 24.5702C35.553 24.2284 35.5039 24.8153 35.1569 25.0535L35.1766 25.05Z" fill="#ACDE45"/>
<path d="M20.3901 33.2834L20.3312 33.2283C20.3508 33.2593 20.3705 33.2834 20.3901 33.2834Z" fill="#ACDE45"/>
<path d="M15.7089 37.3121C15.7089 37.3121 15.7156 37.3222 15.719 37.329C15.719 37.3222 15.7122 37.3155 15.7089 37.3121Z" fill="#ACDE45"/>
<path d="M18.1969 31.5436C18.1969 31.5436 18.1969 31.5298 18.1935 31.5229V31.5436H18.1969Z" fill="#ACDE45"/>
<path d="M19.4603 30.9809C19.1068 31.081 18.8449 30.8187 18.6027 31.1535C18.4357 31.2226 18.3212 31.409 18.2 31.5436C18.2819 31.8336 18.0102 31.6748 18.0593 31.9372L17.9414 31.8233C17.9578 31.913 17.9545 31.982 17.8792 31.9303L17.8563 31.8888C17.8825 32.0235 17.7941 31.9924 17.8072 32.0614L17.7843 32.02L17.745 32.0753L17.7155 32.0131C17.7155 32.1754 17.6468 32.234 17.5486 32.2306L17.6632 32.3894C17.4013 32.31 17.5813 32.6863 17.3129 32.562L17.2867 32.5206C17.4275 33.066 16.835 32.417 16.9626 32.9487C16.9463 32.8831 16.8939 32.8727 16.8677 32.8347C16.8284 32.9383 16.7662 33.0246 16.9921 33.3388C16.9365 33.3767 16.8775 33.2766 16.7826 33.1627C16.8841 33.2973 16.8775 33.3905 16.8448 33.4319L16.8252 33.3629L16.7433 33.5044L16.9561 33.7392C16.8415 33.715 16.7073 33.4423 16.6942 33.5528L16.8546 33.7634C16.74 33.7944 16.4487 33.5182 16.249 33.4354C15.83 33.646 15.9086 34.4848 15.3095 34.433L15.1655 34.2984C14.9658 34.0878 15.3652 34.6989 15.1753 34.5124L15.2277 34.6436C15.1819 34.616 15.1262 34.5953 15.1 34.5297C15.0607 34.5539 15.0902 34.5884 15.1262 34.6782L14.9723 34.5815C14.7497 34.6126 14.8807 34.975 14.7039 35.0614C14.2947 34.9716 14.2358 35.5343 14.226 35.8588C14.2751 36.1384 14.0198 36.1556 13.7775 36.1971C13.5353 36.2385 13.2865 36.2903 13.3683 36.5906C13.329 36.5734 13.3814 36.6562 13.4076 36.6769L13.185 36.922C13.185 36.922 13.1195 36.998 13.0672 37.1257C13.0148 37.2534 12.9755 37.426 13.0181 37.6056C13.0966 37.9784 13.5353 38.3339 14.7825 38.579L14.8283 38.6205C15.0346 38.579 15.1131 38.5238 14.9298 38.2442C15.2408 38.4651 15.0345 38.1648 15.1524 38.2097L15.1753 38.2304C15.0018 37.968 15.4765 38.2269 15.3292 37.9853C15.3521 38.006 15.4306 38.075 15.4241 38.0957C15.4241 38.0129 15.4175 37.8852 15.591 38.0267C15.6401 37.8645 15.8496 37.7609 15.6532 37.4433L15.6958 37.4916C15.555 37.2845 15.7187 37.4088 15.6696 37.2776C15.6925 37.2948 15.7089 37.3018 15.7154 37.3087C15.5812 37.0981 15.8071 37.1395 15.7645 37.029L15.8758 37.1292L15.9347 37.0084L15.8791 37.0221C15.5943 36.7252 16.1279 37.1292 16.0002 36.8737C16.0919 36.8461 15.5157 36.1384 15.7187 36.2109C15.614 36.0417 15.9118 36.4629 15.8529 36.3076C16.0035 36.4595 15.9249 36.4249 16.0559 36.5354C16.0264 36.4146 16.2785 36.6182 16.2326 36.456L16.3505 36.5734C16.2097 36.28 16.632 36.5941 16.4814 36.3352C16.4618 36.1591 16.8644 36.6493 16.7204 36.3317L16.9037 36.4698C16.9594 36.4663 16.74 36.242 16.8513 36.2868C16.943 36.3938 16.9725 36.3283 17.0412 36.4491C17.2703 36.5389 16.9986 36.0487 17.3522 36.2282C17.1951 35.9934 17.3587 36.0693 17.2442 35.8933C17.326 35.983 17.3686 35.8035 17.4733 36.0659C17.4831 36.0866 17.47 36.0935 17.4406 36.0556L17.5388 36.1902C17.8007 36.3732 17.542 35.9554 17.637 35.9347C17.5846 35.9105 17.5682 35.9451 17.5126 35.8415L17.5846 35.8036L17.6599 35.9209L17.7974 35.9036L17.6795 35.7794C17.7777 35.807 17.9742 36.0245 17.8727 35.7932C17.8105 35.6689 17.6861 35.6482 17.6992 35.5653C17.8301 35.6068 18.0265 35.6689 18.1313 35.6482C18.0069 35.4998 18.0298 35.4894 18.0265 35.4411L18.1313 35.5723C18.0691 35.3168 18.3834 35.8415 18.3473 35.6275L18.4095 35.7276L18.2197 35.4307C18.092 35.1028 18.4652 35.6793 18.2753 35.2477C18.2589 35.2961 18.0396 34.9612 18.1247 34.9888L18.2098 35.1269C18.2098 35.082 18.1804 35.0199 18.2131 35.0372C18.2524 35.12 18.3473 35.234 18.3604 35.1856L18.4586 35.3686L18.3441 35.0786C18.4946 35.1822 18.439 34.944 18.5929 35.1131C18.5929 35.1131 18.7565 35.1235 18.6387 34.9025C18.7074 35.0475 18.7991 35.051 18.8875 35.2132C18.8122 35.0475 18.8089 34.868 18.9464 34.9992L18.9529 35.0199C19.1755 35.0924 19.002 34.6506 19.241 34.7645C19.1264 34.6057 19.241 34.654 19.0904 34.4538C19.0675 34.1638 19.5716 34.7334 19.1919 34.0533C19.2214 33.9808 19.349 34.1638 19.3981 34.1776L19.408 34.2225C19.4702 34.0982 19.4931 34.074 19.5749 34.0395C19.5716 33.9497 19.3883 33.6425 19.4996 33.6701C19.552 33.8048 19.5651 33.7668 19.5913 33.7495C19.588 33.7806 19.6109 33.8289 19.6928 33.8876C19.6731 33.8462 19.6666 33.8186 19.66 33.7944C19.6666 33.8048 19.6731 33.8117 19.6796 33.8255C19.6927 33.753 19.6633 33.7219 19.6338 33.7185C19.624 33.6978 19.6076 33.6771 19.5814 33.646C19.7189 33.7737 19.6927 33.5562 19.827 33.7599C19.9186 33.6287 19.8793 33.3526 19.9383 33.2007C20.0136 33.3008 20.0463 33.4147 20.0397 33.4768L20.0888 33.3905C20.1805 33.5493 20.0987 33.5079 20.0954 33.5528C20.3311 33.753 20.1281 33.1834 20.3671 33.3491L20.318 33.211L20.3343 33.2283C20.2951 33.1627 20.2689 33.0557 20.2722 33.0246C20.3638 33.1523 20.4522 33.3422 20.498 33.3042C20.6126 33.4112 20.5766 33.1661 20.5897 33.0591C20.5471 33.0522 20.5144 32.9693 20.5013 32.9141C20.5242 32.8934 20.6159 33.0246 20.6028 32.9521L20.7075 33.1385C20.5995 32.9693 20.6715 32.9072 20.6388 32.8244C20.7305 32.9556 20.665 32.9694 20.7141 33.0764C20.809 32.997 20.7599 33.035 20.8548 32.9556C20.8352 32.7795 20.7468 32.783 20.6846 32.6034C20.7141 32.5379 20.6912 32.3756 20.8123 32.455L20.7043 32.2997C20.7304 32.1132 20.7992 32.0994 20.953 32.234C20.953 31.34 20.7566 30.8429 20.5504 30.5736C20.3442 30.3043 20.1314 30.2664 20.1314 30.2664C19.6371 30.0661 19.7386 30.6461 19.4669 30.9878L19.4603 30.9809Z" fill="#ACDE45"/>
</svg>
