<svg width="190" height="108" viewBox="0 0 190 108" fill="none" xmlns="http://www.w3.org/2000/svg">
<path d="M15.9735 1.45605L15.8926 1.48771C15.9313 1.48771 15.963 1.47717 15.9735 1.45605Z" fill="#20BB65"/>
<path d="M13.3358 2.71512C13.3358 2.71512 13.3222 2.71171 13.3154 2.70831L13.3358 2.71512Z" fill="#20BB65"/>
<path d="M13.455 1.25082C13.3715 1.63345 13.0063 1.75866 13.1837 2.14825C13.1628 2.33956 13.2741 2.53436 13.3367 2.71523C13.6394 2.77437 13.3646 2.95874 13.6185 3.03527L13.4585 3.09437C13.5454 3.1222 13.608 3.15701 13.5246 3.20223H13.4759C13.608 3.24397 13.542 3.31353 13.608 3.33093H13.5594L13.5872 3.397H13.5176C13.6602 3.47004 13.6811 3.56396 13.6324 3.6544L13.8307 3.61962C13.6289 3.82833 14.0568 3.83531 13.8168 4.03358H13.7681C14.3281 4.1588 13.455 4.41968 13.9942 4.5449C13.9281 4.53099 13.8933 4.57272 13.8446 4.57968C13.9176 4.66664 13.9663 4.76406 14.3594 4.69101C14.3664 4.76058 14.2481 4.771 14.0985 4.80578C14.269 4.77448 14.3524 4.81968 14.3733 4.87185L14.3037 4.86145L14.3907 5.00404L14.7072 4.91015C14.6307 5.00755 14.3176 5.00754 14.4116 5.07015L14.6794 5.01448C14.6516 5.13623 14.262 5.28579 14.0881 5.43884C14.0707 5.93278 14.8672 6.24584 14.5229 6.785L14.3316 6.85807C14.0463 6.94851 14.7872 6.8546 14.5264 6.94504L14.6724 6.95548C14.6238 6.98331 14.5785 7.02851 14.5055 7.02503C14.5055 7.07373 14.5542 7.05982 14.6516 7.06677L14.4881 7.16766C14.4046 7.39028 14.7942 7.4355 14.7838 7.64072C14.4985 7.98161 14.9716 8.29814 15.2534 8.45815C15.789 8.62164 14.8499 9.45648 15.4655 9.60257C15.4308 9.6304 15.5316 9.61997 15.5629 9.60605L15.6638 9.92953C15.6638 9.92953 15.6986 10.0269 15.7821 10.1347C15.8656 10.2426 15.9943 10.3643 16.1751 10.413C16.5404 10.5209 17.09 10.3017 17.9526 9.25821L18.0153 9.23732C18.0848 9.02166 18.0779 8.91732 17.7335 8.95211C18.0918 8.76775 17.7161 8.81296 17.817 8.726L17.8483 8.71555C17.5248 8.75034 17.9979 8.42684 17.7091 8.45119C17.7405 8.44075 17.8413 8.39902 17.8552 8.41641C17.7822 8.37119 17.6639 8.319 17.8761 8.22508C17.7544 8.09638 17.7683 7.84593 17.3857 7.88072L17.4483 7.86335C17.1909 7.89813 17.3856 7.80422 17.243 7.78335C17.2709 7.76944 17.2848 7.75898 17.2952 7.7555C17.0378 7.77985 17.1908 7.58853 17.0691 7.57461L17.2152 7.51899L17.1387 7.40417L17.1248 7.46332C16.7178 7.58854 17.3439 7.27895 17.0517 7.27895C17.0726 7.17808 16.1543 7.39026 16.3178 7.23025C16.1125 7.24764 16.6378 7.16764 16.4708 7.15025C16.6795 7.0772 16.6134 7.13634 16.7769 7.06329C16.6552 7.03198 16.9613 6.88938 16.7943 6.85807L16.9578 6.80241C16.6239 6.79545 17.1178 6.54503 16.8082 6.5659C16.6378 6.50328 17.2778 6.35022 16.923 6.33631L17.1352 6.22846C17.1595 6.1728 16.85 6.27368 16.9439 6.19368C17.0865 6.15542 17.0378 6.09627 17.1804 6.08931C17.3717 5.91539 16.7978 5.94325 17.1352 5.68932C16.85 5.72758 16.996 5.60931 16.7804 5.63714C16.9021 5.60235 16.763 5.47712 17.0448 5.49799C17.0691 5.49799 17.0656 5.51537 17.0204 5.5258L17.1874 5.49451C17.4796 5.33102 16.9787 5.37973 17.003 5.28233C16.9543 5.32059 16.9787 5.35188 16.8569 5.35536V5.2684L17.003 5.25103L17.0552 5.11189L16.8848 5.16756C16.9578 5.08755 17.25 5.00059 16.9891 4.99015C16.8465 4.99015 16.7665 5.09796 16.7004 5.04926C16.8013 4.9449 16.9543 4.78839 16.9856 4.67708C16.7908 4.72578 16.7943 4.69795 16.7491 4.67708L16.9195 4.63882C16.6621 4.57969 17.2848 4.52403 17.0761 4.45794L17.1978 4.44401L16.8361 4.48575C16.4813 4.45445 17.1804 4.36752 16.7004 4.34665C16.7387 4.38491 16.3282 4.43707 16.3943 4.37098L16.5612 4.35357C16.5195 4.3327 16.4499 4.3327 16.4812 4.30835C16.5717 4.30835 16.7213 4.27358 16.6865 4.23531L16.8987 4.22487L16.5821 4.20054C16.7456 4.10662 16.5091 4.04748 16.7352 3.98139C16.7352 3.98139 16.8256 3.82833 16.5682 3.84225C16.7317 3.84225 16.7804 3.75876 16.9682 3.7518C16.7839 3.74833 16.6204 3.66834 16.8047 3.59877H16.8291C17.003 3.42485 16.5195 3.3866 16.7421 3.21615C16.5439 3.25094 16.6447 3.16398 16.3908 3.21615C16.1195 3.10484 16.8778 2.89264 16.0812 2.93786C16.0291 2.87873 16.2552 2.83698 16.2934 2.79871L16.3386 2.80916C16.2586 2.69437 16.2482 2.6596 16.2586 2.56569C16.1786 2.52742 15.8099 2.55871 15.8899 2.4648C16.0395 2.47871 16.0082 2.4474 16.0047 2.41609C16.029 2.43349 16.0847 2.4335 16.1786 2.3848C16.1334 2.3848 16.1056 2.37783 16.0812 2.37087C16.0917 2.37087 16.1021 2.36739 16.116 2.36739C16.0604 2.32217 16.0151 2.3326 15.9977 2.36043C15.9769 2.36043 15.9456 2.3674 15.9073 2.37784C16.0917 2.30827 15.8795 2.22826 16.1299 2.20043C16.0569 2.05434 15.7925 1.96041 15.6847 1.83866C15.8134 1.81431 15.9282 1.83869 15.9838 1.87L15.9316 1.78304C16.1195 1.7726 16.043 1.82824 16.0812 1.85259C16.3734 1.72388 15.7647 1.64736 16.0325 1.50474L15.883 1.48733L15.9073 1.47693C15.8308 1.48041 15.7229 1.4595 15.6951 1.44211C15.8551 1.41428 16.0673 1.42473 16.0569 1.36211C16.2099 1.30298 15.9734 1.223 15.883 1.16386C15.8586 1.20212 15.7682 1.19166 15.709 1.18123C15.7021 1.14992 15.8621 1.12558 15.7925 1.10123L16.0117 1.09079C15.8064 1.11166 15.7856 1.01774 15.6951 1.00731C15.8551 0.982957 15.8377 1.05253 15.9595 1.05601C15.9351 0.930786 15.9456 0.993427 15.9212 0.868203C15.7543 0.805591 15.716 0.885588 15.5212 0.861239C15.476 0.802105 15.3195 0.746437 15.4516 0.673389L15.2568 0.701202C15.1038 0.589891 15.1246 0.516841 15.3229 0.436836C14.5229 0.0159447 13.9837 -0.0431685 13.6394 0.0229219C13.2985 0.0890124 13.1559 0.27336 13.1559 0.27336C12.728 0.645553 13.2985 0.829931 13.4689 1.25082H13.455Z" fill="#20BB65"/>
<path d="M23.1333 15.8325L23.1017 15.9134C23.1263 15.8853 23.1404 15.8536 23.1333 15.8325Z" fill="#20BB65"/>
<path d="M28.6525 19.3182C28.6525 19.3182 28.6596 19.3111 28.6668 19.304C28.6596 19.3075 28.656 19.3111 28.6525 19.3182Z" fill="#20BB65"/>
<path d="M22.2611 18.6256C22.2611 18.6256 22.2509 18.6324 22.2441 18.6358L22.2645 18.6256H22.2611Z" fill="#20BB65"/>
<path d="M21.2673 17.5404C21.4934 17.8604 21.3369 18.2187 21.7438 18.3509C21.876 18.4935 22.0882 18.5491 22.2621 18.6257C22.5091 18.4448 22.4604 18.7683 22.69 18.6291L22.6239 18.7857C22.7039 18.7404 22.77 18.7161 22.7456 18.8135L22.7143 18.8518C22.8326 18.7822 22.8361 18.8796 22.8952 18.8413L22.8639 18.8796L22.93 18.9005L22.8813 18.9492C23.0343 18.8935 23.1178 18.9422 23.1491 19.0396L23.2604 18.8692C23.2778 19.1579 23.57 18.8518 23.5491 19.1648L23.5213 19.2031C23.9874 18.8761 23.5874 19.6831 24.0431 19.3805C23.9874 19.4188 23.9944 19.4744 23.9666 19.5127C24.0779 19.5196 24.1822 19.551 24.3979 19.217C24.4535 19.2588 24.377 19.3526 24.304 19.4848C24.3979 19.3387 24.4883 19.3109 24.5405 19.3318L24.4848 19.3735L24.6483 19.4083L24.7979 19.1161C24.8153 19.2379 24.5996 19.464 24.711 19.4396L24.857 19.2101C24.9231 19.3144 24.7596 19.7005 24.7492 19.9301C25.0866 20.2744 25.8588 19.9231 25.9945 20.5493L25.911 20.7371C25.7719 21.0015 26.231 20.4101 26.1093 20.6571L26.2171 20.5632C26.2032 20.6154 26.2032 20.6814 26.1476 20.7267C26.1823 20.758 26.2067 20.7162 26.2797 20.6536L26.2345 20.8414C26.325 21.0571 26.631 20.8136 26.7667 20.9666C26.7945 21.4119 27.3406 21.3006 27.6537 21.2241C28.1546 20.9771 28.012 22.2224 28.5546 21.9093C28.5477 21.9511 28.6137 21.878 28.6277 21.8467L28.906 22.0206C28.906 22.0206 29.2573 22.205 29.5912 22.045C29.9286 21.885 30.2243 21.3701 30.193 20.0101L30.2243 19.9545C30.1338 19.7423 30.0538 19.6692 29.8138 19.9196C29.9599 19.5474 29.706 19.8257 29.7234 19.6901L29.7408 19.6622C29.5181 19.9022 29.6573 19.3422 29.4521 19.5544C29.4695 19.5266 29.5182 19.4292 29.539 19.4327C29.4521 19.4501 29.3268 19.4883 29.4208 19.2726C29.2399 19.2553 29.0764 19.057 28.812 19.3457L28.8468 19.2901C28.6798 19.4883 28.7564 19.2901 28.6381 19.3701C28.6485 19.3422 28.652 19.3248 28.6555 19.3144C28.4851 19.5057 28.4607 19.2587 28.3633 19.3318L28.4294 19.1927L28.2903 19.1648L28.3216 19.217C28.1129 19.5892 28.3494 18.9352 28.1372 19.1335C28.0816 19.0431 27.5633 19.8327 27.5737 19.6031C27.4415 19.7597 27.7616 19.3353 27.6259 19.4396C27.7268 19.2413 27.7198 19.3318 27.7859 19.1648C27.6781 19.2275 27.7928 18.9144 27.6502 19.0083L27.7268 18.8553C27.4798 19.0848 27.6572 18.5596 27.4485 18.7891C27.2815 18.8622 27.6294 18.3022 27.365 18.5457L27.438 18.3196C27.4137 18.2639 27.2676 18.5526 27.2746 18.4274C27.3476 18.2987 27.2746 18.2917 27.3685 18.1839C27.3754 17.9265 26.9893 18.3474 27.045 17.9265C26.8711 18.1561 26.885 17.9682 26.7563 18.1422C26.8154 18.0308 26.6241 18.0448 26.8398 17.8535C26.8572 17.8395 26.8676 17.85 26.8398 17.8917L26.9337 17.7491C27.0171 17.4256 26.7006 17.8187 26.6484 17.7282C26.6415 17.7909 26.6797 17.7978 26.5997 17.8848L26.5406 17.8222L26.6276 17.7073L26.5649 17.5717L26.4884 17.7317C26.4815 17.6204 26.6206 17.3525 26.4328 17.5334C26.3319 17.6378 26.3597 17.7665 26.2728 17.7804C26.2658 17.6343 26.2554 17.4186 26.1962 17.3143C26.0988 17.4882 26.078 17.4673 26.0328 17.4847L26.1232 17.3352C25.9006 17.4778 26.2936 16.9908 26.0988 17.0951L26.1719 16.9978L25.9527 17.2865C25.6849 17.523 26.1023 16.956 25.7545 17.29C25.8067 17.29 25.5667 17.6204 25.5597 17.5299L25.6606 17.3978C25.6153 17.4117 25.5701 17.4639 25.5701 17.4256C25.6327 17.3595 25.7093 17.2273 25.6571 17.2273L25.7962 17.0673L25.5597 17.2795C25.6049 17.0951 25.3962 17.2238 25.504 17.0151C25.504 17.0151 25.4553 16.8447 25.2849 17.0395C25.3962 16.9212 25.3684 16.8308 25.4936 16.6847C25.3649 16.8169 25.191 16.8795 25.2675 16.6986L25.2849 16.6847C25.271 16.4343 24.9162 16.7543 24.9405 16.4795C24.8292 16.6465 24.8327 16.5143 24.697 16.7369C24.4292 16.8586 24.7909 16.1629 24.2796 16.7717C24.1996 16.7682 24.3248 16.5734 24.3248 16.5212L24.3631 16.4969C24.224 16.476 24.1926 16.4621 24.13 16.3925C24.0466 16.4273 23.817 16.716 23.8065 16.5977C23.9179 16.4969 23.8726 16.4969 23.8483 16.4795C23.8796 16.4725 23.9144 16.4343 23.9422 16.3299C23.9109 16.3612 23.8865 16.3786 23.8657 16.3925C23.8726 16.3821 23.8761 16.3751 23.8866 16.3647C23.8135 16.3751 23.7926 16.4168 23.7996 16.4482C23.7857 16.4655 23.7683 16.4899 23.7509 16.5247C23.8239 16.3403 23.6257 16.4412 23.7753 16.2395C23.6187 16.1908 23.3683 16.3264 23.2048 16.3229C23.2743 16.2116 23.3683 16.1421 23.4309 16.1282L23.33 16.1073C23.4483 15.9612 23.4378 16.0586 23.4831 16.0447C23.5874 15.7421 23.1213 16.1351 23.1978 15.8394L23.083 15.9368L23.0935 15.9125C23.0448 15.9716 22.9543 16.0377 22.923 16.0447C23.0135 15.909 23.163 15.756 23.1074 15.7247C23.17 15.5716 22.9474 15.6968 22.843 15.7177C22.8535 15.7629 22.7839 15.822 22.7352 15.8568C22.7074 15.8394 22.7978 15.7038 22.7352 15.742L22.8743 15.5751C22.7491 15.7385 22.6656 15.6898 22.5995 15.749C22.6935 15.6133 22.7282 15.6759 22.8152 15.589C22.7074 15.5229 22.7595 15.5542 22.6517 15.4881C22.4917 15.5681 22.523 15.6516 22.3734 15.7768C22.3004 15.7699 22.1543 15.8429 22.1891 15.7003L22.0778 15.8603C21.8899 15.8986 21.8551 15.8325 21.9282 15.6342C21.076 15.9264 20.662 16.2812 20.4742 16.5769C20.2864 16.8725 20.3246 17.1021 20.3246 17.1021C20.3072 17.6726 20.8325 17.3804 21.2568 17.5474L21.2673 17.5404Z" fill="#20BB65"/>
<path d="M38.4314 22.7197L38.4384 22.8042C38.4455 22.769 38.449 22.7338 38.4314 22.7197Z" fill="#20BB65"/>
<path d="M45.012 23.8919C45.012 23.8919 45.0154 23.8816 45.0189 23.8746C45.012 23.8816 45.012 23.885 45.012 23.8919Z" fill="#20BB65"/>
<path d="M38.8562 25.6104C38.8562 25.6104 38.8493 25.6208 38.8458 25.6277L38.8597 25.6104H38.8562Z" fill="#20BB65"/>
<path d="M37.5374 25.0851C37.8713 25.266 37.8818 25.6556 38.2888 25.5895C38.4592 25.6591 38.6679 25.6173 38.8523 25.6104C38.9949 25.3425 39.0818 25.6556 39.2314 25.433V25.6034C39.2871 25.5269 39.3358 25.4816 39.3532 25.5756L39.3427 25.6208C39.4193 25.506 39.461 25.593 39.4992 25.5373L39.4888 25.586L39.5549 25.579L39.5306 25.6452C39.6453 25.5339 39.7358 25.5408 39.8053 25.6173L39.8401 25.4191C39.9654 25.673 40.108 25.2764 40.2089 25.5686L40.1984 25.6173C40.4941 25.1338 40.435 26.0312 40.7306 25.5756C40.6924 25.6312 40.7237 25.6799 40.7098 25.7286C40.8141 25.6904 40.915 25.6799 40.9915 25.2904C41.0576 25.3077 41.0228 25.4225 41.0054 25.5756C41.0367 25.4051 41.1063 25.3425 41.162 25.3425L41.1272 25.4051L41.2872 25.3738L41.315 25.0468C41.3776 25.1547 41.2628 25.4434 41.3533 25.3808L41.402 25.1129C41.5028 25.186 41.4924 25.6034 41.5654 25.8191C41.9898 26.0139 42.5811 25.4086 42.9151 25.9478L42.9012 26.153C42.8629 26.4487 43.0855 25.7356 43.0577 26.0104L43.1273 25.8817C43.1342 25.9373 43.1516 25.9965 43.1168 26.0591C43.1586 26.0765 43.169 26.0278 43.2142 25.9443L43.2351 26.1356C43.3882 26.306 43.5934 25.9756 43.7673 26.073C43.9343 26.48 44.4039 26.1982 44.6717 26.0278C45.0683 25.6347 45.3048 26.8626 45.7187 26.4C45.7257 26.4417 45.7674 26.3513 45.7709 26.32L46.084 26.4C46.084 26.4 46.4666 26.473 46.7379 26.2226C47.0092 25.9721 47.1588 25.3947 46.7309 24.1007L46.7449 24.0381C46.5953 23.8607 46.4909 23.8155 46.3379 24.1251C46.3692 23.7251 46.2022 24.0659 46.1813 23.9338L46.1883 23.9025C46.0457 24.1946 46.0074 23.6207 45.8752 23.885C45.8822 23.8537 45.8996 23.7459 45.9239 23.7424C45.8439 23.7842 45.7361 23.8572 45.7604 23.6276C45.5796 23.6659 45.3535 23.5268 45.1935 23.8816L45.2109 23.819C45.1135 24.059 45.1239 23.8433 45.0369 23.9616C45.0369 23.9303 45.0369 23.9129 45.0369 23.9025C44.9361 24.139 44.8317 23.9129 44.7621 24.0103L44.7795 23.8572L44.6369 23.8746L44.6821 23.9129C44.6056 24.3338 44.616 23.6346 44.4769 23.892C44.3934 23.8259 44.1604 24.7408 44.0943 24.5216C44.0178 24.7129 44.1812 24.2086 44.0908 24.3477C44.1221 24.1286 44.143 24.2155 44.1499 24.0381C44.0665 24.132 44.0734 23.7981 43.9656 23.9338L43.9864 23.7633C43.8299 24.059 43.816 23.5059 43.6977 23.7946C43.5655 23.9198 43.7012 23.2763 43.5343 23.5929L43.5238 23.3563C43.4786 23.3111 43.4438 23.6346 43.4056 23.5129C43.4334 23.3668 43.3534 23.3876 43.4056 23.252C43.3186 23.005 43.1029 23.5337 43.002 23.1233C42.9186 23.4016 42.8664 23.2172 42.8038 23.4259C42.8212 23.3007 42.6438 23.3772 42.7794 23.1268C42.7899 23.1059 42.8038 23.1128 42.7968 23.1615L42.8351 22.9946C42.7968 22.6641 42.6368 23.1407 42.5533 23.0746C42.5707 23.1337 42.609 23.1268 42.5672 23.2381L42.4872 23.1998L42.529 23.0607L42.4177 22.9563L42.4038 23.1337C42.3551 23.0328 42.3864 22.7337 42.2751 22.9667C42.2194 23.0989 42.2924 23.2137 42.2194 23.2555C42.1568 23.1233 42.0629 22.9215 41.969 22.8485C41.9446 23.0467 41.9168 23.0328 41.8785 23.0676L41.9063 22.8972C41.7498 23.1128 41.9342 22.5146 41.7881 22.6815L41.8194 22.5633L41.7255 22.9146C41.562 23.2346 41.7359 22.5528 41.5376 22.9911C41.5863 22.9702 41.4889 23.3702 41.4472 23.2868L41.4924 23.1233C41.4541 23.1511 41.4333 23.2207 41.4194 23.1824C41.4541 23.0954 41.475 22.9459 41.4228 22.9633L41.4924 22.7615L41.3533 23.0467C41.322 22.8589 41.1759 23.0607 41.1933 22.8241C41.1933 22.8241 41.075 22.685 40.995 22.932C41.0541 22.7789 40.988 22.7058 41.0472 22.525C40.9776 22.6954 40.8419 22.8206 40.8385 22.6224L40.8524 22.6015C40.7341 22.3754 40.5323 22.8137 40.4384 22.5493C40.4036 22.7476 40.3515 22.6258 40.3202 22.8798C40.1219 23.0989 40.1602 22.3128 39.9445 23.0815C39.868 23.1094 39.9028 22.8832 39.8784 22.8346L39.9028 22.7963C39.7636 22.8346 39.7288 22.8346 39.6384 22.7963C39.5758 22.8624 39.4923 23.2207 39.4262 23.1163C39.4853 22.9772 39.4436 22.9981 39.4123 22.9911C39.4366 22.9737 39.454 22.9215 39.4332 22.8172C39.4192 22.8589 39.4018 22.8868 39.3914 22.9076C39.3914 22.8972 39.3914 22.8867 39.3984 22.8728C39.3358 22.9111 39.3358 22.9598 39.3532 22.9841C39.3462 23.005 39.3427 23.0328 39.3427 23.0746C39.3288 22.8763 39.1897 23.0537 39.2384 22.8067C39.0714 22.8276 38.9044 23.0607 38.7514 23.1233C38.7653 22.9946 38.8209 22.8867 38.8696 22.8485L38.7688 22.8728C38.8105 22.6919 38.8453 22.7789 38.8801 22.7511C38.8384 22.4311 38.5879 22.9911 38.5218 22.692L38.4627 22.8311V22.8067C38.4418 22.8833 38.3896 22.9807 38.3653 22.9981C38.3827 22.8346 38.4522 22.6328 38.3862 22.6293C38.3722 22.4658 38.2261 22.6711 38.1427 22.7407C38.1705 22.7755 38.1427 22.8624 38.1113 22.9111C38.08 22.9111 38.0974 22.7476 38.0557 22.8102L38.1044 22.5946C38.0696 22.7998 37.9687 22.7928 37.9374 22.8763C37.9583 22.7128 38.0209 22.7511 38.0557 22.6363C37.9235 22.6259 37.9896 22.6293 37.8574 22.6189C37.7496 22.7615 37.8192 22.8242 37.7426 23.0016C37.6731 23.0294 37.5757 23.1615 37.5409 23.0189L37.5165 23.2137C37.367 23.332 37.3044 23.2937 37.2765 23.0815C36.6608 23.7425 36.4765 24.2538 36.4521 24.6016C36.4278 24.9495 36.5634 25.1338 36.5634 25.1338C36.8 25.6382 37.1165 25.1338 37.5583 25.0817L37.5374 25.0851Z" fill="#20BB65"/>
<path d="M55.4766 24.7616L55.5012 24.8425C55.5012 24.8038 55.4977 24.7722 55.4766 24.7616Z" fill="#20BB65"/>
<path d="M62.2003 24.7406C62.2003 24.7406 62.2003 24.7302 62.2072 24.7233C62.2038 24.7302 62.2003 24.7372 62.2003 24.7406Z" fill="#20BB65"/>
<path d="M56.4397 27.5165C56.4397 27.5165 56.4363 27.5301 56.4329 27.5369L56.4431 27.5165H56.4397Z" fill="#20BB65"/>
<path d="M55.0632 27.2557C55.4215 27.3635 55.5084 27.7461 55.8876 27.6035C56.065 27.6383 56.2598 27.5583 56.4372 27.52C56.5276 27.2278 56.6668 27.52 56.7711 27.28L56.8059 27.447C56.8407 27.3635 56.8824 27.3078 56.9137 27.3983V27.447C56.9624 27.3217 57.0181 27.3983 57.0459 27.3357V27.3844L57.105 27.3635L57.0946 27.4331C57.185 27.3009 57.2755 27.2974 57.3555 27.36V27.1583C57.519 27.3878 57.5885 26.9739 57.7416 27.2383V27.287C57.9433 26.7513 58.0442 27.6452 58.2529 27.1374C58.2286 27.2 58.2634 27.2417 58.2599 27.2904C58.3538 27.2313 58.4547 27.2 58.4581 26.8035C58.5242 26.8069 58.5103 26.9287 58.5208 27.0783C58.5208 26.9043 58.5799 26.8313 58.6356 26.8209L58.6112 26.8869L58.7643 26.8243L58.7364 26.4973C58.8164 26.5913 58.7538 26.8974 58.8303 26.8174V26.5461C58.9417 26.5982 59.0043 27.0087 59.1121 27.207C59.5608 27.3183 60.0374 26.6191 60.4548 27.0921L60.4756 27.2974C60.4861 27.5966 60.587 26.8557 60.6044 27.1304L60.653 26.9948C60.667 27.047 60.6948 27.1061 60.6739 27.1722C60.7191 27.1826 60.7191 27.1339 60.7505 27.0435L60.7992 27.2278C60.9766 27.3704 61.1226 27.0087 61.3105 27.0817C61.5401 27.4574 61.954 27.1061 62.1905 26.8974C62.5175 26.4487 62.9454 27.6313 63.2793 27.1165C63.2932 27.1583 63.3175 27.0643 63.3175 27.0296L63.6376 27.0678C63.6376 27.0678 64.0237 27.0922 64.2532 26.8069C64.4828 26.5252 64.5454 25.9338 63.9263 24.7059L63.9332 24.6399C63.7558 24.4833 63.648 24.452 63.5402 24.779C63.5089 24.379 63.3975 24.7408 63.3558 24.6086V24.5772C63.2619 24.8868 63.1367 24.3233 63.0427 24.6016C63.0427 24.5703 63.0427 24.459 63.0671 24.452C62.994 24.5042 62.8967 24.5946 62.8862 24.3616C62.7123 24.4242 62.4688 24.3199 62.3645 24.6921L62.3714 24.6259C62.3123 24.8764 62.2879 24.6642 62.2218 24.7929C62.2183 24.7616 62.2114 24.7477 62.2114 24.7338C62.1453 24.9842 62.0096 24.7755 61.954 24.8833L61.947 24.7268L61.8079 24.7651L61.8601 24.7964C61.8496 25.2242 61.7488 24.532 61.6548 24.8068C61.5609 24.7547 61.4774 25.6938 61.3766 25.4886C61.3313 25.6869 61.4148 25.1651 61.3453 25.3181C61.3383 25.0955 61.3766 25.179 61.3557 25.0016C61.2896 25.1095 61.2409 24.7755 61.1574 24.9286L61.1505 24.7546C61.0426 25.0712 60.9418 24.5285 60.8687 24.8312C60.7574 24.9738 60.7887 24.3198 60.6739 24.6572L60.6252 24.4242C60.5731 24.3859 60.5904 24.7129 60.5348 24.5981C60.5348 24.452 60.4617 24.4799 60.4965 24.3407C60.3678 24.1112 60.2426 24.6712 60.0721 24.2851C60.0374 24.5738 59.9539 24.4033 59.9261 24.619C59.9226 24.4938 59.7591 24.6016 59.853 24.3268C59.86 24.3059 59.8739 24.3094 59.8739 24.3581L59.8843 24.1877C59.7904 23.8676 59.7139 24.3651 59.6165 24.3198C59.6443 24.3755 59.6826 24.3616 59.6582 24.4764L59.5713 24.4555L59.5886 24.3129L59.4599 24.2294L59.4773 24.4068C59.4147 24.3164 59.3904 24.0137 59.3208 24.2677C59.2895 24.4068 59.3799 24.5042 59.3139 24.5634C59.2304 24.4451 59.1017 24.2642 58.9938 24.212C59.0043 24.4103 58.973 24.4033 58.9451 24.4451V24.2711C58.8269 24.5146 58.9034 23.892 58.7886 24.0833L58.799 23.9615L58.7677 24.3233C58.6634 24.6677 58.7156 23.9651 58.5973 24.4347C58.6425 24.4033 58.6147 24.8173 58.559 24.7408L58.5729 24.5738C58.5416 24.6085 58.5312 24.6781 58.5103 24.6468C58.5312 24.5564 58.5208 24.4033 58.4755 24.4312L58.5069 24.2224L58.4164 24.532C58.3503 24.3546 58.246 24.5807 58.2181 24.3442C58.2181 24.3442 58.0755 24.2294 58.0407 24.4903C58.072 24.3303 57.992 24.2677 58.0199 24.0798C57.9816 24.2607 57.8703 24.4103 57.8285 24.219L57.8355 24.1981C57.679 24.0033 57.5538 24.4694 57.4146 24.2259C57.4146 24.4277 57.3416 24.3164 57.3555 24.5738C57.199 24.8242 57.0911 24.0416 57.0215 24.8346C56.952 24.8764 56.945 24.6468 56.9102 24.6051L56.9276 24.5634C56.7989 24.626 56.7607 24.6294 56.6668 24.6086C56.6181 24.6851 56.6007 25.0538 56.5172 24.9599C56.5485 24.8138 56.5137 24.8416 56.4824 24.8381C56.5033 24.8173 56.5102 24.7616 56.472 24.6607C56.465 24.7059 56.4546 24.7338 56.4476 24.7581C56.4476 24.7477 56.4476 24.7373 56.4476 24.7233C56.392 24.772 56.4024 24.8207 56.4267 24.8416C56.4267 24.8625 56.4267 24.8938 56.4337 24.932C56.385 24.7407 56.2806 24.939 56.2806 24.6886C56.1206 24.7408 55.9989 24.9981 55.8598 25.092C55.8493 24.9633 55.8841 24.8486 55.9224 24.7999L55.825 24.8451C55.8319 24.6573 55.8841 24.7407 55.9119 24.7025C55.8076 24.3964 55.6719 24.9947 55.5467 24.7164L55.5154 24.8625L55.5084 24.8381C55.5084 24.9146 55.4737 25.0225 55.4528 25.0468C55.4389 24.8833 55.4667 24.6712 55.4006 24.6816C55.3554 24.5251 55.251 24.7546 55.1815 24.8416C55.2162 24.8694 55.2023 24.9599 55.1815 25.0155C55.1502 25.019 55.1362 24.859 55.1084 24.9251V24.7059C55.1188 24.9112 55.0214 24.9251 55.0041 25.0155C54.9901 24.852 55.0597 24.8764 55.0736 24.7546C54.9414 24.772 55.0075 24.7616 54.8754 24.779C54.7988 24.9425 54.8788 24.9877 54.8406 25.179C54.778 25.2207 54.7119 25.3703 54.6458 25.2382L54.6597 25.433C54.5379 25.5791 54.4684 25.5547 54.3988 25.3564C53.4596 26.9148 54.1205 27.5131 54.1205 27.5131C54.451 27.9548 54.6527 27.3913 55.0701 27.2557H55.0632Z" fill="#20BB65"/>
<path d="M72.7218 24.1807L72.757 24.2582C72.7535 24.2195 72.7429 24.1878 72.7218 24.1807Z" fill="#20BB65"/>
<path d="M79.4318 23.4293C79.4318 23.4293 79.4317 23.4189 79.4352 23.412C79.4317 23.4189 79.4318 23.4258 79.4318 23.4293Z" fill="#20BB65"/>
<path d="M74.0161 26.7999C74.0161 26.7999 74.0161 26.8135 74.0127 26.8203L74.0195 26.7999H74.0161Z" fill="#20BB65"/>
<path d="M72.6242 26.7095C72.9929 26.7756 73.1251 27.1409 73.4834 26.9531C73.6643 26.967 73.8452 26.8626 74.0156 26.8C74.0713 26.5008 74.2452 26.7722 74.3182 26.5182L74.3739 26.6817C74.3982 26.5948 74.433 26.5321 74.4748 26.6191V26.6678C74.5165 26.5356 74.5791 26.6052 74.5965 26.5426V26.5913L74.6591 26.5635V26.633C74.7287 26.4904 74.8191 26.473 74.9061 26.5252L74.8782 26.3234C75.0696 26.5321 75.0904 26.1078 75.2713 26.3582V26.4069C75.4139 25.8573 75.6192 26.7339 75.7652 26.2121C75.7479 26.2782 75.7861 26.313 75.7896 26.3617C75.8766 26.2956 75.9705 26.2539 75.9287 25.8608C75.9948 25.8608 75.9948 25.9791 76.0227 26.1287C76.0053 25.9547 76.054 25.8782 76.1062 25.8608L76.0887 25.9304L76.2314 25.8539L76.1653 25.5303C76.2557 25.6173 76.2279 25.9269 76.2975 25.8399L76.2661 25.5686C76.3809 25.6103 76.4888 26.0139 76.6175 26.2017C77.0731 26.2678 77.4697 25.5269 77.9358 25.9547L77.9776 26.1565C78.0193 26.4521 78.0401 25.7043 78.0888 25.9756L78.1202 25.833C78.141 25.8851 78.1758 25.9373 78.1584 26.0069C78.2036 26.0138 78.2002 25.9652 78.221 25.8713L78.2906 26.0486C78.4819 26.1704 78.5898 25.7982 78.7811 25.8504C79.0454 26.2017 79.4211 25.8051 79.6333 25.5756C79.915 25.0921 80.4507 26.2226 80.729 25.673C80.7464 25.7147 80.7638 25.6138 80.7568 25.5825H81.0768C81.0768 25.5825 82.6108 25.5025 81.1429 23.1998V23.1337C80.9516 22.998 80.8403 22.9772 80.7638 23.3181C80.6942 22.9215 80.6177 23.2937 80.562 23.172V23.1406C80.4959 23.4607 80.3151 22.9146 80.249 23.1998C80.249 23.1685 80.2385 23.0572 80.2594 23.0502C80.1933 23.1093 80.1029 23.2102 80.0681 22.9807C79.9011 23.0641 79.6437 22.9876 79.5776 23.3702V23.3042C79.5428 23.5616 79.5011 23.3528 79.442 23.485C79.435 23.4537 79.4281 23.4398 79.4281 23.4259C79.3898 23.6798 79.2298 23.4885 79.188 23.5998L79.1672 23.4468L79.0315 23.4989L79.0872 23.5267C79.1219 23.9511 78.9515 23.2729 78.8819 23.5616C78.7811 23.5198 78.795 24.4625 78.6732 24.2677C78.6489 24.4729 78.6732 23.9407 78.6245 24.1007C78.5967 23.8816 78.6419 23.9581 78.6002 23.7842C78.5445 23.8955 78.461 23.572 78.395 23.732L78.3706 23.5616C78.2976 23.8885 78.1376 23.3598 78.0993 23.6694C78.0019 23.8259 77.9636 23.1685 77.8836 23.5163L77.8106 23.2902C77.7549 23.2589 77.8106 23.579 77.7375 23.4746C77.7236 23.3285 77.6541 23.3667 77.6715 23.2241C77.5184 23.0085 77.4523 23.579 77.2401 23.2102C77.2366 23.499 77.1323 23.3389 77.1288 23.5581C77.1114 23.4329 76.9584 23.5581 77.021 23.2763C77.0279 23.252 77.0418 23.2555 77.0453 23.3042L77.0384 23.1337C76.9062 22.8241 76.8853 23.3285 76.7844 23.2902C76.8192 23.3424 76.854 23.325 76.8436 23.4433L76.7531 23.4294V23.2833L76.6175 23.2137L76.6557 23.3876C76.5827 23.3042 76.527 23.0085 76.4818 23.2659C76.4644 23.4085 76.5688 23.4955 76.5062 23.5581C76.4088 23.4468 76.2592 23.2798 76.1444 23.2381C76.1757 23.4363 76.1444 23.4329 76.1201 23.4746L76.0992 23.3042C76.0087 23.5546 76.0157 22.9285 75.9218 23.1337V23.0119L75.9287 23.3737C75.8627 23.725 75.8348 23.0224 75.7687 23.5024C75.8105 23.4676 75.8313 23.8781 75.7687 23.812V23.645C75.7374 23.6833 75.734 23.7529 75.7096 23.7216C75.72 23.6311 75.6922 23.4781 75.6505 23.5129L75.6574 23.3007L75.6053 23.6172C75.5183 23.4467 75.4383 23.6798 75.3861 23.4502C75.3861 23.4502 75.2331 23.3494 75.2261 23.6103C75.2365 23.4468 75.153 23.3946 75.1565 23.2068C75.1391 23.3911 75.0452 23.5511 74.9826 23.3633L74.9896 23.3424C74.8087 23.1615 74.7426 23.6381 74.5721 23.4155C74.6 23.6137 74.513 23.5129 74.5548 23.7668C74.4295 24.0346 74.2278 23.2728 74.2521 24.0694C74.1895 24.1181 74.1512 23.892 74.113 23.8537L74.1234 23.812C74.0017 23.8885 73.9669 23.899 73.8695 23.892C73.8312 23.9755 73.8591 24.3407 73.7651 24.2607C73.7791 24.1112 73.7478 24.1424 73.713 24.1459C73.7304 24.1216 73.7338 24.0659 73.6817 23.972C73.6817 24.0172 73.6747 24.0451 73.6678 24.0694C73.6678 24.059 73.6643 24.0485 73.6643 24.0346C73.6156 24.0903 73.6295 24.1355 73.6573 24.1529C73.6573 24.1738 73.6643 24.2051 73.6747 24.2433C73.6017 24.059 73.5217 24.2712 73.4904 24.0207C73.3373 24.0938 73.2469 24.3651 73.1216 24.4729C73.0938 24.3442 73.1147 24.2294 73.1495 24.1738L73.059 24.2294C73.0416 24.045 73.1043 24.1181 73.1286 24.0764C72.9895 23.7877 72.9234 24.3964 72.7668 24.1355L72.7529 24.2851L72.7425 24.2607C72.7494 24.3373 72.7286 24.4451 72.7112 24.4729C72.6764 24.3129 72.6799 24.1007 72.6138 24.1146C72.5477 23.9651 72.4746 24.2051 72.4155 24.299C72.4538 24.3233 72.4503 24.4138 72.4399 24.4729C72.4085 24.4799 72.3738 24.3199 72.3564 24.3929L72.332 24.1738C72.3633 24.379 72.2659 24.4033 72.2625 24.4938C72.2277 24.3338 72.3007 24.3511 72.2972 24.2259C72.1685 24.2572 72.2312 24.2433 72.1025 24.2746C72.0468 24.4451 72.1338 24.4799 72.1164 24.6747C72.0572 24.7234 72.012 24.8799 71.9285 24.7547L71.9668 24.946C71.8624 25.106 71.7929 25.0886 71.6955 24.9008C70.9615 26.553 71.6955 27.0748 71.6955 27.0748C72.0781 27.4748 72.2068 26.8939 72.6034 26.7061L72.6242 26.7095Z" fill="#20BB65"/>
<path d="M89.9241 22.0172L89.9628 22.0946C89.9557 22.0559 89.9452 22.0277 89.9241 22.0172Z" fill="#20BB65"/>
<path d="M96.6268 20.9805C96.6268 20.9805 96.6268 20.9701 96.6303 20.9631C96.6268 20.9701 96.6268 20.977 96.6268 20.9805Z" fill="#20BB65"/>
<path d="M91.3568 24.5599C91.3568 24.5667 91.3568 24.5735 91.3534 24.5803L91.3602 24.5599H91.3568Z" fill="#20BB65"/>
<path d="M89.9724 24.5425C90.3412 24.5877 90.4907 24.946 90.8351 24.7373C91.016 24.7408 91.1899 24.626 91.3534 24.5564C91.3916 24.2538 91.5795 24.5182 91.6386 24.2608L91.7012 24.4208C91.7221 24.3338 91.7534 24.2712 91.7986 24.3546V24.4033C91.8334 24.2712 91.903 24.3373 91.9169 24.2712V24.3199L91.9795 24.2886V24.3581C92.0456 24.212 92.1325 24.1912 92.223 24.2399L92.1882 24.0416C92.39 24.2399 92.39 23.8155 92.5813 24.059V24.1077C92.6995 23.5511 92.943 24.4207 93.0648 23.892C93.0509 23.9581 93.0891 23.9929 93.0961 24.0416C93.1796 23.972 93.27 23.9268 93.2144 23.5337C93.2804 23.5303 93.2874 23.6485 93.3187 23.7981C93.2909 23.6277 93.3396 23.5476 93.3883 23.5268L93.3744 23.5964L93.5135 23.5164L93.437 23.1963C93.5309 23.2763 93.517 23.5894 93.5796 23.499L93.5379 23.2311C93.6561 23.2694 93.7778 23.6659 93.9135 23.8468C94.3692 23.8955 94.7344 23.1407 95.2145 23.5511L95.2631 23.7494C95.3153 24.0416 95.3084 23.2972 95.3675 23.5651L95.3953 23.4224C95.4162 23.4746 95.4545 23.5268 95.4406 23.5964C95.4858 23.5998 95.4788 23.5511 95.4997 23.4572L95.5727 23.6346C95.7675 23.7529 95.8614 23.3737 96.0528 23.419C96.3276 23.7598 96.6858 23.3564 96.8945 23.1198C97.1624 22.6294 97.7259 23.7459 97.9903 23.1894C98.0076 23.2311 98.0216 23.1302 98.0181 23.0989H98.3346C98.3346 23.0989 99.8616 22.9807 98.3485 20.7092V20.6432C98.1537 20.511 98.039 20.4936 97.9694 20.8345C97.8929 20.4414 97.8233 20.8136 97.7641 20.6919V20.6605C97.705 20.9806 97.5102 20.4379 97.4511 20.7266C97.4511 20.6953 97.4372 20.584 97.458 20.5771C97.392 20.6397 97.305 20.7406 97.2667 20.511C97.0998 20.5979 96.8424 20.5284 96.7832 20.911V20.8449C96.7554 21.1023 96.7032 20.8936 96.651 21.0328C96.6441 21.0014 96.6337 20.9875 96.6337 20.9771C96.6023 21.2345 96.4354 21.0467 96.3971 21.158L96.3693 21.0049L96.2371 21.0606L96.2928 21.0849C96.338 21.5093 96.1501 20.838 96.0875 21.1232C95.9867 21.0849 96.0284 22.0276 95.8997 21.8363C95.8823 22.0415 95.8927 21.5093 95.8475 21.6728C95.8127 21.4536 95.858 21.5301 95.8162 21.3562C95.7641 21.471 95.6701 21.1475 95.6075 21.311L95.5797 21.1406C95.5171 21.471 95.3397 20.9458 95.3119 21.2554C95.2214 21.4119 95.1588 20.7579 95.0927 21.1128L95.0127 20.8866C94.9571 20.8553 95.0197 21.1754 94.9466 21.071C94.9292 20.9249 94.8596 20.9667 94.8701 20.8206C94.7101 20.6119 94.6614 21.1823 94.4388 20.8206C94.4457 21.1093 94.3344 20.9528 94.3414 21.1719C94.317 21.0502 94.1709 21.1788 94.2231 20.8936C94.2266 20.8693 94.244 20.8727 94.2474 20.9214L94.2335 20.751C94.0909 20.4484 94.0874 20.9527 93.9866 20.9179C94.0213 20.9701 94.0561 20.9493 94.0492 21.0675L93.9587 21.0571V20.911L93.8126 20.8484L93.8579 21.0223C93.7813 20.9423 93.7118 20.6467 93.6805 20.9075C93.67 21.0502 93.7779 21.1336 93.7187 21.1997C93.6144 21.0919 93.4613 20.9319 93.3431 20.8971C93.3813 21.0919 93.3535 21.0884 93.3291 21.1336L93.3013 20.9632C93.2213 21.2171 93.2039 20.5945 93.117 20.7997L93.11 20.6779L93.1343 21.0397C93.0822 21.3945 93.0265 20.6919 92.9813 21.1719C93.023 21.1371 93.0578 21.5475 92.9917 21.4814L92.9813 21.3145C92.9569 21.3527 92.957 21.4258 92.9291 21.3945C92.9326 21.304 92.9013 21.151 92.863 21.1893V20.9771L92.8213 21.2936C92.7274 21.1267 92.6578 21.3632 92.5952 21.1371C92.5952 21.1371 92.4352 21.0432 92.4421 21.3041C92.4456 21.1406 92.3587 21.0919 92.3552 20.9041C92.3447 21.0884 92.2578 21.2519 92.1847 21.0675V21.0432C92.0004 20.8728 91.9517 21.3527 91.7743 21.1371C91.8091 21.3354 91.7186 21.238 91.7743 21.4884C91.663 21.7632 91.4229 21.0119 91.4856 21.805C91.4229 21.8571 91.3777 21.6345 91.336 21.5963L91.3464 21.551C91.2281 21.6345 91.1934 21.6484 91.096 21.645C91.0612 21.7284 91.1064 22.0937 91.009 22.0206C91.016 21.871 90.9847 21.9024 90.9534 21.9093C90.9708 21.885 90.9673 21.8293 90.9116 21.7389C90.9116 21.7841 90.9081 21.8119 90.9012 21.8363C90.9012 21.8258 90.8977 21.8154 90.8942 21.8015C90.849 21.8606 90.8664 21.9058 90.8942 21.9197C90.8942 21.9406 90.9012 21.9684 90.9151 22.0102C90.8316 21.8328 90.762 22.045 90.7203 21.798C90.5707 21.878 90.4942 22.1528 90.3759 22.2711C90.3412 22.1458 90.3551 22.0276 90.3864 21.9719L90.2994 22.0345C90.2716 21.8502 90.3377 21.9197 90.362 21.878C90.2055 21.5962 90.1742 22.2085 90.0037 21.958L89.9968 22.1076L89.9864 22.0833C89.9968 22.1598 89.9864 22.2711 89.969 22.2989C89.9272 22.1424 89.9133 21.9267 89.8507 21.9476C89.7776 21.8015 89.715 22.0484 89.6629 22.1424C89.7046 22.1632 89.7046 22.2537 89.6976 22.3128C89.6663 22.3232 89.6246 22.1667 89.6072 22.2398L89.5724 22.0241C89.6142 22.2259 89.5202 22.2572 89.5202 22.3476C89.4785 22.1911 89.5516 22.2015 89.5411 22.0798C89.4124 22.118 89.4785 22.1006 89.3498 22.1389C89.3046 22.3128 89.3915 22.3406 89.3881 22.5354C89.3324 22.5876 89.2941 22.7476 89.2037 22.6259L89.2559 22.8137C89.162 22.9807 89.0889 22.9702 88.9846 22.7859C88.3584 24.4833 89.1237 24.953 89.1237 24.953C89.5272 25.3286 89.6176 24.7408 90.0003 24.532L89.9724 24.5425Z" fill="#20BB65"/>
<path d="M107.14 19.5022L107.178 19.5796C107.171 19.5409 107.161 19.5128 107.14 19.5022Z" fill="#20BB65"/>
<path d="M113.894 18.643C113.894 18.643 113.894 18.6326 113.897 18.6257C113.894 18.6326 113.894 18.6395 113.894 18.643Z" fill="#20BB65"/>
<path d="M108.53 22.0797C108.53 22.0797 108.53 22.0933 108.526 22.1001L108.533 22.0797H108.53Z" fill="#20BB65"/>
<path d="M107.153 22.0276C107.522 22.0798 107.664 22.445 108.012 22.2467C108.19 22.2572 108.367 22.1459 108.53 22.0798C108.572 21.7771 108.753 22.0484 108.819 21.791L108.878 21.9511C108.899 21.8641 108.931 21.8015 108.976 21.8884V21.9371C109.014 21.805 109.08 21.8745 109.094 21.8084V21.8571L109.157 21.8293V21.8989C109.223 21.7563 109.313 21.7354 109.397 21.7876L109.365 21.5893C109.56 21.791 109.571 21.3701 109.755 21.6171V21.6658C109.884 21.1127 110.106 21.9893 110.242 21.4641C110.224 21.5302 110.266 21.5649 110.27 21.6136C110.353 21.5441 110.447 21.5023 110.398 21.1093C110.464 21.1093 110.468 21.2275 110.496 21.3771C110.475 21.2032 110.524 21.1267 110.572 21.1093L110.558 21.1788L110.701 21.1023L110.631 20.7788C110.722 20.8623 110.701 21.1719 110.767 21.0849L110.732 20.8136C110.847 20.8519 110.962 21.2553 111.091 21.4397C111.539 21.5023 111.929 20.7545 112.392 21.1788L112.433 21.3806C112.475 21.6763 112.496 20.9284 112.541 21.1997L112.572 21.0571C112.593 21.1093 112.628 21.1614 112.611 21.231C112.656 21.238 112.652 21.1893 112.673 21.0953L112.743 21.2727C112.931 21.3945 113.039 21.0223 113.226 21.071C113.487 21.4189 113.859 21.0223 114.072 20.7927C114.357 20.3092 114.872 21.4432 115.157 20.8936C115.171 20.9354 115.192 20.8345 115.188 20.8032H115.505C115.505 20.8032 117.032 20.7336 115.623 18.417V18.3508C115.435 18.2152 115.324 18.1943 115.24 18.5352C115.178 18.1387 115.094 18.5109 115.042 18.3891V18.3578C114.969 18.6778 114.799 18.1282 114.729 18.417C114.729 18.3857 114.719 18.2743 114.743 18.2674C114.673 18.3265 114.583 18.4274 114.552 18.1978C114.381 18.2813 114.124 18.2048 114.054 18.5874V18.5213C114.019 18.7787 113.974 18.57 113.919 18.7057C113.912 18.6743 113.905 18.6605 113.905 18.6465C113.863 18.9005 113.706 18.7092 113.661 18.824L113.64 18.6709L113.505 18.7231L113.56 18.7509C113.588 19.1752 113.425 18.4969 113.355 18.7857C113.254 18.7439 113.261 19.6901 113.143 19.4953C113.119 19.7005 113.146 19.1683 113.094 19.3283C113.066 19.1092 113.112 19.1857 113.073 19.0118C113.018 19.1265 112.934 18.7996 112.868 18.9596L112.844 18.7891C112.771 19.1161 112.611 18.5874 112.569 18.897C112.472 19.0535 112.433 18.3961 112.353 18.7474L112.28 18.5213C112.225 18.49 112.28 18.81 112.207 18.7057C112.193 18.5596 112.124 18.5978 112.138 18.4552C111.985 18.243 111.915 18.8135 111.703 18.4448C111.703 18.7335 111.595 18.5735 111.595 18.7926C111.574 18.6674 111.425 18.7926 111.487 18.5109C111.494 18.4865 111.508 18.49 111.512 18.5387L111.505 18.3683C111.372 18.0622 111.352 18.5665 111.251 18.5283C111.285 18.5804 111.32 18.5596 111.31 18.6813L111.219 18.6709V18.5248L111.08 18.4587L111.118 18.6326C111.042 18.5491 110.986 18.2535 110.941 18.5109C110.924 18.6535 111.031 18.7404 110.969 18.8031C110.868 18.6952 110.718 18.5283 110.6 18.49C110.635 18.6883 110.604 18.6848 110.579 18.7265L110.555 18.5561C110.468 18.81 110.464 18.1839 110.374 18.3891V18.2674L110.385 18.6291C110.322 18.9839 110.284 18.2778 110.224 18.7578C110.266 18.7231 110.294 19.1335 110.224 19.0674L110.218 18.9005C110.19 18.9387 110.19 19.0118 110.165 18.977C110.172 18.8865 110.144 18.7335 110.103 18.7683V18.5561L110.058 18.8726C109.967 18.7022 109.891 18.9387 109.835 18.7091C109.835 18.7091 109.675 18.6117 109.675 18.8726C109.685 18.7091 109.598 18.6605 109.595 18.4691C109.581 18.6535 109.487 18.8135 109.421 18.6291L109.428 18.6048C109.24 18.4274 109.184 18.9074 109.007 18.6883C109.038 18.8866 108.948 18.7892 109 19.0396C108.882 19.3109 108.659 18.5561 108.704 19.3492C108.642 19.4014 108.6 19.1752 108.558 19.137L108.569 19.0918C108.447 19.1718 108.412 19.1857 108.315 19.1787C108.277 19.2622 108.315 19.6275 108.221 19.5509C108.231 19.4014 108.197 19.4327 108.165 19.4362C108.183 19.4118 108.183 19.3561 108.127 19.2657C108.127 19.3109 108.12 19.3387 108.117 19.3631C108.117 19.3527 108.113 19.3422 108.11 19.3283C108.064 19.3874 108.078 19.4292 108.106 19.4466C108.106 19.4674 108.113 19.4987 108.127 19.537C108.047 19.3561 107.974 19.5683 107.936 19.3213C107.783 19.3979 107.703 19.6727 107.581 19.784C107.55 19.6588 107.563 19.5405 107.598 19.4848L107.511 19.544C107.487 19.3596 107.553 19.4327 107.577 19.3909C107.424 19.1057 107.383 19.7179 107.216 19.4605L107.209 19.6101L107.198 19.5857C107.209 19.6622 107.195 19.7701 107.177 19.7979C107.136 19.6379 107.129 19.4257 107.066 19.4431C106.993 19.2935 106.93 19.5405 106.871 19.6344C106.913 19.6588 106.913 19.7492 106.903 19.8049C106.871 19.8153 106.83 19.6553 106.816 19.7283L106.784 19.5127C106.826 19.7144 106.729 19.7457 106.729 19.8361C106.687 19.6761 106.76 19.69 106.753 19.5683C106.624 19.6031 106.687 19.5857 106.558 19.624C106.51 19.7979 106.6 19.8292 106.593 20.024C106.537 20.0727 106.496 20.2327 106.409 20.111L106.457 20.3023C106.363 20.4658 106.29 20.4518 106.183 20.2675C105.536 21.9441 106.297 22.4346 106.297 22.4346C106.694 22.8207 106.791 22.2363 107.174 22.038L107.153 22.0276Z" fill="#20BB65"/>
<path d="M124.52 17.7248L124.551 17.8057C124.551 17.767 124.541 17.7353 124.52 17.7248Z" fill="#20BB65"/>
<path d="M131.35 17.4917C131.35 17.4917 131.354 17.4813 131.357 17.4744C131.354 17.4813 131.35 17.4882 131.35 17.4917Z" fill="#20BB65"/>
<path d="M125.697 20.3962C125.697 20.3962 125.694 20.4098 125.69 20.4166L125.697 20.3962Z" fill="#20BB65"/>
<path d="M124.335 20.2467C124.696 20.3232 124.808 20.6954 125.166 20.5249C125.343 20.5458 125.524 20.4519 125.695 20.3962C125.761 20.0971 125.921 20.3823 126.004 20.1319L126.049 20.2954C126.077 20.2084 126.116 20.1493 126.154 20.2397V20.2884C126.199 20.1597 126.258 20.2328 126.279 20.1702V20.2189L126.338 20.1945L126.331 20.264C126.411 20.1249 126.502 20.1145 126.582 20.1736L126.568 19.9719C126.745 20.191 126.79 19.7701 126.95 20.031V20.0797C127.121 19.5406 127.267 20.431 127.444 19.9197C127.423 19.9823 127.458 20.0241 127.458 20.0728C127.549 20.0101 127.643 19.9788 127.632 19.5823C127.698 19.5823 127.691 19.704 127.705 19.8571C127.698 19.6832 127.754 19.6101 127.806 19.5962L127.785 19.6658L127.931 19.6032L127.893 19.2762C127.977 19.3666 127.924 19.6762 127.997 19.5927L127.987 19.3214C128.098 19.3701 128.175 19.7806 128.286 19.9788C128.724 20.0832 129.18 19.3805 129.598 19.8501L129.618 20.0553C129.632 20.3545 129.723 19.6136 129.744 19.8884L129.789 19.7527C129.803 19.8049 129.831 19.864 129.81 19.9301C129.855 19.9406 129.855 19.8919 129.883 19.8014L129.931 19.9858C130.105 20.1284 130.248 19.7666 130.432 19.8362C130.655 20.2119 131.062 19.8605 131.298 19.6588C131.632 19.2101 132.018 20.3997 132.359 19.8919C132.37 19.9336 132.398 19.8397 132.398 19.8049L132.711 19.8501C132.711 19.8501 133.086 19.8814 133.326 19.6032C133.563 19.3249 133.671 18.737 133.1 17.4952L133.107 17.4291C132.933 17.2691 132.825 17.2344 132.704 17.5613C132.686 17.1613 132.561 17.5196 132.523 17.3874V17.3561C132.419 17.6622 132.311 17.0987 132.206 17.3735C132.21 17.3422 132.213 17.2308 132.238 17.2239C132.161 17.2761 132.06 17.3631 132.057 17.13C131.879 17.1926 131.629 17.0813 131.514 17.457L131.521 17.3909C131.455 17.6413 131.438 17.4291 131.365 17.5578C131.361 17.5265 131.354 17.5126 131.358 17.4987C131.288 17.7491 131.152 17.537 131.093 17.6448V17.4882L130.947 17.5265L130.999 17.5578C130.985 17.9822 130.891 17.29 130.791 17.5682C130.693 17.5161 130.606 18.4553 130.505 18.2466C130.46 18.4448 130.544 17.9231 130.474 18.0761C130.471 17.8535 130.505 17.937 130.484 17.7596C130.415 17.8639 130.366 17.5335 130.283 17.6831L130.276 17.5091C130.168 17.8257 130.06 17.283 129.991 17.5857C129.876 17.7318 129.904 17.0743 129.789 17.4152L129.737 17.1821C129.684 17.1439 129.705 17.4709 129.646 17.3561C129.646 17.21 129.573 17.2413 129.604 17.0987C129.469 16.8691 129.347 17.4326 129.17 17.0465C129.138 17.3352 129.048 17.1648 129.027 17.3804C129.02 17.2552 128.857 17.363 128.944 17.0917C128.951 17.0708 128.964 17.0743 128.968 17.123L128.975 16.9526C128.871 16.6326 128.801 17.1335 128.704 17.0848C128.735 17.1404 128.77 17.123 128.749 17.2413L128.658 17.2204L128.672 17.0778L128.537 16.9978L128.561 17.1752C128.495 17.0848 128.464 16.7856 128.394 17.0396C128.366 17.1822 128.464 17.2761 128.394 17.3352C128.304 17.217 128.168 17.0396 128.057 16.9874C128.074 17.1856 128.043 17.1787 128.015 17.2204L128.004 17.0465C127.893 17.29 127.949 16.6674 127.837 16.8622L127.844 16.7404L127.823 17.1021C127.73 17.45 127.754 16.7439 127.653 17.217C127.698 17.1857 127.688 17.5996 127.629 17.5231L127.639 17.3561C127.608 17.3909 127.601 17.4639 127.58 17.4291C127.597 17.3387 127.58 17.1857 127.535 17.217L127.559 17.0082L127.483 17.3178C127.41 17.1404 127.309 17.37 127.274 17.1334C127.274 17.1334 127.124 17.0221 127.1 17.283C127.124 17.123 127.041 17.0639 127.058 16.876C127.027 17.0604 126.923 17.21 126.87 17.0187L126.877 16.9978C126.703 16.8065 126.606 17.2795 126.446 17.0465C126.46 17.2482 126.38 17.1404 126.408 17.3978C126.265 17.6587 126.105 16.8865 126.084 17.6831C126.018 17.7283 125.994 17.5022 125.956 17.4604L125.969 17.4187C125.841 17.4883 125.806 17.4987 125.705 17.4848C125.66 17.5648 125.67 17.9335 125.58 17.85C125.601 17.7004 125.566 17.7318 125.535 17.7318C125.556 17.7074 125.559 17.6552 125.51 17.5578C125.507 17.6031 125.5 17.6309 125.489 17.6552C125.489 17.6448 125.489 17.6343 125.489 17.6204C125.437 17.6761 125.451 17.7213 125.476 17.7387C125.476 17.7596 125.476 17.7909 125.489 17.8291C125.423 17.6413 125.333 17.85 125.316 17.5996C125.156 17.6657 125.055 17.93 124.922 18.0379C124.902 17.9092 124.926 17.7943 124.964 17.7422L124.87 17.7944C124.86 17.6065 124.919 17.6831 124.947 17.6448C124.818 17.3491 124.728 17.9579 124.578 17.69L124.557 17.8396L124.547 17.8152C124.55 17.8918 124.526 17.9996 124.509 18.0274C124.481 17.8674 124.488 17.6517 124.425 17.6657C124.362 17.5126 124.279 17.7526 124.216 17.8431C124.255 17.8674 124.248 17.9578 124.234 18.017C124.202 18.0239 124.171 17.8639 124.15 17.9335L124.133 17.7144C124.157 17.9196 124.06 17.9405 124.053 18.0309C124.025 17.8709 124.095 17.8883 124.098 17.7665C123.966 17.7944 124.032 17.7805 123.9 17.8083C123.837 17.9787 123.924 18.0135 123.9 18.2083C123.841 18.2535 123.788 18.4101 123.708 18.2848L123.743 18.4762C123.635 18.6327 123.566 18.6153 123.472 18.424C122.703 20.0588 123.423 20.5945 123.423 20.5945C123.789 21.0015 123.928 20.4276 124.321 20.2536L124.335 20.2467Z" fill="#20BB65"/>
<path d="M142.047 18.0065L142.064 18.091C142.064 18.0523 142.064 18.0206 142.047 18.0065Z" fill="#20BB65"/>
<path d="M148.851 18.9177C148.851 18.9177 148.858 18.9074 148.861 18.9005C148.854 18.9074 148.854 18.9108 148.851 18.9177Z" fill="#20BB65"/>
<path d="M142.795 20.824C142.795 20.824 142.788 20.8342 142.785 20.8444L142.795 20.824Z" fill="#20BB65"/>
<path d="M141.48 20.4693C141.821 20.6015 141.877 20.9876 142.256 20.8693C142.426 20.918 142.618 20.8519 142.792 20.8241C142.903 20.5389 143.014 20.8449 143.136 20.6119L143.153 20.7824C143.195 20.7023 143.24 20.6501 143.265 20.7441L143.258 20.7928C143.32 20.6745 143.369 20.7545 143.4 20.6954L143.393 20.7441L143.456 20.7302L143.439 20.7962C143.54 20.6745 143.63 20.6745 143.7 20.7441L143.717 20.5423C143.856 20.7858 143.967 20.3788 144.082 20.6641L144.075 20.7128C144.333 20.2084 144.326 21.1128 144.587 20.6362C144.555 20.6954 144.587 20.7406 144.576 20.7893C144.674 20.7441 144.774 20.7267 144.827 20.3336C144.893 20.3475 144.865 20.4623 144.851 20.6154C144.875 20.4414 144.941 20.3788 144.994 20.3754L144.962 20.4379L145.115 20.3997L145.133 20.0693C145.199 20.1736 145.098 20.4693 145.185 20.3997L145.22 20.1319C145.321 20.2015 145.327 20.6154 145.401 20.8276C145.811 21.005 146.381 20.3893 146.708 20.9249L146.695 21.1302C146.656 21.4259 146.875 20.7128 146.844 20.9876L146.914 20.8589C146.917 20.9145 146.938 20.9737 146.903 21.0363C146.945 21.0537 146.952 21.0049 146.997 20.9215L147.015 21.1128C147.161 21.2832 147.362 20.9528 147.529 21.0536C147.679 21.4641 148.142 21.1893 148.409 21.0328C148.816 20.6536 148.98 21.892 149.404 21.4537C149.404 21.4989 149.453 21.4085 149.46 21.3772L149.756 21.478C149.756 21.478 150.117 21.5789 150.403 21.3528C150.684 21.1232 150.903 20.5667 150.576 19.2379L150.597 19.1753C150.458 18.984 150.354 18.9283 150.173 19.2275C150.232 18.8309 150.041 19.1579 150.023 19.0257L150.034 18.9944C149.87 19.2762 149.867 18.7022 149.714 18.9527C149.724 18.9214 149.745 18.8135 149.769 18.8135C149.686 18.8483 149.568 18.9179 149.606 18.6883C149.418 18.7162 149.192 18.5631 149.011 18.9075L149.032 18.8448C148.924 19.0814 148.942 18.8657 148.848 18.9805C148.848 18.9492 148.848 18.9318 148.848 18.9214C148.733 19.1544 148.635 18.9214 148.562 19.0188L148.587 18.8657L148.441 18.8761L148.486 18.9179C148.395 19.3353 148.427 18.6361 148.277 18.8901C148.19 18.8205 147.936 19.7319 147.874 19.5092C147.794 19.6971 147.968 19.1962 147.874 19.3353C147.908 19.1162 147.929 19.2031 147.94 19.0257C147.853 19.1196 147.863 18.7822 147.755 18.9179L147.78 18.7474C147.616 19.0396 147.606 18.4901 147.484 18.7753C147.348 18.897 147.491 18.257 147.317 18.57L147.307 18.33C147.262 18.2848 147.223 18.6083 147.185 18.4865C147.213 18.3405 147.133 18.3578 147.185 18.2257C147.091 17.9787 146.872 18.5074 146.764 18.097C146.684 18.3752 146.625 18.1944 146.566 18.4031C146.58 18.2778 146.399 18.3579 146.535 18.1039C146.545 18.0831 146.559 18.09 146.552 18.1387L146.59 17.9717C146.541 17.6378 146.388 18.1213 146.298 18.0587C146.319 18.1178 146.357 18.1109 146.315 18.2222L146.228 18.1874L146.267 18.0483L146.145 17.9474L146.138 18.1248C146.086 18.0239 146.107 17.7248 145.999 17.9613C145.947 18.097 146.027 18.2048 145.95 18.25C145.881 18.1179 145.776 17.9196 145.672 17.85C145.654 18.0483 145.627 18.0378 145.588 18.0726L145.609 17.9022C145.46 18.1248 145.62 17.5196 145.474 17.6935L145.501 17.5752L145.421 17.93C145.268 18.257 145.414 17.5648 145.234 18.0135C145.282 17.9891 145.206 18.3961 145.157 18.3126L145.195 18.1491C145.161 18.1805 145.14 18.2466 145.122 18.2118C145.154 18.1248 145.164 17.9718 145.115 17.9926L145.174 17.7909L145.046 18.0831C145.001 17.8952 144.865 18.1039 144.868 17.8674C144.868 17.8674 144.736 17.7352 144.67 17.9857C144.719 17.8291 144.646 17.7596 144.694 17.5752C144.632 17.7491 144.503 17.8848 144.482 17.6865L144.493 17.6656C144.35 17.45 144.176 17.8987 144.058 17.6448C144.04 17.8465 143.974 17.7283 143.964 17.9857C143.783 18.2187 143.745 17.4326 143.599 18.2153C143.526 18.25 143.54 18.0204 143.508 17.9752L143.529 17.937C143.39 17.9857 143.352 17.9891 143.258 17.9613C143.202 18.0343 143.153 18.3996 143.077 18.2987C143.122 18.1561 143.084 18.1804 143.049 18.177C143.073 18.1561 143.084 18.104 143.053 17.9996C143.042 18.0448 143.028 18.0691 143.018 18.0935C143.018 18.083 143.018 18.0726 143.018 18.0587C142.959 18.1039 142.962 18.1492 142.987 18.1735C142.983 18.1944 142.983 18.2257 142.987 18.2674C142.952 18.0726 142.83 18.2639 142.851 18.0135C142.68 18.0552 142.538 18.2987 142.395 18.3822C142.395 18.25 142.437 18.1422 142.482 18.0935L142.381 18.1318C142.402 17.9474 142.447 18.0309 142.482 17.9961C142.399 17.6831 142.218 18.2709 142.11 17.9822L142.068 18.1248L142.061 18.1004C142.054 18.177 142.013 18.2814 141.992 18.3022C141.992 18.1387 142.03 17.93 141.964 17.9335C141.926 17.7735 141.807 17.9961 141.731 18.0761C141.766 18.1074 141.745 18.1944 141.724 18.25C141.689 18.25 141.686 18.09 141.654 18.1561L141.672 17.937C141.665 18.1422 141.564 18.1492 141.543 18.2396C141.539 18.0761 141.609 18.1039 141.626 17.9857C141.491 17.9926 141.56 17.9892 141.425 17.9961C141.338 18.1526 141.418 18.2048 141.366 18.3927C141.299 18.4309 141.226 18.577 141.164 18.4378V18.6327C141.039 18.7718 140.972 18.744 140.91 18.5422C140.405 19.2936 140.319 19.8292 140.353 20.1771C140.388 20.5249 140.541 20.6849 140.541 20.6849C140.84 21.1406 141.059 20.5945 141.473 20.4797L141.48 20.4693Z" fill="#20BB65"/>
<path d="M159.254 21.5859V21.6739C159.264 21.6387 159.268 21.6035 159.254 21.5859Z" fill="#20BB65"/>
<path d="M165.701 24.0038C165.701 24.0038 165.708 23.9966 165.715 23.9895C165.708 23.9931 165.705 23.9966 165.701 24.0038Z" fill="#20BB65"/>
<path d="M159.369 24.5007C159.369 24.5007 159.362 24.5111 159.355 24.518L159.369 24.5007Z" fill="#20BB65"/>
<path d="M158.169 23.8677C158.472 24.0729 158.44 24.459 158.833 24.4312C158.987 24.5147 159.192 24.4903 159.366 24.5008C159.536 24.2468 159.578 24.5668 159.748 24.3651L159.727 24.5355C159.787 24.466 159.842 24.4243 159.842 24.5217L159.825 24.5669C159.912 24.4625 159.94 24.5529 159.985 24.5008L159.967 24.546H160.03L159.999 24.6051C160.124 24.5043 160.211 24.5251 160.263 24.6051L160.326 24.4138C160.406 24.6782 160.607 24.306 160.66 24.6051L160.642 24.6504C161.004 24.2155 160.799 25.0921 161.157 24.6886C161.112 24.7408 161.129 24.7895 161.112 24.8347C161.216 24.8138 161.317 24.8173 161.456 24.4486C161.515 24.4764 161.463 24.5843 161.418 24.7303C161.481 24.5669 161.557 24.5216 161.609 24.5286L161.564 24.5842H161.724L161.815 24.2642C161.853 24.379 161.689 24.6469 161.79 24.5982L161.888 24.3442C161.971 24.4347 161.881 24.8416 161.905 25.0643C162.263 25.3286 162.955 24.859 163.15 25.4573L163.088 25.6521C162.98 25.9304 163.359 25.2869 163.268 25.5478L163.362 25.4399C163.355 25.4956 163.359 25.5582 163.31 25.6104C163.345 25.6382 163.366 25.593 163.428 25.5234L163.401 25.7113C163.502 25.9095 163.776 25.6347 163.912 25.7739C163.961 26.2052 164.469 26.0487 164.768 25.9582C165.255 25.6869 165.112 26.9253 165.627 26.6052C165.62 26.647 165.686 26.5739 165.7 26.5426L165.961 26.713C165.961 26.713 166.284 26.8974 166.618 26.7478C166.949 26.5948 167.3 26.1113 167.31 24.7442L167.345 24.6886C167.255 24.4695 167.168 24.3895 166.921 24.6329C167.074 24.2607 166.81 24.5355 166.827 24.3999L166.844 24.3721C166.618 24.6051 166.754 24.0451 166.542 24.2538C166.559 24.226 166.608 24.1286 166.632 24.1321C166.542 24.146 166.413 24.1842 166.503 23.9685C166.316 23.9477 166.128 23.746 165.87 24.0381L165.905 23.9825C165.742 24.1842 165.811 23.9825 165.693 24.0694C165.703 24.0416 165.703 24.0242 165.71 24.0138C165.543 24.212 165.505 23.9651 165.408 24.0381L165.467 23.8955L165.321 23.8712L165.356 23.9233C165.168 24.306 165.363 23.6346 165.157 23.8468C165.091 23.7598 164.629 24.5807 164.618 24.3512C164.496 24.5147 164.785 24.0694 164.66 24.1842C164.747 23.979 164.747 24.0694 164.799 23.899C164.695 23.9686 164.782 23.645 164.646 23.7494L164.712 23.5894C164.486 23.8364 164.604 23.2972 164.416 23.5442C164.253 23.6311 164.542 23.0398 164.302 23.3042L164.347 23.0711C164.312 23.0155 164.201 23.3216 164.194 23.1963C164.253 23.0607 164.173 23.0607 164.256 22.9424C164.222 22.6781 163.888 23.1442 163.874 22.7198C163.731 22.9702 163.714 22.7824 163.609 22.9702C163.651 22.852 163.456 22.8868 163.648 22.6711C163.665 22.6537 163.675 22.6641 163.658 22.7094L163.731 22.5563C163.759 22.2224 163.498 22.6537 163.428 22.5702C163.435 22.6328 163.477 22.6328 163.408 22.7337L163.331 22.6781L163.401 22.5528L163.307 22.4241L163.258 22.5946C163.23 22.4867 163.317 22.1945 163.157 22.4032C163.074 22.5215 163.129 22.6467 163.042 22.6746C163.004 22.532 162.948 22.3128 162.862 22.2224C162.799 22.4137 162.775 22.3963 162.729 22.4207L162.788 22.2572C162.59 22.4381 162.882 21.885 162.705 22.0206L162.757 21.9128L162.597 22.2398C162.375 22.5215 162.67 21.8815 162.392 22.278C162.448 22.2676 162.277 22.6433 162.249 22.5528L162.322 22.3998C162.281 22.4206 162.246 22.4832 162.239 22.445C162.288 22.3685 162.333 22.2224 162.281 22.2328L162.385 22.0484L162.194 22.3059C162.194 22.1146 162.013 22.285 162.068 22.0554C162.068 22.0554 161.971 21.8954 161.849 22.125C161.933 21.9859 161.877 21.8989 161.964 21.7319C161.867 21.8885 161.707 21.9893 161.731 21.791L161.745 21.7737C161.654 21.5337 161.383 21.9371 161.321 21.6623C161.258 21.8537 161.22 21.725 161.154 21.9754C160.924 22.1667 161.06 21.3945 160.743 22.125C160.663 22.1424 160.726 21.9232 160.705 21.8745L160.736 21.8397C160.59 21.8606 160.552 21.8537 160.465 21.805C160.392 21.8641 160.267 22.2085 160.211 22.0971C160.284 21.9684 160.242 21.9824 160.211 21.9719C160.239 21.958 160.263 21.9093 160.253 21.8015C160.232 21.8432 160.214 21.8676 160.197 21.885C160.197 21.8745 160.201 21.8641 160.207 21.8502C160.138 21.8815 160.134 21.9267 160.152 21.9546C160.145 21.9754 160.134 22.0033 160.131 22.045C160.138 21.8467 159.978 22.0067 160.051 21.7667C159.877 21.7667 159.682 21.9789 159.522 22.0311C159.55 21.9024 159.616 21.805 159.668 21.7702L159.56 21.7841C159.62 21.6067 159.647 21.7006 159.686 21.6728C159.672 21.3493 159.366 21.8815 159.324 21.5789L159.251 21.711V21.6867C159.227 21.7598 159.164 21.8537 159.14 21.8711C159.171 21.7111 159.258 21.5163 159.192 21.5023C159.192 21.3354 159.025 21.5302 158.931 21.5893C158.959 21.6276 158.917 21.7076 158.886 21.7597C158.851 21.7528 158.886 21.5928 158.837 21.6519L158.9 21.4432C158.847 21.6449 158.75 21.6276 158.708 21.7076C158.74 21.5475 158.799 21.5893 158.844 21.478C158.712 21.4537 158.778 21.4675 158.646 21.4432C158.527 21.5789 158.593 21.645 158.503 21.8154C158.43 21.8363 158.326 21.9615 158.298 21.8154L158.259 22.0067C158.103 22.1145 158.044 22.0693 158.026 21.8571C157.376 22.4763 157.178 22.9807 157.136 23.3285C157.094 23.6764 157.209 23.8677 157.209 23.8677C157.397 24.386 157.731 23.899 158.155 23.8816L158.169 23.8677Z" fill="#20BB65"/>
<path d="M175.083 29.3428L175.058 29.4272C175.079 29.3956 175.094 29.3674 175.083 29.3428Z" fill="#20BB65"/>
<path d="M180.427 33.7813C180.427 33.7813 180.437 33.7778 180.444 33.7744C180.437 33.7744 180.43 33.7778 180.427 33.7813Z" fill="#20BB65"/>
<path d="M174.315 32.1534C174.315 32.1534 174.305 32.1603 174.298 32.1638L174.315 32.1534Z" fill="#20BB65"/>
<path d="M173.376 31.2038C173.605 31.482 173.456 31.8438 173.838 31.9273C173.957 32.0525 174.155 32.0908 174.315 32.1534C174.555 31.9655 174.492 32.2821 174.715 32.1429L174.642 32.2995C174.718 32.2508 174.785 32.2299 174.753 32.3203L174.722 32.3586C174.837 32.289 174.833 32.3795 174.892 32.3447L174.861 32.383L174.92 32.4003L174.871 32.449C175.021 32.3934 175.094 32.4421 175.118 32.536L175.237 32.3725C175.226 32.6508 175.532 32.3586 175.484 32.6612L175.452 32.6995C175.932 32.3968 175.452 33.1691 175.922 32.8943C175.863 32.9291 175.863 32.9812 175.832 33.0195C175.936 33.0299 176.03 33.0682 176.284 32.7621C176.332 32.8073 176.245 32.8908 176.155 33.016C176.266 32.8804 176.353 32.863 176.402 32.8873L176.343 32.9256L176.492 32.9743L176.68 32.7029C176.68 32.8247 176.44 33.023 176.548 33.0091L176.722 32.8004C176.771 32.9117 176.555 33.2665 176.503 33.4856C176.75 33.8474 177.557 33.6317 177.533 34.2578L177.407 34.4213C177.212 34.6474 177.786 34.1674 177.609 34.3831L177.734 34.3135C177.706 34.3622 177.689 34.4213 177.626 34.4561C177.651 34.4944 177.682 34.4561 177.769 34.4144L177.679 34.5813C177.703 34.8005 178.054 34.6335 178.134 34.8109C178.026 35.2318 178.555 35.2561 178.861 35.277C179.414 35.1935 178.827 36.2962 179.421 36.1779C179.397 36.2162 179.487 36.171 179.512 36.1466L179.689 36.3971C179.689 36.3971 179.915 36.6858 180.277 36.6684C180.635 36.6475 181.154 36.3414 181.668 35.0683L181.721 35.03C181.721 34.79 181.665 34.6822 181.341 34.8179C181.62 34.5292 181.272 34.6822 181.338 34.5639L181.366 34.5431C181.067 34.6752 181.397 34.2022 181.126 34.3169C181.15 34.2996 181.234 34.223 181.254 34.237C181.164 34.2161 181.028 34.2057 181.192 34.0387C181.021 33.9517 180.917 33.6909 180.573 33.8717L180.625 33.8334C180.399 33.9656 180.538 33.7987 180.395 33.8369C180.413 33.8126 180.42 33.7987 180.43 33.7882C180.204 33.9134 180.253 33.6665 180.138 33.7013L180.242 33.5865L180.114 33.51L180.127 33.5726C179.818 33.8647 180.235 33.3047 179.967 33.43C179.933 33.3221 179.213 33.9343 179.286 33.7152C179.115 33.8265 179.54 33.5099 179.383 33.5726C179.533 33.4091 179.505 33.496 179.613 33.3534C179.491 33.3812 179.686 33.1099 179.519 33.1586L179.633 33.0299C179.334 33.183 179.633 32.7169 179.369 32.8873C179.185 32.9117 179.658 32.456 179.341 32.6229L179.463 32.4177C179.449 32.3551 179.24 32.6056 179.275 32.4804C179.376 32.3725 179.3 32.3447 179.418 32.2612C179.473 32.0003 178.997 32.3238 179.129 31.9168C178.91 32.1046 178.959 31.9168 178.795 32.0629C178.875 31.9655 178.677 31.9307 178.931 31.7916C178.952 31.7812 178.959 31.7916 178.927 31.8299L179.049 31.7116C179.185 31.402 178.795 31.7255 178.753 31.6246C178.74 31.6872 178.778 31.7012 178.68 31.7707L178.625 31.6942L178.733 31.5968L178.684 31.4438L178.583 31.5899C178.593 31.4785 178.771 31.2316 178.548 31.3742C178.43 31.4577 178.44 31.5968 178.35 31.5933C178.36 31.4438 178.378 31.2177 178.322 31.1029C178.2 31.2629 178.183 31.2385 178.134 31.249L178.242 31.1133C177.995 31.2211 178.451 30.7933 178.239 30.8629L178.326 30.7759L178.068 31.0333C177.766 31.2281 178.253 30.7203 177.863 31.002C177.919 31.009 177.637 31.3116 177.64 31.2142L177.759 31.0959C177.71 31.1029 177.658 31.1516 177.665 31.1098C177.738 31.0507 177.828 30.9289 177.773 30.922L177.929 30.7794L177.665 30.9602C177.724 30.7759 177.498 30.8837 177.623 30.682C177.623 30.682 177.578 30.4976 177.39 30.6785C177.515 30.5707 177.487 30.4733 177.623 30.3411C177.48 30.4594 177.299 30.5011 177.383 30.3237L177.404 30.3133C177.393 30.0524 177.007 30.3481 177.035 30.0628C176.917 30.2263 176.92 30.0907 176.778 30.3063C176.499 30.4107 176.868 29.7184 176.343 30.3133C176.259 30.3028 176.388 30.115 176.385 30.0593L176.423 30.035C176.277 30.0072 176.242 29.9898 176.176 29.9133C176.089 29.9446 175.863 30.2367 175.845 30.1115C175.957 30.0106 175.912 30.0107 175.884 29.9933C175.915 29.9863 175.953 29.948 175.974 29.8437C175.943 29.875 175.919 29.8924 175.898 29.9063C175.905 29.8959 175.908 29.8889 175.918 29.875C175.842 29.8854 175.825 29.9272 175.832 29.9585C175.818 29.9759 175.8 30.0002 175.783 30.0385C175.849 29.8541 175.647 29.955 175.793 29.7463C175.626 29.6941 175.379 29.8332 175.209 29.8332C175.272 29.7184 175.365 29.6454 175.428 29.628L175.32 29.6106C175.432 29.4611 175.428 29.555 175.473 29.5445C175.557 29.2315 175.105 29.6489 175.153 29.3463L175.045 29.4506L175.052 29.4263C175.007 29.4889 174.92 29.5584 174.889 29.5689C174.969 29.4262 175.108 29.2628 175.045 29.2349C175.094 29.0749 174.875 29.2106 174.771 29.2419C174.785 29.2871 174.725 29.3532 174.677 29.3915C174.645 29.3776 174.722 29.2315 174.663 29.2767L174.785 29.0958C174.677 29.2732 174.586 29.228 174.524 29.2941C174.6 29.1515 174.645 29.2106 174.722 29.1132C174.6 29.0541 174.659 29.0819 174.538 29.0228C174.385 29.1167 174.43 29.2002 174.294 29.3393C174.218 29.3393 174.082 29.4297 174.096 29.2802L174.005 29.4541C173.824 29.5132 173.779 29.4541 173.821 29.2489C173.014 29.6593 172.684 30.0906 172.544 30.4107C172.405 30.7307 172.461 30.9429 172.461 30.9429C172.492 31.482 172.951 31.1098 173.362 31.2107L173.376 31.2038Z" fill="#20BB65"/>
<path d="M186.783 42.6443L186.72 42.7041C186.755 42.6866 186.78 42.6655 186.783 42.6443Z" fill="#20BB65"/>
<path d="M184.387 43.4513C184.449 43.7992 184.143 44.0427 184.432 44.2931C184.47 44.4566 184.623 44.5853 184.731 44.714C185.034 44.6688 184.818 44.9088 185.082 44.8984L184.943 44.9958C185.034 44.9923 185.1 45.0062 185.03 45.0688L184.985 45.0862C185.121 45.0827 185.072 45.1592 185.138 45.1558L185.093 45.1732L185.134 45.2184L185.065 45.2358C185.221 45.2601 185.26 45.3366 185.232 45.4306L185.416 45.3506C185.267 45.5836 185.677 45.4862 185.482 45.7193L185.437 45.7367C186.004 45.7193 185.201 46.1367 185.74 46.1367C185.674 46.1367 185.646 46.1819 185.601 46.1958C185.684 46.2584 185.747 46.335 186.119 46.2028C186.136 46.2654 186.021 46.2932 185.879 46.3523C186.042 46.2932 186.129 46.321 186.157 46.3662H186.088L186.192 46.4845L186.491 46.3489C186.428 46.4532 186.119 46.4984 186.22 46.5437L186.477 46.4532C186.46 46.5715 186.091 46.7628 185.934 46.9228C185.955 47.3541 186.752 47.5907 186.404 48.1055L186.213 48.1785C185.928 48.2655 186.668 48.1611 186.404 48.2516L186.547 48.2585C186.498 48.2864 186.449 48.3281 186.38 48.3211C186.38 48.3664 186.428 48.3524 186.522 48.3594L186.355 48.4533C186.258 48.6516 186.644 48.6933 186.616 48.8846C186.3 49.1803 186.735 49.4794 186.978 49.6638C187.489 49.8899 186.397 50.4986 186.961 50.7178C186.922 50.7352 187.02 50.7456 187.055 50.7387L187.068 51.0448C187.068 51.0448 187.103 51.41 187.416 51.5909C187.729 51.7683 188.331 51.7926 189.455 51.0065H189.521C189.649 50.8013 189.663 50.683 189.319 50.6204C189.709 50.5299 189.333 50.4673 189.455 50.4047H189.486C189.162 50.3525 189.698 50.1334 189.406 50.0812C189.437 50.0812 189.545 50.0604 189.559 50.0812C189.493 50.0152 189.385 49.9316 189.615 49.8795C189.517 49.7125 189.573 49.4342 189.183 49.3994L189.249 49.3925C188.989 49.3821 189.194 49.316 189.051 49.2707C189.079 49.2603 189.093 49.2499 189.107 49.2499C188.849 49.2325 189.023 49.0516 188.905 49.0203L189.055 48.982L188.989 48.8499L188.968 48.909C188.55 48.989 189.204 48.742 188.909 48.7038C188.936 48.5959 188.001 48.7246 188.178 48.5785C187.973 48.5785 188.502 48.5403 188.338 48.509C188.554 48.4533 188.481 48.509 188.648 48.4464C188.529 48.4046 188.839 48.2759 188.672 48.2307L188.839 48.182C188.505 48.1507 189.002 47.9141 188.689 47.9176C188.522 47.8411 189.162 47.7055 188.804 47.6741L189.016 47.5663C189.037 47.5037 188.731 47.6081 188.825 47.5211C188.968 47.4863 188.919 47.4167 189.062 47.4133C189.246 47.2185 188.672 47.2428 188.995 46.9645C188.71 47.0097 188.849 46.8776 188.634 46.9124C188.752 46.8706 188.602 46.7384 188.891 46.7523C188.916 46.7523 188.915 46.7698 188.867 46.7837L189.034 46.7454C189.312 46.5541 188.808 46.6202 188.829 46.5124C188.783 46.5576 188.811 46.5889 188.689 46.5993L188.682 46.5054L188.825 46.4811L188.863 46.3245L188.7 46.3975C188.766 46.3071 189.044 46.1889 188.783 46.1958C188.641 46.2062 188.575 46.3315 188.502 46.2793C188.589 46.1575 188.717 45.9697 188.731 45.8445C188.547 45.9175 188.543 45.8862 188.495 45.8689L188.658 45.8097C188.39 45.7714 189.002 45.6427 188.783 45.5906L188.902 45.5627L188.55 45.6497C188.192 45.6601 188.87 45.4758 188.387 45.514C188.429 45.5488 188.035 45.6636 188.088 45.5836L188.251 45.5419C188.206 45.5245 188.136 45.5349 188.161 45.5036C188.251 45.4932 188.394 45.4305 188.349 45.3957L188.557 45.354L188.237 45.3714C188.383 45.2427 188.133 45.2184 188.342 45.1071C188.342 45.1071 188.397 44.9227 188.143 44.9818C188.303 44.954 188.331 44.8531 188.516 44.8114C188.331 44.8392 188.154 44.7836 188.317 44.6688H188.342C188.463 44.4357 187.983 44.4949 188.15 44.2618C187.966 44.3418 188.039 44.227 187.806 44.3418C187.514 44.2896 188.178 43.8757 187.423 44.1261C187.357 44.0775 187.562 43.9766 187.587 43.9279H187.632C187.521 43.827 187.496 43.7957 187.475 43.6948C187.385 43.6774 187.044 43.82 187.089 43.7017C187.235 43.6704 187.197 43.6461 187.183 43.6183C187.215 43.6287 187.267 43.6113 187.336 43.5348C187.291 43.5487 187.263 43.5487 187.239 43.5522C187.249 43.5487 187.256 43.5417 187.27 43.5348C187.201 43.5035 187.162 43.5348 187.155 43.5626C187.135 43.5696 187.11 43.5835 187.075 43.6079C187.225 43.4792 186.999 43.4652 187.225 43.3574C187.103 43.2287 186.821 43.2252 186.672 43.1417C186.783 43.0722 186.901 43.0548 186.964 43.0687L186.881 42.9991C187.051 42.9226 187.002 43.0061 187.048 43.0165C187.27 42.7834 186.672 42.9261 186.863 42.6826L186.717 42.7208L186.735 42.7034C186.665 42.7382 186.557 42.7556 186.526 42.7487C186.665 42.6617 186.863 42.5886 186.825 42.5295C186.943 42.4112 186.686 42.4252 186.578 42.4008C186.571 42.446 186.484 42.4739 186.425 42.4878C186.404 42.4599 186.543 42.3695 186.467 42.38L186.661 42.2791C186.481 42.3834 186.421 42.3 186.338 42.3278C186.474 42.2373 186.488 42.3138 186.599 42.2651C186.519 42.1504 186.561 42.2095 186.481 42.0947C186.3 42.1051 186.303 42.1991 186.115 42.2547C186.049 42.2165 185.886 42.2304 185.969 42.1052L185.806 42.213C185.618 42.1782 185.604 42.1052 185.74 41.9452C184.835 41.9278 184.341 42.1539 184.07 42.373C183.795 42.5921 183.743 42.8008 183.743 42.8008C183.513 43.2843 184.091 43.1661 184.4 43.4478L184.387 43.4513Z" fill="#20BB65"/>
<path d="M189.657 60.1373L189.572 60.1549C189.611 60.1585 189.643 60.1549 189.657 60.1373Z" fill="#20BB65"/>
<path d="M188.278 66.9725C188.278 66.9725 188.289 66.9796 188.293 66.9832C188.289 66.9761 188.282 66.9725 188.278 66.9725Z" fill="#20BB65"/>
<path d="M186.828 60.8327C186.828 60.8327 186.818 60.826 186.808 60.8226L186.828 60.8327Z" fill="#20BB65"/>
<path d="M187.197 59.5634C187.068 59.8973 186.678 59.9425 186.793 60.3112C186.741 60.4747 186.804 60.6625 186.828 60.833C187.11 60.9513 186.8 61.0487 187.033 61.1739L186.863 61.1843C186.943 61.2295 186.992 61.2748 186.898 61.2922L186.849 61.2817C186.967 61.3478 186.884 61.3896 186.943 61.4244L186.894 61.4139L186.908 61.4731L186.842 61.4522C186.964 61.5565 186.957 61.6435 186.884 61.7061L187.085 61.7339C186.835 61.8557 187.239 61.9844 186.95 62.0853L186.901 62.0748C187.395 62.3531 186.491 62.2974 186.953 62.5792C186.894 62.5444 186.849 62.5688 186.8 62.5583C186.842 62.6557 186.852 62.7531 187.242 62.8331C187.225 62.8957 187.11 62.8609 186.957 62.8401C187.127 62.8748 187.186 62.941 187.186 62.9931L187.124 62.9584L187.152 63.1114L187.479 63.1496C187.371 63.2053 187.082 63.0905 187.145 63.1775L187.412 63.2331C187.339 63.327 186.922 63.3062 186.706 63.3618C186.505 63.7479 187.072 64.3567 186.512 64.628L186.31 64.5932C186.018 64.5271 186.71 64.8089 186.438 64.7532L186.557 64.8332C186.501 64.8332 186.438 64.8437 186.379 64.8054C186.358 64.8437 186.404 64.8576 186.484 64.9098H186.292C186.108 65.0315 186.421 65.2611 186.299 65.4141C185.878 65.515 186.101 65.9915 186.226 66.2733C186.557 66.722 185.308 66.715 185.687 67.1846C185.645 67.1812 185.725 67.2368 185.757 67.2508L185.618 67.5221C185.618 67.5221 185.468 67.856 185.649 68.1691C185.833 68.4786 186.345 68.7917 187.712 68.663L187.771 68.6943C187.983 68.583 188.052 68.4856 187.785 68.2595C188.171 68.3743 187.872 68.1342 188.007 68.1377L188.039 68.1517C187.781 67.9499 188.355 68.0229 188.129 67.8351C188.157 67.849 188.261 67.8873 188.261 67.9117C188.237 67.8212 188.185 67.696 188.407 67.7621C188.407 67.5673 188.588 67.3586 188.268 67.1325L188.327 67.1603C188.108 67.0212 188.317 67.0664 188.216 66.9586C188.247 66.9621 188.261 66.962 188.275 66.969C188.059 66.8264 188.299 66.7568 188.216 66.6698L188.366 66.7116L188.372 66.562L188.324 66.6038C187.92 66.4646 188.613 66.5759 188.376 66.3985C188.456 66.3185 187.579 65.9637 187.806 65.9254C187.628 65.8246 188.105 66.0542 187.976 65.9429C188.192 66.002 188.101 66.0124 188.275 66.0437C188.192 65.9463 188.526 65.995 188.404 65.8698L188.571 65.9116C188.296 65.7168 188.846 65.762 188.574 65.6089C188.466 65.4594 189.093 65.6646 188.797 65.4593L189.037 65.4733C189.086 65.4315 188.769 65.3654 188.894 65.3376C189.037 65.3793 189.026 65.2958 189.155 65.3619C189.413 65.2889 188.901 65.0211 189.322 64.9445C189.054 64.8402 189.239 64.795 189.037 64.715C189.159 64.7393 189.099 64.548 189.34 64.708C189.36 64.7219 189.35 64.7358 189.305 64.7219L189.468 64.7741C189.806 64.7497 189.336 64.555 189.409 64.4715C189.346 64.4889 189.353 64.5306 189.246 64.4784L189.287 64.395L189.423 64.4471L189.534 64.3323L189.357 64.3114C189.461 64.2662 189.76 64.3114 189.531 64.1793C189.402 64.1166 189.284 64.1897 189.246 64.1097C189.385 64.0506 189.59 63.9567 189.663 63.8523C189.465 63.821 189.479 63.7932 189.444 63.7549L189.614 63.7862C189.402 63.6193 189.997 63.821 189.833 63.661L189.948 63.6958L189.6 63.5914C189.287 63.4175 189.966 63.6054 189.531 63.3932C189.552 63.4453 189.152 63.341 189.239 63.2992L189.399 63.3445C189.371 63.3062 189.305 63.2818 189.343 63.2679C189.426 63.3027 189.579 63.3236 189.562 63.2714L189.76 63.3445L189.475 63.1984C189.663 63.1636 189.465 63.014 189.701 63.0279C189.701 63.0279 189.844 62.8992 189.593 62.8192C189.746 62.8783 189.819 62.8053 190 62.8644C189.83 62.7949 189.705 62.6557 189.903 62.6418L189.924 62.6557C190.146 62.5201 189.705 62.3218 189.969 62.2105C189.771 62.1861 189.893 62.1235 189.635 62.1026C189.413 61.9078 190.195 61.8974 189.42 61.7235C189.388 61.647 189.618 61.6678 189.663 61.6365L189.701 61.6609C189.656 61.5182 189.656 61.48 189.687 61.3826C189.618 61.3235 189.256 61.2643 189.353 61.1878C189.496 61.2365 189.472 61.1983 189.479 61.1635C189.499 61.1878 189.552 61.2017 189.656 61.1704C189.611 61.1565 189.586 61.1461 189.562 61.1322C189.573 61.1322 189.583 61.1321 189.597 61.1356C189.552 61.073 189.506 61.0765 189.482 61.1008C189.461 61.0974 189.43 61.0939 189.392 61.1008C189.586 61.0695 189.399 60.9408 189.649 60.9652C189.611 60.7913 189.371 60.6417 189.287 60.4956C189.42 60.4956 189.527 60.5408 189.573 60.586L189.538 60.4817C189.722 60.5026 189.639 60.5513 189.673 60.586C189.986 60.5026 189.402 60.3113 189.691 60.2069L189.548 60.1617L189.573 60.1547C189.496 60.1478 189.392 60.106 189.371 60.0817C189.534 60.0817 189.743 60.1234 189.739 60.0538C189.903 60.0156 189.677 59.8938 189.597 59.8173C189.566 59.8521 189.479 59.8312 189.423 59.8104C189.423 59.7756 189.583 59.7721 189.517 59.7408L189.736 59.7582C189.531 59.7512 189.52 59.6503 189.433 59.6295C189.597 59.626 189.569 59.6956 189.687 59.7129C189.68 59.5773 189.684 59.6434 189.677 59.5077C189.52 59.4208 189.468 59.5042 189.28 59.4521C189.242 59.386 189.096 59.3129 189.235 59.2503L189.04 59.2573C188.901 59.1286 188.926 59.059 189.127 58.9964C188.369 58.5025 187.83 58.4329 187.482 58.4712C187.134 58.5094 186.978 58.6624 186.978 58.6624C186.525 58.9546 187.079 59.1599 187.193 59.5669L187.197 59.5634Z" fill="#20BB65"/>
<path d="M183.337 76.7055L183.256 76.6774C183.288 76.6985 183.316 76.7125 183.337 76.7055Z" fill="#20BB65"/>
<path d="M178.677 81.8429C178.677 81.8429 178.68 81.8533 178.684 81.8602C178.684 81.8533 178.68 81.8464 178.677 81.8429Z" fill="#20BB65"/>
<path d="M180.559 75.8147C180.559 75.8147 180.553 75.8043 180.549 75.7974L180.559 75.8147Z" fill="#20BB65"/>
<path d="M181.537 74.9278C181.248 75.1399 180.9 74.98 180.8 75.3522C180.671 75.4635 180.629 75.6582 180.556 75.8148C180.733 76.0617 180.42 75.9852 180.553 76.2148L180.403 76.1348C180.448 76.2148 180.466 76.2774 180.375 76.2461L180.34 76.2148C180.407 76.3331 180.313 76.3261 180.347 76.3852L180.313 76.3505L180.292 76.4096L180.247 76.3574C180.295 76.507 180.246 76.58 180.149 76.5974L180.306 76.7226C180.031 76.6983 180.306 77.0183 180.006 76.9557L179.972 76.9209C180.246 77.4148 179.506 76.9035 179.756 77.3836C179.725 77.3244 179.673 77.3209 179.638 77.2862C179.62 77.3905 179.579 77.4809 179.874 77.7488C179.826 77.794 179.746 77.7036 179.627 77.6097C179.756 77.7279 179.77 77.8184 179.746 77.8636L179.711 77.801L179.655 77.9505L179.916 78.1523C179.794 78.1453 179.606 77.8949 179.617 78.0062L179.819 78.1905C179.704 78.2323 179.359 77.9992 179.144 77.9401C178.772 78.1732 178.946 78.9906 178.323 78.9419L178.166 78.8097C177.947 78.6045 178.403 79.1993 178.198 79.0149L178.26 79.1436C178.212 79.1158 178.152 79.095 178.121 79.0323C178.083 79.0532 178.118 79.0915 178.159 79.175L177.996 79.0776C177.773 79.095 177.923 79.4498 177.745 79.5263C177.328 79.408 177.279 79.9333 177.252 80.2463C177.314 80.7994 176.229 80.1941 176.326 80.7924C176.288 80.7681 176.333 80.8585 176.358 80.8829L176.1 81.0603C176.1 81.0603 175.805 81.2864 175.815 81.6516C175.829 82.0134 176.142 82.5247 177.405 83.0534L177.443 83.1056C177.679 83.1056 177.787 83.0569 177.655 82.7334C177.94 83.0186 177.791 82.6673 177.906 82.7334L177.926 82.7612C177.798 82.4621 178.264 82.7995 178.152 82.5282C178.17 82.556 178.243 82.636 178.232 82.6569C178.253 82.5699 178.271 82.4343 178.431 82.6012C178.521 82.4343 178.779 82.3369 178.608 81.989L178.646 82.0412C178.521 81.8151 178.681 81.9542 178.646 81.8116C178.671 81.8325 178.685 81.8394 178.692 81.8499C178.573 81.6203 178.817 81.676 178.782 81.5612L178.893 81.669L178.97 81.5438L178.907 81.5577C178.626 81.2377 179.172 81.6759 179.053 81.4046C179.161 81.3768 178.577 80.6359 178.792 80.7159C178.688 80.542 178.991 80.9768 178.932 80.8168C179.088 80.9733 179.005 80.9385 179.144 81.0533C179.119 80.9281 179.384 81.1333 179.342 80.9663L179.467 81.0881C179.325 80.7855 179.78 81.0985 179.62 80.8342C179.603 80.6498 180.041 81.1438 179.885 80.8168L180.083 80.949C180.146 80.9385 179.906 80.7194 180.027 80.7576C180.128 80.8655 180.163 80.789 180.24 80.9107C180.497 80.9768 180.194 80.4933 180.594 80.6394C180.413 80.4133 180.594 80.4689 180.462 80.2985C180.556 80.382 180.598 80.1872 180.727 80.4446C180.737 80.4654 180.727 80.4724 180.688 80.4411L180.803 80.5663C181.102 80.7159 180.803 80.3124 180.904 80.2776C180.841 80.2602 180.827 80.2985 180.761 80.1976L180.841 80.1489L180.932 80.2602L181.085 80.2185L180.942 80.1107C181.054 80.1246 181.29 80.3159 181.158 80.0863C181.078 79.9646 180.942 79.968 180.949 79.8811C181.099 79.8985 181.321 79.9263 181.436 79.8811C181.283 79.7524 181.307 79.735 181.3 79.6863L181.429 79.8011C181.335 79.5506 181.739 80.0272 181.68 79.808L181.763 79.8985L181.516 79.6306C181.335 79.3176 181.822 79.8289 181.554 79.4254C181.544 79.4811 181.259 79.1854 181.353 79.1923L181.467 79.3141C181.464 79.2654 181.419 79.2132 181.457 79.2202C181.513 79.2932 181.631 79.3906 181.641 79.335L181.774 79.4984L181.607 79.2271C181.787 79.2967 181.694 79.0636 181.888 79.1993C181.888 79.1993 182.076 79.1645 181.902 78.9662C182.003 79.0949 182.104 79.0741 182.229 79.2167C182.118 79.0671 182.083 78.8828 182.257 78.9767L182.267 78.9976C182.528 78.9976 182.257 78.6045 182.535 78.6428C182.379 78.5175 182.514 78.528 182.306 78.3749C182.212 78.0932 182.89 78.4932 182.32 77.9401C182.334 77.8601 182.518 77.9958 182.57 77.9923L182.591 78.0305C182.626 77.8879 182.647 77.8497 182.723 77.7871C182.695 77.7001 182.414 77.4601 182.539 77.4461C182.633 77.5609 182.636 77.5157 182.657 77.4914C182.661 77.5227 182.699 77.561 182.803 77.5888C182.772 77.554 182.758 77.5297 182.744 77.5088C182.754 77.5157 182.761 77.5192 182.772 77.5296C182.768 77.4531 182.727 77.4323 182.692 77.4392C182.674 77.4253 182.65 77.4079 182.615 77.387C182.8 77.4636 182.706 77.2548 182.907 77.4079C182.967 77.2409 182.834 76.987 182.845 76.8166C182.956 76.8861 183.026 76.9801 183.04 77.0427L183.064 76.9383C183.21 77.0531 183.113 77.0496 183.123 77.0948C183.433 77.1887 183.036 76.7227 183.339 76.7818L183.238 76.6705L183.262 76.6774C183.2 76.6287 183.134 76.5418 183.127 76.5105C183.266 76.594 183.422 76.74 183.457 76.6809C183.614 76.7331 183.488 76.5104 183.461 76.4026C183.415 76.4165 183.353 76.3505 183.314 76.3053C183.332 76.2739 183.471 76.3574 183.433 76.2948L183.61 76.4235C183.436 76.3087 183.485 76.2183 183.419 76.1557C183.561 76.2357 183.499 76.2809 183.593 76.3609C183.659 76.2391 183.624 76.2983 183.69 76.1766C183.6 76.02 183.516 76.0652 183.381 75.9226C183.381 75.8461 183.297 75.7069 183.447 75.7243L183.276 75.6269C183.224 75.4426 183.283 75.4008 183.488 75.4495C183.099 74.6321 182.671 74.2947 182.358 74.1486C182.041 74.0025 181.829 74.0512 181.829 74.0512C181.293 74.0616 181.655 74.5243 181.544 74.9312L181.537 74.9278Z" fill="#20BB65"/>
<path d="M170.295 88.5813L170.224 88.5285C170.245 88.5602 170.27 88.5813 170.295 88.5813Z" fill="#20BB65"/>
<path d="M164.541 92.3096C164.541 92.3096 164.541 92.3199 164.544 92.3268C164.544 92.3199 164.544 92.313 164.541 92.3096Z" fill="#20BB65"/>
<path d="M167.894 86.921C167.894 86.921 167.891 86.9074 167.887 86.9006V86.921H167.894Z" fill="#20BB65"/>
<path d="M169.123 86.3405C168.778 86.4623 168.486 86.2049 168.274 86.5388C168.114 86.6118 168.009 86.7892 167.895 86.9214C167.992 87.2101 167.714 87.0502 167.769 87.3076L167.644 87.1893C167.665 87.2762 167.665 87.3458 167.585 87.2901L167.561 87.2484C167.592 87.3806 167.502 87.3493 167.519 87.4154L167.495 87.3736L167.456 87.4258L167.425 87.3632C167.425 87.5232 167.359 87.5788 167.262 87.5719L167.38 87.7354C167.115 87.638 167.296 88.0241 167.022 87.8815L166.997 87.8397C167.129 88.3893 166.545 87.7006 166.66 88.2328C166.646 88.1667 166.594 88.1528 166.569 88.1076C166.524 88.205 166.462 88.2815 166.674 88.6154C166.615 88.6467 166.562 88.5389 166.472 88.4172C166.566 88.5633 166.559 88.6537 166.521 88.692L166.503 88.6224L166.409 88.7511L166.611 89.012C166.493 88.9737 166.378 88.685 166.357 88.7928L166.503 89.0224C166.382 89.0363 166.107 88.7233 165.912 88.612C165.484 88.7476 165.453 89.5825 164.854 89.3911L164.733 89.2276C164.569 88.9772 164.868 89.6625 164.712 89.4364L164.743 89.5755C164.705 89.5372 164.649 89.5024 164.635 89.4329C164.594 89.4468 164.618 89.4885 164.635 89.5824L164.5 89.4502C164.277 89.4189 164.34 89.7981 164.145 89.8294C163.762 89.6172 163.592 90.1251 163.491 90.4207C163.428 90.9738 162.496 90.1459 162.461 90.7547C162.43 90.7234 162.454 90.8208 162.472 90.8486L162.18 90.9668C162.18 90.9668 161.839 91.1269 161.773 91.4886C161.706 91.8469 161.912 92.4104 163.028 93.1965L163.053 93.2557C163.282 93.3079 163.397 93.2835 163.338 92.9391C163.554 93.2765 163.484 92.9044 163.581 92.9948L163.595 93.0261C163.533 92.7061 163.915 93.1374 163.863 92.8487C163.877 92.8765 163.929 92.9739 163.912 92.9913C163.95 92.9113 163.995 92.7826 164.117 92.9809C164.242 92.8383 164.51 92.8035 164.42 92.4243L164.444 92.4835C164.371 92.233 164.496 92.407 164.496 92.2609C164.514 92.2852 164.527 92.2956 164.534 92.3061C164.468 92.0556 164.691 92.1669 164.688 92.0452L164.771 92.1774L164.875 92.073H164.813C164.611 91.6973 165.042 92.2469 164.987 91.9582C165.098 91.9548 164.698 91.099 164.889 91.2277C164.827 91.0329 165.021 91.5269 165.001 91.3599C165.119 91.5477 165.046 91.4956 165.15 91.6382C165.154 91.513 165.366 91.7739 165.362 91.5999L165.456 91.746C165.387 91.419 165.755 91.8295 165.661 91.5338C165.686 91.353 165.995 91.9304 165.922 91.5791L166.086 91.753C166.148 91.7565 165.968 91.4886 166.075 91.5547C166.148 91.6834 166.197 91.6173 166.242 91.753C166.475 91.8817 166.295 91.3356 166.646 91.5756C166.524 91.3112 166.688 91.4121 166.597 91.2138C166.667 91.3182 166.754 91.1408 166.816 91.4225C166.82 91.4469 166.806 91.4504 166.782 91.4086L166.862 91.5582C167.115 91.7773 166.917 91.3147 167.025 91.3043C166.969 91.273 166.945 91.3043 166.907 91.193L166.994 91.1651L167.053 91.2973H167.209L167.098 91.1547C167.202 91.1964 167.383 91.4399 167.31 91.186C167.265 91.0503 167.129 91.019 167.157 90.9321C167.296 90.9877 167.505 91.0712 167.627 91.0538C167.512 90.8903 167.54 90.8799 167.543 90.8312L167.641 90.9738C167.609 90.706 167.884 91.2695 167.877 91.0469L167.933 91.1547L167.762 90.8347C167.665 90.4903 168.006 91.106 167.849 90.6469C167.825 90.6956 167.623 90.3373 167.714 90.3686L167.794 90.5182C167.801 90.4729 167.773 90.4068 167.808 90.4242C167.842 90.5112 167.933 90.6329 167.954 90.5842L168.041 90.7756L167.947 90.4695C168.103 90.5842 168.069 90.3338 168.222 90.5182C168.222 90.5182 168.406 90.5355 168.295 90.299C168.357 90.4486 168.458 90.4555 168.542 90.626C168.476 90.452 168.486 90.2677 168.632 90.4033V90.4277C168.886 90.5008 168.726 90.0451 168.983 90.1633C168.865 89.9999 168.994 90.0485 168.834 89.8433C168.82 89.5476 169.359 90.1216 168.963 89.4294C168.997 89.3564 169.136 89.5372 169.189 89.5511L169.199 89.5964C169.272 89.4677 169.3 89.4398 169.39 89.4015C169.39 89.3111 169.185 89.0015 169.307 89.0259C169.366 89.1615 169.38 89.1198 169.408 89.1024C169.404 89.1337 169.429 89.1824 169.519 89.2381C169.498 89.1963 169.491 89.1685 169.484 89.1441C169.491 89.1546 169.498 89.1616 169.505 89.172C169.519 89.0989 169.488 89.0676 169.456 89.0641C169.446 89.0433 169.429 89.0224 169.397 88.9946C169.55 89.1198 169.519 88.8937 169.669 89.0989C169.77 88.9598 169.721 88.6781 169.776 88.5215C169.863 88.6189 169.902 88.7337 169.898 88.7963L169.95 88.7024C170.055 88.8554 169.964 88.8207 169.961 88.8694C170.229 89.0537 169.985 88.4867 170.253 88.6363L170.19 88.5006L170.211 88.5146C170.166 88.452 170.131 88.3476 170.131 88.3163C170.239 88.438 170.343 88.6259 170.392 88.5772C170.524 88.6746 170.469 88.4276 170.476 88.3163C170.43 88.3163 170.389 88.2363 170.368 88.1772C170.392 88.1528 170.5 88.2745 170.483 88.2015L170.611 88.3789C170.483 88.2189 170.552 88.1458 170.514 88.0658C170.622 88.1876 170.552 88.2084 170.615 88.3163C170.712 88.2224 170.663 88.2676 170.761 88.1772C170.723 87.9998 170.632 88.0171 170.549 87.8397C170.577 87.7702 170.535 87.6102 170.67 87.6762L170.538 87.5301C170.545 87.3388 170.615 87.318 170.796 87.4293C170.688 86.5319 170.403 86.0692 170.152 85.8257C169.902 85.5857 169.679 85.5649 169.679 85.5649C169.157 85.4118 169.345 85.9718 169.105 86.3266L169.123 86.3405Z" fill="#20BB65"/>
<path d="M155.032 97.2427L154.972 97.1794C154.989 97.2146 155.007 97.2392 155.032 97.2427Z" fill="#20BB65"/>
<path d="M154.276 94.828C153.914 94.8871 153.67 94.581 153.403 94.8732C153.232 94.9184 153.097 95.0715 152.961 95.1828C153.006 95.4854 152.759 95.2767 152.77 95.5411L152.669 95.4054C152.672 95.4958 152.662 95.5654 152.592 95.4958L152.575 95.4506C152.582 95.5863 152.498 95.5411 152.502 95.6072L152.484 95.562L152.439 95.6072L152.422 95.5411C152.397 95.6976 152.317 95.7428 152.223 95.7185L152.31 95.8994C152.067 95.7602 152.178 96.1672 151.931 95.9828L151.914 95.9376C151.949 96.5011 151.493 95.722 151.51 96.2646C151.51 96.1985 151.458 96.1742 151.441 96.1289C151.382 96.2194 151.302 96.282 151.458 96.6507C151.396 96.6716 151.361 96.5568 151.291 96.4211C151.361 96.5811 151.333 96.6681 151.291 96.6994V96.6298L151.173 96.7412L151.326 97.0333C151.218 96.9776 151.152 96.6715 151.114 96.7759L151.222 97.0264C151.1 97.0195 150.881 96.6646 150.707 96.5185C150.262 96.5777 150.088 97.3986 149.531 97.1099L149.437 96.9255C149.319 96.6507 149.5 97.3777 149.382 97.1272L149.388 97.2699C149.357 97.2247 149.308 97.1829 149.305 97.1134C149.26 97.1203 149.277 97.1655 149.281 97.2594L149.169 97.1064C148.957 97.0368 148.954 97.4229 148.755 97.4229C148.415 97.1516 148.161 97.6247 148.011 97.896C147.858 98.4317 147.075 97.4612 146.936 98.056C146.912 98.0212 146.919 98.1186 146.929 98.1499L146.623 98.2195C146.623 98.2195 146.258 98.3239 146.136 98.6682C146.014 99.0126 146.122 99.6004 147.096 100.56L147.11 100.623C147.329 100.71 147.444 100.707 147.444 100.359C147.601 100.727 147.594 100.348 147.677 100.456L147.684 100.487C147.677 100.16 147.98 100.651 147.98 100.355C147.987 100.387 148.025 100.491 148.004 100.505C148.056 100.432 148.119 100.31 148.209 100.529C148.355 100.407 148.627 100.421 148.599 100.032L148.616 100.094C148.588 99.8369 148.682 100.028 148.703 99.8822C148.717 99.91 148.728 99.9204 148.731 99.9343C148.707 99.6769 148.908 99.8231 148.926 99.7048L148.985 99.8474L149.103 99.7639L149.041 99.7535C148.902 99.35 149.235 99.9656 149.232 99.67C149.34 99.6839 149.089 98.7761 149.256 98.9326C149.228 98.7308 149.336 99.2491 149.347 99.0821C149.43 99.2874 149.368 99.2247 149.448 99.3812C149.472 99.2595 149.635 99.5517 149.663 99.3812L149.729 99.5413C149.715 99.2074 150.011 99.6735 149.969 99.3674C150.025 99.1935 150.234 99.8161 150.22 99.4578L150.352 99.656C150.415 99.6734 150.279 99.3778 150.376 99.4613C150.429 99.6005 150.488 99.5448 150.509 99.6874C150.717 99.8543 150.63 99.2839 150.933 99.583C150.86 99.3047 151.003 99.4299 150.947 99.2178C150.999 99.3325 151.114 99.1726 151.128 99.4578C151.128 99.4822 151.114 99.4822 151.096 99.4369L151.149 99.5969C151.361 99.8578 151.246 99.3674 151.354 99.3744C151.305 99.3326 151.277 99.3604 151.256 99.2421L151.347 99.2282L151.385 99.3674L151.542 99.3952L151.458 99.2387C151.552 99.2978 151.691 99.5691 151.663 99.3082C151.639 99.1656 151.514 99.1099 151.556 99.0334C151.681 99.1099 151.872 99.2317 151.997 99.2352C151.91 99.0543 151.942 99.0508 151.952 99.0021L152.022 99.1621C152.039 98.8943 152.21 99.4961 152.244 99.2735L152.283 99.3882L152.171 99.0438C152.136 98.6856 152.363 99.3534 152.29 98.8769C152.258 98.9221 152.119 98.5326 152.203 98.5813L152.255 98.7413C152.269 98.696 152.255 98.6265 152.286 98.6508C152.303 98.7413 152.373 98.8769 152.404 98.8352L152.456 99.0404L152.418 98.7238C152.55 98.863 152.561 98.6125 152.679 98.8178C152.679 98.8178 152.86 98.8664 152.787 98.616C152.822 98.776 152.923 98.8004 152.975 98.9812C152.937 98.8004 152.982 98.6195 153.1 98.7795V98.8038C153.333 98.9186 153.253 98.4421 153.486 98.6021C153.399 98.4212 153.514 98.4908 153.396 98.2612C153.434 97.969 153.862 98.6265 153.594 97.8786C153.639 97.8125 153.744 98.0143 153.796 98.0386V98.0838C153.89 97.9725 153.921 97.9481 154.018 97.9273C154.032 97.8368 153.89 97.496 154.004 97.5447C154.039 97.6908 154.06 97.6524 154.088 97.6385C154.077 97.6698 154.095 97.7186 154.175 97.7916C154.161 97.7464 154.157 97.7186 154.157 97.6942C154.161 97.7047 154.168 97.7116 154.175 97.7255C154.203 97.6559 154.175 97.6177 154.144 97.6108C154.137 97.5899 154.123 97.5655 154.098 97.5308C154.227 97.6803 154.237 97.4542 154.345 97.6803C154.47 97.5586 154.471 97.2768 154.551 97.1307C154.617 97.242 154.637 97.3603 154.62 97.4229L154.69 97.3394C154.766 97.5099 154.683 97.4612 154.672 97.5064C154.902 97.7325 154.763 97.1342 154.999 97.329L154.964 97.1829L154.982 97.2003C154.951 97.1308 154.933 97.0194 154.94 96.9881C155.024 97.1272 155.097 97.329 155.152 97.2907C155.267 97.4124 155.257 97.1585 155.281 97.0472C155.236 97.0368 155.208 96.9498 155.201 96.8907C155.229 96.8733 155.316 97.0125 155.309 96.936L155.403 97.1342C155.305 96.9533 155.389 96.8942 155.361 96.8072C155.448 96.9464 155.371 96.9568 155.417 97.0716C155.528 96.9985 155.472 97.0333 155.584 96.9603C155.577 96.7794 155.483 96.7794 155.434 96.5881C155.472 96.522 155.462 96.3585 155.584 96.4489L155.479 96.282C155.521 96.0941 155.594 96.0872 155.751 96.2298C155.806 95.3254 155.615 94.821 155.41 94.5358C155.204 94.254 154.992 94.1949 154.992 94.1949C154.505 93.9514 154.589 94.5358 154.286 94.8419L154.276 94.828Z" fill="#20BB65"/>
<path d="M138.566 103.264L138.517 103.194C138.527 103.229 138.541 103.26 138.566 103.264Z" fill="#20BB65"/>
<path d="M138.196 100.762C137.827 100.762 137.636 100.425 137.326 100.672C137.149 100.689 136.992 100.821 136.839 100.908C136.839 101.214 136.624 100.971 136.596 101.232L136.516 101.079C136.505 101.169 136.481 101.235 136.429 101.155L136.419 101.107C136.405 101.242 136.332 101.183 136.321 101.249L136.311 101.2L136.259 101.235L136.252 101.166C136.203 101.319 136.119 101.346 136.029 101.308L136.085 101.503C135.865 101.326 135.911 101.747 135.698 101.527L135.688 101.479C135.636 102.042 135.305 101.2 135.239 101.74C135.246 101.673 135.205 101.642 135.194 101.593C135.121 101.673 135.034 101.726 135.128 102.108C135.062 102.119 135.045 102 134.999 101.854C135.041 102.021 135.003 102.108 134.958 102.129L134.965 102.06L134.836 102.154L134.944 102.463C134.843 102.39 134.829 102.08 134.773 102.174L134.839 102.439C134.721 102.414 134.561 102.028 134.411 101.858C133.963 101.847 133.664 102.633 133.156 102.258L133.093 102.063C133.017 101.774 133.083 102.519 133.006 102.254L132.992 102.397C132.968 102.348 132.926 102.3 132.937 102.227C132.891 102.227 132.902 102.272 132.891 102.369L132.804 102.199C132.606 102.098 132.54 102.48 132.349 102.449C132.053 102.129 131.73 102.557 131.542 102.804C131.309 103.312 130.683 102.23 130.456 102.797C130.436 102.759 130.429 102.856 130.436 102.891L130.123 102.912C130.123 102.912 129.747 102.957 129.573 103.281C129.399 103.601 129.416 104.199 130.23 105.294V105.361C130.436 105.482 130.554 105.493 130.606 105.148C130.703 105.538 130.756 105.159 130.822 105.281V105.312C130.867 104.988 131.09 105.517 131.135 105.228C131.135 105.26 131.159 105.368 131.135 105.381C131.197 105.315 131.281 105.208 131.333 105.434C131.497 105.336 131.761 105.392 131.796 105.002L131.803 105.068C131.813 104.808 131.876 105.013 131.921 104.874C131.931 104.901 131.938 104.915 131.942 104.929C131.959 104.672 132.137 104.846 132.168 104.731L132.206 104.881L132.335 104.815L132.276 104.794C132.203 104.373 132.439 105.034 132.477 104.741C132.582 104.773 132.477 103.834 132.617 104.018C132.617 103.813 132.648 104.345 132.683 104.178C132.735 104.394 132.683 104.321 132.738 104.491C132.784 104.373 132.898 104.686 132.951 104.522L132.992 104.689C133.031 104.355 133.25 104.863 133.253 104.554C133.333 104.39 133.444 105.037 133.486 104.679L133.584 104.898C133.643 104.922 133.556 104.609 133.636 104.707C133.667 104.853 133.733 104.804 133.733 104.95C133.911 105.145 133.914 104.571 134.171 104.912C134.14 104.623 134.265 104.769 134.241 104.554C134.276 104.675 134.411 104.533 134.384 104.821C134.384 104.846 134.366 104.846 134.356 104.797L134.384 104.964C134.554 105.253 134.516 104.752 134.62 104.776C134.578 104.728 134.547 104.752 134.544 104.634H134.638L134.651 104.78L134.801 104.828L134.742 104.661C134.825 104.735 134.919 105.023 134.933 104.759C134.933 104.616 134.818 104.543 134.871 104.47C134.985 104.568 135.156 104.714 135.274 104.738C135.215 104.547 135.246 104.547 135.267 104.498L135.312 104.665C135.368 104.404 135.445 105.023 135.514 104.811L135.532 104.929L135.476 104.571C135.497 104.213 135.618 104.905 135.618 104.421C135.58 104.46 135.504 104.056 135.577 104.115L135.605 104.282C135.625 104.241 135.618 104.171 135.65 104.199C135.653 104.289 135.698 104.439 135.737 104.397L135.758 104.606L135.768 104.286C135.879 104.442 135.928 104.199 136.012 104.421C136.012 104.421 136.182 104.498 136.151 104.237C136.161 104.401 136.255 104.439 136.279 104.627C136.272 104.442 136.342 104.268 136.436 104.446V104.47C136.645 104.62 136.641 104.136 136.843 104.331C136.784 104.14 136.888 104.223 136.805 103.98C136.888 103.694 137.208 104.415 137.059 103.632C137.114 103.573 137.187 103.792 137.232 103.82L137.226 103.865C137.337 103.768 137.368 103.75 137.469 103.743C137.497 103.656 137.406 103.298 137.514 103.361C137.525 103.51 137.553 103.475 137.584 103.465C137.57 103.493 137.577 103.545 137.643 103.628C137.636 103.583 137.639 103.552 137.643 103.528C137.643 103.538 137.65 103.548 137.653 103.562C137.692 103.5 137.671 103.458 137.643 103.444C137.639 103.423 137.629 103.395 137.612 103.357C137.716 103.524 137.758 103.305 137.831 103.545C137.973 103.444 138.015 103.166 138.12 103.034C138.168 103.155 138.168 103.274 138.144 103.333L138.224 103.26C138.273 103.441 138.199 103.378 138.182 103.423C138.373 103.684 138.328 103.068 138.533 103.301L138.52 103.152L138.533 103.173C138.513 103.096 138.513 102.988 138.526 102.957C138.589 103.107 138.627 103.319 138.687 103.291C138.78 103.427 138.808 103.176 138.85 103.072C138.808 103.054 138.794 102.964 138.794 102.905C138.826 102.891 138.888 103.04 138.892 102.967L138.954 103.176C138.885 102.981 138.975 102.94 138.965 102.849C139.027 102.999 138.954 102.999 138.979 103.117C139.1 103.061 139.041 103.089 139.163 103.034C139.187 102.856 139.093 102.839 139.073 102.644C139.121 102.585 139.139 102.421 139.243 102.529L139.166 102.348C139.236 102.171 139.309 102.171 139.441 102.341C139.64 101.458 139.528 100.926 139.372 100.616C139.215 100.303 139.013 100.213 139.013 100.213C138.568 99.8925 138.561 100.487 138.213 100.741L138.196 100.762Z" fill="#20BB65"/>
<path d="M121.371 106.683L121.336 106.606C121.34 106.645 121.35 106.676 121.371 106.683Z" fill="#20BB65"/>
<path d="M114.555 107.333C114.555 107.333 114.555 107.343 114.548 107.35C114.551 107.343 114.555 107.336 114.555 107.333Z" fill="#20BB65"/>
<path d="M120.024 104.094C120.024 104.094 120.024 104.08 120.027 104.074L120.021 104.094H120.024Z" fill="#20BB65"/>
<path d="M121.387 104.157C121.022 104.102 120.886 103.74 120.542 103.935C120.365 103.924 120.191 104.032 120.024 104.095C119.975 104.397 119.801 104.122 119.731 104.38L119.676 104.22C119.651 104.307 119.62 104.369 119.578 104.282V104.234C119.54 104.366 119.478 104.296 119.46 104.362V104.314L119.401 104.341V104.272C119.331 104.415 119.245 104.432 119.161 104.38L119.189 104.582C118.998 104.373 118.98 104.797 118.803 104.547V104.498C118.664 105.048 118.465 104.168 118.316 104.689C118.333 104.623 118.295 104.588 118.291 104.536C118.208 104.602 118.114 104.641 118.149 105.037C118.083 105.037 118.083 104.919 118.062 104.766C118.079 104.94 118.027 105.016 117.978 105.03L117.996 104.961L117.853 105.034L117.912 105.357C117.825 105.27 117.857 104.961 117.787 105.048L117.811 105.319C117.697 105.277 117.596 104.87 117.474 104.682C117.029 104.606 116.618 105.333 116.173 104.888L116.138 104.686C116.107 104.39 116.058 105.135 116.023 104.86L115.985 104.999C115.968 104.947 115.936 104.891 115.954 104.822C115.909 104.815 115.912 104.863 115.888 104.954L115.829 104.773C115.648 104.641 115.526 105.009 115.338 104.95C115.095 104.588 114.709 104.961 114.486 105.18C114.18 105.646 113.724 104.481 113.415 105.009C113.401 104.968 113.376 105.065 113.38 105.1L113.067 105.072C113.067 105.072 112.688 105.062 112.465 105.35C112.246 105.642 112.169 106.234 112.809 107.441V107.507C112.987 107.656 113.098 107.688 113.202 107.354C113.241 107.754 113.349 107.389 113.394 107.514V107.545C113.481 107.232 113.623 107.789 113.71 107.51C113.71 107.542 113.71 107.653 113.689 107.66C113.762 107.604 113.86 107.51 113.877 107.743C114.051 107.674 114.309 107.764 114.399 107.389V107.455C114.444 107.201 114.476 107.413 114.542 107.281C114.549 107.312 114.552 107.326 114.552 107.34C114.608 107.086 114.757 107.288 114.806 107.18L114.82 107.333L114.959 107.288L114.903 107.256C114.893 106.829 115.029 107.517 115.112 107.236C115.213 107.284 115.248 106.338 115.359 106.54C115.394 106.338 115.338 106.867 115.401 106.707C115.418 106.929 115.376 106.85 115.408 107.023C115.47 106.912 115.536 107.243 115.613 107.086L115.627 107.26C115.717 106.936 115.853 107.472 115.905 107.166C116.01 107.016 116.02 107.674 116.114 107.326L116.177 107.556C116.232 107.59 116.19 107.267 116.257 107.375C116.263 107.521 116.337 107.486 116.316 107.629C116.462 107.848 116.552 107.281 116.754 107.656C116.768 107.368 116.869 107.531 116.876 107.316C116.89 107.441 117.05 107.323 116.973 107.601C116.966 107.625 116.952 107.622 116.949 107.573V107.743C117.074 108.056 117.112 107.552 117.213 107.594C117.178 107.542 117.144 107.559 117.157 107.441L117.248 107.455L117.241 107.601L117.38 107.674L117.345 107.5C117.418 107.583 117.467 107.883 117.519 107.625C117.54 107.483 117.436 107.392 117.502 107.333C117.599 107.444 117.745 107.615 117.86 107.66C117.832 107.462 117.86 107.465 117.888 107.423L117.905 107.597C118.003 107.347 117.982 107.973 118.083 107.771V107.893V107.531C118.156 107.18 118.173 107.883 118.246 107.406C118.201 107.441 118.191 107.027 118.253 107.096V107.263C118.281 107.225 118.288 107.156 118.312 107.187C118.302 107.277 118.326 107.43 118.368 107.396L118.358 107.608L118.417 107.295C118.5 107.465 118.587 107.232 118.636 107.465C118.636 107.465 118.792 107.566 118.799 107.305C118.785 107.469 118.872 107.521 118.869 107.709C118.89 107.524 118.987 107.364 119.05 107.552L119.043 107.573C119.227 107.754 119.297 107.274 119.471 107.5C119.443 107.302 119.533 107.403 119.488 107.149C119.613 106.881 119.822 107.639 119.794 106.843C119.86 106.794 119.895 107.02 119.937 107.055L119.926 107.1C120.048 107.02 120.086 107.01 120.184 107.016C120.222 106.933 120.191 106.568 120.285 106.644C120.274 106.794 120.305 106.763 120.337 106.759C120.319 106.783 120.319 106.839 120.372 106.933C120.372 106.888 120.378 106.86 120.385 106.836C120.385 106.846 120.389 106.856 120.392 106.87C120.441 106.811 120.427 106.77 120.399 106.752C120.399 106.731 120.392 106.7 120.382 106.662C120.458 106.843 120.535 106.63 120.57 106.881C120.726 106.804 120.81 106.533 120.935 106.422C120.966 106.547 120.949 106.665 120.914 106.721L121.005 106.662C121.025 106.846 120.963 106.776 120.939 106.815C121.088 107.1 121.137 106.488 121.304 106.745L121.314 106.596L121.325 106.62C121.314 106.543 121.332 106.432 121.349 106.408C121.387 106.568 121.394 106.78 121.457 106.763C121.526 106.912 121.596 106.665 121.652 106.571C121.61 106.55 121.613 106.456 121.62 106.397C121.652 106.387 121.69 106.547 121.707 106.474L121.739 106.689C121.7 106.488 121.798 106.456 121.798 106.366C121.836 106.526 121.763 106.512 121.77 106.634C121.899 106.596 121.836 106.616 121.965 106.578C122.013 106.404 121.926 106.373 121.937 106.178C121.992 106.129 122.034 105.969 122.121 106.091L122.073 105.9C122.17 105.736 122.243 105.747 122.344 105.935C122.674 105.093 122.643 104.55 122.539 104.22C122.431 103.889 122.243 103.768 122.243 103.768C121.853 103.385 121.752 103.969 121.373 104.171L121.387 104.157Z" fill="#20BB65"/>
</svg>
